;TYPE=PLATED
;Layer: PTH_Through
;EasyEDA Pro v3.2.148, 2026-06-08 07:05:24
;Gerber Generator version 0.3
M48
METRIC,LZ,0000.00000
;Hole size 1 = 0.30500 METRIC
T01C0.30500
;Hole size 2 = 1.02001 METRIC
T02C1.02001
;Hole size 3 = 1.10002 METRIC
T03C1.10002
%
G05
G90
T01
X5.98396Y27.61742
X7.33108Y32.33568
X29.78013Y32.75303
X28.51653Y27.598
X52.959Y32.87298
X51.44673Y27.64871
X75.53008Y32.66285
X74.06931Y27.52171
X15.14765Y9.106
X-0.41674Y9.99808
X-8.60267Y6.78081
X33.401Y7.239
X38.35907Y7.24496
X36.12173Y7.24496
X33.13643Y10.54865
X33.6454Y10.03968
X32.08178Y10.97148
X-0.79255Y7.52793
T02
X-10.922Y35.433
X-10.922Y32.893
X-8.382Y35.433
X-8.382Y32.893
X-5.842Y35.433
X-5.842Y32.893
X-3.30203Y35.433
X-3.30203Y32.893
X-0.76203Y35.433
X-0.76203Y32.893
X1.77797Y35.433
X1.77797Y32.893
X11.938Y35.433
X11.938Y32.893
X14.478Y35.433
X14.478Y32.893
X17.018Y35.433
X17.018Y32.893
X19.55797Y35.433
X19.55797Y32.893
X22.09797Y35.433
X22.09797Y32.893
X24.63797Y35.433
X24.63797Y32.893
X47.498Y35.433
X47.498Y32.893
X44.958Y35.433
X44.958Y32.893
X42.418Y35.433
X42.418Y32.893
X39.87803Y35.433
X39.87803Y32.893
X37.33803Y35.433
X37.33803Y32.893
X34.79803Y35.433
X34.79803Y32.893
X70.358Y35.433
X70.358Y32.893
X67.818Y35.433
X67.818Y32.893
X65.278Y35.433
X65.278Y32.893
X62.73803Y35.433
X62.73803Y32.893
X60.19803Y35.433
X60.19803Y32.893
X57.65803Y35.433
X57.65803Y32.893
T03
X-13.208Y19.558
X-10.668Y19.558
X-13.208Y17.018
X-10.668Y17.018
X-13.208Y14.478
X-10.668Y14.478
X-13.208Y11.938
X-10.668Y11.938
X-13.208Y9.144
X-10.668Y9.144
X53.34Y16.764
X53.34Y14.224
X50.8Y16.764
X50.8Y14.224
X48.26Y16.764
X48.26Y14.224
X45.72Y16.764
X45.72Y14.224
X43.18Y16.764
X43.18Y14.224
X40.64Y16.764
X40.64Y14.224
X38.1Y16.764
X38.1Y14.224
X35.56Y16.764
X35.56Y14.224
X33.02Y16.764
X33.02Y14.224
X30.48Y16.764
X30.48Y14.224
X27.94Y16.764
X27.94Y14.224
X25.4Y16.764
X25.4Y14.224
X22.86Y16.764
X22.86Y14.224
X20.32Y16.764
X20.32Y14.224
X17.78Y16.764
X17.78Y14.224
X15.24Y16.764
X15.24Y14.224
X12.7Y16.764
X12.7Y14.224
X10.16Y16.764
X10.16Y14.224
X7.62Y16.764
X7.62Y14.224
X5.08Y16.764
X5.08Y14.224
M30