G04 Layer: BottomLayer*
G04 EasyEDA Pro v3.2.148, 2026-06-08 07:05:24*
G04 Gerber Generator version 0.3*
G04 Scale: 100 percent, Rotated: No, Reflected: No*
G04 Dimensions in millimeters*
G04 Leading zeros omitted, absolute positions, 4 integers and 5 decimals*
G04 Generated by one-click*
G04 Object Configs: Pad,Via,Track,Text,Image,Dimension,BoardOutline,BoardCutout,CopperFilled,SolidRegion,FPCStiffener,Line,PlaneZone,ComponentProperty,ComponentSilkscreen,TearDrop*
G04 Layer Configs: 1,15,16,2,3,4,5,6,7,8,9,10,11,13,14,56*
G04 Copper Areas: 0*
%FSLAX45Y45*%
%MOMM*%
%ADD10C,1.6*%
%ADD11R,1.6X1.6*%
%ADD12C,1.8*%
%ADD13C,1.7*%
%ADD14R,1.7X1.524*%
%ADD15C,0.61*%
%ADD16C,0.2542*%
%ADD17C,0.254*%
G75*


G04 Pad Start*
G54D10*
G01X-1320800Y1955800D03*
G01X-1066800Y1955800D03*
G54D11*
G01X-1320800Y1701800D03*
G54D10*
G01X-1066800Y1701800D03*
G54D11*
G01X-1320800Y1447800D03*
G54D10*
G01X-1066800Y1447800D03*
G01X-1320800Y1193800D03*
G01X-1066800Y1193800D03*
G54D12*
G01X-1320800Y914400D03*
G01X-1066800Y914400D03*
G54D13*
G01X5334000Y1676400D03*
G01X5334000Y1422400D03*
G01X5080000Y1676400D03*
G01X5080000Y1422400D03*
G01X4826000Y1676400D03*
G01X4826000Y1422400D03*
G01X4572000Y1676400D03*
G01X4572000Y1422400D03*
G01X4318000Y1676400D03*
G01X4318000Y1422400D03*
G01X4064000Y1676400D03*
G01X4064000Y1422400D03*
G01X3810000Y1676400D03*
G01X3810000Y1422400D03*
G01X3556000Y1676400D03*
G01X3556000Y1422400D03*
G01X3302000Y1676400D03*
G01X3302000Y1422400D03*
G01X3048000Y1676400D03*
G01X3048000Y1422400D03*
G01X2794000Y1676400D03*
G01X2794000Y1422400D03*
G01X2540000Y1676400D03*
G01X2540000Y1422400D03*
G01X2286000Y1676400D03*
G01X2286000Y1422400D03*
G01X2032000Y1676400D03*
G01X2032000Y1422400D03*
G01X1778000Y1676400D03*
G01X1778000Y1422400D03*
G01X1524000Y1676400D03*
G01X1524000Y1422400D03*
G01X1270000Y1676400D03*
G01X1270000Y1422400D03*
G01X1016000Y1676400D03*
G01X1016000Y1422400D03*
G01X762000Y1676400D03*
G01X762000Y1422400D03*
G01X508000Y1676400D03*
G54D14*
G01X508000Y1422400D03*
G54D10*
G01X-1092203Y3543300D03*
G01X-1092203Y3289300D03*
G01X-838203Y3543300D03*
G01X-838203Y3289300D03*
G01X-584203Y3543300D03*
G01X-584203Y3289300D03*
G01X-330203Y3543300D03*
G01X-330203Y3289300D03*
G54D11*
G01X-76203Y3543300D03*
G01X-76203Y3289300D03*
G54D10*
G01X177797Y3543300D03*
G01X177797Y3289300D03*
G01X1193797Y3543300D03*
G01X1193797Y3289300D03*
G01X1447797Y3543300D03*
G01X1447797Y3289300D03*
G01X1701797Y3543300D03*
G01X1701797Y3289300D03*
G01X1955797Y3543300D03*
G01X1955797Y3289300D03*
G54D11*
G01X2209797Y3543300D03*
G01X2209797Y3289300D03*
G54D10*
G01X2463797Y3543300D03*
G01X2463797Y3289300D03*
G01X4749803Y3543300D03*
G01X4749803Y3289300D03*
G54D11*
G01X4495803Y3543300D03*
G01X4495803Y3289300D03*
G54D10*
G01X4241803Y3543300D03*
G01X4241803Y3289300D03*
G01X3987803Y3543300D03*
G01X3987803Y3289300D03*
G01X3733803Y3543300D03*
G01X3733803Y3289300D03*
G01X3479803Y3543300D03*
G01X3479803Y3289300D03*
G01X7035803Y3543300D03*
G01X7035803Y3289300D03*
G54D11*
G01X6781803Y3543300D03*
G01X6781803Y3289300D03*
G54D10*
G01X6527803Y3543300D03*
G01X6527803Y3289300D03*
G01X6273803Y3543300D03*
G01X6273803Y3289300D03*
G01X6019803Y3543300D03*
G01X6019803Y3289300D03*
G01X5765803Y3543300D03*
G01X5765803Y3289300D03*
G04 Pad End*

G04 Via Start*
G54D15*
G01X598396Y2761742D03*
G01X733108Y3233568D03*
G01X2978013Y3275303D03*
G01X2851653Y2759800D03*
G01X5295900Y3287298D03*
G01X5144673Y2764871D03*
G01X7553008Y3266285D03*
G01X7406931Y2752171D03*
G01X1514765Y910600D03*
G01X-41674Y999808D03*
G01X-860267Y678081D03*
G01X3340100Y723900D03*
G01X3835907Y724496D03*
G01X3612173Y724496D03*
G01X3313643Y1054865D03*
G01X3364540Y1003968D03*
G01X3208178Y1097148D03*
G01X-79255Y752793D03*
G04 Via End*

G04 Track Start*
G54D17*
G01X1514765Y910600D02*
G01X1545600Y910600D01*
G01X2044700Y1409700D01*
G01X-1320800Y1701800D02*
G01X-1320800Y1447800D01*
G04 Track End*

M02*

