G04 Layer: DrillDrawingLayer*
G04 EasyEDA Pro v3.2.148, 2026-06-08 07:05:24*
G04 Gerber Generator version 0.3*
G04 Scale: 100 percent, Rotated: No, Reflected: No*
G04 Dimensions in millimeters*
G04 Leading zeros omitted, absolute positions, 4 integers and 5 decimals*
G04 Generated by one-click*
G04 Object Configs: Pad,Via,Track,Text,Image,Dimension,BoardOutline,BoardCutout,CopperFilled,SolidRegion,FPCStiffener,Line,PlaneZone,ComponentProperty,ComponentSilkscreen,TearDrop*
G04 Layer Configs: 1,15,16,2,3,4,5,6,7,8,9,10,11,13,14,56*
G04 Copper Areas: 0*
%FSLAX45Y45*%
%MOMM*%
%AMIconRect*4,1,4,0.28,-0.28,-0.28,-0.28,-0.28,0.28,0.28,0.28,0.28,-0.28,0*4,0,4,0.233333,-0.233333,0.233333,0.233333,-0.233333,0.233333,-0.233333,-0.233333,0.233333,-0.233333,0*%
%AMIconTriangle*4,1,3,-0.339593,0.240473,0.339593,0.240473,0,-0.37884,-0.339593,0.240473,0*4,0,3,-0.265673,0.19404,0,-0.27342,0.266233,0.19404,-0.265673,0.19404,0*%
%AMIconStar6*4,1,12,0.12068,0.20888,0.298527,0.172713,0.241313,0,0.298527,-0.17206,0.12068,-0.208227,0,-0.344073,-0.120073,-0.208227,-0.298573,-0.17206,-0.240707,0,-0.298573,0.17206,-0.120073,0.20888,0,0.344073,0.12068,0.20888,0*4,0,12,-0.000467,0.273467,-0.090067,0.171733,-0.237533,0.136733,-0.193667,-0.007467,-0.237533,-0.1372,-0.090067,-0.171733,-0.000467,-0.273933,0.090067,-0.171733,0.237533,-0.1372,0.194133,0.007,0.237533,0.1372,0.090067,0.171267,-0.000467,0.273467,0*%
%ADD10IconRect*%
%ADD11C,0.616X0.522667*%
%ADD12IconTriangle*%
%ADD13IconStar6*%
%ADD14C,0.2032*%
%ADD15C,0.254*%
G75*


G04 Drill Drawing Start*
G54D10*
G01X685800Y4165600D03*
G01X2971800Y4165600D03*
G01X5219700Y4165600D03*
G01X7442200Y4165600D03*
G54D11*
G01X-860267Y678081D03*
G01X-79255Y752793D03*
G01X-41674Y999808D03*
G01X598396Y2761742D03*
G01X733108Y3233568D03*
G01X1514765Y910600D03*
G01X2851653Y2759800D03*
G01X2978013Y3275303D03*
G01X3208178Y1097148D03*
G01X3313643Y1054865D03*
G01X3340100Y723900D03*
G01X3364540Y1003968D03*
G01X3612173Y724496D03*
G01X3835907Y724496D03*
G01X5144673Y2764871D03*
G01X5295900Y3287298D03*
G01X7406931Y2752171D03*
G01X7553008Y3266285D03*
G54D12*
G01X-1092200Y3289300D03*
G01X-1092200Y3543300D03*
G01X-838200Y3289300D03*
G01X-838200Y3543300D03*
G01X-584200Y3289300D03*
G01X-584200Y3543300D03*
G01X-330203Y3289300D03*
G01X-330203Y3543300D03*
G01X-76203Y3289300D03*
G01X-76203Y3543300D03*
G01X177797Y3289300D03*
G01X177797Y3543300D03*
G01X1193800Y3289300D03*
G01X1193800Y3543300D03*
G01X1447800Y3289300D03*
G01X1447800Y3543300D03*
G01X1701800Y3289300D03*
G01X1701800Y3543300D03*
G01X1955797Y3289300D03*
G01X1955797Y3543300D03*
G01X2209797Y3289300D03*
G01X2209797Y3543300D03*
G01X2463797Y3289300D03*
G01X2463797Y3543300D03*
G01X3479803Y3289300D03*
G01X3479803Y3543300D03*
G01X3733803Y3289300D03*
G01X3733803Y3543300D03*
G01X3987803Y3289300D03*
G01X3987803Y3543300D03*
G01X4241800Y3289300D03*
G01X4241800Y3543300D03*
G01X4495800Y3289300D03*
G01X4495800Y3543300D03*
G01X4749800Y3289300D03*
G01X4749800Y3543300D03*
G01X5765803Y3289300D03*
G01X5765803Y3543300D03*
G01X6019803Y3289300D03*
G01X6019803Y3543300D03*
G01X6273803Y3289300D03*
G01X6273803Y3543300D03*
G01X6527800Y3289300D03*
G01X6527800Y3543300D03*
G01X6781800Y3289300D03*
G01X6781800Y3543300D03*
G01X7035800Y3289300D03*
G01X7035800Y3543300D03*
G54D13*
G01X-1320800Y914400D03*
G01X-1320800Y1193800D03*
G01X-1320800Y1447800D03*
G01X-1320800Y1701800D03*
G01X-1320800Y1955800D03*
G01X-1066800Y914400D03*
G01X-1066800Y1193800D03*
G01X-1066800Y1447800D03*
G01X-1066800Y1701800D03*
G01X-1066800Y1955800D03*
G01X508000Y1422400D03*
G01X508000Y1676400D03*
G01X762000Y1422400D03*
G01X762000Y1676400D03*
G01X1016000Y1422400D03*
G01X1016000Y1676400D03*
G01X1270000Y1422400D03*
G01X1270000Y1676400D03*
G01X1524000Y1422400D03*
G01X1524000Y1676400D03*
G01X1778000Y1422400D03*
G01X1778000Y1676400D03*
G01X2032000Y1422400D03*
G01X2032000Y1676400D03*
G01X2286000Y1422400D03*
G01X2286000Y1676400D03*
G01X2540000Y1422400D03*
G01X2540000Y1676400D03*
G01X2794000Y1422400D03*
G01X2794000Y1676400D03*
G01X3048000Y1422400D03*
G01X3048000Y1676400D03*
G01X3302000Y1422400D03*
G01X3302000Y1676400D03*
G01X3556000Y1422400D03*
G01X3556000Y1676400D03*
G01X3810000Y1422400D03*
G01X3810000Y1676400D03*
G01X4064000Y1422400D03*
G01X4064000Y1676400D03*
G01X4318000Y1422400D03*
G01X4318000Y1676400D03*
G01X4572000Y1422400D03*
G01X4572000Y1676400D03*
G01X4826000Y1422400D03*
G01X4826000Y1676400D03*
G01X5080000Y1422400D03*
G01X5080000Y1676400D03*
G01X5334000Y1422400D03*
G01X5334000Y1676400D03*
G04 Drill Drawing End*

G04 Text Start*
G54D14*
G01X10022046Y4375694D02*
G01X10022046Y4255552D01*
G01X10022046Y4375694D02*
G01X10067766Y4255552D01*
G01X10113486Y4375694D02*
G01X10067766Y4255552D01*
G01X10113486Y4375694D02*
G01X10113486Y4255552D01*
G01X10229818Y4335562D02*
G01X10229818Y4255552D01*
G01X10229818Y4318544D02*
G01X10218388Y4329974D01*
G01X10206958Y4335562D01*
G01X10189940Y4335562D01*
G01X10178510Y4329974D01*
G01X10167080Y4318544D01*
G01X10161238Y4301272D01*
G01X10161238Y4289842D01*
G01X10167080Y4272824D01*
G01X10178510Y4261394D01*
G01X10189940Y4255552D01*
G01X10206958Y4255552D01*
G01X10218388Y4261394D01*
G01X10229818Y4272824D01*
G01X10277570Y4335562D02*
G01X10277570Y4255552D01*
G01X10277570Y4301272D02*
G01X10283412Y4318544D01*
G01X10294842Y4329974D01*
G01X10306272Y4335562D01*
G01X10323290Y4335562D01*
G01X10371042Y4375694D02*
G01X10371042Y4255552D01*
G01X10428192Y4335562D02*
G01X10371042Y4278412D01*
G01X10393902Y4301272D02*
G01X10434034Y4255552D01*
G01X11559326Y4346992D02*
G01X11553484Y4358422D01*
G01X11542054Y4369852D01*
G01X11530624Y4375694D01*
G01X11507764Y4375694D01*
G01X11496334Y4369852D01*
G01X11484904Y4358422D01*
G01X11479316Y4346992D01*
G01X11473474Y4329974D01*
G01X11473474Y4301272D01*
G01X11479316Y4284254D01*
G01X11484904Y4272824D01*
G01X11496334Y4261394D01*
G01X11507764Y4255552D01*
G01X11530624Y4255552D01*
G01X11542054Y4261394D01*
G01X11553484Y4272824D01*
G01X11559326Y4284254D01*
G01X11635780Y4335562D02*
G01X11624350Y4329974D01*
G01X11612920Y4318544D01*
G01X11607078Y4301272D01*
G01X11607078Y4289842D01*
G01X11612920Y4272824D01*
G01X11624350Y4261394D01*
G01X11635780Y4255552D01*
G01X11652798Y4255552D01*
G01X11664228Y4261394D01*
G01X11675658Y4272824D01*
G01X11681500Y4289842D01*
G01X11681500Y4301272D01*
G01X11675658Y4318544D01*
G01X11664228Y4329974D01*
G01X11652798Y4335562D01*
G01X11635780Y4335562D01*
G01X11729252Y4335562D02*
G01X11729252Y4278412D01*
G01X11735094Y4261394D01*
G01X11746524Y4255552D01*
G01X11763542Y4255552D01*
G01X11774972Y4261394D01*
G01X11792244Y4278412D01*
G01X11792244Y4335562D02*
G01X11792244Y4255552D01*
G01X11839996Y4335562D02*
G01X11839996Y4255552D01*
G01X11839996Y4312702D02*
G01X11857268Y4329974D01*
G01X11868698Y4335562D01*
G01X11885716Y4335562D01*
G01X11897146Y4329974D01*
G01X11902988Y4312702D01*
G01X11902988Y4255552D01*
G01X11968012Y4375694D02*
G01X11968012Y4278412D01*
G01X11973600Y4261394D01*
G01X11985030Y4255552D01*
G01X11996460Y4255552D01*
G01X11950740Y4335562D02*
G01X11990872Y4335562D01*
G01X12967647Y4358422D02*
G01X12956217Y4369852D01*
G01X12939199Y4375694D01*
G01X12916339Y4375694D01*
G01X12899067Y4369852D01*
G01X12887637Y4358422D01*
G01X12887637Y4346992D01*
G01X12893479Y4335562D01*
G01X12899067Y4329974D01*
G01X12910497Y4324132D01*
G01X12944787Y4312702D01*
G01X12956217Y4307114D01*
G01X12962059Y4301272D01*
G01X12967647Y4289842D01*
G01X12967647Y4272824D01*
G01X12956217Y4261394D01*
G01X12939199Y4255552D01*
G01X12916339Y4255552D01*
G01X12899067Y4261394D01*
G01X12887637Y4272824D01*
G01X13015399Y4375694D02*
G01X13021241Y4369852D01*
G01X13026829Y4375694D01*
G01X13021241Y4381282D01*
G01X13015399Y4375694D01*
G01X13021241Y4335562D02*
G01X13021241Y4255552D01*
G01X13137573Y4335562D02*
G01X13074581Y4255552D01*
G01X13074581Y4335562D02*
G01X13137573Y4335562D01*
G01X13074581Y4255552D02*
G01X13137573Y4255552D01*
G01X13185325Y4301272D02*
G01X13253905Y4301272D01*
G01X13253905Y4312702D01*
G01X13248317Y4324132D01*
G01X13242475Y4329974D01*
G01X13231045Y4335562D01*
G01X13214027Y4335562D01*
G01X13202597Y4329974D01*
G01X13191167Y4318544D01*
G01X13185325Y4301272D01*
G01X13185325Y4289842D01*
G01X13191167Y4272824D01*
G01X13202597Y4261394D01*
G01X13214027Y4255552D01*
G01X13231045Y4255552D01*
G01X13242475Y4261394D01*
G01X13253905Y4272824D01*
G01X16690163Y4375694D02*
G01X16690163Y4255552D01*
G01X16690163Y4375694D02*
G01X16741725Y4375694D01*
G01X16758743Y4369852D01*
G01X16764585Y4364264D01*
G01X16770173Y4352834D01*
G01X16770173Y4335562D01*
G01X16764585Y4324132D01*
G01X16758743Y4318544D01*
G01X16741725Y4312702D01*
G01X16690163Y4312702D01*
G01X16817925Y4375694D02*
G01X16817925Y4255552D01*
G01X16934257Y4335562D02*
G01X16934257Y4255552D01*
G01X16934257Y4318544D02*
G01X16922827Y4329974D01*
G01X16911397Y4335562D01*
G01X16894379Y4335562D01*
G01X16882949Y4329974D01*
G01X16871519Y4318544D01*
G01X16865677Y4301272D01*
G01X16865677Y4289842D01*
G01X16871519Y4272824D01*
G01X16882949Y4261394D01*
G01X16894379Y4255552D01*
G01X16911397Y4255552D01*
G01X16922827Y4261394D01*
G01X16934257Y4272824D01*
G01X16999281Y4375694D02*
G01X16999281Y4278412D01*
G01X17004869Y4261394D01*
G01X17016299Y4255552D01*
G01X17027729Y4255552D01*
G01X16982009Y4335562D02*
G01X17022141Y4335562D01*
G01X17075481Y4301272D02*
G01X17144061Y4301272D01*
G01X17144061Y4312702D01*
G01X17138473Y4324132D01*
G01X17132631Y4329974D01*
G01X17121201Y4335562D01*
G01X17104183Y4335562D01*
G01X17092753Y4329974D01*
G01X17081323Y4318544D01*
G01X17075481Y4301272D01*
G01X17075481Y4289842D01*
G01X17081323Y4272824D01*
G01X17092753Y4261394D01*
G01X17104183Y4255552D01*
G01X17121201Y4255552D01*
G01X17132631Y4261394D01*
G01X17144061Y4272824D01*
G01X17260393Y4375694D02*
G01X17260393Y4255552D01*
G01X17260393Y4318544D02*
G01X17248963Y4329974D01*
G01X17237533Y4335562D01*
G01X17220515Y4335562D01*
G01X17209085Y4329974D01*
G01X17197655Y4318544D01*
G01X17191813Y4301272D01*
G01X17191813Y4289842D01*
G01X17197655Y4272824D01*
G01X17209085Y4261394D01*
G01X17220515Y4255552D01*
G01X17237533Y4255552D01*
G01X17248963Y4261394D01*
G01X17260393Y4272824D01*
G01X18231580Y4358422D02*
G01X18220150Y4369852D01*
G01X18203132Y4375694D01*
G01X18180272Y4375694D01*
G01X18163000Y4369852D01*
G01X18151570Y4358422D01*
G01X18151570Y4346992D01*
G01X18157412Y4335562D01*
G01X18163000Y4329974D01*
G01X18174430Y4324132D01*
G01X18208720Y4312702D01*
G01X18220150Y4307114D01*
G01X18225992Y4301272D01*
G01X18231580Y4289842D01*
G01X18231580Y4272824D01*
G01X18220150Y4261394D01*
G01X18203132Y4255552D01*
G01X18180272Y4255552D01*
G01X18163000Y4261394D01*
G01X18151570Y4272824D01*
G01X18279332Y4375694D02*
G01X18279332Y4255552D01*
G01X18279332Y4312702D02*
G01X18296604Y4329974D01*
G01X18308034Y4335562D01*
G01X18325052Y4335562D01*
G01X18336482Y4329974D01*
G01X18342324Y4312702D01*
G01X18342324Y4255552D01*
G01X18458656Y4335562D02*
G01X18458656Y4255552D01*
G01X18458656Y4318544D02*
G01X18447226Y4329974D01*
G01X18435796Y4335562D01*
G01X18418778Y4335562D01*
G01X18407348Y4329974D01*
G01X18395918Y4318544D01*
G01X18390076Y4301272D01*
G01X18390076Y4289842D01*
G01X18395918Y4272824D01*
G01X18407348Y4261394D01*
G01X18418778Y4255552D01*
G01X18435796Y4255552D01*
G01X18447226Y4261394D01*
G01X18458656Y4272824D01*
G01X18506408Y4335562D02*
G01X18506408Y4215674D01*
G01X18506408Y4318544D02*
G01X18517838Y4329974D01*
G01X18529268Y4335562D01*
G01X18546540Y4335562D01*
G01X18557970Y4329974D01*
G01X18569400Y4318544D01*
G01X18574988Y4301272D01*
G01X18574988Y4289842D01*
G01X18569400Y4272824D01*
G01X18557970Y4261394D01*
G01X18546540Y4255552D01*
G01X18529268Y4255552D01*
G01X18517838Y4261394D01*
G01X18506408Y4272824D01*
G01X18622740Y4301272D02*
G01X18691320Y4301272D01*
G01X18691320Y4312702D01*
G01X18685732Y4324132D01*
G01X18679890Y4329974D01*
G01X18668460Y4335562D01*
G01X18651442Y4335562D01*
G01X18640012Y4329974D01*
G01X18628582Y4318544D01*
G01X18622740Y4301272D01*
G01X18622740Y4289842D01*
G01X18628582Y4272824D01*
G01X18640012Y4261394D01*
G01X18651442Y4255552D01*
G01X18668460Y4255552D01*
G01X18679890Y4261394D01*
G01X18691320Y4272824D01*
G01X19582751Y4375694D02*
G01X19628471Y4255552D01*
G01X19674191Y4375694D02*
G01X19628471Y4255552D01*
G01X19721943Y4375694D02*
G01X19727785Y4369852D01*
G01X19733373Y4375694D01*
G01X19727785Y4381282D01*
G01X19721943Y4375694D01*
G01X19727785Y4335562D02*
G01X19727785Y4255552D01*
G01X19849705Y4335562D02*
G01X19849705Y4255552D01*
G01X19849705Y4318544D02*
G01X19838275Y4329974D01*
G01X19826845Y4335562D01*
G01X19809827Y4335562D01*
G01X19798397Y4329974D01*
G01X19786967Y4318544D01*
G01X19781125Y4301272D01*
G01X19781125Y4289842D01*
G01X19786967Y4272824D01*
G01X19798397Y4261394D01*
G01X19809827Y4255552D01*
G01X19826845Y4255552D01*
G01X19838275Y4261394D01*
G01X19849705Y4272824D01*
G01X20000327Y4398554D02*
G01X19897457Y4215674D01*
G01X20048079Y4375694D02*
G01X20048079Y4255552D01*
G01X20048079Y4375694D02*
G01X20099641Y4375694D01*
G01X20116659Y4369852D01*
G01X20122501Y4364264D01*
G01X20128089Y4352834D01*
G01X20128089Y4335562D01*
G01X20122501Y4324132D01*
G01X20116659Y4318544D01*
G01X20099641Y4312702D01*
G01X20048079Y4312702D01*
G01X20244421Y4335562D02*
G01X20244421Y4255552D01*
G01X20244421Y4318544D02*
G01X20232991Y4329974D01*
G01X20221561Y4335562D01*
G01X20204543Y4335562D01*
G01X20193113Y4329974D01*
G01X20181683Y4318544D01*
G01X20175841Y4301272D01*
G01X20175841Y4289842D01*
G01X20181683Y4272824D01*
G01X20193113Y4261394D01*
G01X20204543Y4255552D01*
G01X20221561Y4255552D01*
G01X20232991Y4261394D01*
G01X20244421Y4272824D01*
G01X20360753Y4375694D02*
G01X20360753Y4255552D01*
G01X20360753Y4318544D02*
G01X20349323Y4329974D01*
G01X20337893Y4335562D01*
G01X20320875Y4335562D01*
G01X20309445Y4329974D01*
G01X20298015Y4318544D01*
G01X20292173Y4301272D01*
G01X20292173Y4289842D01*
G01X20298015Y4272824D01*
G01X20309445Y4261394D01*
G01X20320875Y4255552D01*
G01X20337893Y4255552D01*
G01X20349323Y4261394D01*
G01X20360753Y4272824D01*
G01X21251930Y4375694D02*
G01X21251930Y4255552D01*
G01X21251930Y4375694D02*
G01X21303492Y4375694D01*
G01X21320510Y4369852D01*
G01X21326352Y4364264D01*
G01X21331940Y4352834D01*
G01X21331940Y4335562D01*
G01X21326352Y4324132D01*
G01X21320510Y4318544D01*
G01X21303492Y4312702D01*
G01X21251930Y4312702D01*
G01X21448272Y4335562D02*
G01X21448272Y4255552D01*
G01X21448272Y4318544D02*
G01X21436842Y4329974D01*
G01X21425412Y4335562D01*
G01X21408394Y4335562D01*
G01X21396964Y4329974D01*
G01X21385534Y4318544D01*
G01X21379692Y4301272D01*
G01X21379692Y4289842D01*
G01X21385534Y4272824D01*
G01X21396964Y4261394D01*
G01X21408394Y4255552D01*
G01X21425412Y4255552D01*
G01X21436842Y4261394D01*
G01X21448272Y4272824D01*
G01X21564604Y4375694D02*
G01X21564604Y4255552D01*
G01X21564604Y4318544D02*
G01X21553174Y4329974D01*
G01X21541744Y4335562D01*
G01X21524726Y4335562D01*
G01X21513296Y4329974D01*
G01X21501866Y4318544D01*
G01X21496024Y4301272D01*
G01X21496024Y4289842D01*
G01X21501866Y4272824D01*
G01X21513296Y4261394D01*
G01X21524726Y4255552D01*
G01X21541744Y4255552D01*
G01X21553174Y4261394D01*
G01X21564604Y4272824D01*
G01X21820382Y4358422D02*
G01X21808952Y4369852D01*
G01X21791934Y4375694D01*
G01X21769074Y4375694D01*
G01X21751802Y4369852D01*
G01X21740372Y4358422D01*
G01X21740372Y4346992D01*
G01X21746214Y4335562D01*
G01X21751802Y4329974D01*
G01X21763232Y4324132D01*
G01X21797522Y4312702D01*
G01X21808952Y4307114D01*
G01X21814794Y4301272D01*
G01X21820382Y4289842D01*
G01X21820382Y4272824D01*
G01X21808952Y4261394D01*
G01X21791934Y4255552D01*
G01X21769074Y4255552D01*
G01X21751802Y4261394D01*
G01X21740372Y4272824D01*
G01X21868134Y4375694D02*
G01X21868134Y4255552D01*
G01X21868134Y4312702D02*
G01X21885406Y4329974D01*
G01X21896836Y4335562D01*
G01X21913854Y4335562D01*
G01X21925284Y4329974D01*
G01X21931126Y4312702D01*
G01X21931126Y4255552D01*
G01X22047458Y4335562D02*
G01X22047458Y4255552D01*
G01X22047458Y4318544D02*
G01X22036028Y4329974D01*
G01X22024598Y4335562D01*
G01X22007580Y4335562D01*
G01X21996150Y4329974D01*
G01X21984720Y4318544D01*
G01X21978878Y4301272D01*
G01X21978878Y4289842D01*
G01X21984720Y4272824D01*
G01X21996150Y4261394D01*
G01X22007580Y4255552D01*
G01X22024598Y4255552D01*
G01X22036028Y4261394D01*
G01X22047458Y4272824D01*
G01X22095210Y4335562D02*
G01X22095210Y4215674D01*
G01X22095210Y4318544D02*
G01X22106640Y4329974D01*
G01X22118070Y4335562D01*
G01X22135342Y4335562D01*
G01X22146772Y4329974D01*
G01X22158202Y4318544D01*
G01X22163790Y4301272D01*
G01X22163790Y4289842D01*
G01X22158202Y4272824D01*
G01X22146772Y4261394D01*
G01X22135342Y4255552D01*
G01X22118070Y4255552D01*
G01X22106640Y4261394D01*
G01X22095210Y4272824D01*
G01X22211542Y4301272D02*
G01X22280122Y4301272D01*
G01X22280122Y4312702D01*
G01X22274534Y4324132D01*
G01X22268692Y4329974D01*
G01X22257262Y4335562D01*
G01X22240244Y4335562D01*
G01X22228814Y4329974D01*
G01X22217384Y4318544D01*
G01X22211542Y4301272D01*
G01X22211542Y4289842D01*
G01X22217384Y4272824D01*
G01X22228814Y4261394D01*
G01X22240244Y4255552D01*
G01X22257262Y4255552D01*
G01X22268692Y4261394D01*
G01X22280122Y4272824D01*
G01X23171299Y4375694D02*
G01X23171299Y4255552D01*
G01X23171299Y4255552D02*
G01X23239879Y4255552D01*
G01X23356211Y4335562D02*
G01X23356211Y4255552D01*
G01X23356211Y4318544D02*
G01X23344781Y4329974D01*
G01X23333351Y4335562D01*
G01X23316333Y4335562D01*
G01X23304903Y4329974D01*
G01X23293473Y4318544D01*
G01X23287631Y4301272D01*
G01X23287631Y4289842D01*
G01X23293473Y4272824D01*
G01X23304903Y4261394D01*
G01X23316333Y4255552D01*
G01X23333351Y4255552D01*
G01X23344781Y4261394D01*
G01X23356211Y4272824D01*
G01X23409805Y4335562D02*
G01X23444095Y4255552D01*
G01X23478385Y4335562D02*
G01X23444095Y4255552D01*
G01X23432665Y4232692D01*
G01X23421235Y4221262D01*
G01X23409805Y4215674D01*
G01X23403963Y4215674D01*
G01X23526137Y4301272D02*
G01X23594717Y4301272D01*
G01X23594717Y4312702D01*
G01X23589129Y4324132D01*
G01X23583287Y4329974D01*
G01X23571857Y4335562D01*
G01X23554839Y4335562D01*
G01X23543409Y4329974D01*
G01X23531979Y4318544D01*
G01X23526137Y4301272D01*
G01X23526137Y4289842D01*
G01X23531979Y4272824D01*
G01X23543409Y4261394D01*
G01X23554839Y4255552D01*
G01X23571857Y4255552D01*
G01X23583287Y4261394D01*
G01X23594717Y4272824D01*
G01X23642469Y4335562D02*
G01X23642469Y4255552D01*
G01X23642469Y4301272D02*
G01X23648311Y4318544D01*
G01X23659741Y4329974D01*
G01X23671171Y4335562D01*
G01X23688189Y4335562D01*
G01X23863957Y4375694D02*
G01X23863957Y4255552D01*
G01X23863957Y4375694D02*
G01X23915519Y4375694D01*
G01X23932537Y4369852D01*
G01X23938379Y4364264D01*
G01X23943967Y4352834D01*
G01X23943967Y4335562D01*
G01X23938379Y4324132D01*
G01X23932537Y4318544D01*
G01X23915519Y4312702D01*
G01X23863957Y4312702D01*
G01X24060299Y4335562D02*
G01X24060299Y4255552D01*
G01X24060299Y4318544D02*
G01X24048869Y4329974D01*
G01X24037439Y4335562D01*
G01X24020421Y4335562D01*
G01X24008991Y4329974D01*
G01X23997561Y4318544D01*
G01X23991719Y4301272D01*
G01X23991719Y4289842D01*
G01X23997561Y4272824D01*
G01X24008991Y4261394D01*
G01X24020421Y4255552D01*
G01X24037439Y4255552D01*
G01X24048869Y4261394D01*
G01X24060299Y4272824D01*
G01X24108051Y4375694D02*
G01X24113893Y4369852D01*
G01X24119481Y4375694D01*
G01X24113893Y4381282D01*
G01X24108051Y4375694D01*
G01X24113893Y4335562D02*
G01X24113893Y4255552D01*
G01X24167233Y4335562D02*
G01X24167233Y4255552D01*
G01X24167233Y4301272D02*
G01X24173075Y4318544D01*
G01X24184505Y4329974D01*
G01X24195935Y4335562D01*
G01X24212953Y4335562D01*
G01X11530624Y3795123D02*
G01X11473474Y3715113D01*
G01X11559326Y3715113D01*
G01X11530624Y3795123D02*
G01X11530624Y3674981D01*
G01X12916339Y3795123D02*
G01X12899067Y3789281D01*
G01X12893479Y3777851D01*
G01X12893479Y3766421D01*
G01X12899067Y3754991D01*
G01X12910497Y3749403D01*
G01X12933357Y3743561D01*
G01X12950629Y3737973D01*
G01X12962059Y3726543D01*
G01X12967647Y3715113D01*
G01X12967647Y3697841D01*
G01X12962059Y3686411D01*
G01X12956217Y3680823D01*
G01X12939199Y3674981D01*
G01X12916339Y3674981D01*
G01X12899067Y3680823D01*
G01X12893479Y3686411D01*
G01X12887637Y3697841D01*
G01X12887637Y3715113D01*
G01X12893479Y3726543D01*
G01X12904909Y3737973D01*
G01X12921927Y3743561D01*
G01X12944787Y3749403D01*
G01X12956217Y3754991D01*
G01X12962059Y3766421D01*
G01X12962059Y3777851D01*
G01X12956217Y3789281D01*
G01X12939199Y3795123D01*
G01X12916339Y3795123D01*
G01X13083979Y3777851D02*
G01X13078391Y3789281D01*
G01X13061119Y3795123D01*
G01X13049689Y3795123D01*
G01X13032671Y3789281D01*
G01X13021241Y3772263D01*
G01X13015399Y3743561D01*
G01X13015399Y3715113D01*
G01X13021241Y3692253D01*
G01X13032671Y3680823D01*
G01X13049689Y3674981D01*
G01X13055531Y3674981D01*
G01X13072549Y3680823D01*
G01X13083979Y3692253D01*
G01X13089821Y3709271D01*
G01X13089821Y3715113D01*
G01X13083979Y3732131D01*
G01X13072549Y3743561D01*
G01X13055531Y3749403D01*
G01X13049689Y3749403D01*
G01X13032671Y3743561D01*
G01X13021241Y3732131D01*
G01X13015399Y3715113D01*
G01X13143415Y3703683D02*
G01X13137573Y3697841D01*
G01X13143415Y3692253D01*
G01X13149003Y3697841D01*
G01X13143415Y3703683D01*
G01X13265335Y3777851D02*
G01X13259747Y3789281D01*
G01X13242475Y3795123D01*
G01X13231045Y3795123D01*
G01X13214027Y3789281D01*
G01X13202597Y3772263D01*
G01X13196755Y3743561D01*
G01X13196755Y3715113D01*
G01X13202597Y3692253D01*
G01X13214027Y3680823D01*
G01X13231045Y3674981D01*
G01X13236887Y3674981D01*
G01X13253905Y3680823D01*
G01X13265335Y3692253D01*
G01X13271177Y3709271D01*
G01X13271177Y3715113D01*
G01X13265335Y3732131D01*
G01X13253905Y3743561D01*
G01X13236887Y3749403D01*
G01X13231045Y3749403D01*
G01X13214027Y3743561D01*
G01X13202597Y3732131D01*
G01X13196755Y3715113D01*
G01X13318929Y3754991D02*
G01X13318929Y3674981D01*
G01X13318929Y3732131D02*
G01X13336201Y3749403D01*
G01X13347631Y3754991D01*
G01X13364649Y3754991D01*
G01X13376079Y3749403D01*
G01X13381921Y3732131D01*
G01X13381921Y3674981D01*
G01X13381921Y3732131D02*
G01X13398939Y3749403D01*
G01X13410369Y3754991D01*
G01X13427641Y3754991D01*
G01X13439071Y3749403D01*
G01X13444659Y3732131D01*
G01X13444659Y3674981D01*
G01X13492411Y3795123D02*
G01X13498253Y3789281D01*
G01X13503841Y3795123D01*
G01X13498253Y3800711D01*
G01X13492411Y3795123D01*
G01X13498253Y3754991D02*
G01X13498253Y3674981D01*
G01X13551593Y3795123D02*
G01X13551593Y3674981D01*
G01X13639477Y3817983D02*
G01X13628047Y3806553D01*
G01X13616617Y3789281D01*
G01X13605187Y3766421D01*
G01X13599345Y3737973D01*
G01X13599345Y3715113D01*
G01X13605187Y3686411D01*
G01X13616617Y3663551D01*
G01X13628047Y3646533D01*
G01X13639477Y3635103D01*
G01X13693071Y3766421D02*
G01X13693071Y3772263D01*
G01X13698659Y3783693D01*
G01X13704501Y3789281D01*
G01X13715931Y3795123D01*
G01X13738791Y3795123D01*
G01X13750221Y3789281D01*
G01X13755809Y3783693D01*
G01X13761651Y3772263D01*
G01X13761651Y3760833D01*
G01X13755809Y3749403D01*
G01X13744379Y3732131D01*
G01X13687229Y3674981D01*
G01X13767239Y3674981D01*
G01X13820833Y3703683D02*
G01X13814991Y3697841D01*
G01X13820833Y3692253D01*
G01X13826421Y3697841D01*
G01X13820833Y3703683D01*
G01X13880015Y3766421D02*
G01X13880015Y3772263D01*
G01X13885603Y3783693D01*
G01X13891445Y3789281D01*
G01X13902875Y3795123D01*
G01X13925735Y3795123D01*
G01X13937165Y3789281D01*
G01X13942753Y3783693D01*
G01X13948595Y3772263D01*
G01X13948595Y3760833D01*
G01X13942753Y3749403D01*
G01X13931323Y3732131D01*
G01X13874173Y3674981D01*
G01X13954183Y3674981D01*
G01X14036225Y3795123D02*
G01X14019207Y3789281D01*
G01X14007777Y3772263D01*
G01X14001935Y3743561D01*
G01X14001935Y3726543D01*
G01X14007777Y3697841D01*
G01X14019207Y3680823D01*
G01X14036225Y3674981D01*
G01X14047655Y3674981D01*
G01X14064927Y3680823D01*
G01X14076357Y3697841D01*
G01X14081945Y3726543D01*
G01X14081945Y3743561D01*
G01X14076357Y3772263D01*
G01X14064927Y3789281D01*
G01X14047655Y3795123D01*
G01X14036225Y3795123D01*
G01X14163987Y3795123D02*
G01X14146969Y3789281D01*
G01X14135539Y3772263D01*
G01X14129697Y3743561D01*
G01X14129697Y3726543D01*
G01X14135539Y3697841D01*
G01X14146969Y3680823D01*
G01X14163987Y3674981D01*
G01X14175417Y3674981D01*
G01X14192689Y3680823D01*
G01X14204119Y3697841D01*
G01X14209707Y3726543D01*
G01X14209707Y3743561D01*
G01X14204119Y3772263D01*
G01X14192689Y3789281D01*
G01X14175417Y3795123D01*
G01X14163987Y3795123D01*
G01X14257459Y3754991D02*
G01X14257459Y3674981D01*
G01X14257459Y3732131D02*
G01X14274731Y3749403D01*
G01X14286161Y3754991D01*
G01X14303179Y3754991D01*
G01X14314609Y3749403D01*
G01X14320451Y3732131D01*
G01X14320451Y3674981D01*
G01X14320451Y3732131D02*
G01X14337469Y3749403D01*
G01X14348899Y3754991D01*
G01X14366171Y3754991D01*
G01X14377601Y3749403D01*
G01X14383189Y3732131D01*
G01X14383189Y3674981D01*
G01X14430941Y3754991D02*
G01X14430941Y3674981D01*
G01X14430941Y3732131D02*
G01X14448213Y3749403D01*
G01X14459643Y3754991D01*
G01X14476661Y3754991D01*
G01X14488091Y3749403D01*
G01X14493933Y3732131D01*
G01X14493933Y3674981D01*
G01X14493933Y3732131D02*
G01X14510951Y3749403D01*
G01X14522381Y3754991D01*
G01X14539653Y3754991D01*
G01X14551083Y3749403D01*
G01X14556671Y3732131D01*
G01X14556671Y3674981D01*
G01X14604423Y3817983D02*
G01X14615853Y3806553D01*
G01X14627283Y3789281D01*
G01X14638713Y3766421D01*
G01X14644555Y3737973D01*
G01X14644555Y3715113D01*
G01X14638713Y3686411D01*
G01X14627283Y3663551D01*
G01X14615853Y3646533D01*
G01X14604423Y3635103D01*
G01X16690163Y3795123D02*
G01X16690163Y3674981D01*
G01X16690163Y3795123D02*
G01X16770173Y3674981D01*
G01X16770173Y3795123D02*
G01X16770173Y3674981D01*
G01X16817925Y3795123D02*
G01X16817925Y3674981D01*
G01X16817925Y3795123D02*
G01X16869487Y3795123D01*
G01X16886505Y3789281D01*
G01X16892347Y3783693D01*
G01X16897935Y3772263D01*
G01X16897935Y3754991D01*
G01X16892347Y3743561D01*
G01X16886505Y3737973D01*
G01X16869487Y3732131D01*
G01X16817925Y3732131D01*
G01X16985819Y3795123D02*
G01X16985819Y3674981D01*
G01X16945687Y3795123D02*
G01X17025697Y3795123D01*
G01X17073449Y3795123D02*
G01X17073449Y3674981D01*
G01X17153459Y3795123D02*
G01X17153459Y3674981D01*
G01X17073449Y3737973D02*
G01X17153459Y3737973D01*
G01X18151570Y3795123D02*
G01X18151570Y3674981D01*
G01X18151570Y3795123D02*
G01X18203132Y3795123D01*
G01X18220150Y3789281D01*
G01X18225992Y3783693D01*
G01X18231580Y3772263D01*
G01X18231580Y3760833D01*
G01X18225992Y3749403D01*
G01X18220150Y3743561D01*
G01X18203132Y3737973D01*
G01X18151570Y3737973D01*
G01X18191702Y3737973D02*
G01X18231580Y3674981D01*
G01X18308034Y3754991D02*
G01X18296604Y3749403D01*
G01X18285174Y3737973D01*
G01X18279332Y3720701D01*
G01X18279332Y3709271D01*
G01X18285174Y3692253D01*
G01X18296604Y3680823D01*
G01X18308034Y3674981D01*
G01X18325052Y3674981D01*
G01X18336482Y3680823D01*
G01X18347912Y3692253D01*
G01X18353754Y3709271D01*
G01X18353754Y3720701D01*
G01X18347912Y3737973D01*
G01X18336482Y3749403D01*
G01X18325052Y3754991D01*
G01X18308034Y3754991D01*
G01X18401506Y3754991D02*
G01X18401506Y3697841D01*
G01X18407348Y3680823D01*
G01X18418778Y3674981D01*
G01X18435796Y3674981D01*
G01X18447226Y3680823D01*
G01X18464498Y3697841D01*
G01X18464498Y3754991D02*
G01X18464498Y3674981D01*
G01X18512250Y3754991D02*
G01X18512250Y3674981D01*
G01X18512250Y3732131D02*
G01X18529522Y3749403D01*
G01X18540952Y3754991D01*
G01X18557970Y3754991D01*
G01X18569400Y3749403D01*
G01X18575242Y3732131D01*
G01X18575242Y3674981D01*
G01X18691574Y3795123D02*
G01X18691574Y3674981D01*
G01X18691574Y3737973D02*
G01X18680144Y3749403D01*
G01X18668714Y3754991D01*
G01X18651696Y3754991D01*
G01X18640266Y3749403D01*
G01X18628836Y3737973D01*
G01X18622994Y3720701D01*
G01X18622994Y3709271D01*
G01X18628836Y3692253D01*
G01X18640266Y3680823D01*
G01X18651696Y3674981D01*
G01X18668714Y3674981D01*
G01X18680144Y3680823D01*
G01X18691574Y3692253D01*
G01X19582751Y3795123D02*
G01X19628471Y3674981D01*
G01X19674191Y3795123D02*
G01X19628471Y3674981D01*
G01X19721943Y3795123D02*
G01X19727785Y3789281D01*
G01X19733373Y3795123D01*
G01X19727785Y3800711D01*
G01X19721943Y3795123D01*
G01X19727785Y3754991D02*
G01X19727785Y3674981D01*
G01X19849705Y3754991D02*
G01X19849705Y3674981D01*
G01X19849705Y3737973D02*
G01X19838275Y3749403D01*
G01X19826845Y3754991D01*
G01X19809827Y3754991D01*
G01X19798397Y3749403D01*
G01X19786967Y3737973D01*
G01X19781125Y3720701D01*
G01X19781125Y3709271D01*
G01X19786967Y3692253D01*
G01X19798397Y3680823D01*
G01X19809827Y3674981D01*
G01X19826845Y3674981D01*
G01X19838275Y3680823D01*
G01X19849705Y3692253D01*
G01X23211431Y3795123D02*
G01X23211431Y3674981D01*
G01X23171299Y3795123D02*
G01X23251309Y3795123D01*
G01X23327763Y3754991D02*
G01X23316333Y3749403D01*
G01X23304903Y3737973D01*
G01X23299061Y3720701D01*
G01X23299061Y3709271D01*
G01X23304903Y3692253D01*
G01X23316333Y3680823D01*
G01X23327763Y3674981D01*
G01X23344781Y3674981D01*
G01X23356211Y3680823D01*
G01X23367641Y3692253D01*
G01X23373483Y3709271D01*
G01X23373483Y3720701D01*
G01X23367641Y3737973D01*
G01X23356211Y3749403D01*
G01X23344781Y3754991D01*
G01X23327763Y3754991D01*
G01X23421235Y3754991D02*
G01X23421235Y3635103D01*
G01X23421235Y3737973D02*
G01X23432665Y3749403D01*
G01X23444095Y3754991D01*
G01X23461367Y3754991D01*
G01X23472797Y3749403D01*
G01X23484227Y3737973D01*
G01X23489815Y3720701D01*
G01X23489815Y3709271D01*
G01X23484227Y3692253D01*
G01X23472797Y3680823D01*
G01X23461367Y3674981D01*
G01X23444095Y3674981D01*
G01X23432665Y3680823D01*
G01X23421235Y3692253D01*
G01X23665583Y3795123D02*
G01X23665583Y3674981D01*
G01X23665583Y3674981D02*
G01X23734163Y3674981D01*
G01X23850495Y3754991D02*
G01X23850495Y3674981D01*
G01X23850495Y3737973D02*
G01X23839065Y3749403D01*
G01X23827635Y3754991D01*
G01X23810617Y3754991D01*
G01X23799187Y3749403D01*
G01X23787757Y3737973D01*
G01X23781915Y3720701D01*
G01X23781915Y3709271D01*
G01X23787757Y3692253D01*
G01X23799187Y3680823D01*
G01X23810617Y3674981D01*
G01X23827635Y3674981D01*
G01X23839065Y3680823D01*
G01X23850495Y3692253D01*
G01X23904089Y3754991D02*
G01X23938379Y3674981D01*
G01X23972669Y3754991D02*
G01X23938379Y3674981D01*
G01X23926949Y3652121D01*
G01X23915519Y3640691D01*
G01X23904089Y3635103D01*
G01X23898247Y3635103D01*
G01X24020421Y3720701D02*
G01X24089001Y3720701D01*
G01X24089001Y3732131D01*
G01X24083413Y3743561D01*
G01X24077571Y3749403D01*
G01X24066141Y3754991D01*
G01X24049123Y3754991D01*
G01X24037693Y3749403D01*
G01X24026263Y3737973D01*
G01X24020421Y3720701D01*
G01X24020421Y3709271D01*
G01X24026263Y3692253D01*
G01X24037693Y3680823D01*
G01X24049123Y3674981D01*
G01X24066141Y3674981D01*
G01X24077571Y3680823D01*
G01X24089001Y3692253D01*
G01X24136753Y3754991D02*
G01X24136753Y3674981D01*
G01X24136753Y3720701D02*
G01X24142595Y3737973D01*
G01X24154025Y3749403D01*
G01X24165455Y3754991D01*
G01X24182473Y3754991D01*
G01X24230225Y3726543D02*
G01X24333095Y3726543D01*
G01X24380847Y3795123D02*
G01X24380847Y3674981D01*
G01X24380847Y3795123D02*
G01X24432409Y3795123D01*
G01X24449427Y3789281D01*
G01X24455269Y3783693D01*
G01X24460857Y3772263D01*
G01X24460857Y3760833D01*
G01X24455269Y3749403D01*
G01X24449427Y3743561D01*
G01X24432409Y3737973D01*
G01X24380847Y3737973D02*
G01X24432409Y3737973D01*
G01X24449427Y3732131D01*
G01X24455269Y3726543D01*
G01X24460857Y3715113D01*
G01X24460857Y3697841D01*
G01X24455269Y3686411D01*
G01X24449427Y3680823D01*
G01X24432409Y3674981D01*
G01X24380847Y3674981D01*
G01X24537311Y3754991D02*
G01X24525881Y3749403D01*
G01X24514451Y3737973D01*
G01X24508609Y3720701D01*
G01X24508609Y3709271D01*
G01X24514451Y3692253D01*
G01X24525881Y3680823D01*
G01X24537311Y3674981D01*
G01X24554329Y3674981D01*
G01X24565759Y3680823D01*
G01X24577189Y3692253D01*
G01X24583031Y3709271D01*
G01X24583031Y3720701D01*
G01X24577189Y3737973D01*
G01X24565759Y3749403D01*
G01X24554329Y3754991D01*
G01X24537311Y3754991D01*
G01X24648055Y3795123D02*
G01X24648055Y3697841D01*
G01X24653643Y3680823D01*
G01X24665073Y3674981D01*
G01X24676503Y3674981D01*
G01X24630783Y3754991D02*
G01X24670915Y3754991D01*
G01X24741527Y3795123D02*
G01X24741527Y3697841D01*
G01X24747115Y3680823D01*
G01X24758545Y3674981D01*
G01X24769975Y3674981D01*
G01X24724255Y3754991D02*
G01X24764387Y3754991D01*
G01X24846429Y3754991D02*
G01X24834999Y3749403D01*
G01X24823569Y3737973D01*
G01X24817727Y3720701D01*
G01X24817727Y3709271D01*
G01X24823569Y3692253D01*
G01X24834999Y3680823D01*
G01X24846429Y3674981D01*
G01X24863447Y3674981D01*
G01X24874877Y3680823D01*
G01X24886307Y3692253D01*
G01X24892149Y3709271D01*
G01X24892149Y3720701D01*
G01X24886307Y3737973D01*
G01X24874877Y3749403D01*
G01X24863447Y3754991D01*
G01X24846429Y3754991D01*
G01X24939901Y3754991D02*
G01X24939901Y3674981D01*
G01X24939901Y3732131D02*
G01X24957173Y3749403D01*
G01X24968603Y3754991D01*
G01X24985621Y3754991D01*
G01X24997051Y3749403D01*
G01X25002893Y3732131D01*
G01X25002893Y3674981D01*
G01X25002893Y3732131D02*
G01X25019911Y3749403D01*
G01X25031341Y3754991D01*
G01X25048613Y3754991D01*
G01X25060043Y3749403D01*
G01X25065631Y3732131D01*
G01X25065631Y3674981D01*
G01X25241399Y3795123D02*
G01X25241399Y3674981D01*
G01X25241399Y3674981D02*
G01X25309979Y3674981D01*
G01X25426311Y3754991D02*
G01X25426311Y3674981D01*
G01X25426311Y3737973D02*
G01X25414881Y3749403D01*
G01X25403451Y3754991D01*
G01X25386433Y3754991D01*
G01X25375003Y3749403D01*
G01X25363573Y3737973D01*
G01X25357731Y3720701D01*
G01X25357731Y3709271D01*
G01X25363573Y3692253D01*
G01X25375003Y3680823D01*
G01X25386433Y3674981D01*
G01X25403451Y3674981D01*
G01X25414881Y3680823D01*
G01X25426311Y3692253D01*
G01X25479905Y3754991D02*
G01X25514195Y3674981D01*
G01X25548485Y3754991D02*
G01X25514195Y3674981D01*
G01X25502765Y3652121D01*
G01X25491335Y3640691D01*
G01X25479905Y3635103D01*
G01X25474063Y3635103D01*
G01X25596237Y3720701D02*
G01X25664817Y3720701D01*
G01X25664817Y3732131D01*
G01X25659229Y3743561D01*
G01X25653387Y3749403D01*
G01X25641957Y3754991D01*
G01X25624939Y3754991D01*
G01X25613509Y3749403D01*
G01X25602079Y3737973D01*
G01X25596237Y3720701D01*
G01X25596237Y3709271D01*
G01X25602079Y3692253D01*
G01X25613509Y3680823D01*
G01X25624939Y3674981D01*
G01X25641957Y3674981D01*
G01X25653387Y3680823D01*
G01X25664817Y3692253D01*
G01X25712569Y3754991D02*
G01X25712569Y3674981D01*
G01X25712569Y3720701D02*
G01X25718411Y3737973D01*
G01X25729841Y3749403D01*
G01X25741271Y3754991D01*
G01X25758289Y3754991D01*
G01X11473474Y3191691D02*
G01X11484904Y3197279D01*
G01X11502176Y3214551D01*
G01X11502176Y3094409D01*
G01X11578630Y3214551D02*
G01X11561358Y3208709D01*
G01X11555770Y3197279D01*
G01X11555770Y3185849D01*
G01X11561358Y3174419D01*
G01X11572788Y3168831D01*
G01X11595648Y3162989D01*
G01X11612920Y3157401D01*
G01X11624350Y3145971D01*
G01X11629938Y3134541D01*
G01X11629938Y3117269D01*
G01X11624350Y3105839D01*
G01X11618508Y3100251D01*
G01X11601490Y3094409D01*
G01X11578630Y3094409D01*
G01X11561358Y3100251D01*
G01X11555770Y3105839D01*
G01X11549928Y3117269D01*
G01X11549928Y3134541D01*
G01X11555770Y3145971D01*
G01X11567200Y3157401D01*
G01X11584218Y3162989D01*
G01X11607078Y3168831D01*
G01X11618508Y3174419D01*
G01X11624350Y3185849D01*
G01X11624350Y3197279D01*
G01X11618508Y3208709D01*
G01X11601490Y3214551D01*
G01X11578630Y3214551D01*
G01X12887637Y3191691D02*
G01X12899067Y3197279D01*
G01X12916339Y3214551D01*
G01X12916339Y3094409D01*
G01X12969933Y3185849D02*
G01X12969933Y3191691D01*
G01X12975521Y3203121D01*
G01X12981363Y3208709D01*
G01X12992793Y3214551D01*
G01X13015653Y3214551D01*
G01X13027083Y3208709D01*
G01X13032671Y3203121D01*
G01X13038513Y3191691D01*
G01X13038513Y3180261D01*
G01X13032671Y3168831D01*
G01X13021241Y3151559D01*
G01X12964091Y3094409D01*
G01X13044101Y3094409D01*
G01X13097695Y3123111D02*
G01X13091853Y3117269D01*
G01X13097695Y3111681D01*
G01X13103283Y3117269D01*
G01X13097695Y3123111D01*
G01X13185325Y3214551D02*
G01X13168307Y3208709D01*
G01X13156877Y3191691D01*
G01X13151035Y3162989D01*
G01X13151035Y3145971D01*
G01X13156877Y3117269D01*
G01X13168307Y3100251D01*
G01X13185325Y3094409D01*
G01X13196755Y3094409D01*
G01X13214027Y3100251D01*
G01X13225457Y3117269D01*
G01X13231045Y3145971D01*
G01X13231045Y3162989D01*
G01X13225457Y3191691D01*
G01X13214027Y3208709D01*
G01X13196755Y3214551D01*
G01X13185325Y3214551D01*
G01X13278797Y3174419D02*
G01X13278797Y3094409D01*
G01X13278797Y3151559D02*
G01X13296069Y3168831D01*
G01X13307499Y3174419D01*
G01X13324517Y3174419D01*
G01X13335947Y3168831D01*
G01X13341789Y3151559D01*
G01X13341789Y3094409D01*
G01X13341789Y3151559D02*
G01X13358807Y3168831D01*
G01X13370237Y3174419D01*
G01X13387509Y3174419D01*
G01X13398939Y3168831D01*
G01X13404527Y3151559D01*
G01X13404527Y3094409D01*
G01X13452279Y3214551D02*
G01X13458121Y3208709D01*
G01X13463709Y3214551D01*
G01X13458121Y3220139D01*
G01X13452279Y3214551D01*
G01X13458121Y3174419D02*
G01X13458121Y3094409D01*
G01X13511461Y3214551D02*
G01X13511461Y3094409D01*
G01X13599345Y3237411D02*
G01X13587915Y3225981D01*
G01X13576485Y3208709D01*
G01X13565055Y3185849D01*
G01X13559213Y3157401D01*
G01X13559213Y3134541D01*
G01X13565055Y3105839D01*
G01X13576485Y3082979D01*
G01X13587915Y3065961D01*
G01X13599345Y3054531D01*
G01X13681387Y3214551D02*
G01X13664369Y3208709D01*
G01X13652939Y3191691D01*
G01X13647097Y3162989D01*
G01X13647097Y3145971D01*
G01X13652939Y3117269D01*
G01X13664369Y3100251D01*
G01X13681387Y3094409D01*
G01X13692817Y3094409D01*
G01X13710089Y3100251D01*
G01X13721519Y3117269D01*
G01X13727107Y3145971D01*
G01X13727107Y3162989D01*
G01X13721519Y3191691D01*
G01X13710089Y3208709D01*
G01X13692817Y3214551D01*
G01X13681387Y3214551D01*
G01X13780701Y3123111D02*
G01X13774859Y3117269D01*
G01X13780701Y3111681D01*
G01X13786289Y3117269D01*
G01X13780701Y3123111D01*
G01X13845471Y3214551D02*
G01X13908463Y3214551D01*
G01X13874173Y3168831D01*
G01X13891191Y3168831D01*
G01X13902621Y3162989D01*
G01X13908463Y3157401D01*
G01X13914051Y3140129D01*
G01X13914051Y3128699D01*
G01X13908463Y3111681D01*
G01X13897033Y3100251D01*
G01X13879761Y3094409D01*
G01X13862743Y3094409D01*
G01X13845471Y3100251D01*
G01X13839883Y3105839D01*
G01X13834041Y3117269D01*
G01X13996093Y3214551D02*
G01X13979075Y3208709D01*
G01X13967645Y3191691D01*
G01X13961803Y3162989D01*
G01X13961803Y3145971D01*
G01X13967645Y3117269D01*
G01X13979075Y3100251D01*
G01X13996093Y3094409D01*
G01X14007523Y3094409D01*
G01X14024795Y3100251D01*
G01X14036225Y3117269D01*
G01X14041813Y3145971D01*
G01X14041813Y3162989D01*
G01X14036225Y3191691D01*
G01X14024795Y3208709D01*
G01X14007523Y3214551D01*
G01X13996093Y3214551D01*
G01X14158145Y3214551D02*
G01X14100995Y3214551D01*
G01X14095407Y3162989D01*
G01X14100995Y3168831D01*
G01X14118267Y3174419D01*
G01X14135285Y3174419D01*
G01X14152557Y3168831D01*
G01X14163987Y3157401D01*
G01X14169575Y3140129D01*
G01X14169575Y3128699D01*
G01X14163987Y3111681D01*
G01X14152557Y3100251D01*
G01X14135285Y3094409D01*
G01X14118267Y3094409D01*
G01X14100995Y3100251D01*
G01X14095407Y3105839D01*
G01X14089565Y3117269D01*
G01X14217327Y3174419D02*
G01X14217327Y3094409D01*
G01X14217327Y3151559D02*
G01X14234599Y3168831D01*
G01X14246029Y3174419D01*
G01X14263047Y3174419D01*
G01X14274477Y3168831D01*
G01X14280319Y3151559D01*
G01X14280319Y3094409D01*
G01X14280319Y3151559D02*
G01X14297337Y3168831D01*
G01X14308767Y3174419D01*
G01X14326039Y3174419D01*
G01X14337469Y3168831D01*
G01X14343057Y3151559D01*
G01X14343057Y3094409D01*
G01X14390809Y3174419D02*
G01X14390809Y3094409D01*
G01X14390809Y3151559D02*
G01X14408081Y3168831D01*
G01X14419511Y3174419D01*
G01X14436529Y3174419D01*
G01X14447959Y3168831D01*
G01X14453801Y3151559D01*
G01X14453801Y3094409D01*
G01X14453801Y3151559D02*
G01X14470819Y3168831D01*
G01X14482249Y3174419D01*
G01X14499521Y3174419D01*
G01X14510951Y3168831D01*
G01X14516539Y3151559D01*
G01X14516539Y3094409D01*
G01X14564291Y3237411D02*
G01X14575721Y3225981D01*
G01X14587151Y3208709D01*
G01X14598581Y3185849D01*
G01X14604423Y3157401D01*
G01X14604423Y3134541D01*
G01X14598581Y3105839D01*
G01X14587151Y3082979D01*
G01X14575721Y3065961D01*
G01X14564291Y3054531D01*
G01X16690163Y3214551D02*
G01X16690163Y3094409D01*
G01X16690163Y3214551D02*
G01X16741725Y3214551D01*
G01X16758743Y3208709D01*
G01X16764585Y3203121D01*
G01X16770173Y3191691D01*
G01X16770173Y3174419D01*
G01X16764585Y3162989D01*
G01X16758743Y3157401D01*
G01X16741725Y3151559D01*
G01X16690163Y3151559D01*
G01X16858057Y3214551D02*
G01X16858057Y3094409D01*
G01X16817925Y3214551D02*
G01X16897935Y3214551D01*
G01X16945687Y3214551D02*
G01X16945687Y3094409D01*
G01X17025697Y3214551D02*
G01X17025697Y3094409D01*
G01X16945687Y3157401D02*
G01X17025697Y3157401D01*
G01X18151570Y3214551D02*
G01X18151570Y3094409D01*
G01X18151570Y3214551D02*
G01X18203132Y3214551D01*
G01X18220150Y3208709D01*
G01X18225992Y3203121D01*
G01X18231580Y3191691D01*
G01X18231580Y3180261D01*
G01X18225992Y3168831D01*
G01X18220150Y3162989D01*
G01X18203132Y3157401D01*
G01X18151570Y3157401D01*
G01X18191702Y3157401D02*
G01X18231580Y3094409D01*
G01X18308034Y3174419D02*
G01X18296604Y3168831D01*
G01X18285174Y3157401D01*
G01X18279332Y3140129D01*
G01X18279332Y3128699D01*
G01X18285174Y3111681D01*
G01X18296604Y3100251D01*
G01X18308034Y3094409D01*
G01X18325052Y3094409D01*
G01X18336482Y3100251D01*
G01X18347912Y3111681D01*
G01X18353754Y3128699D01*
G01X18353754Y3140129D01*
G01X18347912Y3157401D01*
G01X18336482Y3168831D01*
G01X18325052Y3174419D01*
G01X18308034Y3174419D01*
G01X18401506Y3174419D02*
G01X18401506Y3117269D01*
G01X18407348Y3100251D01*
G01X18418778Y3094409D01*
G01X18435796Y3094409D01*
G01X18447226Y3100251D01*
G01X18464498Y3117269D01*
G01X18464498Y3174419D02*
G01X18464498Y3094409D01*
G01X18512250Y3174419D02*
G01X18512250Y3094409D01*
G01X18512250Y3151559D02*
G01X18529522Y3168831D01*
G01X18540952Y3174419D01*
G01X18557970Y3174419D01*
G01X18569400Y3168831D01*
G01X18575242Y3151559D01*
G01X18575242Y3094409D01*
G01X18691574Y3214551D02*
G01X18691574Y3094409D01*
G01X18691574Y3157401D02*
G01X18680144Y3168831D01*
G01X18668714Y3174419D01*
G01X18651696Y3174419D01*
G01X18640266Y3168831D01*
G01X18628836Y3157401D01*
G01X18622994Y3140129D01*
G01X18622994Y3128699D01*
G01X18628836Y3111681D01*
G01X18640266Y3100251D01*
G01X18651696Y3094409D01*
G01X18668714Y3094409D01*
G01X18680144Y3100251D01*
G01X18691574Y3111681D01*
G01X19582751Y3214551D02*
G01X19628471Y3094409D01*
G01X19674191Y3214551D02*
G01X19628471Y3094409D01*
G01X19721943Y3214551D02*
G01X19727785Y3208709D01*
G01X19733373Y3214551D01*
G01X19727785Y3220139D01*
G01X19721943Y3214551D01*
G01X19727785Y3174419D02*
G01X19727785Y3094409D01*
G01X19849705Y3174419D02*
G01X19849705Y3094409D01*
G01X19849705Y3157401D02*
G01X19838275Y3168831D01*
G01X19826845Y3174419D01*
G01X19809827Y3174419D01*
G01X19798397Y3168831D01*
G01X19786967Y3157401D01*
G01X19781125Y3140129D01*
G01X19781125Y3128699D01*
G01X19786967Y3111681D01*
G01X19798397Y3100251D01*
G01X19809827Y3094409D01*
G01X19826845Y3094409D01*
G01X19838275Y3100251D01*
G01X19849705Y3111681D01*
G01X23211431Y3214551D02*
G01X23211431Y3094409D01*
G01X23171299Y3214551D02*
G01X23251309Y3214551D01*
G01X23327763Y3174419D02*
G01X23316333Y3168831D01*
G01X23304903Y3157401D01*
G01X23299061Y3140129D01*
G01X23299061Y3128699D01*
G01X23304903Y3111681D01*
G01X23316333Y3100251D01*
G01X23327763Y3094409D01*
G01X23344781Y3094409D01*
G01X23356211Y3100251D01*
G01X23367641Y3111681D01*
G01X23373483Y3128699D01*
G01X23373483Y3140129D01*
G01X23367641Y3157401D01*
G01X23356211Y3168831D01*
G01X23344781Y3174419D01*
G01X23327763Y3174419D01*
G01X23421235Y3174419D02*
G01X23421235Y3054531D01*
G01X23421235Y3157401D02*
G01X23432665Y3168831D01*
G01X23444095Y3174419D01*
G01X23461367Y3174419D01*
G01X23472797Y3168831D01*
G01X23484227Y3157401D01*
G01X23489815Y3140129D01*
G01X23489815Y3128699D01*
G01X23484227Y3111681D01*
G01X23472797Y3100251D01*
G01X23461367Y3094409D01*
G01X23444095Y3094409D01*
G01X23432665Y3100251D01*
G01X23421235Y3111681D01*
G01X23665583Y3214551D02*
G01X23665583Y3094409D01*
G01X23665583Y3094409D02*
G01X23734163Y3094409D01*
G01X23850495Y3174419D02*
G01X23850495Y3094409D01*
G01X23850495Y3157401D02*
G01X23839065Y3168831D01*
G01X23827635Y3174419D01*
G01X23810617Y3174419D01*
G01X23799187Y3168831D01*
G01X23787757Y3157401D01*
G01X23781915Y3140129D01*
G01X23781915Y3128699D01*
G01X23787757Y3111681D01*
G01X23799187Y3100251D01*
G01X23810617Y3094409D01*
G01X23827635Y3094409D01*
G01X23839065Y3100251D01*
G01X23850495Y3111681D01*
G01X23904089Y3174419D02*
G01X23938379Y3094409D01*
G01X23972669Y3174419D02*
G01X23938379Y3094409D01*
G01X23926949Y3071549D01*
G01X23915519Y3060119D01*
G01X23904089Y3054531D01*
G01X23898247Y3054531D01*
G01X24020421Y3140129D02*
G01X24089001Y3140129D01*
G01X24089001Y3151559D01*
G01X24083413Y3162989D01*
G01X24077571Y3168831D01*
G01X24066141Y3174419D01*
G01X24049123Y3174419D01*
G01X24037693Y3168831D01*
G01X24026263Y3157401D01*
G01X24020421Y3140129D01*
G01X24020421Y3128699D01*
G01X24026263Y3111681D01*
G01X24037693Y3100251D01*
G01X24049123Y3094409D01*
G01X24066141Y3094409D01*
G01X24077571Y3100251D01*
G01X24089001Y3111681D01*
G01X24136753Y3174419D02*
G01X24136753Y3094409D01*
G01X24136753Y3140129D02*
G01X24142595Y3157401D01*
G01X24154025Y3168831D01*
G01X24165455Y3174419D01*
G01X24182473Y3174419D01*
G01X24230225Y3145971D02*
G01X24333095Y3145971D01*
G01X24380847Y3214551D02*
G01X24380847Y3094409D01*
G01X24380847Y3214551D02*
G01X24432409Y3214551D01*
G01X24449427Y3208709D01*
G01X24455269Y3203121D01*
G01X24460857Y3191691D01*
G01X24460857Y3180261D01*
G01X24455269Y3168831D01*
G01X24449427Y3162989D01*
G01X24432409Y3157401D01*
G01X24380847Y3157401D02*
G01X24432409Y3157401D01*
G01X24449427Y3151559D01*
G01X24455269Y3145971D01*
G01X24460857Y3134541D01*
G01X24460857Y3117269D01*
G01X24455269Y3105839D01*
G01X24449427Y3100251D01*
G01X24432409Y3094409D01*
G01X24380847Y3094409D01*
G01X24537311Y3174419D02*
G01X24525881Y3168831D01*
G01X24514451Y3157401D01*
G01X24508609Y3140129D01*
G01X24508609Y3128699D01*
G01X24514451Y3111681D01*
G01X24525881Y3100251D01*
G01X24537311Y3094409D01*
G01X24554329Y3094409D01*
G01X24565759Y3100251D01*
G01X24577189Y3111681D01*
G01X24583031Y3128699D01*
G01X24583031Y3140129D01*
G01X24577189Y3157401D01*
G01X24565759Y3168831D01*
G01X24554329Y3174419D01*
G01X24537311Y3174419D01*
G01X24648055Y3214551D02*
G01X24648055Y3117269D01*
G01X24653643Y3100251D01*
G01X24665073Y3094409D01*
G01X24676503Y3094409D01*
G01X24630783Y3174419D02*
G01X24670915Y3174419D01*
G01X24741527Y3214551D02*
G01X24741527Y3117269D01*
G01X24747115Y3100251D01*
G01X24758545Y3094409D01*
G01X24769975Y3094409D01*
G01X24724255Y3174419D02*
G01X24764387Y3174419D01*
G01X24846429Y3174419D02*
G01X24834999Y3168831D01*
G01X24823569Y3157401D01*
G01X24817727Y3140129D01*
G01X24817727Y3128699D01*
G01X24823569Y3111681D01*
G01X24834999Y3100251D01*
G01X24846429Y3094409D01*
G01X24863447Y3094409D01*
G01X24874877Y3100251D01*
G01X24886307Y3111681D01*
G01X24892149Y3128699D01*
G01X24892149Y3140129D01*
G01X24886307Y3157401D01*
G01X24874877Y3168831D01*
G01X24863447Y3174419D01*
G01X24846429Y3174419D01*
G01X24939901Y3174419D02*
G01X24939901Y3094409D01*
G01X24939901Y3151559D02*
G01X24957173Y3168831D01*
G01X24968603Y3174419D01*
G01X24985621Y3174419D01*
G01X24997051Y3168831D01*
G01X25002893Y3151559D01*
G01X25002893Y3094409D01*
G01X25002893Y3151559D02*
G01X25019911Y3168831D01*
G01X25031341Y3174419D01*
G01X25048613Y3174419D01*
G01X25060043Y3168831D01*
G01X25065631Y3151559D01*
G01X25065631Y3094409D01*
G01X25241399Y3214551D02*
G01X25241399Y3094409D01*
G01X25241399Y3094409D02*
G01X25309979Y3094409D01*
G01X25426311Y3174419D02*
G01X25426311Y3094409D01*
G01X25426311Y3157401D02*
G01X25414881Y3168831D01*
G01X25403451Y3174419D01*
G01X25386433Y3174419D01*
G01X25375003Y3168831D01*
G01X25363573Y3157401D01*
G01X25357731Y3140129D01*
G01X25357731Y3128699D01*
G01X25363573Y3111681D01*
G01X25375003Y3100251D01*
G01X25386433Y3094409D01*
G01X25403451Y3094409D01*
G01X25414881Y3100251D01*
G01X25426311Y3111681D01*
G01X25479905Y3174419D02*
G01X25514195Y3094409D01*
G01X25548485Y3174419D02*
G01X25514195Y3094409D01*
G01X25502765Y3071549D01*
G01X25491335Y3060119D01*
G01X25479905Y3054531D01*
G01X25474063Y3054531D01*
G01X25596237Y3140129D02*
G01X25664817Y3140129D01*
G01X25664817Y3151559D01*
G01X25659229Y3162989D01*
G01X25653387Y3168831D01*
G01X25641957Y3174419D01*
G01X25624939Y3174419D01*
G01X25613509Y3168831D01*
G01X25602079Y3157401D01*
G01X25596237Y3140129D01*
G01X25596237Y3128699D01*
G01X25602079Y3111681D01*
G01X25613509Y3100251D01*
G01X25624939Y3094409D01*
G01X25641957Y3094409D01*
G01X25653387Y3100251D01*
G01X25664817Y3111681D01*
G01X25712569Y3174419D02*
G01X25712569Y3094409D01*
G01X25712569Y3140129D02*
G01X25718411Y3157401D01*
G01X25729841Y3168831D01*
G01X25741271Y3174419D01*
G01X25758289Y3174419D01*
G01X11530624Y2633980D02*
G01X11473474Y2553970D01*
G01X11559326Y2553970D01*
G01X11530624Y2633980D02*
G01X11530624Y2513838D01*
G01X11635780Y2633980D02*
G01X11618508Y2628138D01*
G01X11612920Y2616708D01*
G01X11612920Y2605278D01*
G01X11618508Y2593848D01*
G01X11629938Y2588260D01*
G01X11652798Y2582418D01*
G01X11670070Y2576830D01*
G01X11681500Y2565400D01*
G01X11687088Y2553970D01*
G01X11687088Y2536698D01*
G01X11681500Y2525268D01*
G01X11675658Y2519680D01*
G01X11658640Y2513838D01*
G01X11635780Y2513838D01*
G01X11618508Y2519680D01*
G01X11612920Y2525268D01*
G01X11607078Y2536698D01*
G01X11607078Y2553970D01*
G01X11612920Y2565400D01*
G01X11624350Y2576830D01*
G01X11641368Y2582418D01*
G01X11664228Y2588260D01*
G01X11675658Y2593848D01*
G01X11681500Y2605278D01*
G01X11681500Y2616708D01*
G01X11675658Y2628138D01*
G01X11658640Y2633980D01*
G01X11635780Y2633980D01*
G01X12944787Y2633980D02*
G01X12887637Y2553970D01*
G01X12973489Y2553970D01*
G01X12944787Y2633980D02*
G01X12944787Y2513838D01*
G01X13055531Y2633980D02*
G01X13038513Y2628138D01*
G01X13027083Y2611120D01*
G01X13021241Y2582418D01*
G01X13021241Y2565400D01*
G01X13027083Y2536698D01*
G01X13038513Y2519680D01*
G01X13055531Y2513838D01*
G01X13066961Y2513838D01*
G01X13084233Y2519680D01*
G01X13095663Y2536698D01*
G01X13101251Y2565400D01*
G01X13101251Y2582418D01*
G01X13095663Y2611120D01*
G01X13084233Y2628138D01*
G01X13066961Y2633980D01*
G01X13055531Y2633980D01*
G01X13154845Y2542540D02*
G01X13149003Y2536698D01*
G01X13154845Y2531110D01*
G01X13160433Y2536698D01*
G01X13154845Y2542540D01*
G01X13214027Y2605278D02*
G01X13214027Y2611120D01*
G01X13219615Y2622550D01*
G01X13225457Y2628138D01*
G01X13236887Y2633980D01*
G01X13259747Y2633980D01*
G01X13271177Y2628138D01*
G01X13276765Y2622550D01*
G01X13282607Y2611120D01*
G01X13282607Y2599690D01*
G01X13276765Y2588260D01*
G01X13265335Y2570988D01*
G01X13208185Y2513838D01*
G01X13288195Y2513838D01*
G01X13335947Y2593848D02*
G01X13398939Y2513838D01*
G01X13398939Y2593848D02*
G01X13335947Y2513838D01*
G01X13503841Y2633980D02*
G01X13446691Y2553970D01*
G01X13532543Y2553970D01*
G01X13503841Y2633980D02*
G01X13503841Y2513838D01*
G01X13614585Y2633980D02*
G01X13597567Y2628138D01*
G01X13586137Y2611120D01*
G01X13580295Y2582418D01*
G01X13580295Y2565400D01*
G01X13586137Y2536698D01*
G01X13597567Y2519680D01*
G01X13614585Y2513838D01*
G01X13626015Y2513838D01*
G01X13643287Y2519680D01*
G01X13654717Y2536698D01*
G01X13660305Y2565400D01*
G01X13660305Y2582418D01*
G01X13654717Y2611120D01*
G01X13643287Y2628138D01*
G01X13626015Y2633980D01*
G01X13614585Y2633980D01*
G01X13713899Y2542540D02*
G01X13708057Y2536698D01*
G01X13713899Y2531110D01*
G01X13719487Y2536698D01*
G01X13713899Y2542540D01*
G01X13773081Y2605278D02*
G01X13773081Y2611120D01*
G01X13778669Y2622550D01*
G01X13784511Y2628138D01*
G01X13795941Y2633980D01*
G01X13818801Y2633980D01*
G01X13830231Y2628138D01*
G01X13835819Y2622550D01*
G01X13841661Y2611120D01*
G01X13841661Y2599690D01*
G01X13835819Y2588260D01*
G01X13824389Y2570988D01*
G01X13767239Y2513838D01*
G01X13847249Y2513838D01*
G01X13895001Y2593848D02*
G01X13895001Y2513838D01*
G01X13895001Y2570988D02*
G01X13912273Y2588260D01*
G01X13923703Y2593848D01*
G01X13940721Y2593848D01*
G01X13952151Y2588260D01*
G01X13957993Y2570988D01*
G01X13957993Y2513838D01*
G01X13957993Y2570988D02*
G01X13975011Y2588260D01*
G01X13986441Y2593848D01*
G01X14003713Y2593848D01*
G01X14015143Y2588260D01*
G01X14020731Y2570988D01*
G01X14020731Y2513838D01*
G01X14068483Y2633980D02*
G01X14074325Y2628138D01*
G01X14079913Y2633980D01*
G01X14074325Y2639568D01*
G01X14068483Y2633980D01*
G01X14074325Y2593848D02*
G01X14074325Y2513838D01*
G01X14127665Y2633980D02*
G01X14127665Y2513838D01*
G01X14215549Y2656840D02*
G01X14204119Y2645410D01*
G01X14192689Y2628138D01*
G01X14181259Y2605278D01*
G01X14175417Y2576830D01*
G01X14175417Y2553970D01*
G01X14181259Y2525268D01*
G01X14192689Y2502408D01*
G01X14204119Y2485390D01*
G01X14215549Y2473960D01*
G01X14263301Y2611120D02*
G01X14274731Y2616708D01*
G01X14292003Y2633980D01*
G01X14292003Y2513838D01*
G01X14345597Y2542540D02*
G01X14339755Y2536698D01*
G01X14345597Y2531110D01*
G01X14351185Y2536698D01*
G01X14345597Y2542540D01*
G01X14433227Y2633980D02*
G01X14416209Y2628138D01*
G01X14404779Y2611120D01*
G01X14398937Y2582418D01*
G01X14398937Y2565400D01*
G01X14404779Y2536698D01*
G01X14416209Y2519680D01*
G01X14433227Y2513838D01*
G01X14444657Y2513838D01*
G01X14461929Y2519680D01*
G01X14473359Y2536698D01*
G01X14478947Y2565400D01*
G01X14478947Y2582418D01*
G01X14473359Y2611120D01*
G01X14461929Y2628138D01*
G01X14444657Y2633980D01*
G01X14433227Y2633980D01*
G01X14532541Y2605278D02*
G01X14532541Y2611120D01*
G01X14538129Y2622550D01*
G01X14543971Y2628138D01*
G01X14555401Y2633980D01*
G01X14578261Y2633980D01*
G01X14589691Y2628138D01*
G01X14595279Y2622550D01*
G01X14601121Y2611120D01*
G01X14601121Y2599690D01*
G01X14595279Y2588260D01*
G01X14583849Y2570988D01*
G01X14526699Y2513838D01*
G01X14606709Y2513838D01*
G01X14688751Y2633980D02*
G01X14671733Y2628138D01*
G01X14660303Y2611120D01*
G01X14654461Y2582418D01*
G01X14654461Y2565400D01*
G01X14660303Y2536698D01*
G01X14671733Y2519680D01*
G01X14688751Y2513838D01*
G01X14700181Y2513838D01*
G01X14717453Y2519680D01*
G01X14728883Y2536698D01*
G01X14734471Y2565400D01*
G01X14734471Y2582418D01*
G01X14728883Y2611120D01*
G01X14717453Y2628138D01*
G01X14700181Y2633980D01*
G01X14688751Y2633980D01*
G01X14782223Y2593848D02*
G01X14845215Y2513838D01*
G01X14845215Y2593848D02*
G01X14782223Y2513838D01*
G01X14892967Y2611120D02*
G01X14904397Y2616708D01*
G01X14921669Y2633980D01*
G01X14921669Y2513838D01*
G01X14975263Y2542540D02*
G01X14969421Y2536698D01*
G01X14975263Y2531110D01*
G01X14980851Y2536698D01*
G01X14975263Y2542540D01*
G01X15062893Y2633980D02*
G01X15045875Y2628138D01*
G01X15034445Y2611120D01*
G01X15028603Y2582418D01*
G01X15028603Y2565400D01*
G01X15034445Y2536698D01*
G01X15045875Y2519680D01*
G01X15062893Y2513838D01*
G01X15074323Y2513838D01*
G01X15091595Y2519680D01*
G01X15103025Y2536698D01*
G01X15108613Y2565400D01*
G01X15108613Y2582418D01*
G01X15103025Y2611120D01*
G01X15091595Y2628138D01*
G01X15074323Y2633980D01*
G01X15062893Y2633980D01*
G01X15162207Y2605278D02*
G01X15162207Y2611120D01*
G01X15167795Y2622550D01*
G01X15173637Y2628138D01*
G01X15185067Y2633980D01*
G01X15207927Y2633980D01*
G01X15219357Y2628138D01*
G01X15224945Y2622550D01*
G01X15230787Y2611120D01*
G01X15230787Y2599690D01*
G01X15224945Y2588260D01*
G01X15213515Y2570988D01*
G01X15156365Y2513838D01*
G01X15236375Y2513838D01*
G01X15318417Y2633980D02*
G01X15301399Y2628138D01*
G01X15289969Y2611120D01*
G01X15284127Y2582418D01*
G01X15284127Y2565400D01*
G01X15289969Y2536698D01*
G01X15301399Y2519680D01*
G01X15318417Y2513838D01*
G01X15329847Y2513838D01*
G01X15347119Y2519680D01*
G01X15358549Y2536698D01*
G01X15364137Y2565400D01*
G01X15364137Y2582418D01*
G01X15358549Y2611120D01*
G01X15347119Y2628138D01*
G01X15329847Y2633980D01*
G01X15318417Y2633980D01*
G01X15411889Y2593848D02*
G01X15411889Y2513838D01*
G01X15411889Y2570988D02*
G01X15429161Y2588260D01*
G01X15440591Y2593848D01*
G01X15457609Y2593848D01*
G01X15469039Y2588260D01*
G01X15474881Y2570988D01*
G01X15474881Y2513838D01*
G01X15474881Y2570988D02*
G01X15491899Y2588260D01*
G01X15503329Y2593848D01*
G01X15520601Y2593848D01*
G01X15532031Y2588260D01*
G01X15537619Y2570988D01*
G01X15537619Y2513838D01*
G01X15585371Y2593848D02*
G01X15585371Y2513838D01*
G01X15585371Y2570988D02*
G01X15602643Y2588260D01*
G01X15614073Y2593848D01*
G01X15631091Y2593848D01*
G01X15642521Y2588260D01*
G01X15648363Y2570988D01*
G01X15648363Y2513838D01*
G01X15648363Y2570988D02*
G01X15665381Y2588260D01*
G01X15676811Y2593848D01*
G01X15694083Y2593848D01*
G01X15705513Y2588260D01*
G01X15711101Y2570988D01*
G01X15711101Y2513838D01*
G01X15758853Y2656840D02*
G01X15770283Y2645410D01*
G01X15781713Y2628138D01*
G01X15793143Y2605278D01*
G01X15798985Y2576830D01*
G01X15798985Y2553970D01*
G01X15793143Y2525268D01*
G01X15781713Y2502408D01*
G01X15770283Y2485390D01*
G01X15758853Y2473960D01*
G01X16690163Y2633980D02*
G01X16690163Y2513838D01*
G01X16690163Y2633980D02*
G01X16741725Y2633980D01*
G01X16758743Y2628138D01*
G01X16764585Y2622550D01*
G01X16770173Y2611120D01*
G01X16770173Y2593848D01*
G01X16764585Y2582418D01*
G01X16758743Y2576830D01*
G01X16741725Y2570988D01*
G01X16690163Y2570988D01*
G01X16858057Y2633980D02*
G01X16858057Y2513838D01*
G01X16817925Y2633980D02*
G01X16897935Y2633980D01*
G01X16945687Y2633980D02*
G01X16945687Y2513838D01*
G01X17025697Y2633980D02*
G01X17025697Y2513838D01*
G01X16945687Y2576830D02*
G01X17025697Y2576830D01*
G01X18151570Y2633980D02*
G01X18151570Y2513838D01*
G01X18151570Y2633980D02*
G01X18203132Y2633980D01*
G01X18220150Y2628138D01*
G01X18225992Y2622550D01*
G01X18231580Y2611120D01*
G01X18231580Y2599690D01*
G01X18225992Y2588260D01*
G01X18220150Y2582418D01*
G01X18203132Y2576830D01*
G01X18151570Y2576830D01*
G01X18191702Y2576830D02*
G01X18231580Y2513838D01*
G01X18308034Y2593848D02*
G01X18296604Y2588260D01*
G01X18285174Y2576830D01*
G01X18279332Y2559558D01*
G01X18279332Y2548128D01*
G01X18285174Y2531110D01*
G01X18296604Y2519680D01*
G01X18308034Y2513838D01*
G01X18325052Y2513838D01*
G01X18336482Y2519680D01*
G01X18347912Y2531110D01*
G01X18353754Y2548128D01*
G01X18353754Y2559558D01*
G01X18347912Y2576830D01*
G01X18336482Y2588260D01*
G01X18325052Y2593848D01*
G01X18308034Y2593848D01*
G01X18401506Y2593848D02*
G01X18401506Y2536698D01*
G01X18407348Y2519680D01*
G01X18418778Y2513838D01*
G01X18435796Y2513838D01*
G01X18447226Y2519680D01*
G01X18464498Y2536698D01*
G01X18464498Y2593848D02*
G01X18464498Y2513838D01*
G01X18512250Y2593848D02*
G01X18512250Y2513838D01*
G01X18512250Y2570988D02*
G01X18529522Y2588260D01*
G01X18540952Y2593848D01*
G01X18557970Y2593848D01*
G01X18569400Y2588260D01*
G01X18575242Y2570988D01*
G01X18575242Y2513838D01*
G01X18691574Y2633980D02*
G01X18691574Y2513838D01*
G01X18691574Y2576830D02*
G01X18680144Y2588260D01*
G01X18668714Y2593848D01*
G01X18651696Y2593848D01*
G01X18640266Y2588260D01*
G01X18628836Y2576830D01*
G01X18622994Y2559558D01*
G01X18622994Y2548128D01*
G01X18628836Y2531110D01*
G01X18640266Y2519680D01*
G01X18651696Y2513838D01*
G01X18668714Y2513838D01*
G01X18680144Y2519680D01*
G01X18691574Y2531110D01*
G01X19582751Y2633980D02*
G01X19582751Y2513838D01*
G01X19582751Y2633980D02*
G01X19634313Y2633980D01*
G01X19651331Y2628138D01*
G01X19657173Y2622550D01*
G01X19662761Y2611120D01*
G01X19662761Y2593848D01*
G01X19657173Y2582418D01*
G01X19651331Y2576830D01*
G01X19634313Y2570988D01*
G01X19582751Y2570988D01*
G01X19779093Y2593848D02*
G01X19779093Y2513838D01*
G01X19779093Y2576830D02*
G01X19767663Y2588260D01*
G01X19756233Y2593848D01*
G01X19739215Y2593848D01*
G01X19727785Y2588260D01*
G01X19716355Y2576830D01*
G01X19710513Y2559558D01*
G01X19710513Y2548128D01*
G01X19716355Y2531110D01*
G01X19727785Y2519680D01*
G01X19739215Y2513838D01*
G01X19756233Y2513838D01*
G01X19767663Y2519680D01*
G01X19779093Y2531110D01*
G01X19895425Y2633980D02*
G01X19895425Y2513838D01*
G01X19895425Y2576830D02*
G01X19883995Y2588260D01*
G01X19872565Y2593848D01*
G01X19855547Y2593848D01*
G01X19844117Y2588260D01*
G01X19832687Y2576830D01*
G01X19826845Y2559558D01*
G01X19826845Y2548128D01*
G01X19832687Y2531110D01*
G01X19844117Y2519680D01*
G01X19855547Y2513838D01*
G01X19872565Y2513838D01*
G01X19883995Y2519680D01*
G01X19895425Y2531110D01*
G01X21292062Y2656840D02*
G01X21280632Y2645410D01*
G01X21269202Y2628138D01*
G01X21257772Y2605278D01*
G01X21251930Y2576830D01*
G01X21251930Y2553970D01*
G01X21257772Y2525268D01*
G01X21269202Y2502408D01*
G01X21280632Y2485390D01*
G01X21292062Y2473960D01*
G01X21339814Y2633980D02*
G01X21339814Y2513838D01*
G01X21339814Y2633980D02*
G01X21385534Y2513838D01*
G01X21431254Y2633980D02*
G01X21385534Y2513838D01*
G01X21431254Y2633980D02*
G01X21431254Y2513838D01*
G01X21479006Y2633980D02*
G01X21484848Y2628138D01*
G01X21490436Y2633980D01*
G01X21484848Y2639568D01*
G01X21479006Y2633980D01*
G01X21484848Y2593848D02*
G01X21484848Y2513838D01*
G01X21538188Y2593848D02*
G01X21601180Y2513838D01*
G01X21601180Y2593848D02*
G01X21538188Y2513838D01*
G01X21648932Y2559558D02*
G01X21717512Y2559558D01*
G01X21717512Y2570988D01*
G01X21711924Y2582418D01*
G01X21706082Y2588260D01*
G01X21694652Y2593848D01*
G01X21677634Y2593848D01*
G01X21666204Y2588260D01*
G01X21654774Y2576830D01*
G01X21648932Y2559558D01*
G01X21648932Y2548128D01*
G01X21654774Y2531110D01*
G01X21666204Y2519680D01*
G01X21677634Y2513838D01*
G01X21694652Y2513838D01*
G01X21706082Y2519680D01*
G01X21717512Y2531110D01*
G01X21833844Y2633980D02*
G01X21833844Y2513838D01*
G01X21833844Y2576830D02*
G01X21822414Y2588260D01*
G01X21810984Y2593848D01*
G01X21793966Y2593848D01*
G01X21782536Y2588260D01*
G01X21771106Y2576830D01*
G01X21765264Y2559558D01*
G01X21765264Y2548128D01*
G01X21771106Y2531110D01*
G01X21782536Y2519680D01*
G01X21793966Y2513838D01*
G01X21810984Y2513838D01*
G01X21822414Y2519680D01*
G01X21833844Y2531110D01*
G01X21881596Y2656840D02*
G01X21893026Y2645410D01*
G01X21904456Y2628138D01*
G01X21915886Y2605278D01*
G01X21921728Y2576830D01*
G01X21921728Y2553970D01*
G01X21915886Y2525268D01*
G01X21904456Y2502408D01*
G01X21893026Y2485390D01*
G01X21881596Y2473960D01*
G01X23211431Y2633980D02*
G01X23211431Y2513838D01*
G01X23171299Y2633980D02*
G01X23251309Y2633980D01*
G01X23327763Y2593848D02*
G01X23316333Y2588260D01*
G01X23304903Y2576830D01*
G01X23299061Y2559558D01*
G01X23299061Y2548128D01*
G01X23304903Y2531110D01*
G01X23316333Y2519680D01*
G01X23327763Y2513838D01*
G01X23344781Y2513838D01*
G01X23356211Y2519680D01*
G01X23367641Y2531110D01*
G01X23373483Y2548128D01*
G01X23373483Y2559558D01*
G01X23367641Y2576830D01*
G01X23356211Y2588260D01*
G01X23344781Y2593848D01*
G01X23327763Y2593848D01*
G01X23421235Y2593848D02*
G01X23421235Y2473960D01*
G01X23421235Y2576830D02*
G01X23432665Y2588260D01*
G01X23444095Y2593848D01*
G01X23461367Y2593848D01*
G01X23472797Y2588260D01*
G01X23484227Y2576830D01*
G01X23489815Y2559558D01*
G01X23489815Y2548128D01*
G01X23484227Y2531110D01*
G01X23472797Y2519680D01*
G01X23461367Y2513838D01*
G01X23444095Y2513838D01*
G01X23432665Y2519680D01*
G01X23421235Y2531110D01*
G01X23665583Y2633980D02*
G01X23665583Y2513838D01*
G01X23665583Y2513838D02*
G01X23734163Y2513838D01*
G01X23850495Y2593848D02*
G01X23850495Y2513838D01*
G01X23850495Y2576830D02*
G01X23839065Y2588260D01*
G01X23827635Y2593848D01*
G01X23810617Y2593848D01*
G01X23799187Y2588260D01*
G01X23787757Y2576830D01*
G01X23781915Y2559558D01*
G01X23781915Y2548128D01*
G01X23787757Y2531110D01*
G01X23799187Y2519680D01*
G01X23810617Y2513838D01*
G01X23827635Y2513838D01*
G01X23839065Y2519680D01*
G01X23850495Y2531110D01*
G01X23904089Y2593848D02*
G01X23938379Y2513838D01*
G01X23972669Y2593848D02*
G01X23938379Y2513838D01*
G01X23926949Y2490978D01*
G01X23915519Y2479548D01*
G01X23904089Y2473960D01*
G01X23898247Y2473960D01*
G01X24020421Y2559558D02*
G01X24089001Y2559558D01*
G01X24089001Y2570988D01*
G01X24083413Y2582418D01*
G01X24077571Y2588260D01*
G01X24066141Y2593848D01*
G01X24049123Y2593848D01*
G01X24037693Y2588260D01*
G01X24026263Y2576830D01*
G01X24020421Y2559558D01*
G01X24020421Y2548128D01*
G01X24026263Y2531110D01*
G01X24037693Y2519680D01*
G01X24049123Y2513838D01*
G01X24066141Y2513838D01*
G01X24077571Y2519680D01*
G01X24089001Y2531110D01*
G01X24136753Y2593848D02*
G01X24136753Y2513838D01*
G01X24136753Y2559558D02*
G01X24142595Y2576830D01*
G01X24154025Y2588260D01*
G01X24165455Y2593848D01*
G01X24182473Y2593848D01*
G01X24230225Y2565400D02*
G01X24333095Y2565400D01*
G01X24380847Y2633980D02*
G01X24380847Y2513838D01*
G01X24380847Y2633980D02*
G01X24432409Y2633980D01*
G01X24449427Y2628138D01*
G01X24455269Y2622550D01*
G01X24460857Y2611120D01*
G01X24460857Y2599690D01*
G01X24455269Y2588260D01*
G01X24449427Y2582418D01*
G01X24432409Y2576830D01*
G01X24380847Y2576830D02*
G01X24432409Y2576830D01*
G01X24449427Y2570988D01*
G01X24455269Y2565400D01*
G01X24460857Y2553970D01*
G01X24460857Y2536698D01*
G01X24455269Y2525268D01*
G01X24449427Y2519680D01*
G01X24432409Y2513838D01*
G01X24380847Y2513838D01*
G01X24537311Y2593848D02*
G01X24525881Y2588260D01*
G01X24514451Y2576830D01*
G01X24508609Y2559558D01*
G01X24508609Y2548128D01*
G01X24514451Y2531110D01*
G01X24525881Y2519680D01*
G01X24537311Y2513838D01*
G01X24554329Y2513838D01*
G01X24565759Y2519680D01*
G01X24577189Y2531110D01*
G01X24583031Y2548128D01*
G01X24583031Y2559558D01*
G01X24577189Y2576830D01*
G01X24565759Y2588260D01*
G01X24554329Y2593848D01*
G01X24537311Y2593848D01*
G01X24648055Y2633980D02*
G01X24648055Y2536698D01*
G01X24653643Y2519680D01*
G01X24665073Y2513838D01*
G01X24676503Y2513838D01*
G01X24630783Y2593848D02*
G01X24670915Y2593848D01*
G01X24741527Y2633980D02*
G01X24741527Y2536698D01*
G01X24747115Y2519680D01*
G01X24758545Y2513838D01*
G01X24769975Y2513838D01*
G01X24724255Y2593848D02*
G01X24764387Y2593848D01*
G01X24846429Y2593848D02*
G01X24834999Y2588260D01*
G01X24823569Y2576830D01*
G01X24817727Y2559558D01*
G01X24817727Y2548128D01*
G01X24823569Y2531110D01*
G01X24834999Y2519680D01*
G01X24846429Y2513838D01*
G01X24863447Y2513838D01*
G01X24874877Y2519680D01*
G01X24886307Y2531110D01*
G01X24892149Y2548128D01*
G01X24892149Y2559558D01*
G01X24886307Y2576830D01*
G01X24874877Y2588260D01*
G01X24863447Y2593848D01*
G01X24846429Y2593848D01*
G01X24939901Y2593848D02*
G01X24939901Y2513838D01*
G01X24939901Y2570988D02*
G01X24957173Y2588260D01*
G01X24968603Y2593848D01*
G01X24985621Y2593848D01*
G01X24997051Y2588260D01*
G01X25002893Y2570988D01*
G01X25002893Y2513838D01*
G01X25002893Y2570988D02*
G01X25019911Y2588260D01*
G01X25031341Y2593848D01*
G01X25048613Y2593848D01*
G01X25060043Y2588260D01*
G01X25065631Y2570988D01*
G01X25065631Y2513838D01*
G01X25241399Y2633980D02*
G01X25241399Y2513838D01*
G01X25241399Y2513838D02*
G01X25309979Y2513838D01*
G01X25426311Y2593848D02*
G01X25426311Y2513838D01*
G01X25426311Y2576830D02*
G01X25414881Y2588260D01*
G01X25403451Y2593848D01*
G01X25386433Y2593848D01*
G01X25375003Y2588260D01*
G01X25363573Y2576830D01*
G01X25357731Y2559558D01*
G01X25357731Y2548128D01*
G01X25363573Y2531110D01*
G01X25375003Y2519680D01*
G01X25386433Y2513838D01*
G01X25403451Y2513838D01*
G01X25414881Y2519680D01*
G01X25426311Y2531110D01*
G01X25479905Y2593848D02*
G01X25514195Y2513838D01*
G01X25548485Y2593848D02*
G01X25514195Y2513838D01*
G01X25502765Y2490978D01*
G01X25491335Y2479548D01*
G01X25479905Y2473960D01*
G01X25474063Y2473960D01*
G01X25596237Y2559558D02*
G01X25664817Y2559558D01*
G01X25664817Y2570988D01*
G01X25659229Y2582418D01*
G01X25653387Y2588260D01*
G01X25641957Y2593848D01*
G01X25624939Y2593848D01*
G01X25613509Y2588260D01*
G01X25602079Y2576830D01*
G01X25596237Y2559558D01*
G01X25596237Y2548128D01*
G01X25602079Y2531110D01*
G01X25613509Y2519680D01*
G01X25624939Y2513838D01*
G01X25641957Y2513838D01*
G01X25653387Y2519680D01*
G01X25664817Y2531110D01*
G01X25712569Y2593848D02*
G01X25712569Y2513838D01*
G01X25712569Y2559558D02*
G01X25718411Y2576830D01*
G01X25729841Y2588260D01*
G01X25741271Y2593848D01*
G01X25758289Y2593848D01*
G01X11542054Y2053409D02*
G01X11484904Y2053409D01*
G01X11479316Y2001847D01*
G01X11484904Y2007689D01*
G01X11502176Y2013277D01*
G01X11519194Y2013277D01*
G01X11536466Y2007689D01*
G01X11547896Y1996259D01*
G01X11553484Y1978987D01*
G01X11553484Y1967557D01*
G01X11547896Y1950539D01*
G01X11536466Y1939109D01*
G01X11519194Y1933267D01*
G01X11502176Y1933267D01*
G01X11484904Y1939109D01*
G01X11479316Y1944697D01*
G01X11473474Y1956127D01*
G01X11635526Y2053409D02*
G01X11618508Y2047567D01*
G01X11607078Y2030549D01*
G01X11601236Y2001847D01*
G01X11601236Y1984829D01*
G01X11607078Y1956127D01*
G01X11618508Y1939109D01*
G01X11635526Y1933267D01*
G01X11646956Y1933267D01*
G01X11664228Y1939109D01*
G01X11675658Y1956127D01*
G01X11681246Y1984829D01*
G01X11681246Y2001847D01*
G01X11675658Y2030549D01*
G01X11664228Y2047567D01*
G01X11646956Y2053409D01*
G01X11635526Y2053409D01*
G01X12944787Y2053409D02*
G01X12887637Y1973399D01*
G01X12973489Y1973399D01*
G01X12944787Y2053409D02*
G01X12944787Y1933267D01*
G01X13032671Y2053409D02*
G01X13095663Y2053409D01*
G01X13061373Y2007689D01*
G01X13078391Y2007689D01*
G01X13089821Y2001847D01*
G01X13095663Y1996259D01*
G01X13101251Y1978987D01*
G01X13101251Y1967557D01*
G01X13095663Y1950539D01*
G01X13084233Y1939109D01*
G01X13066961Y1933267D01*
G01X13049943Y1933267D01*
G01X13032671Y1939109D01*
G01X13027083Y1944697D01*
G01X13021241Y1956127D01*
G01X13154845Y1961969D02*
G01X13149003Y1956127D01*
G01X13154845Y1950539D01*
G01X13160433Y1956127D01*
G01X13154845Y1961969D01*
G01X13219615Y2053409D02*
G01X13282607Y2053409D01*
G01X13248317Y2007689D01*
G01X13265335Y2007689D01*
G01X13276765Y2001847D01*
G01X13282607Y1996259D01*
G01X13288195Y1978987D01*
G01X13288195Y1967557D01*
G01X13282607Y1950539D01*
G01X13271177Y1939109D01*
G01X13253905Y1933267D01*
G01X13236887Y1933267D01*
G01X13219615Y1939109D01*
G01X13214027Y1944697D01*
G01X13208185Y1956127D01*
G01X13335947Y2013277D02*
G01X13398939Y1933267D01*
G01X13398939Y2013277D02*
G01X13335947Y1933267D01*
G01X13503841Y2053409D02*
G01X13446691Y1973399D01*
G01X13532543Y1973399D01*
G01X13503841Y2053409D02*
G01X13503841Y1933267D01*
G01X13591725Y2053409D02*
G01X13654717Y2053409D01*
G01X13620427Y2007689D01*
G01X13637445Y2007689D01*
G01X13648875Y2001847D01*
G01X13654717Y1996259D01*
G01X13660305Y1978987D01*
G01X13660305Y1967557D01*
G01X13654717Y1950539D01*
G01X13643287Y1939109D01*
G01X13626015Y1933267D01*
G01X13608997Y1933267D01*
G01X13591725Y1939109D01*
G01X13586137Y1944697D01*
G01X13580295Y1956127D01*
G01X13713899Y1961969D02*
G01X13708057Y1956127D01*
G01X13713899Y1950539D01*
G01X13719487Y1956127D01*
G01X13713899Y1961969D01*
G01X13778669Y2053409D02*
G01X13841661Y2053409D01*
G01X13807371Y2007689D01*
G01X13824389Y2007689D01*
G01X13835819Y2001847D01*
G01X13841661Y1996259D01*
G01X13847249Y1978987D01*
G01X13847249Y1967557D01*
G01X13841661Y1950539D01*
G01X13830231Y1939109D01*
G01X13812959Y1933267D01*
G01X13795941Y1933267D01*
G01X13778669Y1939109D01*
G01X13773081Y1944697D01*
G01X13767239Y1956127D01*
G01X13895001Y2013277D02*
G01X13895001Y1933267D01*
G01X13895001Y1990417D02*
G01X13912273Y2007689D01*
G01X13923703Y2013277D01*
G01X13940721Y2013277D01*
G01X13952151Y2007689D01*
G01X13957993Y1990417D01*
G01X13957993Y1933267D01*
G01X13957993Y1990417D02*
G01X13975011Y2007689D01*
G01X13986441Y2013277D01*
G01X14003713Y2013277D01*
G01X14015143Y2007689D01*
G01X14020731Y1990417D01*
G01X14020731Y1933267D01*
G01X14068483Y2053409D02*
G01X14074325Y2047567D01*
G01X14079913Y2053409D01*
G01X14074325Y2058997D01*
G01X14068483Y2053409D01*
G01X14074325Y2013277D02*
G01X14074325Y1933267D01*
G01X14127665Y2053409D02*
G01X14127665Y1933267D01*
G01X14215549Y2076269D02*
G01X14204119Y2064839D01*
G01X14192689Y2047567D01*
G01X14181259Y2024707D01*
G01X14175417Y1996259D01*
G01X14175417Y1973399D01*
G01X14181259Y1944697D01*
G01X14192689Y1921837D01*
G01X14204119Y1904819D01*
G01X14215549Y1893389D01*
G01X14263301Y2030549D02*
G01X14274731Y2036137D01*
G01X14292003Y2053409D01*
G01X14292003Y1933267D01*
G01X14345597Y1961969D02*
G01X14339755Y1956127D01*
G01X14345597Y1950539D01*
G01X14351185Y1956127D01*
G01X14345597Y1961969D01*
G01X14398937Y2030549D02*
G01X14410367Y2036137D01*
G01X14427639Y2053409D01*
G01X14427639Y1933267D01*
G01X14509681Y2053409D02*
G01X14492663Y2047567D01*
G01X14481233Y2030549D01*
G01X14475391Y2001847D01*
G01X14475391Y1984829D01*
G01X14481233Y1956127D01*
G01X14492663Y1939109D01*
G01X14509681Y1933267D01*
G01X14521111Y1933267D01*
G01X14538383Y1939109D01*
G01X14549813Y1956127D01*
G01X14555401Y1984829D01*
G01X14555401Y2001847D01*
G01X14549813Y2030549D01*
G01X14538383Y2047567D01*
G01X14521111Y2053409D01*
G01X14509681Y2053409D01*
G01X14637443Y2053409D02*
G01X14620425Y2047567D01*
G01X14608995Y2030549D01*
G01X14603153Y2001847D01*
G01X14603153Y1984829D01*
G01X14608995Y1956127D01*
G01X14620425Y1939109D01*
G01X14637443Y1933267D01*
G01X14648873Y1933267D01*
G01X14666145Y1939109D01*
G01X14677575Y1956127D01*
G01X14683163Y1984829D01*
G01X14683163Y2001847D01*
G01X14677575Y2030549D01*
G01X14666145Y2047567D01*
G01X14648873Y2053409D01*
G01X14637443Y2053409D01*
G01X14730915Y2013277D02*
G01X14793907Y1933267D01*
G01X14793907Y2013277D02*
G01X14730915Y1933267D01*
G01X14841659Y2030549D02*
G01X14853089Y2036137D01*
G01X14870361Y2053409D01*
G01X14870361Y1933267D01*
G01X14923955Y1961969D02*
G01X14918113Y1956127D01*
G01X14923955Y1950539D01*
G01X14929543Y1956127D01*
G01X14923955Y1961969D01*
G01X14977295Y2030549D02*
G01X14988725Y2036137D01*
G01X15005997Y2053409D01*
G01X15005997Y1933267D01*
G01X15088039Y2053409D02*
G01X15071021Y2047567D01*
G01X15059591Y2030549D01*
G01X15053749Y2001847D01*
G01X15053749Y1984829D01*
G01X15059591Y1956127D01*
G01X15071021Y1939109D01*
G01X15088039Y1933267D01*
G01X15099469Y1933267D01*
G01X15116741Y1939109D01*
G01X15128171Y1956127D01*
G01X15133759Y1984829D01*
G01X15133759Y2001847D01*
G01X15128171Y2030549D01*
G01X15116741Y2047567D01*
G01X15099469Y2053409D01*
G01X15088039Y2053409D01*
G01X15215801Y2053409D02*
G01X15198783Y2047567D01*
G01X15187353Y2030549D01*
G01X15181511Y2001847D01*
G01X15181511Y1984829D01*
G01X15187353Y1956127D01*
G01X15198783Y1939109D01*
G01X15215801Y1933267D01*
G01X15227231Y1933267D01*
G01X15244503Y1939109D01*
G01X15255933Y1956127D01*
G01X15261521Y1984829D01*
G01X15261521Y2001847D01*
G01X15255933Y2030549D01*
G01X15244503Y2047567D01*
G01X15227231Y2053409D01*
G01X15215801Y2053409D01*
G01X15309273Y2013277D02*
G01X15309273Y1933267D01*
G01X15309273Y1990417D02*
G01X15326545Y2007689D01*
G01X15337975Y2013277D01*
G01X15354993Y2013277D01*
G01X15366423Y2007689D01*
G01X15372265Y1990417D01*
G01X15372265Y1933267D01*
G01X15372265Y1990417D02*
G01X15389283Y2007689D01*
G01X15400713Y2013277D01*
G01X15417985Y2013277D01*
G01X15429415Y2007689D01*
G01X15435003Y1990417D01*
G01X15435003Y1933267D01*
G01X15482755Y2013277D02*
G01X15482755Y1933267D01*
G01X15482755Y1990417D02*
G01X15500027Y2007689D01*
G01X15511457Y2013277D01*
G01X15528475Y2013277D01*
G01X15539905Y2007689D01*
G01X15545747Y1990417D01*
G01X15545747Y1933267D01*
G01X15545747Y1990417D02*
G01X15562765Y2007689D01*
G01X15574195Y2013277D01*
G01X15591467Y2013277D01*
G01X15602897Y2007689D01*
G01X15608485Y1990417D01*
G01X15608485Y1933267D01*
G01X15656237Y2076269D02*
G01X15667667Y2064839D01*
G01X15679097Y2047567D01*
G01X15690527Y2024707D01*
G01X15696369Y1996259D01*
G01X15696369Y1973399D01*
G01X15690527Y1944697D01*
G01X15679097Y1921837D01*
G01X15667667Y1904819D01*
G01X15656237Y1893389D01*
G01X16690163Y2053409D02*
G01X16690163Y1933267D01*
G01X16690163Y2053409D02*
G01X16741725Y2053409D01*
G01X16758743Y2047567D01*
G01X16764585Y2041979D01*
G01X16770173Y2030549D01*
G01X16770173Y2013277D01*
G01X16764585Y2001847D01*
G01X16758743Y1996259D01*
G01X16741725Y1990417D01*
G01X16690163Y1990417D01*
G01X16858057Y2053409D02*
G01X16858057Y1933267D01*
G01X16817925Y2053409D02*
G01X16897935Y2053409D01*
G01X16945687Y2053409D02*
G01X16945687Y1933267D01*
G01X17025697Y2053409D02*
G01X17025697Y1933267D01*
G01X16945687Y1996259D02*
G01X17025697Y1996259D01*
G01X18151570Y2053409D02*
G01X18151570Y1933267D01*
G01X18151570Y2053409D02*
G01X18203132Y2053409D01*
G01X18220150Y2047567D01*
G01X18225992Y2041979D01*
G01X18231580Y2030549D01*
G01X18231580Y2019119D01*
G01X18225992Y2007689D01*
G01X18220150Y2001847D01*
G01X18203132Y1996259D01*
G01X18151570Y1996259D01*
G01X18191702Y1996259D02*
G01X18231580Y1933267D01*
G01X18308034Y2013277D02*
G01X18296604Y2007689D01*
G01X18285174Y1996259D01*
G01X18279332Y1978987D01*
G01X18279332Y1967557D01*
G01X18285174Y1950539D01*
G01X18296604Y1939109D01*
G01X18308034Y1933267D01*
G01X18325052Y1933267D01*
G01X18336482Y1939109D01*
G01X18347912Y1950539D01*
G01X18353754Y1967557D01*
G01X18353754Y1978987D01*
G01X18347912Y1996259D01*
G01X18336482Y2007689D01*
G01X18325052Y2013277D01*
G01X18308034Y2013277D01*
G01X18401506Y2013277D02*
G01X18401506Y1956127D01*
G01X18407348Y1939109D01*
G01X18418778Y1933267D01*
G01X18435796Y1933267D01*
G01X18447226Y1939109D01*
G01X18464498Y1956127D01*
G01X18464498Y2013277D02*
G01X18464498Y1933267D01*
G01X18512250Y2013277D02*
G01X18512250Y1933267D01*
G01X18512250Y1990417D02*
G01X18529522Y2007689D01*
G01X18540952Y2013277D01*
G01X18557970Y2013277D01*
G01X18569400Y2007689D01*
G01X18575242Y1990417D01*
G01X18575242Y1933267D01*
G01X18691574Y2053409D02*
G01X18691574Y1933267D01*
G01X18691574Y1996259D02*
G01X18680144Y2007689D01*
G01X18668714Y2013277D01*
G01X18651696Y2013277D01*
G01X18640266Y2007689D01*
G01X18628836Y1996259D01*
G01X18622994Y1978987D01*
G01X18622994Y1967557D01*
G01X18628836Y1950539D01*
G01X18640266Y1939109D01*
G01X18651696Y1933267D01*
G01X18668714Y1933267D01*
G01X18680144Y1939109D01*
G01X18691574Y1950539D01*
G01X19582751Y2053409D02*
G01X19582751Y1933267D01*
G01X19582751Y2053409D02*
G01X19634313Y2053409D01*
G01X19651331Y2047567D01*
G01X19657173Y2041979D01*
G01X19662761Y2030549D01*
G01X19662761Y2013277D01*
G01X19657173Y2001847D01*
G01X19651331Y1996259D01*
G01X19634313Y1990417D01*
G01X19582751Y1990417D01*
G01X19779093Y2013277D02*
G01X19779093Y1933267D01*
G01X19779093Y1996259D02*
G01X19767663Y2007689D01*
G01X19756233Y2013277D01*
G01X19739215Y2013277D01*
G01X19727785Y2007689D01*
G01X19716355Y1996259D01*
G01X19710513Y1978987D01*
G01X19710513Y1967557D01*
G01X19716355Y1950539D01*
G01X19727785Y1939109D01*
G01X19739215Y1933267D01*
G01X19756233Y1933267D01*
G01X19767663Y1939109D01*
G01X19779093Y1950539D01*
G01X19895425Y2053409D02*
G01X19895425Y1933267D01*
G01X19895425Y1996259D02*
G01X19883995Y2007689D01*
G01X19872565Y2013277D01*
G01X19855547Y2013277D01*
G01X19844117Y2007689D01*
G01X19832687Y1996259D01*
G01X19826845Y1978987D01*
G01X19826845Y1967557D01*
G01X19832687Y1950539D01*
G01X19844117Y1939109D01*
G01X19855547Y1933267D01*
G01X19872565Y1933267D01*
G01X19883995Y1939109D01*
G01X19895425Y1950539D01*
G01X21292062Y2076269D02*
G01X21280632Y2064839D01*
G01X21269202Y2047567D01*
G01X21257772Y2024707D01*
G01X21251930Y1996259D01*
G01X21251930Y1973399D01*
G01X21257772Y1944697D01*
G01X21269202Y1921837D01*
G01X21280632Y1904819D01*
G01X21292062Y1893389D01*
G01X21339814Y2053409D02*
G01X21339814Y1933267D01*
G01X21339814Y2053409D02*
G01X21385534Y1933267D01*
G01X21431254Y2053409D02*
G01X21385534Y1933267D01*
G01X21431254Y2053409D02*
G01X21431254Y1933267D01*
G01X21479006Y2053409D02*
G01X21484848Y2047567D01*
G01X21490436Y2053409D01*
G01X21484848Y2058997D01*
G01X21479006Y2053409D01*
G01X21484848Y2013277D02*
G01X21484848Y1933267D01*
G01X21538188Y2013277D02*
G01X21601180Y1933267D01*
G01X21601180Y2013277D02*
G01X21538188Y1933267D01*
G01X21648932Y1978987D02*
G01X21717512Y1978987D01*
G01X21717512Y1990417D01*
G01X21711924Y2001847D01*
G01X21706082Y2007689D01*
G01X21694652Y2013277D01*
G01X21677634Y2013277D01*
G01X21666204Y2007689D01*
G01X21654774Y1996259D01*
G01X21648932Y1978987D01*
G01X21648932Y1967557D01*
G01X21654774Y1950539D01*
G01X21666204Y1939109D01*
G01X21677634Y1933267D01*
G01X21694652Y1933267D01*
G01X21706082Y1939109D01*
G01X21717512Y1950539D01*
G01X21833844Y2053409D02*
G01X21833844Y1933267D01*
G01X21833844Y1996259D02*
G01X21822414Y2007689D01*
G01X21810984Y2013277D01*
G01X21793966Y2013277D01*
G01X21782536Y2007689D01*
G01X21771106Y1996259D01*
G01X21765264Y1978987D01*
G01X21765264Y1967557D01*
G01X21771106Y1950539D01*
G01X21782536Y1939109D01*
G01X21793966Y1933267D01*
G01X21810984Y1933267D01*
G01X21822414Y1939109D01*
G01X21833844Y1950539D01*
G01X21881596Y2076269D02*
G01X21893026Y2064839D01*
G01X21904456Y2047567D01*
G01X21915886Y2024707D01*
G01X21921728Y1996259D01*
G01X21921728Y1973399D01*
G01X21915886Y1944697D01*
G01X21904456Y1921837D01*
G01X21893026Y1904819D01*
G01X21881596Y1893389D01*
G01X23211431Y2053409D02*
G01X23211431Y1933267D01*
G01X23171299Y2053409D02*
G01X23251309Y2053409D01*
G01X23327763Y2013277D02*
G01X23316333Y2007689D01*
G01X23304903Y1996259D01*
G01X23299061Y1978987D01*
G01X23299061Y1967557D01*
G01X23304903Y1950539D01*
G01X23316333Y1939109D01*
G01X23327763Y1933267D01*
G01X23344781Y1933267D01*
G01X23356211Y1939109D01*
G01X23367641Y1950539D01*
G01X23373483Y1967557D01*
G01X23373483Y1978987D01*
G01X23367641Y1996259D01*
G01X23356211Y2007689D01*
G01X23344781Y2013277D01*
G01X23327763Y2013277D01*
G01X23421235Y2013277D02*
G01X23421235Y1893389D01*
G01X23421235Y1996259D02*
G01X23432665Y2007689D01*
G01X23444095Y2013277D01*
G01X23461367Y2013277D01*
G01X23472797Y2007689D01*
G01X23484227Y1996259D01*
G01X23489815Y1978987D01*
G01X23489815Y1967557D01*
G01X23484227Y1950539D01*
G01X23472797Y1939109D01*
G01X23461367Y1933267D01*
G01X23444095Y1933267D01*
G01X23432665Y1939109D01*
G01X23421235Y1950539D01*
G01X23665583Y2053409D02*
G01X23665583Y1933267D01*
G01X23665583Y1933267D02*
G01X23734163Y1933267D01*
G01X23850495Y2013277D02*
G01X23850495Y1933267D01*
G01X23850495Y1996259D02*
G01X23839065Y2007689D01*
G01X23827635Y2013277D01*
G01X23810617Y2013277D01*
G01X23799187Y2007689D01*
G01X23787757Y1996259D01*
G01X23781915Y1978987D01*
G01X23781915Y1967557D01*
G01X23787757Y1950539D01*
G01X23799187Y1939109D01*
G01X23810617Y1933267D01*
G01X23827635Y1933267D01*
G01X23839065Y1939109D01*
G01X23850495Y1950539D01*
G01X23904089Y2013277D02*
G01X23938379Y1933267D01*
G01X23972669Y2013277D02*
G01X23938379Y1933267D01*
G01X23926949Y1910407D01*
G01X23915519Y1898977D01*
G01X23904089Y1893389D01*
G01X23898247Y1893389D01*
G01X24020421Y1978987D02*
G01X24089001Y1978987D01*
G01X24089001Y1990417D01*
G01X24083413Y2001847D01*
G01X24077571Y2007689D01*
G01X24066141Y2013277D01*
G01X24049123Y2013277D01*
G01X24037693Y2007689D01*
G01X24026263Y1996259D01*
G01X24020421Y1978987D01*
G01X24020421Y1967557D01*
G01X24026263Y1950539D01*
G01X24037693Y1939109D01*
G01X24049123Y1933267D01*
G01X24066141Y1933267D01*
G01X24077571Y1939109D01*
G01X24089001Y1950539D01*
G01X24136753Y2013277D02*
G01X24136753Y1933267D01*
G01X24136753Y1978987D02*
G01X24142595Y1996259D01*
G01X24154025Y2007689D01*
G01X24165455Y2013277D01*
G01X24182473Y2013277D01*
G01X24230225Y1984829D02*
G01X24333095Y1984829D01*
G01X24380847Y2053409D02*
G01X24380847Y1933267D01*
G01X24380847Y2053409D02*
G01X24432409Y2053409D01*
G01X24449427Y2047567D01*
G01X24455269Y2041979D01*
G01X24460857Y2030549D01*
G01X24460857Y2019119D01*
G01X24455269Y2007689D01*
G01X24449427Y2001847D01*
G01X24432409Y1996259D01*
G01X24380847Y1996259D02*
G01X24432409Y1996259D01*
G01X24449427Y1990417D01*
G01X24455269Y1984829D01*
G01X24460857Y1973399D01*
G01X24460857Y1956127D01*
G01X24455269Y1944697D01*
G01X24449427Y1939109D01*
G01X24432409Y1933267D01*
G01X24380847Y1933267D01*
G01X24537311Y2013277D02*
G01X24525881Y2007689D01*
G01X24514451Y1996259D01*
G01X24508609Y1978987D01*
G01X24508609Y1967557D01*
G01X24514451Y1950539D01*
G01X24525881Y1939109D01*
G01X24537311Y1933267D01*
G01X24554329Y1933267D01*
G01X24565759Y1939109D01*
G01X24577189Y1950539D01*
G01X24583031Y1967557D01*
G01X24583031Y1978987D01*
G01X24577189Y1996259D01*
G01X24565759Y2007689D01*
G01X24554329Y2013277D01*
G01X24537311Y2013277D01*
G01X24648055Y2053409D02*
G01X24648055Y1956127D01*
G01X24653643Y1939109D01*
G01X24665073Y1933267D01*
G01X24676503Y1933267D01*
G01X24630783Y2013277D02*
G01X24670915Y2013277D01*
G01X24741527Y2053409D02*
G01X24741527Y1956127D01*
G01X24747115Y1939109D01*
G01X24758545Y1933267D01*
G01X24769975Y1933267D01*
G01X24724255Y2013277D02*
G01X24764387Y2013277D01*
G01X24846429Y2013277D02*
G01X24834999Y2007689D01*
G01X24823569Y1996259D01*
G01X24817727Y1978987D01*
G01X24817727Y1967557D01*
G01X24823569Y1950539D01*
G01X24834999Y1939109D01*
G01X24846429Y1933267D01*
G01X24863447Y1933267D01*
G01X24874877Y1939109D01*
G01X24886307Y1950539D01*
G01X24892149Y1967557D01*
G01X24892149Y1978987D01*
G01X24886307Y1996259D01*
G01X24874877Y2007689D01*
G01X24863447Y2013277D01*
G01X24846429Y2013277D01*
G01X24939901Y2013277D02*
G01X24939901Y1933267D01*
G01X24939901Y1990417D02*
G01X24957173Y2007689D01*
G01X24968603Y2013277D01*
G01X24985621Y2013277D01*
G01X24997051Y2007689D01*
G01X25002893Y1990417D01*
G01X25002893Y1933267D01*
G01X25002893Y1990417D02*
G01X25019911Y2007689D01*
G01X25031341Y2013277D01*
G01X25048613Y2013277D01*
G01X25060043Y2007689D01*
G01X25065631Y1990417D01*
G01X25065631Y1933267D01*
G01X25241399Y2053409D02*
G01X25241399Y1933267D01*
G01X25241399Y1933267D02*
G01X25309979Y1933267D01*
G01X25426311Y2013277D02*
G01X25426311Y1933267D01*
G01X25426311Y1996259D02*
G01X25414881Y2007689D01*
G01X25403451Y2013277D01*
G01X25386433Y2013277D01*
G01X25375003Y2007689D01*
G01X25363573Y1996259D01*
G01X25357731Y1978987D01*
G01X25357731Y1967557D01*
G01X25363573Y1950539D01*
G01X25375003Y1939109D01*
G01X25386433Y1933267D01*
G01X25403451Y1933267D01*
G01X25414881Y1939109D01*
G01X25426311Y1950539D01*
G01X25479905Y2013277D02*
G01X25514195Y1933267D01*
G01X25548485Y2013277D02*
G01X25514195Y1933267D01*
G01X25502765Y1910407D01*
G01X25491335Y1898977D01*
G01X25479905Y1893389D01*
G01X25474063Y1893389D01*
G01X25596237Y1978987D02*
G01X25664817Y1978987D01*
G01X25664817Y1990417D01*
G01X25659229Y2001847D01*
G01X25653387Y2007689D01*
G01X25641957Y2013277D01*
G01X25624939Y2013277D01*
G01X25613509Y2007689D01*
G01X25602079Y1996259D01*
G01X25596237Y1978987D01*
G01X25596237Y1967557D01*
G01X25602079Y1950539D01*
G01X25613509Y1939109D01*
G01X25624939Y1933267D01*
G01X25641957Y1933267D01*
G01X25653387Y1939109D01*
G01X25664817Y1950539D01*
G01X25712569Y2013277D02*
G01X25712569Y1933267D01*
G01X25712569Y1978987D02*
G01X25718411Y1996259D01*
G01X25729841Y2007689D01*
G01X25741271Y2013277D01*
G01X25758289Y2013277D01*

G04 Image Start*
G36*
G01X10308863Y1872796D02*
G01X10203249Y1884277D01*
G01X10160374Y1787071D01*
G01X10117499Y1884277D01*
G01X10011886Y1872796D01*
G01X10074649Y1958521D01*
G01X10034927Y2012776D01*
G01X10066420Y2012776D01*
G01X10106120Y1958521D01*
G01X10066420Y1904267D01*
G01X10133247Y1911531D01*
G01X10133247Y1911531D01*
G01X10160374Y1850038D01*
G01X10187501Y1911531D01*
G01X10254329Y1904267D01*
G01X10214629Y1958521D01*
G01X10254303Y2012750D01*
G01X10187476Y2005486D01*
G01X10160374Y2067005D01*
G01X10133247Y2005511D01*
G01X10066420Y2012776D01*
G01X10034927Y2012776D01*
G01X10011886Y2044246D01*
G01X10117524Y2032766D01*
G01X10160374Y2129971D01*
G01X10203249Y2032766D01*
G01X10308863Y2044246D01*
G01X10246099Y1958521D01*
G01X10308863Y1872796D01*
G37*
G36*
G01X10179869Y2987101D02*
G01X10172129Y2986513D01*
G01X10164286Y2986314D01*
G01X10156443Y2986513D01*
G01X10148702Y2987101D01*
G01X10141075Y2988070D01*
G01X10133570Y2989410D01*
G01X10118964Y2993165D01*
G01X10104962Y2998290D01*
G01X10091640Y3004707D01*
G01X10079074Y3012340D01*
G01X10067342Y3021113D01*
G01X10056520Y3030948D01*
G01X10046684Y3041771D01*
G01X10037911Y3053503D01*
G01X10030278Y3066068D01*
G01X10023861Y3079390D01*
G01X10018737Y3093392D01*
G01X10014982Y3107998D01*
G01X10013642Y3115504D01*
G01X10012672Y3123131D01*
G01X10012084Y3130871D01*
G01X10011886Y3138714D01*
G01X10037286Y3138714D01*
G01X10037943Y3125748D01*
G01X10039870Y3113152D01*
G01X10043005Y3100990D01*
G01X10047282Y3089328D01*
G01X10052637Y3078228D01*
G01X10059005Y3067757D01*
G01X10066323Y3057977D01*
G01X10074525Y3048954D01*
G01X10083549Y3040751D01*
G01X10093328Y3033434D01*
G01X10103800Y3027065D01*
G01X10114899Y3021710D01*
G01X10126562Y3017434D01*
G01X10138723Y3014299D01*
G01X10138723Y3014299D01*
G01X10151319Y3012371D01*
G01X10164286Y3011714D01*
G01X10177252Y3012371D01*
G01X10189848Y3014299D01*
G01X10202010Y3017434D01*
G01X10213672Y3021710D01*
G01X10224772Y3027065D01*
G01X10235243Y3033434D01*
G01X10245023Y3040751D01*
G01X10254046Y3048954D01*
G01X10262249Y3057977D01*
G01X10269566Y3067757D01*
G01X10275935Y3078228D01*
G01X10281290Y3089328D01*
G01X10285566Y3100990D01*
G01X10288701Y3113152D01*
G01X10290629Y3125748D01*
G01X10291286Y3138714D01*
G01X10290629Y3151681D01*
G01X10288701Y3164277D01*
G01X10285566Y3176438D01*
G01X10281290Y3188101D01*
G01X10275935Y3199200D01*
G01X10269566Y3209672D01*
G01X10262249Y3219451D01*
G01X10254046Y3228475D01*
G01X10245023Y3236677D01*
G01X10235243Y3243995D01*
G01X10224772Y3250363D01*
G01X10213672Y3255718D01*
G01X10202010Y3259995D01*
G01X10189848Y3263129D01*
G01X10177252Y3265057D01*
G01X10164286Y3265714D01*
G01X10151319Y3265057D01*
G01X10138723Y3263129D01*
G01X10126562Y3259995D01*
G01X10114899Y3255718D01*
G01X10103800Y3250363D01*
G01X10093328Y3243995D01*
G01X10083549Y3236677D01*
G01X10074525Y3228475D01*
G01X10066323Y3219451D01*
G01X10059005Y3209672D01*
G01X10052637Y3199200D01*
G01X10047282Y3188101D01*
G01X10043005Y3176438D01*
G01X10039870Y3164277D01*
G01X10037943Y3151681D01*
G01X10037286Y3138714D01*
G01X10011886Y3138714D01*
G01X10012084Y3146557D01*
G01X10012672Y3154298D01*
G01X10013642Y3161925D01*
G01X10014982Y3169430D01*
G01X10018737Y3184036D01*
G01X10023861Y3198038D01*
G01X10030278Y3211360D01*
G01X10037911Y3223926D01*
G01X10046684Y3235658D01*
G01X10056520Y3246480D01*
G01X10067342Y3256316D01*
G01X10079074Y3265089D01*
G01X10091640Y3272722D01*
G01X10104962Y3279139D01*
G01X10118964Y3284263D01*
G01X10133570Y3288018D01*
G01X10141075Y3289358D01*
G01X10148702Y3290328D01*
G01X10156443Y3290916D01*
G01X10164286Y3291114D01*
G01X10172129Y3290916D01*
G01X10179869Y3290328D01*
G01X10187496Y3289358D01*
G01X10195002Y3288018D01*
G01X10209608Y3284263D01*
G01X10223610Y3279139D01*
G01X10236932Y3272722D01*
G01X10249497Y3265089D01*
G01X10261229Y3256316D01*
G01X10272052Y3246480D01*
G01X10281887Y3235658D01*
G01X10290660Y3223926D01*
G01X10298293Y3211360D01*
G01X10304710Y3198038D01*
G01X10309835Y3184036D01*
G01X10313590Y3169430D01*
G01X10314930Y3161925D01*
G01X10315899Y3154298D01*
G01X10316487Y3146557D01*
G01X10316686Y3138714D01*
G01X10316487Y3130871D01*
G01X10315899Y3123131D01*
G01X10314930Y3115504D01*
G01X10313590Y3107998D01*
G01X10309835Y3093392D01*
G01X10304710Y3079390D01*
G01X10298293Y3066068D01*
G01X10290660Y3053503D01*
G01X10281887Y3041771D01*
G01X10272052Y3030948D01*
G01X10261229Y3021113D01*
G01X10249497Y3012340D01*
G01X10236932Y3004707D01*
G01X10223610Y2998290D01*
G01X10209608Y2993165D01*
G01X10195002Y2989410D01*
G01X10187496Y2988070D01*
G01X10179869Y2987101D01*
G37*
G36*
G01X10011886Y2710543D02*
G01X10316686Y2710543D01*
G01X10164286Y2446586D01*
G01X10026551Y2685143D01*
G01X10055879Y2685143D01*
G01X10164286Y2497386D01*
G01X10272693Y2685143D01*
G01X10272693Y2685143D01*
G01X10055879Y2685143D01*
G01X10026551Y2685143D01*
G01X10011886Y2710543D01*
G37*
G36*
G01X10011886Y3871686D02*
G01X10291286Y3871686D01*
G01X10291286Y3592286D01*
G01X10011886Y3592286D01*
G01X10011886Y3846286D01*
G01X10037286Y3846286D01*
G01X10037286Y3617686D01*
G01X10265886Y3617686D01*
G01X10265886Y3846286D01*
G01X10265886Y3846286D01*
G01X10037286Y3846286D01*
G01X10011886Y3846286D01*
G01X10011886Y3871686D01*
G37*

G04 PolygonModel Start*
G54D15*
G01X9721600Y1694543D02*
G01X26349021Y1694543D01*
G01X9721600Y2275114D02*
G01X26349021Y2275114D01*
G01X9721600Y2855686D02*
G01X26349021Y2855686D01*
G01X9721600Y3436257D02*
G01X26349021Y3436257D01*
G01X9721600Y4016829D02*
G01X26349021Y4016829D01*
G01X9721600Y4597400D02*
G01X26349021Y4597400D01*
G01X9721600Y4597400D02*
G01X9721600Y1719943D01*
G01X11173029Y4597400D02*
G01X11173029Y1719943D01*
G01X12587192Y4597400D02*
G01X12587192Y1719943D01*
G01X16389717Y4597400D02*
G01X16389717Y1719943D01*
G01X17851124Y4597400D02*
G01X17851124Y1719943D01*
G01X19282305Y4597400D02*
G01X19282305Y1719943D01*
G01X20951484Y4597400D02*
G01X20951484Y1719943D01*
G01X22870853Y4597400D02*
G01X22870853Y1719943D01*
G01X26349021Y4597400D02*
G01X26349021Y1719943D01*

M02*

