G04 Layer: TopPasteMaskLayer*
G04 EasyEDA Pro v3.2.148, 2026-06-08 07:05:24*
G04 Gerber Generator version 0.3*
G04 Scale: 100 percent, Rotated: No, Reflected: No*
G04 Dimensions in millimeters*
G04 Leading zeros omitted, absolute positions, 4 integers and 5 decimals*
G04 Generated by one-click*
G04 Object Configs: Pad,Via,Track,Text,Image,Dimension,BoardOutline,BoardCutout,CopperFilled,SolidRegion,FPCStiffener,Line,PlaneZone,ComponentProperty,ComponentSilkscreen,TearDrop*
G04 Layer Configs: 1,15,16,2,3,4,5,6,7,8,9,10,11,13,14,56*
G04 Copper Areas: 0*
%FSLAX45Y45*%
%MOMM*%
%ADD10R,3.49999X1.2*%
%ADD11R,0.95001X1.15001*%
%ADD12R,1.07X0.6*%
%ADD13R,0.6X1.07*%
%ADD14C,0.1533*%
G75*


G04 PolygonModel Start*
G36*
G01X3114291Y1022891D02*
G01X3077266Y1022891D01*
G01X3067266Y1032891D01*
G01X3067266Y1063381D01*
G01X3057266Y1073381D01*
G01X3018516Y1073381D01*
G01X3008516Y1063381D01*
G01X3008516Y1032891D01*
G01X2998516Y1022891D01*
G01X2961490Y1022891D01*
G01X2951490Y1032891D01*
G01X2951490Y1161390D01*
G01X2961490Y1171390D01*
G01X3114291Y1171390D01*
G01X3124291Y1161390D01*
G01X3124291Y1032891D01*
G01X3114291Y1022891D01*
G37*
G36*
G01X3114291Y852889D02*
G01X3124291Y842889D01*
G01X3124291Y714390D01*
G01X3114291Y704390D01*
G01X2961490Y704390D01*
G01X2951490Y714390D01*
G01X2951490Y842889D01*
G01X2961490Y852889D01*
G01X2998516Y852889D01*
G01X3008516Y842889D01*
G01X3008516Y812399D01*
G01X3018516Y802399D01*
G01X3057266Y802399D01*
G01X3067266Y812399D01*
G01X3067266Y842889D01*
G01X3077266Y852889D01*
G01X3114291Y852889D01*
G37*
G36*
G01X2466950Y1157750D02*
G01X2466950Y1085977D01*
G01X2456950Y1075977D01*
G01X2426459Y1075977D01*
G01X2416459Y1065977D01*
G01X2416459Y991423D01*
G01X2426459Y981423D01*
G01X2456950Y981423D01*
G01X2466950Y971423D01*
G01X2466950Y899650D01*
G01X2456950Y889650D01*
G01X2328451Y889650D01*
G01X2318451Y899650D01*
G01X2318451Y1157750D01*
G01X2328451Y1167750D01*
G01X2456950Y1167750D01*
G01X2466950Y1157750D01*
G37*
G36*
G01X2638450Y1157750D02*
G01X2648450Y1167750D01*
G01X2776949Y1167750D01*
G01X2786949Y1157750D01*
G01X2786949Y899650D01*
G01X2776949Y889650D01*
G01X2648450Y889650D01*
G01X2638450Y899650D01*
G01X2638450Y971423D01*
G01X2648450Y981423D01*
G01X2678941Y981423D01*
G01X2688941Y991423D01*
G01X2688941Y1065977D01*
G01X2678941Y1075977D01*
G01X2648450Y1075977D01*
G01X2638450Y1085977D01*
G01X2638450Y1157750D01*
G37*
G36*
G01X235659Y917359D02*
G01X198633Y917359D01*
G01X188633Y927359D01*
G01X188633Y957849D01*
G01X178633Y967849D01*
G01X139883Y967849D01*
G01X129883Y957849D01*
G01X129883Y927359D01*
G01X119883Y917359D01*
G01X82857Y917359D01*
G01X72857Y927359D01*
G01X72857Y1055858D01*
G01X82857Y1065858D01*
G01X235659Y1065858D01*
G01X245659Y1055858D01*
G01X245659Y927359D01*
G01X235659Y917359D01*
G37*
G36*
G01X235659Y747357D02*
G01X245659Y737357D01*
G01X245659Y608858D01*
G01X235659Y598858D01*
G01X82857Y598858D01*
G01X72857Y608858D01*
G01X72857Y737357D01*
G01X82857Y747357D01*
G01X119883Y747357D01*
G01X129883Y737357D01*
G01X129883Y706867D01*
G01X139883Y696867D01*
G01X178633Y696867D01*
G01X188633Y706867D01*
G01X188633Y737357D01*
G01X198633Y747357D01*
G01X235659Y747357D01*
G37*
G36*
G01X-788179Y759950D02*
G01X-751153Y759950D01*
G01X-741153Y749950D01*
G01X-741153Y719460D01*
G01X-731153Y709460D01*
G01X-692403Y709460D01*
G01X-682403Y719460D01*
G01X-682403Y749950D01*
G01X-672403Y759950D01*
G01X-635377Y759950D01*
G01X-625377Y749950D01*
G01X-625377Y621452D01*
G01X-635377Y611452D01*
G01X-788179Y611452D01*
G01X-798178Y621452D01*
G01X-798178Y749950D01*
G01X-788179Y759950D01*
G37*
G36*
G01X-788179Y929952D02*
G01X-798178Y939952D01*
G01X-798178Y1068451D01*
G01X-788179Y1078451D01*
G01X-635377Y1078451D01*
G01X-625377Y1068451D01*
G01X-625377Y939952D01*
G01X-635377Y929952D01*
G01X-672403Y929952D01*
G01X-682403Y939952D01*
G01X-682403Y970443D01*
G01X-692403Y980443D01*
G01X-731153Y980443D01*
G01X-741153Y970443D01*
G01X-741153Y939952D01*
G01X-751153Y929952D01*
G01X-788179Y929952D01*
G37*
G36*
G01X813001Y3031401D02*
G01X775975Y3031401D01*
G01X765975Y3041401D01*
G01X765975Y3071891D01*
G01X755975Y3081891D01*
G01X717225Y3081891D01*
G01X707225Y3071891D01*
G01X707225Y3041401D01*
G01X697225Y3031401D01*
G01X660199Y3031401D01*
G01X650199Y3041401D01*
G01X650199Y3169900D01*
G01X660199Y3179900D01*
G01X813001Y3179900D01*
G01X823001Y3169900D01*
G01X823001Y3041401D01*
G01X813001Y3031401D01*
G37*
G36*
G01X813001Y2861399D02*
G01X823001Y2851399D01*
G01X823001Y2722900D01*
G01X813001Y2712900D01*
G01X660199Y2712900D01*
G01X650199Y2722900D01*
G01X650199Y2851399D01*
G01X660199Y2861399D01*
G01X697225Y2861399D01*
G01X707225Y2851399D01*
G01X707225Y2820909D01*
G01X717225Y2810909D01*
G01X755975Y2810909D01*
G01X765975Y2820909D01*
G01X765975Y2851399D01*
G01X775975Y2861399D01*
G01X813001Y2861399D01*
G37*
G36*
G01X393499Y2861399D02*
G01X430525Y2861399D01*
G01X440525Y2851399D01*
G01X440525Y2820909D01*
G01X450525Y2810909D01*
G01X489275Y2810909D01*
G01X499275Y2820909D01*
G01X499275Y2851399D01*
G01X509275Y2861399D01*
G01X546301Y2861399D01*
G01X556301Y2851399D01*
G01X556301Y2722900D01*
G01X546301Y2712900D01*
G01X393499Y2712900D01*
G01X383499Y2722900D01*
G01X383499Y2851399D01*
G01X393499Y2861399D01*
G37*
G36*
G01X393499Y3031401D02*
G01X383499Y3041401D01*
G01X383499Y3169900D01*
G01X393499Y3179900D01*
G01X546301Y3179900D01*
G01X556301Y3169900D01*
G01X556301Y3041401D01*
G01X546301Y3031401D01*
G01X509275Y3031401D01*
G01X499275Y3041401D01*
G01X499275Y3071891D01*
G01X489275Y3081891D01*
G01X450525Y3081891D01*
G01X440525Y3071891D01*
G01X440525Y3041401D01*
G01X430525Y3031401D01*
G01X393499Y3031401D01*
G37*
G36*
G01X2901612Y2834057D02*
G01X2938638Y2834057D01*
G01X2948638Y2824057D01*
G01X2948638Y2793567D01*
G01X2958638Y2783567D01*
G01X2997388Y2783567D01*
G01X3007388Y2793567D01*
G01X3007388Y2824057D01*
G01X3017388Y2834057D01*
G01X3054414Y2834057D01*
G01X3064413Y2824057D01*
G01X3064413Y2695558D01*
G01X3054414Y2685559D01*
G01X2901612Y2685559D01*
G01X2891612Y2695558D01*
G01X2891612Y2824057D01*
G01X2901612Y2834057D01*
G37*
G36*
G01X2901612Y3004059D02*
G01X2891612Y3014059D01*
G01X2891612Y3142558D01*
G01X2901612Y3152558D01*
G01X3054414Y3152558D01*
G01X3064413Y3142558D01*
G01X3064413Y3014059D01*
G01X3054414Y3004059D01*
G01X3017388Y3004059D01*
G01X3007388Y3014059D01*
G01X3007388Y3044549D01*
G01X2997388Y3054549D01*
G01X2958638Y3054549D01*
G01X2948638Y3044549D01*
G01X2948638Y3014059D01*
G01X2938638Y3004059D01*
G01X2901612Y3004059D01*
G37*
G36*
G01X2651412Y2834057D02*
G01X2688438Y2834057D01*
G01X2698438Y2824057D01*
G01X2698438Y2793567D01*
G01X2708438Y2783567D01*
G01X2747188Y2783567D01*
G01X2757188Y2793567D01*
G01X2757188Y2824057D01*
G01X2767188Y2834057D01*
G01X2804213Y2834057D01*
G01X2814213Y2824057D01*
G01X2814213Y2695558D01*
G01X2804213Y2685559D01*
G01X2651412Y2685559D01*
G01X2641412Y2695558D01*
G01X2641412Y2824057D01*
G01X2651412Y2834057D01*
G37*
G36*
G01X2651412Y3004059D02*
G01X2641412Y3014059D01*
G01X2641412Y3142558D01*
G01X2651412Y3152558D01*
G01X2804213Y3152558D01*
G01X2814213Y3142558D01*
G01X2814213Y3014059D01*
G01X2804213Y3004059D01*
G01X2767188Y3004059D01*
G01X2757188Y3014059D01*
G01X2757188Y3044549D01*
G01X2747188Y3054549D01*
G01X2708438Y3054549D01*
G01X2698438Y3044549D01*
G01X2698438Y3014059D01*
G01X2688438Y3004059D01*
G01X2651412Y3004059D01*
G37*
G36*
G01X5219499Y2839128D02*
G01X5256525Y2839128D01*
G01X5266525Y2829128D01*
G01X5266525Y2798638D01*
G01X5276525Y2788638D01*
G01X5315275Y2788638D01*
G01X5325275Y2798638D01*
G01X5325275Y2829128D01*
G01X5335275Y2839128D01*
G01X5372301Y2839128D01*
G01X5382301Y2829128D01*
G01X5382301Y2700630D01*
G01X5372301Y2690630D01*
G01X5219499Y2690630D01*
G01X5209499Y2700630D01*
G01X5209499Y2829128D01*
G01X5219499Y2839128D01*
G37*
G36*
G01X5219499Y3009130D02*
G01X5209499Y3019130D01*
G01X5209499Y3147629D01*
G01X5219499Y3157629D01*
G01X5372301Y3157629D01*
G01X5382301Y3147629D01*
G01X5382301Y3019130D01*
G01X5372301Y3009130D01*
G01X5335275Y3009130D01*
G01X5325275Y3019130D01*
G01X5325275Y3049621D01*
G01X5315275Y3059621D01*
G01X5276525Y3059621D01*
G01X5266525Y3049621D01*
G01X5266525Y3019130D01*
G01X5256525Y3009130D01*
G01X5219499Y3009130D01*
G37*
G36*
G01X4907841Y2839128D02*
G01X4944867Y2839128D01*
G01X4954867Y2829128D01*
G01X4954867Y2798638D01*
G01X4964867Y2788638D01*
G01X5003617Y2788638D01*
G01X5013617Y2798638D01*
G01X5013617Y2829128D01*
G01X5023617Y2839128D01*
G01X5060643Y2839128D01*
G01X5070643Y2829128D01*
G01X5070643Y2700630D01*
G01X5060643Y2690630D01*
G01X4907841Y2690630D01*
G01X4897841Y2700630D01*
G01X4897841Y2829128D01*
G01X4907841Y2839128D01*
G37*
G36*
G01X4907841Y3009130D02*
G01X4897841Y3019130D01*
G01X4897841Y3147629D01*
G01X4907841Y3157629D01*
G01X5060643Y3157629D01*
G01X5070643Y3147629D01*
G01X5070643Y3019130D01*
G01X5060643Y3009130D01*
G01X5023617Y3009130D01*
G01X5013617Y3019130D01*
G01X5013617Y3049621D01*
G01X5003617Y3059621D01*
G01X4964867Y3059621D01*
G01X4954867Y3049621D01*
G01X4954867Y3019130D01*
G01X4944867Y3009130D01*
G01X4907841Y3009130D01*
G37*
G36*
G01X7480099Y2826428D02*
G01X7517125Y2826428D01*
G01X7527125Y2816428D01*
G01X7527125Y2785938D01*
G01X7537125Y2775938D01*
G01X7575875Y2775938D01*
G01X7585875Y2785938D01*
G01X7585875Y2816428D01*
G01X7595875Y2826428D01*
G01X7632901Y2826428D01*
G01X7642901Y2816428D01*
G01X7642901Y2687930D01*
G01X7632901Y2677930D01*
G01X7480099Y2677930D01*
G01X7470099Y2687930D01*
G01X7470099Y2816428D01*
G01X7480099Y2826428D01*
G37*
G36*
G01X7480099Y2996430D02*
G01X7470099Y3006430D01*
G01X7470099Y3134929D01*
G01X7480099Y3144929D01*
G01X7632901Y3144929D01*
G01X7642901Y3134929D01*
G01X7642901Y3006430D01*
G01X7632901Y2996430D01*
G01X7595875Y2996430D01*
G01X7585875Y3006430D01*
G01X7585875Y3036921D01*
G01X7575875Y3046921D01*
G01X7537125Y3046921D01*
G01X7527125Y3036921D01*
G01X7527125Y3006430D01*
G01X7517125Y2996430D01*
G01X7480099Y2996430D01*
G37*
G36*
G01X7185312Y2826428D02*
G01X7222338Y2826428D01*
G01X7232338Y2816428D01*
G01X7232338Y2785938D01*
G01X7242338Y2775938D01*
G01X7281088Y2775938D01*
G01X7291088Y2785938D01*
G01X7291088Y2816428D01*
G01X7301088Y2826428D01*
G01X7338113Y2826428D01*
G01X7348113Y2816428D01*
G01X7348113Y2687930D01*
G01X7338113Y2677930D01*
G01X7185312Y2677930D01*
G01X7175312Y2687930D01*
G01X7175312Y2816428D01*
G01X7185312Y2826428D01*
G37*
G36*
G01X7185312Y2996430D02*
G01X7175312Y3006430D01*
G01X7175312Y3134929D01*
G01X7185312Y3144929D01*
G01X7338113Y3144929D01*
G01X7348113Y3134929D01*
G01X7348113Y3006430D01*
G01X7338113Y2996430D01*
G01X7301088Y2996430D01*
G01X7291088Y3006430D01*
G01X7291088Y3036921D01*
G01X7281088Y3046921D01*
G01X7242338Y3046921D01*
G01X7232338Y3036921D01*
G01X7232338Y3006430D01*
G01X7222338Y2996430D01*
G01X7185312Y2996430D01*
G37*

G04 Pad Start*
G54D10*
G01X3492208Y876300D03*
G01X4026192Y876300D03*
G54D11*
G01X1799260Y1143000D03*
G01X2137740Y1143000D03*
G54D12*
G01X397193Y3536696D03*
G01X397193Y3346704D03*
G01X644208Y3441700D03*
G01X2733993Y3536696D03*
G01X2733993Y3346704D03*
G01X2981008Y3441700D03*
G01X4994593Y3536696D03*
G01X4994593Y3346704D03*
G01X5241608Y3441700D03*
G01X7305993Y3523996D03*
G01X7305993Y3334004D03*
G01X7553008Y3429000D03*
G54D13*
G01X-159004Y999808D03*
G01X-348996Y999808D03*
G01X-254000Y752793D03*
G04 Pad End*

M02*

