G04 Layer: TopLayer*
G04 EasyEDA Pro v3.2.148, 2026-06-08 07:05:24*
G04 Gerber Generator version 0.3*
G04 Scale: 100 percent, Rotated: No, Reflected: No*
G04 Dimensions in millimeters*
G04 Leading zeros omitted, absolute positions, 4 integers and 5 decimals*
G04 Generated by one-click*
G04 Object Configs: Pad,Via,Track,Text,Image,Dimension,BoardOutline,BoardCutout,CopperFilled,SolidRegion,FPCStiffener,Line,PlaneZone,ComponentProperty,ComponentSilkscreen,TearDrop*
G04 Layer Configs: 1,15,16,2,3,4,5,6,7,8,9,10,11,13,14,56*
G04 Copper Areas: 0*
%FSLAX45Y45*%
%MOMM*%
%ADD10R,3.49999X1.2*%
%ADD11R,1.72799X1.48501*%
%ADD12R,0.95001X1.15001*%
%ADD13R,1.48501X2.781*%
%ADD14C,1.6*%
%ADD15R,1.6039X1.6*%
%ADD16R,1.6X1.6*%
%ADD17C,1.8*%
%ADD18C,1.7*%
%ADD19R,1.7X1.524*%
%ADD20R,1.07X0.6*%
%ADD21R,0.6X1.07*%
%ADD22C,0.61*%
%ADD23C,0.254*%
%ADD24C,0.45*%
%ADD25C,0.35*%
G75*


G04 Pad Start*
G54D10*
G01X3492208Y876300D03*
G01X4026192Y876300D03*
G54D11*
G01X3037891Y1097148D03*
G01X3037891Y778632D03*
G54D12*
G01X1799260Y1143000D03*
G01X2137740Y1143000D03*
G54D13*
G01X2392705Y1028700D03*
G01X2712695Y1028700D03*
G54D14*
G01X-1320800Y1955800D03*
G01X-1066800Y1955800D03*
G54D16*
G01X-1320800Y1701800D03*
G54D14*
G01X-1066800Y1701800D03*
G54D16*
G01X-1320800Y1447800D03*
G54D14*
G01X-1066800Y1447800D03*
G01X-1320800Y1193800D03*
G01X-1066800Y1193800D03*
G54D17*
G01X-1320800Y914400D03*
G01X-1066800Y914400D03*
G54D11*
G01X159258Y991616D03*
G01X159258Y673100D03*
G01X-711778Y685693D03*
G01X-711778Y1004209D03*
G54D18*
G01X5334000Y1676400D03*
G01X5334000Y1422400D03*
G01X5080000Y1676400D03*
G01X5080000Y1422400D03*
G01X4826000Y1676400D03*
G01X4826000Y1422400D03*
G01X4572000Y1676400D03*
G01X4572000Y1422400D03*
G01X4318000Y1676400D03*
G01X4318000Y1422400D03*
G01X4064000Y1676400D03*
G01X4064000Y1422400D03*
G01X3810000Y1676400D03*
G01X3810000Y1422400D03*
G01X3556000Y1676400D03*
G01X3556000Y1422400D03*
G01X3302000Y1676400D03*
G01X3302000Y1422400D03*
G01X3048000Y1676400D03*
G01X3048000Y1422400D03*
G01X2794000Y1676400D03*
G01X2794000Y1422400D03*
G01X2540000Y1676400D03*
G01X2540000Y1422400D03*
G01X2286000Y1676400D03*
G01X2286000Y1422400D03*
G01X2032000Y1676400D03*
G01X2032000Y1422400D03*
G01X1778000Y1676400D03*
G01X1778000Y1422400D03*
G01X1524000Y1676400D03*
G01X1524000Y1422400D03*
G01X1270000Y1676400D03*
G01X1270000Y1422400D03*
G01X1016000Y1676400D03*
G01X1016000Y1422400D03*
G01X762000Y1676400D03*
G01X762000Y1422400D03*
G01X508000Y1676400D03*
G54D19*
G01X508000Y1422400D03*
G54D11*
G01X736600Y3105658D03*
G01X736600Y2787142D03*
G01X469900Y2787142D03*
G01X469900Y3105658D03*
G01X2978013Y2759800D03*
G01X2978013Y3078316D03*
G01X2727813Y2759800D03*
G01X2727813Y3078316D03*
G01X5295900Y2764871D03*
G01X5295900Y3083387D03*
G01X4984242Y2764871D03*
G01X4984242Y3083387D03*
G01X7556500Y2752171D03*
G01X7556500Y3070687D03*
G01X7261713Y2752171D03*
G01X7261713Y3070687D03*
G54D14*
G01X-1092203Y3543300D03*
G01X-1092203Y3289300D03*
G01X-838203Y3543300D03*
G01X-838203Y3289300D03*
G01X-584203Y3543300D03*
G01X-584203Y3289300D03*
G01X-330203Y3543300D03*
G01X-330203Y3289300D03*
G54D16*
G01X-76203Y3543300D03*
G01X-76203Y3289300D03*
G54D14*
G01X177797Y3543300D03*
G01X177797Y3289300D03*
G01X1193797Y3543300D03*
G01X1193797Y3289300D03*
G01X1447797Y3543300D03*
G01X1447797Y3289300D03*
G01X1701797Y3543300D03*
G01X1701797Y3289300D03*
G01X1955797Y3543300D03*
G01X1955797Y3289300D03*
G54D16*
G01X2209797Y3543300D03*
G01X2209797Y3289300D03*
G54D14*
G01X2463797Y3543300D03*
G01X2463797Y3289300D03*
G01X4749803Y3543300D03*
G01X4749803Y3289300D03*
G54D16*
G01X4495803Y3543300D03*
G01X4495803Y3289300D03*
G54D14*
G01X4241803Y3543300D03*
G01X4241803Y3289300D03*
G01X3987803Y3543300D03*
G01X3987803Y3289300D03*
G01X3733803Y3543300D03*
G01X3733803Y3289300D03*
G01X3479803Y3543300D03*
G01X3479803Y3289300D03*
G01X7035803Y3543300D03*
G01X7035803Y3289300D03*
G54D16*
G01X6781803Y3543300D03*
G01X6781803Y3289300D03*
G54D14*
G01X6527803Y3543300D03*
G01X6527803Y3289300D03*
G01X6273803Y3543300D03*
G01X6273803Y3289300D03*
G01X6019803Y3543300D03*
G01X6019803Y3289300D03*
G01X5765803Y3543300D03*
G01X5765803Y3289300D03*
G54D20*
G01X397193Y3536696D03*
G01X397193Y3346704D03*
G01X644208Y3441700D03*
G01X2733993Y3536696D03*
G01X2733993Y3346704D03*
G01X2981008Y3441700D03*
G01X4994593Y3536696D03*
G01X4994593Y3346704D03*
G01X5241608Y3441700D03*
G01X7305993Y3523996D03*
G01X7305993Y3334004D03*
G01X7553008Y3429000D03*
G54D21*
G01X-159004Y999808D03*
G01X-348996Y999808D03*
G01X-254000Y752793D03*
G04 Pad End*

G04 Via Start*
G54D22*
G01X598396Y2761742D03*
G01X733108Y3233568D03*
G01X2978013Y3275303D03*
G01X2851653Y2759800D03*
G01X5295900Y3287298D03*
G01X5144673Y2764871D03*
G01X7553008Y3266285D03*
G01X7406931Y2752171D03*
G01X1514765Y910600D03*
G01X-41674Y999808D03*
G01X-860267Y678081D03*
G01X3340100Y723900D03*
G01X3835907Y724496D03*
G01X3612173Y724496D03*
G01X3313643Y1054865D03*
G01X3364540Y1003968D03*
G01X3208178Y1097148D03*
G01X-79255Y752793D03*
G04 Via End*

G04 Track Start*
G54D23*
G01X465201Y906399D02*
G01X177800Y1193800D01*
G01X-1066800Y1193800D01*
G01X2540000Y1422400D02*
G01X2540000Y1473200D01*
G01X-1092203Y3543300D02*
G01X-965200Y3416297D01*
G01X-571500Y3543300D02*
G01X-457200Y3429000D01*
G01X-584203Y3543300D02*
G01X-571500Y3543300D01*
G01X2794000Y1422400D02*
G01X2794000Y1485900D01*
G01X1258100Y1176401D02*
G01X1397000Y1315301D01*
G01X1397000Y1549400D01*
G01X1524000Y1676400D01*
G01X2032000Y1676400D02*
G01X2003800Y1676400D01*
G01X1876800Y1549400D01*
G01X1714500Y1549400D01*
G01X1651000Y1485900D01*
G01X1322705Y1081405D02*
G01X1524000Y1282700D01*
G01X1524000Y1422400D01*
G01X1651000Y1485900D02*
G01X1651000Y1282700D01*
G01X1369695Y1001395D01*
G01X1514765Y910600D02*
G01X1510564Y906399D01*
G01X-304800Y3543300D02*
G01X-330203Y3543300D01*
G01X177797Y3289300D02*
G01X177797Y3543300D01*
G01X393700Y3343212D02*
G01X397193Y3346704D01*
G01X1028700Y1739900D02*
G01X1028700Y1663700D01*
G01X889000Y1505094D02*
G01X984394Y1409700D01*
G01X2298700Y1409700D02*
G01X2159000Y1549400D01*
G01X2540000Y1473200D02*
G01X2413000Y1600200D01*
G01X2794000Y1485900D02*
G01X2667000Y1612900D01*
G01X4838700Y1409700D02*
G01X4953000Y1524000D01*
G01X4953000Y1727200D01*
G01X5092700Y1409700D02*
G01X5207000Y1524000D01*
G01X-12700Y3543300D02*
G01X-76203Y3543300D01*
G01X-76203Y3289300D01*
G01X5092700Y1663700D02*
G01X5092700Y1739900D01*
G01X5207000Y1524000D02*
G01X5207000Y1765300D01*
G01X4838700Y1663700D02*
G01X4838700Y1739900D01*
G01X2540000Y1676400D02*
G01X2521529Y1694871D01*
G01X1320800Y3416297D02*
G01X1193797Y3543300D01*
G01X1828800Y3416297D02*
G01X1701797Y3543300D01*
G01X4584700Y1447800D02*
G01X4699000Y1562100D01*
G01X4584700Y1409700D02*
G01X4584700Y1447800D01*
G01X1258100Y1176401D02*
G01X499999Y1176401D01*
G01X-279400Y1955800D01*
G01X-1066800Y1955800D01*
G01X493395Y1081405D02*
G01X-127000Y1701800D01*
G01X-1066800Y1701800D01*
G01X471805Y1001395D02*
G01X25400Y1447800D01*
G01X-1066800Y1447800D01*
G54D24*
G01X1790700Y1409700D02*
G01X1790700Y1151560D01*
G01X1799260Y1143000D01*
G01X2137740Y1143000D02*
G01X2362200Y1143000D01*
G01X2367305Y1137895D01*
G01X2367305Y1028700D01*
G54D23*
G01X1574800Y3416297D02*
G01X1447797Y3543300D01*
G01X4699000Y1562100D02*
G01X4699000Y1727200D01*
G01X2463797Y3289300D02*
G01X2463797Y3543300D01*
G01X2733993Y3346704D02*
G01X2733993Y3084496D01*
G01X2727813Y3078316D01*
G01X2978013Y3438705D02*
G01X2981008Y3441700D01*
G01X2209797Y3543300D02*
G01X2209797Y3289300D01*
G01X2978013Y3078316D02*
G01X2978013Y3275303D01*
G01X2978013Y3438705D01*
G01X2727813Y2759800D02*
G01X2851653Y2759800D01*
G01X2978013Y2759800D01*
G01X3860800Y3429000D02*
G01X3975100Y3543300D01*
G01X3987803Y3543300D01*
G01X3454400Y3543300D02*
G01X3479803Y3543300D01*
G01X4495803Y3606803D02*
G01X4495803Y3543300D01*
G01X4495803Y3289300D01*
G01X4749803Y3289300D02*
G01X4749803Y3543300D01*
G01X4994593Y3346704D02*
G01X4994593Y3093738D01*
G01X4984242Y3083387D01*
G01X5295900Y3083387D02*
G01X5295900Y3287298D01*
G01X4984242Y2764871D02*
G01X5144673Y2764871D01*
G01X5295900Y2764871D01*
G01X6400800Y3416297D02*
G01X6527803Y3543300D01*
G01X5892800Y3416297D02*
G01X6019803Y3543300D01*
G01X6146800Y3416297D02*
G01X6273803Y3543300D01*
G01X6781803Y3289300D02*
G01X6781803Y3543300D01*
G01X7035803Y3543300D02*
G01X7035803Y3289300D01*
G01X7553008Y3074180D02*
G01X7556500Y3070687D01*
G01X7553008Y3429000D02*
G01X7553008Y3266285D01*
G01X7553008Y3074180D01*
G01X7261713Y2752171D02*
G01X7406931Y2752171D01*
G01X7556500Y2752171D01*
G01X774700Y1409700D02*
G01X774700Y1459399D01*
G01X984394Y1409700D02*
G01X1028700Y1409700D01*
G01X3048000Y1917700D02*
G01X2070100Y2895600D01*
G01X3048000Y1676400D02*
G01X3048000Y1917700D01*
G01X3060700Y1435100D02*
G01X3060700Y1488196D01*
G01X3048000Y1422400D02*
G01X3060700Y1435100D01*
G01X2794000Y1943100D02*
G01X1828800Y2908300D01*
G01X2794000Y1676400D02*
G01X2794000Y1943100D01*
G01X2667000Y1955800D02*
G01X1701797Y2921003D01*
G01X2667000Y1955800D02*
G01X2667000Y1612900D01*
G01X2521529Y1986971D02*
G01X1574800Y2933700D01*
G01X2521529Y1694871D02*
G01X2521529Y1986971D01*
G01X2413000Y1993900D02*
G01X1447797Y2959103D01*
G01X2413000Y1993900D02*
G01X2413000Y1600200D01*
G01X2298700Y1988023D02*
G01X1320800Y2965923D01*
G01X2298700Y1988023D02*
G01X2298700Y1663700D01*
G01X2159000Y1975871D02*
G01X1193797Y2941073D01*
G01X2159000Y1975871D02*
G01X2159000Y1549400D01*
G01X3733803Y3289300D02*
G01X3726362Y3281859D01*
G01X3606800Y3416297D02*
G01X3733803Y3543300D01*
G01X3314700Y1409700D02*
G01X3314700Y1435100D01*
G01X5346700Y1409700D02*
G01X5676900Y1409700D01*
G01X5346700Y1663700D02*
G01X5727700Y1663700D01*
G01X5765803Y2387603D02*
G01X5765803Y3289300D01*
G01X5626100Y2400300D02*
G01X5626100Y3403597D01*
G01X5765803Y3543300D01*
G01X1257300Y1435100D02*
G01X1282700Y1409700D01*
G01X1143000Y1612900D02*
G01X1257300Y1498600D01*
G01X1257300Y1435100D01*
G01X1322705Y1081405D02*
G01X493395Y1081405D01*
G01X1369695Y1001395D02*
G01X471805Y1001395D01*
G01X1510564Y906399D02*
G01X465201Y906399D01*
G01X508000Y1676400D02*
G01X520700Y1663700D01*
G01X-838203Y3543300D02*
G01X-711200Y3416297D01*
G01X-457200Y3225800D02*
G01X1028700Y1739900D01*
G01X6400800Y2336800D02*
G01X6400800Y3416297D01*
G01X6527803Y2260603D02*
G01X6527803Y3289300D01*
G01X6273803Y2362203D02*
G01X6273803Y3289300D01*
G01X6146800Y2400300D02*
G01X6146800Y3416297D01*
G01X6019803Y2400303D02*
G01X6019803Y3289300D01*
G01X1320800Y2953223D02*
G01X1320800Y2965923D01*
G01X1320800Y3416297D01*
G01X1447797Y2946403D02*
G01X1447797Y2959103D01*
G01X1447797Y3289300D01*
G01X1574800Y2921000D02*
G01X1574800Y2933700D01*
G01X1574800Y3416297D01*
G01X1701797Y2908303D02*
G01X1701797Y2921003D01*
G01X1701797Y3289300D01*
G01X1193797Y2928373D02*
G01X1193797Y2941073D01*
G01X1193797Y3289300D01*
G01X1828800Y2895600D02*
G01X1828800Y2908300D01*
G01X1828800Y3416297D01*
G01X2070100Y2882900D02*
G01X2070100Y2895600D01*
G01X1955797Y2870203D02*
G01X1955797Y2882903D01*
G01X1955797Y3289300D01*
G01X-457200Y3429000D02*
G01X-457200Y3225800D01*
G01X3726362Y3294559D02*
G01X3726362Y3281859D01*
G54D25*
G01X-1320800Y914400D02*
G01X-1320800Y1193800D01*
G01X-711778Y1004209D02*
G01X-761669Y1054100D01*
G01X-1143000Y1054100D01*
G01X-348996Y999808D02*
G01X-707376Y999808D01*
G01X-711778Y1004209D01*
G01X151067Y999808D02*
G01X159258Y991616D01*
G01X79566Y752793D02*
G01X159258Y673100D01*
G01X-1143000Y1054100D02*
G01X-1193800Y1104900D01*
G01X-1193800Y1828800D01*
G01X-1320800Y1955800D01*
G01X-159004Y999808D02*
G01X-41674Y999808D01*
G01X151067Y999808D01*
G01X-860267Y678081D02*
G01X-719390Y678081D01*
G54D23*
G01X-719390Y678081D02*
G01X-711778Y685693D01*
G54D24*
G01X3340100Y723900D02*
G01X3611577Y723900D01*
G01X3612173Y724496D01*
G01X3835907Y724496D01*
G01X3874388Y724496D01*
G01X4026192Y876300D01*
G54D23*
G01X-203200Y3441700D02*
G01X-304800Y3543300D01*
G01X-584203Y3213103D02*
G01X889000Y1739900D01*
G01X889000Y1505094D01*
G01X-584203Y3213103D02*
G01X-584203Y3289300D01*
G54D24*
G01X3313643Y1054865D02*
G01X3364540Y1003968D01*
G01X3492208Y876300D01*
G01X3037891Y1097148D02*
G01X3208178Y1097148D01*
G54D25*
G01X-254000Y752793D02*
G01X-79255Y752793D01*
G01X79566Y752793D01*
G54D24*
G01X2687295Y1028700D02*
G01X2755743Y1097148D01*
G01X3037891Y1097148D01*
G01X3037891Y778632D02*
G01X3092623Y723900D01*
G01X3340100Y723900D01*
G01X3208178Y1097148D02*
G01X3213126Y1092200D01*
G01X3276308Y1092200D01*
G01X3313643Y1054865D01*
G54D23*
G01X3314700Y3403600D02*
G01X3314706Y1663706D01*
G01X3314700Y3403600D02*
G01X3454400Y3543300D01*
G01X4699000Y1727200D02*
G01X5080000Y2108200D01*
G01X5486400Y2108200D01*
G01X5765803Y2387603D01*
G01X4838700Y1739900D02*
G01X5130800Y2032000D01*
G01X5537200Y2032000D01*
G01X5892800Y2387600D01*
G01X4953000Y1727200D02*
G01X5181600Y1955800D01*
G01X5575300Y1955800D01*
G01X5092700Y1739900D02*
G01X5245100Y1892300D01*
G01X5638800Y1892300D01*
G01X5207000Y1765300D02*
G01X5270500Y1828800D01*
G01X5740400Y1828800D01*
G01X3060700Y1488196D02*
G01X2921000Y1627896D01*
G01X2921000Y1917700D01*
G01X1955797Y2882903D01*
G01X3822700Y1663700D02*
G01X3810000Y1676400D01*
G01X733108Y3233568D02*
G01X733108Y3152966D01*
G01X660400Y3080258D01*
G01X393700Y3080258D02*
G01X457401Y3143959D01*
G01X457401Y3279510D01*
G01X393700Y3343212D01*
G01X393700Y2761742D02*
G01X598396Y2761742D01*
G01X736600Y2761742D01*
G01X2733993Y3536696D02*
G01X2600389Y3670300D01*
G01X2374900Y3670300D01*
G01X2247900Y3543300D01*
G01X2209797Y3543300D01*
G01X6781803Y3594103D02*
G01X6781803Y3543300D01*
G01X774700Y1459399D02*
G01X635000Y1599099D01*
G01X635000Y1742330D01*
G01X-838203Y3215533D01*
G01X-838203Y3289300D01*
G01X1282700Y1663700D02*
G01X1282700Y1706661D01*
G01X-203200Y3192561D01*
G01X-203200Y3441700D01*
G01X-330203Y3289300D02*
G01X-330203Y3215533D01*
G01X1143000Y1742330D01*
G01X1143000Y1612900D01*
G01X-711200Y3416297D02*
G01X-711200Y3213639D01*
G01X774700Y1727739D01*
G01X774700Y1663700D01*
G01X-965200Y3416297D02*
G01X-965200Y3189307D01*
G01X508000Y1716107D01*
G01X508000Y1676400D01*
G01X1955797Y3542039D02*
G01X1955797Y3543300D01*
G01X2070100Y2895600D02*
G01X2078926Y2904426D01*
G01X2078926Y3418911D01*
G01X1955797Y3542039D01*
G01X3479803Y1857185D02*
G01X3479803Y3289300D01*
G01X3568700Y1663700D02*
G01X3568700Y1822915D01*
G01X3606800Y1861015D01*
G01X3606800Y3416297D01*
G01X3726362Y3281859D02*
G01X3726362Y1864272D01*
G01X3683000Y1820910D01*
G01X3810000Y1676400D02*
G01X3810000Y1822005D01*
G01X3860800Y1872805D01*
G01X3860800Y3429000D01*
G01X3937000Y1822140D02*
G01X3987803Y1872942D01*
G01X3987803Y3302000D01*
G01X4301586Y3522925D02*
G01X4242011Y3582500D01*
G01X4195644Y1829076D02*
G01X4237755Y1871188D01*
G01X4237755Y3297390D01*
G01X4362941Y3425648D02*
G01X4301586Y3487004D01*
G01X4301586Y3522925D01*
G01X4301586Y1697370D02*
G01X4301586Y1733291D01*
G01X4362941Y1794647D01*
G01X4362941Y3425648D01*
G01X4322863Y1433537D02*
G01X4283146Y1433537D01*
G01X4195644Y1521039D01*
G01X4195644Y1829076D01*
G01X3683000Y1820910D02*
G01X3683000Y1559921D01*
G01X3568700Y1445621D01*
G01X3568700Y1409700D01*
G01X3822700Y1409700D02*
G01X3822700Y1424830D01*
G01X3937000Y1539130D01*
G01X3937000Y1822140D01*
G01X520700Y1409700D02*
G01X306500Y1623900D01*
G01X306500Y1797669D01*
G01X-1092203Y3196372D01*
G01X-1092203Y3289300D01*
G01X4584700Y1663700D02*
G01X4584700Y1741517D01*
G01X5042713Y2199530D01*
G01X5425330Y2199530D01*
G01X5626100Y2400300D01*
G01X5892800Y2396109D02*
G01X5891519Y2388881D01*
G01X5892800Y2387600D01*
G01X5892800Y2396109D01*
G01X5892800Y3416297D01*
G01X6015923Y2397230D02*
G01X6016730Y2397230D01*
G01X5575300Y1955800D02*
G01X6016730Y2397230D01*
G01X6019803Y2400303D01*
G01X6137525Y2391626D02*
G01X6138126Y2391626D01*
G01X5638800Y1892300D02*
G01X6138126Y2391626D01*
G01X6146800Y2400300D01*
G01X6259042Y2347442D02*
G01X6273803Y2359790D01*
G01X6273803Y2362203D01*
G01X5740400Y1828800D02*
G01X6259042Y2347442D01*
G01X6273803Y2362203D01*
G01X6384555Y2320555D02*
G01X6400800Y2336606D01*
G01X5727700Y1663700D02*
G01X6384555Y2320555D01*
G01X6400800Y2336800D01*
G01X6515855Y2248655D02*
G01X6527803Y2259631D01*
G01X6527803Y2260603D01*
G01X5676900Y1409700D02*
G01X6515855Y2248655D01*
G01X6527803Y2260603D01*
G01X7261713Y3070687D02*
G01X7305993Y3114967D01*
G01X7305993Y3334004D01*
G01X5295900Y3287298D02*
G01X5241608Y3341590D01*
G01X5241608Y3441700D01*
G01X644208Y3441700D02*
G01X644208Y3322468D01*
G01X733108Y3233568D01*
G01X393700Y3343212D02*
G01X388352Y3348560D01*
G01X237057Y3348560D01*
G01X177797Y3289300D01*
G01X2733993Y3346704D02*
G01X2733397Y3347299D01*
G01X2521797Y3347299D01*
G01X2463797Y3289300D01*
G01X4749803Y3289300D02*
G01X4811584Y3351082D01*
G01X4990215Y3351082D01*
G01X4994593Y3346704D01*
G01X397193Y3536696D02*
G01X263589Y3670300D01*
G01X114300Y3670300D01*
G01X-12700Y3543300D01*
G01X4994593Y3536696D02*
G01X4860989Y3670300D01*
G01X4559300Y3670300D01*
G01X4495803Y3606803D01*
G01X7305993Y3523996D02*
G01X7159689Y3670300D01*
G01X6858000Y3670300D01*
G01X6781803Y3594103D01*
G01X3314700Y1435100D02*
G01X3429000Y1549400D01*
G01X3429000Y1806382D01*
G01X3479803Y1857185D01*
G01X7305993Y3334004D02*
G01X7286689Y3314700D01*
G01X7061203Y3314700D01*
G01X7035803Y3289300D01*
G04 Track End*

M02*

