G04 Layer: InnerLayer2*
G04 EasyEDA Pro v3.2.148, 2026-08-25 14:35:54*
G04 Gerber Generator version 0.3*
G04 Scale: 100 percent, Rotated: No, Reflected: No*
G04 Dimensions in millimeters*
G04 Leading zeros omitted, absolute positions, 4 integers and 5 decimals*
G04 Generated by one-click*
G04 Object Configs: Pad,Via,Track,Text,Image,Dimension,BoardOutline,BoardCutout,CopperFilled,SolidRegion,FPCStiffener,Line,PlaneZone,ComponentProperty,ComponentSilkscreen,TearDrop*
G04 Layer Configs: 1,15,16,2,3,4,5,6,7,8,9,10,11,13,14,56*
G04 Copper Areas: 0*
%FSLAX45Y45*%
%MOMM*%
%ADD10C,0.61*%
%ADD11C,0.8716*%
G75*


G04 PlaneZone Start*
G36*
G01X76454Y1487500D02*
G02X150800Y1561846I74346J0D01*
G01X3811600Y1561846D01*
G02X3885946Y1487500I0J-74346D01*
G01X3885946Y138100D01*
G02X3811600Y63754I-74346J0D01*
G01X150800Y63754D01*
G02X76454Y138100I0J74346D01*
G01X76454Y1487500D01*
G37*
%LPC*%
G36*
G01X290887Y347254D02*
G03X362857Y341669I39314J40096D01*
G03X428172Y341669I32657J45681D01*
G03X493486Y341669I32657J45681D01*
G03X558800Y341669I32657J45682D01*
G03X624114Y341669I32657J45682D01*
G03X689428Y341669I32657J45681D01*
G03X754743Y341669I32657J45682D01*
G03X826713Y347254I32657J45681D01*
G03X833716Y419100I-39313J40096D01*
G03X826713Y490946I-46316J31750D01*
G03X754743Y496531I-39313J-40096D01*
G03X689428Y496531I-32657J-45682D01*
G03X624114Y496531I-32657J-45681D01*
G03X558800Y496531I-32657J-45682D01*
G03X493486Y496531I-32657J-45682D01*
G03X428172Y496531I-32657J-45681D01*
G03X362857Y496531I-32657J-45681D01*
G03X290887Y490946I-32657J-45681D01*
G03X283884Y419100I39313J-40096D01*
G03X290887Y347254I46316J-31750D01*
G37*
G36*
G01X1269989Y387455D02*
G03X1264754Y311524I38577J-40806D01*
G03X1270333Y235752I44032J-34850D01*
G03X1346305Y234895I38453J40923D01*
G03X1422411Y235861I37529J41772D01*
G03X1427646Y311792I-38577J40806D01*
G03X1422067Y387564I-44032J34850D01*
G03X1346095Y388421I-38453J-40923D01*
G03X1269989Y387455I-37529J-41772D01*
G37*
G36*
G01X1957878Y236016D02*
G03X1994368Y332219I-2800J56084D01*
G03X1948476Y424309I-43091J36006D01*
G03X1911986Y328106I2800J-56084D01*
G03X1957878Y236016I43091J-36006D01*
G37*
G36*
G01X2155024Y614025D02*
G03X2247711Y571379I56154J0D01*
G03X2320107Y570815I36533J42645D01*
G03X2412154Y613981I35893J43185D01*
G03X2320137Y657210I-56154J19D01*
G03X2247711Y656670I-35893J-43185D01*
G03X2155024Y614025I-36533J-42645D01*
G37*
G36*
G01X2159035Y868236D02*
G03X2271343Y868236I56154J0D01*
G03X2159035Y868236I-56154J0D01*
G37*
G36*
G01X2230246Y742700D02*
G03X2342554Y742700I56154J0D01*
G03X2230246Y742700I-56154J0D01*
G37*
G36*
G01X2620706Y718064D02*
G03X2544733Y718921I-38453J-40923D01*
G03X2468628Y717955I-37528J-41772D01*
G03X2463392Y642024I38576J-40806D01*
G03X2468971Y566251I44032J-34850D01*
G03X2544944Y565395I38453J40923D01*
G03X2621049Y566361I37529J41772D01*
G03X2626285Y642292I-38576J40806D01*
G03X2620706Y718064I-44032J34849D01*
G37*
G36*
G01X2674346Y868236D02*
G03X2786654Y868236I56154J0D01*
G03X2674346Y868236I-56154J0D01*
G37*
G36*
G01X2788646Y615200D02*
G03X2900954Y615200I56154J0D01*
G03X2788646Y615200I-56154J0D01*
G37*
G36*
G01X3093446Y622300D02*
G03X3185575Y579183I56154J0D01*
G03X3253675Y576243I35975J43117D01*
G03X3341954Y622300I32125J46057D01*
G03X3253675Y668357I-56154J0D01*
G03X3185575Y665417I-32125J-46057D01*
G03X3093446Y622300I-35975J-43117D01*
G37*
G36*
G01X3152697Y749300D02*
G03X3265005Y749300I56154J0D01*
G03X3152697Y749300I-56154J0D01*
G37*
G36*
G01X3562124Y714009D02*
G03X3486865Y714201I-37736J-41585D01*
G03X3411994Y714360I-37524J-41776D01*
G03X3403514Y639971I37346J-41935D01*
G03X3410990Y565083I45212J-33303D01*
G03X3486251Y564892I37736J41585D01*
G03X3561121Y564733I37524J41776D01*
G03X3569601Y639121I-37346J41935D01*
G03X3562124Y714009I-45212J33303D01*
G37*
G36*
G01X3617646Y876300D02*
G03X3729954Y876300I56154J0D01*
G03X3617646Y876300I-56154J0D01*
G37*
G36*
G01X3617646Y622300D02*
G03X3729954Y622300I56154J0D01*
G03X3617646Y622300I-56154J0D01*
G37*
%LPD*%
G04 PlaneZone End*

G04 Via Start*
G54D10*
G01X722086Y387350D03*
G01X656771Y450850D03*
G01X656771Y387350D03*
G01X591457Y450850D03*
G01X591457Y387350D03*
G01X526143Y450850D03*
G01X526143Y387350D03*
G01X787400Y450850D03*
G01X787400Y387350D03*
G01X460829Y450850D03*
G01X460829Y387350D03*
G01X395514Y450850D03*
G01X395514Y387350D03*
G01X330200Y450850D03*
G01X330200Y387350D03*
G01X330200Y196850D03*
G01X330200Y133350D03*
G01X395514Y196850D03*
G01X460829Y196850D03*
G01X395514Y133350D03*
G01X460829Y133350D03*
G01X526143Y133350D03*
G01X526143Y196850D03*
G01X591457Y196850D03*
G01X591457Y133350D03*
G01X656771Y133350D03*
G01X656771Y196850D03*
G01X722086Y196850D03*
G01X722086Y133350D03*
G01X787400Y133350D03*
G01X787400Y196850D03*
G01X2507509Y927316D03*
G01X2582557Y927316D03*
G01X2507205Y677149D03*
G01X2582253Y677141D03*
G01X1951276Y368225D03*
G01X1955573Y1105685D03*
G01X1955573Y1397472D03*
G01X1955575Y543372D03*
G01X1308785Y276675D03*
G01X1308566Y346649D03*
G01X1383615Y346641D03*
G01X1383834Y276667D03*
G01X990210Y274378D03*
G01X1065258Y274378D03*
G01X1065174Y348938D03*
G01X990125Y348938D03*
G01X2803243Y995025D03*
G01X2284244Y614025D03*
G01X2356000Y614000D03*
G01X2734531Y995025D03*
G01X2215189Y868236D03*
G01X2286400Y742700D03*
G01X2844800Y615200D03*
G01X2730500Y868236D03*
G01X2870200Y995200D03*
G01X2211178Y614025D03*
G01X2507424Y607174D03*
G01X2582473Y607167D03*
G01X2507424Y1001875D03*
G01X2582473Y1001875D03*
G01X722086Y450850D03*
G01X1955077Y292100D03*
G01X1955077Y622300D03*
G01X1955077Y863600D03*
G01X1955077Y952667D03*
G01X1955077Y1185664D03*
G01X1955077Y1473200D03*
G01X3673800Y1005182D03*
G01X3736797Y1003300D03*
G01X3797300Y1003300D03*
G01X3149600Y622300D03*
G01X3221551Y622300D03*
G01X3285800Y622300D03*
G01X3524389Y672425D03*
G01X3449340Y672425D03*
G01X3447534Y1003300D03*
G01X3521020Y1003300D03*
G01X3673800Y876300D03*
G01X3673800Y622300D03*
G01X3448726Y606668D03*
G01X3523775Y606668D03*
G01X3449507Y939524D03*
G01X3522993Y939524D03*
G01X3208851Y749300D03*
G04 Via End*

M02*

