G04 Layer: BottomPasteMaskLayer*
G04 EasyEDA Pro v3.2.148, 2026-08-25 14:35:54*
G04 Gerber Generator version 0.3*
G04 Scale: 100 percent, Rotated: No, Reflected: No*
G04 Dimensions in millimeters*
G04 Leading zeros omitted, absolute positions, 4 integers and 5 decimals*
G04 Generated by one-click*
G04 Object Configs: Pad,Via,Track,Text,Image,Dimension,BoardOutline,BoardCutout,CopperFilled,SolidRegion,FPCStiffener,Line,PlaneZone,ComponentProperty,ComponentSilkscreen,TearDrop*
G04 Layer Configs: 1,15,16,2,3,4,5,6,7,8,9,10,11,13,14,56*
G04 Copper Areas: 0*
%FSLAX45Y45*%
%MOMM*%
%ADD10R,7.2X1.8*%
%ADD11C,0.1291*%
G75*


G04 PolygonModel Start*
G36*
G01X2618894Y719524D02*
G01X2628894Y709524D01*
G01X2628894Y581025D01*
G01X2618894Y571025D01*
G01X2466092Y571025D01*
G01X2456092Y581025D01*
G01X2456092Y709524D01*
G01X2466092Y719524D01*
G01X2503118Y719524D01*
G01X2513118Y709524D01*
G01X2513118Y679033D01*
G01X2523118Y669033D01*
G01X2561868Y669033D01*
G01X2571868Y679033D01*
G01X2571868Y709524D01*
G01X2581868Y719524D01*
G01X2618894Y719524D01*
G37*
G36*
G01X2618894Y889526D02*
G01X2581868Y889526D01*
G01X2571868Y899526D01*
G01X2571868Y930016D01*
G01X2561868Y940016D01*
G01X2523118Y940016D01*
G01X2513118Y930016D01*
G01X2513118Y899526D01*
G01X2503118Y889526D01*
G01X2466092Y889526D01*
G01X2456092Y899526D01*
G01X2456092Y1028024D01*
G01X2466092Y1038024D01*
G01X2618894Y1038024D01*
G01X2628894Y1028024D01*
G01X2628894Y899526D01*
G01X2618894Y889526D01*
G37*
G36*
G01X1096105Y1360051D02*
G01X1086105Y1350051D01*
G01X985354Y1350051D01*
G01X975354Y1360051D01*
G01X975354Y1510149D01*
G01X985354Y1520149D01*
G01X1086105Y1520149D01*
G01X1096105Y1510149D01*
G01X1096105Y1474018D01*
G01X1086105Y1464018D01*
G01X1065049Y1464018D01*
G01X1055049Y1454018D01*
G01X1055049Y1416182D01*
G01X1065049Y1406182D01*
G01X1086105Y1406182D01*
G01X1096105Y1396182D01*
G01X1096105Y1360051D01*
G37*
G36*
G01X1271106Y1360051D02*
G01X1271106Y1396182D01*
G01X1281106Y1406182D01*
G01X1302163Y1406182D01*
G01X1312163Y1416182D01*
G01X1312163Y1454018D01*
G01X1302163Y1464018D01*
G01X1281106Y1464018D01*
G01X1271106Y1474018D01*
G01X1271106Y1510149D01*
G01X1281106Y1520149D01*
G01X1381858Y1520149D01*
G01X1391858Y1510149D01*
G01X1391858Y1360051D01*
G01X1381858Y1350051D01*
G01X1281106Y1350051D01*
G01X1271106Y1360051D01*
G37*
G36*
G01X1096105Y1110615D02*
G01X1086105Y1100615D01*
G01X985354Y1100615D01*
G01X975354Y1110615D01*
G01X975354Y1260714D01*
G01X985354Y1270713D01*
G01X1086105Y1270713D01*
G01X1096105Y1260714D01*
G01X1096105Y1224582D01*
G01X1086105Y1214582D01*
G01X1065049Y1214582D01*
G01X1055049Y1204582D01*
G01X1055049Y1166746D01*
G01X1065049Y1156746D01*
G01X1086105Y1156746D01*
G01X1096105Y1146746D01*
G01X1096105Y1110615D01*
G37*
G36*
G01X1271106Y1110615D02*
G01X1271106Y1146746D01*
G01X1281106Y1156746D01*
G01X1302163Y1156746D01*
G01X1312163Y1166746D01*
G01X1312163Y1204582D01*
G01X1302163Y1214582D01*
G01X1281106Y1214582D01*
G01X1271106Y1224582D01*
G01X1271106Y1260714D01*
G01X1281106Y1270713D01*
G01X1381858Y1270713D01*
G01X1391858Y1260714D01*
G01X1391858Y1110615D01*
G01X1381858Y1100615D01*
G01X1281106Y1100615D01*
G01X1271106Y1110615D01*
G37*
G36*
G01X1096105Y852051D02*
G01X1086105Y842051D01*
G01X985354Y842051D01*
G01X975354Y852051D01*
G01X975354Y1002149D01*
G01X985354Y1012149D01*
G01X1086105Y1012149D01*
G01X1096105Y1002149D01*
G01X1096105Y966018D01*
G01X1086105Y956018D01*
G01X1065049Y956018D01*
G01X1055049Y946018D01*
G01X1055049Y908182D01*
G01X1065049Y898182D01*
G01X1086105Y898182D01*
G01X1096105Y888182D01*
G01X1096105Y852051D01*
G37*
G36*
G01X1271106Y852051D02*
G01X1271106Y888182D01*
G01X1281106Y898182D01*
G01X1302163Y898182D01*
G01X1312163Y908182D01*
G01X1312163Y946018D01*
G01X1302163Y956018D01*
G01X1281106Y956018D01*
G01X1271106Y966018D01*
G01X1271106Y1002149D01*
G01X1281106Y1012149D01*
G01X1381858Y1012149D01*
G01X1391858Y1002149D01*
G01X1391858Y852051D01*
G01X1381858Y842051D01*
G01X1281106Y842051D01*
G01X1271106Y852051D01*
G37*
G36*
G01X1096105Y597916D02*
G01X1086105Y587916D01*
G01X985354Y587916D01*
G01X975354Y597916D01*
G01X975354Y748015D01*
G01X985354Y758015D01*
G01X1086105Y758015D01*
G01X1096105Y748015D01*
G01X1096105Y711883D01*
G01X1086105Y701883D01*
G01X1065049Y701883D01*
G01X1055049Y691883D01*
G01X1055049Y654047D01*
G01X1065049Y644047D01*
G01X1086105Y644047D01*
G01X1096105Y634048D01*
G01X1096105Y597916D01*
G37*
G36*
G01X1271106Y597916D02*
G01X1271106Y634048D01*
G01X1281106Y644047D01*
G01X1302163Y644047D01*
G01X1312163Y654047D01*
G01X1312163Y691883D01*
G01X1302163Y701883D01*
G01X1281106Y701883D01*
G01X1271106Y711883D01*
G01X1271106Y748015D01*
G01X1281106Y758015D01*
G01X1381858Y758015D01*
G01X1391858Y748015D01*
G01X1391858Y597916D01*
G01X1381858Y587916D01*
G01X1281106Y587916D01*
G01X1271106Y597916D01*
G37*
G36*
G01X1887577Y659249D02*
G01X1897577Y669249D01*
G01X1998328Y669249D01*
G01X2008328Y659249D01*
G01X2008328Y509151D01*
G01X1998328Y499151D01*
G01X1897577Y499151D01*
G01X1887577Y509151D01*
G01X1887577Y545282D01*
G01X1897577Y555282D01*
G01X1918633Y555282D01*
G01X1928633Y565282D01*
G01X1928633Y603118D01*
G01X1918633Y613118D01*
G01X1897577Y613118D01*
G01X1887577Y623118D01*
G01X1887577Y659249D01*
G37*
G36*
G01X1712576Y659249D02*
G01X1712576Y623118D01*
G01X1702576Y613118D01*
G01X1681519Y613118D01*
G01X1671519Y603118D01*
G01X1671519Y565282D01*
G01X1681519Y555282D01*
G01X1702576Y555282D01*
G01X1712576Y545282D01*
G01X1712576Y509151D01*
G01X1702576Y499151D01*
G01X1601824Y499151D01*
G01X1591824Y509151D01*
G01X1591824Y659249D01*
G01X1601824Y669249D01*
G01X1702576Y669249D01*
G01X1712576Y659249D01*
G37*
G36*
G01X1887577Y938649D02*
G01X1897577Y948649D01*
G01X1998328Y948649D01*
G01X2008328Y938649D01*
G01X2008328Y788551D01*
G01X1998328Y778551D01*
G01X1897577Y778551D01*
G01X1887577Y788551D01*
G01X1887577Y824682D01*
G01X1897577Y834682D01*
G01X1918633Y834682D01*
G01X1928633Y844682D01*
G01X1928633Y882518D01*
G01X1918633Y892518D01*
G01X1897577Y892518D01*
G01X1887577Y902518D01*
G01X1887577Y938649D01*
G37*
G36*
G01X1712576Y938649D02*
G01X1712576Y902518D01*
G01X1702576Y892518D01*
G01X1681519Y892518D01*
G01X1671519Y882518D01*
G01X1671519Y844682D01*
G01X1681519Y834682D01*
G01X1702576Y834682D01*
G01X1712576Y824682D01*
G01X1712576Y788551D01*
G01X1702576Y778551D01*
G01X1601824Y778551D01*
G01X1591824Y788551D01*
G01X1591824Y938649D01*
G01X1601824Y948649D01*
G01X1702576Y948649D01*
G01X1712576Y938649D01*
G37*
G36*
G01X1887577Y1222614D02*
G01X1897577Y1232613D01*
G01X1998328Y1232613D01*
G01X2008328Y1222614D01*
G01X2008328Y1072515D01*
G01X1998328Y1062515D01*
G01X1897577Y1062515D01*
G01X1887577Y1072515D01*
G01X1887577Y1108646D01*
G01X1897577Y1118646D01*
G01X1918633Y1118646D01*
G01X1928633Y1128646D01*
G01X1928633Y1166482D01*
G01X1918633Y1176482D01*
G01X1897577Y1176482D01*
G01X1887577Y1186482D01*
G01X1887577Y1222614D01*
G37*
G36*
G01X1712576Y1222614D02*
G01X1712576Y1186482D01*
G01X1702576Y1176482D01*
G01X1681519Y1176482D01*
G01X1671519Y1166482D01*
G01X1671519Y1128646D01*
G01X1681519Y1118646D01*
G01X1702576Y1118646D01*
G01X1712576Y1108646D01*
G01X1712576Y1072515D01*
G01X1702576Y1062515D01*
G01X1601824Y1062515D01*
G01X1591824Y1072515D01*
G01X1591824Y1222614D01*
G01X1601824Y1232613D01*
G01X1702576Y1232613D01*
G01X1712576Y1222614D01*
G37*
G36*
G01X1887577Y1510149D02*
G01X1897577Y1520149D01*
G01X1998328Y1520149D01*
G01X2008328Y1510149D01*
G01X2008328Y1360051D01*
G01X1998328Y1350051D01*
G01X1897577Y1350051D01*
G01X1887577Y1360051D01*
G01X1887577Y1396182D01*
G01X1897577Y1406182D01*
G01X1918633Y1406182D01*
G01X1928633Y1416182D01*
G01X1928633Y1454018D01*
G01X1918633Y1464018D01*
G01X1897577Y1464018D01*
G01X1887577Y1474018D01*
G01X1887577Y1510149D01*
G37*
G36*
G01X1712576Y1510149D02*
G01X1712576Y1474018D01*
G01X1702576Y1464018D01*
G01X1681519Y1464018D01*
G01X1671519Y1454018D01*
G01X1671519Y1416182D01*
G01X1681519Y1406182D01*
G01X1702576Y1406182D01*
G01X1712576Y1396182D01*
G01X1712576Y1360051D01*
G01X1702576Y1350051D01*
G01X1601824Y1350051D01*
G01X1591824Y1360051D01*
G01X1591824Y1510149D01*
G01X1601824Y1520149D01*
G01X1702576Y1520149D01*
G01X1712576Y1510149D01*
G37*
G36*
G01X3562651Y719524D02*
G01X3572651Y709524D01*
G01X3572651Y581025D01*
G01X3562651Y571025D01*
G01X3409850Y571025D01*
G01X3399850Y581025D01*
G01X3399850Y709524D01*
G01X3409850Y719524D01*
G01X3446875Y719524D01*
G01X3456875Y709524D01*
G01X3456875Y679033D01*
G01X3466875Y669033D01*
G01X3505625Y669033D01*
G01X3515625Y679033D01*
G01X3515625Y709524D01*
G01X3525625Y719524D01*
G01X3562651Y719524D01*
G37*
G36*
G01X3562651Y889526D02*
G01X3525625Y889526D01*
G01X3515625Y899526D01*
G01X3515625Y930016D01*
G01X3505625Y940016D01*
G01X3466875Y940016D01*
G01X3456875Y930016D01*
G01X3456875Y899526D01*
G01X3446875Y889526D01*
G01X3409850Y889526D01*
G01X3399850Y899526D01*
G01X3399850Y1028024D01*
G01X3409850Y1038024D01*
G01X3562651Y1038024D01*
G01X3572651Y1028024D01*
G01X3572651Y899526D01*
G01X3562651Y889526D01*
G37*

G04 Pad Start*
G54D10*
G01X482600Y165100D03*
G01X482600Y673100D03*
G01X482600Y927100D03*
G01X482600Y1185664D03*
G01X482600Y1435100D03*
G01X482600Y419100D03*
G04 Pad End*

M02*

