;TYPE=PLATED
;Layer: PTH_Through
;EasyEDA Pro v3.2.148, 2026-08-04 21:20:46
;Gerber Generator version 0.3
M48
METRIC,LZ,0000.00000
;Hole size 1 = 0.30500 METRIC
T01C0.30500
;Hole size 2 = 1.02001 METRIC
T02C1.02001
;Hole size 3 = 1.20000 METRIC
T03C1.20000
%
G05
G90
T01
X46.34733Y50.43685
X40.8307Y51.89559
X50.419Y53.467
X33.909Y54.737
X36.195Y54.737
X34.036Y62.865
X36.068Y62.865
X18.23695Y53.62262
X13.716Y52.705
X13.716Y51.816
X40.894Y29.083
X46.64784Y27.57685
X50.673Y30.226
X46.52159Y4.953
X40.46256Y6.46161
X50.419Y7.747
X32.512Y51.308
X34.671Y49.149
X20.955Y44.45
X20.955Y41.59892
X18.923Y44.47854
X18.923Y41.62746
X17.018Y44.47854
X17.018Y41.62746
X30.85711Y49.68165
X33.01611Y47.46557
X18.23695Y54.32942
T02
X49.784Y33.401
X47.244Y33.401
X49.784Y35.941
X47.244Y35.941
X49.784Y38.481
X47.244Y38.481
X49.784Y41.02097
X47.244Y41.02097
X49.784Y43.56097
X47.244Y43.56097
X49.784Y46.10097
X47.244Y46.10097
X49.784Y10.541
X47.244Y10.541
X49.784Y13.081
X47.244Y13.081
X49.784Y15.621
X47.244Y15.621
X49.784Y18.16097
X47.244Y18.16097
X49.784Y20.70097
X47.244Y20.70097
X49.784Y23.24097
X47.244Y23.24097
X49.784Y56.261
X47.244Y56.261
X49.784Y58.801
X47.244Y58.801
X49.784Y61.341
X47.244Y61.341
X49.784Y63.88097
X47.244Y63.88097
X49.784Y66.42097
X47.244Y66.42097
X49.784Y68.96097
X47.244Y68.96097
T03
X9.01695Y14.95366
X9.01695Y17.49366
X9.01695Y20.03366
X9.01695Y22.57366
X9.01695Y25.11366
X9.01695Y27.65366
X9.01695Y30.19366
X9.01695Y32.73366
X9.01695Y35.27366
X9.01695Y37.81366
X9.01695Y40.35366
X9.01695Y42.89366
X9.01695Y45.43366
X9.01695Y47.97366
X9.01695Y50.51366
X9.01695Y53.05366
X9.01695Y55.59366
X9.01695Y58.13366
X9.01695Y60.67366
X9.01695Y63.21366
X26.79695Y14.95366
X26.79695Y17.49366
X26.79695Y20.03366
X26.79695Y22.57366
X26.79695Y25.11366
X26.79695Y27.65366
X26.79695Y30.19366
X26.79695Y32.73366
X26.79695Y35.27366
X26.79695Y37.81366
X26.79695Y40.35366
X26.79695Y42.89366
X26.79695Y45.43366
X26.79695Y47.97366
X26.79695Y50.51366
X26.79695Y53.05366
X26.79695Y55.59366
X26.79695Y58.13366
X26.79695Y60.67366
X26.79695Y63.21366
M30