;TYPE=PLATED
;Layer: PTH_Through_Via
;EasyEDA Pro v3.2.148, 2026-08-04 21:20:46
;Gerber Generator version 0.3
M48
METRIC,LZ,0000.00000
;Hole size 1 = 0.30500 METRIC
T01C0.30500
%
G05
G90
T01
X46.34733Y50.43685
X40.8307Y51.89559
X50.419Y53.467
X33.909Y54.737
X36.195Y54.737
X34.036Y62.865
X36.068Y62.865
X18.23695Y53.62262
X13.716Y52.705
X13.716Y51.816
X40.894Y29.083
X46.64784Y27.57685
X50.673Y30.226
X46.52159Y4.953
X40.46256Y6.46161
X50.419Y7.747
X32.512Y51.308
X34.671Y49.149
X20.955Y44.45
X20.955Y41.59892
X18.923Y44.47854
X18.923Y41.62746
X17.018Y44.47854
X17.018Y41.62746
X30.85711Y49.68165
X33.01611Y47.46557
X18.23695Y54.32942
M30