G04 Layer: TopSolderMaskLayer*
G04 EasyEDA Pro v3.2.148, 2026-08-04 21:20:46*
G04 Gerber Generator version 0.3*
G04 Scale: 100 percent, Rotated: No, Reflected: No*
G04 Dimensions in millimeters*
G04 Leading zeros omitted, absolute positions, 4 integers and 5 decimals*
G04 Generated by one-click*
G04 Object Configs: Pad,Via,Track,Text,Image,Dimension,BoardOutline,BoardCutout,CopperFilled,SolidRegion,FPCStiffener,Line,PlaneZone,ComponentProperty,ComponentSilkscreen,TearDrop*
G04 Layer Configs: 1,15,16,2,3,4,5,6,7,8,9,10,11,13,14,56*
G04 Copper Areas: 0*
%FSLAX45Y45*%
%MOMM*%
%AMRoundRect*1,1,$1,$2,$3*1,1,$1,$4,$5*1,1,$1,0-$2,0-$3*1,1,$1,0-$4,0-$5*20,1,$1,$2,$3,$4,$5,0*20,1,$1,$4,$5,0-$2,0-$3,0*20,1,$1,0-$2,0-$3,0-$4,0-$5,0*20,1,$1,0-$4,0-$5,$2,$3,0*4,1,4,$2,$3,$4,$5,0-$2,0-$3,0-$4,0-$5,$2,$3,0*%
%ADD10RoundRect,0.1016X-0.6X-1.75X-0.6X1.75*%
%ADD11RoundRect,0.1016X-0.74251X0.86399X0.74251X0.86399*%
%ADD12RoundRect,0.1016X-0.57501X-0.47501X-0.57501X0.47501*%
%ADD13RoundRect,0.1016X-0.74251X1.3905X0.74251X1.3905*%
%ADD14C,1.7016*%
%ADD15RoundRect,0.1016X-0.8X-0.8X-0.8X0.8*%
%ADD16C,1.9016*%
%ADD17RoundRect,0.1016X-0.9X-0.9X-0.9X0.9*%
%ADD18RoundRect,0.1035X-0.3X-0.535X-0.3X0.535*%
%ADD19RoundRect,0.1016X-0.3X-0.535X-0.3X0.535*%
G75*


G04 Pad Start*
G54D10*
G01X3505200Y5613108D03*
G01X3505200Y6147092D03*
G54D11*
G01X1835658Y5219700D03*
G01X1517142Y5219700D03*
G54D12*
G01X1244600Y5935040D03*
G01X1244600Y5596560D03*
G54D13*
G01X1503705Y5613400D03*
G01X1823695Y5613400D03*
G54D11*
G01X4046256Y495300D03*
G01X4364772Y495300D03*
G01X4046256Y801885D03*
G01X4364772Y801885D03*
G01X4095242Y2757685D03*
G01X4413758Y2757685D03*
G01X4095242Y3060700D03*
G01X4413758Y3060700D03*
G54D14*
G01X4978400Y3340097D03*
G01X4724400Y3340097D03*
G54D15*
G01X4978400Y3594097D03*
G01X4724400Y3594097D03*
G54D14*
G01X4978400Y3848097D03*
G01X4724400Y3848097D03*
G01X4978400Y4102097D03*
G01X4724400Y4102097D03*
G01X4978400Y4356097D03*
G01X4724400Y4356097D03*
G01X4978400Y4610097D03*
G01X4724400Y4610097D03*
G01X4978400Y1054097D03*
G01X4724400Y1054097D03*
G54D15*
G01X4978400Y1308097D03*
G01X4724400Y1308097D03*
G54D14*
G01X4978400Y1562097D03*
G01X4724400Y1562097D03*
G01X4978400Y1816097D03*
G01X4724400Y1816097D03*
G01X4978400Y2070097D03*
G01X4724400Y2070097D03*
G01X4978400Y2324097D03*
G01X4724400Y2324097D03*
G01X4978400Y5626097D03*
G01X4724400Y5626097D03*
G54D15*
G01X4978400Y5880097D03*
G01X4724400Y5880097D03*
G54D14*
G01X4978400Y6134097D03*
G01X4724400Y6134097D03*
G01X4978400Y6388097D03*
G01X4724400Y6388097D03*
G01X4978400Y6642097D03*
G01X4724400Y6642097D03*
G01X4978400Y6896097D03*
G01X4724400Y6896097D03*
G54D11*
G01X4083070Y5043685D03*
G01X4401586Y5043685D03*
G01X4083070Y5335785D03*
G01X4401586Y5335785D03*
G54D16*
G01X901695Y1495366D03*
G01X901695Y1749366D03*
G01X901695Y2003366D03*
G01X901695Y2257366D03*
G01X901695Y2511366D03*
G01X901695Y2765366D03*
G01X901695Y3019366D03*
G01X901695Y3273366D03*
G01X901695Y3527366D03*
G01X901695Y3781366D03*
G01X901695Y4035366D03*
G01X901695Y4289366D03*
G01X901695Y4543366D03*
G01X901695Y4797366D03*
G01X901695Y5051366D03*
G54D17*
G01X901695Y5305366D03*
G01X901695Y5559366D03*
G54D16*
G01X901695Y5813366D03*
G01X901695Y6067366D03*
G01X901695Y6321366D03*
G01X2679695Y1495366D03*
G01X2679695Y1749366D03*
G01X2679695Y2003366D03*
G01X2679695Y2257366D03*
G01X2679695Y2511366D03*
G01X2679695Y2765366D03*
G01X2679695Y3019366D03*
G01X2679695Y3273366D03*
G01X2679695Y3527366D03*
G01X2679695Y3781366D03*
G01X2679695Y4035366D03*
G01X2679695Y4289366D03*
G01X2679695Y4543366D03*
G01X2679695Y4797366D03*
G01X2679695Y5051366D03*
G01X2679695Y5305366D03*
G01X2679695Y5559366D03*
G54D17*
G01X2679695Y5813366D03*
G01X2679695Y6067366D03*
G54D16*
G01X2679695Y6321366D03*
G54D19*
G01X4946396Y3019108D03*
G01X4756404Y3019108D03*
G01X4851400Y2772093D03*
G01X4946396Y5343208D03*
G01X4756404Y5343208D03*
G01X4851400Y5096193D03*
G01X4946396Y771208D03*
G01X4756404Y771208D03*
G01X4851400Y524193D03*
G04 Pad End*

M02*

