;TYPE=PLATED
;Layer: PTH_Through
;EasyEDA Pro v2.2.47.7, 2026-04-22 09:12:31
;Gerber Generator version 0.3
M48
METRIC,LZ,0000.00000
;Hole size 1 = 0.30500 METRIC
T01C0.30500
%
G05
G90
T01
X15.16689Y-28.78264
X15.879Y-30.038
X20.32Y-31.313
X20.32Y-28.78264
X21.717Y-27.513
X15.12678Y-31.32475
X18.08924Y-31.39326
X18.83973Y-31.39333
X18.08924Y-27.44625
X18.83973Y-27.44625
X12.56577Y-34.544
X12.56577Y-31.242
X12.56577Y-28.829
X12.56577Y-27.93833
X12.56577Y-25.60836
X12.56577Y-22.733
X0.23586Y-32.9565
X0.23586Y-33.5915
X-0.41729Y-32.9565
X-0.41729Y-33.5915
X-1.07043Y-32.9565
X-1.07043Y-33.5915
X-1.72357Y-32.9565
X-1.72357Y-33.5915
X0.889Y-32.9565
X0.889Y-33.5915
X-2.37671Y-32.9565
X-2.37671Y-33.5915
X-3.02986Y-32.9565
X-3.02986Y-33.5915
X-3.683Y-32.9565
X-3.683Y-33.5915
X-3.683Y-35.4965
X-3.683Y-36.1315
X-3.02986Y-35.4965
X-2.37671Y-35.4965
X-3.02986Y-36.1315
X-2.37671Y-36.1315
X-1.72357Y-36.1315
X-1.72357Y-35.4965
X-1.07043Y-35.4965
X-1.07043Y-36.1315
X-0.41729Y-36.1315
X-0.41729Y-35.4965
X0.23586Y-35.4965
X0.23586Y-36.1315
X0.889Y-36.1315
X0.889Y-35.4965
X18.09009Y-28.19184
X18.84057Y-28.19184
X18.08705Y-30.69351
X18.83753Y-30.69359
X12.52776Y-33.78275
X12.57073Y-26.40815
X12.57073Y-23.49028
X12.57075Y-32.03128
X6.10285Y-34.69825
X6.10066Y-33.99851
X6.85115Y-33.99859
X6.85334Y-34.69833
X2.9171Y-34.72122
X3.66758Y-34.72122
X3.66674Y-33.97562
X2.91625Y-33.97562
X21.04743Y-27.51475
X15.85744Y-31.32475
X16.575Y-31.325
X20.36031Y-27.51475
M30