G04 Layer: BottomPasteMaskLayer*
G04 EasyEDA Pro v2.2.47.7, 2026-04-22 09:12:31*
G04 Gerber Generator version 0.3*
G04 Scale: 100 percent, Rotated: No, Reflected: No*
G04 Dimensions in millimeters*
G04 Leading zeros omitted, absolute positions, 4 integers and 5 decimals*
G04 Generated by one-click*
G04 Object Configs: Pad,Via,Track,Text,Image,Dimension,BoardOutline,BoardCutout,CopperFilled,SolidRegion,FPCStiffener,Line,PlaneZone,ComponentProperty,ComponentSilkscreen,TearDrop*
G04 Layer Configs: 1,15,16,2,3,4,5,6,7,8,9,10,11,13,14,56*
G04 Copper Areas: 0*
%FSLAX45Y45*%
%MOMM*%
%ADD10R,7.2X1.8*%
%ADD11C,0.7249*%
G75*


G04 PolygonModel Start*
G36*
G01X1920394Y-3026976D02*
G01X1883368Y-3026976D01*
G01X1873368Y-3036976D01*
G01X1873368Y-3067467D01*
G01X1863368Y-3077467D01*
G01X1824618Y-3077467D01*
G01X1814618Y-3067467D01*
G01X1814618Y-3036976D01*
G01X1804618Y-3026976D01*
G01X1767592Y-3026976D01*
G01X1757592Y-3036976D01*
G01X1757592Y-3165475D01*
G01X1767592Y-3175475D01*
G01X1920394Y-3175475D01*
G01X1930394Y-3165475D01*
G01X1930394Y-3036976D01*
G01X1920394Y-3026976D01*
G37*
G36*
G01X1920394Y-2856974D02*
G01X1883368Y-2856974D01*
G01X1873368Y-2846974D01*
G01X1873368Y-2816484D01*
G01X1863368Y-2806484D01*
G01X1824618Y-2806484D01*
G01X1814618Y-2816484D01*
G01X1814618Y-2846974D01*
G01X1804618Y-2856974D01*
G01X1767592Y-2856974D01*
G01X1757592Y-2846974D01*
G01X1757592Y-2718476D01*
G01X1767592Y-2708476D01*
G01X1920394Y-2708476D01*
G01X1930394Y-2718476D01*
G01X1930394Y-2846974D01*
G01X1920394Y-2856974D01*
G37*
G36*
G01X397605Y-2386449D02*
G01X397605Y-2350318D01*
G01X387605Y-2340318D01*
G01X366549Y-2340318D01*
G01X356549Y-2330318D01*
G01X356549Y-2292482D01*
G01X366549Y-2282482D01*
G01X387605Y-2282482D01*
G01X397605Y-2272482D01*
G01X397605Y-2236351D01*
G01X387605Y-2226351D01*
G01X286854Y-2226351D01*
G01X276854Y-2236351D01*
G01X276854Y-2386449D01*
G01X286854Y-2396449D01*
G01X387605Y-2396449D01*
G01X397605Y-2386449D01*
G37*
G36*
G01X572606Y-2386449D02*
G01X572606Y-2350318D01*
G01X582606Y-2340318D01*
G01X603663Y-2340318D01*
G01X613663Y-2330318D01*
G01X613663Y-2292482D01*
G01X603663Y-2282482D01*
G01X582606Y-2282482D01*
G01X572606Y-2272482D01*
G01X572606Y-2236351D01*
G01X582606Y-2226351D01*
G01X683358Y-2226351D01*
G01X693358Y-2236351D01*
G01X693358Y-2386449D01*
G01X683358Y-2396449D01*
G01X582606Y-2396449D01*
G01X572606Y-2386449D01*
G37*
G36*
G01X397605Y-2635885D02*
G01X397605Y-2599754D01*
G01X387605Y-2589754D01*
G01X366549Y-2589754D01*
G01X356549Y-2579754D01*
G01X356549Y-2541918D01*
G01X366549Y-2531918D01*
G01X387605Y-2531918D01*
G01X397605Y-2521918D01*
G01X397605Y-2485786D01*
G01X387605Y-2475787D01*
G01X286854Y-2475787D01*
G01X276854Y-2485786D01*
G01X276854Y-2635885D01*
G01X286854Y-2645885D01*
G01X387605Y-2645885D01*
G01X397605Y-2635885D01*
G37*
G36*
G01X572606Y-2635885D02*
G01X572606Y-2599754D01*
G01X582606Y-2589754D01*
G01X603663Y-2589754D01*
G01X613663Y-2579754D01*
G01X613663Y-2541918D01*
G01X603663Y-2531918D01*
G01X582606Y-2531918D01*
G01X572606Y-2521918D01*
G01X572606Y-2485786D01*
G01X582606Y-2475787D01*
G01X683358Y-2475787D01*
G01X693358Y-2485786D01*
G01X693358Y-2635885D01*
G01X683358Y-2645885D01*
G01X582606Y-2645885D01*
G01X572606Y-2635885D01*
G37*
G36*
G01X397605Y-2894449D02*
G01X397605Y-2858318D01*
G01X387605Y-2848318D01*
G01X366549Y-2848318D01*
G01X356549Y-2838318D01*
G01X356549Y-2800482D01*
G01X366549Y-2790482D01*
G01X387605Y-2790482D01*
G01X397605Y-2780482D01*
G01X397605Y-2744351D01*
G01X387605Y-2734351D01*
G01X286854Y-2734351D01*
G01X276854Y-2744351D01*
G01X276854Y-2894449D01*
G01X286854Y-2904449D01*
G01X387605Y-2904449D01*
G01X397605Y-2894449D01*
G37*
G36*
G01X572606Y-2894449D02*
G01X572606Y-2858318D01*
G01X582606Y-2848318D01*
G01X603663Y-2848318D01*
G01X613663Y-2838318D01*
G01X613663Y-2800482D01*
G01X603663Y-2790482D01*
G01X582606Y-2790482D01*
G01X572606Y-2780482D01*
G01X572606Y-2744351D01*
G01X582606Y-2734351D01*
G01X683358Y-2734351D01*
G01X693358Y-2744351D01*
G01X693358Y-2894449D01*
G01X683358Y-2904449D01*
G01X582606Y-2904449D01*
G01X572606Y-2894449D01*
G37*
G36*
G01X397605Y-3148584D02*
G01X397605Y-3112452D01*
G01X387605Y-3102453D01*
G01X366549Y-3102453D01*
G01X356549Y-3092453D01*
G01X356549Y-3054617D01*
G01X366549Y-3044617D01*
G01X387605Y-3044617D01*
G01X397605Y-3034617D01*
G01X397605Y-2998485D01*
G01X387605Y-2988485D01*
G01X286854Y-2988485D01*
G01X276854Y-2998485D01*
G01X276854Y-3148584D01*
G01X286854Y-3158584D01*
G01X387605Y-3158584D01*
G01X397605Y-3148584D01*
G37*
G36*
G01X572606Y-3148584D02*
G01X572606Y-3112452D01*
G01X582606Y-3102453D01*
G01X603663Y-3102453D01*
G01X613663Y-3092453D01*
G01X613663Y-3054617D01*
G01X603663Y-3044617D01*
G01X582606Y-3044617D01*
G01X572606Y-3034617D01*
G01X572606Y-2998485D01*
G01X582606Y-2988485D01*
G01X683358Y-2988485D01*
G01X693358Y-2998485D01*
G01X693358Y-3148584D01*
G01X683358Y-3158584D01*
G01X582606Y-3158584D01*
G01X572606Y-3148584D01*
G37*
G36*
G01X1189077Y-3087251D02*
G01X1189077Y-3123382D01*
G01X1199077Y-3133382D01*
G01X1220133Y-3133382D01*
G01X1230133Y-3143382D01*
G01X1230133Y-3181218D01*
G01X1220133Y-3191218D01*
G01X1199077Y-3191218D01*
G01X1189077Y-3201218D01*
G01X1189077Y-3237349D01*
G01X1199077Y-3247349D01*
G01X1299828Y-3247349D01*
G01X1309828Y-3237349D01*
G01X1309828Y-3087251D01*
G01X1299828Y-3077251D01*
G01X1199077Y-3077251D01*
G01X1189077Y-3087251D01*
G37*
G36*
G01X1014076Y-3087251D02*
G01X1014076Y-3123382D01*
G01X1004076Y-3133382D01*
G01X983019Y-3133382D01*
G01X973019Y-3143382D01*
G01X973019Y-3181218D01*
G01X983019Y-3191218D01*
G01X1004076Y-3191218D01*
G01X1014076Y-3201218D01*
G01X1014076Y-3237349D01*
G01X1004076Y-3247349D01*
G01X903324Y-3247349D01*
G01X893324Y-3237349D01*
G01X893324Y-3087251D01*
G01X903324Y-3077251D01*
G01X1004076Y-3077251D01*
G01X1014076Y-3087251D01*
G37*
G36*
G01X1189077Y-2807851D02*
G01X1189077Y-2843982D01*
G01X1199077Y-2853982D01*
G01X1220133Y-2853982D01*
G01X1230133Y-2863982D01*
G01X1230133Y-2901818D01*
G01X1220133Y-2911818D01*
G01X1199077Y-2911818D01*
G01X1189077Y-2921818D01*
G01X1189077Y-2957949D01*
G01X1199077Y-2967949D01*
G01X1299828Y-2967949D01*
G01X1309828Y-2957949D01*
G01X1309828Y-2807851D01*
G01X1299828Y-2797851D01*
G01X1199077Y-2797851D01*
G01X1189077Y-2807851D01*
G37*
G36*
G01X1014076Y-2807851D02*
G01X1014076Y-2843982D01*
G01X1004076Y-2853982D01*
G01X983019Y-2853982D01*
G01X973019Y-2863982D01*
G01X973019Y-2901818D01*
G01X983019Y-2911818D01*
G01X1004076Y-2911818D01*
G01X1014076Y-2921818D01*
G01X1014076Y-2957949D01*
G01X1004076Y-2967949D01*
G01X903324Y-2967949D01*
G01X893324Y-2957949D01*
G01X893324Y-2807851D01*
G01X903324Y-2797851D01*
G01X1004076Y-2797851D01*
G01X1014076Y-2807851D01*
G37*
G36*
G01X1189077Y-2523886D02*
G01X1189077Y-2560018D01*
G01X1199077Y-2570018D01*
G01X1220133Y-2570018D01*
G01X1230133Y-2580018D01*
G01X1230133Y-2617854D01*
G01X1220133Y-2627854D01*
G01X1199077Y-2627854D01*
G01X1189077Y-2637854D01*
G01X1189077Y-2673985D01*
G01X1199077Y-2683985D01*
G01X1299828Y-2683985D01*
G01X1309828Y-2673985D01*
G01X1309828Y-2523886D01*
G01X1299828Y-2513887D01*
G01X1199077Y-2513887D01*
G01X1189077Y-2523886D01*
G37*
G36*
G01X1014076Y-2523886D02*
G01X1014076Y-2560018D01*
G01X1004076Y-2570018D01*
G01X983019Y-2570018D01*
G01X973019Y-2580018D01*
G01X973019Y-2617854D01*
G01X983019Y-2627854D01*
G01X1004076Y-2627854D01*
G01X1014076Y-2637854D01*
G01X1014076Y-2673985D01*
G01X1004076Y-2683985D01*
G01X903324Y-2683985D01*
G01X893324Y-2673985D01*
G01X893324Y-2523886D01*
G01X903324Y-2513887D01*
G01X1004076Y-2513887D01*
G01X1014076Y-2523886D01*
G37*
G36*
G01X1189077Y-2236351D02*
G01X1189077Y-2272482D01*
G01X1199077Y-2282482D01*
G01X1220133Y-2282482D01*
G01X1230133Y-2292482D01*
G01X1230133Y-2330318D01*
G01X1220133Y-2340318D01*
G01X1199077Y-2340318D01*
G01X1189077Y-2350318D01*
G01X1189077Y-2386449D01*
G01X1199077Y-2396449D01*
G01X1299828Y-2396449D01*
G01X1309828Y-2386449D01*
G01X1309828Y-2236351D01*
G01X1299828Y-2226351D01*
G01X1199077Y-2226351D01*
G01X1189077Y-2236351D01*
G37*
G36*
G01X1014076Y-2236351D02*
G01X1014076Y-2272482D01*
G01X1004076Y-2282482D01*
G01X983019Y-2282482D01*
G01X973019Y-2292482D01*
G01X973019Y-2330318D01*
G01X983019Y-2340318D01*
G01X1004076Y-2340318D01*
G01X1014076Y-2350318D01*
G01X1014076Y-2386449D01*
G01X1004076Y-2396449D01*
G01X903324Y-2396449D01*
G01X893324Y-2386449D01*
G01X893324Y-2236351D01*
G01X903324Y-2226351D01*
G01X1004076Y-2226351D01*
G01X1014076Y-2236351D01*
G37*

G04 Pad Start*
G54D10*
G01X-215900Y-3581400D03*
G01X-215900Y-3073400D03*
G01X-215900Y-2819400D03*
G01X-215900Y-2560836D03*
G01X-215900Y-2311400D03*
G01X-215900Y-3327400D03*
G04 Pad End*

M02*

