G04 Layer: TopPasteMaskLayer*
G04 EasyEDA Pro v2.2.47.7, 2026-04-22 09:12:31*
G04 Gerber Generator version 0.3*
G04 Scale: 100 percent, Rotated: No, Reflected: No*
G04 Dimensions in millimeters*
G04 Leading zeros omitted, absolute positions, 4 integers and 5 decimals*
G04 Generated by one-click*
G04 Object Configs: Pad,Via,Track,Text,Image,Dimension,BoardOutline,BoardCutout,CopperFilled,SolidRegion,FPCStiffener,Line,PlaneZone,ComponentProperty,ComponentSilkscreen,TearDrop*
G04 Layer Configs: 1,15,16,2,3,4,5,6,7,8,9,10,11,13,14,56*
G04 Copper Areas: 0*
%FSLAX45Y45*%
%MOMM*%
%ADD10R,7.2X1.8*%
%ADD11O,2.045X0.58801*%
%ADD12C,0.5817*%
G75*


G04 PolygonModel Start*
G36*
G01X573443Y-3511243D02*
G01X573443Y-3474217D01*
G01X583443Y-3464217D01*
G01X613933Y-3464217D01*
G01X623933Y-3454217D01*
G01X623933Y-3415467D01*
G01X613933Y-3405467D01*
G01X583443Y-3405467D01*
G01X573443Y-3395467D01*
G01X573443Y-3358441D01*
G01X583443Y-3348441D01*
G01X711942Y-3348441D01*
G01X721942Y-3358441D01*
G01X721942Y-3511243D01*
G01X711942Y-3521243D01*
G01X583443Y-3521243D01*
G01X573443Y-3511243D01*
G37*
G36*
G01X403441Y-3511243D02*
G01X403441Y-3474217D01*
G01X393441Y-3464217D01*
G01X362951Y-3464217D01*
G01X352951Y-3454217D01*
G01X352951Y-3415467D01*
G01X362951Y-3405467D01*
G01X393441Y-3405467D01*
G01X403441Y-3395467D01*
G01X403441Y-3358441D01*
G01X393441Y-3348441D01*
G01X264942Y-3348441D01*
G01X254942Y-3358441D01*
G01X254942Y-3511243D01*
G01X264942Y-3521243D01*
G01X393441Y-3521243D01*
G01X403441Y-3511243D01*
G37*
G36*
G01X404346Y-2998351D02*
G01X404346Y-3034482D01*
G01X394346Y-3044482D01*
G01X373290Y-3044482D01*
G01X363290Y-3054482D01*
G01X363290Y-3092318D01*
G01X373290Y-3102318D01*
G01X394346Y-3102318D01*
G01X404346Y-3112318D01*
G01X404346Y-3148449D01*
G01X394346Y-3158449D01*
G01X293595Y-3158449D01*
G01X283595Y-3148449D01*
G01X283595Y-2998351D01*
G01X293595Y-2988351D01*
G01X394346Y-2988351D01*
G01X404346Y-2998351D01*
G37*
G36*
G01X579347Y-2998351D02*
G01X579347Y-3034482D01*
G01X589347Y-3044482D01*
G01X610404Y-3044482D01*
G01X620404Y-3054482D01*
G01X620404Y-3092318D01*
G01X610404Y-3102318D01*
G01X589347Y-3102318D01*
G01X579347Y-3112318D01*
G01X579347Y-3148449D01*
G01X589347Y-3158449D01*
G01X690099Y-3158449D01*
G01X700099Y-3148449D01*
G01X700099Y-2998351D01*
G01X690099Y-2988351D01*
G01X589347Y-2988351D01*
G01X579347Y-2998351D01*
G37*
G36*
G01X404346Y-2744351D02*
G01X404346Y-2780482D01*
G01X394346Y-2790482D01*
G01X373290Y-2790482D01*
G01X363290Y-2800482D01*
G01X363290Y-2838318D01*
G01X373290Y-2848318D01*
G01X394346Y-2848318D01*
G01X404346Y-2858318D01*
G01X404346Y-2894449D01*
G01X394346Y-2904449D01*
G01X293595Y-2904449D01*
G01X283595Y-2894449D01*
G01X283595Y-2744351D01*
G01X293595Y-2734351D01*
G01X394346Y-2734351D01*
G01X404346Y-2744351D01*
G37*
G36*
G01X579347Y-2744351D02*
G01X579347Y-2780482D01*
G01X589347Y-2790482D01*
G01X610404Y-2790482D01*
G01X620404Y-2800482D01*
G01X620404Y-2838318D01*
G01X610404Y-2848318D01*
G01X589347Y-2848318D01*
G01X579347Y-2858318D01*
G01X579347Y-2894449D01*
G01X589347Y-2904449D01*
G01X690099Y-2904449D01*
G01X700099Y-2894449D01*
G01X700099Y-2744351D01*
G01X690099Y-2734351D01*
G01X589347Y-2734351D01*
G01X579347Y-2744351D01*
G37*
G36*
G01X1192400Y-2894449D02*
G01X1192400Y-2858318D01*
G01X1202400Y-2848318D01*
G01X1223457Y-2848318D01*
G01X1233457Y-2838318D01*
G01X1233457Y-2800482D01*
G01X1223457Y-2790482D01*
G01X1202400Y-2790482D01*
G01X1192400Y-2780482D01*
G01X1192400Y-2744351D01*
G01X1202400Y-2734351D01*
G01X1303152Y-2734351D01*
G01X1313152Y-2744351D01*
G01X1313152Y-2894449D01*
G01X1303152Y-2904449D01*
G01X1202400Y-2904449D01*
G01X1192400Y-2894449D01*
G37*
G36*
G01X1017400Y-2894449D02*
G01X1017400Y-2858318D01*
G01X1007400Y-2848318D01*
G01X986343Y-2848318D01*
G01X976343Y-2838318D01*
G01X976343Y-2800482D01*
G01X986343Y-2790482D01*
G01X1007400Y-2790482D01*
G01X1017400Y-2780482D01*
G01X1017400Y-2744351D01*
G01X1007400Y-2734351D01*
G01X906648Y-2734351D01*
G01X896648Y-2744351D01*
G01X896648Y-2894449D01*
G01X906648Y-2904449D01*
G01X1007400Y-2904449D01*
G01X1017400Y-2894449D01*
G37*
G36*
G01X1192400Y-3491349D02*
G01X1192400Y-3455218D01*
G01X1202400Y-3445218D01*
G01X1223457Y-3445218D01*
G01X1233457Y-3435218D01*
G01X1233457Y-3397382D01*
G01X1223457Y-3387382D01*
G01X1202400Y-3387382D01*
G01X1192400Y-3377382D01*
G01X1192400Y-3341251D01*
G01X1202400Y-3331251D01*
G01X1303152Y-3331251D01*
G01X1313152Y-3341251D01*
G01X1313152Y-3491349D01*
G01X1303152Y-3501349D01*
G01X1202400Y-3501349D01*
G01X1192400Y-3491349D01*
G37*
G36*
G01X1017400Y-3491349D02*
G01X1017400Y-3455218D01*
G01X1007400Y-3445218D01*
G01X986343Y-3445218D01*
G01X976343Y-3435218D01*
G01X976343Y-3397382D01*
G01X986343Y-3387382D01*
G01X1007400Y-3387382D01*
G01X1017400Y-3377382D01*
G01X1017400Y-3341251D01*
G01X1007400Y-3331251D01*
G01X906648Y-3331251D01*
G01X896648Y-3341251D01*
G01X896648Y-3491349D01*
G01X906648Y-3501349D01*
G01X1007400Y-3501349D01*
G01X1017400Y-3491349D01*
G37*

G04 Pad Start*
G54D10*
G01X-215900Y-3581400D03*
G01X-215900Y-3327400D03*
G01X-215900Y-3073400D03*
G01X-215900Y-2819400D03*
G01X-215900Y-2560836D03*
G01X-215900Y-2311400D03*
G54D11*
G01X2100990Y-3132475D03*
G01X2100990Y-3005475D03*
G01X2100990Y-2878475D03*
G01X2100990Y-2751475D03*
G01X1586996Y-3132475D03*
G01X1586996Y-3005475D03*
G01X1586996Y-2878475D03*
G01X1586996Y-2751475D03*
G04 Pad End*

M02*

