G04 Layer: TopLayer*
G04 EasyEDA Pro v2.2.47.7, 2026-04-22 09:12:31*
G04 Gerber Generator version 0.3*
G04 Scale: 100 percent, Rotated: No, Reflected: No*
G04 Dimensions in millimeters*
G04 Leading zeros omitted, absolute positions, 4 integers and 5 decimals*
G04 Generated by one-click*
G04 Object Configs: Pad,Via,Track,Text,Image,Dimension,BoardOutline,BoardCutout,CopperFilled,SolidRegion,FPCStiffener,Line,PlaneZone,ComponentProperty,ComponentSilkscreen,TearDrop*
G04 Layer Configs: 1,15,16,2,3,4,5,6,7,8,9,10,11,13,14,56*
G04 Copper Areas: 0*
%FSLAX45Y45*%
%MOMM*%
%ADD10R,7.2X1.8*%
%ADD11R,1.48501X1.72799*%
%ADD12R,1.20752X1.70101*%
%ADD13O,2.045X0.58801*%
%ADD14C,0.61*%
%ADD15C,0.2509*%
%ADD16C,0.254*%
G75*


G04 Pad Start*
G54D10*
G01X-215900Y-3581400D03*
G01X-215900Y-3327400D03*
G01X-215900Y-3073400D03*
G01X-215900Y-2819400D03*
G01X-215900Y-2560836D03*
G01X-215900Y-2311400D03*
G54D11*
G01X647700Y-3434842D03*
G01X329184Y-3434842D03*
G54D12*
G01X343968Y-3073400D03*
G01X639726Y-3073400D03*
G01X343968Y-2819400D03*
G01X639726Y-2819400D03*
G01X1252779Y-2819400D03*
G01X957021Y-2819400D03*
G01X1252779Y-3416300D03*
G01X957021Y-3416300D03*
G54D13*
G01X2100990Y-3132475D03*
G01X2100990Y-3005475D03*
G01X2100990Y-2878475D03*
G01X2100990Y-2751475D03*
G01X1586996Y-3132475D03*
G01X1586996Y-3005475D03*
G01X1586996Y-2878475D03*
G01X1586996Y-2751475D03*
G04 Pad End*

G04 Via Start*
G54D14*
G01X1516689Y-2878264D03*
G01X1587900Y-3003800D03*
G01X2032000Y-3131300D03*
G01X2032000Y-2878264D03*
G01X2171700Y-2751300D03*
G01X1512678Y-3132475D03*
G01X1808924Y-3139326D03*
G01X1883973Y-3139333D03*
G01X1808924Y-2744625D03*
G01X1883973Y-2744625D03*
G01X1256577Y-3454400D03*
G01X1256577Y-3124200D03*
G01X1256577Y-2882900D03*
G01X1256577Y-2793833D03*
G01X1256577Y-2560836D03*
G01X1256577Y-2273300D03*
G01X23586Y-3295650D03*
G01X23586Y-3359150D03*
G01X-41729Y-3295650D03*
G01X-41729Y-3359150D03*
G01X-107043Y-3295650D03*
G01X-107043Y-3359150D03*
G01X-172357Y-3295650D03*
G01X-172357Y-3359150D03*
G01X88900Y-3295650D03*
G01X88900Y-3359150D03*
G01X-237671Y-3295650D03*
G01X-237671Y-3359150D03*
G01X-302986Y-3295650D03*
G01X-302986Y-3359150D03*
G01X-368300Y-3295650D03*
G01X-368300Y-3359150D03*
G01X-368300Y-3549650D03*
G01X-368300Y-3613150D03*
G01X-302986Y-3549650D03*
G01X-237671Y-3549650D03*
G01X-302986Y-3613150D03*
G01X-237671Y-3613150D03*
G01X-172357Y-3613150D03*
G01X-172357Y-3549650D03*
G01X-107043Y-3549650D03*
G01X-107043Y-3613150D03*
G01X-41729Y-3613150D03*
G01X-41729Y-3549650D03*
G01X23586Y-3549650D03*
G01X23586Y-3613150D03*
G01X88900Y-3613150D03*
G01X88900Y-3549650D03*
G01X1809009Y-2819184D03*
G01X1884057Y-2819184D03*
G01X1808705Y-3069351D03*
G01X1883753Y-3069359D03*
G01X1252776Y-3378275D03*
G01X1257073Y-2640815D03*
G01X1257073Y-2349028D03*
G01X1257075Y-3203128D03*
G01X610285Y-3469825D03*
G01X610066Y-3399851D03*
G01X685115Y-3399859D03*
G01X685334Y-3469833D03*
G01X291710Y-3472122D03*
G01X366758Y-3472122D03*
G01X366674Y-3397562D03*
G01X291625Y-3397562D03*
G01X2104743Y-2751475D03*
G01X1585744Y-3132475D03*
G01X1657500Y-3132500D03*
G01X2036031Y-2751475D03*
G04 Via End*

G04 Track Start*
G54D16*
G01X-215900Y-2819400D02*
G01X343968Y-2819400D01*
G01X-215900Y-3073400D02*
G01X343968Y-3073400D01*
G01X639726Y-2819400D02*
G01X957021Y-2819400D01*
G01X1067896Y-2819400D01*
G01X1369737Y-2751475D02*
G01X1586996Y-2751475D01*
G01X1962500Y-3172500D02*
G01X1962500Y-3016048D01*
G01X1964745Y-3013804D01*
G01X2092662Y-3013804D01*
G01X1858400Y-3276600D02*
G01X1962500Y-3172500D01*
G01X957021Y-3380479D02*
G01X1060900Y-3276600D01*
G01X1858400Y-3276600D01*
G01X623381Y-3095120D02*
G01X951652Y-3396470D01*
G01X1067896Y-2819400D02*
G01X1180847Y-2706449D01*
G01X1324711Y-2706449D01*
G01X1369737Y-2751475D01*
G04 Track End*

M02*

