G04 Layer: DrillDrawingLayer*
G04 EasyEDA Pro v2.2.47.7, 2026-04-22 09:12:31*
G04 Gerber Generator version 0.3*
G04 Scale: 100 percent, Rotated: No, Reflected: No*
G04 Dimensions in millimeters*
G04 Leading zeros omitted, absolute positions, 4 integers and 5 decimals*
G04 Generated by one-click*
G04 Object Configs: Pad,Via,Track,Text,Image,Dimension,BoardOutline,BoardCutout,CopperFilled,SolidRegion,FPCStiffener,Line,PlaneZone,ComponentProperty,ComponentSilkscreen,TearDrop*
G04 Layer Configs: 1,15,16,2,3,4,5,6,7,8,9,10,11,13,14,56*
G04 Copper Areas: 0*
%FSLAX45Y45*%
%MOMM*%
%AMIconRect*4,1,4,0.28,-0.28,-0.28,-0.28,-0.28,0.28,0.28,0.28,0.28,-0.28,0*4,0,4,0.233333,-0.233333,0.233333,0.233333,-0.233333,0.233333,-0.233333,-0.233333,0.233333,-0.233333,0*%
%ADD10IconRect*%
G75*


G04 Drill Drawing Start*
G54D10*
G01X-368300Y-3613150D03*
G01X-368300Y-3549650D03*
G01X-368300Y-3359150D03*
G01X-368300Y-3295650D03*
G01X-302986Y-3613150D03*
G01X-302986Y-3549650D03*
G01X-302986Y-3359150D03*
G01X-302986Y-3295650D03*
G01X-237671Y-3613150D03*
G01X-237671Y-3549650D03*
G01X-237671Y-3359150D03*
G01X-237671Y-3295650D03*
G01X-172357Y-3613150D03*
G01X-172357Y-3549650D03*
G01X-172357Y-3359150D03*
G01X-172357Y-3295650D03*
G01X-107043Y-3613150D03*
G01X-107043Y-3549650D03*
G01X-107043Y-3359150D03*
G01X-107043Y-3295650D03*
G01X-41729Y-3613150D03*
G01X-41729Y-3549650D03*
G01X-41729Y-3359150D03*
G01X-41729Y-3295650D03*
G01X23586Y-3613150D03*
G01X23586Y-3549650D03*
G01X23586Y-3359150D03*
G01X23586Y-3295650D03*
G01X88900Y-3613150D03*
G01X88900Y-3549650D03*
G01X88900Y-3359150D03*
G01X88900Y-3295650D03*
G01X291625Y-3397562D03*
G01X291710Y-3472122D03*
G01X366674Y-3397562D03*
G01X366758Y-3472122D03*
G01X610066Y-3399851D03*
G01X610285Y-3469825D03*
G01X685115Y-3399859D03*
G01X685334Y-3469833D03*
G01X1252776Y-3378275D03*
G01X1256577Y-3454400D03*
G01X1256577Y-3124200D03*
G01X1256577Y-2882900D03*
G01X1256577Y-2793833D03*
G01X1256577Y-2560836D03*
G01X1256577Y-2273300D03*
G01X1257073Y-2640815D03*
G01X1257073Y-2349028D03*
G01X1257075Y-3203128D03*
G01X1512678Y-3132475D03*
G01X1516689Y-2878264D03*
G01X1585744Y-3132475D03*
G01X1587900Y-3003800D03*
G01X1657500Y-3132500D03*
G01X1808705Y-3069351D03*
G01X1808924Y-3139326D03*
G01X1808924Y-2744625D03*
G01X1809009Y-2819184D03*
G01X1883753Y-3069359D03*
G01X1883973Y-3139333D03*
G01X1883973Y-2744625D03*
G01X1884057Y-2819184D03*
G01X2032000Y-3131300D03*
G01X2032000Y-2878264D03*
G01X2036031Y-2751475D03*
G01X2104743Y-2751475D03*
G01X2171700Y-2751300D03*
G04 Drill Drawing End*

M02*

