G04 Layer: TopSolderMaskLayer*
G04 EasyEDA Pro v3.2.148, 2026-08-07 17:33:20*
G04 Gerber Generator version 0.3*
G04 Scale: 100 percent, Rotated: No, Reflected: No*
G04 Dimensions in millimeters*
G04 Leading zeros omitted, absolute positions, 4 integers and 5 decimals*
G04 Generated by one-click*
G04 Object Configs: Pad,Via,Track,Text,Image,Dimension,BoardOutline,BoardCutout,CopperFilled,SolidRegion,FPCStiffener,Line,PlaneZone,ComponentProperty,ComponentSilkscreen,TearDrop*
G04 Layer Configs: 1,15,16,2,3,4,5,6,7,8,9,10,11,13,14,56*
G04 Copper Areas: 0*
%FSLAX45Y45*%
%MOMM*%
%AMRoundRect*1,1,$1,$2,$3*1,1,$1,$4,$5*1,1,$1,0-$2,0-$3*1,1,$1,0-$4,0-$5*20,1,$1,$2,$3,$4,$5,0*20,1,$1,$4,$5,0-$2,0-$3,0*20,1,$1,0-$2,0-$3,0-$4,0-$5,0*20,1,$1,0-$4,0-$5,$2,$3,0*4,1,4,$2,$3,$4,$5,0-$2,0-$3,0-$4,0-$5,$2,$3,0*%
%ADD10RoundRect,0.1016X-1.75X0.6X1.75X0.6*%
%ADD11RoundRect,0.1016X-0.86399X-0.74251X-0.86399X0.74251*%
%ADD12RoundRect,0.1016X-0.47501X0.57501X0.47501X0.57501*%
%ADD13RoundRect,0.1016X-0.74251X1.3905X0.74251X1.3905*%
%ADD14C,1.7016*%
%ADD15RoundRect,0.1016X-0.8X-0.8X-0.8X0.8*%
%ADD16C,1.9016*%
%ADD17RoundRect,0.1016X-0.74251X0.86399X0.74251X0.86399*%
%ADD18C,1.8005*%
%ADD19C,1.8016*%
%ADD20RoundRect,0.1016X-0.85X0.762X0.85X0.762*%
%ADD21RoundRect,0.1016X-0.8X0.8X0.8X0.8*%
%ADD22RoundRect,0.1016X-0.535X0.3X0.535X0.3*%
G75*


G04 Pad Start*
G54D10*
G01X4314943Y678152D03*
G01X3780959Y678152D03*
G54D11*
G01X4769260Y775820D03*
G01X4769260Y457304D03*
G54D12*
G01X6007891Y830552D03*
G01X5669411Y830552D03*
G54D13*
G01X5414446Y830552D03*
G01X5094456Y830552D03*
G54D14*
G01X9326432Y689145D03*
G01X9072432Y689145D03*
G54D15*
G01X9326432Y943145D03*
G54D14*
G01X9072432Y943145D03*
G54D15*
G01X9326432Y1197145D03*
G54D14*
G01X9072432Y1197145D03*
G01X9326432Y1451145D03*
G01X9072432Y1451145D03*
G54D16*
G01X9326432Y1730545D03*
G01X9072432Y1730545D03*
G54D17*
G01X8455601Y2360471D03*
G01X8774117Y2360471D03*
G01X8760690Y1684742D03*
G01X8442174Y1684742D03*
G54D19*
G01X2362200Y1193800D03*
G01X2362200Y1447800D03*
G01X2616200Y1193800D03*
G01X2616200Y1447800D03*
G01X2870200Y1193800D03*
G01X2870200Y1447800D03*
G01X3124200Y1193800D03*
G01X3124200Y1447800D03*
G01X3378200Y1193800D03*
G01X3378200Y1447800D03*
G01X3632200Y1193800D03*
G01X3632200Y1447800D03*
G01X3886200Y1193800D03*
G01X3886200Y1447800D03*
G01X4140200Y1193800D03*
G01X4140200Y1447800D03*
G01X4394200Y1193800D03*
G01X4394200Y1447800D03*
G01X4648200Y1193800D03*
G01X4648200Y1447800D03*
G01X4902200Y1193800D03*
G01X4902200Y1447800D03*
G01X5156200Y1193800D03*
G01X5156200Y1447800D03*
G01X5410200Y1193800D03*
G01X5410200Y1447800D03*
G01X5664200Y1193800D03*
G01X5664200Y1447800D03*
G01X5918200Y1193800D03*
G01X5918200Y1447800D03*
G01X6172200Y1193800D03*
G01X6172200Y1447800D03*
G01X6426200Y1193800D03*
G01X6426200Y1447800D03*
G01X6680200Y1193800D03*
G01X6680200Y1447800D03*
G01X6934200Y1193800D03*
G01X6934200Y1447800D03*
G01X7188200Y1193800D03*
G54D20*
G01X7188200Y1447800D03*
G54D11*
G01X9448800Y2877058D03*
G01X9448800Y2558542D03*
G01X9182100Y2558542D03*
G01X9182100Y2877058D03*
G01X7118213Y2531200D03*
G01X7118213Y2849716D03*
G01X6868013Y2531200D03*
G01X6868013Y2849716D03*
G01X4864100Y2536271D03*
G01X4864100Y2854787D03*
G01X4552442Y2536271D03*
G01X4552442Y2854787D03*
G01X2552700Y2523571D03*
G01X2552700Y2842087D03*
G01X2257913Y2523571D03*
G01X2257913Y2842087D03*
G54D14*
G01X7619997Y3314700D03*
G01X7619997Y3060700D03*
G01X7873997Y3314700D03*
G01X7873997Y3060700D03*
G01X8127997Y3314700D03*
G01X8127997Y3060700D03*
G01X8381997Y3314700D03*
G01X8381997Y3060700D03*
G54D21*
G01X8635997Y3314700D03*
G01X8635997Y3060700D03*
G54D14*
G01X8889997Y3314700D03*
G01X8889997Y3060700D03*
G01X5333997Y3314700D03*
G01X5333997Y3060700D03*
G01X5587997Y3314700D03*
G01X5587997Y3060700D03*
G01X5841997Y3314700D03*
G01X5841997Y3060700D03*
G01X6095997Y3314700D03*
G01X6095997Y3060700D03*
G54D21*
G01X6349997Y3314700D03*
G01X6349997Y3060700D03*
G54D14*
G01X6603997Y3314700D03*
G01X6603997Y3060700D03*
G01X4318003Y3314700D03*
G01X4318003Y3060700D03*
G54D21*
G01X4064003Y3314700D03*
G01X4064003Y3060700D03*
G54D14*
G01X3810003Y3314700D03*
G01X3810003Y3060700D03*
G01X3556003Y3314700D03*
G01X3556003Y3060700D03*
G01X3302003Y3314700D03*
G01X3302003Y3060700D03*
G01X3048003Y3314700D03*
G01X3048003Y3060700D03*
G01X2032003Y3314700D03*
G01X2032003Y3060700D03*
G54D21*
G01X1778003Y3314700D03*
G01X1778003Y3060700D03*
G54D14*
G01X1524003Y3314700D03*
G01X1524003Y3060700D03*
G01X1270003Y3314700D03*
G01X1270003Y3060700D03*
G01X1016003Y3314700D03*
G01X1016003Y3060700D03*
G01X762003Y3314700D03*
G01X762003Y3060700D03*
G54D22*
G01X9109393Y3308096D03*
G01X9109393Y3118104D03*
G01X9356408Y3213100D03*
G01X6874193Y3308096D03*
G01X6874193Y3118104D03*
G01X7121208Y3213100D03*
G01X4562793Y3308096D03*
G01X4562793Y3118104D03*
G01X4809808Y3213100D03*
G01X2302193Y3295396D03*
G01X2302193Y3105404D03*
G01X2549208Y3200400D03*
G01X8446576Y2110516D03*
G01X8446576Y1920524D03*
G01X8693591Y2015520D03*
G04 Pad End*

M02*

