G04 Layer: BottomSilkscreenLayer*
G04 EasyEDA Pro v3.2.148, 2026-08-07 17:33:20*
G04 Gerber Generator version 0.3*
G04 Scale: 100 percent, Rotated: No, Reflected: No*
G04 Dimensions in millimeters*
G04 Leading zeros omitted, absolute positions, 4 integers and 5 decimals*
G04 Generated by one-click*
G04 Object Configs: Pad,Via,Track,Text,Image,Dimension,BoardOutline,BoardCutout,CopperFilled,SolidRegion,FPCStiffener,Line,PlaneZone,ComponentProperty,ComponentSilkscreen,TearDrop*
G04 Layer Configs: 1,15,16,2,3,4,5,6,7,8,9,10,11,13,14,56*
G04 Copper Areas: 0*
%FSLAX45Y45*%
%MOMM*%
%ADD10C,0.203*%
%ADD11C,0.14*%
%ADD12C,0.0032*%
G75*


G04 Text Start*
G54D10*
G01X9321924Y2751485D02*
G01X9310748Y2757073D01*
G01X9293730Y2773837D01*
G01X9293730Y2655981D01*
G01X9246486Y2751485D02*
G01X9235310Y2757073D01*
G01X9218292Y2773837D01*
G01X9218292Y2655981D01*
G01X9159872Y2678333D02*
G01X9165460Y2672745D01*
G01X9171048Y2678333D01*
G01X9165460Y2683921D01*
G01X9159872Y2678333D01*
G01X9159872Y2667157D01*
G01X9171048Y2655981D01*
G01X8986898Y2751485D02*
G01X8975722Y2757073D01*
G01X8958704Y2773837D01*
G01X8958704Y2655981D01*
G01X8877678Y2773837D02*
G01X8894696Y2768249D01*
G01X8905872Y2751485D01*
G01X8911460Y2723291D01*
G01X8911460Y2706527D01*
G01X8905872Y2678333D01*
G01X8894696Y2661569D01*
G01X8877678Y2655981D01*
G01X8866502Y2655981D01*
G01X8849738Y2661569D01*
G01X8838562Y2678333D01*
G01X8832720Y2706527D01*
G01X8832720Y2723291D01*
G01X8838562Y2751485D01*
G01X8849738Y2768249D01*
G01X8866502Y2773837D01*
G01X8877678Y2773837D01*
G01X8751694Y2773837D02*
G01X8768712Y2768249D01*
G01X8779888Y2751485D01*
G01X8785476Y2723291D01*
G01X8785476Y2706527D01*
G01X8779888Y2678333D01*
G01X8768712Y2661569D01*
G01X8751694Y2655981D01*
G01X8740518Y2655981D01*
G01X8723754Y2661569D01*
G01X8712578Y2678333D01*
G01X8706736Y2706527D01*
G01X8706736Y2723291D01*
G01X8712578Y2751485D01*
G01X8723754Y2768249D01*
G01X8740518Y2773837D01*
G01X8751694Y2773837D01*
G01X8659492Y2734467D02*
G01X8659492Y2655981D01*
G01X8659492Y2712115D02*
G01X8642728Y2728879D01*
G01X8631298Y2734467D01*
G01X8614534Y2734467D01*
G01X8603358Y2728879D01*
G01X8597770Y2712115D01*
G01X8597770Y2655981D01*
G01X8550526Y2773837D02*
G01X8550526Y2655981D01*
G01X8550526Y2773837D02*
G01X8477628Y2773837D01*
G01X8550526Y2717703D02*
G01X8505568Y2717703D01*
G01X8304654Y2773837D02*
G01X8225914Y2655981D01*
G01X8225914Y2773837D02*
G01X8304654Y2655981D01*
G01X8099930Y2773837D02*
G01X8156318Y2655981D01*
G01X8178670Y2773837D02*
G01X8099930Y2773837D01*
G01X8052686Y2773837D02*
G01X8052686Y2655981D01*
G01X8052686Y2773837D02*
G01X8002140Y2773837D01*
G01X7985376Y2768249D01*
G01X7979788Y2762661D01*
G01X7973946Y2751485D01*
G01X7973946Y2740055D01*
G01X7979788Y2728879D01*
G01X7985376Y2723291D01*
G01X8002140Y2717703D01*
G01X8052686Y2717703D01*
G01X8013316Y2717703D02*
G01X7973946Y2655981D01*
G01X7800972Y2751485D02*
G01X7789796Y2757073D01*
G01X7772778Y2773837D01*
G01X7772778Y2655981D01*
G01X7719946Y2745643D02*
G01X7719946Y2751485D01*
G01X7714358Y2762661D01*
G01X7708770Y2768249D01*
G01X7697340Y2773837D01*
G01X7674988Y2773837D01*
G01X7663812Y2768249D01*
G01X7658224Y2762661D01*
G01X7652636Y2751485D01*
G01X7652636Y2740055D01*
G01X7658224Y2728879D01*
G01X7669400Y2712115D01*
G01X7725534Y2655981D01*
G01X7646794Y2655981D01*
G01X7565768Y2773837D02*
G01X7582786Y2768249D01*
G01X7593962Y2751485D01*
G01X7599550Y2723291D01*
G01X7599550Y2706527D01*
G01X7593962Y2678333D01*
G01X7582786Y2661569D01*
G01X7565768Y2655981D01*
G01X7554592Y2655981D01*
G01X7537828Y2661569D01*
G01X7526652Y2678333D01*
G01X7520810Y2706527D01*
G01X7520810Y2723291D01*
G01X7526652Y2751485D01*
G01X7537828Y2768249D01*
G01X7554592Y2773837D01*
G01X7565768Y2773837D01*
G01X7406256Y2757073D02*
G01X7411844Y2768249D01*
G01X7428608Y2773837D01*
G01X7439784Y2773837D01*
G01X7456802Y2768249D01*
G01X7467978Y2751485D01*
G01X7473566Y2723291D01*
G01X7473566Y2695097D01*
G01X7467978Y2672745D01*
G01X7456802Y2661569D01*
G01X7439784Y2655981D01*
G01X7434196Y2655981D01*
G01X7417432Y2661569D01*
G01X7406256Y2672745D01*
G01X7400668Y2689509D01*
G01X7400668Y2695097D01*
G01X7406256Y2712115D01*
G01X7417432Y2723291D01*
G01X7434196Y2728879D01*
G01X7439784Y2728879D01*
G01X7456802Y2723291D01*
G01X7467978Y2712115D01*
G01X7473566Y2695097D01*
G01X7126602Y2796189D02*
G01X7227694Y2616611D01*
G01X6953628Y2751485D02*
G01X6942452Y2757073D01*
G01X6925434Y2773837D01*
G01X6925434Y2655981D01*
G01X6867014Y2678333D02*
G01X6872602Y2672745D01*
G01X6878190Y2678333D01*
G01X6872602Y2683921D01*
G01X6867014Y2678333D01*
G01X6867014Y2667157D01*
G01X6878190Y2655981D01*
G01X6637906Y2773837D02*
G01X6694040Y2695097D01*
G01X6609712Y2695097D01*
G01X6637906Y2773837D02*
G01X6637906Y2655981D01*
G01X6483728Y2773837D02*
G01X6540116Y2655981D01*
G01X6562468Y2773837D02*
G01X6483728Y2773837D01*
G01X6402702Y2773837D02*
G01X6419720Y2768249D01*
G01X6430896Y2751485D01*
G01X6436484Y2723291D01*
G01X6436484Y2706527D01*
G01X6430896Y2678333D01*
G01X6419720Y2661569D01*
G01X6402702Y2655981D01*
G01X6391526Y2655981D01*
G01X6374762Y2661569D01*
G01X6363586Y2678333D01*
G01X6357744Y2706527D01*
G01X6357744Y2723291D01*
G01X6363586Y2751485D01*
G01X6374762Y2768249D01*
G01X6391526Y2773837D01*
G01X6402702Y2773837D01*
G01X6310500Y2734467D02*
G01X6310500Y2678333D01*
G01X6304912Y2661569D01*
G01X6293736Y2655981D01*
G01X6276718Y2655981D01*
G01X6265542Y2661569D01*
G01X6248778Y2678333D01*
G01X6248778Y2734467D02*
G01X6248778Y2655981D01*
G01X6201534Y2773837D02*
G01X6201534Y2655981D01*
G01X6201534Y2773837D02*
G01X6128636Y2773837D01*
G01X6201534Y2717703D02*
G01X6156576Y2717703D01*
G01X5910704Y2773837D02*
G01X5955662Y2655981D01*
G01X5910704Y2773837D02*
G01X5865746Y2655981D01*
G01X5938644Y2695097D02*
G01X5882510Y2695097D01*
G01X5818502Y2773837D02*
G01X5818502Y2655981D01*
G01X5818502Y2655981D02*
G01X5751192Y2655981D01*
G01X5703948Y2773837D02*
G01X5703948Y2689509D01*
G01X5698360Y2672745D01*
G01X5687184Y2661569D01*
G01X5670166Y2655981D01*
G01X5658990Y2655981D01*
G01X5642226Y2661569D01*
G01X5631050Y2672745D01*
G01X5625208Y2689509D01*
G01X5625208Y2773837D01*
G01X5577964Y2773837D02*
G01X5577964Y2655981D01*
G01X5577964Y2773837D02*
G01X5533006Y2655981D01*
G01X5488048Y2773837D02*
G01X5533006Y2655981D01*
G01X5488048Y2773837D02*
G01X5488048Y2655981D01*
G01X5236334Y2757073D02*
G01X5247510Y2768249D01*
G01X5264528Y2773837D01*
G01X5286880Y2773837D01*
G01X5303898Y2768249D01*
G01X5315074Y2757073D01*
G01X5315074Y2745643D01*
G01X5309486Y2734467D01*
G01X5303898Y2728879D01*
G01X5292468Y2723291D01*
G01X5258940Y2712115D01*
G01X5247510Y2706527D01*
G01X5241922Y2700939D01*
G01X5236334Y2689509D01*
G01X5236334Y2672745D01*
G01X5247510Y2661569D01*
G01X5264528Y2655981D01*
G01X5286880Y2655981D01*
G01X5303898Y2661569D01*
G01X5315074Y2672745D01*
G01X5189090Y2773837D02*
G01X5189090Y2655981D01*
G01X5189090Y2773837D02*
G01X5144132Y2655981D01*
G01X5099174Y2773837D02*
G01X5144132Y2655981D01*
G01X5099174Y2773837D02*
G01X5099174Y2655981D01*
G01X5051930Y2773837D02*
G01X5051930Y2655981D01*
G01X5051930Y2773837D02*
G01X5012560Y2773837D01*
G01X4995796Y2768249D01*
G01X4984620Y2757073D01*
G01X4979032Y2745643D01*
G01X4973190Y2728879D01*
G01X4973190Y2700939D01*
G01X4979032Y2683921D01*
G01X4984620Y2672745D01*
G01X4995796Y2661569D01*
G01X5012560Y2655981D01*
G01X5051930Y2655981D01*
G01X9265790Y2573939D02*
G01X9321924Y2495199D01*
G01X9237596Y2495199D01*
G01X9265790Y2573939D02*
G01X9265790Y2455829D01*
G01X9179176Y2478435D02*
G01X9184764Y2472847D01*
G01X9190352Y2478435D01*
G01X9184764Y2484023D01*
G01X9179176Y2478435D01*
G01X9179176Y2467259D01*
G01X9190352Y2455829D01*
G01X8938638Y2556921D02*
G01X8944480Y2568097D01*
G01X8961244Y2573939D01*
G01X8972420Y2573939D01*
G01X8989184Y2568097D01*
G01X9000614Y2551333D01*
G01X9006202Y2523393D01*
G01X9006202Y2495199D01*
G01X9000614Y2472847D01*
G01X8989184Y2461417D01*
G01X8972420Y2455829D01*
G01X8966832Y2455829D01*
G01X8950068Y2461417D01*
G01X8938638Y2472847D01*
G01X8933050Y2489611D01*
G01X8933050Y2495199D01*
G01X8938638Y2511963D01*
G01X8950068Y2523393D01*
G01X8966832Y2528981D01*
G01X8972420Y2528981D01*
G01X8989184Y2523393D01*
G01X9000614Y2511963D01*
G01X9006202Y2495199D01*
G01X8885806Y2551333D02*
G01X8874630Y2556921D01*
G01X8857612Y2573939D01*
G01X8857612Y2455829D01*
G01X8799192Y2573939D02*
G01X8737470Y2573939D01*
G01X8770998Y2528981D01*
G01X8754234Y2528981D01*
G01X8743058Y2523393D01*
G01X8737470Y2517805D01*
G01X8731628Y2500787D01*
G01X8731628Y2489611D01*
G01X8737470Y2472847D01*
G01X8748646Y2461417D01*
G01X8765410Y2455829D01*
G01X8782174Y2455829D01*
G01X8799192Y2461417D01*
G01X8804780Y2467259D01*
G01X8810368Y2478435D01*
G01X8650602Y2573939D02*
G01X8667620Y2568097D01*
G01X8678796Y2551333D01*
G01X8684384Y2523393D01*
G01X8684384Y2506375D01*
G01X8678796Y2478435D01*
G01X8667620Y2461417D01*
G01X8650602Y2455829D01*
G01X8639426Y2455829D01*
G01X8622662Y2461417D01*
G01X8611486Y2478435D01*
G01X8605644Y2506375D01*
G01X8605644Y2523393D01*
G01X8611486Y2551333D01*
G01X8622662Y2568097D01*
G01X8639426Y2573939D01*
G01X8650602Y2573939D01*
G01X8558400Y2551333D02*
G01X8547224Y2556921D01*
G01X8530206Y2573939D01*
G01X8530206Y2455829D01*
G01X8477374Y2545745D02*
G01X8477374Y2551333D01*
G01X8471786Y2562509D01*
G01X8466198Y2568097D01*
G01X8454768Y2573939D01*
G01X8432416Y2573939D01*
G01X8421240Y2568097D01*
G01X8415652Y2562509D01*
G01X8410064Y2551333D01*
G01X8410064Y2540157D01*
G01X8415652Y2528981D01*
G01X8426828Y2511963D01*
G01X8482962Y2455829D01*
G01X8404222Y2455829D01*
G01X8351390Y2545745D02*
G01X8351390Y2551333D01*
G01X8345802Y2562509D01*
G01X8340214Y2568097D01*
G01X8328784Y2573939D01*
G01X8306432Y2573939D01*
G01X8295256Y2568097D01*
G01X8289668Y2562509D01*
G01X8284080Y2551333D01*
G01X8284080Y2540157D01*
G01X8289668Y2528981D01*
G01X8300844Y2511963D01*
G01X8356978Y2455829D01*
G01X8278238Y2455829D01*
G01X8174860Y2573939D02*
G01X8230994Y2495199D01*
G01X8146666Y2495199D01*
G01X8174860Y2573939D02*
G01X8174860Y2455829D01*
G01X8088246Y2573939D02*
G01X8026524Y2573939D01*
G01X8060052Y2528981D01*
G01X8043288Y2528981D01*
G01X8032112Y2523393D01*
G01X8026524Y2517805D01*
G01X8020682Y2500787D01*
G01X8020682Y2489611D01*
G01X8026524Y2472847D01*
G01X8037700Y2461417D01*
G01X8054464Y2455829D01*
G01X8071228Y2455829D01*
G01X8088246Y2461417D01*
G01X8093834Y2467259D01*
G01X8099422Y2478435D01*
G01X7973438Y2551333D02*
G01X7962262Y2556921D01*
G01X7945244Y2573939D01*
G01X7945244Y2455829D01*
G01X7892412Y2545745D02*
G01X7892412Y2551333D01*
G01X7886824Y2562509D01*
G01X7881236Y2568097D01*
G01X7869806Y2573939D01*
G01X7847454Y2573939D01*
G01X7836278Y2568097D01*
G01X7830690Y2562509D01*
G01X7825102Y2551333D01*
G01X7825102Y2540157D01*
G01X7830690Y2528981D01*
G01X7841866Y2511963D01*
G01X7898000Y2455829D01*
G01X7819260Y2455829D01*
G01X7772016Y2551333D02*
G01X7760840Y2556921D01*
G01X7743822Y2573939D01*
G01X7743822Y2455829D01*
G01X7570848Y2573939D02*
G01X7570848Y2455829D01*
G01X7570848Y2573939D02*
G01X7520302Y2573939D01*
G01X7503284Y2568097D01*
G01X7497696Y2562509D01*
G01X7492108Y2551333D01*
G01X7492108Y2540157D01*
G01X7497696Y2528981D01*
G01X7503284Y2523393D01*
G01X7520302Y2517805D01*
G01X7570848Y2517805D01*
G01X7531478Y2517805D02*
G01X7492108Y2455829D01*
G01X7399906Y2573939D02*
G01X7444864Y2455829D01*
G01X7399906Y2573939D02*
G01X7354948Y2455829D01*
G01X7428100Y2495199D02*
G01X7371966Y2495199D01*
G01X7176386Y2545745D02*
G01X7176386Y2551333D01*
G01X7170798Y2562509D01*
G01X7164956Y2568097D01*
G01X7153780Y2573939D01*
G01X7131428Y2573939D01*
G01X7120252Y2568097D01*
G01X7114410Y2562509D01*
G01X7108822Y2551333D01*
G01X7108822Y2540157D01*
G01X7114410Y2528981D01*
G01X7125840Y2511963D01*
G01X7181974Y2455829D01*
G01X7103234Y2455829D01*
G01X7055990Y2534569D02*
G01X6994268Y2455829D01*
G01X6994268Y2534569D02*
G01X7055990Y2455829D01*
G01X6879714Y2556921D02*
G01X6885302Y2568097D01*
G01X6902066Y2573939D01*
G01X6913242Y2573939D01*
G01X6930260Y2568097D01*
G01X6941436Y2551333D01*
G01X6947024Y2523393D01*
G01X6947024Y2495199D01*
G01X6941436Y2472847D01*
G01X6930260Y2461417D01*
G01X6913242Y2455829D01*
G01X6907654Y2455829D01*
G01X6890890Y2461417D01*
G01X6879714Y2472847D01*
G01X6874126Y2489611D01*
G01X6874126Y2495199D01*
G01X6879714Y2511963D01*
G01X6890890Y2523393D01*
G01X6907654Y2528981D01*
G01X6913242Y2528981D01*
G01X6930260Y2523393D01*
G01X6941436Y2511963D01*
G01X6947024Y2495199D01*
G01X6701152Y2551333D02*
G01X6689976Y2556921D01*
G01X6672958Y2573939D01*
G01X6672958Y2455829D01*
G01X6620126Y2545745D02*
G01X6620126Y2551333D01*
G01X6614538Y2562509D01*
G01X6608950Y2568097D01*
G01X6597520Y2573939D01*
G01X6575168Y2573939D01*
G01X6563992Y2568097D01*
G01X6558404Y2562509D01*
G01X6552816Y2551333D01*
G01X6552816Y2540157D01*
G01X6558404Y2528981D01*
G01X6569580Y2511963D01*
G01X6625714Y2455829D01*
G01X6546974Y2455829D01*
G01X6499730Y2573939D02*
G01X6499730Y2455829D01*
G01X6499730Y2573939D02*
G01X6449184Y2573939D01*
G01X6432420Y2568097D01*
G01X6426832Y2562509D01*
G01X6420990Y2551333D01*
G01X6420990Y2534569D01*
G01X6426832Y2523393D01*
G01X6432420Y2517805D01*
G01X6449184Y2511963D01*
G01X6499730Y2511963D01*
G01X6242428Y2545745D02*
G01X6242428Y2551333D01*
G01X6236840Y2562509D01*
G01X6230998Y2568097D01*
G01X6219822Y2573939D01*
G01X6197470Y2573939D01*
G01X6186294Y2568097D01*
G01X6180452Y2562509D01*
G01X6174864Y2551333D01*
G01X6174864Y2540157D01*
G01X6180452Y2528981D01*
G01X6191882Y2511963D01*
G01X6248016Y2455829D01*
G01X6169276Y2455829D01*
G01X6116444Y2484023D02*
G01X6122032Y2478435D01*
G01X6116444Y2472847D01*
G01X6110856Y2478435D01*
G01X6116444Y2484023D01*
G01X5996302Y2573939D02*
G01X6052436Y2573939D01*
G01X6058024Y2523393D01*
G01X6052436Y2528981D01*
G01X6035418Y2534569D01*
G01X6018654Y2534569D01*
G01X6001890Y2528981D01*
G01X5990714Y2517805D01*
G01X5984872Y2500787D01*
G01X5984872Y2489611D01*
G01X5990714Y2472847D01*
G01X6001890Y2461417D01*
G01X6018654Y2455829D01*
G01X6035418Y2455829D01*
G01X6052436Y2461417D01*
G01X6058024Y2467259D01*
G01X6063612Y2478435D01*
G01X5881494Y2573939D02*
G01X5937628Y2495199D01*
G01X5853300Y2495199D01*
G01X5881494Y2573939D02*
G01X5881494Y2455829D01*
G01X5806056Y2534569D02*
G01X5806056Y2455829D01*
G01X5806056Y2511963D02*
G01X5789292Y2528981D01*
G01X5777862Y2534569D01*
G01X5761098Y2534569D01*
G01X5749922Y2528981D01*
G01X5744334Y2511963D01*
G01X5744334Y2455829D01*
G01X5744334Y2511963D02*
G01X5727316Y2528981D01*
G01X5716140Y2534569D01*
G01X5699376Y2534569D01*
G01X5688200Y2528981D01*
G01X5682612Y2511963D01*
G01X5682612Y2455829D01*
G01X5635368Y2534569D02*
G01X5635368Y2455829D01*
G01X5635368Y2511963D02*
G01X5618604Y2528981D01*
G01X5607174Y2534569D01*
G01X5590410Y2534569D01*
G01X5579234Y2528981D01*
G01X5573646Y2511963D01*
G01X5573646Y2455829D01*
G01X5573646Y2511963D02*
G01X5556628Y2528981D01*
G01X5545452Y2534569D01*
G01X5528688Y2534569D01*
G01X5517512Y2528981D01*
G01X5511924Y2511963D01*
G01X5511924Y2455829D01*
G01X5338950Y2573939D02*
G01X5338950Y2455829D01*
G01X5260210Y2573939D02*
G01X5260210Y2455829D01*
G01X5338950Y2517805D02*
G01X5260210Y2517805D01*
G01X5212966Y2573939D02*
G01X5212966Y2455829D01*
G01X5212966Y2573939D02*
G01X5173596Y2573939D01*
G01X5156832Y2568097D01*
G01X5145656Y2556921D01*
G01X5140068Y2545745D01*
G01X5134226Y2528981D01*
G01X5134226Y2500787D01*
G01X5140068Y2484023D01*
G01X5145656Y2472847D01*
G01X5156832Y2461417D01*
G01X5173596Y2455829D01*
G01X5212966Y2455829D01*
G01X5086982Y2573939D02*
G01X5086982Y2455829D01*
G01X5086982Y2573939D02*
G01X5036436Y2573939D01*
G01X5019672Y2568097D01*
G01X5014084Y2562509D01*
G01X5008242Y2551333D01*
G01X5008242Y2540157D01*
G01X5014084Y2528981D01*
G01X5019672Y2523393D01*
G01X5036436Y2517805D01*
G01X5086982Y2517805D01*
G01X5047612Y2517805D02*
G01X5008242Y2455829D01*
G01X9321924Y2351435D02*
G01X9310748Y2357023D01*
G01X9293730Y2373787D01*
G01X9293730Y2255931D01*
G01X9235310Y2278283D02*
G01X9240898Y2272695D01*
G01X9246486Y2278283D01*
G01X9240898Y2283871D01*
G01X9235310Y2278283D01*
G01X9235310Y2267107D01*
G01X9246486Y2255931D01*
G01X8994772Y2357023D02*
G01X9000614Y2368199D01*
G01X9017378Y2373787D01*
G01X9028554Y2373787D01*
G01X9045318Y2368199D01*
G01X9056748Y2351435D01*
G01X9062336Y2323241D01*
G01X9062336Y2295301D01*
G01X9056748Y2272695D01*
G01X9045318Y2261519D01*
G01X9028554Y2255931D01*
G01X9022966Y2255931D01*
G01X9006202Y2261519D01*
G01X8994772Y2272695D01*
G01X8989184Y2289713D01*
G01X8989184Y2295301D01*
G01X8994772Y2312065D01*
G01X9006202Y2323241D01*
G01X9022966Y2328829D01*
G01X9028554Y2328829D01*
G01X9045318Y2323241D01*
G01X9056748Y2312065D01*
G01X9062336Y2295301D01*
G01X8941940Y2351435D02*
G01X8930764Y2357023D01*
G01X8913746Y2373787D01*
G01X8913746Y2255931D01*
G01X8855326Y2373787D02*
G01X8793604Y2373787D01*
G01X8827132Y2328829D01*
G01X8810368Y2328829D01*
G01X8799192Y2323241D01*
G01X8793604Y2317653D01*
G01X8787762Y2300889D01*
G01X8787762Y2289713D01*
G01X8793604Y2272695D01*
G01X8804780Y2261519D01*
G01X8821544Y2255931D01*
G01X8838308Y2255931D01*
G01X8855326Y2261519D01*
G01X8860914Y2267107D01*
G01X8866502Y2278283D01*
G01X8706736Y2373787D02*
G01X8723754Y2368199D01*
G01X8734930Y2351435D01*
G01X8740518Y2323241D01*
G01X8740518Y2306477D01*
G01X8734930Y2278283D01*
G01X8723754Y2261519D01*
G01X8706736Y2255931D01*
G01X8695560Y2255931D01*
G01X8678796Y2261519D01*
G01X8667620Y2278283D01*
G01X8661778Y2306477D01*
G01X8661778Y2323241D01*
G01X8667620Y2351435D01*
G01X8678796Y2368199D01*
G01X8695560Y2373787D01*
G01X8706736Y2373787D01*
G01X8580752Y2373787D02*
G01X8597770Y2368199D01*
G01X8608946Y2351435D01*
G01X8614534Y2323241D01*
G01X8614534Y2306477D01*
G01X8608946Y2278283D01*
G01X8597770Y2261519D01*
G01X8580752Y2255931D01*
G01X8569576Y2255931D01*
G01X8552812Y2261519D01*
G01X8541636Y2278283D01*
G01X8535794Y2306477D01*
G01X8535794Y2323241D01*
G01X8541636Y2351435D01*
G01X8552812Y2368199D01*
G01X8569576Y2373787D01*
G01X8580752Y2373787D01*
G01X8460356Y2373787D02*
G01X8477374Y2368199D01*
G01X8482962Y2357023D01*
G01X8482962Y2345847D01*
G01X8477374Y2334417D01*
G01X8466198Y2328829D01*
G01X8443592Y2323241D01*
G01X8426828Y2317653D01*
G01X8415652Y2306477D01*
G01X8409810Y2295301D01*
G01X8409810Y2278283D01*
G01X8415652Y2267107D01*
G01X8421240Y2261519D01*
G01X8438004Y2255931D01*
G01X8460356Y2255931D01*
G01X8477374Y2261519D01*
G01X8482962Y2267107D01*
G01X8488550Y2278283D01*
G01X8488550Y2295301D01*
G01X8482962Y2306477D01*
G01X8471786Y2317653D01*
G01X8454768Y2323241D01*
G01X8432416Y2328829D01*
G01X8421240Y2334417D01*
G01X8415652Y2345847D01*
G01X8415652Y2357023D01*
G01X8421240Y2368199D01*
G01X8438004Y2373787D01*
G01X8460356Y2373787D01*
G01X8356978Y2345847D02*
G01X8356978Y2351435D01*
G01X8351390Y2362611D01*
G01X8345802Y2368199D01*
G01X8334372Y2373787D01*
G01X8312020Y2373787D01*
G01X8300844Y2368199D01*
G01X8295256Y2362611D01*
G01X8289668Y2351435D01*
G01X8289668Y2340259D01*
G01X8295256Y2328829D01*
G01X8306432Y2312065D01*
G01X8362566Y2255931D01*
G01X8283826Y2255931D01*
G01X8236582Y2351435D02*
G01X8225406Y2357023D01*
G01X8208388Y2373787D01*
G01X8208388Y2255931D01*
G01X8132950Y2373787D02*
G01X8149968Y2368199D01*
G01X8155556Y2357023D01*
G01X8155556Y2345847D01*
G01X8149968Y2334417D01*
G01X8138792Y2328829D01*
G01X8116186Y2323241D01*
G01X8099422Y2317653D01*
G01X8088246Y2306477D01*
G01X8082404Y2295301D01*
G01X8082404Y2278283D01*
G01X8088246Y2267107D01*
G01X8093834Y2261519D01*
G01X8110598Y2255931D01*
G01X8132950Y2255931D01*
G01X8149968Y2261519D01*
G01X8155556Y2267107D01*
G01X8161144Y2278283D01*
G01X8161144Y2295301D01*
G01X8155556Y2306477D01*
G01X8144380Y2317653D01*
G01X8127362Y2323241D01*
G01X8105010Y2328829D01*
G01X8093834Y2334417D01*
G01X8088246Y2345847D01*
G01X8088246Y2357023D01*
G01X8093834Y2368199D01*
G01X8110598Y2373787D01*
G01X8132950Y2373787D01*
G01X8029572Y2345847D02*
G01X8029572Y2351435D01*
G01X8023984Y2362611D01*
G01X8018396Y2368199D01*
G01X8006966Y2373787D01*
G01X7984614Y2373787D01*
G01X7973438Y2368199D01*
G01X7967850Y2362611D01*
G01X7962262Y2351435D01*
G01X7962262Y2340259D01*
G01X7967850Y2328829D01*
G01X7979026Y2312065D01*
G01X8035160Y2255931D01*
G01X7956420Y2255931D01*
G01X7909176Y2351435D02*
G01X7898000Y2357023D01*
G01X7880982Y2373787D01*
G01X7880982Y2255931D01*
G01X7702420Y2345847D02*
G01X7702420Y2351435D01*
G01X7696832Y2362611D01*
G01X7690990Y2368199D01*
G01X7679814Y2373787D01*
G01X7657462Y2373787D01*
G01X7646286Y2368199D01*
G01X7640444Y2362611D01*
G01X7634856Y2351435D01*
G01X7634856Y2340259D01*
G01X7640444Y2328829D01*
G01X7651874Y2312065D01*
G01X7708008Y2255931D01*
G01X7629268Y2255931D01*
G01X7582024Y2334417D02*
G01X7520302Y2255931D01*
G01X7520302Y2334417D02*
G01X7582024Y2255931D01*
G01X7416924Y2373787D02*
G01X7473058Y2295301D01*
G01X7388730Y2295301D01*
G01X7416924Y2373787D02*
G01X7416924Y2255931D01*
G01X7187562Y2373787D02*
G01X7204580Y2368199D01*
G01X7210168Y2357023D01*
G01X7210168Y2345847D01*
G01X7204580Y2334417D01*
G01X7193150Y2328829D01*
G01X7170798Y2323241D01*
G01X7154034Y2317653D01*
G01X7142604Y2306477D01*
G01X7137016Y2295301D01*
G01X7137016Y2278283D01*
G01X7142604Y2267107D01*
G01X7148192Y2261519D01*
G01X7165210Y2255931D01*
G01X7187562Y2255931D01*
G01X7204580Y2261519D01*
G01X7210168Y2267107D01*
G01X7215756Y2278283D01*
G01X7215756Y2295301D01*
G01X7210168Y2306477D01*
G01X7198738Y2317653D01*
G01X7181974Y2323241D01*
G01X7159622Y2328829D01*
G01X7148192Y2334417D01*
G01X7142604Y2345847D01*
G01X7142604Y2357023D01*
G01X7148192Y2368199D01*
G01X7165210Y2373787D01*
G01X7187562Y2373787D01*
G01X7089772Y2373787D02*
G01X7089772Y2255931D01*
G01X7089772Y2373787D02*
G01X7039226Y2373787D01*
G01X7022462Y2368199D01*
G01X7016874Y2362611D01*
G01X7011032Y2351435D01*
G01X7011032Y2334417D01*
G01X7016874Y2323241D01*
G01X7022462Y2317653D01*
G01X7039226Y2312065D01*
G01X7089772Y2312065D01*
G01X6832470Y2345847D02*
G01X6832470Y2351435D01*
G01X6826882Y2362611D01*
G01X6821040Y2368199D01*
G01X6809864Y2373787D01*
G01X6787512Y2373787D01*
G01X6776336Y2368199D01*
G01X6770494Y2362611D01*
G01X6764906Y2351435D01*
G01X6764906Y2340259D01*
G01X6770494Y2328829D01*
G01X6781924Y2312065D01*
G01X6838058Y2255931D01*
G01X6759318Y2255931D01*
G01X6706486Y2283871D02*
G01X6712074Y2278283D01*
G01X6706486Y2272695D01*
G01X6700898Y2278283D01*
G01X6706486Y2283871D01*
G01X6586344Y2373787D02*
G01X6642478Y2373787D01*
G01X6648066Y2323241D01*
G01X6642478Y2328829D01*
G01X6625460Y2334417D01*
G01X6608696Y2334417D01*
G01X6591932Y2328829D01*
G01X6580756Y2317653D01*
G01X6574914Y2300889D01*
G01X6574914Y2289713D01*
G01X6580756Y2272695D01*
G01X6591932Y2261519D01*
G01X6608696Y2255931D01*
G01X6625460Y2255931D01*
G01X6642478Y2261519D01*
G01X6648066Y2267107D01*
G01X6653654Y2278283D01*
G01X6471536Y2373787D02*
G01X6527670Y2295301D01*
G01X6443342Y2295301D01*
G01X6471536Y2373787D02*
G01X6471536Y2255931D01*
G01X6396098Y2334417D02*
G01X6396098Y2255931D01*
G01X6396098Y2312065D02*
G01X6379334Y2328829D01*
G01X6367904Y2334417D01*
G01X6351140Y2334417D01*
G01X6339964Y2328829D01*
G01X6334376Y2312065D01*
G01X6334376Y2255931D01*
G01X6334376Y2312065D02*
G01X6317358Y2328829D01*
G01X6306182Y2334417D01*
G01X6289418Y2334417D01*
G01X6278242Y2328829D01*
G01X6272654Y2312065D01*
G01X6272654Y2255931D01*
G01X6225410Y2334417D02*
G01X6225410Y2255931D01*
G01X6225410Y2312065D02*
G01X6208646Y2328829D01*
G01X6197216Y2334417D01*
G01X6180452Y2334417D01*
G01X6169276Y2328829D01*
G01X6163688Y2312065D01*
G01X6163688Y2255931D01*
G01X6163688Y2312065D02*
G01X6146670Y2328829D01*
G01X6135494Y2334417D01*
G01X6118730Y2334417D01*
G01X6107554Y2328829D01*
G01X6101966Y2312065D01*
G01X6101966Y2255931D01*
G01X5928992Y2373787D02*
G01X5928992Y2255931D01*
G01X5850252Y2373787D02*
G01X5850252Y2255931D01*
G01X5928992Y2317653D02*
G01X5850252Y2317653D01*
G01X5803008Y2373787D02*
G01X5803008Y2255931D01*
G01X5803008Y2373787D02*
G01X5763638Y2373787D01*
G01X5746874Y2368199D01*
G01X5735698Y2357023D01*
G01X5730110Y2345847D01*
G01X5724268Y2328829D01*
G01X5724268Y2300889D01*
G01X5730110Y2283871D01*
G01X5735698Y2272695D01*
G01X5746874Y2261519D01*
G01X5763638Y2255931D01*
G01X5803008Y2255931D01*
G01X5677024Y2373787D02*
G01X5677024Y2255931D01*
G01X5677024Y2373787D02*
G01X5626478Y2373787D01*
G01X5609714Y2368199D01*
G01X5604126Y2362611D01*
G01X5598284Y2351435D01*
G01X5598284Y2340259D01*
G01X5604126Y2328829D01*
G01X5609714Y2323241D01*
G01X5626478Y2317653D01*
G01X5677024Y2317653D01*
G01X5637654Y2317653D02*
G01X5598284Y2255931D01*
G01X5324218Y2396393D02*
G01X5425310Y2216561D01*
G01X5151244Y2351435D02*
G01X5140068Y2357023D01*
G01X5123050Y2373787D01*
G01X5123050Y2255931D01*
G01X5064630Y2278283D02*
G01X5070218Y2272695D01*
G01X5075806Y2278283D01*
G01X5070218Y2283871D01*
G01X5064630Y2278283D01*
G01X5064630Y2267107D01*
G01X5075806Y2255931D01*
G01X4891656Y2373787D02*
G01X4891656Y2255931D01*
G01X4891656Y2373787D02*
G01X4841110Y2373787D01*
G01X4824092Y2368199D01*
G01X4818504Y2362611D01*
G01X4812916Y2351435D01*
G01X4812916Y2334417D01*
G01X4818504Y2323241D01*
G01X4824092Y2317653D01*
G01X4841110Y2312065D01*
G01X4891656Y2312065D01*
G01X4765672Y2373787D02*
G01X4765672Y2255931D01*
G01X4765672Y2373787D02*
G01X4715126Y2373787D01*
G01X4698362Y2368199D01*
G01X4692774Y2362611D01*
G01X4686932Y2351435D01*
G01X4686932Y2334417D01*
G01X4692774Y2323241D01*
G01X4698362Y2317653D01*
G01X4715126Y2312065D01*
G01X4765672Y2312065D01*
G01X4639688Y2373787D02*
G01X4639688Y2255931D01*
G01X4639688Y2373787D02*
G01X4589142Y2373787D01*
G01X4572378Y2368199D01*
G01X4566790Y2362611D01*
G01X4560948Y2351435D01*
G01X4560948Y2334417D01*
G01X4566790Y2323241D01*
G01X4572378Y2317653D01*
G01X4589142Y2312065D01*
G01X4639688Y2312065D01*
G01X4429376Y2345847D02*
G01X4434964Y2357023D01*
G01X4446394Y2368199D01*
G01X4457570Y2373787D01*
G01X4479922Y2373787D01*
G01X4491352Y2368199D01*
G01X4502528Y2357023D01*
G01X4508116Y2345847D01*
G01X4513704Y2328829D01*
G01X4513704Y2300889D01*
G01X4508116Y2283871D01*
G01X4502528Y2272695D01*
G01X4491352Y2261519D01*
G01X4479922Y2255931D01*
G01X4457570Y2255931D01*
G01X4446394Y2261519D01*
G01X4434964Y2272695D01*
G01X4429376Y2283871D01*
G01X4376544Y2345847D02*
G01X4376544Y2351435D01*
G01X4370956Y2362611D01*
G01X4365368Y2368199D01*
G01X4353938Y2373787D01*
G01X4331586Y2373787D01*
G01X4320410Y2368199D01*
G01X4314822Y2362611D01*
G01X4309234Y2351435D01*
G01X4309234Y2340259D01*
G01X4314822Y2328829D01*
G01X4325998Y2312065D01*
G01X4382132Y2255931D01*
G01X4303392Y2255931D01*
G01X4222366Y2373787D02*
G01X4239384Y2368199D01*
G01X4250560Y2351435D01*
G01X4256148Y2323241D01*
G01X4256148Y2306477D01*
G01X4250560Y2278283D01*
G01X4239384Y2261519D01*
G01X4222366Y2255931D01*
G01X4211190Y2255931D01*
G01X4194426Y2261519D01*
G01X4183250Y2278283D01*
G01X4177408Y2306477D01*
G01X4177408Y2323241D01*
G01X4183250Y2351435D01*
G01X4194426Y2368199D01*
G01X4211190Y2373787D01*
G01X4222366Y2373787D01*
G01X4124576Y2345847D02*
G01X4124576Y2351435D01*
G01X4118988Y2362611D01*
G01X4113400Y2368199D01*
G01X4101970Y2373787D01*
G01X4079618Y2373787D01*
G01X4068442Y2368199D01*
G01X4062854Y2362611D01*
G01X4057266Y2351435D01*
G01X4057266Y2340259D01*
G01X4062854Y2328829D01*
G01X4074030Y2312065D01*
G01X4130164Y2255931D01*
G01X4051424Y2255931D01*
G01X4004180Y2373787D02*
G01X4004180Y2255931D01*
G01X4004180Y2255931D02*
G01X3936870Y2255931D01*
G01X3889626Y2373787D02*
G01X3889626Y2255931D01*
G01X3889626Y2373787D02*
G01X3816728Y2373787D01*
G01X3889626Y2317653D02*
G01X3844668Y2317653D01*
G01X3769484Y2373787D02*
G01X3769484Y2255931D01*
G01X3769484Y2373787D02*
G01X3718938Y2373787D01*
G01X3702174Y2368199D01*
G01X3696586Y2362611D01*
G01X3690744Y2351435D01*
G01X3690744Y2340259D01*
G01X3696586Y2328829D01*
G01X3702174Y2323241D01*
G01X3718938Y2317653D01*
G01X3769484Y2317653D02*
G01X3718938Y2317653D01*
G01X3702174Y2312065D01*
G01X3696586Y2306477D01*
G01X3690744Y2295301D01*
G01X3690744Y2278283D01*
G01X3696586Y2267107D01*
G01X3702174Y2261519D01*
G01X3718938Y2255931D01*
G01X3769484Y2255931D01*
G01X3643500Y2373787D02*
G01X3643500Y2255931D01*
G01X3643500Y2373787D02*
G01X3564760Y2255931D01*
G01X3564760Y2373787D02*
G01X3564760Y2255931D01*
G01X3517516Y2306477D02*
G01X3416424Y2306477D01*
G01X3369180Y2373787D02*
G01X3369180Y2255931D01*
G01X3369180Y2373787D02*
G01X3318634Y2373787D01*
G01X3301870Y2368199D01*
G01X3296282Y2362611D01*
G01X3290440Y2351435D01*
G01X3290440Y2340259D01*
G01X3296282Y2328829D01*
G01X3301870Y2323241D01*
G01X3318634Y2317653D01*
G01X3369180Y2317653D01*
G01X3329810Y2317653D02*
G01X3290440Y2255931D01*
G01X3158868Y2345847D02*
G01X3164456Y2357023D01*
G01X3175886Y2368199D01*
G01X3187062Y2373787D01*
G01X3209414Y2373787D01*
G01X3220844Y2368199D01*
G01X3232020Y2357023D01*
G01X3237608Y2345847D01*
G01X3243196Y2328829D01*
G01X3243196Y2300889D01*
G01X3237608Y2283871D01*
G01X3232020Y2272695D01*
G01X3220844Y2261519D01*
G01X3209414Y2255931D01*
G01X3187062Y2255931D01*
G01X3175886Y2261519D01*
G01X3164456Y2272695D01*
G01X3158868Y2283871D01*
G01X2980306Y2345847D02*
G01X2980306Y2351435D01*
G01X2974718Y2362611D01*
G01X2968876Y2368199D01*
G01X2957700Y2373787D01*
G01X2935348Y2373787D01*
G01X2924172Y2368199D01*
G01X2918330Y2362611D01*
G01X2912742Y2351435D01*
G01X2912742Y2340259D01*
G01X2918330Y2328829D01*
G01X2929760Y2312065D01*
G01X2985894Y2255931D01*
G01X2907154Y2255931D01*
G01X2859910Y2334417D02*
G01X2798188Y2255931D01*
G01X2798188Y2334417D02*
G01X2859910Y2255931D01*
G01X2745356Y2345847D02*
G01X2745356Y2351435D01*
G01X2739768Y2362611D01*
G01X2734180Y2368199D01*
G01X2722750Y2373787D01*
G01X2700398Y2373787D01*
G01X2689222Y2368199D01*
G01X2683634Y2362611D01*
G01X2678046Y2351435D01*
G01X2678046Y2340259D01*
G01X2683634Y2328829D01*
G01X2694810Y2312065D01*
G01X2750944Y2255931D01*
G01X2672204Y2255931D01*
G01X2591178Y2373787D02*
G01X2608196Y2368199D01*
G01X2619372Y2351435D01*
G01X2624960Y2323241D01*
G01X2624960Y2306477D01*
G01X2619372Y2278283D01*
G01X2608196Y2261519D01*
G01X2591178Y2255931D01*
G01X2580002Y2255931D01*
G01X2563238Y2261519D01*
G01X2552062Y2278283D01*
G01X2546220Y2306477D01*
G01X2546220Y2323241D01*
G01X2552062Y2351435D01*
G01X2563238Y2368199D01*
G01X2580002Y2373787D01*
G01X2591178Y2373787D01*
G01X2317112Y2373787D02*
G01X2373246Y2295301D01*
G01X2288918Y2295301D01*
G01X2317112Y2373787D02*
G01X2317112Y2255931D01*
G01X2207892Y2373787D02*
G01X2224910Y2368199D01*
G01X2236086Y2351435D01*
G01X2241674Y2323241D01*
G01X2241674Y2306477D01*
G01X2236086Y2278283D01*
G01X2224910Y2261519D01*
G01X2207892Y2255931D01*
G01X2196716Y2255931D01*
G01X2179952Y2261519D01*
G01X2168776Y2278283D01*
G01X2162934Y2306477D01*
G01X2162934Y2323241D01*
G01X2168776Y2351435D01*
G01X2179952Y2368199D01*
G01X2196716Y2373787D01*
G01X2207892Y2373787D01*
G01X2115690Y2373787D02*
G01X2115690Y2255931D01*
G01X2115690Y2373787D02*
G01X2065144Y2373787D01*
G01X2048380Y2368199D01*
G01X2042792Y2362611D01*
G01X2036950Y2351435D01*
G01X2036950Y2334417D01*
G01X2042792Y2323241D01*
G01X2048380Y2317653D01*
G01X2065144Y2312065D01*
G01X2115690Y2312065D01*
G01X1858388Y2345847D02*
G01X1858388Y2351435D01*
G01X1852800Y2362611D01*
G01X1846958Y2368199D01*
G01X1835782Y2373787D01*
G01X1813430Y2373787D01*
G01X1802254Y2368199D01*
G01X1796412Y2362611D01*
G01X1790824Y2351435D01*
G01X1790824Y2340259D01*
G01X1796412Y2328829D01*
G01X1807842Y2312065D01*
G01X1863976Y2255931D01*
G01X1785236Y2255931D01*
G01X1732404Y2283871D02*
G01X1737992Y2278283D01*
G01X1732404Y2272695D01*
G01X1726816Y2278283D01*
G01X1732404Y2283871D01*
G01X1612262Y2373787D02*
G01X1668396Y2373787D01*
G01X1673984Y2323241D01*
G01X1668396Y2328829D01*
G01X1651378Y2334417D01*
G01X1634614Y2334417D01*
G01X1617850Y2328829D01*
G01X1606674Y2317653D01*
G01X1600832Y2300889D01*
G01X1600832Y2289713D01*
G01X1606674Y2272695D01*
G01X1617850Y2261519D01*
G01X1634614Y2255931D01*
G01X1651378Y2255931D01*
G01X1668396Y2261519D01*
G01X1673984Y2267107D01*
G01X1679572Y2278283D01*
G01X1497454Y2373787D02*
G01X1553588Y2295301D01*
G01X1469260Y2295301D01*
G01X1497454Y2373787D02*
G01X1497454Y2255931D01*
G01X1422016Y2334417D02*
G01X1422016Y2255931D01*
G01X1422016Y2312065D02*
G01X1405252Y2328829D01*
G01X1393822Y2334417D01*
G01X1377058Y2334417D01*
G01X1365882Y2328829D01*
G01X1360294Y2312065D01*
G01X1360294Y2255931D01*
G01X1360294Y2312065D02*
G01X1343276Y2328829D01*
G01X1332100Y2334417D01*
G01X1315336Y2334417D01*
G01X1304160Y2328829D01*
G01X1298572Y2312065D01*
G01X1298572Y2255931D01*
G01X1251328Y2334417D02*
G01X1251328Y2255931D01*
G01X1251328Y2312065D02*
G01X1234564Y2328829D01*
G01X1223134Y2334417D01*
G01X1206370Y2334417D01*
G01X1195194Y2328829D01*
G01X1189606Y2312065D01*
G01X1189606Y2255931D01*
G01X1189606Y2312065D02*
G01X1172588Y2328829D01*
G01X1161412Y2334417D01*
G01X1144648Y2334417D01*
G01X1133472Y2328829D01*
G01X1127884Y2312065D01*
G01X1127884Y2255931D01*
G01X954910Y2373787D02*
G01X954910Y2255931D01*
G01X876170Y2373787D02*
G01X876170Y2255931D01*
G01X954910Y2317653D02*
G01X876170Y2317653D01*
G01X828926Y2373787D02*
G01X828926Y2255931D01*
G01X828926Y2373787D02*
G01X789556Y2373787D01*
G01X772792Y2368199D01*
G01X761616Y2357023D01*
G01X756028Y2345847D01*
G01X750186Y2328829D01*
G01X750186Y2300889D01*
G01X756028Y2283871D01*
G01X761616Y2272695D01*
G01X772792Y2261519D01*
G01X789556Y2255931D01*
G01X828926Y2255931D01*
G01X702942Y2373787D02*
G01X702942Y2255931D01*
G01X702942Y2373787D02*
G01X652396Y2373787D01*
G01X635632Y2368199D01*
G01X630044Y2362611D01*
G01X624202Y2351435D01*
G01X624202Y2340259D01*
G01X630044Y2328829D01*
G01X635632Y2323241D01*
G01X652396Y2317653D01*
G01X702942Y2317653D01*
G01X663572Y2317653D02*
G01X624202Y2255931D01*
G01X9321924Y2151283D02*
G01X9310748Y2156871D01*
G01X9293730Y2173889D01*
G01X9293730Y2056033D01*
G01X9235310Y2078385D02*
G01X9240898Y2072797D01*
G01X9246486Y2078385D01*
G01X9240898Y2083973D01*
G01X9235310Y2078385D01*
G01X9235310Y2067209D01*
G01X9246486Y2056033D01*
G01X9028554Y2173889D02*
G01X9045318Y2168301D01*
G01X9056748Y2151283D01*
G01X9062336Y2123343D01*
G01X9062336Y2106325D01*
G01X9056748Y2078385D01*
G01X9045318Y2061621D01*
G01X9028554Y2056033D01*
G01X9017378Y2056033D01*
G01X9000614Y2061621D01*
G01X8989184Y2078385D01*
G01X8983596Y2106325D01*
G01X8983596Y2123343D01*
G01X8989184Y2151283D01*
G01X9000614Y2168301D01*
G01X9017378Y2173889D01*
G01X9028554Y2173889D01*
G01X8857612Y2173889D02*
G01X8936352Y2056033D01*
G01X8936352Y2173889D02*
G01X8857612Y2173889D01*
G01X8936352Y2056033D02*
G01X8857612Y2056033D01*
G01X8726040Y2145695D02*
G01X8731628Y2156871D01*
G01X8743058Y2168301D01*
G01X8754234Y2173889D01*
G01X8776586Y2173889D01*
G01X8788016Y2168301D01*
G01X8799192Y2156871D01*
G01X8804780Y2145695D01*
G01X8810368Y2128931D01*
G01X8810368Y2100737D01*
G01X8804780Y2083973D01*
G01X8799192Y2072797D01*
G01X8788016Y2061621D01*
G01X8776586Y2056033D01*
G01X8754234Y2056033D01*
G01X8743058Y2061621D01*
G01X8731628Y2072797D01*
G01X8726040Y2083973D01*
G01X8678796Y2173889D02*
G01X8678796Y2056033D01*
G01X8600056Y2173889D02*
G01X8600056Y2056033D01*
G01X8678796Y2117755D02*
G01X8600056Y2117755D01*
G01X8519030Y2173889D02*
G01X8536048Y2168301D01*
G01X8547224Y2151283D01*
G01X8552812Y2123343D01*
G01X8552812Y2106325D01*
G01X8547224Y2078385D01*
G01X8536048Y2061621D01*
G01X8519030Y2056033D01*
G01X8507854Y2056033D01*
G01X8491090Y2061621D01*
G01X8479914Y2078385D01*
G01X8474072Y2106325D01*
G01X8474072Y2123343D01*
G01X8479914Y2151283D01*
G01X8491090Y2168301D01*
G01X8507854Y2173889D01*
G01X8519030Y2173889D01*
G01X8393046Y2173889D02*
G01X8410064Y2168301D01*
G01X8421240Y2151283D01*
G01X8426828Y2123343D01*
G01X8426828Y2106325D01*
G01X8421240Y2078385D01*
G01X8410064Y2061621D01*
G01X8393046Y2056033D01*
G01X8381870Y2056033D01*
G01X8365106Y2061621D01*
G01X8353930Y2078385D01*
G01X8348088Y2106325D01*
G01X8348088Y2123343D01*
G01X8353930Y2151283D01*
G01X8365106Y2168301D01*
G01X8381870Y2173889D01*
G01X8393046Y2173889D01*
G01X8233534Y2173889D02*
G01X8289668Y2173889D01*
G01X8295256Y2123343D01*
G01X8289668Y2128931D01*
G01X8272650Y2134519D01*
G01X8255886Y2134519D01*
G01X8239122Y2128931D01*
G01X8227946Y2117755D01*
G01X8222104Y2100737D01*
G01X8222104Y2089561D01*
G01X8227946Y2072797D01*
G01X8239122Y2061621D01*
G01X8255886Y2056033D01*
G01X8272650Y2056033D01*
G01X8289668Y2061621D01*
G01X8295256Y2067209D01*
G01X8300844Y2078385D01*
G01X8141078Y2173889D02*
G01X8158096Y2168301D01*
G01X8169272Y2151283D01*
G01X8174860Y2123343D01*
G01X8174860Y2106325D01*
G01X8169272Y2078385D01*
G01X8158096Y2061621D01*
G01X8141078Y2056033D01*
G01X8129902Y2056033D01*
G01X8113138Y2061621D01*
G01X8101962Y2078385D01*
G01X8096120Y2106325D01*
G01X8096120Y2123343D01*
G01X8101962Y2151283D01*
G01X8113138Y2168301D01*
G01X8129902Y2173889D01*
G01X8141078Y2173889D01*
G01X8048876Y2173889D02*
G01X8048876Y2056033D01*
G01X8048876Y2173889D02*
G01X7975978Y2173889D01*
G01X8048876Y2117755D02*
G01X8003918Y2117755D01*
G01X7928734Y2173889D02*
G01X7928734Y2056033D01*
G01X7928734Y2173889D02*
G01X7855836Y2173889D01*
G01X7928734Y2117755D02*
G01X7883776Y2117755D01*
G01X7803004Y2145695D02*
G01X7803004Y2151283D01*
G01X7797416Y2162713D01*
G01X7791828Y2168301D01*
G01X7780398Y2173889D01*
G01X7758046Y2173889D01*
G01X7746870Y2168301D01*
G01X7741282Y2162713D01*
G01X7735694Y2151283D01*
G01X7735694Y2140107D01*
G01X7741282Y2128931D01*
G01X7752458Y2112167D01*
G01X7808592Y2056033D01*
G01X7729852Y2056033D01*
G01X7598280Y2145695D02*
G01X7603868Y2156871D01*
G01X7615298Y2168301D01*
G01X7626474Y2173889D01*
G01X7648826Y2173889D01*
G01X7660256Y2168301D01*
G01X7671432Y2156871D01*
G01X7677020Y2145695D01*
G01X7682608Y2128931D01*
G01X7682608Y2100737D01*
G01X7677020Y2083973D01*
G01X7671432Y2072797D01*
G01X7660256Y2061621D01*
G01X7648826Y2056033D01*
G01X7626474Y2056033D01*
G01X7615298Y2061621D01*
G01X7603868Y2072797D01*
G01X7598280Y2083973D01*
G01X7598280Y2100737D01*
G01X7626474Y2100737D02*
G01X7598280Y2100737D01*
G01X7425306Y2173889D02*
G01X7425306Y2056033D01*
G01X7378062Y2173889D02*
G01X7378062Y2056033D01*
G01X7378062Y2112167D02*
G01X7361044Y2128931D01*
G01X7349868Y2134519D01*
G01X7333104Y2134519D01*
G01X7321928Y2128931D01*
G01X7316086Y2112167D01*
G01X7316086Y2056033D01*
G01X7268842Y2123343D02*
G01X7167750Y2123343D01*
G01X7268842Y2089561D02*
G01X7167750Y2089561D01*
G01X7053196Y2173889D02*
G01X7109330Y2173889D01*
G01X7114918Y2123343D01*
G01X7109330Y2128931D01*
G01X7092312Y2134519D01*
G01X7075548Y2134519D01*
G01X7058784Y2128931D01*
G01X7047608Y2117755D01*
G01X7041766Y2100737D01*
G01X7041766Y2089561D01*
G01X7047608Y2072797D01*
G01X7058784Y2061621D01*
G01X7075548Y2056033D01*
G01X7092312Y2056033D01*
G01X7109330Y2061621D01*
G01X7114918Y2067209D01*
G01X7120506Y2078385D01*
G01X6960740Y2173889D02*
G01X6977758Y2168301D01*
G01X6988934Y2151283D01*
G01X6994522Y2123343D01*
G01X6994522Y2106325D01*
G01X6988934Y2078385D01*
G01X6977758Y2061621D01*
G01X6960740Y2056033D01*
G01X6949564Y2056033D01*
G01X6932800Y2061621D01*
G01X6921624Y2078385D01*
G01X6915782Y2106325D01*
G01X6915782Y2123343D01*
G01X6921624Y2151283D01*
G01X6932800Y2168301D01*
G01X6949564Y2173889D01*
G01X6960740Y2173889D01*
G01X6834756Y2173889D02*
G01X6851774Y2168301D01*
G01X6862950Y2151283D01*
G01X6868538Y2123343D01*
G01X6868538Y2106325D01*
G01X6862950Y2078385D01*
G01X6851774Y2061621D01*
G01X6834756Y2056033D01*
G01X6823580Y2056033D01*
G01X6806816Y2061621D01*
G01X6795640Y2078385D01*
G01X6789798Y2106325D01*
G01X6789798Y2123343D01*
G01X6795640Y2151283D01*
G01X6806816Y2168301D01*
G01X6823580Y2173889D01*
G01X6834756Y2173889D01*
G01X6742554Y2134519D02*
G01X6742554Y2056033D01*
G01X6742554Y2112167D02*
G01X6725790Y2128931D01*
G01X6714360Y2134519D01*
G01X6697596Y2134519D01*
G01X6686420Y2128931D01*
G01X6680832Y2112167D01*
G01X6680832Y2056033D01*
G01X6680832Y2112167D02*
G01X6663814Y2128931D01*
G01X6652638Y2134519D01*
G01X6635874Y2134519D01*
G01X6624698Y2128931D01*
G01X6619110Y2112167D01*
G01X6619110Y2056033D01*
G01X6526908Y2173889D02*
G01X6571866Y2056033D01*
G01X6526908Y2173889D02*
G01X6481950Y2056033D01*
G01X6555102Y2095149D02*
G01X6498968Y2095149D01*
G01X6423530Y2078385D02*
G01X6429118Y2072797D01*
G01X6434706Y2078385D01*
G01X6429118Y2083973D01*
G01X6423530Y2078385D01*
G01X6423530Y2067209D01*
G01X6434706Y2056033D01*
G01X6250556Y2173889D02*
G01X6250556Y2056033D01*
G01X6186294Y2173889D02*
G01X6186294Y2078385D01*
G01X6180706Y2061621D01*
G01X6169530Y2056033D01*
G01X6158354Y2056033D01*
G01X6203312Y2134519D02*
G01X6163942Y2134519D01*
G01X6111110Y2123343D02*
G01X6010018Y2123343D01*
G01X6111110Y2089561D02*
G01X6010018Y2089561D01*
G01X5962774Y2151283D02*
G01X5951598Y2156871D01*
G01X5934580Y2173889D01*
G01X5934580Y2056033D01*
G01X5853554Y2173889D02*
G01X5870572Y2168301D01*
G01X5881748Y2151283D01*
G01X5887336Y2123343D01*
G01X5887336Y2106325D01*
G01X5881748Y2078385D01*
G01X5870572Y2061621D01*
G01X5853554Y2056033D01*
G01X5842378Y2056033D01*
G01X5825614Y2061621D01*
G01X5814438Y2078385D01*
G01X5808596Y2106325D01*
G01X5808596Y2123343D01*
G01X5814438Y2151283D01*
G01X5825614Y2168301D01*
G01X5842378Y2173889D01*
G01X5853554Y2173889D01*
G01X5727570Y2173889D02*
G01X5744588Y2168301D01*
G01X5755764Y2151283D01*
G01X5761352Y2123343D01*
G01X5761352Y2106325D01*
G01X5755764Y2078385D01*
G01X5744588Y2061621D01*
G01X5727570Y2056033D01*
G01X5716394Y2056033D01*
G01X5699630Y2061621D01*
G01X5688454Y2078385D01*
G01X5682612Y2106325D01*
G01X5682612Y2123343D01*
G01X5688454Y2151283D01*
G01X5699630Y2168301D01*
G01X5716394Y2173889D01*
G01X5727570Y2173889D01*
G01X5601586Y2173889D02*
G01X5618604Y2168301D01*
G01X5629780Y2151283D01*
G01X5635368Y2123343D01*
G01X5635368Y2106325D01*
G01X5629780Y2078385D01*
G01X5618604Y2061621D01*
G01X5601586Y2056033D01*
G01X5590410Y2056033D01*
G01X5573646Y2061621D01*
G01X5562470Y2078385D01*
G01X5556628Y2106325D01*
G01X5556628Y2123343D01*
G01X5562470Y2151283D01*
G01X5573646Y2168301D01*
G01X5590410Y2173889D01*
G01X5601586Y2173889D01*
G01X5509384Y2134519D02*
G01X5509384Y2056033D01*
G01X5509384Y2112167D02*
G01X5492620Y2128931D01*
G01X5481190Y2134519D01*
G01X5464426Y2134519D01*
G01X5453250Y2128931D01*
G01X5447662Y2112167D01*
G01X5447662Y2056033D01*
G01X5447662Y2112167D02*
G01X5430644Y2128931D01*
G01X5419468Y2134519D01*
G01X5402704Y2134519D01*
G01X5391528Y2128931D01*
G01X5385940Y2112167D01*
G01X5385940Y2056033D01*
G01X5293738Y2173889D02*
G01X5338696Y2056033D01*
G01X5293738Y2173889D02*
G01X5248780Y2056033D01*
G01X5321932Y2095149D02*
G01X5265798Y2095149D01*
G01X5075806Y2151283D02*
G01X5064630Y2156871D01*
G01X5047612Y2173889D01*
G01X5047612Y2056033D01*
G01X4994780Y2145695D02*
G01X4994780Y2151283D01*
G01X4989192Y2162713D01*
G01X4983604Y2168301D01*
G01X4972174Y2173889D01*
G01X4949822Y2173889D01*
G01X4938646Y2168301D01*
G01X4933058Y2162713D01*
G01X4927470Y2151283D01*
G01X4927470Y2140107D01*
G01X4933058Y2128931D01*
G01X4944234Y2112167D01*
G01X5000368Y2056033D01*
G01X4921628Y2056033D01*
G01X4874384Y2151283D02*
G01X4863208Y2156871D01*
G01X4846190Y2173889D01*
G01X4846190Y2056033D01*
G01X4765164Y2173889D02*
G01X4782182Y2168301D01*
G01X4793358Y2151283D01*
G01X4798946Y2123343D01*
G01X4798946Y2106325D01*
G01X4793358Y2078385D01*
G01X4782182Y2061621D01*
G01X4765164Y2056033D01*
G01X4753988Y2056033D01*
G01X4737224Y2061621D01*
G01X4726048Y2078385D01*
G01X4720206Y2106325D01*
G01X4720206Y2123343D01*
G01X4726048Y2151283D01*
G01X4737224Y2168301D01*
G01X4753988Y2173889D01*
G01X4765164Y2173889D01*
G01X4547232Y2173889D02*
G01X4547232Y2056033D01*
G01X4547232Y2173889D02*
G01X4496686Y2173889D01*
G01X4479668Y2168301D01*
G01X4474080Y2162713D01*
G01X4468492Y2151283D01*
G01X4468492Y2134519D01*
G01X4474080Y2123343D01*
G01X4479668Y2117755D01*
G01X4496686Y2112167D01*
G01X4547232Y2112167D01*
G01X4381878Y2173889D02*
G01X4381878Y2056033D01*
G01X4421248Y2173889D02*
G01X4342508Y2173889D01*
G01X4210936Y2145695D02*
G01X4216524Y2156871D01*
G01X4227954Y2168301D01*
G01X4239130Y2173889D01*
G01X4261482Y2173889D01*
G01X4272912Y2168301D01*
G01X4284088Y2156871D01*
G01X4289676Y2145695D01*
G01X4295264Y2128931D01*
G01X4295264Y2100737D01*
G01X4289676Y2083973D01*
G01X4284088Y2072797D01*
G01X4272912Y2061621D01*
G01X4261482Y2056033D01*
G01X4239130Y2056033D01*
G01X4227954Y2061621D01*
G01X4216524Y2072797D01*
G01X4210936Y2083973D01*
G01X4037962Y2173889D02*
G01X4037962Y2056033D01*
G01X4037962Y2173889D02*
G01X3964810Y2173889D01*
G01X4037962Y2117755D02*
G01X3993004Y2117755D01*
G01X3917566Y2173889D02*
G01X3917566Y2089561D01*
G01X3911978Y2072797D01*
G01X3900802Y2061621D01*
G01X3883784Y2056033D01*
G01X3872608Y2056033D01*
G01X3855844Y2061621D01*
G01X3844668Y2072797D01*
G01X3838826Y2089561D01*
G01X3838826Y2173889D01*
G01X3712842Y2156871D02*
G01X3724272Y2168301D01*
G01X3741036Y2173889D01*
G01X3763388Y2173889D01*
G01X3780406Y2168301D01*
G01X3791582Y2156871D01*
G01X3791582Y2145695D01*
G01X3785994Y2134519D01*
G01X3780406Y2128931D01*
G01X3769230Y2123343D01*
G01X3735448Y2112167D01*
G01X3724272Y2106325D01*
G01X3718684Y2100737D01*
G01X3712842Y2089561D01*
G01X3712842Y2072797D01*
G01X3724272Y2061621D01*
G01X3741036Y2056033D01*
G01X3763388Y2056033D01*
G01X3780406Y2061621D01*
G01X3791582Y2072797D01*
G01X3665598Y2173889D02*
G01X3665598Y2056033D01*
G01X3665598Y2173889D02*
G01X3592700Y2173889D01*
G01X3665598Y2117755D02*
G01X3620640Y2117755D01*
G01X3665598Y2056033D02*
G01X3592700Y2056033D01*
G01X3318634Y2196241D02*
G01X3419726Y2016663D01*
G01X3145660Y2151283D02*
G01X3134484Y2156871D01*
G01X3117466Y2173889D01*
G01X3117466Y2056033D01*
G01X3059046Y2078385D02*
G01X3064634Y2072797D01*
G01X3070222Y2078385D01*
G01X3064634Y2083973D01*
G01X3059046Y2078385D01*
G01X3059046Y2067209D01*
G01X3070222Y2056033D01*
G01X2886072Y2173889D02*
G01X2886072Y2056033D01*
G01X2886072Y2173889D02*
G01X2846702Y2173889D01*
G01X2829938Y2168301D01*
G01X2818508Y2156871D01*
G01X2812920Y2145695D01*
G01X2807332Y2128931D01*
G01X2807332Y2100737D01*
G01X2812920Y2083973D01*
G01X2818508Y2072797D01*
G01X2829938Y2061621D01*
G01X2846702Y2056033D01*
G01X2886072Y2056033D01*
G01X2681348Y2156871D02*
G01X2692778Y2168301D01*
G01X2709542Y2173889D01*
G01X2731894Y2173889D01*
G01X2748912Y2168301D01*
G01X2760088Y2156871D01*
G01X2760088Y2145695D01*
G01X2754500Y2134519D01*
G01X2748912Y2128931D01*
G01X2737736Y2123343D01*
G01X2703954Y2112167D01*
G01X2692778Y2106325D01*
G01X2687190Y2100737D01*
G01X2681348Y2089561D01*
G01X2681348Y2072797D01*
G01X2692778Y2061621D01*
G01X2709542Y2056033D01*
G01X2731894Y2056033D01*
G01X2748912Y2061621D01*
G01X2760088Y2072797D01*
G01X2555364Y2156871D02*
G01X2566794Y2168301D01*
G01X2583558Y2173889D01*
G01X2605910Y2173889D01*
G01X2622928Y2168301D01*
G01X2634104Y2156871D01*
G01X2634104Y2145695D01*
G01X2628516Y2134519D01*
G01X2622928Y2128931D01*
G01X2611752Y2123343D01*
G01X2577970Y2112167D01*
G01X2566794Y2106325D01*
G01X2561206Y2100737D01*
G01X2555364Y2089561D01*
G01X2555364Y2072797D01*
G01X2566794Y2061621D01*
G01X2583558Y2056033D01*
G01X2605910Y2056033D01*
G01X2622928Y2061621D01*
G01X2634104Y2072797D01*
G01X2502532Y2145695D02*
G01X2502532Y2151283D01*
G01X2496944Y2162713D01*
G01X2491356Y2168301D01*
G01X2479926Y2173889D01*
G01X2457574Y2173889D01*
G01X2446398Y2168301D01*
G01X2440810Y2162713D01*
G01X2435222Y2151283D01*
G01X2435222Y2140107D01*
G01X2440810Y2128931D01*
G01X2451986Y2112167D01*
G01X2508120Y2056033D01*
G01X2429380Y2056033D01*
G01X2326002Y2173889D02*
G01X2382136Y2095149D01*
G01X2297808Y2095149D01*
G01X2326002Y2173889D02*
G01X2326002Y2056033D01*
G01X2046094Y2156871D02*
G01X2057270Y2168301D01*
G01X2074288Y2173889D01*
G01X2096640Y2173889D01*
G01X2113658Y2168301D01*
G01X2124834Y2156871D01*
G01X2124834Y2145695D01*
G01X2119246Y2134519D01*
G01X2113658Y2128931D01*
G01X2102228Y2123343D01*
G01X2068700Y2112167D01*
G01X2057270Y2106325D01*
G01X2051682Y2100737D01*
G01X2046094Y2089561D01*
G01X2046094Y2072797D01*
G01X2057270Y2061621D01*
G01X2074288Y2056033D01*
G01X2096640Y2056033D01*
G01X2113658Y2061621D01*
G01X2124834Y2072797D01*
G01X1965068Y2173889D02*
G01X1976498Y2168301D01*
G01X1987674Y2156871D01*
G01X1993262Y2145695D01*
G01X1998850Y2128931D01*
G01X1998850Y2100737D01*
G01X1993262Y2083973D01*
G01X1987674Y2072797D01*
G01X1976498Y2061621D01*
G01X1965068Y2056033D01*
G01X1942716Y2056033D01*
G01X1931540Y2061621D01*
G01X1920110Y2072797D01*
G01X1914522Y2083973D01*
G01X1908934Y2100737D01*
G01X1908934Y2128931D01*
G01X1914522Y2145695D01*
G01X1920110Y2156871D01*
G01X1931540Y2168301D01*
G01X1942716Y2173889D01*
G01X1965068Y2173889D01*
G01X1861690Y2173889D02*
G01X1861690Y2056033D01*
G01X1861690Y2173889D02*
G01X1822320Y2173889D01*
G01X1805556Y2168301D01*
G01X1794380Y2156871D01*
G01X1788792Y2145695D01*
G01X1782950Y2128931D01*
G01X1782950Y2100737D01*
G01X1788792Y2083973D01*
G01X1794380Y2072797D01*
G01X1805556Y2061621D01*
G01X1822320Y2056033D01*
G01X1861690Y2056033D01*
G01X1735706Y2106325D02*
G01X1634614Y2106325D01*
G01X1587370Y2151283D02*
G01X1576194Y2156871D01*
G01X1559176Y2173889D01*
G01X1559176Y2056033D01*
G01X1506344Y2145695D02*
G01X1506344Y2151283D01*
G01X1500756Y2162713D01*
G01X1495168Y2168301D01*
G01X1483738Y2173889D01*
G01X1461386Y2173889D01*
G01X1450210Y2168301D01*
G01X1444622Y2162713D01*
G01X1439034Y2151283D01*
G01X1439034Y2140107D01*
G01X1444622Y2128931D01*
G01X1455798Y2112167D01*
G01X1511932Y2056033D01*
G01X1433192Y2056033D01*
G01X1374772Y2173889D02*
G01X1313050Y2173889D01*
G01X1346578Y2128931D01*
G01X1329814Y2128931D01*
G01X1318638Y2123343D01*
G01X1313050Y2117755D01*
G01X1307208Y2100737D01*
G01X1307208Y2089561D01*
G01X1313050Y2072797D01*
G01X1324226Y2061621D01*
G01X1340990Y2056033D01*
G01X1357754Y2056033D01*
G01X1374772Y2061621D01*
G01X1380360Y2067209D01*
G01X1385948Y2078385D01*
G01X1259964Y2173889D02*
G01X1259964Y2056033D01*
G01X1259964Y2173889D02*
G01X1187066Y2173889D01*
G01X1259964Y2117755D02*
G01X1215006Y2117755D01*
G01X1139822Y2173889D02*
G01X1139822Y2056033D01*
G01X1139822Y2056033D02*
G01X1072512Y2056033D01*
G01X9254614Y1973737D02*
G01X9310748Y1973737D01*
G01X9316336Y1923191D01*
G01X9310748Y1929033D01*
G01X9293730Y1934621D01*
G01X9276966Y1934621D01*
G01X9260202Y1929033D01*
G01X9249026Y1917603D01*
G01X9243438Y1900839D01*
G01X9243438Y1889663D01*
G01X9249026Y1872645D01*
G01X9260202Y1861469D01*
G01X9276966Y1855881D01*
G01X9293730Y1855881D01*
G01X9310748Y1861469D01*
G01X9316336Y1867057D01*
G01X9321924Y1878487D01*
G01X9185018Y1878487D02*
G01X9190606Y1872645D01*
G01X9196194Y1878487D01*
G01X9190606Y1884075D01*
G01X9185018Y1878487D01*
G01X9185018Y1867057D01*
G01X9196194Y1855881D01*
G01X9012044Y1973737D02*
G01X9012044Y1855881D01*
G01X9012044Y1973737D02*
G01X8967086Y1855881D01*
G01X8922128Y1973737D02*
G01X8967086Y1855881D01*
G01X8922128Y1973737D02*
G01X8922128Y1855881D01*
G01X8790556Y1945797D02*
G01X8796144Y1956973D01*
G01X8807574Y1968149D01*
G01X8818750Y1973737D01*
G01X8841102Y1973737D01*
G01X8852532Y1968149D01*
G01X8863708Y1956973D01*
G01X8869296Y1945797D01*
G01X8874884Y1929033D01*
G01X8874884Y1900839D01*
G01X8869296Y1884075D01*
G01X8863708Y1872645D01*
G01X8852532Y1861469D01*
G01X8841102Y1855881D01*
G01X8818750Y1855881D01*
G01X8807574Y1861469D01*
G01X8796144Y1872645D01*
G01X8790556Y1884075D01*
G01X8743312Y1973737D02*
G01X8743312Y1855881D01*
G01X8743312Y1973737D02*
G01X8692766Y1973737D01*
G01X8676002Y1968149D01*
G01X8670414Y1962561D01*
G01X8664572Y1951385D01*
G01X8664572Y1934621D01*
G01X8670414Y1923191D01*
G01X8676002Y1917603D01*
G01X8692766Y1912015D01*
G01X8743312Y1912015D01*
G01X8617328Y1951385D02*
G01X8606152Y1956973D01*
G01X8589134Y1973737D01*
G01X8589134Y1855881D01*
G01X8463150Y1973737D02*
G01X8519538Y1855881D01*
G01X8541890Y1973737D02*
G01X8463150Y1973737D01*
G01X8382124Y1973737D02*
G01X8399142Y1968149D01*
G01X8410318Y1951385D01*
G01X8415906Y1923191D01*
G01X8415906Y1906427D01*
G01X8410318Y1878487D01*
G01X8399142Y1861469D01*
G01X8382124Y1855881D01*
G01X8370948Y1855881D01*
G01X8354184Y1861469D01*
G01X8343008Y1878487D01*
G01X8337166Y1906427D01*
G01X8337166Y1923191D01*
G01X8343008Y1951385D01*
G01X8354184Y1968149D01*
G01X8370948Y1973737D01*
G01X8382124Y1973737D01*
G01X8256140Y1973737D02*
G01X8273158Y1968149D01*
G01X8284334Y1951385D01*
G01X8289922Y1923191D01*
G01X8289922Y1906427D01*
G01X8284334Y1878487D01*
G01X8273158Y1861469D01*
G01X8256140Y1855881D01*
G01X8244964Y1855881D01*
G01X8228200Y1861469D01*
G01X8217024Y1878487D01*
G01X8211182Y1906427D01*
G01X8211182Y1923191D01*
G01X8217024Y1951385D01*
G01X8228200Y1968149D01*
G01X8244964Y1973737D01*
G01X8256140Y1973737D01*
G01X8124568Y1973737D02*
G01X8124568Y1855881D01*
G01X8163938Y1973737D02*
G01X8085198Y1973737D01*
G01X8037954Y1906427D02*
G01X7936862Y1906427D01*
G01X7878442Y1973737D02*
G01X7816720Y1973737D01*
G01X7850248Y1929033D01*
G01X7833484Y1929033D01*
G01X7822308Y1923191D01*
G01X7816720Y1917603D01*
G01X7810878Y1900839D01*
G01X7810878Y1889663D01*
G01X7816720Y1872645D01*
G01X7827896Y1861469D01*
G01X7844660Y1855881D01*
G01X7861424Y1855881D01*
G01X7878442Y1861469D01*
G01X7884030Y1867057D01*
G01X7889618Y1878487D01*
G01X7752458Y1973737D02*
G01X7690736Y1973737D01*
G01X7724264Y1929033D01*
G01X7707500Y1929033D01*
G01X7696324Y1923191D01*
G01X7690736Y1917603D01*
G01X7684894Y1900839D01*
G01X7684894Y1889663D01*
G01X7690736Y1872645D01*
G01X7701912Y1861469D01*
G01X7718676Y1855881D01*
G01X7735440Y1855881D01*
G01X7752458Y1861469D01*
G01X7758046Y1867057D01*
G01X7763634Y1878487D01*
G01X7603868Y1973737D02*
G01X7620886Y1968149D01*
G01X7632062Y1951385D01*
G01X7637650Y1923191D01*
G01X7637650Y1906427D01*
G01X7632062Y1878487D01*
G01X7620886Y1861469D01*
G01X7603868Y1855881D01*
G01X7592692Y1855881D01*
G01X7575928Y1861469D01*
G01X7564752Y1878487D01*
G01X7558910Y1906427D01*
G01X7558910Y1923191D01*
G01X7564752Y1951385D01*
G01X7575928Y1968149D01*
G01X7592692Y1973737D01*
G01X7603868Y1973737D01*
G01X7506078Y1945797D02*
G01X7506078Y1951385D01*
G01X7500490Y1962561D01*
G01X7494902Y1968149D01*
G01X7483472Y1973737D01*
G01X7461120Y1973737D01*
G01X7449944Y1968149D01*
G01X7444356Y1962561D01*
G01X7438768Y1951385D01*
G01X7438768Y1940209D01*
G01X7444356Y1929033D01*
G01X7455532Y1912015D01*
G01X7511666Y1855881D01*
G01X7432926Y1855881D01*
G01X7385682Y1973737D02*
G01X7385682Y1855881D01*
G01X7385682Y1973737D02*
G01X7312784Y1973737D01*
G01X7385682Y1917603D02*
G01X7340724Y1917603D01*
G01X7385682Y1855881D02*
G01X7312784Y1855881D01*
G01X7164448Y1996343D02*
G01X7265540Y1816511D01*
G01X7077834Y1973737D02*
G01X7077834Y1855881D01*
G01X7117204Y1973737D02*
G01X7038464Y1973737D01*
G01X6951850Y1973737D02*
G01X6951850Y1855881D01*
G01X6991220Y1973737D02*
G01X6912480Y1973737D01*
G01X6728330Y1973737D02*
G01X6666354Y1973737D01*
G01X6700136Y1929033D01*
G01X6683372Y1929033D01*
G01X6671942Y1923191D01*
G01X6666354Y1917603D01*
G01X6660766Y1900839D01*
G01X6660766Y1889663D01*
G01X6666354Y1872645D01*
G01X6677784Y1861469D01*
G01X6694548Y1855881D01*
G01X6711312Y1855881D01*
G01X6728330Y1861469D01*
G01X6733918Y1867057D01*
G01X6739506Y1878487D01*
G01X6607934Y1884075D02*
G01X6613522Y1878487D01*
G01X6607934Y1872645D01*
G01X6602346Y1878487D01*
G01X6607934Y1884075D01*
G01X6543926Y1973737D02*
G01X6482204Y1973737D01*
G01X6515732Y1929033D01*
G01X6498968Y1929033D01*
G01X6487792Y1923191D01*
G01X6482204Y1917603D01*
G01X6476362Y1900839D01*
G01X6476362Y1889663D01*
G01X6482204Y1872645D01*
G01X6493380Y1861469D01*
G01X6510144Y1855881D01*
G01X6526908Y1855881D01*
G01X6543926Y1861469D01*
G01X6549514Y1867057D01*
G01X6555102Y1878487D01*
G01X6429118Y1973737D02*
G01X6384160Y1855881D01*
G01X6339202Y1973737D02*
G01X6384160Y1855881D01*
G01X6166228Y1973737D02*
G01X6166228Y1855881D01*
G01X6166228Y1855881D02*
G01X6098664Y1855881D01*
G01X6051420Y1973737D02*
G01X6051420Y1855881D01*
G01X6051420Y1973737D02*
G01X6012050Y1973737D01*
G01X5995286Y1968149D01*
G01X5984110Y1956973D01*
G01X5978522Y1945797D01*
G01X5972680Y1929033D01*
G01X5972680Y1900839D01*
G01X5978522Y1884075D01*
G01X5984110Y1872645D01*
G01X5995286Y1861469D01*
G01X6012050Y1855881D01*
G01X6051420Y1855881D01*
G01X5891654Y1973737D02*
G01X5903084Y1968149D01*
G01X5914260Y1956973D01*
G01X5919848Y1945797D01*
G01X5925436Y1929033D01*
G01X5925436Y1900839D01*
G01X5919848Y1884075D01*
G01X5914260Y1872645D01*
G01X5903084Y1861469D01*
G01X5891654Y1855881D01*
G01X5869302Y1855881D01*
G01X5858126Y1861469D01*
G01X5846696Y1872645D01*
G01X5841108Y1884075D01*
G01X5835520Y1900839D01*
G01X5835520Y1929033D01*
G01X5841108Y1945797D01*
G01X5846696Y1956973D01*
G01X5858126Y1968149D01*
G01X5869302Y1973737D01*
G01X5891654Y1973737D01*
G01X5583806Y1956973D02*
G01X5594982Y1968149D01*
G01X5612000Y1973737D01*
G01X5634352Y1973737D01*
G01X5651370Y1968149D01*
G01X5662546Y1956973D01*
G01X5662546Y1945797D01*
G01X5656958Y1934621D01*
G01X5651370Y1929033D01*
G01X5639940Y1923191D01*
G01X5606412Y1912015D01*
G01X5594982Y1906427D01*
G01X5589394Y1900839D01*
G01X5583806Y1889663D01*
G01X5583806Y1872645D01*
G01X5594982Y1861469D01*
G01X5612000Y1855881D01*
G01X5634352Y1855881D01*
G01X5651370Y1861469D01*
G01X5662546Y1872645D01*
G01X5502780Y1973737D02*
G01X5514210Y1968149D01*
G01X5525386Y1956973D01*
G01X5530974Y1945797D01*
G01X5536562Y1929033D01*
G01X5536562Y1900839D01*
G01X5530974Y1884075D01*
G01X5525386Y1872645D01*
G01X5514210Y1861469D01*
G01X5502780Y1855881D01*
G01X5480428Y1855881D01*
G01X5469252Y1861469D01*
G01X5457822Y1872645D01*
G01X5452234Y1884075D01*
G01X5446646Y1900839D01*
G01X5446646Y1929033D01*
G01X5452234Y1945797D01*
G01X5457822Y1956973D01*
G01X5469252Y1968149D01*
G01X5480428Y1973737D01*
G01X5502780Y1973737D01*
G01X5360032Y1973737D02*
G01X5360032Y1855881D01*
G01X5399402Y1973737D02*
G01X5320662Y1973737D01*
G01X5273418Y1906427D02*
G01X5172326Y1906427D01*
G01X5119494Y1945797D02*
G01X5119494Y1951385D01*
G01X5113906Y1962561D01*
G01X5108318Y1968149D01*
G01X5096888Y1973737D01*
G01X5074536Y1973737D01*
G01X5063360Y1968149D01*
G01X5057772Y1962561D01*
G01X5052184Y1951385D01*
G01X5052184Y1940209D01*
G01X5057772Y1929033D01*
G01X5068948Y1912015D01*
G01X5125082Y1855881D01*
G01X5046342Y1855881D01*
G01X4987922Y1973737D02*
G01X4926200Y1973737D01*
G01X4959728Y1929033D01*
G01X4942964Y1929033D01*
G01X4931788Y1923191D01*
G01X4926200Y1917603D01*
G01X4920358Y1900839D01*
G01X4920358Y1889663D01*
G01X4926200Y1872645D01*
G01X4937376Y1861469D01*
G01X4954140Y1855881D01*
G01X4970904Y1855881D01*
G01X4987922Y1861469D01*
G01X4993510Y1867057D01*
G01X4999098Y1878487D01*
G01X4873114Y1906427D02*
G01X4772022Y1906427D01*
G01X4713602Y1973737D02*
G01X4651880Y1973737D01*
G01X4685408Y1929033D01*
G01X4668644Y1929033D01*
G01X4657468Y1923191D01*
G01X4651880Y1917603D01*
G01X4646038Y1900839D01*
G01X4646038Y1889663D01*
G01X4651880Y1872645D01*
G01X4663056Y1861469D01*
G01X4679820Y1855881D01*
G01X4696584Y1855881D01*
G01X4713602Y1861469D01*
G01X4719190Y1867057D01*
G01X4724778Y1878487D01*
G54D11*
G01X5963158Y1023112D02*
G01X5966460Y1029716D01*
G01X5973064Y1036320D01*
G01X5979668Y1039622D01*
G01X5992876Y1039622D01*
G01X5999480Y1036320D01*
G01X6006084Y1029716D01*
G01X6009386Y1023112D01*
G01X6012688Y1012952D01*
G01X6012688Y996442D01*
G01X6009386Y986536D01*
G01X6006084Y979932D01*
G01X5999480Y973328D01*
G01X5992876Y970026D01*
G01X5979668Y970026D01*
G01X5973064Y973328D01*
G01X5966460Y979932D01*
G01X5963158Y986536D01*
G01X5963158Y996442D01*
G01X5979668Y996442D02*
G01X5963158Y996442D01*
G01X5933186Y1039622D02*
G01X5933186Y970026D01*
G01X5933186Y1039622D02*
G01X5886958Y970026D01*
G01X5886958Y1039622D02*
G01X5886958Y970026D01*
G01X5856986Y1039622D02*
G01X5856986Y970026D01*
G01X5856986Y1039622D02*
G01X5833872Y1039622D01*
G01X5823966Y1036320D01*
G01X5817362Y1029716D01*
G01X5814060Y1023112D01*
G01X5810758Y1012952D01*
G01X5810758Y996442D01*
G01X5814060Y986536D01*
G01X5817362Y979932D01*
G01X5823966Y973328D01*
G01X5833872Y970026D01*
G01X5856986Y970026D01*
G01X5934964Y1700022D02*
G01X5967984Y1700022D01*
G01X5971286Y1670050D01*
G01X5967984Y1673352D01*
G01X5958078Y1676654D01*
G01X5948172Y1676654D01*
G01X5938266Y1673352D01*
G01X5931662Y1666748D01*
G01X5928360Y1656842D01*
G01X5928360Y1650238D01*
G01X5931662Y1640332D01*
G01X5938266Y1633728D01*
G01X5948172Y1630426D01*
G01X5958078Y1630426D01*
G01X5967984Y1633728D01*
G01X5971286Y1637030D01*
G01X5974588Y1643634D01*
G01X5898388Y1700022D02*
G01X5871972Y1630426D01*
G01X5845556Y1700022D02*
G01X5871972Y1630426D01*
G04 Text End*

M02*

