G04 Layer: TopPasteMaskLayer*
G04 EasyEDA Pro v3.2.148, 2026-08-07 17:33:20*
G04 Gerber Generator version 0.3*
G04 Scale: 100 percent, Rotated: No, Reflected: No*
G04 Dimensions in millimeters*
G04 Leading zeros omitted, absolute positions, 4 integers and 5 decimals*
G04 Generated by one-click*
G04 Object Configs: Pad,Via,Track,Text,Image,Dimension,BoardOutline,BoardCutout,CopperFilled,SolidRegion,FPCStiffener,Line,PlaneZone,ComponentProperty,ComponentSilkscreen,TearDrop*
G04 Layer Configs: 1,15,16,2,3,4,5,6,7,8,9,10,11,13,14,56*
G04 Copper Areas: 0*
%FSLAX45Y45*%
%MOMM*%
%ADD10R,3.49999X1.2*%
%ADD11R,0.95001X1.15001*%
%ADD12R,1.07X0.6*%
%ADD13C,0.8694*%
G75*


G04 PolygonModel Start*
G36*
G01X4845661Y701563D02*
G01X4808635Y701563D01*
G01X4798635Y711563D01*
G01X4798635Y742053D01*
G01X4788635Y752053D01*
G01X4749885Y752053D01*
G01X4739885Y742053D01*
G01X4739885Y711563D01*
G01X4729885Y701563D01*
G01X4692860Y701563D01*
G01X4682860Y711563D01*
G01X4682860Y840062D01*
G01X4692860Y850062D01*
G01X4845661Y850062D01*
G01X4855661Y840062D01*
G01X4855661Y711563D01*
G01X4845661Y701563D01*
G37*
G36*
G01X4845661Y531561D02*
G01X4855661Y521561D01*
G01X4855661Y393062D01*
G01X4845661Y383062D01*
G01X4692860Y383062D01*
G01X4682860Y393062D01*
G01X4682860Y521561D01*
G01X4692860Y531561D01*
G01X4729885Y531561D01*
G01X4739885Y521561D01*
G01X4739885Y491071D01*
G01X4749885Y481071D01*
G01X4788635Y481071D01*
G01X4798635Y491071D01*
G01X4798635Y521561D01*
G01X4808635Y531561D01*
G01X4845661Y531561D01*
G37*
G36*
G01X5340201Y701502D02*
G01X5340201Y773275D01*
G01X5350201Y783275D01*
G01X5380692Y783275D01*
G01X5390692Y793275D01*
G01X5390692Y867829D01*
G01X5380692Y877829D01*
G01X5350201Y877829D01*
G01X5340201Y887829D01*
G01X5340201Y959602D01*
G01X5350201Y969602D01*
G01X5478700Y969602D01*
G01X5488700Y959602D01*
G01X5488700Y701502D01*
G01X5478700Y691502D01*
G01X5350201Y691502D01*
G01X5340201Y701502D01*
G37*
G36*
G01X5168701Y701502D02*
G01X5158701Y691502D01*
G01X5030202Y691502D01*
G01X5020202Y701502D01*
G01X5020202Y959602D01*
G01X5030202Y969602D01*
G01X5158701Y969602D01*
G01X5168701Y959602D01*
G01X5168701Y887829D01*
G01X5158701Y877829D01*
G01X5128210Y877829D01*
G01X5118210Y867829D01*
G01X5118210Y793275D01*
G01X5128210Y783275D01*
G01X5158701Y783275D01*
G01X5168701Y773275D01*
G01X5168701Y701502D01*
G37*
G36*
G01X8529857Y2436872D02*
G01X8529857Y2399846D01*
G01X8519857Y2389846D01*
G01X8489367Y2389846D01*
G01X8479367Y2379846D01*
G01X8479367Y2341096D01*
G01X8489367Y2331096D01*
G01X8519857Y2331096D01*
G01X8529857Y2321096D01*
G01X8529857Y2284071D01*
G01X8519857Y2274071D01*
G01X8391359Y2274071D01*
G01X8381359Y2284071D01*
G01X8381359Y2436872D01*
G01X8391359Y2446872D01*
G01X8519857Y2446872D01*
G01X8529857Y2436872D01*
G37*
G36*
G01X8699860Y2436872D02*
G01X8709860Y2446872D01*
G01X8838358Y2446872D01*
G01X8848358Y2436872D01*
G01X8848358Y2284071D01*
G01X8838358Y2274071D01*
G01X8709860Y2274071D01*
G01X8699860Y2284071D01*
G01X8699860Y2321096D01*
G01X8709860Y2331096D01*
G01X8740350Y2331096D01*
G01X8750350Y2341096D01*
G01X8750350Y2379846D01*
G01X8740350Y2389846D01*
G01X8709860Y2389846D01*
G01X8699860Y2399846D01*
G01X8699860Y2436872D01*
G37*
G36*
G01X8686433Y1608342D02*
G01X8686433Y1645367D01*
G01X8696433Y1655367D01*
G01X8726923Y1655367D01*
G01X8736923Y1665367D01*
G01X8736923Y1704117D01*
G01X8726923Y1714117D01*
G01X8696433Y1714117D01*
G01X8686433Y1724117D01*
G01X8686433Y1761143D01*
G01X8696433Y1771143D01*
G01X8824931Y1771143D01*
G01X8834931Y1761143D01*
G01X8834931Y1608342D01*
G01X8824931Y1598342D01*
G01X8696433Y1598342D01*
G01X8686433Y1608342D01*
G37*
G36*
G01X8516431Y1608342D02*
G01X8506431Y1598342D01*
G01X8377932Y1598342D01*
G01X8367932Y1608342D01*
G01X8367932Y1761143D01*
G01X8377932Y1771143D01*
G01X8506431Y1771143D01*
G01X8516431Y1761143D01*
G01X8516431Y1724117D01*
G01X8506431Y1714117D01*
G01X8475940Y1714117D01*
G01X8465940Y1704117D01*
G01X8465940Y1665367D01*
G01X8475940Y1655367D01*
G01X8506431Y1655367D01*
G01X8516431Y1645367D01*
G01X8516431Y1608342D01*
G37*
G36*
G01X9525201Y2802801D02*
G01X9488175Y2802801D01*
G01X9478175Y2812801D01*
G01X9478175Y2843291D01*
G01X9468175Y2853291D01*
G01X9429425Y2853291D01*
G01X9419425Y2843291D01*
G01X9419425Y2812801D01*
G01X9409425Y2802801D01*
G01X9372399Y2802801D01*
G01X9362399Y2812801D01*
G01X9362399Y2941300D01*
G01X9372399Y2951300D01*
G01X9525201Y2951300D01*
G01X9535201Y2941300D01*
G01X9535201Y2812801D01*
G01X9525201Y2802801D01*
G37*
G36*
G01X9525201Y2632799D02*
G01X9535201Y2622799D01*
G01X9535201Y2494300D01*
G01X9525201Y2484300D01*
G01X9372399Y2484300D01*
G01X9362399Y2494300D01*
G01X9362399Y2622799D01*
G01X9372399Y2632799D01*
G01X9409425Y2632799D01*
G01X9419425Y2622799D01*
G01X9419425Y2592309D01*
G01X9429425Y2582309D01*
G01X9468175Y2582309D01*
G01X9478175Y2592309D01*
G01X9478175Y2622799D01*
G01X9488175Y2632799D01*
G01X9525201Y2632799D01*
G37*
G36*
G01X9105699Y2632799D02*
G01X9142725Y2632799D01*
G01X9152725Y2622799D01*
G01X9152725Y2592309D01*
G01X9162725Y2582309D01*
G01X9201475Y2582309D01*
G01X9211475Y2592309D01*
G01X9211475Y2622799D01*
G01X9221475Y2632799D01*
G01X9258501Y2632799D01*
G01X9268501Y2622799D01*
G01X9268501Y2494300D01*
G01X9258501Y2484300D01*
G01X9105699Y2484300D01*
G01X9095699Y2494300D01*
G01X9095699Y2622799D01*
G01X9105699Y2632799D01*
G37*
G36*
G01X9105699Y2802801D02*
G01X9095699Y2812801D01*
G01X9095699Y2941300D01*
G01X9105699Y2951300D01*
G01X9258501Y2951300D01*
G01X9268501Y2941300D01*
G01X9268501Y2812801D01*
G01X9258501Y2802801D01*
G01X9221475Y2802801D01*
G01X9211475Y2812801D01*
G01X9211475Y2843291D01*
G01X9201475Y2853291D01*
G01X9162725Y2853291D01*
G01X9152725Y2843291D01*
G01X9152725Y2812801D01*
G01X9142725Y2802801D01*
G01X9105699Y2802801D01*
G37*
G36*
G01X7041812Y2605457D02*
G01X7078838Y2605457D01*
G01X7088838Y2595457D01*
G01X7088838Y2564967D01*
G01X7098838Y2554967D01*
G01X7137588Y2554967D01*
G01X7147588Y2564967D01*
G01X7147588Y2595457D01*
G01X7157588Y2605457D01*
G01X7194614Y2605457D01*
G01X7204613Y2595457D01*
G01X7204613Y2466958D01*
G01X7194614Y2456959D01*
G01X7041812Y2456959D01*
G01X7031812Y2466958D01*
G01X7031812Y2595457D01*
G01X7041812Y2605457D01*
G37*
G36*
G01X7041812Y2775459D02*
G01X7031812Y2785459D01*
G01X7031812Y2913958D01*
G01X7041812Y2923958D01*
G01X7194614Y2923958D01*
G01X7204613Y2913958D01*
G01X7204613Y2785459D01*
G01X7194614Y2775459D01*
G01X7157588Y2775459D01*
G01X7147588Y2785459D01*
G01X7147588Y2815949D01*
G01X7137588Y2825949D01*
G01X7098838Y2825949D01*
G01X7088838Y2815949D01*
G01X7088838Y2785459D01*
G01X7078838Y2775459D01*
G01X7041812Y2775459D01*
G37*
G36*
G01X6791612Y2605457D02*
G01X6828638Y2605457D01*
G01X6838638Y2595457D01*
G01X6838638Y2564967D01*
G01X6848638Y2554967D01*
G01X6887388Y2554967D01*
G01X6897388Y2564967D01*
G01X6897388Y2595457D01*
G01X6907388Y2605457D01*
G01X6944413Y2605457D01*
G01X6954413Y2595457D01*
G01X6954413Y2466958D01*
G01X6944413Y2456959D01*
G01X6791612Y2456959D01*
G01X6781612Y2466958D01*
G01X6781612Y2595457D01*
G01X6791612Y2605457D01*
G37*
G36*
G01X6791612Y2775459D02*
G01X6781612Y2785459D01*
G01X6781612Y2913958D01*
G01X6791612Y2923958D01*
G01X6944413Y2923958D01*
G01X6954413Y2913958D01*
G01X6954413Y2785459D01*
G01X6944413Y2775459D01*
G01X6907388Y2775459D01*
G01X6897388Y2785459D01*
G01X6897388Y2815949D01*
G01X6887388Y2825949D01*
G01X6848638Y2825949D01*
G01X6838638Y2815949D01*
G01X6838638Y2785459D01*
G01X6828638Y2775459D01*
G01X6791612Y2775459D01*
G37*
G36*
G01X4787699Y2610528D02*
G01X4824725Y2610528D01*
G01X4834725Y2600528D01*
G01X4834725Y2570038D01*
G01X4844725Y2560038D01*
G01X4883475Y2560038D01*
G01X4893475Y2570038D01*
G01X4893475Y2600528D01*
G01X4903475Y2610528D01*
G01X4940501Y2610528D01*
G01X4950501Y2600528D01*
G01X4950501Y2472030D01*
G01X4940501Y2462030D01*
G01X4787699Y2462030D01*
G01X4777699Y2472030D01*
G01X4777699Y2600528D01*
G01X4787699Y2610528D01*
G37*
G36*
G01X4787699Y2780530D02*
G01X4777699Y2790530D01*
G01X4777699Y2919029D01*
G01X4787699Y2929029D01*
G01X4940501Y2929029D01*
G01X4950501Y2919029D01*
G01X4950501Y2790530D01*
G01X4940501Y2780530D01*
G01X4903475Y2780530D01*
G01X4893475Y2790530D01*
G01X4893475Y2821021D01*
G01X4883475Y2831021D01*
G01X4844725Y2831021D01*
G01X4834725Y2821021D01*
G01X4834725Y2790530D01*
G01X4824725Y2780530D01*
G01X4787699Y2780530D01*
G37*
G36*
G01X4476041Y2610528D02*
G01X4513067Y2610528D01*
G01X4523067Y2600528D01*
G01X4523067Y2570038D01*
G01X4533067Y2560038D01*
G01X4571817Y2560038D01*
G01X4581817Y2570038D01*
G01X4581817Y2600528D01*
G01X4591817Y2610528D01*
G01X4628843Y2610528D01*
G01X4638843Y2600528D01*
G01X4638843Y2472030D01*
G01X4628843Y2462030D01*
G01X4476041Y2462030D01*
G01X4466041Y2472030D01*
G01X4466041Y2600528D01*
G01X4476041Y2610528D01*
G37*
G36*
G01X4476041Y2780530D02*
G01X4466041Y2790530D01*
G01X4466041Y2919029D01*
G01X4476041Y2929029D01*
G01X4628843Y2929029D01*
G01X4638843Y2919029D01*
G01X4638843Y2790530D01*
G01X4628843Y2780530D01*
G01X4591817Y2780530D01*
G01X4581817Y2790530D01*
G01X4581817Y2821021D01*
G01X4571817Y2831021D01*
G01X4533067Y2831021D01*
G01X4523067Y2821021D01*
G01X4523067Y2790530D01*
G01X4513067Y2780530D01*
G01X4476041Y2780530D01*
G37*
G36*
G01X2476299Y2597828D02*
G01X2513325Y2597828D01*
G01X2523325Y2587828D01*
G01X2523325Y2557338D01*
G01X2533325Y2547338D01*
G01X2572075Y2547338D01*
G01X2582075Y2557338D01*
G01X2582075Y2587828D01*
G01X2592075Y2597828D01*
G01X2629101Y2597828D01*
G01X2639101Y2587828D01*
G01X2639101Y2459330D01*
G01X2629101Y2449330D01*
G01X2476299Y2449330D01*
G01X2466299Y2459330D01*
G01X2466299Y2587828D01*
G01X2476299Y2597828D01*
G37*
G36*
G01X2476299Y2767830D02*
G01X2466299Y2777830D01*
G01X2466299Y2906329D01*
G01X2476299Y2916329D01*
G01X2629101Y2916329D01*
G01X2639101Y2906329D01*
G01X2639101Y2777830D01*
G01X2629101Y2767830D01*
G01X2592075Y2767830D01*
G01X2582075Y2777830D01*
G01X2582075Y2808321D01*
G01X2572075Y2818321D01*
G01X2533325Y2818321D01*
G01X2523325Y2808321D01*
G01X2523325Y2777830D01*
G01X2513325Y2767830D01*
G01X2476299Y2767830D01*
G37*
G36*
G01X2181512Y2597828D02*
G01X2218538Y2597828D01*
G01X2228538Y2587828D01*
G01X2228538Y2557338D01*
G01X2238538Y2547338D01*
G01X2277288Y2547338D01*
G01X2287288Y2557338D01*
G01X2287288Y2587828D01*
G01X2297288Y2597828D01*
G01X2334313Y2597828D01*
G01X2344313Y2587828D01*
G01X2344313Y2459330D01*
G01X2334313Y2449330D01*
G01X2181512Y2449330D01*
G01X2171512Y2459330D01*
G01X2171512Y2587828D01*
G01X2181512Y2597828D01*
G37*
G36*
G01X2181512Y2767830D02*
G01X2171512Y2777830D01*
G01X2171512Y2906329D01*
G01X2181512Y2916329D01*
G01X2334313Y2916329D01*
G01X2344313Y2906329D01*
G01X2344313Y2777830D01*
G01X2334313Y2767830D01*
G01X2297288Y2767830D01*
G01X2287288Y2777830D01*
G01X2287288Y2808321D01*
G01X2277288Y2818321D01*
G01X2238538Y2818321D01*
G01X2228538Y2808321D01*
G01X2228538Y2777830D01*
G01X2218538Y2767830D01*
G01X2181512Y2767830D01*
G37*

G04 Pad Start*
G54D10*
G01X4314943Y678152D03*
G01X3780959Y678152D03*
G54D11*
G01X6007891Y830552D03*
G01X5669411Y830552D03*
G54D12*
G01X9109393Y3308096D03*
G01X9109393Y3118104D03*
G01X9356408Y3213100D03*
G01X6874193Y3308096D03*
G01X6874193Y3118104D03*
G01X7121208Y3213100D03*
G01X4562793Y3308096D03*
G01X4562793Y3118104D03*
G01X4809808Y3213100D03*
G01X2302193Y3295396D03*
G01X2302193Y3105404D03*
G01X2549208Y3200400D03*
G01X8446576Y2110516D03*
G01X8446576Y1920524D03*
G01X8693591Y2015520D03*
G04 Pad End*

M02*

