;TYPE=PLATED
;Layer: PTH_Through
;EasyEDA Pro v3.2.148, 2026-08-07 17:33:20
;Gerber Generator version 0.3
M48
METRIC,LZ,0000.00000
;Hole size 1 = 0.30500 METRIC
T01C0.30500
;Hole size 2 = 1.02001 METRIC
T02C1.02001
;Hole size 3 = 1.10002 METRIC
T03C1.10002
%
G05
G90
T01
X22.987Y33.909
X24.06345Y25.23571
X25.527Y30.54221
X47.10044Y25.36271
X48.641Y30.8143
X45.593Y34.163
X68.707Y34.29
X71.18213Y30.45152
X69.91068Y25.31208
X91.059Y34.163
X94.488Y30.78407
X87.74116Y21.4423
X84.46575Y22.03183
X86.01432Y16.84743
X93.17078Y25.58542
X49.33921Y7.7582
X47.6926Y9.39456
X49.276Y4.572
X45.58002Y6.78132
X35.179Y6.731
T02
X76.2Y33.147
X76.2Y30.607
X78.74Y33.147
X78.74Y30.607
X81.28Y33.147
X81.28Y30.607
X83.81997Y33.147
X83.81997Y30.607
X86.35997Y33.147
X86.35997Y30.607
X88.89997Y33.147
X88.89997Y30.607
X53.34Y33.147
X53.34Y30.607
X55.88Y33.147
X55.88Y30.607
X58.42Y33.147
X58.42Y30.607
X60.95997Y33.147
X60.95997Y30.607
X63.49997Y33.147
X63.49997Y30.607
X66.03997Y33.147
X66.03997Y30.607
X43.18Y33.147
X43.18Y30.607
X40.64Y33.147
X40.64Y30.607
X38.1Y33.147
X38.1Y30.607
X35.56003Y33.147
X35.56003Y30.607
X33.02003Y33.147
X33.02003Y30.607
X30.48003Y33.147
X30.48003Y30.607
X20.32Y33.147
X20.32Y30.607
X17.78Y33.147
X17.78Y30.607
X15.24Y33.147
X15.24Y30.607
X12.70003Y33.147
X12.70003Y30.607
X10.16003Y33.147
X10.16003Y30.607
X7.62003Y33.147
X7.62003Y30.607
T03
X93.26432Y6.89145
X90.72432Y6.89145
X93.26432Y9.43145
X90.72432Y9.43145
X93.26432Y11.97145
X90.72432Y11.97145
X93.26432Y14.51145
X90.72432Y14.51145
X93.26432Y17.30545
X90.72432Y17.30545
X23.622Y11.938
X23.622Y14.478
X26.162Y11.938
X26.162Y14.478
X28.702Y11.938
X28.702Y14.478
X31.242Y11.938
X31.242Y14.478
X33.782Y11.938
X33.782Y14.478
X36.322Y11.938
X36.322Y14.478
X38.862Y11.938
X38.862Y14.478
X41.402Y11.938
X41.402Y14.478
X43.942Y11.938
X43.942Y14.478
X46.482Y11.938
X46.482Y14.478
X49.022Y11.938
X49.022Y14.478
X51.562Y11.938
X51.562Y14.478
X54.102Y11.938
X54.102Y14.478
X56.642Y11.938
X56.642Y14.478
X59.182Y11.938
X59.182Y14.478
X61.722Y11.938
X61.722Y14.478
X64.262Y11.938
X64.262Y14.478
X66.802Y11.938
X66.802Y14.478
X69.342Y11.938
X69.342Y14.478
X71.882Y11.938
X71.882Y14.478
M30