;TYPE=PLATED
;Layer: PTH_Through_Via
;EasyEDA Pro v3.2.148, 2026-08-07 17:33:20
;Gerber Generator version 0.3
M48
METRIC,LZ,0000.00000
;Hole size 1 = 0.30500 METRIC
T01C0.30500
%
G05
G90
T01
X22.987Y33.909
X24.06345Y25.23571
X25.527Y30.54221
X47.10044Y25.36271
X48.641Y30.8143
X45.593Y34.163
X68.707Y34.29
X71.18213Y30.45152
X69.91068Y25.31208
X91.059Y34.163
X94.488Y30.78407
X87.74116Y21.4423
X84.46575Y22.03183
X86.01432Y16.84743
X93.17078Y25.58542
X49.33921Y7.7582
X47.6926Y9.39456
X49.276Y4.572
X45.58002Y6.78132
X35.179Y6.731
M30