G04 Layer: BottomLayer*
G04 EasyEDA Pro v3.2.148, 2026-08-07 17:33:20*
G04 Gerber Generator version 0.3*
G04 Scale: 100 percent, Rotated: No, Reflected: No*
G04 Dimensions in millimeters*
G04 Leading zeros omitted, absolute positions, 4 integers and 5 decimals*
G04 Generated by one-click*
G04 Object Configs: Pad,Via,Track,Text,Image,Dimension,BoardOutline,BoardCutout,CopperFilled,SolidRegion,FPCStiffener,Line,PlaneZone,ComponentProperty,ComponentSilkscreen,TearDrop*
G04 Layer Configs: 1,15,16,2,3,4,5,6,7,8,9,10,11,13,14,56*
G04 Copper Areas: 0*
%FSLAX45Y45*%
%MOMM*%
%ADD10C,1.6*%
%ADD11R,1.6X1.6*%
%ADD12C,1.8*%
%ADD13C,1.7*%
%ADD14R,1.7X1.524*%
%ADD15C,0.61*%
%ADD16C,0.2559*%
%ADD17C,0.254*%
G75*


G04 Pad Start*
G54D10*
G01X9326432Y689145D03*
G01X9072432Y689145D03*
G54D11*
G01X9326432Y943145D03*
G54D10*
G01X9072432Y943145D03*
G54D11*
G01X9326432Y1197145D03*
G54D10*
G01X9072432Y1197145D03*
G01X9326432Y1451145D03*
G01X9072432Y1451145D03*
G54D12*
G01X9326432Y1730545D03*
G01X9072432Y1730545D03*
G54D13*
G01X2362200Y1193800D03*
G01X2362200Y1447800D03*
G01X2616200Y1193800D03*
G01X2616200Y1447800D03*
G01X2870200Y1193800D03*
G01X2870200Y1447800D03*
G01X3124200Y1193800D03*
G01X3124200Y1447800D03*
G01X3378200Y1193800D03*
G01X3378200Y1447800D03*
G01X3632200Y1193800D03*
G01X3632200Y1447800D03*
G01X3886200Y1193800D03*
G01X3886200Y1447800D03*
G01X4140200Y1193800D03*
G01X4140200Y1447800D03*
G01X4394200Y1193800D03*
G01X4394200Y1447800D03*
G01X4648200Y1193800D03*
G01X4648200Y1447800D03*
G01X4902200Y1193800D03*
G01X4902200Y1447800D03*
G01X5156200Y1193800D03*
G01X5156200Y1447800D03*
G01X5410200Y1193800D03*
G01X5410200Y1447800D03*
G01X5664200Y1193800D03*
G01X5664200Y1447800D03*
G01X5918200Y1193800D03*
G01X5918200Y1447800D03*
G01X6172200Y1193800D03*
G01X6172200Y1447800D03*
G01X6426200Y1193800D03*
G01X6426200Y1447800D03*
G01X6680200Y1193800D03*
G01X6680200Y1447800D03*
G01X6934200Y1193800D03*
G01X6934200Y1447800D03*
G01X7188200Y1193800D03*
G54D14*
G01X7188200Y1447800D03*
G54D10*
G01X7619997Y3314700D03*
G01X7619997Y3060700D03*
G01X7873997Y3314700D03*
G01X7873997Y3060700D03*
G01X8127997Y3314700D03*
G01X8127997Y3060700D03*
G01X8381997Y3314700D03*
G01X8381997Y3060700D03*
G54D11*
G01X8635997Y3314700D03*
G01X8635997Y3060700D03*
G54D10*
G01X8889997Y3314700D03*
G01X8889997Y3060700D03*
G01X5333997Y3314700D03*
G01X5333997Y3060700D03*
G01X5587997Y3314700D03*
G01X5587997Y3060700D03*
G01X5841997Y3314700D03*
G01X5841997Y3060700D03*
G01X6095997Y3314700D03*
G01X6095997Y3060700D03*
G54D11*
G01X6349997Y3314700D03*
G01X6349997Y3060700D03*
G54D10*
G01X6603997Y3314700D03*
G01X6603997Y3060700D03*
G01X4318003Y3314700D03*
G01X4318003Y3060700D03*
G54D11*
G01X4064003Y3314700D03*
G01X4064003Y3060700D03*
G54D10*
G01X3810003Y3314700D03*
G01X3810003Y3060700D03*
G01X3556003Y3314700D03*
G01X3556003Y3060700D03*
G01X3302003Y3314700D03*
G01X3302003Y3060700D03*
G01X3048003Y3314700D03*
G01X3048003Y3060700D03*
G01X2032003Y3314700D03*
G01X2032003Y3060700D03*
G54D11*
G01X1778003Y3314700D03*
G01X1778003Y3060700D03*
G54D10*
G01X1524003Y3314700D03*
G01X1524003Y3060700D03*
G01X1270003Y3314700D03*
G01X1270003Y3060700D03*
G01X1016003Y3314700D03*
G01X1016003Y3060700D03*
G01X762003Y3314700D03*
G01X762003Y3060700D03*
G04 Pad End*

G04 Via Start*
G54D15*
G01X2298700Y3390900D03*
G01X2406345Y2523571D03*
G01X2552700Y3054221D03*
G01X4710044Y2536271D03*
G01X4864100Y3081430D03*
G01X4559300Y3416300D03*
G01X6870700Y3429000D03*
G01X7118213Y3045152D03*
G01X6991068Y2531208D03*
G01X9105900Y3416300D03*
G01X9448800Y3078407D03*
G01X8774116Y2144230D03*
G01X8446575Y2203183D03*
G01X8601432Y1684743D03*
G01X9317078Y2558542D03*
G01X4933921Y775820D03*
G01X4769260Y939456D03*
G01X4927600Y457200D03*
G01X4558002Y678132D03*
G01X3517900Y673100D03*
G04 Via End*

G04 Track Start*
G54D17*
G01X6299200Y1333500D02*
G01X6426200Y1206500D01*
G01X6426200Y1193800D01*
G01X5664200Y1447800D02*
G01X5791200Y1320800D01*
G01X5791200Y1104900D01*
G01X5664200Y1193800D02*
G01X5664200Y1092200D01*
G01X8331200Y1451145D02*
G01X9072432Y1451145D01*
G01X5791200Y1104900D02*
G01X5842000Y1054100D01*
G01X7934155Y1054100D01*
G01X8331200Y1451145D01*
G01X5664200Y1092200D02*
G01X5791200Y965200D01*
G01X7975600Y965200D01*
G01X8207545Y1197145D01*
G01X9072432Y1197145D01*
G01X7480300Y2844800D02*
G01X6299200Y1663700D01*
G01X6299200Y1333500D01*
G01X7619997Y3314700D02*
G01X7594600Y3314700D01*
G01X7480300Y3200400D01*
G01X7480300Y2844800D01*
G04 Track End*

M02*

