G04 Layer: DrillDrawingLayer*
G04 EasyEDA Pro v3.2.148, 2026-08-07 17:33:20*
G04 Gerber Generator version 0.3*
G04 Scale: 100 percent, Rotated: No, Reflected: No*
G04 Dimensions in millimeters*
G04 Leading zeros omitted, absolute positions, 4 integers and 5 decimals*
G04 Generated by one-click*
G04 Object Configs: Pad,Via,Track,Text,Image,Dimension,BoardOutline,BoardCutout,CopperFilled,SolidRegion,FPCStiffener,Line,PlaneZone,ComponentProperty,ComponentSilkscreen,TearDrop*
G04 Layer Configs: 1,15,16,2,3,4,5,6,7,8,9,10,11,13,14,56*
G04 Copper Areas: 0*
%FSLAX45Y45*%
%MOMM*%
%AMIconRect*4,1,4,0.28,-0.28,-0.28,-0.28,-0.28,0.28,0.28,0.28,0.28,-0.28,0*4,0,4,0.233333,-0.233333,0.233333,0.233333,-0.233333,0.233333,-0.233333,-0.233333,0.233333,-0.233333,0*%
%AMIconTriangle*4,1,3,-0.339593,0.240473,0.339593,0.240473,0,-0.37884,-0.339593,0.240473,0*4,0,3,-0.265673,0.19404,0,-0.27342,0.266233,0.19404,-0.265673,0.19404,0*%
%AMIconStar6*4,1,12,0.12068,0.20888,0.298527,0.172713,0.241313,0,0.298527,-0.17206,0.12068,-0.208227,0,-0.344073,-0.120073,-0.208227,-0.298573,-0.17206,-0.240707,0,-0.298573,0.17206,-0.120073,0.20888,0,0.344073,0.12068,0.20888,0*4,0,12,-0.000467,0.273467,-0.090067,0.171733,-0.237533,0.136733,-0.193667,-0.007467,-0.237533,-0.1372,-0.090067,-0.171733,-0.000467,-0.273933,0.090067,-0.171733,0.237533,-0.1372,0.194133,0.007,0.237533,0.1372,0.090067,0.171267,-0.000467,0.273467,0*%
%ADD10IconRect*%
%ADD11C,0.616X0.522667*%
%ADD12IconTriangle*%
%ADD13IconStar6*%
%ADD14C,0.2032*%
%ADD15C,0.254*%
G75*


G04 Drill Drawing Start*
G54D10*
G01X2540000Y3937000D03*
G01X4826000Y3937000D03*
G01X7073900Y3937000D03*
G01X9296400Y3937000D03*
G54D11*
G01X2298700Y3390900D03*
G01X2406345Y2523571D03*
G01X2552700Y3054221D03*
G01X3517900Y673100D03*
G01X4558002Y678132D03*
G01X4559300Y3416300D03*
G01X4710044Y2536271D03*
G01X4769260Y939456D03*
G01X4864100Y3081430D03*
G01X4927600Y457200D03*
G01X4933921Y775820D03*
G01X6870700Y3429000D03*
G01X6991068Y2531208D03*
G01X7118213Y3045152D03*
G01X8446575Y2203183D03*
G01X8601432Y1684743D03*
G01X8774116Y2144230D03*
G01X9105900Y3416300D03*
G01X9317078Y2558542D03*
G01X9448800Y3078407D03*
G54D12*
G01X762003Y3060700D03*
G01X762003Y3314700D03*
G01X1016003Y3060700D03*
G01X1016003Y3314700D03*
G01X1270003Y3060700D03*
G01X1270003Y3314700D03*
G01X1524000Y3060700D03*
G01X1524000Y3314700D03*
G01X1778000Y3060700D03*
G01X1778000Y3314700D03*
G01X2032000Y3060700D03*
G01X2032000Y3314700D03*
G01X3048003Y3060700D03*
G01X3048003Y3314700D03*
G01X3302003Y3060700D03*
G01X3302003Y3314700D03*
G01X3556003Y3060700D03*
G01X3556003Y3314700D03*
G01X3810000Y3060700D03*
G01X3810000Y3314700D03*
G01X4064000Y3060700D03*
G01X4064000Y3314700D03*
G01X4318000Y3060700D03*
G01X4318000Y3314700D03*
G01X5334000Y3060700D03*
G01X5334000Y3314700D03*
G01X5588000Y3060700D03*
G01X5588000Y3314700D03*
G01X5842000Y3060700D03*
G01X5842000Y3314700D03*
G01X6095997Y3060700D03*
G01X6095997Y3314700D03*
G01X6349997Y3060700D03*
G01X6349997Y3314700D03*
G01X6603997Y3060700D03*
G01X6603997Y3314700D03*
G01X7620000Y3060700D03*
G01X7620000Y3314700D03*
G01X7874000Y3060700D03*
G01X7874000Y3314700D03*
G01X8128000Y3060700D03*
G01X8128000Y3314700D03*
G01X8381997Y3060700D03*
G01X8381997Y3314700D03*
G01X8635997Y3060700D03*
G01X8635997Y3314700D03*
G01X8889997Y3060700D03*
G01X8889997Y3314700D03*
G54D13*
G01X2362200Y1193800D03*
G01X2362200Y1447800D03*
G01X2616200Y1193800D03*
G01X2616200Y1447800D03*
G01X2870200Y1193800D03*
G01X2870200Y1447800D03*
G01X3124200Y1193800D03*
G01X3124200Y1447800D03*
G01X3378200Y1193800D03*
G01X3378200Y1447800D03*
G01X3632200Y1193800D03*
G01X3632200Y1447800D03*
G01X3886200Y1193800D03*
G01X3886200Y1447800D03*
G01X4140200Y1193800D03*
G01X4140200Y1447800D03*
G01X4394200Y1193800D03*
G01X4394200Y1447800D03*
G01X4648200Y1193800D03*
G01X4648200Y1447800D03*
G01X4902200Y1193800D03*
G01X4902200Y1447800D03*
G01X5156200Y1193800D03*
G01X5156200Y1447800D03*
G01X5410200Y1193800D03*
G01X5410200Y1447800D03*
G01X5664200Y1193800D03*
G01X5664200Y1447800D03*
G01X5918200Y1193800D03*
G01X5918200Y1447800D03*
G01X6172200Y1193800D03*
G01X6172200Y1447800D03*
G01X6426200Y1193800D03*
G01X6426200Y1447800D03*
G01X6680200Y1193800D03*
G01X6680200Y1447800D03*
G01X6934200Y1193800D03*
G01X6934200Y1447800D03*
G01X7188200Y1193800D03*
G01X7188200Y1447800D03*
G01X9072432Y689145D03*
G01X9072432Y943145D03*
G01X9072432Y1197145D03*
G01X9072432Y1451145D03*
G01X9072432Y1730545D03*
G01X9326432Y689145D03*
G01X9326432Y943145D03*
G01X9326432Y1197145D03*
G01X9326432Y1451145D03*
G01X9326432Y1730545D03*
G04 Drill Drawing End*

G04 Text Start*
G54D14*
G01X11888946Y4096294D02*
G01X11888946Y3976152D01*
G01X11888946Y4096294D02*
G01X11934666Y3976152D01*
G01X11980386Y4096294D02*
G01X11934666Y3976152D01*
G01X11980386Y4096294D02*
G01X11980386Y3976152D01*
G01X12096718Y4056162D02*
G01X12096718Y3976152D01*
G01X12096718Y4039144D02*
G01X12085288Y4050574D01*
G01X12073858Y4056162D01*
G01X12056840Y4056162D01*
G01X12045410Y4050574D01*
G01X12033980Y4039144D01*
G01X12028138Y4021872D01*
G01X12028138Y4010442D01*
G01X12033980Y3993424D01*
G01X12045410Y3981994D01*
G01X12056840Y3976152D01*
G01X12073858Y3976152D01*
G01X12085288Y3981994D01*
G01X12096718Y3993424D01*
G01X12144470Y4056162D02*
G01X12144470Y3976152D01*
G01X12144470Y4021872D02*
G01X12150312Y4039144D01*
G01X12161742Y4050574D01*
G01X12173172Y4056162D01*
G01X12190190Y4056162D01*
G01X12237942Y4096294D02*
G01X12237942Y3976152D01*
G01X12295092Y4056162D02*
G01X12237942Y3999012D01*
G01X12260802Y4021872D02*
G01X12300934Y3976152D01*
G01X13426226Y4067592D02*
G01X13420384Y4079022D01*
G01X13408954Y4090452D01*
G01X13397524Y4096294D01*
G01X13374664Y4096294D01*
G01X13363234Y4090452D01*
G01X13351804Y4079022D01*
G01X13346216Y4067592D01*
G01X13340374Y4050574D01*
G01X13340374Y4021872D01*
G01X13346216Y4004854D01*
G01X13351804Y3993424D01*
G01X13363234Y3981994D01*
G01X13374664Y3976152D01*
G01X13397524Y3976152D01*
G01X13408954Y3981994D01*
G01X13420384Y3993424D01*
G01X13426226Y4004854D01*
G01X13502680Y4056162D02*
G01X13491250Y4050574D01*
G01X13479820Y4039144D01*
G01X13473978Y4021872D01*
G01X13473978Y4010442D01*
G01X13479820Y3993424D01*
G01X13491250Y3981994D01*
G01X13502680Y3976152D01*
G01X13519698Y3976152D01*
G01X13531128Y3981994D01*
G01X13542558Y3993424D01*
G01X13548400Y4010442D01*
G01X13548400Y4021872D01*
G01X13542558Y4039144D01*
G01X13531128Y4050574D01*
G01X13519698Y4056162D01*
G01X13502680Y4056162D01*
G01X13596152Y4056162D02*
G01X13596152Y3999012D01*
G01X13601994Y3981994D01*
G01X13613424Y3976152D01*
G01X13630442Y3976152D01*
G01X13641872Y3981994D01*
G01X13659144Y3999012D01*
G01X13659144Y4056162D02*
G01X13659144Y3976152D01*
G01X13706896Y4056162D02*
G01X13706896Y3976152D01*
G01X13706896Y4033302D02*
G01X13724168Y4050574D01*
G01X13735598Y4056162D01*
G01X13752616Y4056162D01*
G01X13764046Y4050574D01*
G01X13769888Y4033302D01*
G01X13769888Y3976152D01*
G01X13834912Y4096294D02*
G01X13834912Y3999012D01*
G01X13840500Y3981994D01*
G01X13851930Y3976152D01*
G01X13863360Y3976152D01*
G01X13817640Y4056162D02*
G01X13857772Y4056162D01*
G01X14834547Y4079022D02*
G01X14823117Y4090452D01*
G01X14806099Y4096294D01*
G01X14783239Y4096294D01*
G01X14765967Y4090452D01*
G01X14754537Y4079022D01*
G01X14754537Y4067592D01*
G01X14760379Y4056162D01*
G01X14765967Y4050574D01*
G01X14777397Y4044732D01*
G01X14811687Y4033302D01*
G01X14823117Y4027714D01*
G01X14828959Y4021872D01*
G01X14834547Y4010442D01*
G01X14834547Y3993424D01*
G01X14823117Y3981994D01*
G01X14806099Y3976152D01*
G01X14783239Y3976152D01*
G01X14765967Y3981994D01*
G01X14754537Y3993424D01*
G01X14882299Y4096294D02*
G01X14888141Y4090452D01*
G01X14893729Y4096294D01*
G01X14888141Y4101882D01*
G01X14882299Y4096294D01*
G01X14888141Y4056162D02*
G01X14888141Y3976152D01*
G01X15004473Y4056162D02*
G01X14941481Y3976152D01*
G01X14941481Y4056162D02*
G01X15004473Y4056162D01*
G01X14941481Y3976152D02*
G01X15004473Y3976152D01*
G01X15052225Y4021872D02*
G01X15120805Y4021872D01*
G01X15120805Y4033302D01*
G01X15115217Y4044732D01*
G01X15109375Y4050574D01*
G01X15097945Y4056162D01*
G01X15080927Y4056162D01*
G01X15069497Y4050574D01*
G01X15058067Y4039144D01*
G01X15052225Y4021872D01*
G01X15052225Y4010442D01*
G01X15058067Y3993424D01*
G01X15069497Y3981994D01*
G01X15080927Y3976152D01*
G01X15097945Y3976152D01*
G01X15109375Y3981994D01*
G01X15120805Y3993424D01*
G01X18557063Y4096294D02*
G01X18557063Y3976152D01*
G01X18557063Y4096294D02*
G01X18608625Y4096294D01*
G01X18625643Y4090452D01*
G01X18631485Y4084864D01*
G01X18637073Y4073434D01*
G01X18637073Y4056162D01*
G01X18631485Y4044732D01*
G01X18625643Y4039144D01*
G01X18608625Y4033302D01*
G01X18557063Y4033302D01*
G01X18684825Y4096294D02*
G01X18684825Y3976152D01*
G01X18801157Y4056162D02*
G01X18801157Y3976152D01*
G01X18801157Y4039144D02*
G01X18789727Y4050574D01*
G01X18778297Y4056162D01*
G01X18761279Y4056162D01*
G01X18749849Y4050574D01*
G01X18738419Y4039144D01*
G01X18732577Y4021872D01*
G01X18732577Y4010442D01*
G01X18738419Y3993424D01*
G01X18749849Y3981994D01*
G01X18761279Y3976152D01*
G01X18778297Y3976152D01*
G01X18789727Y3981994D01*
G01X18801157Y3993424D01*
G01X18866181Y4096294D02*
G01X18866181Y3999012D01*
G01X18871769Y3981994D01*
G01X18883199Y3976152D01*
G01X18894629Y3976152D01*
G01X18848909Y4056162D02*
G01X18889041Y4056162D01*
G01X18942381Y4021872D02*
G01X19010961Y4021872D01*
G01X19010961Y4033302D01*
G01X19005373Y4044732D01*
G01X18999531Y4050574D01*
G01X18988101Y4056162D01*
G01X18971083Y4056162D01*
G01X18959653Y4050574D01*
G01X18948223Y4039144D01*
G01X18942381Y4021872D01*
G01X18942381Y4010442D01*
G01X18948223Y3993424D01*
G01X18959653Y3981994D01*
G01X18971083Y3976152D01*
G01X18988101Y3976152D01*
G01X18999531Y3981994D01*
G01X19010961Y3993424D01*
G01X19127293Y4096294D02*
G01X19127293Y3976152D01*
G01X19127293Y4039144D02*
G01X19115863Y4050574D01*
G01X19104433Y4056162D01*
G01X19087415Y4056162D01*
G01X19075985Y4050574D01*
G01X19064555Y4039144D01*
G01X19058713Y4021872D01*
G01X19058713Y4010442D01*
G01X19064555Y3993424D01*
G01X19075985Y3981994D01*
G01X19087415Y3976152D01*
G01X19104433Y3976152D01*
G01X19115863Y3981994D01*
G01X19127293Y3993424D01*
G01X20098480Y4079022D02*
G01X20087050Y4090452D01*
G01X20070032Y4096294D01*
G01X20047172Y4096294D01*
G01X20029900Y4090452D01*
G01X20018470Y4079022D01*
G01X20018470Y4067592D01*
G01X20024312Y4056162D01*
G01X20029900Y4050574D01*
G01X20041330Y4044732D01*
G01X20075620Y4033302D01*
G01X20087050Y4027714D01*
G01X20092892Y4021872D01*
G01X20098480Y4010442D01*
G01X20098480Y3993424D01*
G01X20087050Y3981994D01*
G01X20070032Y3976152D01*
G01X20047172Y3976152D01*
G01X20029900Y3981994D01*
G01X20018470Y3993424D01*
G01X20146232Y4096294D02*
G01X20146232Y3976152D01*
G01X20146232Y4033302D02*
G01X20163504Y4050574D01*
G01X20174934Y4056162D01*
G01X20191952Y4056162D01*
G01X20203382Y4050574D01*
G01X20209224Y4033302D01*
G01X20209224Y3976152D01*
G01X20325556Y4056162D02*
G01X20325556Y3976152D01*
G01X20325556Y4039144D02*
G01X20314126Y4050574D01*
G01X20302696Y4056162D01*
G01X20285678Y4056162D01*
G01X20274248Y4050574D01*
G01X20262818Y4039144D01*
G01X20256976Y4021872D01*
G01X20256976Y4010442D01*
G01X20262818Y3993424D01*
G01X20274248Y3981994D01*
G01X20285678Y3976152D01*
G01X20302696Y3976152D01*
G01X20314126Y3981994D01*
G01X20325556Y3993424D01*
G01X20373308Y4056162D02*
G01X20373308Y3936274D01*
G01X20373308Y4039144D02*
G01X20384738Y4050574D01*
G01X20396168Y4056162D01*
G01X20413440Y4056162D01*
G01X20424870Y4050574D01*
G01X20436300Y4039144D01*
G01X20441888Y4021872D01*
G01X20441888Y4010442D01*
G01X20436300Y3993424D01*
G01X20424870Y3981994D01*
G01X20413440Y3976152D01*
G01X20396168Y3976152D01*
G01X20384738Y3981994D01*
G01X20373308Y3993424D01*
G01X20489640Y4021872D02*
G01X20558220Y4021872D01*
G01X20558220Y4033302D01*
G01X20552632Y4044732D01*
G01X20546790Y4050574D01*
G01X20535360Y4056162D01*
G01X20518342Y4056162D01*
G01X20506912Y4050574D01*
G01X20495482Y4039144D01*
G01X20489640Y4021872D01*
G01X20489640Y4010442D01*
G01X20495482Y3993424D01*
G01X20506912Y3981994D01*
G01X20518342Y3976152D01*
G01X20535360Y3976152D01*
G01X20546790Y3981994D01*
G01X20558220Y3993424D01*
G01X21449651Y4096294D02*
G01X21495371Y3976152D01*
G01X21541091Y4096294D02*
G01X21495371Y3976152D01*
G01X21588843Y4096294D02*
G01X21594685Y4090452D01*
G01X21600273Y4096294D01*
G01X21594685Y4101882D01*
G01X21588843Y4096294D01*
G01X21594685Y4056162D02*
G01X21594685Y3976152D01*
G01X21716605Y4056162D02*
G01X21716605Y3976152D01*
G01X21716605Y4039144D02*
G01X21705175Y4050574D01*
G01X21693745Y4056162D01*
G01X21676727Y4056162D01*
G01X21665297Y4050574D01*
G01X21653867Y4039144D01*
G01X21648025Y4021872D01*
G01X21648025Y4010442D01*
G01X21653867Y3993424D01*
G01X21665297Y3981994D01*
G01X21676727Y3976152D01*
G01X21693745Y3976152D01*
G01X21705175Y3981994D01*
G01X21716605Y3993424D01*
G01X21867227Y4119154D02*
G01X21764357Y3936274D01*
G01X21914979Y4096294D02*
G01X21914979Y3976152D01*
G01X21914979Y4096294D02*
G01X21966541Y4096294D01*
G01X21983559Y4090452D01*
G01X21989401Y4084864D01*
G01X21994989Y4073434D01*
G01X21994989Y4056162D01*
G01X21989401Y4044732D01*
G01X21983559Y4039144D01*
G01X21966541Y4033302D01*
G01X21914979Y4033302D01*
G01X22111321Y4056162D02*
G01X22111321Y3976152D01*
G01X22111321Y4039144D02*
G01X22099891Y4050574D01*
G01X22088461Y4056162D01*
G01X22071443Y4056162D01*
G01X22060013Y4050574D01*
G01X22048583Y4039144D01*
G01X22042741Y4021872D01*
G01X22042741Y4010442D01*
G01X22048583Y3993424D01*
G01X22060013Y3981994D01*
G01X22071443Y3976152D01*
G01X22088461Y3976152D01*
G01X22099891Y3981994D01*
G01X22111321Y3993424D01*
G01X22227653Y4096294D02*
G01X22227653Y3976152D01*
G01X22227653Y4039144D02*
G01X22216223Y4050574D01*
G01X22204793Y4056162D01*
G01X22187775Y4056162D01*
G01X22176345Y4050574D01*
G01X22164915Y4039144D01*
G01X22159073Y4021872D01*
G01X22159073Y4010442D01*
G01X22164915Y3993424D01*
G01X22176345Y3981994D01*
G01X22187775Y3976152D01*
G01X22204793Y3976152D01*
G01X22216223Y3981994D01*
G01X22227653Y3993424D01*
G01X23118830Y4096294D02*
G01X23118830Y3976152D01*
G01X23118830Y4096294D02*
G01X23170392Y4096294D01*
G01X23187410Y4090452D01*
G01X23193252Y4084864D01*
G01X23198840Y4073434D01*
G01X23198840Y4056162D01*
G01X23193252Y4044732D01*
G01X23187410Y4039144D01*
G01X23170392Y4033302D01*
G01X23118830Y4033302D01*
G01X23315172Y4056162D02*
G01X23315172Y3976152D01*
G01X23315172Y4039144D02*
G01X23303742Y4050574D01*
G01X23292312Y4056162D01*
G01X23275294Y4056162D01*
G01X23263864Y4050574D01*
G01X23252434Y4039144D01*
G01X23246592Y4021872D01*
G01X23246592Y4010442D01*
G01X23252434Y3993424D01*
G01X23263864Y3981994D01*
G01X23275294Y3976152D01*
G01X23292312Y3976152D01*
G01X23303742Y3981994D01*
G01X23315172Y3993424D01*
G01X23431504Y4096294D02*
G01X23431504Y3976152D01*
G01X23431504Y4039144D02*
G01X23420074Y4050574D01*
G01X23408644Y4056162D01*
G01X23391626Y4056162D01*
G01X23380196Y4050574D01*
G01X23368766Y4039144D01*
G01X23362924Y4021872D01*
G01X23362924Y4010442D01*
G01X23368766Y3993424D01*
G01X23380196Y3981994D01*
G01X23391626Y3976152D01*
G01X23408644Y3976152D01*
G01X23420074Y3981994D01*
G01X23431504Y3993424D01*
G01X23687282Y4079022D02*
G01X23675852Y4090452D01*
G01X23658834Y4096294D01*
G01X23635974Y4096294D01*
G01X23618702Y4090452D01*
G01X23607272Y4079022D01*
G01X23607272Y4067592D01*
G01X23613114Y4056162D01*
G01X23618702Y4050574D01*
G01X23630132Y4044732D01*
G01X23664422Y4033302D01*
G01X23675852Y4027714D01*
G01X23681694Y4021872D01*
G01X23687282Y4010442D01*
G01X23687282Y3993424D01*
G01X23675852Y3981994D01*
G01X23658834Y3976152D01*
G01X23635974Y3976152D01*
G01X23618702Y3981994D01*
G01X23607272Y3993424D01*
G01X23735034Y4096294D02*
G01X23735034Y3976152D01*
G01X23735034Y4033302D02*
G01X23752306Y4050574D01*
G01X23763736Y4056162D01*
G01X23780754Y4056162D01*
G01X23792184Y4050574D01*
G01X23798026Y4033302D01*
G01X23798026Y3976152D01*
G01X23914358Y4056162D02*
G01X23914358Y3976152D01*
G01X23914358Y4039144D02*
G01X23902928Y4050574D01*
G01X23891498Y4056162D01*
G01X23874480Y4056162D01*
G01X23863050Y4050574D01*
G01X23851620Y4039144D01*
G01X23845778Y4021872D01*
G01X23845778Y4010442D01*
G01X23851620Y3993424D01*
G01X23863050Y3981994D01*
G01X23874480Y3976152D01*
G01X23891498Y3976152D01*
G01X23902928Y3981994D01*
G01X23914358Y3993424D01*
G01X23962110Y4056162D02*
G01X23962110Y3936274D01*
G01X23962110Y4039144D02*
G01X23973540Y4050574D01*
G01X23984970Y4056162D01*
G01X24002242Y4056162D01*
G01X24013672Y4050574D01*
G01X24025102Y4039144D01*
G01X24030690Y4021872D01*
G01X24030690Y4010442D01*
G01X24025102Y3993424D01*
G01X24013672Y3981994D01*
G01X24002242Y3976152D01*
G01X23984970Y3976152D01*
G01X23973540Y3981994D01*
G01X23962110Y3993424D01*
G01X24078442Y4021872D02*
G01X24147022Y4021872D01*
G01X24147022Y4033302D01*
G01X24141434Y4044732D01*
G01X24135592Y4050574D01*
G01X24124162Y4056162D01*
G01X24107144Y4056162D01*
G01X24095714Y4050574D01*
G01X24084284Y4039144D01*
G01X24078442Y4021872D01*
G01X24078442Y4010442D01*
G01X24084284Y3993424D01*
G01X24095714Y3981994D01*
G01X24107144Y3976152D01*
G01X24124162Y3976152D01*
G01X24135592Y3981994D01*
G01X24147022Y3993424D01*
G01X25038199Y4096294D02*
G01X25038199Y3976152D01*
G01X25038199Y3976152D02*
G01X25106779Y3976152D01*
G01X25223111Y4056162D02*
G01X25223111Y3976152D01*
G01X25223111Y4039144D02*
G01X25211681Y4050574D01*
G01X25200251Y4056162D01*
G01X25183233Y4056162D01*
G01X25171803Y4050574D01*
G01X25160373Y4039144D01*
G01X25154531Y4021872D01*
G01X25154531Y4010442D01*
G01X25160373Y3993424D01*
G01X25171803Y3981994D01*
G01X25183233Y3976152D01*
G01X25200251Y3976152D01*
G01X25211681Y3981994D01*
G01X25223111Y3993424D01*
G01X25276705Y4056162D02*
G01X25310995Y3976152D01*
G01X25345285Y4056162D02*
G01X25310995Y3976152D01*
G01X25299565Y3953292D01*
G01X25288135Y3941862D01*
G01X25276705Y3936274D01*
G01X25270863Y3936274D01*
G01X25393037Y4021872D02*
G01X25461617Y4021872D01*
G01X25461617Y4033302D01*
G01X25456029Y4044732D01*
G01X25450187Y4050574D01*
G01X25438757Y4056162D01*
G01X25421739Y4056162D01*
G01X25410309Y4050574D01*
G01X25398879Y4039144D01*
G01X25393037Y4021872D01*
G01X25393037Y4010442D01*
G01X25398879Y3993424D01*
G01X25410309Y3981994D01*
G01X25421739Y3976152D01*
G01X25438757Y3976152D01*
G01X25450187Y3981994D01*
G01X25461617Y3993424D01*
G01X25509369Y4056162D02*
G01X25509369Y3976152D01*
G01X25509369Y4021872D02*
G01X25515211Y4039144D01*
G01X25526641Y4050574D01*
G01X25538071Y4056162D01*
G01X25555089Y4056162D01*
G01X25730857Y4096294D02*
G01X25730857Y3976152D01*
G01X25730857Y4096294D02*
G01X25782419Y4096294D01*
G01X25799437Y4090452D01*
G01X25805279Y4084864D01*
G01X25810867Y4073434D01*
G01X25810867Y4056162D01*
G01X25805279Y4044732D01*
G01X25799437Y4039144D01*
G01X25782419Y4033302D01*
G01X25730857Y4033302D01*
G01X25927199Y4056162D02*
G01X25927199Y3976152D01*
G01X25927199Y4039144D02*
G01X25915769Y4050574D01*
G01X25904339Y4056162D01*
G01X25887321Y4056162D01*
G01X25875891Y4050574D01*
G01X25864461Y4039144D01*
G01X25858619Y4021872D01*
G01X25858619Y4010442D01*
G01X25864461Y3993424D01*
G01X25875891Y3981994D01*
G01X25887321Y3976152D01*
G01X25904339Y3976152D01*
G01X25915769Y3981994D01*
G01X25927199Y3993424D01*
G01X25974951Y4096294D02*
G01X25980793Y4090452D01*
G01X25986381Y4096294D01*
G01X25980793Y4101882D01*
G01X25974951Y4096294D01*
G01X25980793Y4056162D02*
G01X25980793Y3976152D01*
G01X26034133Y4056162D02*
G01X26034133Y3976152D01*
G01X26034133Y4021872D02*
G01X26039975Y4039144D01*
G01X26051405Y4050574D01*
G01X26062835Y4056162D01*
G01X26079853Y4056162D01*
G01X13397524Y3515723D02*
G01X13340374Y3435713D01*
G01X13426226Y3435713D01*
G01X13397524Y3515723D02*
G01X13397524Y3395581D01*
G01X14783239Y3515723D02*
G01X14765967Y3509881D01*
G01X14760379Y3498451D01*
G01X14760379Y3487021D01*
G01X14765967Y3475591D01*
G01X14777397Y3470003D01*
G01X14800257Y3464161D01*
G01X14817529Y3458573D01*
G01X14828959Y3447143D01*
G01X14834547Y3435713D01*
G01X14834547Y3418441D01*
G01X14828959Y3407011D01*
G01X14823117Y3401423D01*
G01X14806099Y3395581D01*
G01X14783239Y3395581D01*
G01X14765967Y3401423D01*
G01X14760379Y3407011D01*
G01X14754537Y3418441D01*
G01X14754537Y3435713D01*
G01X14760379Y3447143D01*
G01X14771809Y3458573D01*
G01X14788827Y3464161D01*
G01X14811687Y3470003D01*
G01X14823117Y3475591D01*
G01X14828959Y3487021D01*
G01X14828959Y3498451D01*
G01X14823117Y3509881D01*
G01X14806099Y3515723D01*
G01X14783239Y3515723D01*
G01X14950879Y3498451D02*
G01X14945291Y3509881D01*
G01X14928019Y3515723D01*
G01X14916589Y3515723D01*
G01X14899571Y3509881D01*
G01X14888141Y3492863D01*
G01X14882299Y3464161D01*
G01X14882299Y3435713D01*
G01X14888141Y3412853D01*
G01X14899571Y3401423D01*
G01X14916589Y3395581D01*
G01X14922431Y3395581D01*
G01X14939449Y3401423D01*
G01X14950879Y3412853D01*
G01X14956721Y3429871D01*
G01X14956721Y3435713D01*
G01X14950879Y3452731D01*
G01X14939449Y3464161D01*
G01X14922431Y3470003D01*
G01X14916589Y3470003D01*
G01X14899571Y3464161D01*
G01X14888141Y3452731D01*
G01X14882299Y3435713D01*
G01X15010315Y3424283D02*
G01X15004473Y3418441D01*
G01X15010315Y3412853D01*
G01X15015903Y3418441D01*
G01X15010315Y3424283D01*
G01X15132235Y3498451D02*
G01X15126647Y3509881D01*
G01X15109375Y3515723D01*
G01X15097945Y3515723D01*
G01X15080927Y3509881D01*
G01X15069497Y3492863D01*
G01X15063655Y3464161D01*
G01X15063655Y3435713D01*
G01X15069497Y3412853D01*
G01X15080927Y3401423D01*
G01X15097945Y3395581D01*
G01X15103787Y3395581D01*
G01X15120805Y3401423D01*
G01X15132235Y3412853D01*
G01X15138077Y3429871D01*
G01X15138077Y3435713D01*
G01X15132235Y3452731D01*
G01X15120805Y3464161D01*
G01X15103787Y3470003D01*
G01X15097945Y3470003D01*
G01X15080927Y3464161D01*
G01X15069497Y3452731D01*
G01X15063655Y3435713D01*
G01X15185829Y3475591D02*
G01X15185829Y3395581D01*
G01X15185829Y3452731D02*
G01X15203101Y3470003D01*
G01X15214531Y3475591D01*
G01X15231549Y3475591D01*
G01X15242979Y3470003D01*
G01X15248821Y3452731D01*
G01X15248821Y3395581D01*
G01X15248821Y3452731D02*
G01X15265839Y3470003D01*
G01X15277269Y3475591D01*
G01X15294541Y3475591D01*
G01X15305971Y3470003D01*
G01X15311559Y3452731D01*
G01X15311559Y3395581D01*
G01X15359311Y3515723D02*
G01X15365153Y3509881D01*
G01X15370741Y3515723D01*
G01X15365153Y3521311D01*
G01X15359311Y3515723D01*
G01X15365153Y3475591D02*
G01X15365153Y3395581D01*
G01X15418493Y3515723D02*
G01X15418493Y3395581D01*
G01X15506377Y3538583D02*
G01X15494947Y3527153D01*
G01X15483517Y3509881D01*
G01X15472087Y3487021D01*
G01X15466245Y3458573D01*
G01X15466245Y3435713D01*
G01X15472087Y3407011D01*
G01X15483517Y3384151D01*
G01X15494947Y3367133D01*
G01X15506377Y3355703D01*
G01X15559971Y3487021D02*
G01X15559971Y3492863D01*
G01X15565559Y3504293D01*
G01X15571401Y3509881D01*
G01X15582831Y3515723D01*
G01X15605691Y3515723D01*
G01X15617121Y3509881D01*
G01X15622709Y3504293D01*
G01X15628551Y3492863D01*
G01X15628551Y3481433D01*
G01X15622709Y3470003D01*
G01X15611279Y3452731D01*
G01X15554129Y3395581D01*
G01X15634139Y3395581D01*
G01X15687733Y3424283D02*
G01X15681891Y3418441D01*
G01X15687733Y3412853D01*
G01X15693321Y3418441D01*
G01X15687733Y3424283D01*
G01X15746915Y3487021D02*
G01X15746915Y3492863D01*
G01X15752503Y3504293D01*
G01X15758345Y3509881D01*
G01X15769775Y3515723D01*
G01X15792635Y3515723D01*
G01X15804065Y3509881D01*
G01X15809653Y3504293D01*
G01X15815495Y3492863D01*
G01X15815495Y3481433D01*
G01X15809653Y3470003D01*
G01X15798223Y3452731D01*
G01X15741073Y3395581D01*
G01X15821083Y3395581D01*
G01X15903125Y3515723D02*
G01X15886107Y3509881D01*
G01X15874677Y3492863D01*
G01X15868835Y3464161D01*
G01X15868835Y3447143D01*
G01X15874677Y3418441D01*
G01X15886107Y3401423D01*
G01X15903125Y3395581D01*
G01X15914555Y3395581D01*
G01X15931827Y3401423D01*
G01X15943257Y3418441D01*
G01X15948845Y3447143D01*
G01X15948845Y3464161D01*
G01X15943257Y3492863D01*
G01X15931827Y3509881D01*
G01X15914555Y3515723D01*
G01X15903125Y3515723D01*
G01X16030887Y3515723D02*
G01X16013869Y3509881D01*
G01X16002439Y3492863D01*
G01X15996597Y3464161D01*
G01X15996597Y3447143D01*
G01X16002439Y3418441D01*
G01X16013869Y3401423D01*
G01X16030887Y3395581D01*
G01X16042317Y3395581D01*
G01X16059589Y3401423D01*
G01X16071019Y3418441D01*
G01X16076607Y3447143D01*
G01X16076607Y3464161D01*
G01X16071019Y3492863D01*
G01X16059589Y3509881D01*
G01X16042317Y3515723D01*
G01X16030887Y3515723D01*
G01X16124359Y3475591D02*
G01X16124359Y3395581D01*
G01X16124359Y3452731D02*
G01X16141631Y3470003D01*
G01X16153061Y3475591D01*
G01X16170079Y3475591D01*
G01X16181509Y3470003D01*
G01X16187351Y3452731D01*
G01X16187351Y3395581D01*
G01X16187351Y3452731D02*
G01X16204369Y3470003D01*
G01X16215799Y3475591D01*
G01X16233071Y3475591D01*
G01X16244501Y3470003D01*
G01X16250089Y3452731D01*
G01X16250089Y3395581D01*
G01X16297841Y3475591D02*
G01X16297841Y3395581D01*
G01X16297841Y3452731D02*
G01X16315113Y3470003D01*
G01X16326543Y3475591D01*
G01X16343561Y3475591D01*
G01X16354991Y3470003D01*
G01X16360833Y3452731D01*
G01X16360833Y3395581D01*
G01X16360833Y3452731D02*
G01X16377851Y3470003D01*
G01X16389281Y3475591D01*
G01X16406553Y3475591D01*
G01X16417983Y3470003D01*
G01X16423571Y3452731D01*
G01X16423571Y3395581D01*
G01X16471323Y3538583D02*
G01X16482753Y3527153D01*
G01X16494183Y3509881D01*
G01X16505613Y3487021D01*
G01X16511455Y3458573D01*
G01X16511455Y3435713D01*
G01X16505613Y3407011D01*
G01X16494183Y3384151D01*
G01X16482753Y3367133D01*
G01X16471323Y3355703D01*
G01X18557063Y3515723D02*
G01X18557063Y3395581D01*
G01X18557063Y3515723D02*
G01X18637073Y3395581D01*
G01X18637073Y3515723D02*
G01X18637073Y3395581D01*
G01X18684825Y3515723D02*
G01X18684825Y3395581D01*
G01X18684825Y3515723D02*
G01X18736387Y3515723D01*
G01X18753405Y3509881D01*
G01X18759247Y3504293D01*
G01X18764835Y3492863D01*
G01X18764835Y3475591D01*
G01X18759247Y3464161D01*
G01X18753405Y3458573D01*
G01X18736387Y3452731D01*
G01X18684825Y3452731D01*
G01X18852719Y3515723D02*
G01X18852719Y3395581D01*
G01X18812587Y3515723D02*
G01X18892597Y3515723D01*
G01X18940349Y3515723D02*
G01X18940349Y3395581D01*
G01X19020359Y3515723D02*
G01X19020359Y3395581D01*
G01X18940349Y3458573D02*
G01X19020359Y3458573D01*
G01X20018470Y3515723D02*
G01X20018470Y3395581D01*
G01X20018470Y3515723D02*
G01X20070032Y3515723D01*
G01X20087050Y3509881D01*
G01X20092892Y3504293D01*
G01X20098480Y3492863D01*
G01X20098480Y3481433D01*
G01X20092892Y3470003D01*
G01X20087050Y3464161D01*
G01X20070032Y3458573D01*
G01X20018470Y3458573D01*
G01X20058602Y3458573D02*
G01X20098480Y3395581D01*
G01X20174934Y3475591D02*
G01X20163504Y3470003D01*
G01X20152074Y3458573D01*
G01X20146232Y3441301D01*
G01X20146232Y3429871D01*
G01X20152074Y3412853D01*
G01X20163504Y3401423D01*
G01X20174934Y3395581D01*
G01X20191952Y3395581D01*
G01X20203382Y3401423D01*
G01X20214812Y3412853D01*
G01X20220654Y3429871D01*
G01X20220654Y3441301D01*
G01X20214812Y3458573D01*
G01X20203382Y3470003D01*
G01X20191952Y3475591D01*
G01X20174934Y3475591D01*
G01X20268406Y3475591D02*
G01X20268406Y3418441D01*
G01X20274248Y3401423D01*
G01X20285678Y3395581D01*
G01X20302696Y3395581D01*
G01X20314126Y3401423D01*
G01X20331398Y3418441D01*
G01X20331398Y3475591D02*
G01X20331398Y3395581D01*
G01X20379150Y3475591D02*
G01X20379150Y3395581D01*
G01X20379150Y3452731D02*
G01X20396422Y3470003D01*
G01X20407852Y3475591D01*
G01X20424870Y3475591D01*
G01X20436300Y3470003D01*
G01X20442142Y3452731D01*
G01X20442142Y3395581D01*
G01X20558474Y3515723D02*
G01X20558474Y3395581D01*
G01X20558474Y3458573D02*
G01X20547044Y3470003D01*
G01X20535614Y3475591D01*
G01X20518596Y3475591D01*
G01X20507166Y3470003D01*
G01X20495736Y3458573D01*
G01X20489894Y3441301D01*
G01X20489894Y3429871D01*
G01X20495736Y3412853D01*
G01X20507166Y3401423D01*
G01X20518596Y3395581D01*
G01X20535614Y3395581D01*
G01X20547044Y3401423D01*
G01X20558474Y3412853D01*
G01X21449651Y3515723D02*
G01X21495371Y3395581D01*
G01X21541091Y3515723D02*
G01X21495371Y3395581D01*
G01X21588843Y3515723D02*
G01X21594685Y3509881D01*
G01X21600273Y3515723D01*
G01X21594685Y3521311D01*
G01X21588843Y3515723D01*
G01X21594685Y3475591D02*
G01X21594685Y3395581D01*
G01X21716605Y3475591D02*
G01X21716605Y3395581D01*
G01X21716605Y3458573D02*
G01X21705175Y3470003D01*
G01X21693745Y3475591D01*
G01X21676727Y3475591D01*
G01X21665297Y3470003D01*
G01X21653867Y3458573D01*
G01X21648025Y3441301D01*
G01X21648025Y3429871D01*
G01X21653867Y3412853D01*
G01X21665297Y3401423D01*
G01X21676727Y3395581D01*
G01X21693745Y3395581D01*
G01X21705175Y3401423D01*
G01X21716605Y3412853D01*
G01X25078331Y3515723D02*
G01X25078331Y3395581D01*
G01X25038199Y3515723D02*
G01X25118209Y3515723D01*
G01X25194663Y3475591D02*
G01X25183233Y3470003D01*
G01X25171803Y3458573D01*
G01X25165961Y3441301D01*
G01X25165961Y3429871D01*
G01X25171803Y3412853D01*
G01X25183233Y3401423D01*
G01X25194663Y3395581D01*
G01X25211681Y3395581D01*
G01X25223111Y3401423D01*
G01X25234541Y3412853D01*
G01X25240383Y3429871D01*
G01X25240383Y3441301D01*
G01X25234541Y3458573D01*
G01X25223111Y3470003D01*
G01X25211681Y3475591D01*
G01X25194663Y3475591D01*
G01X25288135Y3475591D02*
G01X25288135Y3355703D01*
G01X25288135Y3458573D02*
G01X25299565Y3470003D01*
G01X25310995Y3475591D01*
G01X25328267Y3475591D01*
G01X25339697Y3470003D01*
G01X25351127Y3458573D01*
G01X25356715Y3441301D01*
G01X25356715Y3429871D01*
G01X25351127Y3412853D01*
G01X25339697Y3401423D01*
G01X25328267Y3395581D01*
G01X25310995Y3395581D01*
G01X25299565Y3401423D01*
G01X25288135Y3412853D01*
G01X25532483Y3515723D02*
G01X25532483Y3395581D01*
G01X25532483Y3395581D02*
G01X25601063Y3395581D01*
G01X25717395Y3475591D02*
G01X25717395Y3395581D01*
G01X25717395Y3458573D02*
G01X25705965Y3470003D01*
G01X25694535Y3475591D01*
G01X25677517Y3475591D01*
G01X25666087Y3470003D01*
G01X25654657Y3458573D01*
G01X25648815Y3441301D01*
G01X25648815Y3429871D01*
G01X25654657Y3412853D01*
G01X25666087Y3401423D01*
G01X25677517Y3395581D01*
G01X25694535Y3395581D01*
G01X25705965Y3401423D01*
G01X25717395Y3412853D01*
G01X25770989Y3475591D02*
G01X25805279Y3395581D01*
G01X25839569Y3475591D02*
G01X25805279Y3395581D01*
G01X25793849Y3372721D01*
G01X25782419Y3361291D01*
G01X25770989Y3355703D01*
G01X25765147Y3355703D01*
G01X25887321Y3441301D02*
G01X25955901Y3441301D01*
G01X25955901Y3452731D01*
G01X25950313Y3464161D01*
G01X25944471Y3470003D01*
G01X25933041Y3475591D01*
G01X25916023Y3475591D01*
G01X25904593Y3470003D01*
G01X25893163Y3458573D01*
G01X25887321Y3441301D01*
G01X25887321Y3429871D01*
G01X25893163Y3412853D01*
G01X25904593Y3401423D01*
G01X25916023Y3395581D01*
G01X25933041Y3395581D01*
G01X25944471Y3401423D01*
G01X25955901Y3412853D01*
G01X26003653Y3475591D02*
G01X26003653Y3395581D01*
G01X26003653Y3441301D02*
G01X26009495Y3458573D01*
G01X26020925Y3470003D01*
G01X26032355Y3475591D01*
G01X26049373Y3475591D01*
G01X26097125Y3447143D02*
G01X26199995Y3447143D01*
G01X26247747Y3515723D02*
G01X26247747Y3395581D01*
G01X26247747Y3515723D02*
G01X26299309Y3515723D01*
G01X26316327Y3509881D01*
G01X26322169Y3504293D01*
G01X26327757Y3492863D01*
G01X26327757Y3481433D01*
G01X26322169Y3470003D01*
G01X26316327Y3464161D01*
G01X26299309Y3458573D01*
G01X26247747Y3458573D02*
G01X26299309Y3458573D01*
G01X26316327Y3452731D01*
G01X26322169Y3447143D01*
G01X26327757Y3435713D01*
G01X26327757Y3418441D01*
G01X26322169Y3407011D01*
G01X26316327Y3401423D01*
G01X26299309Y3395581D01*
G01X26247747Y3395581D01*
G01X26404211Y3475591D02*
G01X26392781Y3470003D01*
G01X26381351Y3458573D01*
G01X26375509Y3441301D01*
G01X26375509Y3429871D01*
G01X26381351Y3412853D01*
G01X26392781Y3401423D01*
G01X26404211Y3395581D01*
G01X26421229Y3395581D01*
G01X26432659Y3401423D01*
G01X26444089Y3412853D01*
G01X26449931Y3429871D01*
G01X26449931Y3441301D01*
G01X26444089Y3458573D01*
G01X26432659Y3470003D01*
G01X26421229Y3475591D01*
G01X26404211Y3475591D01*
G01X26514955Y3515723D02*
G01X26514955Y3418441D01*
G01X26520543Y3401423D01*
G01X26531973Y3395581D01*
G01X26543403Y3395581D01*
G01X26497683Y3475591D02*
G01X26537815Y3475591D01*
G01X26608427Y3515723D02*
G01X26608427Y3418441D01*
G01X26614015Y3401423D01*
G01X26625445Y3395581D01*
G01X26636875Y3395581D01*
G01X26591155Y3475591D02*
G01X26631287Y3475591D01*
G01X26713329Y3475591D02*
G01X26701899Y3470003D01*
G01X26690469Y3458573D01*
G01X26684627Y3441301D01*
G01X26684627Y3429871D01*
G01X26690469Y3412853D01*
G01X26701899Y3401423D01*
G01X26713329Y3395581D01*
G01X26730347Y3395581D01*
G01X26741777Y3401423D01*
G01X26753207Y3412853D01*
G01X26759049Y3429871D01*
G01X26759049Y3441301D01*
G01X26753207Y3458573D01*
G01X26741777Y3470003D01*
G01X26730347Y3475591D01*
G01X26713329Y3475591D01*
G01X26806801Y3475591D02*
G01X26806801Y3395581D01*
G01X26806801Y3452731D02*
G01X26824073Y3470003D01*
G01X26835503Y3475591D01*
G01X26852521Y3475591D01*
G01X26863951Y3470003D01*
G01X26869793Y3452731D01*
G01X26869793Y3395581D01*
G01X26869793Y3452731D02*
G01X26886811Y3470003D01*
G01X26898241Y3475591D01*
G01X26915513Y3475591D01*
G01X26926943Y3470003D01*
G01X26932531Y3452731D01*
G01X26932531Y3395581D01*
G01X27108299Y3515723D02*
G01X27108299Y3395581D01*
G01X27108299Y3395581D02*
G01X27176879Y3395581D01*
G01X27293211Y3475591D02*
G01X27293211Y3395581D01*
G01X27293211Y3458573D02*
G01X27281781Y3470003D01*
G01X27270351Y3475591D01*
G01X27253333Y3475591D01*
G01X27241903Y3470003D01*
G01X27230473Y3458573D01*
G01X27224631Y3441301D01*
G01X27224631Y3429871D01*
G01X27230473Y3412853D01*
G01X27241903Y3401423D01*
G01X27253333Y3395581D01*
G01X27270351Y3395581D01*
G01X27281781Y3401423D01*
G01X27293211Y3412853D01*
G01X27346805Y3475591D02*
G01X27381095Y3395581D01*
G01X27415385Y3475591D02*
G01X27381095Y3395581D01*
G01X27369665Y3372721D01*
G01X27358235Y3361291D01*
G01X27346805Y3355703D01*
G01X27340963Y3355703D01*
G01X27463137Y3441301D02*
G01X27531717Y3441301D01*
G01X27531717Y3452731D01*
G01X27526129Y3464161D01*
G01X27520287Y3470003D01*
G01X27508857Y3475591D01*
G01X27491839Y3475591D01*
G01X27480409Y3470003D01*
G01X27468979Y3458573D01*
G01X27463137Y3441301D01*
G01X27463137Y3429871D01*
G01X27468979Y3412853D01*
G01X27480409Y3401423D01*
G01X27491839Y3395581D01*
G01X27508857Y3395581D01*
G01X27520287Y3401423D01*
G01X27531717Y3412853D01*
G01X27579469Y3475591D02*
G01X27579469Y3395581D01*
G01X27579469Y3441301D02*
G01X27585311Y3458573D01*
G01X27596741Y3470003D01*
G01X27608171Y3475591D01*
G01X27625189Y3475591D01*
G01X13346216Y2906449D02*
G01X13346216Y2912291D01*
G01X13351804Y2923721D01*
G01X13357646Y2929309D01*
G01X13369076Y2935151D01*
G01X13391936Y2935151D01*
G01X13403366Y2929309D01*
G01X13408954Y2923721D01*
G01X13414796Y2912291D01*
G01X13414796Y2900861D01*
G01X13408954Y2889431D01*
G01X13397524Y2872159D01*
G01X13340374Y2815009D01*
G01X13420384Y2815009D01*
G01X13502426Y2935151D02*
G01X13485408Y2929309D01*
G01X13473978Y2912291D01*
G01X13468136Y2883589D01*
G01X13468136Y2866571D01*
G01X13473978Y2837869D01*
G01X13485408Y2820851D01*
G01X13502426Y2815009D01*
G01X13513856Y2815009D01*
G01X13531128Y2820851D01*
G01X13542558Y2837869D01*
G01X13548146Y2866571D01*
G01X13548146Y2883589D01*
G01X13542558Y2912291D01*
G01X13531128Y2929309D01*
G01X13513856Y2935151D01*
G01X13502426Y2935151D01*
G01X14754537Y2912291D02*
G01X14765967Y2917879D01*
G01X14783239Y2935151D01*
G01X14783239Y2815009D01*
G01X14836833Y2906449D02*
G01X14836833Y2912291D01*
G01X14842421Y2923721D01*
G01X14848263Y2929309D01*
G01X14859693Y2935151D01*
G01X14882553Y2935151D01*
G01X14893983Y2929309D01*
G01X14899571Y2923721D01*
G01X14905413Y2912291D01*
G01X14905413Y2900861D01*
G01X14899571Y2889431D01*
G01X14888141Y2872159D01*
G01X14830991Y2815009D01*
G01X14911001Y2815009D01*
G01X14964595Y2843711D02*
G01X14958753Y2837869D01*
G01X14964595Y2832281D01*
G01X14970183Y2837869D01*
G01X14964595Y2843711D01*
G01X15052225Y2935151D02*
G01X15035207Y2929309D01*
G01X15023777Y2912291D01*
G01X15017935Y2883589D01*
G01X15017935Y2866571D01*
G01X15023777Y2837869D01*
G01X15035207Y2820851D01*
G01X15052225Y2815009D01*
G01X15063655Y2815009D01*
G01X15080927Y2820851D01*
G01X15092357Y2837869D01*
G01X15097945Y2866571D01*
G01X15097945Y2883589D01*
G01X15092357Y2912291D01*
G01X15080927Y2929309D01*
G01X15063655Y2935151D01*
G01X15052225Y2935151D01*
G01X15145697Y2895019D02*
G01X15145697Y2815009D01*
G01X15145697Y2872159D02*
G01X15162969Y2889431D01*
G01X15174399Y2895019D01*
G01X15191417Y2895019D01*
G01X15202847Y2889431D01*
G01X15208689Y2872159D01*
G01X15208689Y2815009D01*
G01X15208689Y2872159D02*
G01X15225707Y2889431D01*
G01X15237137Y2895019D01*
G01X15254409Y2895019D01*
G01X15265839Y2889431D01*
G01X15271427Y2872159D01*
G01X15271427Y2815009D01*
G01X15319179Y2935151D02*
G01X15325021Y2929309D01*
G01X15330609Y2935151D01*
G01X15325021Y2940739D01*
G01X15319179Y2935151D01*
G01X15325021Y2895019D02*
G01X15325021Y2815009D01*
G01X15378361Y2935151D02*
G01X15378361Y2815009D01*
G01X15466245Y2958011D02*
G01X15454815Y2946581D01*
G01X15443385Y2929309D01*
G01X15431955Y2906449D01*
G01X15426113Y2878001D01*
G01X15426113Y2855141D01*
G01X15431955Y2826439D01*
G01X15443385Y2803579D01*
G01X15454815Y2786561D01*
G01X15466245Y2775131D01*
G01X15548287Y2935151D02*
G01X15531269Y2929309D01*
G01X15519839Y2912291D01*
G01X15513997Y2883589D01*
G01X15513997Y2866571D01*
G01X15519839Y2837869D01*
G01X15531269Y2820851D01*
G01X15548287Y2815009D01*
G01X15559717Y2815009D01*
G01X15576989Y2820851D01*
G01X15588419Y2837869D01*
G01X15594007Y2866571D01*
G01X15594007Y2883589D01*
G01X15588419Y2912291D01*
G01X15576989Y2929309D01*
G01X15559717Y2935151D01*
G01X15548287Y2935151D01*
G01X15647601Y2843711D02*
G01X15641759Y2837869D01*
G01X15647601Y2832281D01*
G01X15653189Y2837869D01*
G01X15647601Y2843711D01*
G01X15712371Y2935151D02*
G01X15775363Y2935151D01*
G01X15741073Y2889431D01*
G01X15758091Y2889431D01*
G01X15769521Y2883589D01*
G01X15775363Y2878001D01*
G01X15780951Y2860729D01*
G01X15780951Y2849299D01*
G01X15775363Y2832281D01*
G01X15763933Y2820851D01*
G01X15746661Y2815009D01*
G01X15729643Y2815009D01*
G01X15712371Y2820851D01*
G01X15706783Y2826439D01*
G01X15700941Y2837869D01*
G01X15862993Y2935151D02*
G01X15845975Y2929309D01*
G01X15834545Y2912291D01*
G01X15828703Y2883589D01*
G01X15828703Y2866571D01*
G01X15834545Y2837869D01*
G01X15845975Y2820851D01*
G01X15862993Y2815009D01*
G01X15874423Y2815009D01*
G01X15891695Y2820851D01*
G01X15903125Y2837869D01*
G01X15908713Y2866571D01*
G01X15908713Y2883589D01*
G01X15903125Y2912291D01*
G01X15891695Y2929309D01*
G01X15874423Y2935151D01*
G01X15862993Y2935151D01*
G01X16025045Y2935151D02*
G01X15967895Y2935151D01*
G01X15962307Y2883589D01*
G01X15967895Y2889431D01*
G01X15985167Y2895019D01*
G01X16002185Y2895019D01*
G01X16019457Y2889431D01*
G01X16030887Y2878001D01*
G01X16036475Y2860729D01*
G01X16036475Y2849299D01*
G01X16030887Y2832281D01*
G01X16019457Y2820851D01*
G01X16002185Y2815009D01*
G01X15985167Y2815009D01*
G01X15967895Y2820851D01*
G01X15962307Y2826439D01*
G01X15956465Y2837869D01*
G01X16084227Y2895019D02*
G01X16084227Y2815009D01*
G01X16084227Y2872159D02*
G01X16101499Y2889431D01*
G01X16112929Y2895019D01*
G01X16129947Y2895019D01*
G01X16141377Y2889431D01*
G01X16147219Y2872159D01*
G01X16147219Y2815009D01*
G01X16147219Y2872159D02*
G01X16164237Y2889431D01*
G01X16175667Y2895019D01*
G01X16192939Y2895019D01*
G01X16204369Y2889431D01*
G01X16209957Y2872159D01*
G01X16209957Y2815009D01*
G01X16257709Y2895019D02*
G01X16257709Y2815009D01*
G01X16257709Y2872159D02*
G01X16274981Y2889431D01*
G01X16286411Y2895019D01*
G01X16303429Y2895019D01*
G01X16314859Y2889431D01*
G01X16320701Y2872159D01*
G01X16320701Y2815009D01*
G01X16320701Y2872159D02*
G01X16337719Y2889431D01*
G01X16349149Y2895019D01*
G01X16366421Y2895019D01*
G01X16377851Y2889431D01*
G01X16383439Y2872159D01*
G01X16383439Y2815009D01*
G01X16431191Y2958011D02*
G01X16442621Y2946581D01*
G01X16454051Y2929309D01*
G01X16465481Y2906449D01*
G01X16471323Y2878001D01*
G01X16471323Y2855141D01*
G01X16465481Y2826439D01*
G01X16454051Y2803579D01*
G01X16442621Y2786561D01*
G01X16431191Y2775131D01*
G01X18557063Y2935151D02*
G01X18557063Y2815009D01*
G01X18557063Y2935151D02*
G01X18608625Y2935151D01*
G01X18625643Y2929309D01*
G01X18631485Y2923721D01*
G01X18637073Y2912291D01*
G01X18637073Y2895019D01*
G01X18631485Y2883589D01*
G01X18625643Y2878001D01*
G01X18608625Y2872159D01*
G01X18557063Y2872159D01*
G01X18724957Y2935151D02*
G01X18724957Y2815009D01*
G01X18684825Y2935151D02*
G01X18764835Y2935151D01*
G01X18812587Y2935151D02*
G01X18812587Y2815009D01*
G01X18892597Y2935151D02*
G01X18892597Y2815009D01*
G01X18812587Y2878001D02*
G01X18892597Y2878001D01*
G01X20018470Y2935151D02*
G01X20018470Y2815009D01*
G01X20018470Y2935151D02*
G01X20070032Y2935151D01*
G01X20087050Y2929309D01*
G01X20092892Y2923721D01*
G01X20098480Y2912291D01*
G01X20098480Y2900861D01*
G01X20092892Y2889431D01*
G01X20087050Y2883589D01*
G01X20070032Y2878001D01*
G01X20018470Y2878001D01*
G01X20058602Y2878001D02*
G01X20098480Y2815009D01*
G01X20174934Y2895019D02*
G01X20163504Y2889431D01*
G01X20152074Y2878001D01*
G01X20146232Y2860729D01*
G01X20146232Y2849299D01*
G01X20152074Y2832281D01*
G01X20163504Y2820851D01*
G01X20174934Y2815009D01*
G01X20191952Y2815009D01*
G01X20203382Y2820851D01*
G01X20214812Y2832281D01*
G01X20220654Y2849299D01*
G01X20220654Y2860729D01*
G01X20214812Y2878001D01*
G01X20203382Y2889431D01*
G01X20191952Y2895019D01*
G01X20174934Y2895019D01*
G01X20268406Y2895019D02*
G01X20268406Y2837869D01*
G01X20274248Y2820851D01*
G01X20285678Y2815009D01*
G01X20302696Y2815009D01*
G01X20314126Y2820851D01*
G01X20331398Y2837869D01*
G01X20331398Y2895019D02*
G01X20331398Y2815009D01*
G01X20379150Y2895019D02*
G01X20379150Y2815009D01*
G01X20379150Y2872159D02*
G01X20396422Y2889431D01*
G01X20407852Y2895019D01*
G01X20424870Y2895019D01*
G01X20436300Y2889431D01*
G01X20442142Y2872159D01*
G01X20442142Y2815009D01*
G01X20558474Y2935151D02*
G01X20558474Y2815009D01*
G01X20558474Y2878001D02*
G01X20547044Y2889431D01*
G01X20535614Y2895019D01*
G01X20518596Y2895019D01*
G01X20507166Y2889431D01*
G01X20495736Y2878001D01*
G01X20489894Y2860729D01*
G01X20489894Y2849299D01*
G01X20495736Y2832281D01*
G01X20507166Y2820851D01*
G01X20518596Y2815009D01*
G01X20535614Y2815009D01*
G01X20547044Y2820851D01*
G01X20558474Y2832281D01*
G01X21449651Y2935151D02*
G01X21495371Y2815009D01*
G01X21541091Y2935151D02*
G01X21495371Y2815009D01*
G01X21588843Y2935151D02*
G01X21594685Y2929309D01*
G01X21600273Y2935151D01*
G01X21594685Y2940739D01*
G01X21588843Y2935151D01*
G01X21594685Y2895019D02*
G01X21594685Y2815009D01*
G01X21716605Y2895019D02*
G01X21716605Y2815009D01*
G01X21716605Y2878001D02*
G01X21705175Y2889431D01*
G01X21693745Y2895019D01*
G01X21676727Y2895019D01*
G01X21665297Y2889431D01*
G01X21653867Y2878001D01*
G01X21648025Y2860729D01*
G01X21648025Y2849299D01*
G01X21653867Y2832281D01*
G01X21665297Y2820851D01*
G01X21676727Y2815009D01*
G01X21693745Y2815009D01*
G01X21705175Y2820851D01*
G01X21716605Y2832281D01*
G01X25078331Y2935151D02*
G01X25078331Y2815009D01*
G01X25038199Y2935151D02*
G01X25118209Y2935151D01*
G01X25194663Y2895019D02*
G01X25183233Y2889431D01*
G01X25171803Y2878001D01*
G01X25165961Y2860729D01*
G01X25165961Y2849299D01*
G01X25171803Y2832281D01*
G01X25183233Y2820851D01*
G01X25194663Y2815009D01*
G01X25211681Y2815009D01*
G01X25223111Y2820851D01*
G01X25234541Y2832281D01*
G01X25240383Y2849299D01*
G01X25240383Y2860729D01*
G01X25234541Y2878001D01*
G01X25223111Y2889431D01*
G01X25211681Y2895019D01*
G01X25194663Y2895019D01*
G01X25288135Y2895019D02*
G01X25288135Y2775131D01*
G01X25288135Y2878001D02*
G01X25299565Y2889431D01*
G01X25310995Y2895019D01*
G01X25328267Y2895019D01*
G01X25339697Y2889431D01*
G01X25351127Y2878001D01*
G01X25356715Y2860729D01*
G01X25356715Y2849299D01*
G01X25351127Y2832281D01*
G01X25339697Y2820851D01*
G01X25328267Y2815009D01*
G01X25310995Y2815009D01*
G01X25299565Y2820851D01*
G01X25288135Y2832281D01*
G01X25532483Y2935151D02*
G01X25532483Y2815009D01*
G01X25532483Y2815009D02*
G01X25601063Y2815009D01*
G01X25717395Y2895019D02*
G01X25717395Y2815009D01*
G01X25717395Y2878001D02*
G01X25705965Y2889431D01*
G01X25694535Y2895019D01*
G01X25677517Y2895019D01*
G01X25666087Y2889431D01*
G01X25654657Y2878001D01*
G01X25648815Y2860729D01*
G01X25648815Y2849299D01*
G01X25654657Y2832281D01*
G01X25666087Y2820851D01*
G01X25677517Y2815009D01*
G01X25694535Y2815009D01*
G01X25705965Y2820851D01*
G01X25717395Y2832281D01*
G01X25770989Y2895019D02*
G01X25805279Y2815009D01*
G01X25839569Y2895019D02*
G01X25805279Y2815009D01*
G01X25793849Y2792149D01*
G01X25782419Y2780719D01*
G01X25770989Y2775131D01*
G01X25765147Y2775131D01*
G01X25887321Y2860729D02*
G01X25955901Y2860729D01*
G01X25955901Y2872159D01*
G01X25950313Y2883589D01*
G01X25944471Y2889431D01*
G01X25933041Y2895019D01*
G01X25916023Y2895019D01*
G01X25904593Y2889431D01*
G01X25893163Y2878001D01*
G01X25887321Y2860729D01*
G01X25887321Y2849299D01*
G01X25893163Y2832281D01*
G01X25904593Y2820851D01*
G01X25916023Y2815009D01*
G01X25933041Y2815009D01*
G01X25944471Y2820851D01*
G01X25955901Y2832281D01*
G01X26003653Y2895019D02*
G01X26003653Y2815009D01*
G01X26003653Y2860729D02*
G01X26009495Y2878001D01*
G01X26020925Y2889431D01*
G01X26032355Y2895019D01*
G01X26049373Y2895019D01*
G01X26097125Y2866571D02*
G01X26199995Y2866571D01*
G01X26247747Y2935151D02*
G01X26247747Y2815009D01*
G01X26247747Y2935151D02*
G01X26299309Y2935151D01*
G01X26316327Y2929309D01*
G01X26322169Y2923721D01*
G01X26327757Y2912291D01*
G01X26327757Y2900861D01*
G01X26322169Y2889431D01*
G01X26316327Y2883589D01*
G01X26299309Y2878001D01*
G01X26247747Y2878001D02*
G01X26299309Y2878001D01*
G01X26316327Y2872159D01*
G01X26322169Y2866571D01*
G01X26327757Y2855141D01*
G01X26327757Y2837869D01*
G01X26322169Y2826439D01*
G01X26316327Y2820851D01*
G01X26299309Y2815009D01*
G01X26247747Y2815009D01*
G01X26404211Y2895019D02*
G01X26392781Y2889431D01*
G01X26381351Y2878001D01*
G01X26375509Y2860729D01*
G01X26375509Y2849299D01*
G01X26381351Y2832281D01*
G01X26392781Y2820851D01*
G01X26404211Y2815009D01*
G01X26421229Y2815009D01*
G01X26432659Y2820851D01*
G01X26444089Y2832281D01*
G01X26449931Y2849299D01*
G01X26449931Y2860729D01*
G01X26444089Y2878001D01*
G01X26432659Y2889431D01*
G01X26421229Y2895019D01*
G01X26404211Y2895019D01*
G01X26514955Y2935151D02*
G01X26514955Y2837869D01*
G01X26520543Y2820851D01*
G01X26531973Y2815009D01*
G01X26543403Y2815009D01*
G01X26497683Y2895019D02*
G01X26537815Y2895019D01*
G01X26608427Y2935151D02*
G01X26608427Y2837869D01*
G01X26614015Y2820851D01*
G01X26625445Y2815009D01*
G01X26636875Y2815009D01*
G01X26591155Y2895019D02*
G01X26631287Y2895019D01*
G01X26713329Y2895019D02*
G01X26701899Y2889431D01*
G01X26690469Y2878001D01*
G01X26684627Y2860729D01*
G01X26684627Y2849299D01*
G01X26690469Y2832281D01*
G01X26701899Y2820851D01*
G01X26713329Y2815009D01*
G01X26730347Y2815009D01*
G01X26741777Y2820851D01*
G01X26753207Y2832281D01*
G01X26759049Y2849299D01*
G01X26759049Y2860729D01*
G01X26753207Y2878001D01*
G01X26741777Y2889431D01*
G01X26730347Y2895019D01*
G01X26713329Y2895019D01*
G01X26806801Y2895019D02*
G01X26806801Y2815009D01*
G01X26806801Y2872159D02*
G01X26824073Y2889431D01*
G01X26835503Y2895019D01*
G01X26852521Y2895019D01*
G01X26863951Y2889431D01*
G01X26869793Y2872159D01*
G01X26869793Y2815009D01*
G01X26869793Y2872159D02*
G01X26886811Y2889431D01*
G01X26898241Y2895019D01*
G01X26915513Y2895019D01*
G01X26926943Y2889431D01*
G01X26932531Y2872159D01*
G01X26932531Y2815009D01*
G01X27108299Y2935151D02*
G01X27108299Y2815009D01*
G01X27108299Y2815009D02*
G01X27176879Y2815009D01*
G01X27293211Y2895019D02*
G01X27293211Y2815009D01*
G01X27293211Y2878001D02*
G01X27281781Y2889431D01*
G01X27270351Y2895019D01*
G01X27253333Y2895019D01*
G01X27241903Y2889431D01*
G01X27230473Y2878001D01*
G01X27224631Y2860729D01*
G01X27224631Y2849299D01*
G01X27230473Y2832281D01*
G01X27241903Y2820851D01*
G01X27253333Y2815009D01*
G01X27270351Y2815009D01*
G01X27281781Y2820851D01*
G01X27293211Y2832281D01*
G01X27346805Y2895019D02*
G01X27381095Y2815009D01*
G01X27415385Y2895019D02*
G01X27381095Y2815009D01*
G01X27369665Y2792149D01*
G01X27358235Y2780719D01*
G01X27346805Y2775131D01*
G01X27340963Y2775131D01*
G01X27463137Y2860729D02*
G01X27531717Y2860729D01*
G01X27531717Y2872159D01*
G01X27526129Y2883589D01*
G01X27520287Y2889431D01*
G01X27508857Y2895019D01*
G01X27491839Y2895019D01*
G01X27480409Y2889431D01*
G01X27468979Y2878001D01*
G01X27463137Y2860729D01*
G01X27463137Y2849299D01*
G01X27468979Y2832281D01*
G01X27480409Y2820851D01*
G01X27491839Y2815009D01*
G01X27508857Y2815009D01*
G01X27520287Y2820851D01*
G01X27531717Y2832281D01*
G01X27579469Y2895019D02*
G01X27579469Y2815009D01*
G01X27579469Y2860729D02*
G01X27585311Y2878001D01*
G01X27596741Y2889431D01*
G01X27608171Y2895019D01*
G01X27625189Y2895019D01*
G01X13397524Y2354580D02*
G01X13340374Y2274570D01*
G01X13426226Y2274570D01*
G01X13397524Y2354580D02*
G01X13397524Y2234438D01*
G01X13502680Y2354580D02*
G01X13485408Y2348738D01*
G01X13479820Y2337308D01*
G01X13479820Y2325878D01*
G01X13485408Y2314448D01*
G01X13496838Y2308860D01*
G01X13519698Y2303018D01*
G01X13536970Y2297430D01*
G01X13548400Y2286000D01*
G01X13553988Y2274570D01*
G01X13553988Y2257298D01*
G01X13548400Y2245868D01*
G01X13542558Y2240280D01*
G01X13525540Y2234438D01*
G01X13502680Y2234438D01*
G01X13485408Y2240280D01*
G01X13479820Y2245868D01*
G01X13473978Y2257298D01*
G01X13473978Y2274570D01*
G01X13479820Y2286000D01*
G01X13491250Y2297430D01*
G01X13508268Y2303018D01*
G01X13531128Y2308860D01*
G01X13542558Y2314448D01*
G01X13548400Y2325878D01*
G01X13548400Y2337308D01*
G01X13542558Y2348738D01*
G01X13525540Y2354580D01*
G01X13502680Y2354580D01*
G01X14811687Y2354580D02*
G01X14754537Y2274570D01*
G01X14840389Y2274570D01*
G01X14811687Y2354580D02*
G01X14811687Y2234438D01*
G01X14922431Y2354580D02*
G01X14905413Y2348738D01*
G01X14893983Y2331720D01*
G01X14888141Y2303018D01*
G01X14888141Y2286000D01*
G01X14893983Y2257298D01*
G01X14905413Y2240280D01*
G01X14922431Y2234438D01*
G01X14933861Y2234438D01*
G01X14951133Y2240280D01*
G01X14962563Y2257298D01*
G01X14968151Y2286000D01*
G01X14968151Y2303018D01*
G01X14962563Y2331720D01*
G01X14951133Y2348738D01*
G01X14933861Y2354580D01*
G01X14922431Y2354580D01*
G01X15021745Y2263140D02*
G01X15015903Y2257298D01*
G01X15021745Y2251710D01*
G01X15027333Y2257298D01*
G01X15021745Y2263140D01*
G01X15080927Y2325878D02*
G01X15080927Y2331720D01*
G01X15086515Y2343150D01*
G01X15092357Y2348738D01*
G01X15103787Y2354580D01*
G01X15126647Y2354580D01*
G01X15138077Y2348738D01*
G01X15143665Y2343150D01*
G01X15149507Y2331720D01*
G01X15149507Y2320290D01*
G01X15143665Y2308860D01*
G01X15132235Y2291588D01*
G01X15075085Y2234438D01*
G01X15155095Y2234438D01*
G01X15202847Y2314448D02*
G01X15265839Y2234438D01*
G01X15265839Y2314448D02*
G01X15202847Y2234438D01*
G01X15370741Y2354580D02*
G01X15313591Y2274570D01*
G01X15399443Y2274570D01*
G01X15370741Y2354580D02*
G01X15370741Y2234438D01*
G01X15481485Y2354580D02*
G01X15464467Y2348738D01*
G01X15453037Y2331720D01*
G01X15447195Y2303018D01*
G01X15447195Y2286000D01*
G01X15453037Y2257298D01*
G01X15464467Y2240280D01*
G01X15481485Y2234438D01*
G01X15492915Y2234438D01*
G01X15510187Y2240280D01*
G01X15521617Y2257298D01*
G01X15527205Y2286000D01*
G01X15527205Y2303018D01*
G01X15521617Y2331720D01*
G01X15510187Y2348738D01*
G01X15492915Y2354580D01*
G01X15481485Y2354580D01*
G01X15580799Y2263140D02*
G01X15574957Y2257298D01*
G01X15580799Y2251710D01*
G01X15586387Y2257298D01*
G01X15580799Y2263140D01*
G01X15639981Y2325878D02*
G01X15639981Y2331720D01*
G01X15645569Y2343150D01*
G01X15651411Y2348738D01*
G01X15662841Y2354580D01*
G01X15685701Y2354580D01*
G01X15697131Y2348738D01*
G01X15702719Y2343150D01*
G01X15708561Y2331720D01*
G01X15708561Y2320290D01*
G01X15702719Y2308860D01*
G01X15691289Y2291588D01*
G01X15634139Y2234438D01*
G01X15714149Y2234438D01*
G01X15761901Y2314448D02*
G01X15761901Y2234438D01*
G01X15761901Y2291588D02*
G01X15779173Y2308860D01*
G01X15790603Y2314448D01*
G01X15807621Y2314448D01*
G01X15819051Y2308860D01*
G01X15824893Y2291588D01*
G01X15824893Y2234438D01*
G01X15824893Y2291588D02*
G01X15841911Y2308860D01*
G01X15853341Y2314448D01*
G01X15870613Y2314448D01*
G01X15882043Y2308860D01*
G01X15887631Y2291588D01*
G01X15887631Y2234438D01*
G01X15935383Y2354580D02*
G01X15941225Y2348738D01*
G01X15946813Y2354580D01*
G01X15941225Y2360168D01*
G01X15935383Y2354580D01*
G01X15941225Y2314448D02*
G01X15941225Y2234438D01*
G01X15994565Y2354580D02*
G01X15994565Y2234438D01*
G01X16082449Y2377440D02*
G01X16071019Y2366010D01*
G01X16059589Y2348738D01*
G01X16048159Y2325878D01*
G01X16042317Y2297430D01*
G01X16042317Y2274570D01*
G01X16048159Y2245868D01*
G01X16059589Y2223008D01*
G01X16071019Y2205990D01*
G01X16082449Y2194560D01*
G01X16130201Y2331720D02*
G01X16141631Y2337308D01*
G01X16158903Y2354580D01*
G01X16158903Y2234438D01*
G01X16212497Y2263140D02*
G01X16206655Y2257298D01*
G01X16212497Y2251710D01*
G01X16218085Y2257298D01*
G01X16212497Y2263140D01*
G01X16300127Y2354580D02*
G01X16283109Y2348738D01*
G01X16271679Y2331720D01*
G01X16265837Y2303018D01*
G01X16265837Y2286000D01*
G01X16271679Y2257298D01*
G01X16283109Y2240280D01*
G01X16300127Y2234438D01*
G01X16311557Y2234438D01*
G01X16328829Y2240280D01*
G01X16340259Y2257298D01*
G01X16345847Y2286000D01*
G01X16345847Y2303018D01*
G01X16340259Y2331720D01*
G01X16328829Y2348738D01*
G01X16311557Y2354580D01*
G01X16300127Y2354580D01*
G01X16399441Y2325878D02*
G01X16399441Y2331720D01*
G01X16405029Y2343150D01*
G01X16410871Y2348738D01*
G01X16422301Y2354580D01*
G01X16445161Y2354580D01*
G01X16456591Y2348738D01*
G01X16462179Y2343150D01*
G01X16468021Y2331720D01*
G01X16468021Y2320290D01*
G01X16462179Y2308860D01*
G01X16450749Y2291588D01*
G01X16393599Y2234438D01*
G01X16473609Y2234438D01*
G01X16555651Y2354580D02*
G01X16538633Y2348738D01*
G01X16527203Y2331720D01*
G01X16521361Y2303018D01*
G01X16521361Y2286000D01*
G01X16527203Y2257298D01*
G01X16538633Y2240280D01*
G01X16555651Y2234438D01*
G01X16567081Y2234438D01*
G01X16584353Y2240280D01*
G01X16595783Y2257298D01*
G01X16601371Y2286000D01*
G01X16601371Y2303018D01*
G01X16595783Y2331720D01*
G01X16584353Y2348738D01*
G01X16567081Y2354580D01*
G01X16555651Y2354580D01*
G01X16649123Y2314448D02*
G01X16712115Y2234438D01*
G01X16712115Y2314448D02*
G01X16649123Y2234438D01*
G01X16759867Y2331720D02*
G01X16771297Y2337308D01*
G01X16788569Y2354580D01*
G01X16788569Y2234438D01*
G01X16842163Y2263140D02*
G01X16836321Y2257298D01*
G01X16842163Y2251710D01*
G01X16847751Y2257298D01*
G01X16842163Y2263140D01*
G01X16929793Y2354580D02*
G01X16912775Y2348738D01*
G01X16901345Y2331720D01*
G01X16895503Y2303018D01*
G01X16895503Y2286000D01*
G01X16901345Y2257298D01*
G01X16912775Y2240280D01*
G01X16929793Y2234438D01*
G01X16941223Y2234438D01*
G01X16958495Y2240280D01*
G01X16969925Y2257298D01*
G01X16975513Y2286000D01*
G01X16975513Y2303018D01*
G01X16969925Y2331720D01*
G01X16958495Y2348738D01*
G01X16941223Y2354580D01*
G01X16929793Y2354580D01*
G01X17029107Y2325878D02*
G01X17029107Y2331720D01*
G01X17034695Y2343150D01*
G01X17040537Y2348738D01*
G01X17051967Y2354580D01*
G01X17074827Y2354580D01*
G01X17086257Y2348738D01*
G01X17091845Y2343150D01*
G01X17097687Y2331720D01*
G01X17097687Y2320290D01*
G01X17091845Y2308860D01*
G01X17080415Y2291588D01*
G01X17023265Y2234438D01*
G01X17103275Y2234438D01*
G01X17185317Y2354580D02*
G01X17168299Y2348738D01*
G01X17156869Y2331720D01*
G01X17151027Y2303018D01*
G01X17151027Y2286000D01*
G01X17156869Y2257298D01*
G01X17168299Y2240280D01*
G01X17185317Y2234438D01*
G01X17196747Y2234438D01*
G01X17214019Y2240280D01*
G01X17225449Y2257298D01*
G01X17231037Y2286000D01*
G01X17231037Y2303018D01*
G01X17225449Y2331720D01*
G01X17214019Y2348738D01*
G01X17196747Y2354580D01*
G01X17185317Y2354580D01*
G01X17278789Y2314448D02*
G01X17278789Y2234438D01*
G01X17278789Y2291588D02*
G01X17296061Y2308860D01*
G01X17307491Y2314448D01*
G01X17324509Y2314448D01*
G01X17335939Y2308860D01*
G01X17341781Y2291588D01*
G01X17341781Y2234438D01*
G01X17341781Y2291588D02*
G01X17358799Y2308860D01*
G01X17370229Y2314448D01*
G01X17387501Y2314448D01*
G01X17398931Y2308860D01*
G01X17404519Y2291588D01*
G01X17404519Y2234438D01*
G01X17452271Y2314448D02*
G01X17452271Y2234438D01*
G01X17452271Y2291588D02*
G01X17469543Y2308860D01*
G01X17480973Y2314448D01*
G01X17497991Y2314448D01*
G01X17509421Y2308860D01*
G01X17515263Y2291588D01*
G01X17515263Y2234438D01*
G01X17515263Y2291588D02*
G01X17532281Y2308860D01*
G01X17543711Y2314448D01*
G01X17560983Y2314448D01*
G01X17572413Y2308860D01*
G01X17578001Y2291588D01*
G01X17578001Y2234438D01*
G01X17625753Y2377440D02*
G01X17637183Y2366010D01*
G01X17648613Y2348738D01*
G01X17660043Y2325878D01*
G01X17665885Y2297430D01*
G01X17665885Y2274570D01*
G01X17660043Y2245868D01*
G01X17648613Y2223008D01*
G01X17637183Y2205990D01*
G01X17625753Y2194560D01*
G01X18557063Y2354580D02*
G01X18557063Y2234438D01*
G01X18557063Y2354580D02*
G01X18608625Y2354580D01*
G01X18625643Y2348738D01*
G01X18631485Y2343150D01*
G01X18637073Y2331720D01*
G01X18637073Y2314448D01*
G01X18631485Y2303018D01*
G01X18625643Y2297430D01*
G01X18608625Y2291588D01*
G01X18557063Y2291588D01*
G01X18724957Y2354580D02*
G01X18724957Y2234438D01*
G01X18684825Y2354580D02*
G01X18764835Y2354580D01*
G01X18812587Y2354580D02*
G01X18812587Y2234438D01*
G01X18892597Y2354580D02*
G01X18892597Y2234438D01*
G01X18812587Y2297430D02*
G01X18892597Y2297430D01*
G01X20018470Y2354580D02*
G01X20018470Y2234438D01*
G01X20018470Y2354580D02*
G01X20070032Y2354580D01*
G01X20087050Y2348738D01*
G01X20092892Y2343150D01*
G01X20098480Y2331720D01*
G01X20098480Y2320290D01*
G01X20092892Y2308860D01*
G01X20087050Y2303018D01*
G01X20070032Y2297430D01*
G01X20018470Y2297430D01*
G01X20058602Y2297430D02*
G01X20098480Y2234438D01*
G01X20174934Y2314448D02*
G01X20163504Y2308860D01*
G01X20152074Y2297430D01*
G01X20146232Y2280158D01*
G01X20146232Y2268728D01*
G01X20152074Y2251710D01*
G01X20163504Y2240280D01*
G01X20174934Y2234438D01*
G01X20191952Y2234438D01*
G01X20203382Y2240280D01*
G01X20214812Y2251710D01*
G01X20220654Y2268728D01*
G01X20220654Y2280158D01*
G01X20214812Y2297430D01*
G01X20203382Y2308860D01*
G01X20191952Y2314448D01*
G01X20174934Y2314448D01*
G01X20268406Y2314448D02*
G01X20268406Y2257298D01*
G01X20274248Y2240280D01*
G01X20285678Y2234438D01*
G01X20302696Y2234438D01*
G01X20314126Y2240280D01*
G01X20331398Y2257298D01*
G01X20331398Y2314448D02*
G01X20331398Y2234438D01*
G01X20379150Y2314448D02*
G01X20379150Y2234438D01*
G01X20379150Y2291588D02*
G01X20396422Y2308860D01*
G01X20407852Y2314448D01*
G01X20424870Y2314448D01*
G01X20436300Y2308860D01*
G01X20442142Y2291588D01*
G01X20442142Y2234438D01*
G01X20558474Y2354580D02*
G01X20558474Y2234438D01*
G01X20558474Y2297430D02*
G01X20547044Y2308860D01*
G01X20535614Y2314448D01*
G01X20518596Y2314448D01*
G01X20507166Y2308860D01*
G01X20495736Y2297430D01*
G01X20489894Y2280158D01*
G01X20489894Y2268728D01*
G01X20495736Y2251710D01*
G01X20507166Y2240280D01*
G01X20518596Y2234438D01*
G01X20535614Y2234438D01*
G01X20547044Y2240280D01*
G01X20558474Y2251710D01*
G01X21449651Y2354580D02*
G01X21449651Y2234438D01*
G01X21449651Y2354580D02*
G01X21501213Y2354580D01*
G01X21518231Y2348738D01*
G01X21524073Y2343150D01*
G01X21529661Y2331720D01*
G01X21529661Y2314448D01*
G01X21524073Y2303018D01*
G01X21518231Y2297430D01*
G01X21501213Y2291588D01*
G01X21449651Y2291588D01*
G01X21645993Y2314448D02*
G01X21645993Y2234438D01*
G01X21645993Y2297430D02*
G01X21634563Y2308860D01*
G01X21623133Y2314448D01*
G01X21606115Y2314448D01*
G01X21594685Y2308860D01*
G01X21583255Y2297430D01*
G01X21577413Y2280158D01*
G01X21577413Y2268728D01*
G01X21583255Y2251710D01*
G01X21594685Y2240280D01*
G01X21606115Y2234438D01*
G01X21623133Y2234438D01*
G01X21634563Y2240280D01*
G01X21645993Y2251710D01*
G01X21762325Y2354580D02*
G01X21762325Y2234438D01*
G01X21762325Y2297430D02*
G01X21750895Y2308860D01*
G01X21739465Y2314448D01*
G01X21722447Y2314448D01*
G01X21711017Y2308860D01*
G01X21699587Y2297430D01*
G01X21693745Y2280158D01*
G01X21693745Y2268728D01*
G01X21699587Y2251710D01*
G01X21711017Y2240280D01*
G01X21722447Y2234438D01*
G01X21739465Y2234438D01*
G01X21750895Y2240280D01*
G01X21762325Y2251710D01*
G01X23158962Y2377440D02*
G01X23147532Y2366010D01*
G01X23136102Y2348738D01*
G01X23124672Y2325878D01*
G01X23118830Y2297430D01*
G01X23118830Y2274570D01*
G01X23124672Y2245868D01*
G01X23136102Y2223008D01*
G01X23147532Y2205990D01*
G01X23158962Y2194560D01*
G01X23206714Y2354580D02*
G01X23206714Y2234438D01*
G01X23206714Y2354580D02*
G01X23252434Y2234438D01*
G01X23298154Y2354580D02*
G01X23252434Y2234438D01*
G01X23298154Y2354580D02*
G01X23298154Y2234438D01*
G01X23345906Y2354580D02*
G01X23351748Y2348738D01*
G01X23357336Y2354580D01*
G01X23351748Y2360168D01*
G01X23345906Y2354580D01*
G01X23351748Y2314448D02*
G01X23351748Y2234438D01*
G01X23405088Y2314448D02*
G01X23468080Y2234438D01*
G01X23468080Y2314448D02*
G01X23405088Y2234438D01*
G01X23515832Y2280158D02*
G01X23584412Y2280158D01*
G01X23584412Y2291588D01*
G01X23578824Y2303018D01*
G01X23572982Y2308860D01*
G01X23561552Y2314448D01*
G01X23544534Y2314448D01*
G01X23533104Y2308860D01*
G01X23521674Y2297430D01*
G01X23515832Y2280158D01*
G01X23515832Y2268728D01*
G01X23521674Y2251710D01*
G01X23533104Y2240280D01*
G01X23544534Y2234438D01*
G01X23561552Y2234438D01*
G01X23572982Y2240280D01*
G01X23584412Y2251710D01*
G01X23700744Y2354580D02*
G01X23700744Y2234438D01*
G01X23700744Y2297430D02*
G01X23689314Y2308860D01*
G01X23677884Y2314448D01*
G01X23660866Y2314448D01*
G01X23649436Y2308860D01*
G01X23638006Y2297430D01*
G01X23632164Y2280158D01*
G01X23632164Y2268728D01*
G01X23638006Y2251710D01*
G01X23649436Y2240280D01*
G01X23660866Y2234438D01*
G01X23677884Y2234438D01*
G01X23689314Y2240280D01*
G01X23700744Y2251710D01*
G01X23748496Y2377440D02*
G01X23759926Y2366010D01*
G01X23771356Y2348738D01*
G01X23782786Y2325878D01*
G01X23788628Y2297430D01*
G01X23788628Y2274570D01*
G01X23782786Y2245868D01*
G01X23771356Y2223008D01*
G01X23759926Y2205990D01*
G01X23748496Y2194560D01*
G01X25078331Y2354580D02*
G01X25078331Y2234438D01*
G01X25038199Y2354580D02*
G01X25118209Y2354580D01*
G01X25194663Y2314448D02*
G01X25183233Y2308860D01*
G01X25171803Y2297430D01*
G01X25165961Y2280158D01*
G01X25165961Y2268728D01*
G01X25171803Y2251710D01*
G01X25183233Y2240280D01*
G01X25194663Y2234438D01*
G01X25211681Y2234438D01*
G01X25223111Y2240280D01*
G01X25234541Y2251710D01*
G01X25240383Y2268728D01*
G01X25240383Y2280158D01*
G01X25234541Y2297430D01*
G01X25223111Y2308860D01*
G01X25211681Y2314448D01*
G01X25194663Y2314448D01*
G01X25288135Y2314448D02*
G01X25288135Y2194560D01*
G01X25288135Y2297430D02*
G01X25299565Y2308860D01*
G01X25310995Y2314448D01*
G01X25328267Y2314448D01*
G01X25339697Y2308860D01*
G01X25351127Y2297430D01*
G01X25356715Y2280158D01*
G01X25356715Y2268728D01*
G01X25351127Y2251710D01*
G01X25339697Y2240280D01*
G01X25328267Y2234438D01*
G01X25310995Y2234438D01*
G01X25299565Y2240280D01*
G01X25288135Y2251710D01*
G01X25532483Y2354580D02*
G01X25532483Y2234438D01*
G01X25532483Y2234438D02*
G01X25601063Y2234438D01*
G01X25717395Y2314448D02*
G01X25717395Y2234438D01*
G01X25717395Y2297430D02*
G01X25705965Y2308860D01*
G01X25694535Y2314448D01*
G01X25677517Y2314448D01*
G01X25666087Y2308860D01*
G01X25654657Y2297430D01*
G01X25648815Y2280158D01*
G01X25648815Y2268728D01*
G01X25654657Y2251710D01*
G01X25666087Y2240280D01*
G01X25677517Y2234438D01*
G01X25694535Y2234438D01*
G01X25705965Y2240280D01*
G01X25717395Y2251710D01*
G01X25770989Y2314448D02*
G01X25805279Y2234438D01*
G01X25839569Y2314448D02*
G01X25805279Y2234438D01*
G01X25793849Y2211578D01*
G01X25782419Y2200148D01*
G01X25770989Y2194560D01*
G01X25765147Y2194560D01*
G01X25887321Y2280158D02*
G01X25955901Y2280158D01*
G01X25955901Y2291588D01*
G01X25950313Y2303018D01*
G01X25944471Y2308860D01*
G01X25933041Y2314448D01*
G01X25916023Y2314448D01*
G01X25904593Y2308860D01*
G01X25893163Y2297430D01*
G01X25887321Y2280158D01*
G01X25887321Y2268728D01*
G01X25893163Y2251710D01*
G01X25904593Y2240280D01*
G01X25916023Y2234438D01*
G01X25933041Y2234438D01*
G01X25944471Y2240280D01*
G01X25955901Y2251710D01*
G01X26003653Y2314448D02*
G01X26003653Y2234438D01*
G01X26003653Y2280158D02*
G01X26009495Y2297430D01*
G01X26020925Y2308860D01*
G01X26032355Y2314448D01*
G01X26049373Y2314448D01*
G01X26097125Y2286000D02*
G01X26199995Y2286000D01*
G01X26247747Y2354580D02*
G01X26247747Y2234438D01*
G01X26247747Y2354580D02*
G01X26299309Y2354580D01*
G01X26316327Y2348738D01*
G01X26322169Y2343150D01*
G01X26327757Y2331720D01*
G01X26327757Y2320290D01*
G01X26322169Y2308860D01*
G01X26316327Y2303018D01*
G01X26299309Y2297430D01*
G01X26247747Y2297430D02*
G01X26299309Y2297430D01*
G01X26316327Y2291588D01*
G01X26322169Y2286000D01*
G01X26327757Y2274570D01*
G01X26327757Y2257298D01*
G01X26322169Y2245868D01*
G01X26316327Y2240280D01*
G01X26299309Y2234438D01*
G01X26247747Y2234438D01*
G01X26404211Y2314448D02*
G01X26392781Y2308860D01*
G01X26381351Y2297430D01*
G01X26375509Y2280158D01*
G01X26375509Y2268728D01*
G01X26381351Y2251710D01*
G01X26392781Y2240280D01*
G01X26404211Y2234438D01*
G01X26421229Y2234438D01*
G01X26432659Y2240280D01*
G01X26444089Y2251710D01*
G01X26449931Y2268728D01*
G01X26449931Y2280158D01*
G01X26444089Y2297430D01*
G01X26432659Y2308860D01*
G01X26421229Y2314448D01*
G01X26404211Y2314448D01*
G01X26514955Y2354580D02*
G01X26514955Y2257298D01*
G01X26520543Y2240280D01*
G01X26531973Y2234438D01*
G01X26543403Y2234438D01*
G01X26497683Y2314448D02*
G01X26537815Y2314448D01*
G01X26608427Y2354580D02*
G01X26608427Y2257298D01*
G01X26614015Y2240280D01*
G01X26625445Y2234438D01*
G01X26636875Y2234438D01*
G01X26591155Y2314448D02*
G01X26631287Y2314448D01*
G01X26713329Y2314448D02*
G01X26701899Y2308860D01*
G01X26690469Y2297430D01*
G01X26684627Y2280158D01*
G01X26684627Y2268728D01*
G01X26690469Y2251710D01*
G01X26701899Y2240280D01*
G01X26713329Y2234438D01*
G01X26730347Y2234438D01*
G01X26741777Y2240280D01*
G01X26753207Y2251710D01*
G01X26759049Y2268728D01*
G01X26759049Y2280158D01*
G01X26753207Y2297430D01*
G01X26741777Y2308860D01*
G01X26730347Y2314448D01*
G01X26713329Y2314448D01*
G01X26806801Y2314448D02*
G01X26806801Y2234438D01*
G01X26806801Y2291588D02*
G01X26824073Y2308860D01*
G01X26835503Y2314448D01*
G01X26852521Y2314448D01*
G01X26863951Y2308860D01*
G01X26869793Y2291588D01*
G01X26869793Y2234438D01*
G01X26869793Y2291588D02*
G01X26886811Y2308860D01*
G01X26898241Y2314448D01*
G01X26915513Y2314448D01*
G01X26926943Y2308860D01*
G01X26932531Y2291588D01*
G01X26932531Y2234438D01*
G01X27108299Y2354580D02*
G01X27108299Y2234438D01*
G01X27108299Y2234438D02*
G01X27176879Y2234438D01*
G01X27293211Y2314448D02*
G01X27293211Y2234438D01*
G01X27293211Y2297430D02*
G01X27281781Y2308860D01*
G01X27270351Y2314448D01*
G01X27253333Y2314448D01*
G01X27241903Y2308860D01*
G01X27230473Y2297430D01*
G01X27224631Y2280158D01*
G01X27224631Y2268728D01*
G01X27230473Y2251710D01*
G01X27241903Y2240280D01*
G01X27253333Y2234438D01*
G01X27270351Y2234438D01*
G01X27281781Y2240280D01*
G01X27293211Y2251710D01*
G01X27346805Y2314448D02*
G01X27381095Y2234438D01*
G01X27415385Y2314448D02*
G01X27381095Y2234438D01*
G01X27369665Y2211578D01*
G01X27358235Y2200148D01*
G01X27346805Y2194560D01*
G01X27340963Y2194560D01*
G01X27463137Y2280158D02*
G01X27531717Y2280158D01*
G01X27531717Y2291588D01*
G01X27526129Y2303018D01*
G01X27520287Y2308860D01*
G01X27508857Y2314448D01*
G01X27491839Y2314448D01*
G01X27480409Y2308860D01*
G01X27468979Y2297430D01*
G01X27463137Y2280158D01*
G01X27463137Y2268728D01*
G01X27468979Y2251710D01*
G01X27480409Y2240280D01*
G01X27491839Y2234438D01*
G01X27508857Y2234438D01*
G01X27520287Y2240280D01*
G01X27531717Y2251710D01*
G01X27579469Y2314448D02*
G01X27579469Y2234438D01*
G01X27579469Y2280158D02*
G01X27585311Y2297430D01*
G01X27596741Y2308860D01*
G01X27608171Y2314448D01*
G01X27625189Y2314448D01*
G01X13408954Y1774009D02*
G01X13351804Y1774009D01*
G01X13346216Y1722447D01*
G01X13351804Y1728289D01*
G01X13369076Y1733877D01*
G01X13386094Y1733877D01*
G01X13403366Y1728289D01*
G01X13414796Y1716859D01*
G01X13420384Y1699587D01*
G01X13420384Y1688157D01*
G01X13414796Y1671139D01*
G01X13403366Y1659709D01*
G01X13386094Y1653867D01*
G01X13369076Y1653867D01*
G01X13351804Y1659709D01*
G01X13346216Y1665297D01*
G01X13340374Y1676727D01*
G01X13502426Y1774009D02*
G01X13485408Y1768167D01*
G01X13473978Y1751149D01*
G01X13468136Y1722447D01*
G01X13468136Y1705429D01*
G01X13473978Y1676727D01*
G01X13485408Y1659709D01*
G01X13502426Y1653867D01*
G01X13513856Y1653867D01*
G01X13531128Y1659709D01*
G01X13542558Y1676727D01*
G01X13548146Y1705429D01*
G01X13548146Y1722447D01*
G01X13542558Y1751149D01*
G01X13531128Y1768167D01*
G01X13513856Y1774009D01*
G01X13502426Y1774009D01*
G01X14811687Y1774009D02*
G01X14754537Y1693999D01*
G01X14840389Y1693999D01*
G01X14811687Y1774009D02*
G01X14811687Y1653867D01*
G01X14899571Y1774009D02*
G01X14962563Y1774009D01*
G01X14928273Y1728289D01*
G01X14945291Y1728289D01*
G01X14956721Y1722447D01*
G01X14962563Y1716859D01*
G01X14968151Y1699587D01*
G01X14968151Y1688157D01*
G01X14962563Y1671139D01*
G01X14951133Y1659709D01*
G01X14933861Y1653867D01*
G01X14916843Y1653867D01*
G01X14899571Y1659709D01*
G01X14893983Y1665297D01*
G01X14888141Y1676727D01*
G01X15021745Y1682569D02*
G01X15015903Y1676727D01*
G01X15021745Y1671139D01*
G01X15027333Y1676727D01*
G01X15021745Y1682569D01*
G01X15086515Y1774009D02*
G01X15149507Y1774009D01*
G01X15115217Y1728289D01*
G01X15132235Y1728289D01*
G01X15143665Y1722447D01*
G01X15149507Y1716859D01*
G01X15155095Y1699587D01*
G01X15155095Y1688157D01*
G01X15149507Y1671139D01*
G01X15138077Y1659709D01*
G01X15120805Y1653867D01*
G01X15103787Y1653867D01*
G01X15086515Y1659709D01*
G01X15080927Y1665297D01*
G01X15075085Y1676727D01*
G01X15202847Y1733877D02*
G01X15265839Y1653867D01*
G01X15265839Y1733877D02*
G01X15202847Y1653867D01*
G01X15370741Y1774009D02*
G01X15313591Y1693999D01*
G01X15399443Y1693999D01*
G01X15370741Y1774009D02*
G01X15370741Y1653867D01*
G01X15458625Y1774009D02*
G01X15521617Y1774009D01*
G01X15487327Y1728289D01*
G01X15504345Y1728289D01*
G01X15515775Y1722447D01*
G01X15521617Y1716859D01*
G01X15527205Y1699587D01*
G01X15527205Y1688157D01*
G01X15521617Y1671139D01*
G01X15510187Y1659709D01*
G01X15492915Y1653867D01*
G01X15475897Y1653867D01*
G01X15458625Y1659709D01*
G01X15453037Y1665297D01*
G01X15447195Y1676727D01*
G01X15580799Y1682569D02*
G01X15574957Y1676727D01*
G01X15580799Y1671139D01*
G01X15586387Y1676727D01*
G01X15580799Y1682569D01*
G01X15645569Y1774009D02*
G01X15708561Y1774009D01*
G01X15674271Y1728289D01*
G01X15691289Y1728289D01*
G01X15702719Y1722447D01*
G01X15708561Y1716859D01*
G01X15714149Y1699587D01*
G01X15714149Y1688157D01*
G01X15708561Y1671139D01*
G01X15697131Y1659709D01*
G01X15679859Y1653867D01*
G01X15662841Y1653867D01*
G01X15645569Y1659709D01*
G01X15639981Y1665297D01*
G01X15634139Y1676727D01*
G01X15761901Y1733877D02*
G01X15761901Y1653867D01*
G01X15761901Y1711017D02*
G01X15779173Y1728289D01*
G01X15790603Y1733877D01*
G01X15807621Y1733877D01*
G01X15819051Y1728289D01*
G01X15824893Y1711017D01*
G01X15824893Y1653867D01*
G01X15824893Y1711017D02*
G01X15841911Y1728289D01*
G01X15853341Y1733877D01*
G01X15870613Y1733877D01*
G01X15882043Y1728289D01*
G01X15887631Y1711017D01*
G01X15887631Y1653867D01*
G01X15935383Y1774009D02*
G01X15941225Y1768167D01*
G01X15946813Y1774009D01*
G01X15941225Y1779597D01*
G01X15935383Y1774009D01*
G01X15941225Y1733877D02*
G01X15941225Y1653867D01*
G01X15994565Y1774009D02*
G01X15994565Y1653867D01*
G01X16082449Y1796869D02*
G01X16071019Y1785439D01*
G01X16059589Y1768167D01*
G01X16048159Y1745307D01*
G01X16042317Y1716859D01*
G01X16042317Y1693999D01*
G01X16048159Y1665297D01*
G01X16059589Y1642437D01*
G01X16071019Y1625419D01*
G01X16082449Y1613989D01*
G01X16130201Y1751149D02*
G01X16141631Y1756737D01*
G01X16158903Y1774009D01*
G01X16158903Y1653867D01*
G01X16212497Y1682569D02*
G01X16206655Y1676727D01*
G01X16212497Y1671139D01*
G01X16218085Y1676727D01*
G01X16212497Y1682569D01*
G01X16265837Y1751149D02*
G01X16277267Y1756737D01*
G01X16294539Y1774009D01*
G01X16294539Y1653867D01*
G01X16376581Y1774009D02*
G01X16359563Y1768167D01*
G01X16348133Y1751149D01*
G01X16342291Y1722447D01*
G01X16342291Y1705429D01*
G01X16348133Y1676727D01*
G01X16359563Y1659709D01*
G01X16376581Y1653867D01*
G01X16388011Y1653867D01*
G01X16405283Y1659709D01*
G01X16416713Y1676727D01*
G01X16422301Y1705429D01*
G01X16422301Y1722447D01*
G01X16416713Y1751149D01*
G01X16405283Y1768167D01*
G01X16388011Y1774009D01*
G01X16376581Y1774009D01*
G01X16504343Y1774009D02*
G01X16487325Y1768167D01*
G01X16475895Y1751149D01*
G01X16470053Y1722447D01*
G01X16470053Y1705429D01*
G01X16475895Y1676727D01*
G01X16487325Y1659709D01*
G01X16504343Y1653867D01*
G01X16515773Y1653867D01*
G01X16533045Y1659709D01*
G01X16544475Y1676727D01*
G01X16550063Y1705429D01*
G01X16550063Y1722447D01*
G01X16544475Y1751149D01*
G01X16533045Y1768167D01*
G01X16515773Y1774009D01*
G01X16504343Y1774009D01*
G01X16597815Y1733877D02*
G01X16660807Y1653867D01*
G01X16660807Y1733877D02*
G01X16597815Y1653867D01*
G01X16708559Y1751149D02*
G01X16719989Y1756737D01*
G01X16737261Y1774009D01*
G01X16737261Y1653867D01*
G01X16790855Y1682569D02*
G01X16785013Y1676727D01*
G01X16790855Y1671139D01*
G01X16796443Y1676727D01*
G01X16790855Y1682569D01*
G01X16844195Y1751149D02*
G01X16855625Y1756737D01*
G01X16872897Y1774009D01*
G01X16872897Y1653867D01*
G01X16954939Y1774009D02*
G01X16937921Y1768167D01*
G01X16926491Y1751149D01*
G01X16920649Y1722447D01*
G01X16920649Y1705429D01*
G01X16926491Y1676727D01*
G01X16937921Y1659709D01*
G01X16954939Y1653867D01*
G01X16966369Y1653867D01*
G01X16983641Y1659709D01*
G01X16995071Y1676727D01*
G01X17000659Y1705429D01*
G01X17000659Y1722447D01*
G01X16995071Y1751149D01*
G01X16983641Y1768167D01*
G01X16966369Y1774009D01*
G01X16954939Y1774009D01*
G01X17082701Y1774009D02*
G01X17065683Y1768167D01*
G01X17054253Y1751149D01*
G01X17048411Y1722447D01*
G01X17048411Y1705429D01*
G01X17054253Y1676727D01*
G01X17065683Y1659709D01*
G01X17082701Y1653867D01*
G01X17094131Y1653867D01*
G01X17111403Y1659709D01*
G01X17122833Y1676727D01*
G01X17128421Y1705429D01*
G01X17128421Y1722447D01*
G01X17122833Y1751149D01*
G01X17111403Y1768167D01*
G01X17094131Y1774009D01*
G01X17082701Y1774009D01*
G01X17176173Y1733877D02*
G01X17176173Y1653867D01*
G01X17176173Y1711017D02*
G01X17193445Y1728289D01*
G01X17204875Y1733877D01*
G01X17221893Y1733877D01*
G01X17233323Y1728289D01*
G01X17239165Y1711017D01*
G01X17239165Y1653867D01*
G01X17239165Y1711017D02*
G01X17256183Y1728289D01*
G01X17267613Y1733877D01*
G01X17284885Y1733877D01*
G01X17296315Y1728289D01*
G01X17301903Y1711017D01*
G01X17301903Y1653867D01*
G01X17349655Y1733877D02*
G01X17349655Y1653867D01*
G01X17349655Y1711017D02*
G01X17366927Y1728289D01*
G01X17378357Y1733877D01*
G01X17395375Y1733877D01*
G01X17406805Y1728289D01*
G01X17412647Y1711017D01*
G01X17412647Y1653867D01*
G01X17412647Y1711017D02*
G01X17429665Y1728289D01*
G01X17441095Y1733877D01*
G01X17458367Y1733877D01*
G01X17469797Y1728289D01*
G01X17475385Y1711017D01*
G01X17475385Y1653867D01*
G01X17523137Y1796869D02*
G01X17534567Y1785439D01*
G01X17545997Y1768167D01*
G01X17557427Y1745307D01*
G01X17563269Y1716859D01*
G01X17563269Y1693999D01*
G01X17557427Y1665297D01*
G01X17545997Y1642437D01*
G01X17534567Y1625419D01*
G01X17523137Y1613989D01*
G01X18557063Y1774009D02*
G01X18557063Y1653867D01*
G01X18557063Y1774009D02*
G01X18608625Y1774009D01*
G01X18625643Y1768167D01*
G01X18631485Y1762579D01*
G01X18637073Y1751149D01*
G01X18637073Y1733877D01*
G01X18631485Y1722447D01*
G01X18625643Y1716859D01*
G01X18608625Y1711017D01*
G01X18557063Y1711017D01*
G01X18724957Y1774009D02*
G01X18724957Y1653867D01*
G01X18684825Y1774009D02*
G01X18764835Y1774009D01*
G01X18812587Y1774009D02*
G01X18812587Y1653867D01*
G01X18892597Y1774009D02*
G01X18892597Y1653867D01*
G01X18812587Y1716859D02*
G01X18892597Y1716859D01*
G01X20018470Y1774009D02*
G01X20018470Y1653867D01*
G01X20018470Y1774009D02*
G01X20070032Y1774009D01*
G01X20087050Y1768167D01*
G01X20092892Y1762579D01*
G01X20098480Y1751149D01*
G01X20098480Y1739719D01*
G01X20092892Y1728289D01*
G01X20087050Y1722447D01*
G01X20070032Y1716859D01*
G01X20018470Y1716859D01*
G01X20058602Y1716859D02*
G01X20098480Y1653867D01*
G01X20174934Y1733877D02*
G01X20163504Y1728289D01*
G01X20152074Y1716859D01*
G01X20146232Y1699587D01*
G01X20146232Y1688157D01*
G01X20152074Y1671139D01*
G01X20163504Y1659709D01*
G01X20174934Y1653867D01*
G01X20191952Y1653867D01*
G01X20203382Y1659709D01*
G01X20214812Y1671139D01*
G01X20220654Y1688157D01*
G01X20220654Y1699587D01*
G01X20214812Y1716859D01*
G01X20203382Y1728289D01*
G01X20191952Y1733877D01*
G01X20174934Y1733877D01*
G01X20268406Y1733877D02*
G01X20268406Y1676727D01*
G01X20274248Y1659709D01*
G01X20285678Y1653867D01*
G01X20302696Y1653867D01*
G01X20314126Y1659709D01*
G01X20331398Y1676727D01*
G01X20331398Y1733877D02*
G01X20331398Y1653867D01*
G01X20379150Y1733877D02*
G01X20379150Y1653867D01*
G01X20379150Y1711017D02*
G01X20396422Y1728289D01*
G01X20407852Y1733877D01*
G01X20424870Y1733877D01*
G01X20436300Y1728289D01*
G01X20442142Y1711017D01*
G01X20442142Y1653867D01*
G01X20558474Y1774009D02*
G01X20558474Y1653867D01*
G01X20558474Y1716859D02*
G01X20547044Y1728289D01*
G01X20535614Y1733877D01*
G01X20518596Y1733877D01*
G01X20507166Y1728289D01*
G01X20495736Y1716859D01*
G01X20489894Y1699587D01*
G01X20489894Y1688157D01*
G01X20495736Y1671139D01*
G01X20507166Y1659709D01*
G01X20518596Y1653867D01*
G01X20535614Y1653867D01*
G01X20547044Y1659709D01*
G01X20558474Y1671139D01*
G01X21449651Y1774009D02*
G01X21449651Y1653867D01*
G01X21449651Y1774009D02*
G01X21501213Y1774009D01*
G01X21518231Y1768167D01*
G01X21524073Y1762579D01*
G01X21529661Y1751149D01*
G01X21529661Y1733877D01*
G01X21524073Y1722447D01*
G01X21518231Y1716859D01*
G01X21501213Y1711017D01*
G01X21449651Y1711017D01*
G01X21645993Y1733877D02*
G01X21645993Y1653867D01*
G01X21645993Y1716859D02*
G01X21634563Y1728289D01*
G01X21623133Y1733877D01*
G01X21606115Y1733877D01*
G01X21594685Y1728289D01*
G01X21583255Y1716859D01*
G01X21577413Y1699587D01*
G01X21577413Y1688157D01*
G01X21583255Y1671139D01*
G01X21594685Y1659709D01*
G01X21606115Y1653867D01*
G01X21623133Y1653867D01*
G01X21634563Y1659709D01*
G01X21645993Y1671139D01*
G01X21762325Y1774009D02*
G01X21762325Y1653867D01*
G01X21762325Y1716859D02*
G01X21750895Y1728289D01*
G01X21739465Y1733877D01*
G01X21722447Y1733877D01*
G01X21711017Y1728289D01*
G01X21699587Y1716859D01*
G01X21693745Y1699587D01*
G01X21693745Y1688157D01*
G01X21699587Y1671139D01*
G01X21711017Y1659709D01*
G01X21722447Y1653867D01*
G01X21739465Y1653867D01*
G01X21750895Y1659709D01*
G01X21762325Y1671139D01*
G01X23158962Y1796869D02*
G01X23147532Y1785439D01*
G01X23136102Y1768167D01*
G01X23124672Y1745307D01*
G01X23118830Y1716859D01*
G01X23118830Y1693999D01*
G01X23124672Y1665297D01*
G01X23136102Y1642437D01*
G01X23147532Y1625419D01*
G01X23158962Y1613989D01*
G01X23206714Y1774009D02*
G01X23206714Y1653867D01*
G01X23206714Y1774009D02*
G01X23252434Y1653867D01*
G01X23298154Y1774009D02*
G01X23252434Y1653867D01*
G01X23298154Y1774009D02*
G01X23298154Y1653867D01*
G01X23345906Y1774009D02*
G01X23351748Y1768167D01*
G01X23357336Y1774009D01*
G01X23351748Y1779597D01*
G01X23345906Y1774009D01*
G01X23351748Y1733877D02*
G01X23351748Y1653867D01*
G01X23405088Y1733877D02*
G01X23468080Y1653867D01*
G01X23468080Y1733877D02*
G01X23405088Y1653867D01*
G01X23515832Y1699587D02*
G01X23584412Y1699587D01*
G01X23584412Y1711017D01*
G01X23578824Y1722447D01*
G01X23572982Y1728289D01*
G01X23561552Y1733877D01*
G01X23544534Y1733877D01*
G01X23533104Y1728289D01*
G01X23521674Y1716859D01*
G01X23515832Y1699587D01*
G01X23515832Y1688157D01*
G01X23521674Y1671139D01*
G01X23533104Y1659709D01*
G01X23544534Y1653867D01*
G01X23561552Y1653867D01*
G01X23572982Y1659709D01*
G01X23584412Y1671139D01*
G01X23700744Y1774009D02*
G01X23700744Y1653867D01*
G01X23700744Y1716859D02*
G01X23689314Y1728289D01*
G01X23677884Y1733877D01*
G01X23660866Y1733877D01*
G01X23649436Y1728289D01*
G01X23638006Y1716859D01*
G01X23632164Y1699587D01*
G01X23632164Y1688157D01*
G01X23638006Y1671139D01*
G01X23649436Y1659709D01*
G01X23660866Y1653867D01*
G01X23677884Y1653867D01*
G01X23689314Y1659709D01*
G01X23700744Y1671139D01*
G01X23748496Y1796869D02*
G01X23759926Y1785439D01*
G01X23771356Y1768167D01*
G01X23782786Y1745307D01*
G01X23788628Y1716859D01*
G01X23788628Y1693999D01*
G01X23782786Y1665297D01*
G01X23771356Y1642437D01*
G01X23759926Y1625419D01*
G01X23748496Y1613989D01*
G01X25078331Y1774009D02*
G01X25078331Y1653867D01*
G01X25038199Y1774009D02*
G01X25118209Y1774009D01*
G01X25194663Y1733877D02*
G01X25183233Y1728289D01*
G01X25171803Y1716859D01*
G01X25165961Y1699587D01*
G01X25165961Y1688157D01*
G01X25171803Y1671139D01*
G01X25183233Y1659709D01*
G01X25194663Y1653867D01*
G01X25211681Y1653867D01*
G01X25223111Y1659709D01*
G01X25234541Y1671139D01*
G01X25240383Y1688157D01*
G01X25240383Y1699587D01*
G01X25234541Y1716859D01*
G01X25223111Y1728289D01*
G01X25211681Y1733877D01*
G01X25194663Y1733877D01*
G01X25288135Y1733877D02*
G01X25288135Y1613989D01*
G01X25288135Y1716859D02*
G01X25299565Y1728289D01*
G01X25310995Y1733877D01*
G01X25328267Y1733877D01*
G01X25339697Y1728289D01*
G01X25351127Y1716859D01*
G01X25356715Y1699587D01*
G01X25356715Y1688157D01*
G01X25351127Y1671139D01*
G01X25339697Y1659709D01*
G01X25328267Y1653867D01*
G01X25310995Y1653867D01*
G01X25299565Y1659709D01*
G01X25288135Y1671139D01*
G01X25532483Y1774009D02*
G01X25532483Y1653867D01*
G01X25532483Y1653867D02*
G01X25601063Y1653867D01*
G01X25717395Y1733877D02*
G01X25717395Y1653867D01*
G01X25717395Y1716859D02*
G01X25705965Y1728289D01*
G01X25694535Y1733877D01*
G01X25677517Y1733877D01*
G01X25666087Y1728289D01*
G01X25654657Y1716859D01*
G01X25648815Y1699587D01*
G01X25648815Y1688157D01*
G01X25654657Y1671139D01*
G01X25666087Y1659709D01*
G01X25677517Y1653867D01*
G01X25694535Y1653867D01*
G01X25705965Y1659709D01*
G01X25717395Y1671139D01*
G01X25770989Y1733877D02*
G01X25805279Y1653867D01*
G01X25839569Y1733877D02*
G01X25805279Y1653867D01*
G01X25793849Y1631007D01*
G01X25782419Y1619577D01*
G01X25770989Y1613989D01*
G01X25765147Y1613989D01*
G01X25887321Y1699587D02*
G01X25955901Y1699587D01*
G01X25955901Y1711017D01*
G01X25950313Y1722447D01*
G01X25944471Y1728289D01*
G01X25933041Y1733877D01*
G01X25916023Y1733877D01*
G01X25904593Y1728289D01*
G01X25893163Y1716859D01*
G01X25887321Y1699587D01*
G01X25887321Y1688157D01*
G01X25893163Y1671139D01*
G01X25904593Y1659709D01*
G01X25916023Y1653867D01*
G01X25933041Y1653867D01*
G01X25944471Y1659709D01*
G01X25955901Y1671139D01*
G01X26003653Y1733877D02*
G01X26003653Y1653867D01*
G01X26003653Y1699587D02*
G01X26009495Y1716859D01*
G01X26020925Y1728289D01*
G01X26032355Y1733877D01*
G01X26049373Y1733877D01*
G01X26097125Y1705429D02*
G01X26199995Y1705429D01*
G01X26247747Y1774009D02*
G01X26247747Y1653867D01*
G01X26247747Y1774009D02*
G01X26299309Y1774009D01*
G01X26316327Y1768167D01*
G01X26322169Y1762579D01*
G01X26327757Y1751149D01*
G01X26327757Y1739719D01*
G01X26322169Y1728289D01*
G01X26316327Y1722447D01*
G01X26299309Y1716859D01*
G01X26247747Y1716859D02*
G01X26299309Y1716859D01*
G01X26316327Y1711017D01*
G01X26322169Y1705429D01*
G01X26327757Y1693999D01*
G01X26327757Y1676727D01*
G01X26322169Y1665297D01*
G01X26316327Y1659709D01*
G01X26299309Y1653867D01*
G01X26247747Y1653867D01*
G01X26404211Y1733877D02*
G01X26392781Y1728289D01*
G01X26381351Y1716859D01*
G01X26375509Y1699587D01*
G01X26375509Y1688157D01*
G01X26381351Y1671139D01*
G01X26392781Y1659709D01*
G01X26404211Y1653867D01*
G01X26421229Y1653867D01*
G01X26432659Y1659709D01*
G01X26444089Y1671139D01*
G01X26449931Y1688157D01*
G01X26449931Y1699587D01*
G01X26444089Y1716859D01*
G01X26432659Y1728289D01*
G01X26421229Y1733877D01*
G01X26404211Y1733877D01*
G01X26514955Y1774009D02*
G01X26514955Y1676727D01*
G01X26520543Y1659709D01*
G01X26531973Y1653867D01*
G01X26543403Y1653867D01*
G01X26497683Y1733877D02*
G01X26537815Y1733877D01*
G01X26608427Y1774009D02*
G01X26608427Y1676727D01*
G01X26614015Y1659709D01*
G01X26625445Y1653867D01*
G01X26636875Y1653867D01*
G01X26591155Y1733877D02*
G01X26631287Y1733877D01*
G01X26713329Y1733877D02*
G01X26701899Y1728289D01*
G01X26690469Y1716859D01*
G01X26684627Y1699587D01*
G01X26684627Y1688157D01*
G01X26690469Y1671139D01*
G01X26701899Y1659709D01*
G01X26713329Y1653867D01*
G01X26730347Y1653867D01*
G01X26741777Y1659709D01*
G01X26753207Y1671139D01*
G01X26759049Y1688157D01*
G01X26759049Y1699587D01*
G01X26753207Y1716859D01*
G01X26741777Y1728289D01*
G01X26730347Y1733877D01*
G01X26713329Y1733877D01*
G01X26806801Y1733877D02*
G01X26806801Y1653867D01*
G01X26806801Y1711017D02*
G01X26824073Y1728289D01*
G01X26835503Y1733877D01*
G01X26852521Y1733877D01*
G01X26863951Y1728289D01*
G01X26869793Y1711017D01*
G01X26869793Y1653867D01*
G01X26869793Y1711017D02*
G01X26886811Y1728289D01*
G01X26898241Y1733877D01*
G01X26915513Y1733877D01*
G01X26926943Y1728289D01*
G01X26932531Y1711017D01*
G01X26932531Y1653867D01*
G01X27108299Y1774009D02*
G01X27108299Y1653867D01*
G01X27108299Y1653867D02*
G01X27176879Y1653867D01*
G01X27293211Y1733877D02*
G01X27293211Y1653867D01*
G01X27293211Y1716859D02*
G01X27281781Y1728289D01*
G01X27270351Y1733877D01*
G01X27253333Y1733877D01*
G01X27241903Y1728289D01*
G01X27230473Y1716859D01*
G01X27224631Y1699587D01*
G01X27224631Y1688157D01*
G01X27230473Y1671139D01*
G01X27241903Y1659709D01*
G01X27253333Y1653867D01*
G01X27270351Y1653867D01*
G01X27281781Y1659709D01*
G01X27293211Y1671139D01*
G01X27346805Y1733877D02*
G01X27381095Y1653867D01*
G01X27415385Y1733877D02*
G01X27381095Y1653867D01*
G01X27369665Y1631007D01*
G01X27358235Y1619577D01*
G01X27346805Y1613989D01*
G01X27340963Y1613989D01*
G01X27463137Y1699587D02*
G01X27531717Y1699587D01*
G01X27531717Y1711017D01*
G01X27526129Y1722447D01*
G01X27520287Y1728289D01*
G01X27508857Y1733877D01*
G01X27491839Y1733877D01*
G01X27480409Y1728289D01*
G01X27468979Y1716859D01*
G01X27463137Y1699587D01*
G01X27463137Y1688157D01*
G01X27468979Y1671139D01*
G01X27480409Y1659709D01*
G01X27491839Y1653867D01*
G01X27508857Y1653867D01*
G01X27520287Y1659709D01*
G01X27531717Y1671139D01*
G01X27579469Y1733877D02*
G01X27579469Y1653867D01*
G01X27579469Y1699587D02*
G01X27585311Y1716859D01*
G01X27596741Y1728289D01*
G01X27608171Y1733877D01*
G01X27625189Y1733877D01*

G04 Image Start*
G36*
G01X12175763Y1593396D02*
G01X12070149Y1604877D01*
G01X12027274Y1507671D01*
G01X11984399Y1604877D01*
G01X11878786Y1593396D01*
G01X11941549Y1679121D01*
G01X11901827Y1733376D01*
G01X11933320Y1733376D01*
G01X11973020Y1679121D01*
G01X11933320Y1624867D01*
G01X12000147Y1632131D01*
G01X12000147Y1632131D01*
G01X12027274Y1570638D01*
G01X12054401Y1632131D01*
G01X12121229Y1624867D01*
G01X12081529Y1679121D01*
G01X12121203Y1733350D01*
G01X12054376Y1726086D01*
G01X12027274Y1787605D01*
G01X12000147Y1726111D01*
G01X11933320Y1733376D01*
G01X11901827Y1733376D01*
G01X11878786Y1764846D01*
G01X11984424Y1753366D01*
G01X12027274Y1850571D01*
G01X12070149Y1753366D01*
G01X12175763Y1764846D01*
G01X12112999Y1679121D01*
G01X12175763Y1593396D01*
G37*
G36*
G01X12046769Y2707701D02*
G01X12039029Y2707113D01*
G01X12031186Y2706914D01*
G01X12023343Y2707113D01*
G01X12015602Y2707701D01*
G01X12007975Y2708670D01*
G01X12000470Y2710010D01*
G01X11985864Y2713765D01*
G01X11971862Y2718890D01*
G01X11958540Y2725307D01*
G01X11945974Y2732940D01*
G01X11934242Y2741713D01*
G01X11923420Y2751548D01*
G01X11913584Y2762371D01*
G01X11904811Y2774103D01*
G01X11897178Y2786668D01*
G01X11890761Y2799990D01*
G01X11885637Y2813992D01*
G01X11881882Y2828598D01*
G01X11880542Y2836104D01*
G01X11879572Y2843731D01*
G01X11878984Y2851471D01*
G01X11878786Y2859314D01*
G01X11904186Y2859314D01*
G01X11904843Y2846348D01*
G01X11906770Y2833752D01*
G01X11909905Y2821590D01*
G01X11914182Y2809928D01*
G01X11919537Y2798828D01*
G01X11925905Y2788357D01*
G01X11933223Y2778577D01*
G01X11941425Y2769554D01*
G01X11950449Y2761351D01*
G01X11960228Y2754034D01*
G01X11970700Y2747665D01*
G01X11981799Y2742310D01*
G01X11993462Y2738034D01*
G01X12005623Y2734899D01*
G01X12005623Y2734899D01*
G01X12018219Y2732971D01*
G01X12031186Y2732314D01*
G01X12044152Y2732971D01*
G01X12056748Y2734899D01*
G01X12068910Y2738034D01*
G01X12080572Y2742310D01*
G01X12091672Y2747665D01*
G01X12102143Y2754034D01*
G01X12111923Y2761351D01*
G01X12120946Y2769554D01*
G01X12129149Y2778577D01*
G01X12136466Y2788357D01*
G01X12142835Y2798828D01*
G01X12148190Y2809928D01*
G01X12152466Y2821590D01*
G01X12155601Y2833752D01*
G01X12157529Y2846348D01*
G01X12158186Y2859314D01*
G01X12157529Y2872281D01*
G01X12155601Y2884877D01*
G01X12152466Y2897038D01*
G01X12148190Y2908701D01*
G01X12142835Y2919800D01*
G01X12136466Y2930272D01*
G01X12129149Y2940051D01*
G01X12120946Y2949075D01*
G01X12111923Y2957277D01*
G01X12102143Y2964595D01*
G01X12091672Y2970963D01*
G01X12080572Y2976318D01*
G01X12068910Y2980595D01*
G01X12056748Y2983729D01*
G01X12044152Y2985657D01*
G01X12031186Y2986314D01*
G01X12018219Y2985657D01*
G01X12005623Y2983729D01*
G01X11993462Y2980595D01*
G01X11981799Y2976318D01*
G01X11970700Y2970963D01*
G01X11960228Y2964595D01*
G01X11950449Y2957277D01*
G01X11941425Y2949075D01*
G01X11933223Y2940051D01*
G01X11925905Y2930272D01*
G01X11919537Y2919800D01*
G01X11914182Y2908701D01*
G01X11909905Y2897038D01*
G01X11906770Y2884877D01*
G01X11904843Y2872281D01*
G01X11904186Y2859314D01*
G01X11878786Y2859314D01*
G01X11878984Y2867157D01*
G01X11879572Y2874898D01*
G01X11880542Y2882525D01*
G01X11881882Y2890030D01*
G01X11885637Y2904636D01*
G01X11890761Y2918638D01*
G01X11897178Y2931960D01*
G01X11904811Y2944526D01*
G01X11913584Y2956258D01*
G01X11923420Y2967080D01*
G01X11934242Y2976916D01*
G01X11945974Y2985689D01*
G01X11958540Y2993322D01*
G01X11971862Y2999739D01*
G01X11985864Y3004863D01*
G01X12000470Y3008618D01*
G01X12007975Y3009958D01*
G01X12015602Y3010928D01*
G01X12023343Y3011516D01*
G01X12031186Y3011714D01*
G01X12039029Y3011516D01*
G01X12046769Y3010928D01*
G01X12054396Y3009958D01*
G01X12061902Y3008618D01*
G01X12076508Y3004863D01*
G01X12090510Y2999739D01*
G01X12103832Y2993322D01*
G01X12116397Y2985689D01*
G01X12128129Y2976916D01*
G01X12138952Y2967080D01*
G01X12148787Y2956258D01*
G01X12157560Y2944526D01*
G01X12165193Y2931960D01*
G01X12171610Y2918638D01*
G01X12176735Y2904636D01*
G01X12180490Y2890030D01*
G01X12181830Y2882525D01*
G01X12182799Y2874898D01*
G01X12183387Y2867157D01*
G01X12183586Y2859314D01*
G01X12183387Y2851471D01*
G01X12182799Y2843731D01*
G01X12181830Y2836104D01*
G01X12180490Y2828598D01*
G01X12176735Y2813992D01*
G01X12171610Y2799990D01*
G01X12165193Y2786668D01*
G01X12157560Y2774103D01*
G01X12148787Y2762371D01*
G01X12138952Y2751548D01*
G01X12128129Y2741713D01*
G01X12116397Y2732940D01*
G01X12103832Y2725307D01*
G01X12090510Y2718890D01*
G01X12076508Y2713765D01*
G01X12061902Y2710010D01*
G01X12054396Y2708670D01*
G01X12046769Y2707701D01*
G37*
G36*
G01X11878786Y2431143D02*
G01X12183586Y2431143D01*
G01X12031186Y2167186D01*
G01X11893451Y2405743D01*
G01X11922779Y2405743D01*
G01X12031186Y2217986D01*
G01X12139593Y2405743D01*
G01X12139593Y2405743D01*
G01X11922779Y2405743D01*
G01X11893451Y2405743D01*
G01X11878786Y2431143D01*
G37*
G36*
G01X11878786Y3592286D02*
G01X12158186Y3592286D01*
G01X12158186Y3312886D01*
G01X11878786Y3312886D01*
G01X11878786Y3566886D01*
G01X11904186Y3566886D01*
G01X11904186Y3338286D01*
G01X12132786Y3338286D01*
G01X12132786Y3566886D01*
G01X12132786Y3566886D01*
G01X11904186Y3566886D01*
G01X11878786Y3566886D01*
G01X11878786Y3592286D01*
G37*

G04 PolygonModel Start*
G54D15*
G01X11588500Y1415143D02*
G01X28215921Y1415143D01*
G01X11588500Y1995714D02*
G01X28215921Y1995714D01*
G01X11588500Y2576286D02*
G01X28215921Y2576286D01*
G01X11588500Y3156857D02*
G01X28215921Y3156857D01*
G01X11588500Y3737429D02*
G01X28215921Y3737429D01*
G01X11588500Y4318000D02*
G01X28215921Y4318000D01*
G01X11588500Y4318000D02*
G01X11588500Y1440543D01*
G01X13039929Y4318000D02*
G01X13039929Y1440543D01*
G01X14454092Y4318000D02*
G01X14454092Y1440543D01*
G01X18256617Y4318000D02*
G01X18256617Y1440543D01*
G01X19718024Y4318000D02*
G01X19718024Y1440543D01*
G01X21149205Y4318000D02*
G01X21149205Y1440543D01*
G01X22818384Y4318000D02*
G01X22818384Y1440543D01*
G01X24737753Y4318000D02*
G01X24737753Y1440543D01*
G01X28215921Y4318000D02*
G01X28215921Y1440543D01*

M02*

