G04 Layer: TopLayer*
G04 EasyEDA Pro v3.2.148, 2026-08-07 17:33:20*
G04 Gerber Generator version 0.3*
G04 Scale: 100 percent, Rotated: No, Reflected: No*
G04 Dimensions in millimeters*
G04 Leading zeros omitted, absolute positions, 4 integers and 5 decimals*
G04 Generated by one-click*
G04 Object Configs: Pad,Via,Track,Text,Image,Dimension,BoardOutline,BoardCutout,CopperFilled,SolidRegion,FPCStiffener,Line,PlaneZone,ComponentProperty,ComponentSilkscreen,TearDrop*
G04 Layer Configs: 1,15,16,2,3,4,5,6,7,8,9,10,11,13,14,56*
G04 Copper Areas: 0*
%FSLAX45Y45*%
%MOMM*%
%ADD10R,3.49999X1.2*%
%ADD11R,1.72799X1.48501*%
%ADD12R,0.95001X1.15001*%
%ADD13R,1.48501X2.781*%
%ADD14C,1.6*%
%ADD15R,1.6X1.6*%
%ADD16C,1.8*%
%ADD17R,1.48501X1.72799*%
%ADD18C,1.7*%
%ADD19R,1.7013X1.524*%
%ADD20R,1.7X1.524*%
%ADD21R,1.07X0.6*%
%ADD22C,0.61*%
%ADD23C,0.254*%
%ADD24C,0.35*%
G75*


G04 Pad Start*
G54D10*
G01X4314943Y678152D03*
G01X3780959Y678152D03*
G54D11*
G01X4769260Y775820D03*
G01X4769260Y457304D03*
G54D12*
G01X6007891Y830552D03*
G01X5669411Y830552D03*
G54D13*
G01X5414446Y830552D03*
G01X5094456Y830552D03*
G54D14*
G01X9326432Y689145D03*
G01X9072432Y689145D03*
G54D15*
G01X9326432Y943145D03*
G54D14*
G01X9072432Y943145D03*
G54D15*
G01X9326432Y1197145D03*
G54D14*
G01X9072432Y1197145D03*
G01X9326432Y1451145D03*
G01X9072432Y1451145D03*
G54D16*
G01X9326432Y1730545D03*
G01X9072432Y1730545D03*
G54D17*
G01X8455601Y2360471D03*
G01X8774117Y2360471D03*
G01X8760690Y1684742D03*
G01X8442174Y1684742D03*
G54D18*
G01X2362200Y1193800D03*
G01X2362200Y1447800D03*
G01X2616200Y1193800D03*
G01X2616200Y1447800D03*
G01X2870200Y1193800D03*
G01X2870200Y1447800D03*
G01X3124200Y1193800D03*
G01X3124200Y1447800D03*
G01X3378200Y1193800D03*
G01X3378200Y1447800D03*
G01X3632200Y1193800D03*
G01X3632200Y1447800D03*
G01X3886200Y1193800D03*
G01X3886200Y1447800D03*
G01X4140200Y1193800D03*
G01X4140200Y1447800D03*
G01X4394200Y1193800D03*
G01X4394200Y1447800D03*
G01X4648200Y1193800D03*
G01X4648200Y1447800D03*
G01X4902200Y1193800D03*
G01X4902200Y1447800D03*
G01X5156200Y1193800D03*
G01X5156200Y1447800D03*
G01X5410200Y1193800D03*
G01X5410200Y1447800D03*
G01X5664200Y1193800D03*
G01X5664200Y1447800D03*
G01X5918200Y1193800D03*
G01X5918200Y1447800D03*
G01X6172200Y1193800D03*
G01X6172200Y1447800D03*
G01X6426200Y1193800D03*
G01X6426200Y1447800D03*
G01X6680200Y1193800D03*
G01X6680200Y1447800D03*
G01X6934200Y1193800D03*
G01X6934200Y1447800D03*
G01X7188200Y1193800D03*
G54D20*
G01X7188200Y1447800D03*
G54D11*
G01X9448800Y2877058D03*
G01X9448800Y2558542D03*
G01X9182100Y2558542D03*
G01X9182100Y2877058D03*
G01X7118213Y2531200D03*
G01X7118213Y2849716D03*
G01X6868013Y2531200D03*
G01X6868013Y2849716D03*
G01X4864100Y2536271D03*
G01X4864100Y2854787D03*
G01X4552442Y2536271D03*
G01X4552442Y2854787D03*
G01X2552700Y2523571D03*
G01X2552700Y2842087D03*
G01X2257913Y2523571D03*
G01X2257913Y2842087D03*
G54D14*
G01X7619997Y3314700D03*
G01X7619997Y3060700D03*
G01X7873997Y3314700D03*
G01X7873997Y3060700D03*
G01X8127997Y3314700D03*
G01X8127997Y3060700D03*
G01X8381997Y3314700D03*
G01X8381997Y3060700D03*
G54D15*
G01X8635997Y3314700D03*
G01X8635997Y3060700D03*
G54D14*
G01X8889997Y3314700D03*
G01X8889997Y3060700D03*
G01X5333997Y3314700D03*
G01X5333997Y3060700D03*
G01X5587997Y3314700D03*
G01X5587997Y3060700D03*
G01X5841997Y3314700D03*
G01X5841997Y3060700D03*
G01X6095997Y3314700D03*
G01X6095997Y3060700D03*
G54D15*
G01X6349997Y3314700D03*
G01X6349997Y3060700D03*
G54D14*
G01X6603997Y3314700D03*
G01X6603997Y3060700D03*
G01X4318003Y3314700D03*
G01X4318003Y3060700D03*
G54D15*
G01X4064003Y3314700D03*
G01X4064003Y3060700D03*
G54D14*
G01X3810003Y3314700D03*
G01X3810003Y3060700D03*
G01X3556003Y3314700D03*
G01X3556003Y3060700D03*
G01X3302003Y3314700D03*
G01X3302003Y3060700D03*
G01X3048003Y3314700D03*
G01X3048003Y3060700D03*
G01X2032003Y3314700D03*
G01X2032003Y3060700D03*
G54D15*
G01X1778003Y3314700D03*
G01X1778003Y3060700D03*
G54D14*
G01X1524003Y3314700D03*
G01X1524003Y3060700D03*
G01X1270003Y3314700D03*
G01X1270003Y3060700D03*
G01X1016003Y3314700D03*
G01X1016003Y3060700D03*
G01X762003Y3314700D03*
G01X762003Y3060700D03*
G54D21*
G01X9109393Y3308096D03*
G01X9109393Y3118104D03*
G01X9356408Y3213100D03*
G01X6874193Y3308096D03*
G01X6874193Y3118104D03*
G01X7121208Y3213100D03*
G01X4562793Y3308096D03*
G01X4562793Y3118104D03*
G01X4809808Y3213100D03*
G01X2302193Y3295396D03*
G01X2302193Y3105404D03*
G01X2549208Y3200400D03*
G01X8446576Y2110516D03*
G01X8446576Y1920524D03*
G01X8693591Y2015520D03*
G04 Pad End*

G04 Via Start*
G54D22*
G01X2298700Y3390900D03*
G01X2406345Y2523571D03*
G01X2552700Y3054221D03*
G01X4710044Y2536271D03*
G01X4864100Y3081430D03*
G01X4559300Y3416300D03*
G01X6870700Y3429000D03*
G01X7118213Y3045152D03*
G01X6991068Y2531208D03*
G01X9105900Y3416300D03*
G01X9448800Y3078407D03*
G01X8774116Y2144230D03*
G01X8446575Y2203183D03*
G01X8601432Y1684743D03*
G01X9317078Y2558542D03*
G01X4933921Y775820D03*
G01X4769260Y939456D03*
G01X4927600Y457200D03*
G01X4558002Y678132D03*
G01X3517900Y673100D03*
G04 Via End*

G04 Track Start*
G54D23*
G01X1524000Y2895600D02*
G01X1524000Y3060700D01*
G01X1270003Y2806697D02*
G01X1270003Y3060700D01*
G01X2870200Y1447800D02*
G01X2870200Y1663700D01*
G01X2362200Y1193800D02*
G01X2349500Y1181100D01*
G01X2616200Y1193800D02*
G01X2489200Y1320800D01*
G01X2489200Y1536700D01*
G01X2425700Y1600200D01*
G01X1016003Y2768597D02*
G01X1016003Y3060700D01*
G01X647700Y2628900D02*
G01X647700Y3200397D01*
G01X762003Y3314700D01*
G01X889000Y3200400D02*
G01X1003300Y3314700D01*
G01X1016003Y3314700D01*
G01X2870200Y1193800D02*
G01X2870200Y1222000D01*
G01X2743200Y1349000D01*
G01X2870200Y1663700D02*
G01X2641600Y1892300D01*
G01X2184400Y1892300D01*
G01X1270003Y2806697D01*
G01X2743200Y1349000D02*
G01X2743200Y1625600D01*
G01X1143000Y2781300D02*
G01X1143000Y3187697D01*
G01X1270003Y3314700D01*
G01X762003Y2692397D02*
G01X762003Y3060700D01*
G01X2425700Y1600200D02*
G01X2019300Y1600200D01*
G01X889000Y2730500D01*
G01X889000Y3200400D01*
G01X1397000Y2857500D02*
G01X1397000Y3187697D01*
G01X1524003Y3314700D01*
G01X2616200Y1447800D02*
G01X2616200Y1587500D01*
G01X2349500Y2070100D02*
G01X1524000Y2895600D01*
G01X2692400Y1981200D02*
G01X2273300Y1981200D01*
G01X1397000Y2857500D01*
G01X3124200Y1447800D02*
G01X3124200Y1689100D01*
G01X2743200Y2070100D01*
G01X2349500Y2070100D01*
G01X2743200Y1625600D02*
G01X2565400Y1803400D01*
G01X2120900Y1803400D01*
G01X1143000Y2781300D01*
G01X2616200Y1587500D02*
G01X2501900Y1701800D01*
G01X2082800Y1701800D01*
G01X1016003Y2768597D01*
G01X2362200Y1447800D02*
G01X2006600Y1447800D01*
G01X762003Y2692397D01*
G01X3378200Y1193800D02*
G01X3251200Y1320800D01*
G01X3022600Y3314700D02*
G01X3048003Y3314700D01*
G01X3048000Y2197100D02*
G01X3048000Y3060700D01*
G01X3378200Y1447800D02*
G01X3378200Y1866900D01*
G01X3048000Y2197100D01*
G01X3251200Y1320800D02*
G01X3251200Y1790700D01*
G01X2908300Y2133600D01*
G01X2908300Y3200400D01*
G01X3022600Y3314700D01*
G01X3263900Y3314700D02*
G01X3302003Y3314700D01*
G01X3886200Y1193800D02*
G01X3886200Y1222000D01*
G01X3175000Y2235200D02*
G01X3175000Y3225800D01*
G01X3263900Y3314700D01*
G01X3886200Y1447800D02*
G01X3886200Y1689100D01*
G01X3302003Y2273297D01*
G01X3302003Y3060700D01*
G01X4140200Y1193800D02*
G01X4013200Y1320800D01*
G01X4013200Y1752600D01*
G01X3517900Y3314700D02*
G01X3556003Y3314700D01*
G01X4013200Y1752600D02*
G01X3429000Y2336800D01*
G01X3429000Y3225800D01*
G01X3517900Y3314700D01*
G01X4140200Y1447800D02*
G01X4140200Y1816100D01*
G01X3556003Y2400297D01*
G01X3556003Y3060700D01*
G01X4394200Y1193800D02*
G01X4267200Y1320800D01*
G01X3683000Y2438400D02*
G01X3683000Y3200400D01*
G01X3797300Y3314700D01*
G01X3810003Y3314700D01*
G01X4267200Y1320800D02*
G01X4267200Y1854200D01*
G01X3683000Y2438400D01*
G01X4394200Y1447800D02*
G01X4394200Y1917700D01*
G01X3810003Y2501897D01*
G01X3810003Y3060700D01*
G01X4521200Y1320800D02*
G01X4648200Y1193800D01*
G01X4521200Y1765300D02*
G01X4521200Y1320800D01*
G01X5333997Y3314700D02*
G01X5295900Y3314700D01*
G01X5194300Y3213100D02*
G01X5194300Y2438400D01*
G01X5295900Y3314700D02*
G01X5194300Y3213100D01*
G01X5194300Y2438400D02*
G01X4521200Y1765300D01*
G01X5333997Y2400297D02*
G01X5333997Y3060700D01*
G01X4902200Y1193800D02*
G01X4775200Y1320800D01*
G01X4775200Y1676400D01*
G01X5461000Y2362200D01*
G01X5461000Y3213100D01*
G01X5562600Y3314700D01*
G01X5587997Y3314700D01*
G01X4902200Y1447800D02*
G01X4902200Y1600200D01*
G01X5587997Y2285997D01*
G01X5587997Y3060700D01*
G01X5156200Y1193800D02*
G01X5029200Y1320800D01*
G01X5029200Y1574800D01*
G01X5715000Y2260600D01*
G01X5715000Y3213100D01*
G01X5816600Y3314700D01*
G01X5841997Y3314700D01*
G01X5156200Y1447800D02*
G01X5156200Y1549400D01*
G01X5841997Y2235197D01*
G01X5841997Y3060700D01*
G01X5410200Y1193800D02*
G01X5283200Y1320800D01*
G01X5283200Y1511300D01*
G01X6083300Y3314700D02*
G01X6095997Y3314700D01*
G01X5283200Y1511300D02*
G01X5969000Y2197100D01*
G01X5969000Y3200400D01*
G01X6083300Y3314700D01*
G01X6095997Y3060700D02*
G01X6095997Y2133597D01*
G01X5410200Y1447800D01*
G01X6680200Y1193800D02*
G01X6680200Y1222000D01*
G01X6553200Y1349000D01*
G01X7747000Y3213100D02*
G01X7848600Y3314700D01*
G01X7873997Y3314700D01*
G01X8115300Y3314700D02*
G01X8127997Y3314700D01*
G01X8001000Y3200400D02*
G01X8115300Y3314700D01*
G01X8369300Y3314700D02*
G01X8381997Y3314700D01*
G01X8255000Y3200400D02*
G01X8369300Y3314700D01*
G54D24*
G01X6874193Y3118104D02*
G01X6603997Y3118104D01*
G54D23*
G01X6603997Y3118104D02*
G01X6603997Y3060700D01*
G54D24*
G01X6603997Y3118104D02*
G01X6603997Y3314700D01*
G01X6349997Y3060700D02*
G01X6349997Y3314700D01*
G01X1778003Y3060700D02*
G01X1778003Y3314700D01*
G01X2032003Y3060700D02*
G01X2032003Y3314700D01*
G54D23*
G01X2302193Y3105404D02*
G01X2302193Y3060700D01*
G54D24*
G01X2257913Y2842087D02*
G01X2302193Y2842087D01*
G01X2302193Y3060700D01*
G01X2552700Y3200400D02*
G01X2549208Y3200400D01*
G01X2302193Y3060700D02*
G01X2253427Y3109465D01*
G01X2080768Y3109465D01*
G01X2032003Y3060700D01*
G01X4318003Y3060700D02*
G01X4318003Y3314700D01*
G01X4552442Y3118104D02*
G01X4562793Y3118104D01*
G01X4318003Y3060700D02*
G01X4552442Y3060700D01*
G01X4552442Y2854787D02*
G01X4552442Y3060700D01*
G01X4552442Y3118104D01*
G01X7118213Y3213100D02*
G01X7121208Y3213100D01*
G54D23*
G01X6868013Y2849716D02*
G01X6874193Y2849716D01*
G01X6874193Y3118104D01*
G54D24*
G01X8635997Y3060700D02*
G01X8635997Y3314700D01*
G01X8889997Y3314700D02*
G01X8889997Y3060700D01*
G01X9109393Y3060700D01*
G01X9109393Y3118104D01*
G54D23*
G01X2302193Y3295396D02*
G01X2298700Y3295396D01*
G01X2298700Y3390900D01*
G01X2257913Y2523571D02*
G01X2406345Y2523571D01*
G01X2552700Y2523571D01*
G54D24*
G01X2552700Y2842087D02*
G01X2552700Y3054221D01*
G01X2552700Y3200400D01*
G54D23*
G01X4552442Y2536271D02*
G01X4710044Y2536271D01*
G01X4864100Y2536271D01*
G54D24*
G01X4864100Y2854787D02*
G01X4864100Y3081430D01*
G54D23*
G01X4562793Y3308096D02*
G01X4562793Y3416300D01*
G01X4559300Y3416300D01*
G01X6870700Y3429000D02*
G01X6870700Y3308096D01*
G01X6874193Y3308096D01*
G54D24*
G01X7118213Y2849716D02*
G01X7118213Y3045152D01*
G01X7118213Y3213100D01*
G54D23*
G01X6868013Y2531200D02*
G01X6991068Y2531200D01*
G01X7118213Y2531200D01*
G01X9109393Y3308096D02*
G01X9109393Y3416300D01*
G01X9105900Y3416300D01*
G54D24*
G01X9448800Y2877058D02*
G01X9448800Y3078407D01*
G01X8774116Y2015520D02*
G01X8693591Y2015520D01*
G54D23*
G01X8446575Y2360471D02*
G01X8455600Y2360471D01*
G54D24*
G01X8446575Y1684742D02*
G01X8442174Y1684742D01*
G01X8774116Y2360471D02*
G01X8774116Y2144230D01*
G01X8774116Y2015520D01*
G54D23*
G01X8446575Y2110516D02*
G01X8446575Y2203183D01*
G01X8446575Y2360471D01*
G54D24*
G01X9326432Y1451145D02*
G01X9326432Y1730545D01*
G01X8446575Y1854200D02*
G01X8446575Y1920524D01*
G01X8446575Y1854200D02*
G01X8446575Y1684742D01*
G54D23*
G01X8601432Y1684743D02*
G01X8760690Y1684743D01*
G01X9182100Y2558542D02*
G01X9317078Y2558542D01*
G01X9448800Y2558542D01*
G54D24*
G01X5918200Y1447800D02*
G01X5956300Y1447800D01*
G01X6045200Y1358900D01*
G01X6045200Y867861D01*
G01X6007891Y830552D01*
G01X5414446Y830552D02*
G01X5669411Y830552D01*
G01X5094456Y830552D02*
G01X5094456Y775820D01*
G01X4933921Y775820D01*
G01X4769260Y775820D01*
G01X4769260Y939456D01*
G01X4769364Y457200D02*
G01X4927600Y457200D01*
G01X3780959Y678152D02*
G01X3780959Y673100D01*
G01X3517900Y673100D01*
G01X9182100Y2877058D02*
G01X9182100Y2987993D01*
G01X9109393Y3060700D01*
G01X9448800Y3078407D02*
G01X9448800Y3120708D01*
G01X9356408Y3213100D01*
G01X4864100Y3081430D02*
G01X4864100Y3158808D01*
G01X4809808Y3213100D01*
G01X4558002Y678152D02*
G01X4314943Y678152D01*
G54D23*
G01X6172200Y1447800D02*
G01X6299200Y1320800D01*
G01X6299200Y1092200D01*
G01X6448255Y943145D01*
G01X9072432Y943145D01*
G01X6172200Y1193800D02*
G01X6172200Y1092200D01*
G01X6575255Y689145D01*
G01X9072432Y689145D01*
G54D24*
G01X9326432Y1197145D02*
G01X9326432Y943145D01*
G54D23*
G01X3886200Y1222000D02*
G01X3759200Y1349000D01*
G01X3759200Y1651000D01*
G01X3175000Y2235200D01*
G01X3124200Y1193800D02*
G01X2997200Y1320800D01*
G01X2997200Y1676400D01*
G01X2692400Y1981200D01*
G01X4648200Y1447800D02*
G01X4648200Y1714500D01*
G01X5333997Y2400297D01*
G01X2349500Y1181100D02*
G01X2209800Y1320800D01*
G01X1955800Y1320800D01*
G01X647700Y2628900D01*
G54D24*
G01X4064003Y3060700D02*
G01X4064003Y3314700D01*
G54D23*
G01X6426200Y1447800D02*
G01X6426200Y1625600D01*
G01X7620000Y2819400D01*
G01X7620000Y3060697D01*
G01X7873997Y3060700D02*
G01X7873997Y2768597D01*
G01X6680200Y1574800D01*
G01X6680200Y1447800D01*
G01X6807200Y1562100D02*
G01X8001000Y2755900D01*
G01X8001000Y3200400D01*
G01X6553200Y1349000D02*
G01X6553200Y1600200D01*
G01X7747000Y2794000D01*
G01X7747000Y3213100D01*
G01X8127997Y3060700D02*
G01X8127997Y2743197D01*
G01X6934200Y1549400D01*
G01X6934200Y1447800D01*
G01X7061200Y1547238D02*
G01X8255000Y2690238D01*
G01X8255000Y3200400D01*
G01X7188200Y1447800D02*
G01X7188200Y1498600D01*
G01X8382000Y2692400D01*
G01X8382000Y3060697D01*
G54D24*
G01X4769260Y775820D02*
G01X4671592Y678152D01*
G01X4558002Y678152D01*
G54D23*
G01X6934200Y1193800D02*
G01X6934200Y1231900D01*
G01X6807200Y1358900D01*
G01X6807200Y1562100D01*
G01X7188200Y1193800D02*
G01X7239000Y1193800D01*
G01X7061200Y1339273D01*
G01X7061200Y1547238D01*
G54D24*
G01X8459275Y1866900D02*
G01X8446575Y1854200D01*
G01X9326432Y689145D02*
G01X9499600Y862313D01*
G01X9499600Y1816100D01*
G01X9448800Y1866900D01*
G01X8459275Y1866900D01*
G04 Track End*

M02*

