;TYPE=PLATED
;Layer: PTH_Through_Via
;EasyEDA Pro v3.2.148, 2026-08-25 14:37:52
;Gerber Generator version 0.3
M48
METRIC,LZ,0000.00000
;Hole size 1 = 0.30500 METRIC
T01C0.30500
%
G05
G90
T01
X8.128Y16.256
X25.654Y13.589
X25.74036Y25.03084
X34.544Y25.019
X34.544Y23.749
X25.654Y18.669
X25.654Y17.399
X25.654Y16.129
X25.654Y14.859
X8.128Y15.52894
X8.89Y16.256
X8.89Y15.52894
X9.652Y16.256
X9.652Y15.52894
X8.128Y13.69853
X8.128Y12.97147
X8.89Y12.97147
X8.89Y13.69853
X9.652Y13.69853
X9.652Y12.97147
X11.938Y13.50295
X12.7Y13.50295
X11.938Y12.77589
X12.7Y12.77589
X11.938Y16.68811
X12.7Y16.68811
X12.7Y15.96105
X11.938Y15.96105
M30