;TYPE=PLATED
;Layer: PTH_Through
;EasyEDA Pro v3.2.148, 2026-08-25 14:37:52
;Gerber Generator version 0.3
M48
METRIC,LZ,0000.00000
;Hole size 1 = 0.30500 METRIC
T01C0.30500
;Hole size 2 = 0.90002 METRIC
T02C0.90002
;Hole size 3 = 3.19999 METRIC
T03C3.19999
%
G05
G90
T01
X8.128Y16.256
X25.654Y13.589
X25.74036Y25.03084
X34.544Y25.019
X34.544Y23.749
X25.654Y18.669
X25.654Y17.399
X25.654Y16.129
X25.654Y14.859
X8.128Y15.52894
X8.89Y16.256
X8.89Y15.52894
X9.652Y16.256
X9.652Y15.52894
X8.128Y13.69853
X8.128Y12.97147
X8.89Y12.97147
X8.89Y13.69853
X9.652Y13.69853
X9.652Y12.97147
X11.938Y13.50295
X12.7Y13.50295
X11.938Y12.77589
X12.7Y12.77589
X11.938Y16.68811
X12.7Y16.68811
X12.7Y15.96105
X11.938Y15.96105
T02
X61.214Y15.24097
X61.214Y17.52597
X61.214Y19.81096
X61.214Y22.09597
X61.214Y24.38095
X58.674Y16.38397
X58.674Y18.66897
X58.674Y20.95396
X58.674Y23.23897
X58.674Y25.52395
X56.134Y15.24097
X56.134Y17.52597
X56.134Y19.81096
X56.134Y22.09597
X56.134Y24.38095
T03
X58.674Y7.56097
X58.674Y32.57093
M30