G04 Layer: BottomLayer*
G04 EasyEDA Pro v3.2.148, 2026-08-25 14:37:52*
G04 Gerber Generator version 0.3*
G04 Scale: 100 percent, Rotated: No, Reflected: No*
G04 Dimensions in millimeters*
G04 Leading zeros omitted, absolute positions, 4 integers and 5 decimals*
G04 Generated by one-click*
G04 Object Configs: Pad,Via,Track,Text,Image,Dimension,BoardOutline,BoardCutout,CopperFilled,SolidRegion,FPCStiffener,Line,PlaneZone,ComponentProperty,ComponentSilkscreen,TearDrop*
G04 Layer Configs: 1,15,16,2,3,4,5,6,7,8,9,10,11,13,14,56*
G04 Copper Areas: 0*
%FSLAX45Y45*%
%MOMM*%
%ADD10R,7.2X1.8*%
%ADD11C,3.99999*%
%ADD12C,1.5*%
%ADD13C,0.61*%
%ADD14C,0.254*%
%ADD15C,0.3755*%
G75*


G04 Pad Start*
G54D10*
G01X660400Y1333500D03*
G01X660400Y1841500D03*
G01X660400Y2095500D03*
G01X660400Y2354064D03*
G01X660400Y2603500D03*
G01X660400Y1587500D03*
G54D11*
G01X5867400Y756107D03*
G01X5867400Y3257093D03*
G54D12*
G01X6121400Y1524102D03*
G01X6121400Y1752600D03*
G01X6121400Y1981098D03*
G01X6121400Y2209597D03*
G01X6121400Y2438095D03*
G01X5867400Y1638402D03*
G01X5867400Y1866900D03*
G01X5867400Y2095398D03*
G01X5867400Y2323897D03*
G01X5867400Y2552395D03*
G01X5613400Y1524102D03*
G01X5613400Y1752600D03*
G01X5613400Y1981098D03*
G01X5613400Y2209597D03*
G01X5613400Y2438095D03*
G04 Pad End*

G04 Via Start*
G54D13*
G01X812800Y1625600D03*
G01X2565400Y1358900D03*
G01X2574036Y2503084D03*
G01X3454400Y2501900D03*
G01X3454400Y2374900D03*
G01X2565400Y1866900D03*
G01X2565400Y1739900D03*
G01X2565400Y1612900D03*
G01X2565400Y1485900D03*
G01X812800Y1552894D03*
G01X889000Y1625600D03*
G01X889000Y1552894D03*
G01X965200Y1625600D03*
G01X965200Y1552894D03*
G01X812800Y1369853D03*
G01X812800Y1297147D03*
G01X889000Y1297147D03*
G01X889000Y1369853D03*
G01X965200Y1369853D03*
G01X965200Y1297147D03*
G01X1193800Y1350295D03*
G01X1270000Y1350295D03*
G01X1193800Y1277589D03*
G01X1270000Y1277589D03*
G01X1193800Y1668811D03*
G01X1270000Y1668811D03*
G01X1270000Y1596105D03*
G01X1193800Y1596105D03*
G04 Via End*

G04 Track Start*
G54D14*
G01X660400Y2603500D02*
G01X1828800Y2603500D01*
G01X2565400Y1866900D01*
G01X660400Y1841500D02*
G01X1841500Y1841500D01*
G01X2197100Y1485900D01*
G01X2565400Y1485900D01*
G01X660400Y2095500D02*
G01X1816100Y2095500D01*
G01X2298700Y1612900D01*
G01X2565400Y1612900D01*
G01X660400Y2354064D02*
G01X1824236Y2354064D01*
G01X2438400Y1739900D01*
G01X2565400Y1739900D01*
G01X5613400Y1524102D02*
G01X5753100Y1524102D01*
G01X5867400Y1638402D01*
G01X5867400Y2552395D02*
G01X5867400Y2323897D01*
G01X5867400Y2095398D01*
G04 Track End*

M02*

