G04 Layer: TopPasteMaskLayer*
G04 EasyEDA Pro v3.2.148, 2026-08-25 14:37:52*
G04 Gerber Generator version 0.3*
G04 Scale: 100 percent, Rotated: No, Reflected: No*
G04 Dimensions in millimeters*
G04 Leading zeros omitted, absolute positions, 4 integers and 5 decimals*
G04 Generated by one-click*
G04 Object Configs: Pad,Via,Track,Text,Image,Dimension,BoardOutline,BoardCutout,CopperFilled,SolidRegion,FPCStiffener,Line,PlaneZone,ComponentProperty,ComponentSilkscreen,TearDrop*
G04 Layer Configs: 1,15,16,2,3,4,5,6,7,8,9,10,11,13,14,56*
G04 Copper Areas: 0*
%FSLAX45Y45*%
%MOMM*%
%ADD10R,7.2X1.8*%
%ADD11O,2.2X0.6*%
%ADD12C,0.7180*%
G75*


G04 PolygonModel Start*
G36*
G01X1308301Y1558201D02*
G01X1271275Y1558201D01*
G01X1261275Y1568201D01*
G01X1261275Y1598691D01*
G01X1251275Y1608691D01*
G01X1212525Y1608691D01*
G01X1202525Y1598691D01*
G01X1202525Y1568201D01*
G01X1192525Y1558201D01*
G01X1155499Y1558201D01*
G01X1145499Y1568201D01*
G01X1145499Y1696700D01*
G01X1155499Y1706700D01*
G01X1308301Y1706700D01*
G01X1318301Y1696700D01*
G01X1318301Y1568201D01*
G01X1308301Y1558201D01*
G37*
G36*
G01X1308301Y1388199D02*
G01X1318301Y1378199D01*
G01X1318301Y1249700D01*
G01X1308301Y1239700D01*
G01X1155499Y1239700D01*
G01X1145499Y1249700D01*
G01X1145499Y1378199D01*
G01X1155499Y1388199D01*
G01X1192525Y1388199D01*
G01X1202525Y1378199D01*
G01X1202525Y1347709D01*
G01X1212525Y1337709D01*
G01X1251275Y1337709D01*
G01X1261275Y1347709D01*
G01X1261275Y1378199D01*
G01X1271275Y1388199D01*
G01X1308301Y1388199D01*
G37*
G36*
G01X5129400Y1735114D02*
G01X5129400Y1771245D01*
G01X5139400Y1781245D01*
G01X5160457Y1781245D01*
G01X5170457Y1791245D01*
G01X5170457Y1829081D01*
G01X5160457Y1839081D01*
G01X5139400Y1839081D01*
G01X5129400Y1849081D01*
G01X5129400Y1885212D01*
G01X5139400Y1895212D01*
G01X5240152Y1895212D01*
G01X5250152Y1885212D01*
G01X5250152Y1735114D01*
G01X5240152Y1725114D01*
G01X5139400Y1725114D01*
G01X5129400Y1735114D01*
G37*
G36*
G01X4954400Y1735114D02*
G01X4944400Y1725114D01*
G01X4843648Y1725114D01*
G01X4833648Y1735114D01*
G01X4833648Y1885212D01*
G01X4843648Y1895212D01*
G01X4944400Y1895212D01*
G01X4954400Y1885212D01*
G01X4954400Y1849081D01*
G01X4944400Y1839081D01*
G01X4923343Y1839081D01*
G01X4913343Y1829081D01*
G01X4913343Y1791245D01*
G01X4923343Y1781245D01*
G01X4944400Y1781245D01*
G01X4954400Y1771245D01*
G01X4954400Y1735114D01*
G37*
G36*
G01X5129400Y1422480D02*
G01X5129400Y1458611D01*
G01X5139400Y1468611D01*
G01X5160457Y1468611D01*
G01X5170457Y1478611D01*
G01X5170457Y1516447D01*
G01X5160457Y1526447D01*
G01X5139400Y1526447D01*
G01X5129400Y1536447D01*
G01X5129400Y1572578D01*
G01X5139400Y1582578D01*
G01X5240152Y1582578D01*
G01X5250152Y1572578D01*
G01X5250152Y1422480D01*
G01X5240152Y1412480D01*
G01X5139400Y1412480D01*
G01X5129400Y1422480D01*
G37*
G36*
G01X4954400Y1422480D02*
G01X4944400Y1412480D01*
G01X4843648Y1412480D01*
G01X4833648Y1422480D01*
G01X4833648Y1572578D01*
G01X4843648Y1582578D01*
G01X4944400Y1582578D01*
G01X4954400Y1572578D01*
G01X4954400Y1536447D01*
G01X4944400Y1526447D01*
G01X4923343Y1526447D01*
G01X4913343Y1516447D01*
G01X4913343Y1478611D01*
G01X4923343Y1468611D01*
G01X4944400Y1468611D01*
G01X4954400Y1458611D01*
G01X4954400Y1422480D01*
G37*
G36*
G01X5129400Y2360382D02*
G01X5129400Y2396514D01*
G01X5139400Y2406514D01*
G01X5160457Y2406514D01*
G01X5170457Y2416514D01*
G01X5170457Y2454349D01*
G01X5160457Y2464349D01*
G01X5139400Y2464349D01*
G01X5129400Y2474349D01*
G01X5129400Y2510481D01*
G01X5139400Y2520481D01*
G01X5240152Y2520481D01*
G01X5250152Y2510481D01*
G01X5250152Y2360382D01*
G01X5240152Y2350382D01*
G01X5139400Y2350382D01*
G01X5129400Y2360382D01*
G37*
G36*
G01X4954400Y2360382D02*
G01X4944400Y2350382D01*
G01X4843648Y2350382D01*
G01X4833648Y2360382D01*
G01X4833648Y2510481D01*
G01X4843648Y2520481D01*
G01X4944400Y2520481D01*
G01X4954400Y2510481D01*
G01X4954400Y2474349D01*
G01X4944400Y2464349D01*
G01X4923343Y2464349D01*
G01X4913343Y2454349D01*
G01X4913343Y2416514D01*
G01X4923343Y2406514D01*
G01X4944400Y2406514D01*
G01X4954400Y2396514D01*
G01X4954400Y2360382D01*
G37*
G36*
G01X5129400Y2047748D02*
G01X5129400Y2083880D01*
G01X5139400Y2093879D01*
G01X5160457Y2093879D01*
G01X5170457Y2103879D01*
G01X5170457Y2141715D01*
G01X5160457Y2151715D01*
G01X5139400Y2151715D01*
G01X5129400Y2161715D01*
G01X5129400Y2197847D01*
G01X5139400Y2207847D01*
G01X5240152Y2207847D01*
G01X5250152Y2197847D01*
G01X5250152Y2047748D01*
G01X5240152Y2037748D01*
G01X5139400Y2037748D01*
G01X5129400Y2047748D01*
G37*
G36*
G01X4954400Y2047748D02*
G01X4944400Y2037748D01*
G01X4843648Y2037748D01*
G01X4833648Y2047748D01*
G01X4833648Y2197847D01*
G01X4843648Y2207847D01*
G01X4944400Y2207847D01*
G01X4954400Y2197847D01*
G01X4954400Y2161715D01*
G01X4944400Y2151715D01*
G01X4923343Y2151715D01*
G01X4913343Y2141715D01*
G01X4913343Y2103879D01*
G01X4923343Y2093879D01*
G01X4944400Y2093879D01*
G01X4954400Y2083880D01*
G01X4954400Y2047748D01*
G37*
G36*
G01X5129400Y2985651D02*
G01X5129400Y3021782D01*
G01X5139400Y3031782D01*
G01X5160457Y3031782D01*
G01X5170457Y3041782D01*
G01X5170457Y3079618D01*
G01X5160457Y3089618D01*
G01X5139400Y3089618D01*
G01X5129400Y3099618D01*
G01X5129400Y3135749D01*
G01X5139400Y3145749D01*
G01X5240152Y3145749D01*
G01X5250152Y3135749D01*
G01X5250152Y2985651D01*
G01X5240152Y2975651D01*
G01X5139400Y2975651D01*
G01X5129400Y2985651D01*
G37*
G36*
G01X4954400Y2985651D02*
G01X4944400Y2975651D01*
G01X4843648Y2975651D01*
G01X4833648Y2985651D01*
G01X4833648Y3135749D01*
G01X4843648Y3145749D01*
G01X4944400Y3145749D01*
G01X4954400Y3135749D01*
G01X4954400Y3099618D01*
G01X4944400Y3089618D01*
G01X4923343Y3089618D01*
G01X4913343Y3079618D01*
G01X4913343Y3041782D01*
G01X4923343Y3031782D01*
G01X4944400Y3031782D01*
G01X4954400Y3021782D01*
G01X4954400Y2985651D01*
G37*
G36*
G01X5129400Y2673016D02*
G01X5129400Y2709148D01*
G01X5139400Y2719148D01*
G01X5160457Y2719148D01*
G01X5170457Y2729148D01*
G01X5170457Y2766984D01*
G01X5160457Y2776984D01*
G01X5139400Y2776984D01*
G01X5129400Y2786984D01*
G01X5129400Y2823115D01*
G01X5139400Y2833115D01*
G01X5240152Y2833115D01*
G01X5250152Y2823115D01*
G01X5250152Y2673016D01*
G01X5240152Y2663017D01*
G01X5139400Y2663017D01*
G01X5129400Y2673016D01*
G37*
G36*
G01X4954400Y2673016D02*
G01X4944400Y2663017D01*
G01X4843648Y2663017D01*
G01X4833648Y2673016D01*
G01X4833648Y2823115D01*
G01X4843648Y2833115D01*
G01X4944400Y2833115D01*
G01X4954400Y2823115D01*
G01X4954400Y2786984D01*
G01X4944400Y2776984D01*
G01X4923343Y2776984D01*
G01X4913343Y2766984D01*
G01X4913343Y2729148D01*
G01X4923343Y2719148D01*
G01X4944400Y2719148D01*
G01X4954400Y2709148D01*
G01X4954400Y2673016D01*
G37*
G36*
G01X5129400Y1109845D02*
G01X5129400Y1145977D01*
G01X5139400Y1155977D01*
G01X5160457Y1155977D01*
G01X5170457Y1165977D01*
G01X5170457Y1203812D01*
G01X5160457Y1213812D01*
G01X5139400Y1213812D01*
G01X5129400Y1223812D01*
G01X5129400Y1259944D01*
G01X5139400Y1269944D01*
G01X5240152Y1269944D01*
G01X5250152Y1259944D01*
G01X5250152Y1109845D01*
G01X5240152Y1099845D01*
G01X5139400Y1099845D01*
G01X5129400Y1109845D01*
G37*
G36*
G01X4954400Y1109845D02*
G01X4944400Y1099845D01*
G01X4843648Y1099845D01*
G01X4833648Y1109845D01*
G01X4833648Y1259944D01*
G01X4843648Y1269944D01*
G01X4944400Y1269944D01*
G01X4954400Y1259944D01*
G01X4954400Y1223812D01*
G01X4944400Y1213812D01*
G01X4923343Y1213812D01*
G01X4913343Y1203812D01*
G01X4913343Y1165977D01*
G01X4923343Y1155977D01*
G01X4944400Y1155977D01*
G01X4954400Y1145977D01*
G01X4954400Y1109845D01*
G37*
G36*
G01X5129400Y797211D02*
G01X5129400Y833343D01*
G01X5139400Y843342D01*
G01X5160457Y843342D01*
G01X5170457Y853342D01*
G01X5170457Y891178D01*
G01X5160457Y901178D01*
G01X5139400Y901178D01*
G01X5129400Y911178D01*
G01X5129400Y947310D01*
G01X5139400Y957310D01*
G01X5240152Y957310D01*
G01X5250152Y947310D01*
G01X5250152Y797211D01*
G01X5240152Y787211D01*
G01X5139400Y787211D01*
G01X5129400Y797211D01*
G37*
G36*
G01X4954400Y797211D02*
G01X4944400Y787211D01*
G01X4843648Y787211D01*
G01X4833648Y797211D01*
G01X4833648Y947310D01*
G01X4843648Y957310D01*
G01X4944400Y957310D01*
G01X4954400Y947310D01*
G01X4954400Y911178D01*
G01X4944400Y901178D01*
G01X4923343Y901178D01*
G01X4913343Y891178D01*
G01X4913343Y853342D01*
G01X4923343Y843342D01*
G01X4944400Y843342D01*
G01X4954400Y833343D01*
G01X4954400Y797211D01*
G37*

G04 Pad Start*
G54D10*
G01X660400Y1333500D03*
G01X660400Y1587500D03*
G01X660400Y1841500D03*
G01X660400Y2095500D03*
G01X660400Y2354064D03*
G01X660400Y2603500D03*
G54D11*
G01X3369894Y2501900D03*
G01X3369894Y2374900D03*
G01X3369894Y2247900D03*
G01X3369894Y2120900D03*
G01X3369894Y1993900D03*
G01X3369894Y1866900D03*
G01X3369894Y1739900D03*
G01X3369894Y1612900D03*
G01X2649906Y1612900D03*
G01X2649906Y1739900D03*
G01X2649906Y1866900D03*
G01X2649906Y1993900D03*
G01X2649906Y2120900D03*
G01X2649906Y2247900D03*
G01X2649906Y2374900D03*
G01X2649906Y2501900D03*
G01X2649906Y1485900D03*
G01X2649906Y1358900D03*
G01X3369894Y1358900D03*
G01X3369894Y1485900D03*
G04 Pad End*

M02*

