G04 Layer: InnerLayer2*
G04 EasyEDA Pro v3.2.148, 2026-08-25 14:37:52*
G04 Gerber Generator version 0.3*
G04 Scale: 100 percent, Rotated: No, Reflected: No*
G04 Dimensions in millimeters*
G04 Leading zeros omitted, absolute positions, 4 integers and 5 decimals*
G04 Generated by one-click*
G04 Object Configs: Pad,Via,Track,Text,Image,Dimension,BoardOutline,BoardCutout,CopperFilled,SolidRegion,FPCStiffener,Line,PlaneZone,ComponentProperty,ComponentSilkscreen,TearDrop*
G04 Layer Configs: 1,15,16,2,3,4,5,6,7,8,9,10,11,13,14,56*
G04 Copper Areas: 0*
%FSLAX45Y45*%
%MOMM*%
%ADD10C,3.99999*%
%ADD11C,1.5*%
%ADD12C,0.61*%
%ADD13C,0.8228*%
G75*


G04 PlaneZone Start*
G36*
G01X5132615Y3543046D02*
G01X7022846Y3543046D01*
G01X7022846Y406747D01*
G01X5131968Y413630D01*
G01X4343154Y1161615D01*
G03X4325502Y1168654I-17652J-18615D01*
G01X292454Y1168654D01*
G01X292456Y2717546D01*
G01X4327200Y2717546D01*
G03X4345684Y2725410I0J25654D01*
G01X5132615Y3543046D01*
G37*
%LPC*%
G36*
G01X850900Y1666851D02*
G03X773927Y1666123I-38100J-41251D01*
G03X770001Y1589247I38873J-40523D01*
G03X773927Y1512370I42799J-36353D01*
G03X850900Y1511642I38873J40523D01*
G03X927100Y1511642I38100J41251D01*
G03X1004073Y1512370I38100J41251D01*
G03X1007999Y1589247I-38873J40524D01*
G03X1004073Y1666123I-42799J36353D01*
G03X927100Y1666851I-38873J-40523D01*
G03X850900Y1666851I-38100J-41251D01*
G37*
G36*
G01X1308873Y1709335D02*
G03X1231900Y1710063I-38873J-40523D01*
G03X1154927Y1709335I-38100J-41251D01*
G03X1151002Y1632458I38873J-40523D01*
G03X1154927Y1555581I42799J-36353D01*
G03X1231900Y1554853I38873J40523D01*
G03X1308873Y1555581I38100J41251D01*
G03X1312798Y1632458I-38873J40523D01*
G03X1308873Y1709335I-42799J36353D01*
G37*
G36*
G01X2509246Y1358900D02*
G03X2621554Y1358900I56154J0D01*
G03X2509246Y1358900I-56154J0D01*
G37*
G36*
G01X2509246Y1866900D02*
G03X2621554Y1866900I56154J0D01*
G03X2509246Y1866900I-56154J0D01*
G37*
G36*
G01X2509246Y1739900D02*
G03X2621554Y1739900I56154J0D01*
G03X2509246Y1739900I-56154J0D01*
G37*
G36*
G01X2509246Y1612900D02*
G03X2621554Y1612900I56154J0D01*
G03X2509246Y1612900I-56154J0D01*
G37*
G36*
G01X2509246Y1485900D02*
G03X2621554Y1485900I56154J0D01*
G03X2509246Y1485900I-56154J0D01*
G37*
G36*
G01X2517882Y2503084D02*
G03X2630190Y2503084I56154J0D01*
G03X2517882Y2503084I-56154J0D01*
G37*
G36*
G01X3398246Y2374900D02*
G03X3510554Y2374900I56154J0D01*
G03X3398246Y2374900I-56154J0D01*
G37*
G36*
G01X4357446Y1930400D02*
G03X4608754Y1930400I125654J0D01*
G03X4357446Y1930400I-125654J0D01*
G37*
G36*
G01X5613400Y2108943D02*
G03X5613400Y2310251I0J100654D01*
G03X5613400Y2108943I0J-100654D01*
G37*
G36*
G01X5613400Y2337441D02*
G03X5613400Y2538749I0J100654D01*
G03X5613400Y2337441I0J-100654D01*
G37*
G36*
G01X5613400Y1880445D02*
G03X5613400Y2081752I0J100654D01*
G03X5613400Y1880445I0J-100654D01*
G37*
G36*
G01X5613400Y1423448D02*
G03X5613400Y1624755I0J100654D01*
G03X5613400Y1423448I0J-100654D01*
G37*
G36*
G01X5613400Y1651946D02*
G03X5613400Y1853254I0J100654D01*
G03X5613400Y1651946I0J-100654D01*
G37*
G36*
G01X5867400Y3031439D02*
G03X5867400Y3482746I0J225654D01*
G03X5867400Y3031439I0J-225654D01*
G37*
G36*
G01X5867400Y530454D02*
G03X5867400Y981761I0J225654D01*
G03X5867400Y530454I0J-225654D01*
G37*
G36*
G01X5867400Y2451741D02*
G03X5867400Y2653049I0J100654D01*
G03X5867400Y2451741I0J-100654D01*
G37*
G36*
G01X5867400Y2223243D02*
G03X5867400Y2424551I0J100654D01*
G03X5867400Y2223243I0J-100654D01*
G37*
G36*
G01X5867400Y1994745D02*
G03X5867400Y2196052I0J100654D01*
G03X5867400Y1994745I0J-100654D01*
G37*
G36*
G01X5867400Y1537748D02*
G03X5867400Y1739055I0J100654D01*
G03X5867400Y1537748I0J-100654D01*
G37*
G36*
G01X5867400Y1766246D02*
G03X5867400Y1967554I0J100654D01*
G03X5867400Y1766246I0J-100654D01*
G37*
G36*
G01X6121400Y2108943D02*
G03X6121400Y2310251I0J100654D01*
G03X6121400Y2108943I0J-100654D01*
G37*
G36*
G01X6121400Y2337441D02*
G03X6121400Y2538749I0J100654D01*
G03X6121400Y2337441I0J-100654D01*
G37*
G36*
G01X6121400Y1880445D02*
G03X6121400Y2081752I0J100654D01*
G03X6121400Y1880445I0J-100654D01*
G37*
G36*
G01X6121400Y1423448D02*
G03X6121400Y1624755I0J100654D01*
G03X6121400Y1423448I0J-100654D01*
G37*
G36*
G01X6121400Y1651946D02*
G03X6121400Y1853254I0J100654D01*
G03X6121400Y1651946I0J-100654D01*
G37*
%LPD*%
G04 PlaneZone End*

G04 Pad Start*
G54D10*
G01X5867400Y756107D03*
G01X5867400Y3257093D03*
G54D11*
G01X6121400Y1524102D03*
G01X6121400Y1752600D03*
G01X6121400Y1981098D03*
G01X6121400Y2209597D03*
G01X6121400Y2438095D03*
G01X5867400Y1638402D03*
G01X5867400Y1866900D03*
G01X5867400Y2095398D03*
G01X5867400Y2323897D03*
G01X5867400Y2552395D03*
G01X5613400Y1524102D03*
G01X5613400Y1752600D03*
G01X5613400Y1981098D03*
G01X5613400Y2209597D03*
G01X5613400Y2438095D03*
G04 Pad End*

G04 Via Start*
G54D12*
G01X812800Y1625600D03*
G01X2565400Y1358900D03*
G01X2574036Y2503084D03*
G01X3454400Y2501900D03*
G01X3454400Y2374900D03*
G01X2565400Y1866900D03*
G01X2565400Y1739900D03*
G01X2565400Y1612900D03*
G01X2565400Y1485900D03*
G01X812800Y1552894D03*
G01X889000Y1625600D03*
G01X889000Y1552894D03*
G01X965200Y1625600D03*
G01X965200Y1552894D03*
G01X812800Y1369853D03*
G01X812800Y1297147D03*
G01X889000Y1297147D03*
G01X889000Y1369853D03*
G01X965200Y1369853D03*
G01X965200Y1297147D03*
G01X1193800Y1350295D03*
G01X1270000Y1350295D03*
G01X1193800Y1277589D03*
G01X1270000Y1277589D03*
G01X1193800Y1668811D03*
G01X1270000Y1668811D03*
G01X1270000Y1596105D03*
G01X1193800Y1596105D03*
G04 Via End*

M02*

