G04 Layer: TopSilkscreenLayer*
G04 EasyEDA Pro v3.2.148, 2026-08-04 21:20:46*
G04 Gerber Generator version 0.3*
G04 Scale: 100 percent, Rotated: No, Reflected: No*
G04 Dimensions in millimeters*
G04 Leading zeros omitted, absolute positions, 4 integers and 5 decimals*
G04 Generated by one-click*
G04 Object Configs: Pad,Via,Track,Text,Image,Dimension,BoardOutline,BoardCutout,CopperFilled,SolidRegion,FPCStiffener,Line,PlaneZone,ComponentProperty,ComponentSilkscreen,TearDrop*
G04 Layer Configs: 1,15,16,2,3,4,5,6,7,8,9,10,11,13,14,56*
G04 Copper Areas: 0*
%FSLAX45Y45*%
%MOMM*%
%ADD10C,0.203*%
%ADD11C,0.1524*%
%ADD12C,0.152*%
%ADD13C,0.254*%
%ADD14C,0.5035*%
G75*


G04 Text Start*
G54D10*
G01X1203960Y6875780D02*
G01X1203960Y6742430D01*
G01X1212850Y6715760D01*
G01X1230630Y6697980D01*
G01X1257300Y6689090D01*
G01X1275080Y6689090D01*
G01X1301750Y6697980D01*
G01X1319530Y6715760D01*
G01X1328420Y6742430D01*
G01X1328420Y6875780D01*
G01X1515872Y6849110D02*
G01X1498092Y6866890D01*
G01X1471422Y6875780D01*
G01X1435862Y6875780D01*
G01X1409192Y6866890D01*
G01X1391412Y6849110D01*
G01X1391412Y6831330D01*
G01X1400302Y6813550D01*
G01X1409192Y6804660D01*
G01X1426972Y6795770D01*
G01X1480312Y6777990D01*
G01X1498092Y6769100D01*
G01X1506982Y6760210D01*
G01X1515872Y6742430D01*
G01X1515872Y6715760D01*
G01X1498092Y6697980D01*
G01X1471422Y6689090D01*
G01X1435862Y6689090D01*
G01X1409192Y6697980D01*
G01X1391412Y6715760D01*
G01X1578864Y6875780D02*
G01X1578864Y6689090D01*
G01X1578864Y6875780D02*
G01X1658874Y6875780D01*
G01X1685544Y6866890D01*
G01X1694434Y6858000D01*
G01X1703324Y6840220D01*
G01X1703324Y6822440D01*
G01X1694434Y6804660D01*
G01X1685544Y6795770D01*
G01X1658874Y6786880D01*
G01X1578864Y6786880D02*
G01X1658874Y6786880D01*
G01X1685544Y6777990D01*
G01X1694434Y6769100D01*
G01X1703324Y6751320D01*
G01X1703324Y6724650D01*
G01X1694434Y6706870D01*
G01X1685544Y6697980D01*
G01X1658874Y6689090D01*
G01X1578864Y6689090D01*
G01X1766316Y6769100D02*
G01X1926336Y6769100D01*
G01X2122678Y6831330D02*
G01X2113788Y6849110D01*
G01X2096008Y6866890D01*
G01X2078228Y6875780D01*
G01X2042668Y6875780D01*
G01X2024888Y6866890D01*
G01X2007108Y6849110D01*
G01X1998218Y6831330D01*
G01X1989328Y6804660D01*
G01X1989328Y6760210D01*
G01X1998218Y6733540D01*
G01X2007108Y6715760D01*
G01X2024888Y6697980D01*
G01X2042668Y6689090D01*
G01X2078228Y6689090D01*
G01X2096008Y6697980D01*
G01X2113788Y6715760D01*
G01X2122678Y6733540D01*
G01X4406900Y6172398D02*
G01X4366260Y6115502D01*
G01X4426966Y6115502D01*
G01X4406900Y6172398D02*
G01X4406900Y6087308D01*
G01X4490974Y6172398D02*
G01X4478782Y6168334D01*
G01X4470654Y6156142D01*
G01X4466844Y6135822D01*
G01X4466844Y6123630D01*
G01X4470654Y6103310D01*
G01X4478782Y6091372D01*
G01X4490974Y6087308D01*
G01X4499102Y6087308D01*
G01X4511294Y6091372D01*
G01X4519422Y6103310D01*
G01X4523486Y6123630D01*
G01X4523486Y6135822D01*
G01X4519422Y6156142D01*
G01X4511294Y6168334D01*
G01X4499102Y6172398D01*
G01X4490974Y6172398D01*
G01X4116456Y6172398D02*
G01X4075816Y6115502D01*
G01X4136522Y6115502D01*
G01X4116456Y6172398D02*
G01X4116456Y6087308D01*
G01X4180210Y6152078D02*
G01X4180210Y6156142D01*
G01X4184274Y6164270D01*
G01X4188338Y6168334D01*
G01X4196466Y6172398D01*
G01X4212722Y6172398D01*
G01X4220850Y6168334D01*
G01X4224914Y6164270D01*
G01X4228978Y6156142D01*
G01X4228978Y6148014D01*
G01X4224914Y6139886D01*
G01X4216786Y6127694D01*
G01X4176400Y6087308D01*
G01X4233042Y6087308D01*
G01X4075943Y6410142D02*
G01X4084071Y6414206D01*
G01X4096263Y6426398D01*
G01X4096263Y6341308D01*
G01X4136141Y6410142D02*
G01X4144015Y6414206D01*
G01X4156207Y6426398D01*
G01X4156207Y6341308D01*
G01X4376171Y6426398D02*
G01X4420621Y6426398D01*
G01X4396491Y6393886D01*
G01X4408683Y6393886D01*
G01X4416557Y6389822D01*
G01X4420621Y6385758D01*
G01X4424685Y6373566D01*
G01X4424685Y6365438D01*
G01X4420621Y6353500D01*
G01X4412493Y6345372D01*
G01X4400555Y6341308D01*
G01X4388363Y6341308D01*
G01X4376171Y6345372D01*
G01X4372107Y6349436D01*
G01X4368043Y6357310D01*
G01X4517141Y6397950D02*
G01X4513077Y6385758D01*
G01X4504949Y6377630D01*
G01X4492757Y6373566D01*
G01X4488693Y6373566D01*
G01X4476501Y6377630D01*
G01X4468373Y6385758D01*
G01X4464563Y6397950D01*
G01X4464563Y6402014D01*
G01X4468373Y6414206D01*
G01X4476501Y6422334D01*
G01X4488693Y6426398D01*
G01X4492757Y6426398D01*
G01X4504949Y6422334D01*
G01X4513077Y6414206D01*
G01X4517141Y6397950D01*
G01X4517141Y6377630D01*
G01X4513077Y6357310D01*
G01X4504949Y6345372D01*
G01X4492757Y6341308D01*
G01X4484629Y6341308D01*
G01X4472437Y6345372D01*
G01X4468373Y6353500D01*
G01X4073911Y6664142D02*
G01X4082039Y6668206D01*
G01X4094231Y6680398D01*
G01X4094231Y6595308D01*
G01X4158239Y6680398D02*
G01X4146047Y6676334D01*
G01X4137919Y6664142D01*
G01X4134109Y6643822D01*
G01X4134109Y6631630D01*
G01X4137919Y6611310D01*
G01X4146047Y6599372D01*
G01X4158239Y6595308D01*
G01X4166367Y6595308D01*
G01X4178559Y6599372D01*
G01X4186687Y6611310D01*
G01X4190751Y6631630D01*
G01X4190751Y6643822D01*
G01X4186687Y6664142D01*
G01X4178559Y6676334D01*
G01X4166367Y6680398D01*
G01X4158239Y6680398D01*
G01X4374139Y6680398D02*
G01X4418589Y6680398D01*
G01X4394459Y6647886D01*
G01X4406651Y6647886D01*
G01X4414525Y6643822D01*
G01X4418589Y6639758D01*
G01X4422653Y6627566D01*
G01X4422653Y6619438D01*
G01X4418589Y6607500D01*
G01X4410461Y6599372D01*
G01X4398523Y6595308D01*
G01X4386331Y6595308D01*
G01X4374139Y6599372D01*
G01X4370075Y6603436D01*
G01X4366011Y6611310D01*
G01X4482597Y6680398D02*
G01X4470405Y6676334D01*
G01X4466341Y6668206D01*
G01X4466341Y6660078D01*
G01X4470405Y6651950D01*
G01X4478533Y6647886D01*
G01X4494789Y6643822D01*
G01X4506981Y6639758D01*
G01X4515109Y6631630D01*
G01X4519173Y6623502D01*
G01X4519173Y6611310D01*
G01X4515109Y6603436D01*
G01X4511045Y6599372D01*
G01X4498853Y6595308D01*
G01X4482597Y6595308D01*
G01X4470405Y6599372D01*
G01X4466341Y6603436D01*
G01X4462531Y6611310D01*
G01X4462531Y6623502D01*
G01X4466341Y6631630D01*
G01X4474469Y6639758D01*
G01X4486661Y6643822D01*
G01X4502917Y6647886D01*
G01X4511045Y6651950D01*
G01X4515109Y6660078D01*
G01X4515109Y6668206D01*
G01X4511045Y6676334D01*
G01X4498853Y6680398D01*
G01X4482597Y6680398D01*
G01X4126489Y6918650D02*
G01X4122425Y6906458D01*
G01X4114551Y6898330D01*
G01X4102359Y6894266D01*
G01X4098295Y6894266D01*
G01X4086103Y6898330D01*
G01X4077975Y6906458D01*
G01X4073911Y6918650D01*
G01X4073911Y6922714D01*
G01X4077975Y6934906D01*
G01X4086103Y6943034D01*
G01X4098295Y6947098D01*
G01X4102359Y6947098D01*
G01X4114551Y6943034D01*
G01X4122425Y6934906D01*
G01X4126489Y6918650D01*
G01X4126489Y6898330D01*
G01X4122425Y6878010D01*
G01X4114551Y6866072D01*
G01X4102359Y6862008D01*
G01X4094231Y6862008D01*
G01X4082039Y6866072D01*
G01X4077975Y6874200D01*
G01X4406651Y6947098D02*
G01X4366011Y6890202D01*
G01X4426717Y6890202D01*
G01X4406651Y6947098D02*
G01X4406651Y6862008D01*
G01X4466595Y6930842D02*
G01X4474469Y6934906D01*
G01X4486661Y6947098D01*
G01X4486661Y6862008D01*
G01X4067561Y4644842D02*
G01X4075689Y4648906D01*
G01X4087881Y4661098D01*
G01X4087881Y4576008D01*
G01X4184401Y4661098D02*
G01X4143761Y4576008D01*
G01X4127759Y4661098D02*
G01X4184401Y4661098D01*
G01X4363725Y4640778D02*
G01X4363725Y4644842D01*
G01X4367789Y4652970D01*
G01X4371853Y4657034D01*
G01X4379981Y4661098D01*
G01X4396237Y4661098D01*
G01X4404111Y4657034D01*
G01X4408175Y4652970D01*
G01X4412239Y4644842D01*
G01X4412239Y4636714D01*
G01X4408175Y4628586D01*
G01X4400301Y4616394D01*
G01X4359661Y4576008D01*
G01X4416303Y4576008D01*
G01X4496567Y4661098D02*
G01X4456181Y4604202D01*
G01X4516887Y4604202D01*
G01X4496567Y4661098D02*
G01X4496567Y4576008D01*
G01X4363725Y4374078D02*
G01X4363725Y4378142D01*
G01X4367789Y4386270D01*
G01X4371853Y4390334D01*
G01X4379981Y4394398D01*
G01X4396237Y4394398D01*
G01X4404111Y4390334D01*
G01X4408175Y4386270D01*
G01X4412239Y4378142D01*
G01X4412239Y4370014D01*
G01X4408175Y4361886D01*
G01X4400301Y4349694D01*
G01X4359661Y4309308D01*
G01X4416303Y4309308D01*
G01X4464055Y4394398D02*
G01X4508759Y4394398D01*
G01X4484375Y4361886D01*
G01X4496567Y4361886D01*
G01X4504695Y4357822D01*
G01X4508759Y4353758D01*
G01X4512823Y4341566D01*
G01X4512823Y4333438D01*
G01X4508759Y4321500D01*
G01X4500631Y4313372D01*
G01X4488439Y4309308D01*
G01X4476247Y4309308D01*
G01X4464055Y4313372D01*
G01X4459991Y4317436D01*
G01X4456181Y4325310D01*
G01X4067561Y4378142D02*
G01X4075689Y4382206D01*
G01X4087881Y4394398D01*
G01X4087881Y4309308D01*
G01X4176273Y4382206D02*
G01X4172209Y4390334D01*
G01X4160017Y4394398D01*
G01X4151889Y4394398D01*
G01X4139697Y4390334D01*
G01X4131569Y4378142D01*
G01X4127759Y4357822D01*
G01X4127759Y4337502D01*
G01X4131569Y4321500D01*
G01X4139697Y4313372D01*
G01X4151889Y4309308D01*
G01X4155953Y4309308D01*
G01X4168145Y4313372D01*
G01X4176273Y4321500D01*
G01X4180337Y4333438D01*
G01X4180337Y4337502D01*
G01X4176273Y4349694D01*
G01X4168145Y4357822D01*
G01X4155953Y4361886D01*
G01X4151889Y4361886D01*
G01X4139697Y4357822D01*
G01X4131569Y4349694D01*
G01X4127759Y4337502D01*
G01X4069593Y4124142D02*
G01X4077721Y4128206D01*
G01X4089913Y4140398D01*
G01X4089913Y4055308D01*
G01X4178305Y4140398D02*
G01X4137665Y4140398D01*
G01X4133601Y4103822D01*
G01X4137665Y4107886D01*
G01X4149857Y4111950D01*
G01X4162049Y4111950D01*
G01X4174241Y4107886D01*
G01X4182369Y4099758D01*
G01X4186433Y4087566D01*
G01X4186433Y4079438D01*
G01X4182369Y4067500D01*
G01X4174241Y4059372D01*
G01X4162049Y4055308D01*
G01X4149857Y4055308D01*
G01X4137665Y4059372D01*
G01X4133601Y4063436D01*
G01X4129791Y4071310D01*
G01X4365757Y4120078D02*
G01X4365757Y4124142D01*
G01X4369821Y4132270D01*
G01X4373885Y4136334D01*
G01X4382013Y4140398D01*
G01X4398269Y4140398D01*
G01X4406143Y4136334D01*
G01X4410207Y4132270D01*
G01X4414271Y4124142D01*
G01X4414271Y4116014D01*
G01X4410207Y4107886D01*
G01X4402333Y4095694D01*
G01X4361693Y4055308D01*
G01X4418335Y4055308D01*
G01X4462023Y4120078D02*
G01X4462023Y4124142D01*
G01X4466087Y4132270D01*
G01X4470151Y4136334D01*
G01X4478279Y4140398D01*
G01X4494535Y4140398D01*
G01X4502663Y4136334D01*
G01X4506727Y4132270D01*
G01X4510791Y4124142D01*
G01X4510791Y4116014D01*
G01X4506727Y4107886D01*
G01X4498599Y4095694D01*
G01X4458213Y4055308D01*
G01X4514855Y4055308D01*
G01X4359910Y3870142D02*
G01X4368038Y3874206D01*
G01X4380230Y3886398D01*
G01X4380230Y3801308D01*
G01X4440174Y3886398D02*
G01X4427982Y3882334D01*
G01X4423918Y3874206D01*
G01X4423918Y3866078D01*
G01X4427982Y3857950D01*
G01X4436110Y3853886D01*
G01X4452366Y3849822D01*
G01X4464558Y3845758D01*
G01X4472686Y3837630D01*
G01X4476750Y3829502D01*
G01X4476750Y3817310D01*
G01X4472686Y3809436D01*
G01X4468622Y3805372D01*
G01X4456430Y3801308D01*
G01X4440174Y3801308D01*
G01X4427982Y3805372D01*
G01X4423918Y3809436D01*
G01X4420108Y3817310D01*
G01X4420108Y3829502D01*
G01X4423918Y3837630D01*
G01X4432046Y3845758D01*
G01X4444238Y3849822D01*
G01X4460494Y3853886D01*
G01X4468622Y3857950D01*
G01X4472686Y3866078D01*
G01X4472686Y3874206D01*
G01X4468622Y3882334D01*
G01X4456430Y3886398D01*
G01X4440174Y3886398D01*
G01X4073530Y3866078D02*
G01X4073530Y3870142D01*
G01X4077594Y3878270D01*
G01X4081658Y3882334D01*
G01X4089786Y3886398D01*
G01X4106042Y3886398D01*
G01X4113916Y3882334D01*
G01X4117980Y3878270D01*
G01X4122044Y3870142D01*
G01X4122044Y3862014D01*
G01X4117980Y3853886D01*
G01X4110106Y3841694D01*
G01X4069466Y3801308D01*
G01X4126108Y3801308D01*
G01X4222628Y3886398D02*
G01X4181988Y3801308D01*
G01X4165986Y3886398D02*
G01X4222628Y3886398D01*
G01X4056766Y1584142D02*
G01X4064894Y1588206D01*
G01X4077086Y1600398D01*
G01X4077086Y1515308D01*
G01X4169542Y1571950D02*
G01X4165478Y1559758D01*
G01X4157350Y1551630D01*
G01X4145158Y1547566D01*
G01X4141094Y1547566D01*
G01X4128902Y1551630D01*
G01X4120774Y1559758D01*
G01X4116964Y1571950D01*
G01X4116964Y1576014D01*
G01X4120774Y1588206D01*
G01X4128902Y1596334D01*
G01X4141094Y1600398D01*
G01X4145158Y1600398D01*
G01X4157350Y1596334D01*
G01X4165478Y1588206D01*
G01X4169542Y1571950D01*
G01X4169542Y1551630D01*
G01X4165478Y1531310D01*
G01X4157350Y1519372D01*
G01X4145158Y1515308D01*
G01X4137030Y1515308D01*
G01X4124838Y1519372D01*
G01X4120774Y1527500D01*
G01X4351025Y2354778D02*
G01X4351025Y2358842D01*
G01X4355089Y2366970D01*
G01X4359153Y2371034D01*
G01X4367281Y2375098D01*
G01X4383537Y2375098D01*
G01X4391411Y2371034D01*
G01X4395475Y2366970D01*
G01X4399539Y2358842D01*
G01X4399539Y2350714D01*
G01X4395475Y2342586D01*
G01X4387601Y2330394D01*
G01X4346961Y2290008D01*
G01X4403603Y2290008D01*
G01X4496059Y2346650D02*
G01X4491995Y2334458D01*
G01X4483867Y2326330D01*
G01X4471675Y2322266D01*
G01X4467611Y2322266D01*
G01X4455419Y2326330D01*
G01X4447291Y2334458D01*
G01X4443481Y2346650D01*
G01X4443481Y2350714D01*
G01X4447291Y2362906D01*
G01X4455419Y2371034D01*
G01X4467611Y2375098D01*
G01X4471675Y2375098D01*
G01X4483867Y2371034D01*
G01X4491995Y2362906D01*
G01X4496059Y2346650D01*
G01X4496059Y2326330D01*
G01X4491995Y2306010D01*
G01X4483867Y2294072D01*
G01X4471675Y2290008D01*
G01X4463547Y2290008D01*
G01X4451355Y2294072D01*
G01X4447291Y2302200D01*
G01X4355089Y2108398D02*
G01X4399539Y2108398D01*
G01X4375409Y2075886D01*
G01X4387601Y2075886D01*
G01X4395475Y2071822D01*
G01X4399539Y2067758D01*
G01X4403603Y2055566D01*
G01X4403603Y2047438D01*
G01X4399539Y2035500D01*
G01X4391411Y2027372D01*
G01X4379473Y2023308D01*
G01X4367281Y2023308D01*
G01X4355089Y2027372D01*
G01X4351025Y2031436D01*
G01X4346961Y2039310D01*
G01X4467611Y2108398D02*
G01X4455419Y2104334D01*
G01X4447291Y2092142D01*
G01X4443481Y2071822D01*
G01X4443481Y2059630D01*
G01X4447291Y2039310D01*
G01X4455419Y2027372D01*
G01X4467611Y2023308D01*
G01X4475739Y2023308D01*
G01X4487931Y2027372D01*
G01X4496059Y2039310D01*
G01X4500123Y2059630D01*
G01X4500123Y2071822D01*
G01X4496059Y2092142D01*
G01X4487931Y2104334D01*
G01X4475739Y2108398D01*
G01X4467611Y2108398D01*
G01X4357121Y1854398D02*
G01X4401571Y1854398D01*
G01X4377441Y1821886D01*
G01X4389633Y1821886D01*
G01X4397507Y1817822D01*
G01X4401571Y1813758D01*
G01X4405635Y1801566D01*
G01X4405635Y1793438D01*
G01X4401571Y1781500D01*
G01X4393443Y1773372D01*
G01X4381505Y1769308D01*
G01X4369313Y1769308D01*
G01X4357121Y1773372D01*
G01X4353057Y1777436D01*
G01X4348993Y1785310D01*
G01X4445513Y1838142D02*
G01X4453387Y1842206D01*
G01X4465579Y1854398D01*
G01X4465579Y1769308D01*
G01X4351274Y1580078D02*
G01X4351274Y1584142D01*
G01X4355338Y1592270D01*
G01X4359402Y1596334D01*
G01X4367530Y1600398D01*
G01X4383786Y1600398D01*
G01X4391660Y1596334D01*
G01X4395724Y1592270D01*
G01X4399788Y1584142D01*
G01X4399788Y1576014D01*
G01X4395724Y1567886D01*
G01X4387850Y1555694D01*
G01X4347210Y1515308D01*
G01X4403852Y1515308D01*
G01X4463796Y1600398D02*
G01X4451604Y1596334D01*
G01X4447540Y1588206D01*
G01X4447540Y1580078D01*
G01X4451604Y1571950D01*
G01X4459732Y1567886D01*
G01X4475988Y1563822D01*
G01X4488180Y1559758D01*
G01X4496308Y1551630D01*
G01X4500372Y1543502D01*
G01X4500372Y1531310D01*
G01X4496308Y1523436D01*
G01X4492244Y1519372D01*
G01X4480052Y1515308D01*
G01X4463796Y1515308D01*
G01X4451604Y1519372D01*
G01X4447540Y1523436D01*
G01X4443730Y1531310D01*
G01X4443730Y1543502D01*
G01X4447540Y1551630D01*
G01X4455668Y1559758D01*
G01X4467860Y1563822D01*
G01X4484116Y1567886D01*
G01X4492244Y1571950D01*
G01X4496308Y1580078D01*
G01X4496308Y1588206D01*
G01X4492244Y1596334D01*
G01X4480052Y1600398D01*
G01X4463796Y1600398D01*
G01X4062989Y2375098D02*
G01X4107439Y2375098D01*
G01X4083309Y2342586D01*
G01X4095501Y2342586D01*
G01X4103375Y2338522D01*
G01X4107439Y2334458D01*
G01X4111503Y2322266D01*
G01X4111503Y2314138D01*
G01X4107439Y2302200D01*
G01X4099311Y2294072D01*
G01X4087373Y2290008D01*
G01X4075181Y2290008D01*
G01X4062989Y2294072D01*
G01X4058925Y2298136D01*
G01X4054861Y2306010D01*
G01X4199895Y2375098D02*
G01X4159255Y2375098D01*
G01X4155191Y2338522D01*
G01X4159255Y2342586D01*
G01X4171447Y2346650D01*
G01X4183639Y2346650D01*
G01X4195831Y2342586D01*
G01X4203959Y2334458D01*
G01X4208023Y2322266D01*
G01X4208023Y2314138D01*
G01X4203959Y2302200D01*
G01X4195831Y2294072D01*
G01X4183639Y2290008D01*
G01X4171447Y2290008D01*
G01X4159255Y2294072D01*
G01X4155191Y2298136D01*
G01X4151381Y2306010D01*
G01X4062989Y2108398D02*
G01X4107439Y2108398D01*
G01X4083309Y2075886D01*
G01X4095501Y2075886D01*
G01X4103375Y2071822D01*
G01X4107439Y2067758D01*
G01X4111503Y2055566D01*
G01X4111503Y2047438D01*
G01X4107439Y2035500D01*
G01X4099311Y2027372D01*
G01X4087373Y2023308D01*
G01X4075181Y2023308D01*
G01X4062989Y2027372D01*
G01X4058925Y2031436D01*
G01X4054861Y2039310D01*
G01X4191767Y2108398D02*
G01X4151381Y2051502D01*
G01X4212087Y2051502D01*
G01X4191767Y2108398D02*
G01X4191767Y2023308D01*
G01X4060957Y1834078D02*
G01X4060957Y1838142D01*
G01X4065021Y1846270D01*
G01X4069085Y1850334D01*
G01X4077213Y1854398D01*
G01X4093469Y1854398D01*
G01X4101343Y1850334D01*
G01X4105407Y1846270D01*
G01X4109471Y1838142D01*
G01X4109471Y1830014D01*
G01X4105407Y1821886D01*
G01X4097533Y1809694D01*
G01X4056893Y1769308D01*
G01X4113535Y1769308D01*
G01X4177543Y1854398D02*
G01X4165351Y1850334D01*
G01X4157223Y1838142D01*
G01X4153413Y1817822D01*
G01X4153413Y1805630D01*
G01X4157223Y1785310D01*
G01X4165351Y1773372D01*
G01X4177543Y1769308D01*
G01X4185671Y1769308D01*
G01X4197863Y1773372D01*
G01X4205991Y1785310D01*
G01X4210055Y1805630D01*
G01X4210055Y1817822D01*
G01X4205991Y1838142D01*
G01X4197863Y1850334D01*
G01X4185671Y1854398D01*
G01X4177543Y1854398D01*
G01X1393952Y1172274D02*
G01X1393952Y1021652D01*
G01X1343660Y1172274D02*
G01X1444244Y1172274D01*
G01X1585214Y1121982D02*
G01X1585214Y1021652D01*
G01X1585214Y1100646D02*
G01X1570736Y1114870D01*
G01X1556512Y1121982D01*
G01X1534922Y1121982D01*
G01X1520444Y1114870D01*
G01X1506220Y1100646D01*
G01X1499108Y1079056D01*
G01X1499108Y1064578D01*
G01X1506220Y1043242D01*
G01X1520444Y1028764D01*
G01X1534922Y1021652D01*
G01X1556512Y1021652D01*
G01X1570736Y1028764D01*
G01X1585214Y1043242D01*
G01X1640078Y1121982D02*
G01X1640078Y1021652D01*
G01X1640078Y1093280D02*
G01X1661414Y1114870D01*
G01X1675892Y1121982D01*
G01X1697482Y1121982D01*
G01X1711706Y1114870D01*
G01X1718818Y1093280D01*
G01X1718818Y1021652D01*
G01X1859788Y1121982D02*
G01X1859788Y1007174D01*
G01X1852422Y985584D01*
G01X1845310Y978472D01*
G01X1831086Y971360D01*
G01X1809496Y971360D01*
G01X1795018Y978472D01*
G01X1859788Y1100646D02*
G01X1845310Y1114870D01*
G01X1831086Y1121982D01*
G01X1809496Y1121982D01*
G01X1795018Y1114870D01*
G01X1780794Y1100646D01*
G01X1773682Y1079056D01*
G01X1773682Y1064578D01*
G01X1780794Y1043242D01*
G01X1795018Y1028764D01*
G01X1809496Y1021652D01*
G01X1831086Y1021652D01*
G01X1845310Y1028764D01*
G01X1859788Y1043242D01*
G01X2075434Y1172274D02*
G01X2075434Y1021652D01*
G01X2075434Y1172274D02*
G01X2175764Y1021652D01*
G01X2175764Y1172274D02*
G01X2175764Y1021652D01*
G01X2316734Y1121982D02*
G01X2316734Y1021652D01*
G01X2316734Y1100646D02*
G01X2302256Y1114870D01*
G01X2288032Y1121982D01*
G01X2266442Y1121982D01*
G01X2251964Y1114870D01*
G01X2237740Y1100646D01*
G01X2230628Y1079056D01*
G01X2230628Y1064578D01*
G01X2237740Y1043242D01*
G01X2251964Y1028764D01*
G01X2266442Y1021652D01*
G01X2288032Y1021652D01*
G01X2302256Y1028764D01*
G01X2316734Y1043242D01*
G01X2371598Y1121982D02*
G01X2371598Y1021652D01*
G01X2371598Y1093280D02*
G01X2392934Y1114870D01*
G01X2407412Y1121982D01*
G01X2429002Y1121982D01*
G01X2443226Y1114870D01*
G01X2450338Y1093280D01*
G01X2450338Y1021652D01*
G01X2541016Y1121982D02*
G01X2526538Y1114870D01*
G01X2512314Y1100646D01*
G01X2505202Y1079056D01*
G01X2505202Y1064578D01*
G01X2512314Y1043242D01*
G01X2526538Y1028764D01*
G01X2541016Y1021652D01*
G01X2562606Y1021652D01*
G01X2576830Y1028764D01*
G01X2591308Y1043242D01*
G01X2598420Y1064578D01*
G01X2598420Y1079056D01*
G01X2591308Y1100646D01*
G01X2576830Y1114870D01*
G01X2562606Y1121982D01*
G01X2541016Y1121982D01*
G01X2653284Y1143572D02*
G01X2667508Y1150684D01*
G01X2689098Y1172274D01*
G01X2689098Y1021652D01*
G01X2743962Y1172274D02*
G01X2743962Y1021652D01*
G01X2844292Y1172274D02*
G01X2743962Y1071944D01*
G01X2779776Y1107758D02*
G01X2844292Y1021652D01*
G01X3167634Y1136460D02*
G01X3160268Y1150684D01*
G01X3146044Y1165162D01*
G01X3131566Y1172274D01*
G01X3102864Y1172274D01*
G01X3088640Y1165162D01*
G01X3074162Y1150684D01*
G01X3067050Y1136460D01*
G01X3059938Y1114870D01*
G01X3059938Y1079056D01*
G01X3067050Y1057466D01*
G01X3074162Y1043242D01*
G01X3088640Y1028764D01*
G01X3102864Y1021652D01*
G01X3131566Y1021652D01*
G01X3146044Y1028764D01*
G01X3160268Y1043242D01*
G01X3167634Y1057466D01*
G01X3308604Y1121982D02*
G01X3308604Y1021652D01*
G01X3308604Y1100646D02*
G01X3294126Y1114870D01*
G01X3279902Y1121982D01*
G01X3258312Y1121982D01*
G01X3243834Y1114870D01*
G01X3229610Y1100646D01*
G01X3222498Y1079056D01*
G01X3222498Y1064578D01*
G01X3229610Y1043242D01*
G01X3243834Y1028764D01*
G01X3258312Y1021652D01*
G01X3279902Y1021652D01*
G01X3294126Y1028764D01*
G01X3308604Y1043242D01*
G01X3363468Y1121982D02*
G01X3363468Y1021652D01*
G01X3363468Y1079056D02*
G01X3370580Y1100646D01*
G01X3384804Y1114870D01*
G01X3399282Y1121982D01*
G01X3420872Y1121982D01*
G01X3475736Y1121982D02*
G01X3475736Y1021652D01*
G01X3475736Y1079056D02*
G01X3482848Y1100646D01*
G01X3497072Y1114870D01*
G01X3511550Y1121982D01*
G01X3533140Y1121982D01*
G01X3588004Y1172274D02*
G01X3595116Y1165162D01*
G01X3602228Y1172274D01*
G01X3595116Y1179640D01*
G01X3588004Y1172274D01*
G01X3595116Y1121982D02*
G01X3595116Y1021652D01*
G01X3657092Y1079056D02*
G01X3743198Y1079056D01*
G01X3743198Y1093280D01*
G01X3735832Y1107758D01*
G01X3728720Y1114870D01*
G01X3714496Y1121982D01*
G01X3692906Y1121982D01*
G01X3678428Y1114870D01*
G01X3664204Y1100646D01*
G01X3657092Y1079056D01*
G01X3657092Y1064578D01*
G01X3664204Y1043242D01*
G01X3678428Y1028764D01*
G01X3692906Y1021652D01*
G01X3714496Y1021652D01*
G01X3728720Y1028764D01*
G01X3743198Y1043242D01*
G01X3798062Y1121982D02*
G01X3798062Y1021652D01*
G01X3798062Y1079056D02*
G01X3805174Y1100646D01*
G01X3819398Y1114870D01*
G01X3833876Y1121982D01*
G01X3855466Y1121982D01*
G01X1343660Y922338D02*
G01X1343660Y771716D01*
G01X1343660Y922338D02*
G01X1408176Y922338D01*
G01X1429766Y915226D01*
G01X1436878Y907860D01*
G01X1444244Y893636D01*
G01X1444244Y879158D01*
G01X1436878Y864934D01*
G01X1429766Y857822D01*
G01X1408176Y850456D01*
G01X1343660Y850456D01*
G01X1393952Y850456D02*
G01X1444244Y771716D01*
G01X1499108Y829120D02*
G01X1585214Y829120D01*
G01X1585214Y843344D01*
G01X1577848Y857822D01*
G01X1570736Y864934D01*
G01X1556512Y872046D01*
G01X1534922Y872046D01*
G01X1520444Y864934D01*
G01X1506220Y850456D01*
G01X1499108Y829120D01*
G01X1499108Y814642D01*
G01X1506220Y793052D01*
G01X1520444Y778828D01*
G01X1534922Y771716D01*
G01X1556512Y771716D01*
G01X1570736Y778828D01*
G01X1585214Y793052D01*
G01X1640078Y872046D02*
G01X1683004Y771716D01*
G01X1726184Y872046D02*
G01X1683004Y771716D01*
G01X1984756Y922338D02*
G01X1963166Y915226D01*
G01X1948942Y893636D01*
G01X1941830Y857822D01*
G01X1941830Y836232D01*
G01X1948942Y800418D01*
G01X1963166Y778828D01*
G01X1984756Y771716D01*
G01X1999234Y771716D01*
G01X2020570Y778828D01*
G01X2035048Y800418D01*
G01X2042160Y836232D01*
G01X2042160Y857822D01*
G01X2035048Y893636D01*
G01X2020570Y915226D01*
G01X1999234Y922338D01*
G01X1984756Y922338D01*
G01X2139950Y922338D02*
G01X2118360Y915226D01*
G01X2104136Y893636D01*
G01X2097024Y857822D01*
G01X2097024Y836232D01*
G01X2104136Y800418D01*
G01X2118360Y778828D01*
G01X2139950Y771716D01*
G01X2154428Y771716D01*
G01X2175764Y778828D01*
G01X2190242Y800418D01*
G01X2197354Y836232D01*
G01X2197354Y857822D01*
G01X2190242Y893636D01*
G01X2175764Y915226D01*
G01X2154428Y922338D01*
G01X2139950Y922338D01*
G01X2259330Y886524D02*
G01X2259330Y893636D01*
G01X2266442Y907860D01*
G01X2273554Y915226D01*
G01X2288032Y922338D01*
G01X2316734Y922338D01*
G01X2330958Y915226D01*
G01X2338324Y907860D01*
G01X2345436Y893636D01*
G01X2345436Y879158D01*
G01X2338324Y864934D01*
G01X2323846Y843344D01*
G01X2252218Y771716D01*
G01X2352548Y771716D01*
G01X1183640Y6215380D02*
G01X1094740Y6215380D01*
G01X1085850Y6135370D01*
G01X1094740Y6144260D01*
G01X1121410Y6153150D01*
G01X1148080Y6153150D01*
G01X1174750Y6144260D01*
G01X1192530Y6126480D01*
G01X1201420Y6099810D01*
G01X1201420Y6082030D01*
G01X1192530Y6055360D01*
G01X1174750Y6037580D01*
G01X1148080Y6028690D01*
G01X1121410Y6028690D01*
G01X1094740Y6037580D01*
G01X1085850Y6046470D01*
G01X1076960Y6064250D01*
G01X1264412Y6215380D02*
G01X1335532Y6028690D01*
G01X1406652Y6215380D02*
G01X1335532Y6028690D01*
G01X2099310Y6018530D02*
G01X2090420Y6036310D01*
G01X2072640Y6054090D01*
G01X2054860Y6062980D01*
G01X2019300Y6062980D01*
G01X2001520Y6054090D01*
G01X1983740Y6036310D01*
G01X1974850Y6018530D01*
G01X1965960Y5991860D01*
G01X1965960Y5947410D01*
G01X1974850Y5920740D01*
G01X1983740Y5902960D01*
G01X2001520Y5885180D01*
G01X2019300Y5876290D01*
G01X2054860Y5876290D01*
G01X2072640Y5885180D01*
G01X2090420Y5902960D01*
G01X2099310Y5920740D01*
G01X2099310Y5947410D01*
G01X2054860Y5947410D02*
G01X2099310Y5947410D01*
G01X2162302Y6062980D02*
G01X2162302Y5876290D01*
G01X2162302Y6062980D02*
G01X2286762Y5876290D01*
G01X2286762Y6062980D02*
G01X2286762Y5876290D01*
G01X2349754Y6062980D02*
G01X2349754Y5876290D01*
G01X2349754Y6062980D02*
G01X2411984Y6062980D01*
G01X2438654Y6054090D01*
G01X2456434Y6036310D01*
G01X2465324Y6018530D01*
G01X2474214Y5991860D01*
G01X2474214Y5947410D01*
G01X2465324Y5920740D01*
G01X2456434Y5902960D01*
G01X2438654Y5885180D01*
G01X2411984Y5876290D01*
G01X2349754Y5876290D01*
G01X590296Y6618224D02*
G01X590296Y6543294D01*
G01X585724Y6529324D01*
G01X580898Y6524498D01*
G01X571500Y6519926D01*
G01X562356Y6519926D01*
G01X552958Y6524498D01*
G01X548132Y6529324D01*
G01X543560Y6543294D01*
G01X543560Y6552692D01*
G01X665734Y6618224D02*
G01X665734Y6519926D01*
G01X632968Y6618224D02*
G01X698500Y6618224D01*
G01X778764Y6618224D02*
G01X741172Y6519926D01*
G01X778764Y6618224D02*
G01X816102Y6519926D01*
G01X755396Y6552692D02*
G01X802132Y6552692D01*
G01X929132Y6594856D02*
G01X924306Y6604000D01*
G01X914908Y6613398D01*
G01X905764Y6618224D01*
G01X886968Y6618224D01*
G01X877570Y6613398D01*
G01X868172Y6604000D01*
G01X863600Y6594856D01*
G01X858774Y6580632D01*
G01X858774Y6557264D01*
G01X863600Y6543294D01*
G01X868172Y6533896D01*
G01X877570Y6524498D01*
G01X886968Y6519926D01*
G01X905764Y6519926D01*
G01X914908Y6524498D01*
G01X924306Y6533896D01*
G01X929132Y6543294D01*
G01X929132Y6557264D01*
G01X905764Y6557264D02*
G01X929132Y6557264D01*
G01X2470155Y6622124D02*
G01X2470155Y6547194D01*
G01X2465583Y6533224D01*
G01X2460757Y6528398D01*
G01X2451359Y6523826D01*
G01X2442215Y6523826D01*
G01X2432817Y6528398D01*
G01X2427991Y6533224D01*
G01X2423419Y6547194D01*
G01X2423419Y6556592D01*
G01X2545593Y6622124D02*
G01X2545593Y6523826D01*
G01X2512827Y6622124D02*
G01X2578359Y6622124D01*
G01X2658623Y6622124D02*
G01X2621031Y6523826D01*
G01X2658623Y6622124D02*
G01X2695961Y6523826D01*
G01X2635255Y6556592D02*
G01X2681991Y6556592D01*
G01X2808991Y6598756D02*
G01X2804165Y6607900D01*
G01X2794767Y6617298D01*
G01X2785623Y6622124D01*
G01X2766827Y6622124D01*
G01X2757429Y6617298D01*
G01X2748031Y6607900D01*
G01X2743459Y6598756D01*
G01X2738633Y6584532D01*
G01X2738633Y6561164D01*
G01X2743459Y6547194D01*
G01X2748031Y6537796D01*
G01X2757429Y6528398D01*
G01X2766827Y6523826D01*
G01X2785623Y6523826D01*
G01X2794767Y6528398D01*
G01X2804165Y6537796D01*
G01X2808991Y6547194D01*
G01X2808991Y6561164D01*
G01X2785623Y6561164D02*
G01X2808991Y6561164D01*
G01X2349632Y6385998D02*
G01X2308992Y6329102D01*
G01X2369698Y6329102D01*
G01X2349632Y6385998D02*
G01X2349632Y6300908D01*
G01X2449962Y6385998D02*
G01X2409576Y6329102D01*
G01X2470282Y6329102D01*
G01X2449962Y6385998D02*
G01X2449962Y6300908D01*
G01X1102360Y6368542D02*
G01X1110488Y6372606D01*
G01X1122680Y6384798D01*
G01X1122680Y6299708D01*
G01X1170432Y6384798D02*
G01X1215136Y6384798D01*
G01X1190752Y6352286D01*
G01X1202944Y6352286D01*
G01X1211072Y6348222D01*
G01X1215136Y6344158D01*
G01X1219200Y6331966D01*
G01X1219200Y6323838D01*
G01X1215136Y6311900D01*
G01X1207008Y6303772D01*
G01X1194816Y6299708D01*
G01X1182624Y6299708D01*
G01X1170432Y6303772D01*
G01X1166368Y6307836D01*
G01X1162558Y6315710D01*
G01X1093724Y1525778D02*
G01X1093724Y1529842D01*
G01X1097788Y1537970D01*
G01X1101852Y1542034D01*
G01X1109980Y1546098D01*
G01X1126236Y1546098D01*
G01X1134110Y1542034D01*
G01X1138174Y1537970D01*
G01X1142238Y1529842D01*
G01X1142238Y1521714D01*
G01X1138174Y1513586D01*
G01X1130300Y1501394D01*
G01X1089660Y1461008D01*
G01X1146302Y1461008D01*
G01X1206246Y1546098D02*
G01X1194054Y1542034D01*
G01X1189990Y1533906D01*
G01X1189990Y1525778D01*
G01X1194054Y1517650D01*
G01X1202182Y1513586D01*
G01X1218438Y1509522D01*
G01X1230630Y1505458D01*
G01X1238758Y1497330D01*
G01X1242822Y1489202D01*
G01X1242822Y1477010D01*
G01X1238758Y1469136D01*
G01X1234694Y1465072D01*
G01X1222502Y1461008D01*
G01X1206246Y1461008D01*
G01X1194054Y1465072D01*
G01X1189990Y1469136D01*
G01X1186180Y1477010D01*
G01X1186180Y1489202D01*
G01X1189990Y1497330D01*
G01X1198118Y1505458D01*
G01X1210310Y1509522D01*
G01X1226566Y1513586D01*
G01X1234694Y1517650D01*
G01X1238758Y1525778D01*
G01X1238758Y1533906D01*
G01X1234694Y1542034D01*
G01X1222502Y1546098D01*
G01X1206246Y1546098D01*
G01X2320355Y1544064D02*
G01X2364805Y1544064D01*
G01X2340675Y1511552D01*
G01X2352867Y1511552D01*
G01X2360741Y1507488D01*
G01X2364805Y1503424D01*
G01X2368869Y1491232D01*
G01X2368869Y1483104D01*
G01X2364805Y1471166D01*
G01X2356677Y1463038D01*
G01X2344739Y1458974D01*
G01X2332547Y1458974D01*
G01X2320355Y1463038D01*
G01X2316291Y1467102D01*
G01X2312227Y1474976D01*
G01X2408747Y1527808D02*
G01X2416621Y1531872D01*
G01X2428813Y1544064D01*
G01X2428813Y1458974D01*
G54D11*
G01X3372104Y5923534D02*
G01X3341116Y5923534D01*
G01X3338068Y5895848D01*
G01X3341116Y5898896D01*
G01X3350514Y5901944D01*
G01X3359912Y5901944D01*
G01X3369056Y5898896D01*
G01X3375152Y5892546D01*
G01X3378454Y5883402D01*
G01X3378454Y5877052D01*
G01X3375152Y5867908D01*
G01X3369056Y5861558D01*
G01X3359912Y5858510D01*
G01X3350514Y5858510D01*
G01X3341116Y5861558D01*
G01X3338068Y5864860D01*
G01X3335020Y5870956D01*
G01X3408680Y5923534D02*
G01X3433318Y5858510D01*
G01X3458210Y5923534D02*
G01X3433318Y5858510D01*
G01X3488436Y5836920D02*
G01X3544062Y5836920D01*
G01X3620516Y5908040D02*
G01X3617468Y5914390D01*
G01X3611372Y5920486D01*
G01X3605022Y5923534D01*
G01X3592830Y5923534D01*
G01X3586480Y5920486D01*
G01X3580384Y5914390D01*
G01X3577336Y5908040D01*
G01X3574288Y5898896D01*
G01X3574288Y5883402D01*
G01X3577336Y5874004D01*
G01X3580384Y5867908D01*
G01X3586480Y5861558D01*
G01X3592830Y5858510D01*
G01X3605022Y5858510D01*
G01X3611372Y5861558D01*
G01X3617468Y5867908D01*
G01X3620516Y5874004D01*
G01X3650742Y5911088D02*
G01X3656838Y5914390D01*
G01X3665982Y5923534D01*
G01X3665982Y5858510D01*
G01X2064004Y5301234D02*
G01X2033016Y5301234D01*
G01X2029968Y5273548D01*
G01X2033016Y5276596D01*
G01X2042414Y5279644D01*
G01X2051812Y5279644D01*
G01X2060956Y5276596D01*
G01X2067052Y5270246D01*
G01X2070354Y5261102D01*
G01X2070354Y5254752D01*
G01X2067052Y5245608D01*
G01X2060956Y5239258D01*
G01X2051812Y5236210D01*
G01X2042414Y5236210D01*
G01X2033016Y5239258D01*
G01X2029968Y5242560D01*
G01X2026920Y5248656D01*
G01X2100580Y5301234D02*
G01X2125218Y5236210D01*
G01X2150110Y5301234D02*
G01X2125218Y5236210D01*
G01X2180336Y5214620D02*
G01X2235962Y5214620D01*
G01X2312416Y5285740D02*
G01X2309368Y5292090D01*
G01X2303272Y5298186D01*
G01X2296922Y5301234D01*
G01X2284730Y5301234D01*
G01X2278380Y5298186D01*
G01X2272284Y5292090D01*
G01X2269236Y5285740D01*
G01X2266188Y5276596D01*
G01X2266188Y5261102D01*
G01X2269236Y5251704D01*
G01X2272284Y5245608D01*
G01X2278380Y5239258D01*
G01X2284730Y5236210D01*
G01X2296922Y5236210D01*
G01X2303272Y5239258D01*
G01X2309368Y5245608D01*
G01X2312416Y5251704D01*
G01X2345690Y5285740D02*
G01X2345690Y5288788D01*
G01X2348738Y5295138D01*
G01X2351786Y5298186D01*
G01X2357882Y5301234D01*
G01X2370328Y5301234D01*
G01X2376678Y5298186D01*
G01X2379726Y5295138D01*
G01X2382774Y5288788D01*
G01X2382774Y5282692D01*
G01X2379726Y5276596D01*
G01X2373376Y5267198D01*
G01X2342642Y5236210D01*
G01X2385822Y5236210D01*
G01X1188466Y5175504D02*
G01X1188466Y5144516D01*
G01X1216152Y5141468D01*
G01X1213104Y5144516D01*
G01X1210056Y5153914D01*
G01X1210056Y5163312D01*
G01X1213104Y5172456D01*
G01X1219454Y5178552D01*
G01X1228598Y5181854D01*
G01X1234948Y5181854D01*
G01X1244092Y5178552D01*
G01X1250442Y5172456D01*
G01X1253490Y5163312D01*
G01X1253490Y5153914D01*
G01X1250442Y5144516D01*
G01X1247140Y5141468D01*
G01X1241044Y5138420D01*
G01X1188466Y5212080D02*
G01X1253490Y5236718D01*
G01X1188466Y5261610D02*
G01X1253490Y5236718D01*
G01X1275080Y5291836D02*
G01X1275080Y5347462D01*
G01X1188466Y5377688D02*
G01X1253490Y5377688D01*
G01X1188466Y5377688D02*
G01X1188466Y5399278D01*
G01X1191514Y5408422D01*
G01X1197610Y5414772D01*
G01X1203960Y5417820D01*
G01X1213104Y5420868D01*
G01X1228598Y5420868D01*
G01X1237996Y5417820D01*
G01X1244092Y5414772D01*
G01X1250442Y5408422D01*
G01X1253490Y5399278D01*
G01X1253490Y5377688D01*
G01X1200912Y5451094D02*
G01X1197610Y5457190D01*
G01X1188466Y5466334D01*
G01X1253490Y5466334D01*
G01X2064004Y5644134D02*
G01X2033016Y5644134D01*
G01X2029968Y5616448D01*
G01X2033016Y5619496D01*
G01X2042414Y5622544D01*
G01X2051812Y5622544D01*
G01X2060956Y5619496D01*
G01X2067052Y5613146D01*
G01X2070354Y5604002D01*
G01X2070354Y5597652D01*
G01X2067052Y5588508D01*
G01X2060956Y5582158D01*
G01X2051812Y5579110D01*
G01X2042414Y5579110D01*
G01X2033016Y5582158D01*
G01X2029968Y5585460D01*
G01X2026920Y5591556D01*
G01X2100580Y5644134D02*
G01X2125218Y5579110D01*
G01X2150110Y5644134D02*
G01X2125218Y5579110D01*
G01X2180336Y5557520D02*
G01X2235962Y5557520D01*
G01X2266188Y5644134D02*
G01X2266188Y5579110D01*
G01X2266188Y5644134D02*
G01X2306320Y5644134D01*
G01X2266188Y5613146D02*
G01X2290826Y5613146D01*
G01X2336546Y5631688D02*
G01X2342642Y5634990D01*
G01X2351786Y5644134D01*
G01X2351786Y5579110D01*
G01X3501934Y538734D02*
G01X3501934Y473710D01*
G01X3501934Y538734D02*
G01X3529874Y538734D01*
G01X3539018Y535686D01*
G01X3542066Y532638D01*
G01X3545368Y526288D01*
G01X3545368Y517144D01*
G01X3542066Y511048D01*
G01X3539018Y507746D01*
G01X3529874Y504698D01*
G01X3501934Y504698D01*
G01X3594136Y538734D02*
G01X3584738Y535686D01*
G01X3578642Y526288D01*
G01X3575594Y511048D01*
G01X3575594Y501650D01*
G01X3578642Y486156D01*
G01X3584738Y476758D01*
G01X3594136Y473710D01*
G01X3600232Y473710D01*
G01X3609630Y476758D01*
G01X3615726Y486156D01*
G01X3618774Y501650D01*
G01X3618774Y511048D01*
G01X3615726Y526288D01*
G01X3609630Y535686D01*
G01X3600232Y538734D01*
G01X3594136Y538734D01*
G01X3649000Y452120D02*
G01X3704626Y452120D01*
G01X3781080Y523240D02*
G01X3778032Y529590D01*
G01X3771936Y535686D01*
G01X3765586Y538734D01*
G01X3753394Y538734D01*
G01X3747044Y535686D01*
G01X3740948Y529590D01*
G01X3737900Y523240D01*
G01X3734852Y514096D01*
G01X3734852Y498602D01*
G01X3737900Y489204D01*
G01X3740948Y483108D01*
G01X3747044Y476758D01*
G01X3753394Y473710D01*
G01X3765586Y473710D01*
G01X3771936Y476758D01*
G01X3778032Y483108D01*
G01X3781080Y489204D01*
G01X3811306Y526288D02*
G01X3817402Y529590D01*
G01X3826546Y538734D01*
G01X3826546Y473710D01*
G01X3500120Y843534D02*
G01X3500120Y778510D01*
G01X3500120Y843534D02*
G01X3528060Y843534D01*
G01X3537204Y840486D01*
G01X3540252Y837438D01*
G01X3543554Y831088D01*
G01X3543554Y821944D01*
G01X3540252Y815848D01*
G01X3537204Y812546D01*
G01X3528060Y809498D01*
G01X3500120Y809498D01*
G01X3592322Y843534D02*
G01X3582924Y840486D01*
G01X3576828Y831088D01*
G01X3573780Y815848D01*
G01X3573780Y806450D01*
G01X3576828Y790956D01*
G01X3582924Y781558D01*
G01X3592322Y778510D01*
G01X3598418Y778510D01*
G01X3607816Y781558D01*
G01X3613912Y790956D01*
G01X3616960Y806450D01*
G01X3616960Y815848D01*
G01X3613912Y831088D01*
G01X3607816Y840486D01*
G01X3598418Y843534D01*
G01X3592322Y843534D01*
G01X3647186Y756920D02*
G01X3702812Y756920D01*
G01X3779266Y828040D02*
G01X3776218Y834390D01*
G01X3770122Y840486D01*
G01X3763772Y843534D01*
G01X3751580Y843534D01*
G01X3745230Y840486D01*
G01X3739134Y834390D01*
G01X3736086Y828040D01*
G01X3733038Y818896D01*
G01X3733038Y803402D01*
G01X3736086Y794004D01*
G01X3739134Y787908D01*
G01X3745230Y781558D01*
G01X3751580Y778510D01*
G01X3763772Y778510D01*
G01X3770122Y781558D01*
G01X3776218Y787908D01*
G01X3779266Y794004D01*
G01X3812540Y828040D02*
G01X3812540Y831088D01*
G01X3815588Y837438D01*
G01X3818636Y840486D01*
G01X3824732Y843534D01*
G01X3837178Y843534D01*
G01X3843528Y840486D01*
G01X3846576Y837438D01*
G01X3849624Y831088D01*
G01X3849624Y824992D01*
G01X3846576Y818896D01*
G01X3840226Y809498D01*
G01X3809492Y778510D01*
G01X3852672Y778510D01*
G01X3608448Y2773934D02*
G01X3608448Y2708910D01*
G01X3608448Y2773934D02*
G01X3636388Y2773934D01*
G01X3645532Y2770886D01*
G01X3648580Y2767838D01*
G01X3651882Y2761488D01*
G01X3651882Y2752344D01*
G01X3648580Y2746248D01*
G01X3645532Y2742946D01*
G01X3636388Y2739898D01*
G01X3608448Y2739898D01*
G01X3682108Y2761488D02*
G01X3688204Y2764790D01*
G01X3697348Y2773934D01*
G01X3697348Y2708910D01*
G01X3727574Y2687320D02*
G01X3783200Y2687320D01*
G01X3859654Y2758440D02*
G01X3856606Y2764790D01*
G01X3850510Y2770886D01*
G01X3844160Y2773934D01*
G01X3831968Y2773934D01*
G01X3825618Y2770886D01*
G01X3819522Y2764790D01*
G01X3816474Y2758440D01*
G01X3813426Y2749296D01*
G01X3813426Y2733802D01*
G01X3816474Y2724404D01*
G01X3819522Y2718308D01*
G01X3825618Y2711958D01*
G01X3831968Y2708910D01*
G01X3844160Y2708910D01*
G01X3850510Y2711958D01*
G01X3856606Y2718308D01*
G01X3859654Y2724404D01*
G01X3889880Y2761488D02*
G01X3895976Y2764790D01*
G01X3905120Y2773934D01*
G01X3905120Y2708910D01*
G01X3601720Y3078734D02*
G01X3601720Y3013710D01*
G01X3601720Y3078734D02*
G01X3629660Y3078734D01*
G01X3638804Y3075686D01*
G01X3641852Y3072638D01*
G01X3645154Y3066288D01*
G01X3645154Y3057144D01*
G01X3641852Y3051048D01*
G01X3638804Y3047746D01*
G01X3629660Y3044698D01*
G01X3601720Y3044698D01*
G01X3675380Y3066288D02*
G01X3681476Y3069590D01*
G01X3690620Y3078734D01*
G01X3690620Y3013710D01*
G01X3720846Y2992120D02*
G01X3776472Y2992120D01*
G01X3852926Y3063240D02*
G01X3849878Y3069590D01*
G01X3843782Y3075686D01*
G01X3837432Y3078734D01*
G01X3825240Y3078734D01*
G01X3818890Y3075686D01*
G01X3812794Y3069590D01*
G01X3809746Y3063240D01*
G01X3806698Y3054096D01*
G01X3806698Y3038602D01*
G01X3809746Y3029204D01*
G01X3812794Y3023108D01*
G01X3818890Y3016758D01*
G01X3825240Y3013710D01*
G01X3837432Y3013710D01*
G01X3843782Y3016758D01*
G01X3849878Y3023108D01*
G01X3852926Y3029204D01*
G01X3886200Y3063240D02*
G01X3886200Y3066288D01*
G01X3889248Y3072638D01*
G01X3892296Y3075686D01*
G01X3898392Y3078734D01*
G01X3910838Y3078734D01*
G01X3917188Y3075686D01*
G01X3920236Y3072638D01*
G01X3923284Y3066288D01*
G01X3923284Y3060192D01*
G01X3920236Y3054096D01*
G01X3913886Y3044698D01*
G01X3883152Y3013710D01*
G01X3926332Y3013710D01*
G01X5468366Y3754120D02*
G01X5533390Y3754120D01*
G01X5468366Y3754120D02*
G01X5468366Y3782060D01*
G01X5471414Y3791204D01*
G01X5474462Y3794252D01*
G01X5480812Y3797554D01*
G01X5489956Y3797554D01*
G01X5496052Y3794252D01*
G01X5499354Y3791204D01*
G01X5502402Y3782060D01*
G01X5502402Y3754120D01*
G01X5468366Y3827780D02*
G01X5533390Y3827780D01*
G01X5468366Y3827780D02*
G01X5533390Y3852418D01*
G01X5468366Y3877310D02*
G01X5533390Y3852418D01*
G01X5468366Y3877310D02*
G01X5533390Y3877310D01*
G01X5468366Y3926078D02*
G01X5471414Y3919728D01*
G01X5477510Y3913632D01*
G01X5483860Y3910584D01*
G01X5493004Y3907536D01*
G01X5508498Y3907536D01*
G01X5517896Y3910584D01*
G01X5523992Y3913632D01*
G01X5530342Y3919728D01*
G01X5533390Y3926078D01*
G01X5533390Y3938270D01*
G01X5530342Y3944620D01*
G01X5523992Y3950716D01*
G01X5517896Y3953764D01*
G01X5508498Y3957066D01*
G01X5493004Y3957066D01*
G01X5483860Y3953764D01*
G01X5477510Y3950716D01*
G01X5471414Y3944620D01*
G01X5468366Y3938270D01*
G01X5468366Y3926078D01*
G01X5468366Y3987292D02*
G01X5533390Y3987292D01*
G01X5468366Y3987292D02*
G01X5468366Y4008882D01*
G01X5471414Y4018026D01*
G01X5477510Y4024376D01*
G01X5483860Y4027424D01*
G01X5493004Y4030472D01*
G01X5508498Y4030472D01*
G01X5517896Y4027424D01*
G01X5523992Y4024376D01*
G01X5530342Y4018026D01*
G01X5533390Y4008882D01*
G01X5533390Y3987292D01*
G01X5554980Y4060698D02*
G01X5554980Y4116324D01*
G01X5468366Y4146550D02*
G01X5533390Y4146550D01*
G01X5468366Y4146550D02*
G01X5468366Y4174236D01*
G01X5471414Y4183634D01*
G01X5474462Y4186682D01*
G01X5480812Y4189730D01*
G01X5489956Y4189730D01*
G01X5496052Y4186682D01*
G01X5499354Y4183634D01*
G01X5502402Y4174236D01*
G01X5502402Y4146550D01*
G01X5480812Y4219956D02*
G01X5477510Y4226052D01*
G01X5468366Y4235196D01*
G01X5533390Y4235196D01*
G01X5455666Y1442720D02*
G01X5520690Y1442720D01*
G01X5455666Y1442720D02*
G01X5455666Y1470660D01*
G01X5458714Y1479804D01*
G01X5461762Y1482852D01*
G01X5468112Y1486154D01*
G01X5477256Y1486154D01*
G01X5483352Y1482852D01*
G01X5486654Y1479804D01*
G01X5489702Y1470660D01*
G01X5489702Y1442720D01*
G01X5455666Y1516380D02*
G01X5520690Y1516380D01*
G01X5455666Y1516380D02*
G01X5520690Y1541018D01*
G01X5455666Y1565910D02*
G01X5520690Y1541018D01*
G01X5455666Y1565910D02*
G01X5520690Y1565910D01*
G01X5455666Y1614678D02*
G01X5458714Y1608328D01*
G01X5464810Y1602232D01*
G01X5471160Y1599184D01*
G01X5480304Y1596136D01*
G01X5495798Y1596136D01*
G01X5505196Y1599184D01*
G01X5511292Y1602232D01*
G01X5517642Y1608328D01*
G01X5520690Y1614678D01*
G01X5520690Y1626870D01*
G01X5517642Y1633220D01*
G01X5511292Y1639316D01*
G01X5505196Y1642364D01*
G01X5495798Y1645666D01*
G01X5480304Y1645666D01*
G01X5471160Y1642364D01*
G01X5464810Y1639316D01*
G01X5458714Y1633220D01*
G01X5455666Y1626870D01*
G01X5455666Y1614678D01*
G01X5455666Y1675892D02*
G01X5520690Y1675892D01*
G01X5455666Y1675892D02*
G01X5455666Y1697482D01*
G01X5458714Y1706626D01*
G01X5464810Y1712976D01*
G01X5471160Y1716024D01*
G01X5480304Y1719072D01*
G01X5495798Y1719072D01*
G01X5505196Y1716024D01*
G01X5511292Y1712976D01*
G01X5517642Y1706626D01*
G01X5520690Y1697482D01*
G01X5520690Y1675892D01*
G01X5542280Y1749298D02*
G01X5542280Y1804924D01*
G01X5455666Y1835150D02*
G01X5520690Y1835150D01*
G01X5455666Y1835150D02*
G01X5455666Y1862836D01*
G01X5458714Y1872234D01*
G01X5461762Y1875282D01*
G01X5468112Y1878330D01*
G01X5477256Y1878330D01*
G01X5483352Y1875282D01*
G01X5486654Y1872234D01*
G01X5489702Y1862836D01*
G01X5489702Y1835150D01*
G01X5455666Y1927098D02*
G01X5458714Y1917700D01*
G01X5468112Y1911604D01*
G01X5483352Y1908556D01*
G01X5492750Y1908556D01*
G01X5508244Y1911604D01*
G01X5517642Y1917700D01*
G01X5520690Y1927098D01*
G01X5520690Y1933194D01*
G01X5517642Y1942592D01*
G01X5508244Y1948688D01*
G01X5492750Y1951736D01*
G01X5483352Y1951736D01*
G01X5468112Y1948688D01*
G01X5458714Y1942592D01*
G01X5455666Y1933194D01*
G01X5455666Y1927098D01*
G01X5481066Y5900420D02*
G01X5546090Y5900420D01*
G01X5481066Y5900420D02*
G01X5481066Y5928360D01*
G01X5484114Y5937504D01*
G01X5487162Y5940552D01*
G01X5493512Y5943854D01*
G01X5502656Y5943854D01*
G01X5508752Y5940552D01*
G01X5512054Y5937504D01*
G01X5515102Y5928360D01*
G01X5515102Y5900420D01*
G01X5481066Y5974080D02*
G01X5546090Y5974080D01*
G01X5481066Y5974080D02*
G01X5546090Y5998718D01*
G01X5481066Y6023610D02*
G01X5546090Y5998718D01*
G01X5481066Y6023610D02*
G01X5546090Y6023610D01*
G01X5481066Y6072378D02*
G01X5484114Y6066028D01*
G01X5490210Y6059932D01*
G01X5496560Y6056884D01*
G01X5505704Y6053836D01*
G01X5521198Y6053836D01*
G01X5530596Y6056884D01*
G01X5536692Y6059932D01*
G01X5543042Y6066028D01*
G01X5546090Y6072378D01*
G01X5546090Y6084570D01*
G01X5543042Y6090920D01*
G01X5536692Y6097016D01*
G01X5530596Y6100064D01*
G01X5521198Y6103366D01*
G01X5505704Y6103366D01*
G01X5496560Y6100064D01*
G01X5490210Y6097016D01*
G01X5484114Y6090920D01*
G01X5481066Y6084570D01*
G01X5481066Y6072378D01*
G01X5481066Y6133592D02*
G01X5546090Y6133592D01*
G01X5481066Y6133592D02*
G01X5481066Y6155182D01*
G01X5484114Y6164326D01*
G01X5490210Y6170676D01*
G01X5496560Y6173724D01*
G01X5505704Y6176772D01*
G01X5521198Y6176772D01*
G01X5530596Y6173724D01*
G01X5536692Y6170676D01*
G01X5543042Y6164326D01*
G01X5546090Y6155182D01*
G01X5546090Y6133592D01*
G01X5567680Y6206998D02*
G01X5567680Y6262624D01*
G01X5490210Y6336030D02*
G01X5484114Y6329934D01*
G01X5481066Y6320536D01*
G01X5481066Y6308090D01*
G01X5484114Y6298946D01*
G01X5490210Y6292850D01*
G01X5496560Y6292850D01*
G01X5502656Y6295898D01*
G01X5505704Y6298946D01*
G01X5508752Y6305042D01*
G01X5515102Y6323584D01*
G01X5518150Y6329934D01*
G01X5521198Y6332982D01*
G01X5527548Y6336030D01*
G01X5536692Y6336030D01*
G01X5543042Y6329934D01*
G01X5546090Y6320536D01*
G01X5546090Y6308090D01*
G01X5543042Y6298946D01*
G01X5536692Y6292850D01*
G01X5481066Y6366256D02*
G01X5546090Y6366256D01*
G01X5481066Y6366256D02*
G01X5481066Y6393942D01*
G01X5484114Y6403340D01*
G01X5487162Y6406388D01*
G01X5493512Y6409436D01*
G01X5502656Y6409436D01*
G01X5508752Y6406388D01*
G01X5512054Y6403340D01*
G01X5515102Y6393942D01*
G01X5515102Y6366256D01*
G01X5481066Y6439662D02*
G01X5546090Y6439662D01*
G01X3565169Y5063490D02*
G01X3558819Y5069586D01*
G01X3549675Y5072634D01*
G01X3537229Y5072634D01*
G01X3527831Y5069586D01*
G01X3521735Y5063490D01*
G01X3521735Y5057140D01*
G01X3524783Y5051044D01*
G01X3527831Y5047996D01*
G01X3534181Y5044948D01*
G01X3552723Y5038598D01*
G01X3558819Y5035550D01*
G01X3561867Y5032502D01*
G01X3565169Y5026152D01*
G01X3565169Y5017008D01*
G01X3558819Y5010658D01*
G01X3549675Y5007610D01*
G01X3537229Y5007610D01*
G01X3527831Y5010658D01*
G01X3521735Y5017008D01*
G01X3595395Y5072634D02*
G01X3595395Y5007610D01*
G01X3595395Y5072634D02*
G01X3623081Y5072634D01*
G01X3632479Y5069586D01*
G01X3635527Y5066538D01*
G01X3638575Y5060188D01*
G01X3638575Y5051044D01*
G01X3635527Y5044948D01*
G01X3632479Y5041646D01*
G01X3623081Y5038598D01*
G01X3595395Y5038598D01*
G01X3668801Y5072634D02*
G01X3668801Y5007610D01*
G01X3699027Y4986020D02*
G01X3754653Y4986020D01*
G01X3831107Y5057140D02*
G01X3828059Y5063490D01*
G01X3821963Y5069586D01*
G01X3815613Y5072634D01*
G01X3803421Y5072634D01*
G01X3797071Y5069586D01*
G01X3790975Y5063490D01*
G01X3787927Y5057140D01*
G01X3784879Y5047996D01*
G01X3784879Y5032502D01*
G01X3787927Y5023104D01*
G01X3790975Y5017008D01*
G01X3797071Y5010658D01*
G01X3803421Y5007610D01*
G01X3815613Y5007610D01*
G01X3821963Y5010658D01*
G01X3828059Y5017008D01*
G01X3831107Y5023104D01*
G01X3879875Y5072634D02*
G01X3870477Y5069586D01*
G01X3864381Y5060188D01*
G01X3861333Y5044948D01*
G01X3861333Y5035550D01*
G01X3864381Y5020056D01*
G01X3870477Y5010658D01*
G01X3879875Y5007610D01*
G01X3885971Y5007610D01*
G01X3895369Y5010658D01*
G01X3901465Y5020056D01*
G01X3904513Y5035550D01*
G01X3904513Y5044948D01*
G01X3901465Y5060188D01*
G01X3895369Y5069586D01*
G01X3885971Y5072634D01*
G01X3879875Y5072634D01*
G01X3579876Y5355590D02*
G01X3573526Y5361686D01*
G01X3564382Y5364734D01*
G01X3551936Y5364734D01*
G01X3542538Y5361686D01*
G01X3536442Y5355590D01*
G01X3536442Y5349240D01*
G01X3539490Y5343144D01*
G01X3542538Y5340096D01*
G01X3548888Y5337048D01*
G01X3567430Y5330698D01*
G01X3573526Y5327650D01*
G01X3576574Y5324602D01*
G01X3579876Y5318252D01*
G01X3579876Y5309108D01*
G01X3573526Y5302758D01*
G01X3564382Y5299710D01*
G01X3551936Y5299710D01*
G01X3542538Y5302758D01*
G01X3536442Y5309108D01*
G01X3610102Y5364734D02*
G01X3610102Y5299710D01*
G01X3610102Y5364734D02*
G01X3637788Y5364734D01*
G01X3647186Y5361686D01*
G01X3650234Y5358638D01*
G01X3653282Y5352288D01*
G01X3653282Y5343144D01*
G01X3650234Y5337048D01*
G01X3647186Y5333746D01*
G01X3637788Y5330698D01*
G01X3610102Y5330698D01*
G01X3683508Y5364734D02*
G01X3683508Y5299710D01*
G01X3713734Y5278120D02*
G01X3769360Y5278120D01*
G01X3845814Y5349240D02*
G01X3842766Y5355590D01*
G01X3836670Y5361686D01*
G01X3830320Y5364734D01*
G01X3818128Y5364734D01*
G01X3811778Y5361686D01*
G01X3805682Y5355590D01*
G01X3802634Y5349240D01*
G01X3799586Y5340096D01*
G01X3799586Y5324602D01*
G01X3802634Y5315204D01*
G01X3805682Y5309108D01*
G01X3811778Y5302758D01*
G01X3818128Y5299710D01*
G01X3830320Y5299710D01*
G01X3836670Y5302758D01*
G01X3842766Y5309108D01*
G01X3845814Y5315204D01*
G01X3876040Y5352288D02*
G01X3882136Y5355590D01*
G01X3891280Y5364734D01*
G01X3891280Y5299710D01*
G01X4795520Y2926334D02*
G01X4795520Y2879852D01*
G01X4798568Y2870708D01*
G01X4804918Y2864358D01*
G01X4814062Y2861310D01*
G01X4820412Y2861310D01*
G01X4829556Y2864358D01*
G01X4835652Y2870708D01*
G01X4838954Y2879852D01*
G01X4838954Y2926334D01*
G01X4869180Y2913888D02*
G01X4875276Y2917190D01*
G01X4884420Y2926334D01*
G01X4884420Y2861310D01*
G01X4795520Y5250434D02*
G01X4795520Y5203952D01*
G01X4798568Y5194808D01*
G01X4804918Y5188458D01*
G01X4814062Y5185410D01*
G01X4820412Y5185410D01*
G01X4829556Y5188458D01*
G01X4835652Y5194808D01*
G01X4838954Y5203952D01*
G01X4838954Y5250434D01*
G01X4872228Y5234940D02*
G01X4872228Y5237988D01*
G01X4875276Y5244338D01*
G01X4878324Y5247386D01*
G01X4884420Y5250434D01*
G01X4896866Y5250434D01*
G01X4903216Y5247386D01*
G01X4906264Y5244338D01*
G01X4909312Y5237988D01*
G01X4909312Y5231892D01*
G01X4906264Y5225796D01*
G01X4899914Y5216398D01*
G01X4869180Y5185410D01*
G01X4912360Y5185410D01*
G01X4795520Y691134D02*
G01X4795520Y644652D01*
G01X4798568Y635508D01*
G01X4804918Y629158D01*
G01X4814062Y626110D01*
G01X4820412Y626110D01*
G01X4829556Y629158D01*
G01X4835652Y635508D01*
G01X4838954Y644652D01*
G01X4838954Y691134D01*
G01X4899914Y691134D02*
G01X4869180Y647954D01*
G01X4915408Y647954D01*
G01X4899914Y691134D02*
G01X4899914Y626110D01*
G04 Text End*

G04 PolygonModel Start*
G01X3579134Y6215654D02*
G01X3842771Y6217663D01*
G01X3842771Y6217663D02*
G01X3842771Y5681975D01*
G01X3842771Y5681975D02*
G01X3703325Y5542529D01*
G01X3703325Y5542529D02*
G01X3573783Y5543862D01*
G01X3434436Y6217044D02*
G01X3167588Y6217714D01*
G01X3167588Y6217714D02*
G01X3167588Y5682094D01*
G01X3167588Y5682094D02*
G01X3307202Y5542481D01*
G01X3307202Y5542481D02*
G01X3436625Y5542481D01*
G36*
G01X3647105Y6190295D02*
G01X3666904Y6190295D01*
G01X3666904Y6111095D01*
G01X3647105Y6111095D01*
G01X3647105Y6190295D01*
G37*
G36*
G01X3647105Y5569895D02*
G01X3647105Y5649095D01*
G01X3666904Y5649095D01*
G01X3666904Y5569895D01*
G01X3647105Y5569895D01*
G37*
G36*
G01X3591006Y5599595D02*
G01X3591006Y5619394D01*
G01X3723005Y5619394D01*
G01X3723005Y5599595D01*
G01X3591006Y5599595D01*
G37*
G01X1917520Y5328961D02*
G01X1769021Y5328961D01*
G01X1769021Y5110439D02*
G01X1917520Y5110439D01*
G01X1932760Y5125679D02*
G01X1932760Y5313721D01*
G01X1435280Y5328961D02*
G01X1583779Y5328961D01*
G01X1583779Y5110439D02*
G01X1435280Y5110439D01*
G01X1420040Y5125679D02*
G01X1420040Y5313721D01*
G01X1917520Y5110439D02*
G03X1932760Y5125679I0J15240D01*
G01X1932760Y5313721D02*
G03X1917520Y5328961I-15240J0D01*
G01X1435280Y5110439D02*
G02X1420040Y5125679I0J15240D01*
G01X1420040Y5313721D02*
G02X1435280Y5328961I15240J0D01*
G54D12*
G01X1320114Y5607799D02*
G01X1320114Y5625183D01*
G01X1169086Y5607799D02*
G01X1169086Y5625183D01*
G01X1169086Y5607799D02*
G01X1157981Y5607799D01*
G01X1157981Y5607799D02*
G01X1157981Y5625183D01*
G01X1331219Y5625183D02*
G01X1331219Y5607799D01*
G01X1331219Y5607799D02*
G01X1320114Y5607799D01*
G01X1320114Y5625183D02*
G01X1331219Y5625183D01*
G01X1157981Y5625183D02*
G01X1169086Y5625183D01*
G01X1157981Y5683087D02*
G01X1331219Y5683087D01*
G54D11*
G01X1157981Y5668800D02*
G01X1331219Y5668800D01*
G01X1157981Y5625183D02*
G01X1157981Y5906417D01*
G01X1157981Y5906417D02*
G01X1174780Y5906417D01*
G01X1331219Y5625183D02*
G01X1331219Y5906417D01*
G01X1331219Y5906417D02*
G01X1314420Y5906417D01*
G54D12*
G01X1930400Y5473700D02*
G01X1930400Y5753100D01*
G01X1397000Y5473700D02*
G01X1397000Y5753100D01*
G54D11*
G01X1574800Y5778500D02*
G01X1435100Y5778500D01*
G01X1435100Y5448300D02*
G01X1573439Y5448300D01*
G01X1752600Y5778500D02*
G01X1892300Y5778500D01*
G01X1892300Y5448300D02*
G01X1753961Y5448300D01*
G54D12*
G01X1663700Y5613400D02*
G02X1663700Y5575300I0J-19050D01*
G01X1663700Y5613400D02*
G02X1663700Y5651500I0J19050D01*
G54D11*
G01X3964394Y386039D02*
G01X4112892Y386039D01*
G01X4112892Y604561D02*
G01X3964394Y604561D01*
G01X3949154Y589321D02*
G01X3949154Y401279D01*
G01X4446633Y386039D02*
G01X4298135Y386039D01*
G01X4298135Y604561D02*
G01X4446633Y604561D01*
G01X4461873Y589321D02*
G01X4461873Y401279D01*
G01X3964394Y604561D02*
G03X3949154Y589321I0J-15240D01*
G01X3949154Y401279D02*
G03X3964394Y386039I15240J0D01*
G01X4446633Y604561D02*
G02X4461873Y589321I0J-15240D01*
G01X4461873Y401279D02*
G02X4446633Y386039I-15240J0D01*
G01X3964394Y692624D02*
G01X4112892Y692624D01*
G01X4112892Y911145D02*
G01X3964394Y911145D01*
G01X3949154Y895905D02*
G01X3949154Y707864D01*
G01X4446633Y692624D02*
G01X4298135Y692624D01*
G01X4298135Y911145D02*
G01X4446633Y911145D01*
G01X4461873Y895905D02*
G01X4461873Y707864D01*
G01X3964394Y911145D02*
G03X3949154Y895905I0J-15240D01*
G01X3949154Y707864D02*
G03X3964394Y692624I15240J0D01*
G01X4446633Y911145D02*
G02X4461873Y895905I0J-15240D01*
G01X4461873Y707864D02*
G02X4446633Y692624I-15240J0D01*
G01X4013380Y2648424D02*
G01X4161879Y2648424D01*
G01X4161879Y2866945D02*
G01X4013380Y2866945D01*
G01X3998140Y2851705D02*
G01X3998140Y2663664D01*
G01X4495620Y2648424D02*
G01X4347121Y2648424D01*
G01X4347121Y2866945D02*
G01X4495620Y2866945D01*
G01X4510860Y2851705D02*
G01X4510860Y2663664D01*
G01X4013380Y2866945D02*
G03X3998140Y2851705I0J-15240D01*
G01X3998140Y2663664D02*
G03X4013380Y2648424I15240J0D01*
G01X4495620Y2866945D02*
G02X4510860Y2851705I0J-15240D01*
G01X4510860Y2663664D02*
G02X4495620Y2648424I-15240J0D01*
G01X4013380Y2951439D02*
G01X4161879Y2951439D01*
G01X4161879Y3169961D02*
G01X4013380Y3169961D01*
G01X3998140Y3154721D02*
G01X3998140Y2966679D01*
G01X4495620Y2951439D02*
G01X4347121Y2951439D01*
G01X4347121Y3169961D02*
G01X4495620Y3169961D01*
G01X4510860Y3154721D02*
G01X4510860Y2966679D01*
G01X4013380Y3169961D02*
G03X3998140Y3154721I0J-15240D01*
G01X3998140Y2966679D02*
G03X4013380Y2951439I15240J0D01*
G01X4495620Y3169961D02*
G02X4510860Y3154721I0J-15240D01*
G01X4510860Y2966679D02*
G02X4495620Y2951439I-15240J0D01*
G54D13*
G01X5974403Y3193100D02*
G01X5118100Y3193100D01*
G01X5118100Y3193100D02*
G01X5118100Y4762500D01*
G01X5118100Y4762500D02*
G01X5974403Y4762500D01*
G01X5974403Y3193100D02*
G01X5974403Y4757097D01*
G01X5081514Y4610097D02*
G01X5102398Y4610097D01*
G01X4827514Y4610097D02*
G01X4875286Y4610097D01*
G01X5081514Y4356097D02*
G01X5102398Y4356097D01*
G01X4827514Y4356097D02*
G01X4875286Y4356097D01*
G01X5081514Y4102097D02*
G01X5102398Y4102097D01*
G01X4827514Y4102097D02*
G01X4875286Y4102097D01*
G01X5081514Y3848100D02*
G01X5102398Y3848100D01*
G01X4827514Y3848100D02*
G01X4875286Y3848100D01*
G01X5081514Y3594100D02*
G01X5102398Y3594100D01*
G01X4827514Y3594100D02*
G01X4875286Y3594100D01*
G01X5081514Y3340100D02*
G01X5102398Y3340100D01*
G01X4827514Y3340100D02*
G01X4875286Y3340100D01*
G01X5974403Y907100D02*
G01X5118100Y907100D01*
G01X5118100Y907100D02*
G01X5118100Y2476500D01*
G01X5118100Y2476500D02*
G01X5974403Y2476500D01*
G01X5974403Y907100D02*
G01X5974403Y2471097D01*
G01X5081514Y2324097D02*
G01X5102398Y2324097D01*
G01X4827514Y2324097D02*
G01X4875286Y2324097D01*
G01X5081514Y2070097D02*
G01X5102398Y2070097D01*
G01X4827514Y2070097D02*
G01X4875286Y2070097D01*
G01X5081514Y1816097D02*
G01X5102398Y1816097D01*
G01X4827514Y1816097D02*
G01X4875286Y1816097D01*
G01X5081514Y1562100D02*
G01X5102398Y1562100D01*
G01X4827514Y1562100D02*
G01X4875286Y1562100D01*
G01X5081514Y1308100D02*
G01X5102398Y1308100D01*
G01X4827514Y1308100D02*
G01X4875286Y1308100D01*
G01X5081514Y1054100D02*
G01X5102398Y1054100D01*
G01X4827514Y1054100D02*
G01X4875286Y1054100D01*
G01X5974403Y5479100D02*
G01X5118100Y5479100D01*
G01X5118100Y5479100D02*
G01X5118100Y7048500D01*
G01X5118100Y7048500D02*
G01X5974403Y7048500D01*
G01X5974403Y5479100D02*
G01X5974403Y7043097D01*
G01X5081514Y6896097D02*
G01X5102398Y6896097D01*
G01X4827514Y6896097D02*
G01X4875286Y6896097D01*
G01X5081514Y6642097D02*
G01X5102398Y6642097D01*
G01X4827514Y6642097D02*
G01X4875286Y6642097D01*
G01X5081514Y6388097D02*
G01X5102398Y6388097D01*
G01X4827514Y6388097D02*
G01X4875286Y6388097D01*
G01X5081514Y6134100D02*
G01X5102398Y6134100D01*
G01X4827514Y6134100D02*
G01X4875286Y6134100D01*
G01X5081514Y5880100D02*
G01X5102398Y5880100D01*
G01X4827514Y5880100D02*
G01X4875286Y5880100D01*
G01X5081514Y5626100D02*
G01X5102398Y5626100D01*
G01X4827514Y5626100D02*
G01X4875286Y5626100D01*
G54D11*
G01X4001209Y4934424D02*
G01X4149707Y4934424D01*
G01X4149707Y5152945D02*
G01X4001209Y5152945D01*
G01X3985969Y5137705D02*
G01X3985969Y4949664D01*
G01X4483448Y4934424D02*
G01X4334949Y4934424D01*
G01X4334949Y5152945D02*
G01X4483448Y5152945D01*
G01X4498688Y5137705D02*
G01X4498688Y4949664D01*
G01X4001209Y5152945D02*
G03X3985969Y5137705I0J-15240D01*
G01X3985969Y4949664D02*
G03X4001209Y4934424I15240J0D01*
G01X4483448Y5152945D02*
G02X4498688Y5137705I0J-15240D01*
G01X4498688Y4949664D02*
G02X4483448Y4934424I-15240J0D01*
G01X4001209Y5226524D02*
G01X4149707Y5226524D01*
G01X4149707Y5445045D02*
G01X4001209Y5445045D01*
G01X3985969Y5429805D02*
G01X3985969Y5241764D01*
G01X4483448Y5226524D02*
G01X4334949Y5226524D01*
G01X4334949Y5445045D02*
G01X4483448Y5445045D01*
G01X4498688Y5429805D02*
G01X4498688Y5241764D01*
G01X4001209Y5445045D02*
G03X3985969Y5429805I0J-15240D01*
G01X3985969Y5241764D02*
G03X4001209Y5226524I15240J0D01*
G01X4483448Y5445045D02*
G02X4498688Y5429805I0J-15240D01*
G01X4498688Y5241764D02*
G02X4483448Y5226524I-15240J0D01*
G54D13*
G01X1026693Y6194360D02*
G01X776694Y6194360D01*
G01X776694Y6448360D02*
G01X776694Y1368371D01*
G01X1026693Y6448360D02*
G01X776694Y6448360D01*
G01X1026693Y1368371D02*
G01X1026693Y6448360D01*
G01X776694Y1368371D02*
G01X1026693Y1368371D01*
G01X2804693Y6194360D02*
G01X2554694Y6194360D01*
G01X2554694Y6448360D02*
G01X2554694Y1368371D01*
G01X2804693Y6448360D02*
G01X2554694Y6448360D01*
G01X2804693Y1368371D02*
G01X2804693Y6448360D01*
G01X2554694Y1368371D02*
G01X2804693Y1368371D01*
G54D11*
G01X4697781Y2983207D02*
G01X4697781Y2807967D01*
G01X4697781Y2807967D02*
G01X4801941Y2807967D01*
G01X5005019Y2983207D02*
G01X5005019Y2807967D01*
G01X5005019Y2807967D02*
G01X4900859Y2807967D01*
G01X4805860Y2983207D02*
G01X4896940Y2983207D01*
G01X4697781Y5307307D02*
G01X4697781Y5132067D01*
G01X4697781Y5132067D02*
G01X4801941Y5132067D01*
G01X5005019Y5307307D02*
G01X5005019Y5132067D01*
G01X5005019Y5132067D02*
G01X4900859Y5132067D01*
G01X4805860Y5307307D02*
G01X4896940Y5307307D01*
G01X4697781Y735307D02*
G01X4697781Y560067D01*
G01X4697781Y560067D02*
G01X4801941Y560067D01*
G01X5005019Y735307D02*
G01X5005019Y560067D01*
G01X5005019Y560067D02*
G01X4900859Y560067D01*
G01X4805860Y735307D02*
G01X4896940Y735307D01*

G04 Rect Start*
G54D13*
G01X3962400Y6019800D02*
G01X3962400Y7048500D01*
G01X4622800Y7048500D01*
G01X4622800Y6019800D01*
G01X3962400Y6019800D01*
G01X3956050Y3733800D02*
G01X3956050Y4749800D01*
G01X4610100Y4749800D01*
G01X4610100Y3733800D01*
G01X3956050Y3733800D01*
G01X3943350Y1447800D02*
G01X3943350Y2451100D01*
G01X4597400Y2451100D01*
G01X4597400Y1447800D01*
G01X3943350Y1447800D01*
G04 Rect End*

M02*

