G04 Layer: DrillDrawingLayer*
G04 EasyEDA Pro v3.2.148, 2026-08-04 21:20:46*
G04 Gerber Generator version 0.3*
G04 Scale: 100 percent, Rotated: No, Reflected: No*
G04 Dimensions in millimeters*
G04 Leading zeros omitted, absolute positions, 4 integers and 5 decimals*
G04 Generated by one-click*
G04 Object Configs: Pad,Via,Track,Text,Image,Dimension,BoardOutline,BoardCutout,CopperFilled,SolidRegion,FPCStiffener,Line,PlaneZone,ComponentProperty,ComponentSilkscreen,TearDrop*
G04 Layer Configs: 1,15,16,2,3,4,5,6,7,8,9,10,11,13,14,56*
G04 Copper Areas: 0*
%FSLAX45Y45*%
%MOMM*%
%AMIconRect*4,1,4,0.28,-0.28,-0.28,-0.28,-0.28,0.28,0.28,0.28,0.28,-0.28,0*4,0,4,0.233333,-0.233333,0.233333,0.233333,-0.233333,0.233333,-0.233333,-0.233333,0.233333,-0.233333,0*%
%AMIconTriangle*4,1,3,-0.339593,0.240473,0.339593,0.240473,0,-0.37884,-0.339593,0.240473,0*4,0,3,-0.265673,0.19404,0,-0.27342,0.266233,0.19404,-0.265673,0.19404,0*%
%AMIconStar6*4,1,12,0.12068,0.20888,0.298527,0.172713,0.241313,0,0.298527,-0.17206,0.12068,-0.208227,0,-0.344073,-0.120073,-0.208227,-0.298573,-0.17206,-0.240707,0,-0.298573,0.17206,-0.120073,0.20888,0,0.344073,0.12068,0.20888,0*4,0,12,-0.000467,0.273467,-0.090067,0.171733,-0.237533,0.136733,-0.193667,-0.007467,-0.237533,-0.1372,-0.090067,-0.171733,-0.000467,-0.273933,0.090067,-0.171733,0.237533,-0.1372,0.194133,0.007,0.237533,0.1372,0.090067,0.171267,-0.000467,0.273467,0*%
%ADD10IconRect*%
%ADD11C,0.616X0.522667*%
%ADD12IconTriangle*%
%ADD13IconStar6*%
%ADD14C,0.2032*%
%ADD15C,0.254*%
G75*


G04 Drill Drawing Start*
G54D10*
G01X774700Y584200D03*
G01X774700Y6832600D03*
G01X5549900Y584200D03*
G01X5549900Y5137150D03*
G54D11*
G01X1371600Y5181600D03*
G01X1371600Y5270500D03*
G01X1701800Y4162746D03*
G01X1701800Y4447854D03*
G01X1823695Y5362262D03*
G01X1823695Y5432942D03*
G01X1892300Y4162746D03*
G01X1892300Y4447854D03*
G01X2095500Y4159892D03*
G01X2095500Y4445000D03*
G01X3085711Y4968165D03*
G01X3251200Y5130800D03*
G01X3301611Y4746557D03*
G01X3390900Y5473700D03*
G01X3403600Y6286500D03*
G01X3467100Y4914900D03*
G01X3606800Y6286500D03*
G01X3619500Y5473700D03*
G01X4046256Y646161D03*
G01X4083070Y5189559D03*
G01X4089400Y2908300D03*
G01X4634733Y5043685D03*
G01X4652159Y495300D03*
G01X4664784Y2757685D03*
G01X5041900Y774700D03*
G01X5041900Y5346700D03*
G01X5067300Y3022600D03*
G54D12*
G01X4724400Y1054100D03*
G01X4724400Y1308100D03*
G01X4724400Y1562100D03*
G01X4724400Y1816097D03*
G01X4724400Y2070097D03*
G01X4724400Y2324097D03*
G01X4724400Y3340100D03*
G01X4724400Y3594100D03*
G01X4724400Y3848100D03*
G01X4724400Y4102097D03*
G01X4724400Y4356097D03*
G01X4724400Y4610097D03*
G01X4724400Y5626100D03*
G01X4724400Y5880100D03*
G01X4724400Y6134100D03*
G01X4724400Y6388097D03*
G01X4724400Y6642097D03*
G01X4724400Y6896097D03*
G01X4978400Y1054100D03*
G01X4978400Y1308100D03*
G01X4978400Y1562100D03*
G01X4978400Y1816097D03*
G01X4978400Y2070097D03*
G01X4978400Y2324097D03*
G01X4978400Y3340100D03*
G01X4978400Y3594100D03*
G01X4978400Y3848100D03*
G01X4978400Y4102097D03*
G01X4978400Y4356097D03*
G01X4978400Y4610097D03*
G01X4978400Y5626100D03*
G01X4978400Y5880100D03*
G01X4978400Y6134100D03*
G01X4978400Y6388097D03*
G01X4978400Y6642097D03*
G01X4978400Y6896097D03*
G54D13*
G01X901695Y5559366D03*
G01X901695Y5813366D03*
G01X901695Y6067366D03*
G01X901695Y6321366D03*
G01X901695Y2511366D03*
G01X901695Y2765366D03*
G01X901695Y3019366D03*
G01X901695Y3273366D03*
G01X901695Y3527366D03*
G01X901695Y3781366D03*
G01X901695Y4035366D03*
G01X901695Y4289366D03*
G01X901695Y4543366D03*
G01X901695Y4797366D03*
G01X901695Y5051366D03*
G01X901695Y5305366D03*
G01X901695Y1495366D03*
G01X901695Y1749366D03*
G01X901695Y2003366D03*
G01X901695Y2257366D03*
G01X2679695Y1495366D03*
G01X2679695Y1749366D03*
G01X2679695Y2003366D03*
G01X2679695Y2257366D03*
G01X2679695Y2511366D03*
G01X2679695Y2765366D03*
G01X2679695Y3019366D03*
G01X2679695Y3273366D03*
G01X2679695Y3527366D03*
G01X2679695Y3781366D03*
G01X2679695Y4035366D03*
G01X2679695Y4289366D03*
G01X2679695Y4543366D03*
G01X2679695Y4797366D03*
G01X2679695Y5051366D03*
G01X2679695Y5305366D03*
G01X2679695Y5559366D03*
G01X2679695Y5813366D03*
G01X2679695Y6067366D03*
G01X2679695Y6321366D03*
G04 Drill Drawing End*

G04 Text Start*
G54D14*
G01X8282146Y6941094D02*
G01X8282146Y6820952D01*
G01X8282146Y6941094D02*
G01X8327866Y6820952D01*
G01X8373586Y6941094D02*
G01X8327866Y6820952D01*
G01X8373586Y6941094D02*
G01X8373586Y6820952D01*
G01X8489918Y6900962D02*
G01X8489918Y6820952D01*
G01X8489918Y6883944D02*
G01X8478488Y6895374D01*
G01X8467058Y6900962D01*
G01X8450040Y6900962D01*
G01X8438610Y6895374D01*
G01X8427180Y6883944D01*
G01X8421338Y6866672D01*
G01X8421338Y6855242D01*
G01X8427180Y6838224D01*
G01X8438610Y6826794D01*
G01X8450040Y6820952D01*
G01X8467058Y6820952D01*
G01X8478488Y6826794D01*
G01X8489918Y6838224D01*
G01X8537670Y6900962D02*
G01X8537670Y6820952D01*
G01X8537670Y6866672D02*
G01X8543512Y6883944D01*
G01X8554942Y6895374D01*
G01X8566372Y6900962D01*
G01X8583390Y6900962D01*
G01X8631142Y6941094D02*
G01X8631142Y6820952D01*
G01X8688292Y6900962D02*
G01X8631142Y6843812D01*
G01X8654002Y6866672D02*
G01X8694134Y6820952D01*
G01X9819426Y6912392D02*
G01X9813584Y6923822D01*
G01X9802154Y6935252D01*
G01X9790724Y6941094D01*
G01X9767864Y6941094D01*
G01X9756434Y6935252D01*
G01X9745004Y6923822D01*
G01X9739416Y6912392D01*
G01X9733574Y6895374D01*
G01X9733574Y6866672D01*
G01X9739416Y6849654D01*
G01X9745004Y6838224D01*
G01X9756434Y6826794D01*
G01X9767864Y6820952D01*
G01X9790724Y6820952D01*
G01X9802154Y6826794D01*
G01X9813584Y6838224D01*
G01X9819426Y6849654D01*
G01X9895880Y6900962D02*
G01X9884450Y6895374D01*
G01X9873020Y6883944D01*
G01X9867178Y6866672D01*
G01X9867178Y6855242D01*
G01X9873020Y6838224D01*
G01X9884450Y6826794D01*
G01X9895880Y6820952D01*
G01X9912898Y6820952D01*
G01X9924328Y6826794D01*
G01X9935758Y6838224D01*
G01X9941600Y6855242D01*
G01X9941600Y6866672D01*
G01X9935758Y6883944D01*
G01X9924328Y6895374D01*
G01X9912898Y6900962D01*
G01X9895880Y6900962D01*
G01X9989352Y6900962D02*
G01X9989352Y6843812D01*
G01X9995194Y6826794D01*
G01X10006624Y6820952D01*
G01X10023642Y6820952D01*
G01X10035072Y6826794D01*
G01X10052344Y6843812D01*
G01X10052344Y6900962D02*
G01X10052344Y6820952D01*
G01X10100096Y6900962D02*
G01X10100096Y6820952D01*
G01X10100096Y6878102D02*
G01X10117368Y6895374D01*
G01X10128798Y6900962D01*
G01X10145816Y6900962D01*
G01X10157246Y6895374D01*
G01X10163088Y6878102D01*
G01X10163088Y6820952D01*
G01X10228112Y6941094D02*
G01X10228112Y6843812D01*
G01X10233700Y6826794D01*
G01X10245130Y6820952D01*
G01X10256560Y6820952D01*
G01X10210840Y6900962D02*
G01X10250972Y6900962D01*
G01X11227747Y6923822D02*
G01X11216317Y6935252D01*
G01X11199299Y6941094D01*
G01X11176439Y6941094D01*
G01X11159167Y6935252D01*
G01X11147737Y6923822D01*
G01X11147737Y6912392D01*
G01X11153579Y6900962D01*
G01X11159167Y6895374D01*
G01X11170597Y6889532D01*
G01X11204887Y6878102D01*
G01X11216317Y6872514D01*
G01X11222159Y6866672D01*
G01X11227747Y6855242D01*
G01X11227747Y6838224D01*
G01X11216317Y6826794D01*
G01X11199299Y6820952D01*
G01X11176439Y6820952D01*
G01X11159167Y6826794D01*
G01X11147737Y6838224D01*
G01X11275499Y6941094D02*
G01X11281341Y6935252D01*
G01X11286929Y6941094D01*
G01X11281341Y6946682D01*
G01X11275499Y6941094D01*
G01X11281341Y6900962D02*
G01X11281341Y6820952D01*
G01X11397673Y6900962D02*
G01X11334681Y6820952D01*
G01X11334681Y6900962D02*
G01X11397673Y6900962D01*
G01X11334681Y6820952D02*
G01X11397673Y6820952D01*
G01X11445425Y6866672D02*
G01X11514005Y6866672D01*
G01X11514005Y6878102D01*
G01X11508417Y6889532D01*
G01X11502575Y6895374D01*
G01X11491145Y6900962D01*
G01X11474127Y6900962D01*
G01X11462697Y6895374D01*
G01X11451267Y6883944D01*
G01X11445425Y6866672D01*
G01X11445425Y6855242D01*
G01X11451267Y6838224D01*
G01X11462697Y6826794D01*
G01X11474127Y6820952D01*
G01X11491145Y6820952D01*
G01X11502575Y6826794D01*
G01X11514005Y6838224D01*
G01X14950263Y6941094D02*
G01X14950263Y6820952D01*
G01X14950263Y6941094D02*
G01X15001825Y6941094D01*
G01X15018843Y6935252D01*
G01X15024685Y6929664D01*
G01X15030273Y6918234D01*
G01X15030273Y6900962D01*
G01X15024685Y6889532D01*
G01X15018843Y6883944D01*
G01X15001825Y6878102D01*
G01X14950263Y6878102D01*
G01X15078025Y6941094D02*
G01X15078025Y6820952D01*
G01X15194357Y6900962D02*
G01X15194357Y6820952D01*
G01X15194357Y6883944D02*
G01X15182927Y6895374D01*
G01X15171497Y6900962D01*
G01X15154479Y6900962D01*
G01X15143049Y6895374D01*
G01X15131619Y6883944D01*
G01X15125777Y6866672D01*
G01X15125777Y6855242D01*
G01X15131619Y6838224D01*
G01X15143049Y6826794D01*
G01X15154479Y6820952D01*
G01X15171497Y6820952D01*
G01X15182927Y6826794D01*
G01X15194357Y6838224D01*
G01X15259381Y6941094D02*
G01X15259381Y6843812D01*
G01X15264969Y6826794D01*
G01X15276399Y6820952D01*
G01X15287829Y6820952D01*
G01X15242109Y6900962D02*
G01X15282241Y6900962D01*
G01X15335581Y6866672D02*
G01X15404161Y6866672D01*
G01X15404161Y6878102D01*
G01X15398573Y6889532D01*
G01X15392731Y6895374D01*
G01X15381301Y6900962D01*
G01X15364283Y6900962D01*
G01X15352853Y6895374D01*
G01X15341423Y6883944D01*
G01X15335581Y6866672D01*
G01X15335581Y6855242D01*
G01X15341423Y6838224D01*
G01X15352853Y6826794D01*
G01X15364283Y6820952D01*
G01X15381301Y6820952D01*
G01X15392731Y6826794D01*
G01X15404161Y6838224D01*
G01X15520493Y6941094D02*
G01X15520493Y6820952D01*
G01X15520493Y6883944D02*
G01X15509063Y6895374D01*
G01X15497633Y6900962D01*
G01X15480615Y6900962D01*
G01X15469185Y6895374D01*
G01X15457755Y6883944D01*
G01X15451913Y6866672D01*
G01X15451913Y6855242D01*
G01X15457755Y6838224D01*
G01X15469185Y6826794D01*
G01X15480615Y6820952D01*
G01X15497633Y6820952D01*
G01X15509063Y6826794D01*
G01X15520493Y6838224D01*
G01X16491680Y6923822D02*
G01X16480250Y6935252D01*
G01X16463232Y6941094D01*
G01X16440372Y6941094D01*
G01X16423100Y6935252D01*
G01X16411670Y6923822D01*
G01X16411670Y6912392D01*
G01X16417512Y6900962D01*
G01X16423100Y6895374D01*
G01X16434530Y6889532D01*
G01X16468820Y6878102D01*
G01X16480250Y6872514D01*
G01X16486092Y6866672D01*
G01X16491680Y6855242D01*
G01X16491680Y6838224D01*
G01X16480250Y6826794D01*
G01X16463232Y6820952D01*
G01X16440372Y6820952D01*
G01X16423100Y6826794D01*
G01X16411670Y6838224D01*
G01X16539432Y6941094D02*
G01X16539432Y6820952D01*
G01X16539432Y6878102D02*
G01X16556704Y6895374D01*
G01X16568134Y6900962D01*
G01X16585152Y6900962D01*
G01X16596582Y6895374D01*
G01X16602424Y6878102D01*
G01X16602424Y6820952D01*
G01X16718756Y6900962D02*
G01X16718756Y6820952D01*
G01X16718756Y6883944D02*
G01X16707326Y6895374D01*
G01X16695896Y6900962D01*
G01X16678878Y6900962D01*
G01X16667448Y6895374D01*
G01X16656018Y6883944D01*
G01X16650176Y6866672D01*
G01X16650176Y6855242D01*
G01X16656018Y6838224D01*
G01X16667448Y6826794D01*
G01X16678878Y6820952D01*
G01X16695896Y6820952D01*
G01X16707326Y6826794D01*
G01X16718756Y6838224D01*
G01X16766508Y6900962D02*
G01X16766508Y6781074D01*
G01X16766508Y6883944D02*
G01X16777938Y6895374D01*
G01X16789368Y6900962D01*
G01X16806640Y6900962D01*
G01X16818070Y6895374D01*
G01X16829500Y6883944D01*
G01X16835088Y6866672D01*
G01X16835088Y6855242D01*
G01X16829500Y6838224D01*
G01X16818070Y6826794D01*
G01X16806640Y6820952D01*
G01X16789368Y6820952D01*
G01X16777938Y6826794D01*
G01X16766508Y6838224D01*
G01X16882840Y6866672D02*
G01X16951420Y6866672D01*
G01X16951420Y6878102D01*
G01X16945832Y6889532D01*
G01X16939990Y6895374D01*
G01X16928560Y6900962D01*
G01X16911542Y6900962D01*
G01X16900112Y6895374D01*
G01X16888682Y6883944D01*
G01X16882840Y6866672D01*
G01X16882840Y6855242D01*
G01X16888682Y6838224D01*
G01X16900112Y6826794D01*
G01X16911542Y6820952D01*
G01X16928560Y6820952D01*
G01X16939990Y6826794D01*
G01X16951420Y6838224D01*
G01X17842851Y6941094D02*
G01X17888571Y6820952D01*
G01X17934291Y6941094D02*
G01X17888571Y6820952D01*
G01X17982043Y6941094D02*
G01X17987885Y6935252D01*
G01X17993473Y6941094D01*
G01X17987885Y6946682D01*
G01X17982043Y6941094D01*
G01X17987885Y6900962D02*
G01X17987885Y6820952D01*
G01X18109805Y6900962D02*
G01X18109805Y6820952D01*
G01X18109805Y6883944D02*
G01X18098375Y6895374D01*
G01X18086945Y6900962D01*
G01X18069927Y6900962D01*
G01X18058497Y6895374D01*
G01X18047067Y6883944D01*
G01X18041225Y6866672D01*
G01X18041225Y6855242D01*
G01X18047067Y6838224D01*
G01X18058497Y6826794D01*
G01X18069927Y6820952D01*
G01X18086945Y6820952D01*
G01X18098375Y6826794D01*
G01X18109805Y6838224D01*
G01X18260427Y6963954D02*
G01X18157557Y6781074D01*
G01X18308179Y6941094D02*
G01X18308179Y6820952D01*
G01X18308179Y6941094D02*
G01X18359741Y6941094D01*
G01X18376759Y6935252D01*
G01X18382601Y6929664D01*
G01X18388189Y6918234D01*
G01X18388189Y6900962D01*
G01X18382601Y6889532D01*
G01X18376759Y6883944D01*
G01X18359741Y6878102D01*
G01X18308179Y6878102D01*
G01X18504521Y6900962D02*
G01X18504521Y6820952D01*
G01X18504521Y6883944D02*
G01X18493091Y6895374D01*
G01X18481661Y6900962D01*
G01X18464643Y6900962D01*
G01X18453213Y6895374D01*
G01X18441783Y6883944D01*
G01X18435941Y6866672D01*
G01X18435941Y6855242D01*
G01X18441783Y6838224D01*
G01X18453213Y6826794D01*
G01X18464643Y6820952D01*
G01X18481661Y6820952D01*
G01X18493091Y6826794D01*
G01X18504521Y6838224D01*
G01X18620853Y6941094D02*
G01X18620853Y6820952D01*
G01X18620853Y6883944D02*
G01X18609423Y6895374D01*
G01X18597993Y6900962D01*
G01X18580975Y6900962D01*
G01X18569545Y6895374D01*
G01X18558115Y6883944D01*
G01X18552273Y6866672D01*
G01X18552273Y6855242D01*
G01X18558115Y6838224D01*
G01X18569545Y6826794D01*
G01X18580975Y6820952D01*
G01X18597993Y6820952D01*
G01X18609423Y6826794D01*
G01X18620853Y6838224D01*
G01X19512030Y6941094D02*
G01X19512030Y6820952D01*
G01X19512030Y6941094D02*
G01X19563592Y6941094D01*
G01X19580610Y6935252D01*
G01X19586452Y6929664D01*
G01X19592040Y6918234D01*
G01X19592040Y6900962D01*
G01X19586452Y6889532D01*
G01X19580610Y6883944D01*
G01X19563592Y6878102D01*
G01X19512030Y6878102D01*
G01X19708372Y6900962D02*
G01X19708372Y6820952D01*
G01X19708372Y6883944D02*
G01X19696942Y6895374D01*
G01X19685512Y6900962D01*
G01X19668494Y6900962D01*
G01X19657064Y6895374D01*
G01X19645634Y6883944D01*
G01X19639792Y6866672D01*
G01X19639792Y6855242D01*
G01X19645634Y6838224D01*
G01X19657064Y6826794D01*
G01X19668494Y6820952D01*
G01X19685512Y6820952D01*
G01X19696942Y6826794D01*
G01X19708372Y6838224D01*
G01X19824704Y6941094D02*
G01X19824704Y6820952D01*
G01X19824704Y6883944D02*
G01X19813274Y6895374D01*
G01X19801844Y6900962D01*
G01X19784826Y6900962D01*
G01X19773396Y6895374D01*
G01X19761966Y6883944D01*
G01X19756124Y6866672D01*
G01X19756124Y6855242D01*
G01X19761966Y6838224D01*
G01X19773396Y6826794D01*
G01X19784826Y6820952D01*
G01X19801844Y6820952D01*
G01X19813274Y6826794D01*
G01X19824704Y6838224D01*
G01X20080482Y6923822D02*
G01X20069052Y6935252D01*
G01X20052034Y6941094D01*
G01X20029174Y6941094D01*
G01X20011902Y6935252D01*
G01X20000472Y6923822D01*
G01X20000472Y6912392D01*
G01X20006314Y6900962D01*
G01X20011902Y6895374D01*
G01X20023332Y6889532D01*
G01X20057622Y6878102D01*
G01X20069052Y6872514D01*
G01X20074894Y6866672D01*
G01X20080482Y6855242D01*
G01X20080482Y6838224D01*
G01X20069052Y6826794D01*
G01X20052034Y6820952D01*
G01X20029174Y6820952D01*
G01X20011902Y6826794D01*
G01X20000472Y6838224D01*
G01X20128234Y6941094D02*
G01X20128234Y6820952D01*
G01X20128234Y6878102D02*
G01X20145506Y6895374D01*
G01X20156936Y6900962D01*
G01X20173954Y6900962D01*
G01X20185384Y6895374D01*
G01X20191226Y6878102D01*
G01X20191226Y6820952D01*
G01X20307558Y6900962D02*
G01X20307558Y6820952D01*
G01X20307558Y6883944D02*
G01X20296128Y6895374D01*
G01X20284698Y6900962D01*
G01X20267680Y6900962D01*
G01X20256250Y6895374D01*
G01X20244820Y6883944D01*
G01X20238978Y6866672D01*
G01X20238978Y6855242D01*
G01X20244820Y6838224D01*
G01X20256250Y6826794D01*
G01X20267680Y6820952D01*
G01X20284698Y6820952D01*
G01X20296128Y6826794D01*
G01X20307558Y6838224D01*
G01X20355310Y6900962D02*
G01X20355310Y6781074D01*
G01X20355310Y6883944D02*
G01X20366740Y6895374D01*
G01X20378170Y6900962D01*
G01X20395442Y6900962D01*
G01X20406872Y6895374D01*
G01X20418302Y6883944D01*
G01X20423890Y6866672D01*
G01X20423890Y6855242D01*
G01X20418302Y6838224D01*
G01X20406872Y6826794D01*
G01X20395442Y6820952D01*
G01X20378170Y6820952D01*
G01X20366740Y6826794D01*
G01X20355310Y6838224D01*
G01X20471642Y6866672D02*
G01X20540222Y6866672D01*
G01X20540222Y6878102D01*
G01X20534634Y6889532D01*
G01X20528792Y6895374D01*
G01X20517362Y6900962D01*
G01X20500344Y6900962D01*
G01X20488914Y6895374D01*
G01X20477484Y6883944D01*
G01X20471642Y6866672D01*
G01X20471642Y6855242D01*
G01X20477484Y6838224D01*
G01X20488914Y6826794D01*
G01X20500344Y6820952D01*
G01X20517362Y6820952D01*
G01X20528792Y6826794D01*
G01X20540222Y6838224D01*
G01X21431399Y6941094D02*
G01X21431399Y6820952D01*
G01X21431399Y6820952D02*
G01X21499979Y6820952D01*
G01X21616311Y6900962D02*
G01X21616311Y6820952D01*
G01X21616311Y6883944D02*
G01X21604881Y6895374D01*
G01X21593451Y6900962D01*
G01X21576433Y6900962D01*
G01X21565003Y6895374D01*
G01X21553573Y6883944D01*
G01X21547731Y6866672D01*
G01X21547731Y6855242D01*
G01X21553573Y6838224D01*
G01X21565003Y6826794D01*
G01X21576433Y6820952D01*
G01X21593451Y6820952D01*
G01X21604881Y6826794D01*
G01X21616311Y6838224D01*
G01X21669905Y6900962D02*
G01X21704195Y6820952D01*
G01X21738485Y6900962D02*
G01X21704195Y6820952D01*
G01X21692765Y6798092D01*
G01X21681335Y6786662D01*
G01X21669905Y6781074D01*
G01X21664063Y6781074D01*
G01X21786237Y6866672D02*
G01X21854817Y6866672D01*
G01X21854817Y6878102D01*
G01X21849229Y6889532D01*
G01X21843387Y6895374D01*
G01X21831957Y6900962D01*
G01X21814939Y6900962D01*
G01X21803509Y6895374D01*
G01X21792079Y6883944D01*
G01X21786237Y6866672D01*
G01X21786237Y6855242D01*
G01X21792079Y6838224D01*
G01X21803509Y6826794D01*
G01X21814939Y6820952D01*
G01X21831957Y6820952D01*
G01X21843387Y6826794D01*
G01X21854817Y6838224D01*
G01X21902569Y6900962D02*
G01X21902569Y6820952D01*
G01X21902569Y6866672D02*
G01X21908411Y6883944D01*
G01X21919841Y6895374D01*
G01X21931271Y6900962D01*
G01X21948289Y6900962D01*
G01X22124057Y6941094D02*
G01X22124057Y6820952D01*
G01X22124057Y6941094D02*
G01X22175619Y6941094D01*
G01X22192637Y6935252D01*
G01X22198479Y6929664D01*
G01X22204067Y6918234D01*
G01X22204067Y6900962D01*
G01X22198479Y6889532D01*
G01X22192637Y6883944D01*
G01X22175619Y6878102D01*
G01X22124057Y6878102D01*
G01X22320399Y6900962D02*
G01X22320399Y6820952D01*
G01X22320399Y6883944D02*
G01X22308969Y6895374D01*
G01X22297539Y6900962D01*
G01X22280521Y6900962D01*
G01X22269091Y6895374D01*
G01X22257661Y6883944D01*
G01X22251819Y6866672D01*
G01X22251819Y6855242D01*
G01X22257661Y6838224D01*
G01X22269091Y6826794D01*
G01X22280521Y6820952D01*
G01X22297539Y6820952D01*
G01X22308969Y6826794D01*
G01X22320399Y6838224D01*
G01X22368151Y6941094D02*
G01X22373993Y6935252D01*
G01X22379581Y6941094D01*
G01X22373993Y6946682D01*
G01X22368151Y6941094D01*
G01X22373993Y6900962D02*
G01X22373993Y6820952D01*
G01X22427333Y6900962D02*
G01X22427333Y6820952D01*
G01X22427333Y6866672D02*
G01X22433175Y6883944D01*
G01X22444605Y6895374D01*
G01X22456035Y6900962D01*
G01X22473053Y6900962D01*
G01X9790724Y6360523D02*
G01X9733574Y6280513D01*
G01X9819426Y6280513D01*
G01X9790724Y6360523D02*
G01X9790724Y6240381D01*
G01X11227747Y6360523D02*
G01X11170597Y6240381D01*
G01X11147737Y6360523D02*
G01X11227747Y6360523D01*
G01X11304201Y6360523D02*
G01X11286929Y6354681D01*
G01X11281341Y6343251D01*
G01X11281341Y6331821D01*
G01X11286929Y6320391D01*
G01X11298359Y6314803D01*
G01X11321219Y6308961D01*
G01X11338491Y6303373D01*
G01X11349921Y6291943D01*
G01X11355509Y6280513D01*
G01X11355509Y6263241D01*
G01X11349921Y6251811D01*
G01X11344079Y6246223D01*
G01X11327061Y6240381D01*
G01X11304201Y6240381D01*
G01X11286929Y6246223D01*
G01X11281341Y6251811D01*
G01X11275499Y6263241D01*
G01X11275499Y6280513D01*
G01X11281341Y6291943D01*
G01X11292771Y6303373D01*
G01X11309789Y6308961D01*
G01X11332649Y6314803D01*
G01X11344079Y6320391D01*
G01X11349921Y6331821D01*
G01X11349921Y6343251D01*
G01X11344079Y6354681D01*
G01X11327061Y6360523D01*
G01X11304201Y6360523D01*
G01X11409103Y6269083D02*
G01X11403261Y6263241D01*
G01X11409103Y6257653D01*
G01X11414691Y6263241D01*
G01X11409103Y6269083D01*
G01X11542453Y6360523D02*
G01X11485303Y6240381D01*
G01X11462443Y6360523D02*
G01X11542453Y6360523D01*
G01X11590205Y6320391D02*
G01X11590205Y6240381D01*
G01X11590205Y6297531D02*
G01X11607477Y6314803D01*
G01X11618907Y6320391D01*
G01X11635925Y6320391D01*
G01X11647355Y6314803D01*
G01X11653197Y6297531D01*
G01X11653197Y6240381D01*
G01X11653197Y6297531D02*
G01X11670215Y6314803D01*
G01X11681645Y6320391D01*
G01X11698917Y6320391D01*
G01X11710347Y6314803D01*
G01X11715935Y6297531D01*
G01X11715935Y6240381D01*
G01X11763687Y6360523D02*
G01X11769529Y6354681D01*
G01X11775117Y6360523D01*
G01X11769529Y6366111D01*
G01X11763687Y6360523D01*
G01X11769529Y6320391D02*
G01X11769529Y6240381D01*
G01X11822869Y6360523D02*
G01X11822869Y6240381D01*
G01X11910753Y6383383D02*
G01X11899323Y6371953D01*
G01X11887893Y6354681D01*
G01X11876463Y6331821D01*
G01X11870621Y6303373D01*
G01X11870621Y6280513D01*
G01X11876463Y6251811D01*
G01X11887893Y6228951D01*
G01X11899323Y6211933D01*
G01X11910753Y6200503D01*
G01X11964347Y6331821D02*
G01X11964347Y6337663D01*
G01X11969935Y6349093D01*
G01X11975777Y6354681D01*
G01X11987207Y6360523D01*
G01X12010067Y6360523D01*
G01X12021497Y6354681D01*
G01X12027085Y6349093D01*
G01X12032927Y6337663D01*
G01X12032927Y6326233D01*
G01X12027085Y6314803D01*
G01X12015655Y6297531D01*
G01X11958505Y6240381D01*
G01X12038515Y6240381D01*
G01X12092109Y6269083D02*
G01X12086267Y6263241D01*
G01X12092109Y6257653D01*
G01X12097697Y6263241D01*
G01X12092109Y6269083D01*
G01X12179739Y6360523D02*
G01X12162721Y6354681D01*
G01X12151291Y6337663D01*
G01X12145449Y6308961D01*
G01X12145449Y6291943D01*
G01X12151291Y6263241D01*
G01X12162721Y6246223D01*
G01X12179739Y6240381D01*
G01X12191169Y6240381D01*
G01X12208441Y6246223D01*
G01X12219871Y6263241D01*
G01X12225459Y6291943D01*
G01X12225459Y6308961D01*
G01X12219871Y6337663D01*
G01X12208441Y6354681D01*
G01X12191169Y6360523D01*
G01X12179739Y6360523D01*
G01X12307501Y6360523D02*
G01X12290483Y6354681D01*
G01X12279053Y6337663D01*
G01X12273211Y6308961D01*
G01X12273211Y6291943D01*
G01X12279053Y6263241D01*
G01X12290483Y6246223D01*
G01X12307501Y6240381D01*
G01X12318931Y6240381D01*
G01X12336203Y6246223D01*
G01X12347633Y6263241D01*
G01X12353221Y6291943D01*
G01X12353221Y6308961D01*
G01X12347633Y6337663D01*
G01X12336203Y6354681D01*
G01X12318931Y6360523D01*
G01X12307501Y6360523D01*
G01X12435263Y6360523D02*
G01X12418245Y6354681D01*
G01X12406815Y6337663D01*
G01X12400973Y6308961D01*
G01X12400973Y6291943D01*
G01X12406815Y6263241D01*
G01X12418245Y6246223D01*
G01X12435263Y6240381D01*
G01X12446693Y6240381D01*
G01X12463965Y6246223D01*
G01X12475395Y6263241D01*
G01X12480983Y6291943D01*
G01X12480983Y6308961D01*
G01X12475395Y6337663D01*
G01X12463965Y6354681D01*
G01X12446693Y6360523D01*
G01X12435263Y6360523D01*
G01X12528735Y6320391D02*
G01X12528735Y6240381D01*
G01X12528735Y6297531D02*
G01X12546007Y6314803D01*
G01X12557437Y6320391D01*
G01X12574455Y6320391D01*
G01X12585885Y6314803D01*
G01X12591727Y6297531D01*
G01X12591727Y6240381D01*
G01X12591727Y6297531D02*
G01X12608745Y6314803D01*
G01X12620175Y6320391D01*
G01X12637447Y6320391D01*
G01X12648877Y6314803D01*
G01X12654465Y6297531D01*
G01X12654465Y6240381D01*
G01X12702217Y6320391D02*
G01X12702217Y6240381D01*
G01X12702217Y6297531D02*
G01X12719489Y6314803D01*
G01X12730919Y6320391D01*
G01X12747937Y6320391D01*
G01X12759367Y6314803D01*
G01X12765209Y6297531D01*
G01X12765209Y6240381D01*
G01X12765209Y6297531D02*
G01X12782227Y6314803D01*
G01X12793657Y6320391D01*
G01X12810929Y6320391D01*
G01X12822359Y6314803D01*
G01X12827947Y6297531D01*
G01X12827947Y6240381D01*
G01X12875699Y6383383D02*
G01X12887129Y6371953D01*
G01X12898559Y6354681D01*
G01X12909989Y6331821D01*
G01X12915831Y6303373D01*
G01X12915831Y6280513D01*
G01X12909989Y6251811D01*
G01X12898559Y6228951D01*
G01X12887129Y6211933D01*
G01X12875699Y6200503D01*
G01X14950263Y6360523D02*
G01X14950263Y6240381D01*
G01X14950263Y6360523D02*
G01X15030273Y6240381D01*
G01X15030273Y6360523D02*
G01X15030273Y6240381D01*
G01X15078025Y6360523D02*
G01X15078025Y6240381D01*
G01X15078025Y6360523D02*
G01X15129587Y6360523D01*
G01X15146605Y6354681D01*
G01X15152447Y6349093D01*
G01X15158035Y6337663D01*
G01X15158035Y6320391D01*
G01X15152447Y6308961D01*
G01X15146605Y6303373D01*
G01X15129587Y6297531D01*
G01X15078025Y6297531D01*
G01X15245919Y6360523D02*
G01X15245919Y6240381D01*
G01X15205787Y6360523D02*
G01X15285797Y6360523D01*
G01X15333549Y6360523D02*
G01X15333549Y6240381D01*
G01X15413559Y6360523D02*
G01X15413559Y6240381D01*
G01X15333549Y6303373D02*
G01X15413559Y6303373D01*
G01X16411670Y6360523D02*
G01X16411670Y6240381D01*
G01X16411670Y6360523D02*
G01X16463232Y6360523D01*
G01X16480250Y6354681D01*
G01X16486092Y6349093D01*
G01X16491680Y6337663D01*
G01X16491680Y6326233D01*
G01X16486092Y6314803D01*
G01X16480250Y6308961D01*
G01X16463232Y6303373D01*
G01X16411670Y6303373D01*
G01X16451802Y6303373D02*
G01X16491680Y6240381D01*
G01X16568134Y6320391D02*
G01X16556704Y6314803D01*
G01X16545274Y6303373D01*
G01X16539432Y6286101D01*
G01X16539432Y6274671D01*
G01X16545274Y6257653D01*
G01X16556704Y6246223D01*
G01X16568134Y6240381D01*
G01X16585152Y6240381D01*
G01X16596582Y6246223D01*
G01X16608012Y6257653D01*
G01X16613854Y6274671D01*
G01X16613854Y6286101D01*
G01X16608012Y6303373D01*
G01X16596582Y6314803D01*
G01X16585152Y6320391D01*
G01X16568134Y6320391D01*
G01X16661606Y6320391D02*
G01X16661606Y6263241D01*
G01X16667448Y6246223D01*
G01X16678878Y6240381D01*
G01X16695896Y6240381D01*
G01X16707326Y6246223D01*
G01X16724598Y6263241D01*
G01X16724598Y6320391D02*
G01X16724598Y6240381D01*
G01X16772350Y6320391D02*
G01X16772350Y6240381D01*
G01X16772350Y6297531D02*
G01X16789622Y6314803D01*
G01X16801052Y6320391D01*
G01X16818070Y6320391D01*
G01X16829500Y6314803D01*
G01X16835342Y6297531D01*
G01X16835342Y6240381D01*
G01X16951674Y6360523D02*
G01X16951674Y6240381D01*
G01X16951674Y6303373D02*
G01X16940244Y6314803D01*
G01X16928814Y6320391D01*
G01X16911796Y6320391D01*
G01X16900366Y6314803D01*
G01X16888936Y6303373D01*
G01X16883094Y6286101D01*
G01X16883094Y6274671D01*
G01X16888936Y6257653D01*
G01X16900366Y6246223D01*
G01X16911796Y6240381D01*
G01X16928814Y6240381D01*
G01X16940244Y6246223D01*
G01X16951674Y6257653D01*
G01X17842851Y6360523D02*
G01X17888571Y6240381D01*
G01X17934291Y6360523D02*
G01X17888571Y6240381D01*
G01X17982043Y6360523D02*
G01X17987885Y6354681D01*
G01X17993473Y6360523D01*
G01X17987885Y6366111D01*
G01X17982043Y6360523D01*
G01X17987885Y6320391D02*
G01X17987885Y6240381D01*
G01X18109805Y6320391D02*
G01X18109805Y6240381D01*
G01X18109805Y6303373D02*
G01X18098375Y6314803D01*
G01X18086945Y6320391D01*
G01X18069927Y6320391D01*
G01X18058497Y6314803D01*
G01X18047067Y6303373D01*
G01X18041225Y6286101D01*
G01X18041225Y6274671D01*
G01X18047067Y6257653D01*
G01X18058497Y6246223D01*
G01X18069927Y6240381D01*
G01X18086945Y6240381D01*
G01X18098375Y6246223D01*
G01X18109805Y6257653D01*
G01X21471531Y6360523D02*
G01X21471531Y6240381D01*
G01X21431399Y6360523D02*
G01X21511409Y6360523D01*
G01X21587863Y6320391D02*
G01X21576433Y6314803D01*
G01X21565003Y6303373D01*
G01X21559161Y6286101D01*
G01X21559161Y6274671D01*
G01X21565003Y6257653D01*
G01X21576433Y6246223D01*
G01X21587863Y6240381D01*
G01X21604881Y6240381D01*
G01X21616311Y6246223D01*
G01X21627741Y6257653D01*
G01X21633583Y6274671D01*
G01X21633583Y6286101D01*
G01X21627741Y6303373D01*
G01X21616311Y6314803D01*
G01X21604881Y6320391D01*
G01X21587863Y6320391D01*
G01X21681335Y6320391D02*
G01X21681335Y6200503D01*
G01X21681335Y6303373D02*
G01X21692765Y6314803D01*
G01X21704195Y6320391D01*
G01X21721467Y6320391D01*
G01X21732897Y6314803D01*
G01X21744327Y6303373D01*
G01X21749915Y6286101D01*
G01X21749915Y6274671D01*
G01X21744327Y6257653D01*
G01X21732897Y6246223D01*
G01X21721467Y6240381D01*
G01X21704195Y6240381D01*
G01X21692765Y6246223D01*
G01X21681335Y6257653D01*
G01X21925683Y6360523D02*
G01X21925683Y6240381D01*
G01X21925683Y6240381D02*
G01X21994263Y6240381D01*
G01X22110595Y6320391D02*
G01X22110595Y6240381D01*
G01X22110595Y6303373D02*
G01X22099165Y6314803D01*
G01X22087735Y6320391D01*
G01X22070717Y6320391D01*
G01X22059287Y6314803D01*
G01X22047857Y6303373D01*
G01X22042015Y6286101D01*
G01X22042015Y6274671D01*
G01X22047857Y6257653D01*
G01X22059287Y6246223D01*
G01X22070717Y6240381D01*
G01X22087735Y6240381D01*
G01X22099165Y6246223D01*
G01X22110595Y6257653D01*
G01X22164189Y6320391D02*
G01X22198479Y6240381D01*
G01X22232769Y6320391D02*
G01X22198479Y6240381D01*
G01X22187049Y6217521D01*
G01X22175619Y6206091D01*
G01X22164189Y6200503D01*
G01X22158347Y6200503D01*
G01X22280521Y6286101D02*
G01X22349101Y6286101D01*
G01X22349101Y6297531D01*
G01X22343513Y6308961D01*
G01X22337671Y6314803D01*
G01X22326241Y6320391D01*
G01X22309223Y6320391D01*
G01X22297793Y6314803D01*
G01X22286363Y6303373D01*
G01X22280521Y6286101D01*
G01X22280521Y6274671D01*
G01X22286363Y6257653D01*
G01X22297793Y6246223D01*
G01X22309223Y6240381D01*
G01X22326241Y6240381D01*
G01X22337671Y6246223D01*
G01X22349101Y6257653D01*
G01X22396853Y6320391D02*
G01X22396853Y6240381D01*
G01X22396853Y6286101D02*
G01X22402695Y6303373D01*
G01X22414125Y6314803D01*
G01X22425555Y6320391D01*
G01X22442573Y6320391D01*
G01X22490325Y6291943D02*
G01X22593195Y6291943D01*
G01X22640947Y6360523D02*
G01X22640947Y6240381D01*
G01X22640947Y6360523D02*
G01X22692509Y6360523D01*
G01X22709527Y6354681D01*
G01X22715369Y6349093D01*
G01X22720957Y6337663D01*
G01X22720957Y6326233D01*
G01X22715369Y6314803D01*
G01X22709527Y6308961D01*
G01X22692509Y6303373D01*
G01X22640947Y6303373D02*
G01X22692509Y6303373D01*
G01X22709527Y6297531D01*
G01X22715369Y6291943D01*
G01X22720957Y6280513D01*
G01X22720957Y6263241D01*
G01X22715369Y6251811D01*
G01X22709527Y6246223D01*
G01X22692509Y6240381D01*
G01X22640947Y6240381D01*
G01X22797411Y6320391D02*
G01X22785981Y6314803D01*
G01X22774551Y6303373D01*
G01X22768709Y6286101D01*
G01X22768709Y6274671D01*
G01X22774551Y6257653D01*
G01X22785981Y6246223D01*
G01X22797411Y6240381D01*
G01X22814429Y6240381D01*
G01X22825859Y6246223D01*
G01X22837289Y6257653D01*
G01X22843131Y6274671D01*
G01X22843131Y6286101D01*
G01X22837289Y6303373D01*
G01X22825859Y6314803D01*
G01X22814429Y6320391D01*
G01X22797411Y6320391D01*
G01X22908155Y6360523D02*
G01X22908155Y6263241D01*
G01X22913743Y6246223D01*
G01X22925173Y6240381D01*
G01X22936603Y6240381D01*
G01X22890883Y6320391D02*
G01X22931015Y6320391D01*
G01X23001627Y6360523D02*
G01X23001627Y6263241D01*
G01X23007215Y6246223D01*
G01X23018645Y6240381D01*
G01X23030075Y6240381D01*
G01X22984355Y6320391D02*
G01X23024487Y6320391D01*
G01X23106529Y6320391D02*
G01X23095099Y6314803D01*
G01X23083669Y6303373D01*
G01X23077827Y6286101D01*
G01X23077827Y6274671D01*
G01X23083669Y6257653D01*
G01X23095099Y6246223D01*
G01X23106529Y6240381D01*
G01X23123547Y6240381D01*
G01X23134977Y6246223D01*
G01X23146407Y6257653D01*
G01X23152249Y6274671D01*
G01X23152249Y6286101D01*
G01X23146407Y6303373D01*
G01X23134977Y6314803D01*
G01X23123547Y6320391D01*
G01X23106529Y6320391D01*
G01X23200001Y6320391D02*
G01X23200001Y6240381D01*
G01X23200001Y6297531D02*
G01X23217273Y6314803D01*
G01X23228703Y6320391D01*
G01X23245721Y6320391D01*
G01X23257151Y6314803D01*
G01X23262993Y6297531D01*
G01X23262993Y6240381D01*
G01X23262993Y6297531D02*
G01X23280011Y6314803D01*
G01X23291441Y6320391D01*
G01X23308713Y6320391D01*
G01X23320143Y6314803D01*
G01X23325731Y6297531D01*
G01X23325731Y6240381D01*
G01X23501499Y6360523D02*
G01X23501499Y6240381D01*
G01X23501499Y6240381D02*
G01X23570079Y6240381D01*
G01X23686411Y6320391D02*
G01X23686411Y6240381D01*
G01X23686411Y6303373D02*
G01X23674981Y6314803D01*
G01X23663551Y6320391D01*
G01X23646533Y6320391D01*
G01X23635103Y6314803D01*
G01X23623673Y6303373D01*
G01X23617831Y6286101D01*
G01X23617831Y6274671D01*
G01X23623673Y6257653D01*
G01X23635103Y6246223D01*
G01X23646533Y6240381D01*
G01X23663551Y6240381D01*
G01X23674981Y6246223D01*
G01X23686411Y6257653D01*
G01X23740005Y6320391D02*
G01X23774295Y6240381D01*
G01X23808585Y6320391D02*
G01X23774295Y6240381D01*
G01X23762865Y6217521D01*
G01X23751435Y6206091D01*
G01X23740005Y6200503D01*
G01X23734163Y6200503D01*
G01X23856337Y6286101D02*
G01X23924917Y6286101D01*
G01X23924917Y6297531D01*
G01X23919329Y6308961D01*
G01X23913487Y6314803D01*
G01X23902057Y6320391D01*
G01X23885039Y6320391D01*
G01X23873609Y6314803D01*
G01X23862179Y6303373D01*
G01X23856337Y6286101D01*
G01X23856337Y6274671D01*
G01X23862179Y6257653D01*
G01X23873609Y6246223D01*
G01X23885039Y6240381D01*
G01X23902057Y6240381D01*
G01X23913487Y6246223D01*
G01X23924917Y6257653D01*
G01X23972669Y6320391D02*
G01X23972669Y6240381D01*
G01X23972669Y6286101D02*
G01X23978511Y6303373D01*
G01X23989941Y6314803D01*
G01X24001371Y6320391D01*
G01X24018389Y6320391D01*
G01X9739416Y5751249D02*
G01X9739416Y5757091D01*
G01X9745004Y5768521D01*
G01X9750846Y5774109D01*
G01X9762276Y5779951D01*
G01X9785136Y5779951D01*
G01X9796566Y5774109D01*
G01X9802154Y5768521D01*
G01X9807996Y5757091D01*
G01X9807996Y5745661D01*
G01X9802154Y5734231D01*
G01X9790724Y5716959D01*
G01X9733574Y5659809D01*
G01X9813584Y5659809D01*
G01X9941346Y5779951D02*
G01X9884196Y5659809D01*
G01X9861336Y5779951D02*
G01X9941346Y5779951D01*
G01X11147737Y5757091D02*
G01X11159167Y5762679D01*
G01X11176439Y5779951D01*
G01X11176439Y5659809D01*
G01X11230033Y5751249D02*
G01X11230033Y5757091D01*
G01X11235621Y5768521D01*
G01X11241463Y5774109D01*
G01X11252893Y5779951D01*
G01X11275753Y5779951D01*
G01X11287183Y5774109D01*
G01X11292771Y5768521D01*
G01X11298613Y5757091D01*
G01X11298613Y5745661D01*
G01X11292771Y5734231D01*
G01X11281341Y5716959D01*
G01X11224191Y5659809D01*
G01X11304201Y5659809D01*
G01X11357795Y5688511D02*
G01X11351953Y5682669D01*
G01X11357795Y5677081D01*
G01X11363383Y5682669D01*
G01X11357795Y5688511D01*
G01X11445425Y5779951D02*
G01X11428407Y5774109D01*
G01X11416977Y5757091D01*
G01X11411135Y5728389D01*
G01X11411135Y5711371D01*
G01X11416977Y5682669D01*
G01X11428407Y5665651D01*
G01X11445425Y5659809D01*
G01X11456855Y5659809D01*
G01X11474127Y5665651D01*
G01X11485557Y5682669D01*
G01X11491145Y5711371D01*
G01X11491145Y5728389D01*
G01X11485557Y5757091D01*
G01X11474127Y5774109D01*
G01X11456855Y5779951D01*
G01X11445425Y5779951D01*
G01X11538897Y5739819D02*
G01X11538897Y5659809D01*
G01X11538897Y5716959D02*
G01X11556169Y5734231D01*
G01X11567599Y5739819D01*
G01X11584617Y5739819D01*
G01X11596047Y5734231D01*
G01X11601889Y5716959D01*
G01X11601889Y5659809D01*
G01X11601889Y5716959D02*
G01X11618907Y5734231D01*
G01X11630337Y5739819D01*
G01X11647609Y5739819D01*
G01X11659039Y5734231D01*
G01X11664627Y5716959D01*
G01X11664627Y5659809D01*
G01X11712379Y5779951D02*
G01X11718221Y5774109D01*
G01X11723809Y5779951D01*
G01X11718221Y5785539D01*
G01X11712379Y5779951D01*
G01X11718221Y5739819D02*
G01X11718221Y5659809D01*
G01X11771561Y5779951D02*
G01X11771561Y5659809D01*
G01X11859445Y5802811D02*
G01X11848015Y5791381D01*
G01X11836585Y5774109D01*
G01X11825155Y5751249D01*
G01X11819313Y5722801D01*
G01X11819313Y5699941D01*
G01X11825155Y5671239D01*
G01X11836585Y5648379D01*
G01X11848015Y5631361D01*
G01X11859445Y5619931D01*
G01X11941487Y5779951D02*
G01X11924469Y5774109D01*
G01X11913039Y5757091D01*
G01X11907197Y5728389D01*
G01X11907197Y5711371D01*
G01X11913039Y5682669D01*
G01X11924469Y5665651D01*
G01X11941487Y5659809D01*
G01X11952917Y5659809D01*
G01X11970189Y5665651D01*
G01X11981619Y5682669D01*
G01X11987207Y5711371D01*
G01X11987207Y5728389D01*
G01X11981619Y5757091D01*
G01X11970189Y5774109D01*
G01X11952917Y5779951D01*
G01X11941487Y5779951D01*
G01X12040801Y5688511D02*
G01X12034959Y5682669D01*
G01X12040801Y5677081D01*
G01X12046389Y5682669D01*
G01X12040801Y5688511D01*
G01X12105571Y5779951D02*
G01X12168563Y5779951D01*
G01X12134273Y5734231D01*
G01X12151291Y5734231D01*
G01X12162721Y5728389D01*
G01X12168563Y5722801D01*
G01X12174151Y5705529D01*
G01X12174151Y5694099D01*
G01X12168563Y5677081D01*
G01X12157133Y5665651D01*
G01X12139861Y5659809D01*
G01X12122843Y5659809D01*
G01X12105571Y5665651D01*
G01X12099983Y5671239D01*
G01X12094141Y5682669D01*
G01X12256193Y5779951D02*
G01X12239175Y5774109D01*
G01X12227745Y5757091D01*
G01X12221903Y5728389D01*
G01X12221903Y5711371D01*
G01X12227745Y5682669D01*
G01X12239175Y5665651D01*
G01X12256193Y5659809D01*
G01X12267623Y5659809D01*
G01X12284895Y5665651D01*
G01X12296325Y5682669D01*
G01X12301913Y5711371D01*
G01X12301913Y5728389D01*
G01X12296325Y5757091D01*
G01X12284895Y5774109D01*
G01X12267623Y5779951D01*
G01X12256193Y5779951D01*
G01X12418245Y5779951D02*
G01X12361095Y5779951D01*
G01X12355507Y5728389D01*
G01X12361095Y5734231D01*
G01X12378367Y5739819D01*
G01X12395385Y5739819D01*
G01X12412657Y5734231D01*
G01X12424087Y5722801D01*
G01X12429675Y5705529D01*
G01X12429675Y5694099D01*
G01X12424087Y5677081D01*
G01X12412657Y5665651D01*
G01X12395385Y5659809D01*
G01X12378367Y5659809D01*
G01X12361095Y5665651D01*
G01X12355507Y5671239D01*
G01X12349665Y5682669D01*
G01X12477427Y5739819D02*
G01X12477427Y5659809D01*
G01X12477427Y5716959D02*
G01X12494699Y5734231D01*
G01X12506129Y5739819D01*
G01X12523147Y5739819D01*
G01X12534577Y5734231D01*
G01X12540419Y5716959D01*
G01X12540419Y5659809D01*
G01X12540419Y5716959D02*
G01X12557437Y5734231D01*
G01X12568867Y5739819D01*
G01X12586139Y5739819D01*
G01X12597569Y5734231D01*
G01X12603157Y5716959D01*
G01X12603157Y5659809D01*
G01X12650909Y5739819D02*
G01X12650909Y5659809D01*
G01X12650909Y5716959D02*
G01X12668181Y5734231D01*
G01X12679611Y5739819D01*
G01X12696629Y5739819D01*
G01X12708059Y5734231D01*
G01X12713901Y5716959D01*
G01X12713901Y5659809D01*
G01X12713901Y5716959D02*
G01X12730919Y5734231D01*
G01X12742349Y5739819D01*
G01X12759621Y5739819D01*
G01X12771051Y5734231D01*
G01X12776639Y5716959D01*
G01X12776639Y5659809D01*
G01X12824391Y5802811D02*
G01X12835821Y5791381D01*
G01X12847251Y5774109D01*
G01X12858681Y5751249D01*
G01X12864523Y5722801D01*
G01X12864523Y5699941D01*
G01X12858681Y5671239D01*
G01X12847251Y5648379D01*
G01X12835821Y5631361D01*
G01X12824391Y5619931D01*
G01X14950263Y5779951D02*
G01X14950263Y5659809D01*
G01X14950263Y5779951D02*
G01X15001825Y5779951D01*
G01X15018843Y5774109D01*
G01X15024685Y5768521D01*
G01X15030273Y5757091D01*
G01X15030273Y5739819D01*
G01X15024685Y5728389D01*
G01X15018843Y5722801D01*
G01X15001825Y5716959D01*
G01X14950263Y5716959D01*
G01X15118157Y5779951D02*
G01X15118157Y5659809D01*
G01X15078025Y5779951D02*
G01X15158035Y5779951D01*
G01X15205787Y5779951D02*
G01X15205787Y5659809D01*
G01X15285797Y5779951D02*
G01X15285797Y5659809D01*
G01X15205787Y5722801D02*
G01X15285797Y5722801D01*
G01X16411670Y5779951D02*
G01X16411670Y5659809D01*
G01X16411670Y5779951D02*
G01X16463232Y5779951D01*
G01X16480250Y5774109D01*
G01X16486092Y5768521D01*
G01X16491680Y5757091D01*
G01X16491680Y5745661D01*
G01X16486092Y5734231D01*
G01X16480250Y5728389D01*
G01X16463232Y5722801D01*
G01X16411670Y5722801D01*
G01X16451802Y5722801D02*
G01X16491680Y5659809D01*
G01X16568134Y5739819D02*
G01X16556704Y5734231D01*
G01X16545274Y5722801D01*
G01X16539432Y5705529D01*
G01X16539432Y5694099D01*
G01X16545274Y5677081D01*
G01X16556704Y5665651D01*
G01X16568134Y5659809D01*
G01X16585152Y5659809D01*
G01X16596582Y5665651D01*
G01X16608012Y5677081D01*
G01X16613854Y5694099D01*
G01X16613854Y5705529D01*
G01X16608012Y5722801D01*
G01X16596582Y5734231D01*
G01X16585152Y5739819D01*
G01X16568134Y5739819D01*
G01X16661606Y5739819D02*
G01X16661606Y5682669D01*
G01X16667448Y5665651D01*
G01X16678878Y5659809D01*
G01X16695896Y5659809D01*
G01X16707326Y5665651D01*
G01X16724598Y5682669D01*
G01X16724598Y5739819D02*
G01X16724598Y5659809D01*
G01X16772350Y5739819D02*
G01X16772350Y5659809D01*
G01X16772350Y5716959D02*
G01X16789622Y5734231D01*
G01X16801052Y5739819D01*
G01X16818070Y5739819D01*
G01X16829500Y5734231D01*
G01X16835342Y5716959D01*
G01X16835342Y5659809D01*
G01X16951674Y5779951D02*
G01X16951674Y5659809D01*
G01X16951674Y5722801D02*
G01X16940244Y5734231D01*
G01X16928814Y5739819D01*
G01X16911796Y5739819D01*
G01X16900366Y5734231D01*
G01X16888936Y5722801D01*
G01X16883094Y5705529D01*
G01X16883094Y5694099D01*
G01X16888936Y5677081D01*
G01X16900366Y5665651D01*
G01X16911796Y5659809D01*
G01X16928814Y5659809D01*
G01X16940244Y5665651D01*
G01X16951674Y5677081D01*
G01X17842851Y5779951D02*
G01X17888571Y5659809D01*
G01X17934291Y5779951D02*
G01X17888571Y5659809D01*
G01X17982043Y5779951D02*
G01X17987885Y5774109D01*
G01X17993473Y5779951D01*
G01X17987885Y5785539D01*
G01X17982043Y5779951D01*
G01X17987885Y5739819D02*
G01X17987885Y5659809D01*
G01X18109805Y5739819D02*
G01X18109805Y5659809D01*
G01X18109805Y5722801D02*
G01X18098375Y5734231D01*
G01X18086945Y5739819D01*
G01X18069927Y5739819D01*
G01X18058497Y5734231D01*
G01X18047067Y5722801D01*
G01X18041225Y5705529D01*
G01X18041225Y5694099D01*
G01X18047067Y5677081D01*
G01X18058497Y5665651D01*
G01X18069927Y5659809D01*
G01X18086945Y5659809D01*
G01X18098375Y5665651D01*
G01X18109805Y5677081D01*
G01X21471531Y5779951D02*
G01X21471531Y5659809D01*
G01X21431399Y5779951D02*
G01X21511409Y5779951D01*
G01X21587863Y5739819D02*
G01X21576433Y5734231D01*
G01X21565003Y5722801D01*
G01X21559161Y5705529D01*
G01X21559161Y5694099D01*
G01X21565003Y5677081D01*
G01X21576433Y5665651D01*
G01X21587863Y5659809D01*
G01X21604881Y5659809D01*
G01X21616311Y5665651D01*
G01X21627741Y5677081D01*
G01X21633583Y5694099D01*
G01X21633583Y5705529D01*
G01X21627741Y5722801D01*
G01X21616311Y5734231D01*
G01X21604881Y5739819D01*
G01X21587863Y5739819D01*
G01X21681335Y5739819D02*
G01X21681335Y5619931D01*
G01X21681335Y5722801D02*
G01X21692765Y5734231D01*
G01X21704195Y5739819D01*
G01X21721467Y5739819D01*
G01X21732897Y5734231D01*
G01X21744327Y5722801D01*
G01X21749915Y5705529D01*
G01X21749915Y5694099D01*
G01X21744327Y5677081D01*
G01X21732897Y5665651D01*
G01X21721467Y5659809D01*
G01X21704195Y5659809D01*
G01X21692765Y5665651D01*
G01X21681335Y5677081D01*
G01X21925683Y5779951D02*
G01X21925683Y5659809D01*
G01X21925683Y5659809D02*
G01X21994263Y5659809D01*
G01X22110595Y5739819D02*
G01X22110595Y5659809D01*
G01X22110595Y5722801D02*
G01X22099165Y5734231D01*
G01X22087735Y5739819D01*
G01X22070717Y5739819D01*
G01X22059287Y5734231D01*
G01X22047857Y5722801D01*
G01X22042015Y5705529D01*
G01X22042015Y5694099D01*
G01X22047857Y5677081D01*
G01X22059287Y5665651D01*
G01X22070717Y5659809D01*
G01X22087735Y5659809D01*
G01X22099165Y5665651D01*
G01X22110595Y5677081D01*
G01X22164189Y5739819D02*
G01X22198479Y5659809D01*
G01X22232769Y5739819D02*
G01X22198479Y5659809D01*
G01X22187049Y5636949D01*
G01X22175619Y5625519D01*
G01X22164189Y5619931D01*
G01X22158347Y5619931D01*
G01X22280521Y5705529D02*
G01X22349101Y5705529D01*
G01X22349101Y5716959D01*
G01X22343513Y5728389D01*
G01X22337671Y5734231D01*
G01X22326241Y5739819D01*
G01X22309223Y5739819D01*
G01X22297793Y5734231D01*
G01X22286363Y5722801D01*
G01X22280521Y5705529D01*
G01X22280521Y5694099D01*
G01X22286363Y5677081D01*
G01X22297793Y5665651D01*
G01X22309223Y5659809D01*
G01X22326241Y5659809D01*
G01X22337671Y5665651D01*
G01X22349101Y5677081D01*
G01X22396853Y5739819D02*
G01X22396853Y5659809D01*
G01X22396853Y5705529D02*
G01X22402695Y5722801D01*
G01X22414125Y5734231D01*
G01X22425555Y5739819D01*
G01X22442573Y5739819D01*
G01X22490325Y5711371D02*
G01X22593195Y5711371D01*
G01X22640947Y5779951D02*
G01X22640947Y5659809D01*
G01X22640947Y5779951D02*
G01X22692509Y5779951D01*
G01X22709527Y5774109D01*
G01X22715369Y5768521D01*
G01X22720957Y5757091D01*
G01X22720957Y5745661D01*
G01X22715369Y5734231D01*
G01X22709527Y5728389D01*
G01X22692509Y5722801D01*
G01X22640947Y5722801D02*
G01X22692509Y5722801D01*
G01X22709527Y5716959D01*
G01X22715369Y5711371D01*
G01X22720957Y5699941D01*
G01X22720957Y5682669D01*
G01X22715369Y5671239D01*
G01X22709527Y5665651D01*
G01X22692509Y5659809D01*
G01X22640947Y5659809D01*
G01X22797411Y5739819D02*
G01X22785981Y5734231D01*
G01X22774551Y5722801D01*
G01X22768709Y5705529D01*
G01X22768709Y5694099D01*
G01X22774551Y5677081D01*
G01X22785981Y5665651D01*
G01X22797411Y5659809D01*
G01X22814429Y5659809D01*
G01X22825859Y5665651D01*
G01X22837289Y5677081D01*
G01X22843131Y5694099D01*
G01X22843131Y5705529D01*
G01X22837289Y5722801D01*
G01X22825859Y5734231D01*
G01X22814429Y5739819D01*
G01X22797411Y5739819D01*
G01X22908155Y5779951D02*
G01X22908155Y5682669D01*
G01X22913743Y5665651D01*
G01X22925173Y5659809D01*
G01X22936603Y5659809D01*
G01X22890883Y5739819D02*
G01X22931015Y5739819D01*
G01X23001627Y5779951D02*
G01X23001627Y5682669D01*
G01X23007215Y5665651D01*
G01X23018645Y5659809D01*
G01X23030075Y5659809D01*
G01X22984355Y5739819D02*
G01X23024487Y5739819D01*
G01X23106529Y5739819D02*
G01X23095099Y5734231D01*
G01X23083669Y5722801D01*
G01X23077827Y5705529D01*
G01X23077827Y5694099D01*
G01X23083669Y5677081D01*
G01X23095099Y5665651D01*
G01X23106529Y5659809D01*
G01X23123547Y5659809D01*
G01X23134977Y5665651D01*
G01X23146407Y5677081D01*
G01X23152249Y5694099D01*
G01X23152249Y5705529D01*
G01X23146407Y5722801D01*
G01X23134977Y5734231D01*
G01X23123547Y5739819D01*
G01X23106529Y5739819D01*
G01X23200001Y5739819D02*
G01X23200001Y5659809D01*
G01X23200001Y5716959D02*
G01X23217273Y5734231D01*
G01X23228703Y5739819D01*
G01X23245721Y5739819D01*
G01X23257151Y5734231D01*
G01X23262993Y5716959D01*
G01X23262993Y5659809D01*
G01X23262993Y5716959D02*
G01X23280011Y5734231D01*
G01X23291441Y5739819D01*
G01X23308713Y5739819D01*
G01X23320143Y5734231D01*
G01X23325731Y5716959D01*
G01X23325731Y5659809D01*
G01X23501499Y5779951D02*
G01X23501499Y5659809D01*
G01X23501499Y5659809D02*
G01X23570079Y5659809D01*
G01X23686411Y5739819D02*
G01X23686411Y5659809D01*
G01X23686411Y5722801D02*
G01X23674981Y5734231D01*
G01X23663551Y5739819D01*
G01X23646533Y5739819D01*
G01X23635103Y5734231D01*
G01X23623673Y5722801D01*
G01X23617831Y5705529D01*
G01X23617831Y5694099D01*
G01X23623673Y5677081D01*
G01X23635103Y5665651D01*
G01X23646533Y5659809D01*
G01X23663551Y5659809D01*
G01X23674981Y5665651D01*
G01X23686411Y5677081D01*
G01X23740005Y5739819D02*
G01X23774295Y5659809D01*
G01X23808585Y5739819D02*
G01X23774295Y5659809D01*
G01X23762865Y5636949D01*
G01X23751435Y5625519D01*
G01X23740005Y5619931D01*
G01X23734163Y5619931D01*
G01X23856337Y5705529D02*
G01X23924917Y5705529D01*
G01X23924917Y5716959D01*
G01X23919329Y5728389D01*
G01X23913487Y5734231D01*
G01X23902057Y5739819D01*
G01X23885039Y5739819D01*
G01X23873609Y5734231D01*
G01X23862179Y5722801D01*
G01X23856337Y5705529D01*
G01X23856337Y5694099D01*
G01X23862179Y5677081D01*
G01X23873609Y5665651D01*
G01X23885039Y5659809D01*
G01X23902057Y5659809D01*
G01X23913487Y5665651D01*
G01X23924917Y5677081D01*
G01X23972669Y5739819D02*
G01X23972669Y5659809D01*
G01X23972669Y5705529D02*
G01X23978511Y5722801D01*
G01X23989941Y5734231D01*
G01X24001371Y5739819D01*
G01X24018389Y5739819D01*
G01X9745004Y5199380D02*
G01X9807996Y5199380D01*
G01X9773706Y5153660D01*
G01X9790724Y5153660D01*
G01X9802154Y5147818D01*
G01X9807996Y5142230D01*
G01X9813584Y5124958D01*
G01X9813584Y5113528D01*
G01X9807996Y5096510D01*
G01X9796566Y5085080D01*
G01X9779294Y5079238D01*
G01X9762276Y5079238D01*
G01X9745004Y5085080D01*
G01X9739416Y5090668D01*
G01X9733574Y5102098D01*
G01X9929916Y5182108D02*
G01X9924328Y5193538D01*
G01X9907056Y5199380D01*
G01X9895626Y5199380D01*
G01X9878608Y5193538D01*
G01X9867178Y5176520D01*
G01X9861336Y5147818D01*
G01X9861336Y5119370D01*
G01X9867178Y5096510D01*
G01X9878608Y5085080D01*
G01X9895626Y5079238D01*
G01X9901468Y5079238D01*
G01X9918486Y5085080D01*
G01X9929916Y5096510D01*
G01X9935758Y5113528D01*
G01X9935758Y5119370D01*
G01X9929916Y5136388D01*
G01X9918486Y5147818D01*
G01X9901468Y5153660D01*
G01X9895626Y5153660D01*
G01X9878608Y5147818D01*
G01X9867178Y5136388D01*
G01X9861336Y5119370D01*
G01X11204887Y5199380D02*
G01X11147737Y5119370D01*
G01X11233589Y5119370D01*
G01X11204887Y5199380D02*
G01X11204887Y5079238D01*
G01X11315631Y5199380D02*
G01X11298613Y5193538D01*
G01X11287183Y5176520D01*
G01X11281341Y5147818D01*
G01X11281341Y5130800D01*
G01X11287183Y5102098D01*
G01X11298613Y5085080D01*
G01X11315631Y5079238D01*
G01X11327061Y5079238D01*
G01X11344333Y5085080D01*
G01X11355763Y5102098D01*
G01X11361351Y5130800D01*
G01X11361351Y5147818D01*
G01X11355763Y5176520D01*
G01X11344333Y5193538D01*
G01X11327061Y5199380D01*
G01X11315631Y5199380D01*
G01X11414945Y5107940D02*
G01X11409103Y5102098D01*
G01X11414945Y5096510D01*
G01X11420533Y5102098D01*
G01X11414945Y5107940D01*
G01X11474127Y5170678D02*
G01X11474127Y5176520D01*
G01X11479715Y5187950D01*
G01X11485557Y5193538D01*
G01X11496987Y5199380D01*
G01X11519847Y5199380D01*
G01X11531277Y5193538D01*
G01X11536865Y5187950D01*
G01X11542707Y5176520D01*
G01X11542707Y5165090D01*
G01X11536865Y5153660D01*
G01X11525435Y5136388D01*
G01X11468285Y5079238D01*
G01X11548295Y5079238D01*
G01X11596047Y5159248D02*
G01X11659039Y5079238D01*
G01X11659039Y5159248D02*
G01X11596047Y5079238D01*
G01X11763941Y5199380D02*
G01X11706791Y5119370D01*
G01X11792643Y5119370D01*
G01X11763941Y5199380D02*
G01X11763941Y5079238D01*
G01X11874685Y5199380D02*
G01X11857667Y5193538D01*
G01X11846237Y5176520D01*
G01X11840395Y5147818D01*
G01X11840395Y5130800D01*
G01X11846237Y5102098D01*
G01X11857667Y5085080D01*
G01X11874685Y5079238D01*
G01X11886115Y5079238D01*
G01X11903387Y5085080D01*
G01X11914817Y5102098D01*
G01X11920405Y5130800D01*
G01X11920405Y5147818D01*
G01X11914817Y5176520D01*
G01X11903387Y5193538D01*
G01X11886115Y5199380D01*
G01X11874685Y5199380D01*
G01X11973999Y5107940D02*
G01X11968157Y5102098D01*
G01X11973999Y5096510D01*
G01X11979587Y5102098D01*
G01X11973999Y5107940D01*
G01X12033181Y5170678D02*
G01X12033181Y5176520D01*
G01X12038769Y5187950D01*
G01X12044611Y5193538D01*
G01X12056041Y5199380D01*
G01X12078901Y5199380D01*
G01X12090331Y5193538D01*
G01X12095919Y5187950D01*
G01X12101761Y5176520D01*
G01X12101761Y5165090D01*
G01X12095919Y5153660D01*
G01X12084489Y5136388D01*
G01X12027339Y5079238D01*
G01X12107349Y5079238D01*
G01X12155101Y5159248D02*
G01X12155101Y5079238D01*
G01X12155101Y5136388D02*
G01X12172373Y5153660D01*
G01X12183803Y5159248D01*
G01X12200821Y5159248D01*
G01X12212251Y5153660D01*
G01X12218093Y5136388D01*
G01X12218093Y5079238D01*
G01X12218093Y5136388D02*
G01X12235111Y5153660D01*
G01X12246541Y5159248D01*
G01X12263813Y5159248D01*
G01X12275243Y5153660D01*
G01X12280831Y5136388D01*
G01X12280831Y5079238D01*
G01X12328583Y5199380D02*
G01X12334425Y5193538D01*
G01X12340013Y5199380D01*
G01X12334425Y5204968D01*
G01X12328583Y5199380D01*
G01X12334425Y5159248D02*
G01X12334425Y5079238D01*
G01X12387765Y5199380D02*
G01X12387765Y5079238D01*
G01X12475649Y5222240D02*
G01X12464219Y5210810D01*
G01X12452789Y5193538D01*
G01X12441359Y5170678D01*
G01X12435517Y5142230D01*
G01X12435517Y5119370D01*
G01X12441359Y5090668D01*
G01X12452789Y5067808D01*
G01X12464219Y5050790D01*
G01X12475649Y5039360D01*
G01X12523401Y5176520D02*
G01X12534831Y5182108D01*
G01X12552103Y5199380D01*
G01X12552103Y5079238D01*
G01X12605697Y5107940D02*
G01X12599855Y5102098D01*
G01X12605697Y5096510D01*
G01X12611285Y5102098D01*
G01X12605697Y5107940D01*
G01X12693327Y5199380D02*
G01X12676309Y5193538D01*
G01X12664879Y5176520D01*
G01X12659037Y5147818D01*
G01X12659037Y5130800D01*
G01X12664879Y5102098D01*
G01X12676309Y5085080D01*
G01X12693327Y5079238D01*
G01X12704757Y5079238D01*
G01X12722029Y5085080D01*
G01X12733459Y5102098D01*
G01X12739047Y5130800D01*
G01X12739047Y5147818D01*
G01X12733459Y5176520D01*
G01X12722029Y5193538D01*
G01X12704757Y5199380D01*
G01X12693327Y5199380D01*
G01X12792641Y5170678D02*
G01X12792641Y5176520D01*
G01X12798229Y5187950D01*
G01X12804071Y5193538D01*
G01X12815501Y5199380D01*
G01X12838361Y5199380D01*
G01X12849791Y5193538D01*
G01X12855379Y5187950D01*
G01X12861221Y5176520D01*
G01X12861221Y5165090D01*
G01X12855379Y5153660D01*
G01X12843949Y5136388D01*
G01X12786799Y5079238D01*
G01X12866809Y5079238D01*
G01X12948851Y5199380D02*
G01X12931833Y5193538D01*
G01X12920403Y5176520D01*
G01X12914561Y5147818D01*
G01X12914561Y5130800D01*
G01X12920403Y5102098D01*
G01X12931833Y5085080D01*
G01X12948851Y5079238D01*
G01X12960281Y5079238D01*
G01X12977553Y5085080D01*
G01X12988983Y5102098D01*
G01X12994571Y5130800D01*
G01X12994571Y5147818D01*
G01X12988983Y5176520D01*
G01X12977553Y5193538D01*
G01X12960281Y5199380D01*
G01X12948851Y5199380D01*
G01X13042323Y5159248D02*
G01X13105315Y5079238D01*
G01X13105315Y5159248D02*
G01X13042323Y5079238D01*
G01X13153067Y5176520D02*
G01X13164497Y5182108D01*
G01X13181769Y5199380D01*
G01X13181769Y5079238D01*
G01X13235363Y5107940D02*
G01X13229521Y5102098D01*
G01X13235363Y5096510D01*
G01X13240951Y5102098D01*
G01X13235363Y5107940D01*
G01X13322993Y5199380D02*
G01X13305975Y5193538D01*
G01X13294545Y5176520D01*
G01X13288703Y5147818D01*
G01X13288703Y5130800D01*
G01X13294545Y5102098D01*
G01X13305975Y5085080D01*
G01X13322993Y5079238D01*
G01X13334423Y5079238D01*
G01X13351695Y5085080D01*
G01X13363125Y5102098D01*
G01X13368713Y5130800D01*
G01X13368713Y5147818D01*
G01X13363125Y5176520D01*
G01X13351695Y5193538D01*
G01X13334423Y5199380D01*
G01X13322993Y5199380D01*
G01X13422307Y5170678D02*
G01X13422307Y5176520D01*
G01X13427895Y5187950D01*
G01X13433737Y5193538D01*
G01X13445167Y5199380D01*
G01X13468027Y5199380D01*
G01X13479457Y5193538D01*
G01X13485045Y5187950D01*
G01X13490887Y5176520D01*
G01X13490887Y5165090D01*
G01X13485045Y5153660D01*
G01X13473615Y5136388D01*
G01X13416465Y5079238D01*
G01X13496475Y5079238D01*
G01X13578517Y5199380D02*
G01X13561499Y5193538D01*
G01X13550069Y5176520D01*
G01X13544227Y5147818D01*
G01X13544227Y5130800D01*
G01X13550069Y5102098D01*
G01X13561499Y5085080D01*
G01X13578517Y5079238D01*
G01X13589947Y5079238D01*
G01X13607219Y5085080D01*
G01X13618649Y5102098D01*
G01X13624237Y5130800D01*
G01X13624237Y5147818D01*
G01X13618649Y5176520D01*
G01X13607219Y5193538D01*
G01X13589947Y5199380D01*
G01X13578517Y5199380D01*
G01X13671989Y5159248D02*
G01X13671989Y5079238D01*
G01X13671989Y5136388D02*
G01X13689261Y5153660D01*
G01X13700691Y5159248D01*
G01X13717709Y5159248D01*
G01X13729139Y5153660D01*
G01X13734981Y5136388D01*
G01X13734981Y5079238D01*
G01X13734981Y5136388D02*
G01X13751999Y5153660D01*
G01X13763429Y5159248D01*
G01X13780701Y5159248D01*
G01X13792131Y5153660D01*
G01X13797719Y5136388D01*
G01X13797719Y5079238D01*
G01X13845471Y5159248D02*
G01X13845471Y5079238D01*
G01X13845471Y5136388D02*
G01X13862743Y5153660D01*
G01X13874173Y5159248D01*
G01X13891191Y5159248D01*
G01X13902621Y5153660D01*
G01X13908463Y5136388D01*
G01X13908463Y5079238D01*
G01X13908463Y5136388D02*
G01X13925481Y5153660D01*
G01X13936911Y5159248D01*
G01X13954183Y5159248D01*
G01X13965613Y5153660D01*
G01X13971201Y5136388D01*
G01X13971201Y5079238D01*
G01X14018953Y5222240D02*
G01X14030383Y5210810D01*
G01X14041813Y5193538D01*
G01X14053243Y5170678D01*
G01X14059085Y5142230D01*
G01X14059085Y5119370D01*
G01X14053243Y5090668D01*
G01X14041813Y5067808D01*
G01X14030383Y5050790D01*
G01X14018953Y5039360D01*
G01X14950263Y5199380D02*
G01X14950263Y5079238D01*
G01X14950263Y5199380D02*
G01X15001825Y5199380D01*
G01X15018843Y5193538D01*
G01X15024685Y5187950D01*
G01X15030273Y5176520D01*
G01X15030273Y5159248D01*
G01X15024685Y5147818D01*
G01X15018843Y5142230D01*
G01X15001825Y5136388D01*
G01X14950263Y5136388D01*
G01X15118157Y5199380D02*
G01X15118157Y5079238D01*
G01X15078025Y5199380D02*
G01X15158035Y5199380D01*
G01X15205787Y5199380D02*
G01X15205787Y5079238D01*
G01X15285797Y5199380D02*
G01X15285797Y5079238D01*
G01X15205787Y5142230D02*
G01X15285797Y5142230D01*
G01X16411670Y5199380D02*
G01X16411670Y5079238D01*
G01X16411670Y5199380D02*
G01X16463232Y5199380D01*
G01X16480250Y5193538D01*
G01X16486092Y5187950D01*
G01X16491680Y5176520D01*
G01X16491680Y5165090D01*
G01X16486092Y5153660D01*
G01X16480250Y5147818D01*
G01X16463232Y5142230D01*
G01X16411670Y5142230D01*
G01X16451802Y5142230D02*
G01X16491680Y5079238D01*
G01X16568134Y5159248D02*
G01X16556704Y5153660D01*
G01X16545274Y5142230D01*
G01X16539432Y5124958D01*
G01X16539432Y5113528D01*
G01X16545274Y5096510D01*
G01X16556704Y5085080D01*
G01X16568134Y5079238D01*
G01X16585152Y5079238D01*
G01X16596582Y5085080D01*
G01X16608012Y5096510D01*
G01X16613854Y5113528D01*
G01X16613854Y5124958D01*
G01X16608012Y5142230D01*
G01X16596582Y5153660D01*
G01X16585152Y5159248D01*
G01X16568134Y5159248D01*
G01X16661606Y5159248D02*
G01X16661606Y5102098D01*
G01X16667448Y5085080D01*
G01X16678878Y5079238D01*
G01X16695896Y5079238D01*
G01X16707326Y5085080D01*
G01X16724598Y5102098D01*
G01X16724598Y5159248D02*
G01X16724598Y5079238D01*
G01X16772350Y5159248D02*
G01X16772350Y5079238D01*
G01X16772350Y5136388D02*
G01X16789622Y5153660D01*
G01X16801052Y5159248D01*
G01X16818070Y5159248D01*
G01X16829500Y5153660D01*
G01X16835342Y5136388D01*
G01X16835342Y5079238D01*
G01X16951674Y5199380D02*
G01X16951674Y5079238D01*
G01X16951674Y5142230D02*
G01X16940244Y5153660D01*
G01X16928814Y5159248D01*
G01X16911796Y5159248D01*
G01X16900366Y5153660D01*
G01X16888936Y5142230D01*
G01X16883094Y5124958D01*
G01X16883094Y5113528D01*
G01X16888936Y5096510D01*
G01X16900366Y5085080D01*
G01X16911796Y5079238D01*
G01X16928814Y5079238D01*
G01X16940244Y5085080D01*
G01X16951674Y5096510D01*
G01X17842851Y5199380D02*
G01X17842851Y5079238D01*
G01X17842851Y5199380D02*
G01X17894413Y5199380D01*
G01X17911431Y5193538D01*
G01X17917273Y5187950D01*
G01X17922861Y5176520D01*
G01X17922861Y5159248D01*
G01X17917273Y5147818D01*
G01X17911431Y5142230D01*
G01X17894413Y5136388D01*
G01X17842851Y5136388D01*
G01X18039193Y5159248D02*
G01X18039193Y5079238D01*
G01X18039193Y5142230D02*
G01X18027763Y5153660D01*
G01X18016333Y5159248D01*
G01X17999315Y5159248D01*
G01X17987885Y5153660D01*
G01X17976455Y5142230D01*
G01X17970613Y5124958D01*
G01X17970613Y5113528D01*
G01X17976455Y5096510D01*
G01X17987885Y5085080D01*
G01X17999315Y5079238D01*
G01X18016333Y5079238D01*
G01X18027763Y5085080D01*
G01X18039193Y5096510D01*
G01X18155525Y5199380D02*
G01X18155525Y5079238D01*
G01X18155525Y5142230D02*
G01X18144095Y5153660D01*
G01X18132665Y5159248D01*
G01X18115647Y5159248D01*
G01X18104217Y5153660D01*
G01X18092787Y5142230D01*
G01X18086945Y5124958D01*
G01X18086945Y5113528D01*
G01X18092787Y5096510D01*
G01X18104217Y5085080D01*
G01X18115647Y5079238D01*
G01X18132665Y5079238D01*
G01X18144095Y5085080D01*
G01X18155525Y5096510D01*
G01X19552162Y5222240D02*
G01X19540732Y5210810D01*
G01X19529302Y5193538D01*
G01X19517872Y5170678D01*
G01X19512030Y5142230D01*
G01X19512030Y5119370D01*
G01X19517872Y5090668D01*
G01X19529302Y5067808D01*
G01X19540732Y5050790D01*
G01X19552162Y5039360D01*
G01X19599914Y5199380D02*
G01X19599914Y5079238D01*
G01X19599914Y5199380D02*
G01X19645634Y5079238D01*
G01X19691354Y5199380D02*
G01X19645634Y5079238D01*
G01X19691354Y5199380D02*
G01X19691354Y5079238D01*
G01X19739106Y5199380D02*
G01X19744948Y5193538D01*
G01X19750536Y5199380D01*
G01X19744948Y5204968D01*
G01X19739106Y5199380D01*
G01X19744948Y5159248D02*
G01X19744948Y5079238D01*
G01X19798288Y5159248D02*
G01X19861280Y5079238D01*
G01X19861280Y5159248D02*
G01X19798288Y5079238D01*
G01X19909032Y5124958D02*
G01X19977612Y5124958D01*
G01X19977612Y5136388D01*
G01X19972024Y5147818D01*
G01X19966182Y5153660D01*
G01X19954752Y5159248D01*
G01X19937734Y5159248D01*
G01X19926304Y5153660D01*
G01X19914874Y5142230D01*
G01X19909032Y5124958D01*
G01X19909032Y5113528D01*
G01X19914874Y5096510D01*
G01X19926304Y5085080D01*
G01X19937734Y5079238D01*
G01X19954752Y5079238D01*
G01X19966182Y5085080D01*
G01X19977612Y5096510D01*
G01X20093944Y5199380D02*
G01X20093944Y5079238D01*
G01X20093944Y5142230D02*
G01X20082514Y5153660D01*
G01X20071084Y5159248D01*
G01X20054066Y5159248D01*
G01X20042636Y5153660D01*
G01X20031206Y5142230D01*
G01X20025364Y5124958D01*
G01X20025364Y5113528D01*
G01X20031206Y5096510D01*
G01X20042636Y5085080D01*
G01X20054066Y5079238D01*
G01X20071084Y5079238D01*
G01X20082514Y5085080D01*
G01X20093944Y5096510D01*
G01X20141696Y5222240D02*
G01X20153126Y5210810D01*
G01X20164556Y5193538D01*
G01X20175986Y5170678D01*
G01X20181828Y5142230D01*
G01X20181828Y5119370D01*
G01X20175986Y5090668D01*
G01X20164556Y5067808D01*
G01X20153126Y5050790D01*
G01X20141696Y5039360D01*
G01X21471531Y5199380D02*
G01X21471531Y5079238D01*
G01X21431399Y5199380D02*
G01X21511409Y5199380D01*
G01X21587863Y5159248D02*
G01X21576433Y5153660D01*
G01X21565003Y5142230D01*
G01X21559161Y5124958D01*
G01X21559161Y5113528D01*
G01X21565003Y5096510D01*
G01X21576433Y5085080D01*
G01X21587863Y5079238D01*
G01X21604881Y5079238D01*
G01X21616311Y5085080D01*
G01X21627741Y5096510D01*
G01X21633583Y5113528D01*
G01X21633583Y5124958D01*
G01X21627741Y5142230D01*
G01X21616311Y5153660D01*
G01X21604881Y5159248D01*
G01X21587863Y5159248D01*
G01X21681335Y5159248D02*
G01X21681335Y5039360D01*
G01X21681335Y5142230D02*
G01X21692765Y5153660D01*
G01X21704195Y5159248D01*
G01X21721467Y5159248D01*
G01X21732897Y5153660D01*
G01X21744327Y5142230D01*
G01X21749915Y5124958D01*
G01X21749915Y5113528D01*
G01X21744327Y5096510D01*
G01X21732897Y5085080D01*
G01X21721467Y5079238D01*
G01X21704195Y5079238D01*
G01X21692765Y5085080D01*
G01X21681335Y5096510D01*
G01X21925683Y5199380D02*
G01X21925683Y5079238D01*
G01X21925683Y5079238D02*
G01X21994263Y5079238D01*
G01X22110595Y5159248D02*
G01X22110595Y5079238D01*
G01X22110595Y5142230D02*
G01X22099165Y5153660D01*
G01X22087735Y5159248D01*
G01X22070717Y5159248D01*
G01X22059287Y5153660D01*
G01X22047857Y5142230D01*
G01X22042015Y5124958D01*
G01X22042015Y5113528D01*
G01X22047857Y5096510D01*
G01X22059287Y5085080D01*
G01X22070717Y5079238D01*
G01X22087735Y5079238D01*
G01X22099165Y5085080D01*
G01X22110595Y5096510D01*
G01X22164189Y5159248D02*
G01X22198479Y5079238D01*
G01X22232769Y5159248D02*
G01X22198479Y5079238D01*
G01X22187049Y5056378D01*
G01X22175619Y5044948D01*
G01X22164189Y5039360D01*
G01X22158347Y5039360D01*
G01X22280521Y5124958D02*
G01X22349101Y5124958D01*
G01X22349101Y5136388D01*
G01X22343513Y5147818D01*
G01X22337671Y5153660D01*
G01X22326241Y5159248D01*
G01X22309223Y5159248D01*
G01X22297793Y5153660D01*
G01X22286363Y5142230D01*
G01X22280521Y5124958D01*
G01X22280521Y5113528D01*
G01X22286363Y5096510D01*
G01X22297793Y5085080D01*
G01X22309223Y5079238D01*
G01X22326241Y5079238D01*
G01X22337671Y5085080D01*
G01X22349101Y5096510D01*
G01X22396853Y5159248D02*
G01X22396853Y5079238D01*
G01X22396853Y5124958D02*
G01X22402695Y5142230D01*
G01X22414125Y5153660D01*
G01X22425555Y5159248D01*
G01X22442573Y5159248D01*
G01X22490325Y5130800D02*
G01X22593195Y5130800D01*
G01X22640947Y5199380D02*
G01X22640947Y5079238D01*
G01X22640947Y5199380D02*
G01X22692509Y5199380D01*
G01X22709527Y5193538D01*
G01X22715369Y5187950D01*
G01X22720957Y5176520D01*
G01X22720957Y5165090D01*
G01X22715369Y5153660D01*
G01X22709527Y5147818D01*
G01X22692509Y5142230D01*
G01X22640947Y5142230D02*
G01X22692509Y5142230D01*
G01X22709527Y5136388D01*
G01X22715369Y5130800D01*
G01X22720957Y5119370D01*
G01X22720957Y5102098D01*
G01X22715369Y5090668D01*
G01X22709527Y5085080D01*
G01X22692509Y5079238D01*
G01X22640947Y5079238D01*
G01X22797411Y5159248D02*
G01X22785981Y5153660D01*
G01X22774551Y5142230D01*
G01X22768709Y5124958D01*
G01X22768709Y5113528D01*
G01X22774551Y5096510D01*
G01X22785981Y5085080D01*
G01X22797411Y5079238D01*
G01X22814429Y5079238D01*
G01X22825859Y5085080D01*
G01X22837289Y5096510D01*
G01X22843131Y5113528D01*
G01X22843131Y5124958D01*
G01X22837289Y5142230D01*
G01X22825859Y5153660D01*
G01X22814429Y5159248D01*
G01X22797411Y5159248D01*
G01X22908155Y5199380D02*
G01X22908155Y5102098D01*
G01X22913743Y5085080D01*
G01X22925173Y5079238D01*
G01X22936603Y5079238D01*
G01X22890883Y5159248D02*
G01X22931015Y5159248D01*
G01X23001627Y5199380D02*
G01X23001627Y5102098D01*
G01X23007215Y5085080D01*
G01X23018645Y5079238D01*
G01X23030075Y5079238D01*
G01X22984355Y5159248D02*
G01X23024487Y5159248D01*
G01X23106529Y5159248D02*
G01X23095099Y5153660D01*
G01X23083669Y5142230D01*
G01X23077827Y5124958D01*
G01X23077827Y5113528D01*
G01X23083669Y5096510D01*
G01X23095099Y5085080D01*
G01X23106529Y5079238D01*
G01X23123547Y5079238D01*
G01X23134977Y5085080D01*
G01X23146407Y5096510D01*
G01X23152249Y5113528D01*
G01X23152249Y5124958D01*
G01X23146407Y5142230D01*
G01X23134977Y5153660D01*
G01X23123547Y5159248D01*
G01X23106529Y5159248D01*
G01X23200001Y5159248D02*
G01X23200001Y5079238D01*
G01X23200001Y5136388D02*
G01X23217273Y5153660D01*
G01X23228703Y5159248D01*
G01X23245721Y5159248D01*
G01X23257151Y5153660D01*
G01X23262993Y5136388D01*
G01X23262993Y5079238D01*
G01X23262993Y5136388D02*
G01X23280011Y5153660D01*
G01X23291441Y5159248D01*
G01X23308713Y5159248D01*
G01X23320143Y5153660D01*
G01X23325731Y5136388D01*
G01X23325731Y5079238D01*
G01X23501499Y5199380D02*
G01X23501499Y5079238D01*
G01X23501499Y5079238D02*
G01X23570079Y5079238D01*
G01X23686411Y5159248D02*
G01X23686411Y5079238D01*
G01X23686411Y5142230D02*
G01X23674981Y5153660D01*
G01X23663551Y5159248D01*
G01X23646533Y5159248D01*
G01X23635103Y5153660D01*
G01X23623673Y5142230D01*
G01X23617831Y5124958D01*
G01X23617831Y5113528D01*
G01X23623673Y5096510D01*
G01X23635103Y5085080D01*
G01X23646533Y5079238D01*
G01X23663551Y5079238D01*
G01X23674981Y5085080D01*
G01X23686411Y5096510D01*
G01X23740005Y5159248D02*
G01X23774295Y5079238D01*
G01X23808585Y5159248D02*
G01X23774295Y5079238D01*
G01X23762865Y5056378D01*
G01X23751435Y5044948D01*
G01X23740005Y5039360D01*
G01X23734163Y5039360D01*
G01X23856337Y5124958D02*
G01X23924917Y5124958D01*
G01X23924917Y5136388D01*
G01X23919329Y5147818D01*
G01X23913487Y5153660D01*
G01X23902057Y5159248D01*
G01X23885039Y5159248D01*
G01X23873609Y5153660D01*
G01X23862179Y5142230D01*
G01X23856337Y5124958D01*
G01X23856337Y5113528D01*
G01X23862179Y5096510D01*
G01X23873609Y5085080D01*
G01X23885039Y5079238D01*
G01X23902057Y5079238D01*
G01X23913487Y5085080D01*
G01X23924917Y5096510D01*
G01X23972669Y5159248D02*
G01X23972669Y5079238D01*
G01X23972669Y5124958D02*
G01X23978511Y5142230D01*
G01X23989941Y5153660D01*
G01X24001371Y5159248D01*
G01X24018389Y5159248D01*
G01X9790724Y4618809D02*
G01X9733574Y4538799D01*
G01X9819426Y4538799D01*
G01X9790724Y4618809D02*
G01X9790724Y4498667D01*
G01X9901468Y4618809D02*
G01X9884450Y4612967D01*
G01X9873020Y4595949D01*
G01X9867178Y4567247D01*
G01X9867178Y4550229D01*
G01X9873020Y4521527D01*
G01X9884450Y4504509D01*
G01X9901468Y4498667D01*
G01X9912898Y4498667D01*
G01X9930170Y4504509D01*
G01X9941600Y4521527D01*
G01X9947188Y4550229D01*
G01X9947188Y4567247D01*
G01X9941600Y4595949D01*
G01X9930170Y4612967D01*
G01X9912898Y4618809D01*
G01X9901468Y4618809D01*
G01X11204887Y4618809D02*
G01X11147737Y4538799D01*
G01X11233589Y4538799D01*
G01X11204887Y4618809D02*
G01X11204887Y4498667D01*
G01X11361351Y4618809D02*
G01X11304201Y4498667D01*
G01X11281341Y4618809D02*
G01X11361351Y4618809D01*
G01X11414945Y4527369D02*
G01X11409103Y4521527D01*
G01X11414945Y4515939D01*
G01X11420533Y4521527D01*
G01X11414945Y4527369D01*
G01X11474127Y4590107D02*
G01X11474127Y4595949D01*
G01X11479715Y4607379D01*
G01X11485557Y4612967D01*
G01X11496987Y4618809D01*
G01X11519847Y4618809D01*
G01X11531277Y4612967D01*
G01X11536865Y4607379D01*
G01X11542707Y4595949D01*
G01X11542707Y4584519D01*
G01X11536865Y4573089D01*
G01X11525435Y4555817D01*
G01X11468285Y4498667D01*
G01X11548295Y4498667D01*
G01X11596047Y4578677D02*
G01X11659039Y4498667D01*
G01X11659039Y4578677D02*
G01X11596047Y4498667D01*
G01X11763941Y4618809D02*
G01X11706791Y4538799D01*
G01X11792643Y4538799D01*
G01X11763941Y4618809D02*
G01X11763941Y4498667D01*
G01X11920405Y4618809D02*
G01X11863255Y4498667D01*
G01X11840395Y4618809D02*
G01X11920405Y4618809D01*
G01X11973999Y4527369D02*
G01X11968157Y4521527D01*
G01X11973999Y4515939D01*
G01X11979587Y4521527D01*
G01X11973999Y4527369D01*
G01X12033181Y4590107D02*
G01X12033181Y4595949D01*
G01X12038769Y4607379D01*
G01X12044611Y4612967D01*
G01X12056041Y4618809D01*
G01X12078901Y4618809D01*
G01X12090331Y4612967D01*
G01X12095919Y4607379D01*
G01X12101761Y4595949D01*
G01X12101761Y4584519D01*
G01X12095919Y4573089D01*
G01X12084489Y4555817D01*
G01X12027339Y4498667D01*
G01X12107349Y4498667D01*
G01X12155101Y4578677D02*
G01X12155101Y4498667D01*
G01X12155101Y4555817D02*
G01X12172373Y4573089D01*
G01X12183803Y4578677D01*
G01X12200821Y4578677D01*
G01X12212251Y4573089D01*
G01X12218093Y4555817D01*
G01X12218093Y4498667D01*
G01X12218093Y4555817D02*
G01X12235111Y4573089D01*
G01X12246541Y4578677D01*
G01X12263813Y4578677D01*
G01X12275243Y4573089D01*
G01X12280831Y4555817D01*
G01X12280831Y4498667D01*
G01X12328583Y4618809D02*
G01X12334425Y4612967D01*
G01X12340013Y4618809D01*
G01X12334425Y4624397D01*
G01X12328583Y4618809D01*
G01X12334425Y4578677D02*
G01X12334425Y4498667D01*
G01X12387765Y4618809D02*
G01X12387765Y4498667D01*
G01X12475649Y4641669D02*
G01X12464219Y4630239D01*
G01X12452789Y4612967D01*
G01X12441359Y4590107D01*
G01X12435517Y4561659D01*
G01X12435517Y4538799D01*
G01X12441359Y4510097D01*
G01X12452789Y4487237D01*
G01X12464219Y4470219D01*
G01X12475649Y4458789D01*
G01X12523401Y4595949D02*
G01X12534831Y4601537D01*
G01X12552103Y4618809D01*
G01X12552103Y4498667D01*
G01X12605697Y4527369D02*
G01X12599855Y4521527D01*
G01X12605697Y4515939D01*
G01X12611285Y4521527D01*
G01X12605697Y4527369D01*
G01X12664879Y4590107D02*
G01X12664879Y4595949D01*
G01X12670467Y4607379D01*
G01X12676309Y4612967D01*
G01X12687739Y4618809D01*
G01X12710599Y4618809D01*
G01X12722029Y4612967D01*
G01X12727617Y4607379D01*
G01X12733459Y4595949D01*
G01X12733459Y4584519D01*
G01X12727617Y4573089D01*
G01X12716187Y4555817D01*
G01X12659037Y4498667D01*
G01X12739047Y4498667D01*
G01X12821089Y4618809D02*
G01X12804071Y4612967D01*
G01X12792641Y4595949D01*
G01X12786799Y4567247D01*
G01X12786799Y4550229D01*
G01X12792641Y4521527D01*
G01X12804071Y4504509D01*
G01X12821089Y4498667D01*
G01X12832519Y4498667D01*
G01X12849791Y4504509D01*
G01X12861221Y4521527D01*
G01X12866809Y4550229D01*
G01X12866809Y4567247D01*
G01X12861221Y4595949D01*
G01X12849791Y4612967D01*
G01X12832519Y4618809D01*
G01X12821089Y4618809D01*
G01X12948851Y4618809D02*
G01X12931833Y4612967D01*
G01X12920403Y4595949D01*
G01X12914561Y4567247D01*
G01X12914561Y4550229D01*
G01X12920403Y4521527D01*
G01X12931833Y4504509D01*
G01X12948851Y4498667D01*
G01X12960281Y4498667D01*
G01X12977553Y4504509D01*
G01X12988983Y4521527D01*
G01X12994571Y4550229D01*
G01X12994571Y4567247D01*
G01X12988983Y4595949D01*
G01X12977553Y4612967D01*
G01X12960281Y4618809D01*
G01X12948851Y4618809D01*
G01X13042323Y4578677D02*
G01X13105315Y4498667D01*
G01X13105315Y4578677D02*
G01X13042323Y4498667D01*
G01X13153067Y4595949D02*
G01X13164497Y4601537D01*
G01X13181769Y4618809D01*
G01X13181769Y4498667D01*
G01X13235363Y4527369D02*
G01X13229521Y4521527D01*
G01X13235363Y4515939D01*
G01X13240951Y4521527D01*
G01X13235363Y4527369D01*
G01X13294545Y4590107D02*
G01X13294545Y4595949D01*
G01X13300133Y4607379D01*
G01X13305975Y4612967D01*
G01X13317405Y4618809D01*
G01X13340265Y4618809D01*
G01X13351695Y4612967D01*
G01X13357283Y4607379D01*
G01X13363125Y4595949D01*
G01X13363125Y4584519D01*
G01X13357283Y4573089D01*
G01X13345853Y4555817D01*
G01X13288703Y4498667D01*
G01X13368713Y4498667D01*
G01X13450755Y4618809D02*
G01X13433737Y4612967D01*
G01X13422307Y4595949D01*
G01X13416465Y4567247D01*
G01X13416465Y4550229D01*
G01X13422307Y4521527D01*
G01X13433737Y4504509D01*
G01X13450755Y4498667D01*
G01X13462185Y4498667D01*
G01X13479457Y4504509D01*
G01X13490887Y4521527D01*
G01X13496475Y4550229D01*
G01X13496475Y4567247D01*
G01X13490887Y4595949D01*
G01X13479457Y4612967D01*
G01X13462185Y4618809D01*
G01X13450755Y4618809D01*
G01X13578517Y4618809D02*
G01X13561499Y4612967D01*
G01X13550069Y4595949D01*
G01X13544227Y4567247D01*
G01X13544227Y4550229D01*
G01X13550069Y4521527D01*
G01X13561499Y4504509D01*
G01X13578517Y4498667D01*
G01X13589947Y4498667D01*
G01X13607219Y4504509D01*
G01X13618649Y4521527D01*
G01X13624237Y4550229D01*
G01X13624237Y4567247D01*
G01X13618649Y4595949D01*
G01X13607219Y4612967D01*
G01X13589947Y4618809D01*
G01X13578517Y4618809D01*
G01X13671989Y4578677D02*
G01X13671989Y4498667D01*
G01X13671989Y4555817D02*
G01X13689261Y4573089D01*
G01X13700691Y4578677D01*
G01X13717709Y4578677D01*
G01X13729139Y4573089D01*
G01X13734981Y4555817D01*
G01X13734981Y4498667D01*
G01X13734981Y4555817D02*
G01X13751999Y4573089D01*
G01X13763429Y4578677D01*
G01X13780701Y4578677D01*
G01X13792131Y4573089D01*
G01X13797719Y4555817D01*
G01X13797719Y4498667D01*
G01X13845471Y4578677D02*
G01X13845471Y4498667D01*
G01X13845471Y4555817D02*
G01X13862743Y4573089D01*
G01X13874173Y4578677D01*
G01X13891191Y4578677D01*
G01X13902621Y4573089D01*
G01X13908463Y4555817D01*
G01X13908463Y4498667D01*
G01X13908463Y4555817D02*
G01X13925481Y4573089D01*
G01X13936911Y4578677D01*
G01X13954183Y4578677D01*
G01X13965613Y4573089D01*
G01X13971201Y4555817D01*
G01X13971201Y4498667D01*
G01X14018953Y4641669D02*
G01X14030383Y4630239D01*
G01X14041813Y4612967D01*
G01X14053243Y4590107D01*
G01X14059085Y4561659D01*
G01X14059085Y4538799D01*
G01X14053243Y4510097D01*
G01X14041813Y4487237D01*
G01X14030383Y4470219D01*
G01X14018953Y4458789D01*
G01X14950263Y4618809D02*
G01X14950263Y4498667D01*
G01X14950263Y4618809D02*
G01X15001825Y4618809D01*
G01X15018843Y4612967D01*
G01X15024685Y4607379D01*
G01X15030273Y4595949D01*
G01X15030273Y4578677D01*
G01X15024685Y4567247D01*
G01X15018843Y4561659D01*
G01X15001825Y4555817D01*
G01X14950263Y4555817D01*
G01X15118157Y4618809D02*
G01X15118157Y4498667D01*
G01X15078025Y4618809D02*
G01X15158035Y4618809D01*
G01X15205787Y4618809D02*
G01X15205787Y4498667D01*
G01X15285797Y4618809D02*
G01X15285797Y4498667D01*
G01X15205787Y4561659D02*
G01X15285797Y4561659D01*
G01X16411670Y4618809D02*
G01X16411670Y4498667D01*
G01X16411670Y4618809D02*
G01X16463232Y4618809D01*
G01X16480250Y4612967D01*
G01X16486092Y4607379D01*
G01X16491680Y4595949D01*
G01X16491680Y4584519D01*
G01X16486092Y4573089D01*
G01X16480250Y4567247D01*
G01X16463232Y4561659D01*
G01X16411670Y4561659D01*
G01X16451802Y4561659D02*
G01X16491680Y4498667D01*
G01X16568134Y4578677D02*
G01X16556704Y4573089D01*
G01X16545274Y4561659D01*
G01X16539432Y4544387D01*
G01X16539432Y4532957D01*
G01X16545274Y4515939D01*
G01X16556704Y4504509D01*
G01X16568134Y4498667D01*
G01X16585152Y4498667D01*
G01X16596582Y4504509D01*
G01X16608012Y4515939D01*
G01X16613854Y4532957D01*
G01X16613854Y4544387D01*
G01X16608012Y4561659D01*
G01X16596582Y4573089D01*
G01X16585152Y4578677D01*
G01X16568134Y4578677D01*
G01X16661606Y4578677D02*
G01X16661606Y4521527D01*
G01X16667448Y4504509D01*
G01X16678878Y4498667D01*
G01X16695896Y4498667D01*
G01X16707326Y4504509D01*
G01X16724598Y4521527D01*
G01X16724598Y4578677D02*
G01X16724598Y4498667D01*
G01X16772350Y4578677D02*
G01X16772350Y4498667D01*
G01X16772350Y4555817D02*
G01X16789622Y4573089D01*
G01X16801052Y4578677D01*
G01X16818070Y4578677D01*
G01X16829500Y4573089D01*
G01X16835342Y4555817D01*
G01X16835342Y4498667D01*
G01X16951674Y4618809D02*
G01X16951674Y4498667D01*
G01X16951674Y4561659D02*
G01X16940244Y4573089D01*
G01X16928814Y4578677D01*
G01X16911796Y4578677D01*
G01X16900366Y4573089D01*
G01X16888936Y4561659D01*
G01X16883094Y4544387D01*
G01X16883094Y4532957D01*
G01X16888936Y4515939D01*
G01X16900366Y4504509D01*
G01X16911796Y4498667D01*
G01X16928814Y4498667D01*
G01X16940244Y4504509D01*
G01X16951674Y4515939D01*
G01X17842851Y4618809D02*
G01X17842851Y4498667D01*
G01X17842851Y4618809D02*
G01X17894413Y4618809D01*
G01X17911431Y4612967D01*
G01X17917273Y4607379D01*
G01X17922861Y4595949D01*
G01X17922861Y4578677D01*
G01X17917273Y4567247D01*
G01X17911431Y4561659D01*
G01X17894413Y4555817D01*
G01X17842851Y4555817D01*
G01X18039193Y4578677D02*
G01X18039193Y4498667D01*
G01X18039193Y4561659D02*
G01X18027763Y4573089D01*
G01X18016333Y4578677D01*
G01X17999315Y4578677D01*
G01X17987885Y4573089D01*
G01X17976455Y4561659D01*
G01X17970613Y4544387D01*
G01X17970613Y4532957D01*
G01X17976455Y4515939D01*
G01X17987885Y4504509D01*
G01X17999315Y4498667D01*
G01X18016333Y4498667D01*
G01X18027763Y4504509D01*
G01X18039193Y4515939D01*
G01X18155525Y4618809D02*
G01X18155525Y4498667D01*
G01X18155525Y4561659D02*
G01X18144095Y4573089D01*
G01X18132665Y4578677D01*
G01X18115647Y4578677D01*
G01X18104217Y4573089D01*
G01X18092787Y4561659D01*
G01X18086945Y4544387D01*
G01X18086945Y4532957D01*
G01X18092787Y4515939D01*
G01X18104217Y4504509D01*
G01X18115647Y4498667D01*
G01X18132665Y4498667D01*
G01X18144095Y4504509D01*
G01X18155525Y4515939D01*
G01X19552162Y4641669D02*
G01X19540732Y4630239D01*
G01X19529302Y4612967D01*
G01X19517872Y4590107D01*
G01X19512030Y4561659D01*
G01X19512030Y4538799D01*
G01X19517872Y4510097D01*
G01X19529302Y4487237D01*
G01X19540732Y4470219D01*
G01X19552162Y4458789D01*
G01X19599914Y4618809D02*
G01X19599914Y4498667D01*
G01X19599914Y4618809D02*
G01X19645634Y4498667D01*
G01X19691354Y4618809D02*
G01X19645634Y4498667D01*
G01X19691354Y4618809D02*
G01X19691354Y4498667D01*
G01X19739106Y4618809D02*
G01X19744948Y4612967D01*
G01X19750536Y4618809D01*
G01X19744948Y4624397D01*
G01X19739106Y4618809D01*
G01X19744948Y4578677D02*
G01X19744948Y4498667D01*
G01X19798288Y4578677D02*
G01X19861280Y4498667D01*
G01X19861280Y4578677D02*
G01X19798288Y4498667D01*
G01X19909032Y4544387D02*
G01X19977612Y4544387D01*
G01X19977612Y4555817D01*
G01X19972024Y4567247D01*
G01X19966182Y4573089D01*
G01X19954752Y4578677D01*
G01X19937734Y4578677D01*
G01X19926304Y4573089D01*
G01X19914874Y4561659D01*
G01X19909032Y4544387D01*
G01X19909032Y4532957D01*
G01X19914874Y4515939D01*
G01X19926304Y4504509D01*
G01X19937734Y4498667D01*
G01X19954752Y4498667D01*
G01X19966182Y4504509D01*
G01X19977612Y4515939D01*
G01X20093944Y4618809D02*
G01X20093944Y4498667D01*
G01X20093944Y4561659D02*
G01X20082514Y4573089D01*
G01X20071084Y4578677D01*
G01X20054066Y4578677D01*
G01X20042636Y4573089D01*
G01X20031206Y4561659D01*
G01X20025364Y4544387D01*
G01X20025364Y4532957D01*
G01X20031206Y4515939D01*
G01X20042636Y4504509D01*
G01X20054066Y4498667D01*
G01X20071084Y4498667D01*
G01X20082514Y4504509D01*
G01X20093944Y4515939D01*
G01X20141696Y4641669D02*
G01X20153126Y4630239D01*
G01X20164556Y4612967D01*
G01X20175986Y4590107D01*
G01X20181828Y4561659D01*
G01X20181828Y4538799D01*
G01X20175986Y4510097D01*
G01X20164556Y4487237D01*
G01X20153126Y4470219D01*
G01X20141696Y4458789D01*
G01X21471531Y4618809D02*
G01X21471531Y4498667D01*
G01X21431399Y4618809D02*
G01X21511409Y4618809D01*
G01X21587863Y4578677D02*
G01X21576433Y4573089D01*
G01X21565003Y4561659D01*
G01X21559161Y4544387D01*
G01X21559161Y4532957D01*
G01X21565003Y4515939D01*
G01X21576433Y4504509D01*
G01X21587863Y4498667D01*
G01X21604881Y4498667D01*
G01X21616311Y4504509D01*
G01X21627741Y4515939D01*
G01X21633583Y4532957D01*
G01X21633583Y4544387D01*
G01X21627741Y4561659D01*
G01X21616311Y4573089D01*
G01X21604881Y4578677D01*
G01X21587863Y4578677D01*
G01X21681335Y4578677D02*
G01X21681335Y4458789D01*
G01X21681335Y4561659D02*
G01X21692765Y4573089D01*
G01X21704195Y4578677D01*
G01X21721467Y4578677D01*
G01X21732897Y4573089D01*
G01X21744327Y4561659D01*
G01X21749915Y4544387D01*
G01X21749915Y4532957D01*
G01X21744327Y4515939D01*
G01X21732897Y4504509D01*
G01X21721467Y4498667D01*
G01X21704195Y4498667D01*
G01X21692765Y4504509D01*
G01X21681335Y4515939D01*
G01X21925683Y4618809D02*
G01X21925683Y4498667D01*
G01X21925683Y4498667D02*
G01X21994263Y4498667D01*
G01X22110595Y4578677D02*
G01X22110595Y4498667D01*
G01X22110595Y4561659D02*
G01X22099165Y4573089D01*
G01X22087735Y4578677D01*
G01X22070717Y4578677D01*
G01X22059287Y4573089D01*
G01X22047857Y4561659D01*
G01X22042015Y4544387D01*
G01X22042015Y4532957D01*
G01X22047857Y4515939D01*
G01X22059287Y4504509D01*
G01X22070717Y4498667D01*
G01X22087735Y4498667D01*
G01X22099165Y4504509D01*
G01X22110595Y4515939D01*
G01X22164189Y4578677D02*
G01X22198479Y4498667D01*
G01X22232769Y4578677D02*
G01X22198479Y4498667D01*
G01X22187049Y4475807D01*
G01X22175619Y4464377D01*
G01X22164189Y4458789D01*
G01X22158347Y4458789D01*
G01X22280521Y4544387D02*
G01X22349101Y4544387D01*
G01X22349101Y4555817D01*
G01X22343513Y4567247D01*
G01X22337671Y4573089D01*
G01X22326241Y4578677D01*
G01X22309223Y4578677D01*
G01X22297793Y4573089D01*
G01X22286363Y4561659D01*
G01X22280521Y4544387D01*
G01X22280521Y4532957D01*
G01X22286363Y4515939D01*
G01X22297793Y4504509D01*
G01X22309223Y4498667D01*
G01X22326241Y4498667D01*
G01X22337671Y4504509D01*
G01X22349101Y4515939D01*
G01X22396853Y4578677D02*
G01X22396853Y4498667D01*
G01X22396853Y4544387D02*
G01X22402695Y4561659D01*
G01X22414125Y4573089D01*
G01X22425555Y4578677D01*
G01X22442573Y4578677D01*
G01X22490325Y4550229D02*
G01X22593195Y4550229D01*
G01X22640947Y4618809D02*
G01X22640947Y4498667D01*
G01X22640947Y4618809D02*
G01X22692509Y4618809D01*
G01X22709527Y4612967D01*
G01X22715369Y4607379D01*
G01X22720957Y4595949D01*
G01X22720957Y4584519D01*
G01X22715369Y4573089D01*
G01X22709527Y4567247D01*
G01X22692509Y4561659D01*
G01X22640947Y4561659D02*
G01X22692509Y4561659D01*
G01X22709527Y4555817D01*
G01X22715369Y4550229D01*
G01X22720957Y4538799D01*
G01X22720957Y4521527D01*
G01X22715369Y4510097D01*
G01X22709527Y4504509D01*
G01X22692509Y4498667D01*
G01X22640947Y4498667D01*
G01X22797411Y4578677D02*
G01X22785981Y4573089D01*
G01X22774551Y4561659D01*
G01X22768709Y4544387D01*
G01X22768709Y4532957D01*
G01X22774551Y4515939D01*
G01X22785981Y4504509D01*
G01X22797411Y4498667D01*
G01X22814429Y4498667D01*
G01X22825859Y4504509D01*
G01X22837289Y4515939D01*
G01X22843131Y4532957D01*
G01X22843131Y4544387D01*
G01X22837289Y4561659D01*
G01X22825859Y4573089D01*
G01X22814429Y4578677D01*
G01X22797411Y4578677D01*
G01X22908155Y4618809D02*
G01X22908155Y4521527D01*
G01X22913743Y4504509D01*
G01X22925173Y4498667D01*
G01X22936603Y4498667D01*
G01X22890883Y4578677D02*
G01X22931015Y4578677D01*
G01X23001627Y4618809D02*
G01X23001627Y4521527D01*
G01X23007215Y4504509D01*
G01X23018645Y4498667D01*
G01X23030075Y4498667D01*
G01X22984355Y4578677D02*
G01X23024487Y4578677D01*
G01X23106529Y4578677D02*
G01X23095099Y4573089D01*
G01X23083669Y4561659D01*
G01X23077827Y4544387D01*
G01X23077827Y4532957D01*
G01X23083669Y4515939D01*
G01X23095099Y4504509D01*
G01X23106529Y4498667D01*
G01X23123547Y4498667D01*
G01X23134977Y4504509D01*
G01X23146407Y4515939D01*
G01X23152249Y4532957D01*
G01X23152249Y4544387D01*
G01X23146407Y4561659D01*
G01X23134977Y4573089D01*
G01X23123547Y4578677D01*
G01X23106529Y4578677D01*
G01X23200001Y4578677D02*
G01X23200001Y4498667D01*
G01X23200001Y4555817D02*
G01X23217273Y4573089D01*
G01X23228703Y4578677D01*
G01X23245721Y4578677D01*
G01X23257151Y4573089D01*
G01X23262993Y4555817D01*
G01X23262993Y4498667D01*
G01X23262993Y4555817D02*
G01X23280011Y4573089D01*
G01X23291441Y4578677D01*
G01X23308713Y4578677D01*
G01X23320143Y4573089D01*
G01X23325731Y4555817D01*
G01X23325731Y4498667D01*
G01X23501499Y4618809D02*
G01X23501499Y4498667D01*
G01X23501499Y4498667D02*
G01X23570079Y4498667D01*
G01X23686411Y4578677D02*
G01X23686411Y4498667D01*
G01X23686411Y4561659D02*
G01X23674981Y4573089D01*
G01X23663551Y4578677D01*
G01X23646533Y4578677D01*
G01X23635103Y4573089D01*
G01X23623673Y4561659D01*
G01X23617831Y4544387D01*
G01X23617831Y4532957D01*
G01X23623673Y4515939D01*
G01X23635103Y4504509D01*
G01X23646533Y4498667D01*
G01X23663551Y4498667D01*
G01X23674981Y4504509D01*
G01X23686411Y4515939D01*
G01X23740005Y4578677D02*
G01X23774295Y4498667D01*
G01X23808585Y4578677D02*
G01X23774295Y4498667D01*
G01X23762865Y4475807D01*
G01X23751435Y4464377D01*
G01X23740005Y4458789D01*
G01X23734163Y4458789D01*
G01X23856337Y4544387D02*
G01X23924917Y4544387D01*
G01X23924917Y4555817D01*
G01X23919329Y4567247D01*
G01X23913487Y4573089D01*
G01X23902057Y4578677D01*
G01X23885039Y4578677D01*
G01X23873609Y4573089D01*
G01X23862179Y4561659D01*
G01X23856337Y4544387D01*
G01X23856337Y4532957D01*
G01X23862179Y4515939D01*
G01X23873609Y4504509D01*
G01X23885039Y4498667D01*
G01X23902057Y4498667D01*
G01X23913487Y4504509D01*
G01X23924917Y4515939D01*
G01X23972669Y4578677D02*
G01X23972669Y4498667D01*
G01X23972669Y4544387D02*
G01X23978511Y4561659D01*
G01X23989941Y4573089D01*
G01X24001371Y4578677D01*
G01X24018389Y4578677D01*

G04 Image Start*
G36*
G01X8568963Y4438196D02*
G01X8463349Y4449677D01*
G01X8420474Y4352471D01*
G01X8377599Y4449677D01*
G01X8271986Y4438196D01*
G01X8334749Y4523921D01*
G01X8295027Y4578176D01*
G01X8326520Y4578176D01*
G01X8366220Y4523921D01*
G01X8326520Y4469667D01*
G01X8393347Y4476931D01*
G01X8393347Y4476931D01*
G01X8420474Y4415438D01*
G01X8447601Y4476931D01*
G01X8514429Y4469667D01*
G01X8474729Y4523921D01*
G01X8514403Y4578150D01*
G01X8447576Y4570886D01*
G01X8420474Y4632405D01*
G01X8393347Y4570911D01*
G01X8326520Y4578176D01*
G01X8295027Y4578176D01*
G01X8271986Y4609646D01*
G01X8377624Y4598166D01*
G01X8420474Y4695371D01*
G01X8463349Y4598166D01*
G01X8568963Y4609646D01*
G01X8506199Y4523921D01*
G01X8568963Y4438196D01*
G37*
G36*
G01X8439969Y5552501D02*
G01X8432229Y5551913D01*
G01X8424386Y5551714D01*
G01X8416543Y5551913D01*
G01X8408802Y5552501D01*
G01X8401175Y5553470D01*
G01X8393670Y5554810D01*
G01X8379064Y5558565D01*
G01X8365062Y5563690D01*
G01X8351740Y5570107D01*
G01X8339174Y5577740D01*
G01X8327442Y5586513D01*
G01X8316620Y5596348D01*
G01X8306784Y5607171D01*
G01X8298011Y5618903D01*
G01X8290378Y5631468D01*
G01X8283961Y5644790D01*
G01X8278837Y5658792D01*
G01X8275082Y5673398D01*
G01X8273742Y5680904D01*
G01X8272772Y5688531D01*
G01X8272184Y5696271D01*
G01X8271986Y5704114D01*
G01X8297386Y5704114D01*
G01X8298043Y5691148D01*
G01X8299970Y5678552D01*
G01X8303105Y5666390D01*
G01X8307382Y5654728D01*
G01X8312737Y5643628D01*
G01X8319105Y5633157D01*
G01X8326423Y5623377D01*
G01X8334625Y5614354D01*
G01X8343649Y5606151D01*
G01X8353428Y5598834D01*
G01X8363900Y5592465D01*
G01X8374999Y5587110D01*
G01X8386662Y5582834D01*
G01X8398823Y5579699D01*
G01X8398823Y5579699D01*
G01X8411419Y5577771D01*
G01X8424386Y5577114D01*
G01X8437352Y5577771D01*
G01X8449948Y5579699D01*
G01X8462110Y5582834D01*
G01X8473772Y5587110D01*
G01X8484872Y5592465D01*
G01X8495343Y5598834D01*
G01X8505123Y5606151D01*
G01X8514146Y5614354D01*
G01X8522349Y5623377D01*
G01X8529666Y5633157D01*
G01X8536035Y5643628D01*
G01X8541390Y5654728D01*
G01X8545666Y5666390D01*
G01X8548801Y5678552D01*
G01X8550729Y5691148D01*
G01X8551386Y5704114D01*
G01X8550729Y5717081D01*
G01X8548801Y5729677D01*
G01X8545666Y5741838D01*
G01X8541390Y5753501D01*
G01X8536035Y5764600D01*
G01X8529666Y5775072D01*
G01X8522349Y5784851D01*
G01X8514146Y5793875D01*
G01X8505123Y5802077D01*
G01X8495343Y5809395D01*
G01X8484872Y5815763D01*
G01X8473772Y5821118D01*
G01X8462110Y5825395D01*
G01X8449948Y5828529D01*
G01X8437352Y5830457D01*
G01X8424386Y5831114D01*
G01X8411419Y5830457D01*
G01X8398823Y5828529D01*
G01X8386662Y5825395D01*
G01X8374999Y5821118D01*
G01X8363900Y5815763D01*
G01X8353428Y5809395D01*
G01X8343649Y5802077D01*
G01X8334625Y5793875D01*
G01X8326423Y5784851D01*
G01X8319105Y5775072D01*
G01X8312737Y5764600D01*
G01X8307382Y5753501D01*
G01X8303105Y5741838D01*
G01X8299970Y5729677D01*
G01X8298043Y5717081D01*
G01X8297386Y5704114D01*
G01X8271986Y5704114D01*
G01X8272184Y5711957D01*
G01X8272772Y5719698D01*
G01X8273742Y5727325D01*
G01X8275082Y5734830D01*
G01X8278837Y5749436D01*
G01X8283961Y5763438D01*
G01X8290378Y5776760D01*
G01X8298011Y5789326D01*
G01X8306784Y5801058D01*
G01X8316620Y5811880D01*
G01X8327442Y5821716D01*
G01X8339174Y5830489D01*
G01X8351740Y5838122D01*
G01X8365062Y5844539D01*
G01X8379064Y5849663D01*
G01X8393670Y5853418D01*
G01X8401175Y5854758D01*
G01X8408802Y5855728D01*
G01X8416543Y5856316D01*
G01X8424386Y5856514D01*
G01X8432229Y5856316D01*
G01X8439969Y5855728D01*
G01X8447596Y5854758D01*
G01X8455102Y5853418D01*
G01X8469708Y5849663D01*
G01X8483710Y5844539D01*
G01X8497032Y5838122D01*
G01X8509597Y5830489D01*
G01X8521329Y5821716D01*
G01X8532152Y5811880D01*
G01X8541987Y5801058D01*
G01X8550760Y5789326D01*
G01X8558393Y5776760D01*
G01X8564810Y5763438D01*
G01X8569935Y5749436D01*
G01X8573690Y5734830D01*
G01X8575030Y5727325D01*
G01X8575999Y5719698D01*
G01X8576587Y5711957D01*
G01X8576786Y5704114D01*
G01X8576587Y5696271D01*
G01X8575999Y5688531D01*
G01X8575030Y5680904D01*
G01X8573690Y5673398D01*
G01X8569935Y5658792D01*
G01X8564810Y5644790D01*
G01X8558393Y5631468D01*
G01X8550760Y5618903D01*
G01X8541987Y5607171D01*
G01X8532152Y5596348D01*
G01X8521329Y5586513D01*
G01X8509597Y5577740D01*
G01X8497032Y5570107D01*
G01X8483710Y5563690D01*
G01X8469708Y5558565D01*
G01X8455102Y5554810D01*
G01X8447596Y5553470D01*
G01X8439969Y5552501D01*
G37*
G36*
G01X8271986Y5275943D02*
G01X8576786Y5275943D01*
G01X8424386Y5011986D01*
G01X8286651Y5250543D01*
G01X8315979Y5250543D01*
G01X8424386Y5062786D01*
G01X8532793Y5250543D01*
G01X8532793Y5250543D01*
G01X8315979Y5250543D01*
G01X8286651Y5250543D01*
G01X8271986Y5275943D01*
G37*
G36*
G01X8271986Y6437086D02*
G01X8551386Y6437086D01*
G01X8551386Y6157686D01*
G01X8271986Y6157686D01*
G01X8271986Y6411686D01*
G01X8297386Y6411686D01*
G01X8297386Y6183086D01*
G01X8525986Y6183086D01*
G01X8525986Y6411686D01*
G01X8525986Y6411686D01*
G01X8297386Y6411686D01*
G01X8271986Y6411686D01*
G01X8271986Y6437086D01*
G37*

G04 PolygonModel Start*
G54D15*
G01X7981700Y4259943D02*
G01X24609121Y4259943D01*
G01X7981700Y4840514D02*
G01X24609121Y4840514D01*
G01X7981700Y5421086D02*
G01X24609121Y5421086D01*
G01X7981700Y6001657D02*
G01X24609121Y6001657D01*
G01X7981700Y6582229D02*
G01X24609121Y6582229D01*
G01X7981700Y7162800D02*
G01X24609121Y7162800D01*
G01X7981700Y7162800D02*
G01X7981700Y4285343D01*
G01X9433129Y7162800D02*
G01X9433129Y4285343D01*
G01X10847292Y7162800D02*
G01X10847292Y4285343D01*
G01X14649817Y7162800D02*
G01X14649817Y4285343D01*
G01X16111224Y7162800D02*
G01X16111224Y4285343D01*
G01X17542405Y7162800D02*
G01X17542405Y4285343D01*
G01X19211584Y7162800D02*
G01X19211584Y4285343D01*
G01X21130953Y7162800D02*
G01X21130953Y4285343D01*
G01X24609121Y7162800D02*
G01X24609121Y4285343D01*

M02*

