G04 Layer: TopPasteMaskLayer*
G04 EasyEDA Pro v3.2.148, 2026-08-04 21:20:46*
G04 Gerber Generator version 0.3*
G04 Scale: 100 percent, Rotated: No, Reflected: No*
G04 Dimensions in millimeters*
G04 Leading zeros omitted, absolute positions, 4 integers and 5 decimals*
G04 Generated by one-click*
G04 Object Configs: Pad,Via,Track,Text,Image,Dimension,BoardOutline,BoardCutout,CopperFilled,SolidRegion,FPCStiffener,Line,PlaneZone,ComponentProperty,ComponentSilkscreen,TearDrop*
G04 Layer Configs: 1,15,16,2,3,4,5,6,7,8,9,10,11,13,14,56*
G04 Copper Areas: 0*
%FSLAX45Y45*%
%MOMM*%
%ADD10R,1.2X3.49999*%
%ADD11R,1.15001X0.95001*%
%ADD12R,0.6X1.07*%
%ADD13C,0.0596*%
G75*


G04 PolygonModel Start*
G36*
G01X1761401Y5143299D02*
G01X1761401Y5180325D01*
G01X1771401Y5190325D01*
G01X1801891Y5190325D01*
G01X1811891Y5200325D01*
G01X1811891Y5239075D01*
G01X1801891Y5249075D01*
G01X1771401Y5249075D01*
G01X1761401Y5259075D01*
G01X1761401Y5296101D01*
G01X1771401Y5306101D01*
G01X1899900Y5306101D01*
G01X1909900Y5296101D01*
G01X1909900Y5143299D01*
G01X1899900Y5133299D01*
G01X1771401Y5133299D01*
G01X1761401Y5143299D01*
G37*
G36*
G01X1591399Y5143299D02*
G01X1581399Y5133299D01*
G01X1452900Y5133299D01*
G01X1442900Y5143299D01*
G01X1442900Y5296101D01*
G01X1452900Y5306101D01*
G01X1581399Y5306101D01*
G01X1591399Y5296101D01*
G01X1591399Y5259075D01*
G01X1581399Y5249075D01*
G01X1550909Y5249075D01*
G01X1540909Y5239075D01*
G01X1540909Y5200325D01*
G01X1550909Y5190325D01*
G01X1581399Y5190325D01*
G01X1591399Y5180325D01*
G01X1591399Y5143299D01*
G37*
G36*
G01X1577950Y5742450D02*
G01X1577950Y5670677D01*
G01X1567950Y5660677D01*
G01X1537459Y5660677D01*
G01X1527459Y5650677D01*
G01X1527459Y5576123D01*
G01X1537459Y5566123D01*
G01X1567950Y5566123D01*
G01X1577950Y5556123D01*
G01X1577950Y5484350D01*
G01X1567950Y5474350D01*
G01X1439451Y5474350D01*
G01X1429451Y5484350D01*
G01X1429451Y5742450D01*
G01X1439451Y5752450D01*
G01X1567950Y5752450D01*
G01X1577950Y5742450D01*
G37*
G36*
G01X1749450Y5742450D02*
G01X1759450Y5752450D01*
G01X1887949Y5752450D01*
G01X1897949Y5742450D01*
G01X1897949Y5484350D01*
G01X1887949Y5474350D01*
G01X1759450Y5474350D01*
G01X1749450Y5484350D01*
G01X1749450Y5556123D01*
G01X1759450Y5566123D01*
G01X1789941Y5566123D01*
G01X1799941Y5576123D01*
G01X1799941Y5650677D01*
G01X1789941Y5660677D01*
G01X1759450Y5660677D01*
G01X1749450Y5670677D01*
G01X1749450Y5742450D01*
G37*
G36*
G01X4120512Y571701D02*
G01X4120512Y534675D01*
G01X4110512Y524675D01*
G01X4080022Y524675D01*
G01X4070022Y514675D01*
G01X4070022Y475925D01*
G01X4080022Y465925D01*
G01X4110512Y465925D01*
G01X4120512Y455925D01*
G01X4120512Y418899D01*
G01X4110512Y408899D01*
G01X3982014Y408899D01*
G01X3972014Y418899D01*
G01X3972014Y571701D01*
G01X3982014Y581701D01*
G01X4110512Y581701D01*
G01X4120512Y571701D01*
G37*
G36*
G01X4290515Y571701D02*
G01X4300515Y581701D01*
G01X4429013Y581701D01*
G01X4439013Y571701D01*
G01X4439013Y418899D01*
G01X4429013Y408899D01*
G01X4300515Y408899D01*
G01X4290515Y418899D01*
G01X4290515Y455925D01*
G01X4300515Y465925D01*
G01X4331005Y465925D01*
G01X4341005Y475925D01*
G01X4341005Y514675D01*
G01X4331005Y524675D01*
G01X4300515Y524675D01*
G01X4290515Y534675D01*
G01X4290515Y571701D01*
G37*
G36*
G01X4120512Y878285D02*
G01X4120512Y841260D01*
G01X4110512Y831260D01*
G01X4080022Y831260D01*
G01X4070022Y821260D01*
G01X4070022Y782509D01*
G01X4080022Y772510D01*
G01X4110512Y772510D01*
G01X4120512Y762510D01*
G01X4120512Y725484D01*
G01X4110512Y715484D01*
G01X3982014Y715484D01*
G01X3972014Y725484D01*
G01X3972014Y878285D01*
G01X3982014Y888285D01*
G01X4110512Y888285D01*
G01X4120512Y878285D01*
G37*
G36*
G01X4290515Y878285D02*
G01X4300515Y888285D01*
G01X4429013Y888285D01*
G01X4439013Y878285D01*
G01X4439013Y725484D01*
G01X4429013Y715484D01*
G01X4300515Y715484D01*
G01X4290515Y725484D01*
G01X4290515Y762510D01*
G01X4300515Y772510D01*
G01X4331005Y772510D01*
G01X4341005Y782509D01*
G01X4341005Y821260D01*
G01X4331005Y831260D01*
G01X4300515Y831260D01*
G01X4290515Y841260D01*
G01X4290515Y878285D01*
G37*
G36*
G01X4169499Y2834085D02*
G01X4169499Y2797060D01*
G01X4159499Y2787060D01*
G01X4129009Y2787060D01*
G01X4119009Y2777060D01*
G01X4119009Y2738309D01*
G01X4129009Y2728310D01*
G01X4159499Y2728310D01*
G01X4169499Y2718310D01*
G01X4169499Y2681284D01*
G01X4159499Y2671284D01*
G01X4031000Y2671284D01*
G01X4021000Y2681284D01*
G01X4021000Y2834085D01*
G01X4031000Y2844085D01*
G01X4159499Y2844085D01*
G01X4169499Y2834085D01*
G37*
G36*
G01X4339501Y2834085D02*
G01X4349501Y2844085D01*
G01X4478000Y2844085D01*
G01X4488000Y2834085D01*
G01X4488000Y2681284D01*
G01X4478000Y2671284D01*
G01X4349501Y2671284D01*
G01X4339501Y2681284D01*
G01X4339501Y2718310D01*
G01X4349501Y2728310D01*
G01X4379991Y2728310D01*
G01X4389991Y2738309D01*
G01X4389991Y2777060D01*
G01X4379991Y2787060D01*
G01X4349501Y2787060D01*
G01X4339501Y2797060D01*
G01X4339501Y2834085D01*
G37*
G36*
G01X4169499Y3137101D02*
G01X4169499Y3100075D01*
G01X4159499Y3090075D01*
G01X4129009Y3090075D01*
G01X4119009Y3080075D01*
G01X4119009Y3041325D01*
G01X4129009Y3031325D01*
G01X4159499Y3031325D01*
G01X4169499Y3021325D01*
G01X4169499Y2984299D01*
G01X4159499Y2974299D01*
G01X4031000Y2974299D01*
G01X4021000Y2984299D01*
G01X4021000Y3137101D01*
G01X4031000Y3147101D01*
G01X4159499Y3147101D01*
G01X4169499Y3137101D01*
G37*
G36*
G01X4339501Y3137101D02*
G01X4349501Y3147101D01*
G01X4478000Y3147101D01*
G01X4488000Y3137101D01*
G01X4488000Y2984299D01*
G01X4478000Y2974299D01*
G01X4349501Y2974299D01*
G01X4339501Y2984299D01*
G01X4339501Y3021325D01*
G01X4349501Y3031325D01*
G01X4379991Y3031325D01*
G01X4389991Y3041325D01*
G01X4389991Y3080075D01*
G01X4379991Y3090075D01*
G01X4349501Y3090075D01*
G01X4339501Y3100075D01*
G01X4339501Y3137101D01*
G37*
G36*
G01X4157327Y5120085D02*
G01X4157327Y5083060D01*
G01X4147327Y5073060D01*
G01X4116837Y5073060D01*
G01X4106837Y5063060D01*
G01X4106837Y5024309D01*
G01X4116837Y5014310D01*
G01X4147327Y5014310D01*
G01X4157327Y5004310D01*
G01X4157327Y4967284D01*
G01X4147327Y4957284D01*
G01X4018829Y4957284D01*
G01X4008829Y4967284D01*
G01X4008829Y5120085D01*
G01X4018829Y5130085D01*
G01X4147327Y5130085D01*
G01X4157327Y5120085D01*
G37*
G36*
G01X4327329Y5120085D02*
G01X4337329Y5130085D01*
G01X4465828Y5130085D01*
G01X4475828Y5120085D01*
G01X4475828Y4967284D01*
G01X4465828Y4957284D01*
G01X4337329Y4957284D01*
G01X4327329Y4967284D01*
G01X4327329Y5004310D01*
G01X4337329Y5014310D01*
G01X4367820Y5014310D01*
G01X4377820Y5024309D01*
G01X4377820Y5063060D01*
G01X4367820Y5073060D01*
G01X4337329Y5073060D01*
G01X4327329Y5083060D01*
G01X4327329Y5120085D01*
G37*
G36*
G01X4157327Y5412185D02*
G01X4157327Y5375160D01*
G01X4147327Y5365160D01*
G01X4116837Y5365160D01*
G01X4106837Y5355160D01*
G01X4106837Y5316409D01*
G01X4116837Y5306410D01*
G01X4147327Y5306410D01*
G01X4157327Y5296410D01*
G01X4157327Y5259384D01*
G01X4147327Y5249384D01*
G01X4018829Y5249384D01*
G01X4008829Y5259384D01*
G01X4008829Y5412185D01*
G01X4018829Y5422185D01*
G01X4147327Y5422185D01*
G01X4157327Y5412185D01*
G37*
G36*
G01X4327329Y5412185D02*
G01X4337329Y5422185D01*
G01X4465828Y5422185D01*
G01X4475828Y5412185D01*
G01X4475828Y5259384D01*
G01X4465828Y5249384D01*
G01X4337329Y5249384D01*
G01X4327329Y5259384D01*
G01X4327329Y5296410D01*
G01X4337329Y5306410D01*
G01X4367820Y5306410D01*
G01X4377820Y5316409D01*
G01X4377820Y5355160D01*
G01X4367820Y5365160D01*
G01X4337329Y5365160D01*
G01X4327329Y5375160D01*
G01X4327329Y5412185D01*
G37*

G04 Pad Start*
G54D10*
G01X3505200Y5613108D03*
G01X3505200Y6147092D03*
G54D11*
G01X1244600Y5935040D03*
G01X1244600Y5596560D03*
G54D12*
G01X4946396Y3019108D03*
G01X4756404Y3019108D03*
G01X4851400Y2772093D03*
G01X4946396Y5343208D03*
G01X4756404Y5343208D03*
G01X4851400Y5096193D03*
G01X4946396Y771208D03*
G01X4756404Y771208D03*
G01X4851400Y524193D03*
G04 Pad End*

M02*

