;TYPE=PLATED
;Layer: PTH_Through
;EasyEDA Pro v3.2.148, 2026-08-25 14:35:54
;Gerber Generator version 0.3
M48
METRIC,LZ,0000.00000
;Hole size 1 = 0.30500 METRIC
T01C0.30500
%
G05
G90
T01
X7.22086Y3.8735
X6.56771Y4.5085
X6.56771Y3.8735
X5.91457Y4.5085
X5.91457Y3.8735
X5.26143Y4.5085
X5.26143Y3.8735
X7.874Y4.5085
X7.874Y3.8735
X4.60829Y4.5085
X4.60829Y3.8735
X3.95514Y4.5085
X3.95514Y3.8735
X3.302Y4.5085
X3.302Y3.8735
X3.302Y1.9685
X3.302Y1.3335
X3.95514Y1.9685
X4.60829Y1.9685
X3.95514Y1.3335
X4.60829Y1.3335
X5.26143Y1.3335
X5.26143Y1.9685
X5.91457Y1.9685
X5.91457Y1.3335
X6.56771Y1.3335
X6.56771Y1.9685
X7.22086Y1.9685
X7.22086Y1.3335
X7.874Y1.3335
X7.874Y1.9685
X25.07509Y9.27316
X25.82557Y9.27316
X25.07205Y6.77149
X25.82253Y6.77141
X19.51276Y3.68225
X19.55573Y11.05685
X19.55573Y13.97472
X19.55575Y5.43372
X13.08785Y2.76675
X13.08566Y3.46649
X13.83615Y3.46641
X13.83834Y2.76667
X9.9021Y2.74378
X10.65258Y2.74378
X10.65174Y3.48938
X9.90125Y3.48938
X28.03243Y9.95025
X22.84244Y6.14025
X23.56Y6.14
X27.34531Y9.95025
X22.15189Y8.68235
X22.864Y7.427
X28.448Y6.152
X27.305Y8.68235
X28.702Y9.952
X22.11178Y6.14025
X25.07424Y6.07174
X25.82473Y6.07167
X25.07424Y10.01875
X25.82473Y10.01875
X7.22086Y4.5085
X19.55077Y2.921
X19.55077Y6.223
X19.55077Y8.636
X19.55077Y9.52667
X19.55077Y11.85664
X19.55077Y14.732
X36.738Y10.05182
X37.36797Y10.033
X37.973Y10.033
X31.496Y6.223
X32.21551Y6.223
X32.858Y6.223
X35.24389Y6.72425
X34.4934Y6.72425
X34.47534Y10.033
X35.2102Y10.033
X36.738Y8.763
X36.738Y6.223
X34.48726Y6.06668
X35.23775Y6.06668
X34.49507Y9.39524
X35.22993Y9.39524
X32.08851Y7.493
M30