;TYPE=PLATED
;Layer: PTH_Through
;EasyEDA Pro v3.2.148, 2026-09-08 13:37:32
;Gerber Generator version 0.3
M48
METRIC,LZ,0000.00000
;Hole size 1 = 0.30500 METRIC
T01C0.30500
%
G05
G90
T01
X7.22086Y3.8735
X6.56771Y4.5085
X6.56771Y3.8735
X5.91457Y4.5085
X5.91457Y3.8735
X5.26143Y4.5085
X5.26143Y3.8735
X7.874Y4.5085
X7.874Y3.8735
X4.60829Y4.5085
X4.60829Y3.8735
X3.95514Y4.5085
X3.95514Y3.8735
X3.302Y4.5085
X3.302Y3.8735
X3.302Y1.9685
X3.302Y1.3335
X3.95514Y1.9685
X4.60829Y1.9685
X3.95514Y1.3335
X4.60829Y1.3335
X5.26143Y1.3335
X5.26143Y1.9685
X5.91457Y1.9685
X5.91457Y1.3335
X6.56771Y1.3335
X6.56771Y1.9685
X7.22086Y1.9685
X7.22086Y1.3335
X7.874Y1.3335
X7.874Y1.9685
X19.55573Y11.05685
X19.55573Y13.97472
X16.383Y3.048
X13.08785Y2.76675
X13.08566Y3.46649
X13.83615Y3.46641
X13.83834Y2.76667
X9.9021Y2.74378
X10.65258Y2.74378
X10.65174Y3.48938
X9.90125Y3.48938
X28.067Y9.906
X22.84244Y6.14025
X23.56Y6.14
X22.15189Y8.68235
X23.499Y7.3
X27.432Y6.025
X27.432Y8.63136
X28.829Y9.906
X22.11178Y6.14025
X25.07424Y6.07174
X25.82473Y6.07167
X25.07424Y10.01875
X25.82473Y10.01875
X7.22086Y4.5085
X17.145Y3.048
X19.55077Y8.636
X19.55077Y9.52667
X19.55077Y11.85664
X19.55077Y14.732
X36.576Y9.271
X37.338Y9.271
X38.1Y9.271
X31.496Y5.461
X32.21551Y5.461
X32.858Y5.461
X35.24389Y5.32725
X34.4934Y5.32725
X34.47534Y9.271
X35.2102Y9.271
X27.305Y9.906
M30