G04 Layer: TopPasteMaskLayer*
G04 EasyEDA Pro v3.2.148, 2026-08-25 14:35:54*
G04 Gerber Generator version 0.3*
G04 Scale: 100 percent, Rotated: No, Reflected: No*
G04 Dimensions in millimeters*
G04 Leading zeros omitted, absolute positions, 4 integers and 5 decimals*
G04 Generated by one-click*
G04 Object Configs: Pad,Via,Track,Text,Image,Dimension,BoardOutline,BoardCutout,CopperFilled,SolidRegion,FPCStiffener,Line,PlaneZone,ComponentProperty,ComponentSilkscreen,TearDrop*
G04 Layer Configs: 1,15,16,2,3,4,5,6,7,8,9,10,11,13,14,56*
G04 Copper Areas: 0*
%FSLAX45Y45*%
%MOMM*%
%ADD10R,7.2X1.8*%
%ADD11O,2.045X0.58801*%
%ADD12C,1.0019*%
G75*


G04 PolygonModel Start*
G36*
G01X1271943Y235257D02*
G01X1271943Y272283D01*
G01X1281943Y282283D01*
G01X1312433Y282283D01*
G01X1322433Y292283D01*
G01X1322433Y331033D01*
G01X1312433Y341033D01*
G01X1281943Y341033D01*
G01X1271943Y351033D01*
G01X1271943Y388059D01*
G01X1281943Y398059D01*
G01X1410442Y398059D01*
G01X1420442Y388059D01*
G01X1420442Y235257D01*
G01X1410442Y225257D01*
G01X1281943Y225257D01*
G01X1271943Y235257D01*
G37*
G36*
G01X1101941Y235257D02*
G01X1091941Y225257D01*
G01X963442Y225257D01*
G01X953442Y235257D01*
G01X953442Y388059D01*
G01X963442Y398059D01*
G01X1091941Y398059D01*
G01X1101941Y388059D01*
G01X1101941Y351033D01*
G01X1091941Y341033D01*
G01X1061451Y341033D01*
G01X1051451Y331033D01*
G01X1051451Y292283D01*
G01X1061451Y282283D01*
G01X1091941Y282283D01*
G01X1101941Y272283D01*
G01X1101941Y235257D01*
G37*
G36*
G01X1102846Y748149D02*
G01X1102846Y712018D01*
G01X1092846Y702018D01*
G01X1071790Y702018D01*
G01X1061790Y692018D01*
G01X1061790Y654182D01*
G01X1071790Y644182D01*
G01X1092846Y644182D01*
G01X1102846Y634182D01*
G01X1102846Y598051D01*
G01X1092846Y588051D01*
G01X992095Y588051D01*
G01X982095Y598051D01*
G01X982095Y748149D01*
G01X992095Y758149D01*
G01X1092846Y758149D01*
G01X1102846Y748149D01*
G37*
G36*
G01X1277847Y748149D02*
G01X1287847Y758149D01*
G01X1388599Y758149D01*
G01X1398599Y748149D01*
G01X1398599Y598051D01*
G01X1388599Y588051D01*
G01X1287847Y588051D01*
G01X1277847Y598051D01*
G01X1277847Y634182D01*
G01X1287847Y644182D01*
G01X1308904Y644182D01*
G01X1318904Y654182D01*
G01X1318904Y692018D01*
G01X1308904Y702018D01*
G01X1287847Y702018D01*
G01X1277847Y712018D01*
G01X1277847Y748149D01*
G37*
G36*
G01X1102846Y1002149D02*
G01X1102846Y966018D01*
G01X1092846Y956018D01*
G01X1071790Y956018D01*
G01X1061790Y946018D01*
G01X1061790Y908182D01*
G01X1071790Y898182D01*
G01X1092846Y898182D01*
G01X1102846Y888182D01*
G01X1102846Y852051D01*
G01X1092846Y842051D01*
G01X992095Y842051D01*
G01X982095Y852051D01*
G01X982095Y1002149D01*
G01X992095Y1012149D01*
G01X1092846Y1012149D01*
G01X1102846Y1002149D01*
G37*
G36*
G01X1277847Y1002149D02*
G01X1287847Y1012149D01*
G01X1388599Y1012149D01*
G01X1398599Y1002149D01*
G01X1398599Y852051D01*
G01X1388599Y842051D01*
G01X1287847Y842051D01*
G01X1277847Y852051D01*
G01X1277847Y888182D01*
G01X1287847Y898182D01*
G01X1308904Y898182D01*
G01X1318904Y908182D01*
G01X1318904Y946018D01*
G01X1308904Y956018D01*
G01X1287847Y956018D01*
G01X1277847Y966018D01*
G01X1277847Y1002149D01*
G37*
G36*
G01X1890900Y852051D02*
G01X1890900Y888182D01*
G01X1900900Y898182D01*
G01X1921957Y898182D01*
G01X1931957Y908182D01*
G01X1931957Y946018D01*
G01X1921957Y956018D01*
G01X1900900Y956018D01*
G01X1890900Y966018D01*
G01X1890900Y1002149D01*
G01X1900900Y1012149D01*
G01X2001652Y1012149D01*
G01X2011652Y1002149D01*
G01X2011652Y852051D01*
G01X2001652Y842051D01*
G01X1900900Y842051D01*
G01X1890900Y852051D01*
G37*
G36*
G01X1715900Y852051D02*
G01X1705900Y842051D01*
G01X1605148Y842051D01*
G01X1595148Y852051D01*
G01X1595148Y1002149D01*
G01X1605148Y1012149D01*
G01X1705900Y1012149D01*
G01X1715900Y1002149D01*
G01X1715900Y966018D01*
G01X1705900Y956018D01*
G01X1684843Y956018D01*
G01X1674843Y946018D01*
G01X1674843Y908182D01*
G01X1684843Y898182D01*
G01X1705900Y898182D01*
G01X1715900Y888182D01*
G01X1715900Y852051D01*
G37*
G36*
G01X1890900Y255151D02*
G01X1890900Y291282D01*
G01X1900900Y301282D01*
G01X1921957Y301282D01*
G01X1931957Y311282D01*
G01X1931957Y349118D01*
G01X1921957Y359118D01*
G01X1900900Y359118D01*
G01X1890900Y369118D01*
G01X1890900Y405249D01*
G01X1900900Y415249D01*
G01X2001652Y415249D01*
G01X2011652Y405249D01*
G01X2011652Y255151D01*
G01X2001652Y245151D01*
G01X1900900Y245151D01*
G01X1890900Y255151D01*
G37*
G36*
G01X1715900Y255151D02*
G01X1705900Y245151D01*
G01X1605148Y245151D01*
G01X1595148Y255151D01*
G01X1595148Y405249D01*
G01X1605148Y415249D01*
G01X1705900Y415249D01*
G01X1715900Y405249D01*
G01X1715900Y369118D01*
G01X1705900Y359118D01*
G01X1684843Y359118D01*
G01X1674843Y349118D01*
G01X1674843Y311282D01*
G01X1684843Y301282D01*
G01X1705900Y301282D01*
G01X1715900Y291282D01*
G01X1715900Y255151D01*
G37*
G36*
G01X1106300Y1256149D02*
G01X1106300Y1220018D01*
G01X1096300Y1210018D01*
G01X1075243Y1210018D01*
G01X1065243Y1200018D01*
G01X1065243Y1162182D01*
G01X1075243Y1152182D01*
G01X1096300Y1152182D01*
G01X1106300Y1142182D01*
G01X1106300Y1106051D01*
G01X1096300Y1096051D01*
G01X995548Y1096051D01*
G01X985548Y1106051D01*
G01X985548Y1256149D01*
G01X995548Y1266149D01*
G01X1096300Y1266149D01*
G01X1106300Y1256149D01*
G37*
G36*
G01X1281300Y1256149D02*
G01X1291300Y1266149D01*
G01X1392052Y1266149D01*
G01X1402052Y1256149D01*
G01X1402052Y1106051D01*
G01X1392052Y1096051D01*
G01X1291300Y1096051D01*
G01X1281300Y1106051D01*
G01X1281300Y1142182D01*
G01X1291300Y1152182D01*
G01X1312357Y1152182D01*
G01X1322357Y1162182D01*
G01X1322357Y1200018D01*
G01X1312357Y1210018D01*
G01X1291300Y1210018D01*
G01X1281300Y1220018D01*
G01X1281300Y1256149D01*
G37*
G36*
G01X1890900Y1118751D02*
G01X1890900Y1154882D01*
G01X1900900Y1164882D01*
G01X1921957Y1164882D01*
G01X1931957Y1174882D01*
G01X1931957Y1212718D01*
G01X1921957Y1222718D01*
G01X1900900Y1222718D01*
G01X1890900Y1232718D01*
G01X1890900Y1268849D01*
G01X1900900Y1278849D01*
G01X2001652Y1278849D01*
G01X2011652Y1268849D01*
G01X2011652Y1118751D01*
G01X2001652Y1108751D01*
G01X1900900Y1108751D01*
G01X1890900Y1118751D01*
G37*
G36*
G01X1715900Y1118751D02*
G01X1705900Y1108751D01*
G01X1605148Y1108751D01*
G01X1595148Y1118751D01*
G01X1595148Y1268849D01*
G01X1605148Y1278849D01*
G01X1705900Y1278849D01*
G01X1715900Y1268849D01*
G01X1715900Y1232718D01*
G01X1705900Y1222718D01*
G01X1684843Y1222718D01*
G01X1674843Y1212718D01*
G01X1674843Y1174882D01*
G01X1684843Y1164882D01*
G01X1705900Y1164882D01*
G01X1715900Y1154882D01*
G01X1715900Y1118751D01*
G37*

G04 Pad Start*
G54D10*
G01X482600Y165100D03*
G01X482600Y419100D03*
G01X482600Y673100D03*
G01X482600Y927100D03*
G01X482600Y1185664D03*
G01X482600Y1435100D03*
G54D11*
G01X2799490Y614025D03*
G01X2799490Y741025D03*
G01X2799490Y868025D03*
G01X2799490Y995025D03*
G01X2285496Y614025D03*
G01X2285496Y741025D03*
G01X2285496Y868025D03*
G01X2285496Y995025D03*
G01X3736797Y622300D03*
G01X3736797Y749300D03*
G01X3736797Y876300D03*
G01X3736797Y1003300D03*
G01X3222803Y622300D03*
G01X3222803Y749300D03*
G01X3222803Y876300D03*
G01X3222803Y1003300D03*
G04 Pad End*

M02*

