G04 Layer: BottomLayer*
G04 EasyEDA Pro v3.2.148, 2026-08-25 14:35:54*
G04 Gerber Generator version 0.3*
G04 Scale: 100 percent, Rotated: No, Reflected: No*
G04 Dimensions in millimeters*
G04 Leading zeros omitted, absolute positions, 4 integers and 5 decimals*
G04 Generated by one-click*
G04 Object Configs: Pad,Via,Track,Text,Image,Dimension,BoardOutline,BoardCutout,CopperFilled,SolidRegion,FPCStiffener,Line,PlaneZone,ComponentProperty,ComponentSilkscreen,TearDrop*
G04 Layer Configs: 1,15,16,2,3,4,5,6,7,8,9,10,11,13,14,56*
G04 Copper Areas: 0*
%FSLAX45Y45*%
%MOMM*%
%ADD10R,7.2X1.8*%
%ADD11R,1.72799X1.48501*%
%ADD12R,1.20752X1.70101*%
%ADD13C,0.61*%
%ADD14C,0.254*%
%ADD15C,0.7548*%
G75*


G04 Pad Start*
G54D10*
G01X482600Y165100D03*
G01X482600Y673100D03*
G01X482600Y927100D03*
G01X482600Y1185664D03*
G01X482600Y1435100D03*
G01X482600Y419100D03*
G54D11*
G01X2542493Y645267D03*
G01X2542493Y963783D03*
G54D12*
G01X1035727Y1435100D03*
G01X1331485Y1435100D03*
G01X1035727Y1185664D03*
G01X1331485Y1185664D03*
G01X1035727Y927100D03*
G01X1331485Y927100D03*
G01X1035727Y672965D03*
G01X1331485Y672965D03*
G01X1947955Y584200D03*
G01X1652198Y584200D03*
G01X1947955Y863600D03*
G01X1652198Y863600D03*
G01X1947955Y1147564D03*
G01X1652198Y1147564D03*
G01X1947955Y1435100D03*
G01X1652198Y1435100D03*
G54D11*
G01X3486250Y645267D03*
G01X3486250Y963783D03*
G04 Pad End*

G04 Via Start*
G54D13*
G01X722086Y387350D03*
G01X656771Y450850D03*
G01X656771Y387350D03*
G01X591457Y450850D03*
G01X591457Y387350D03*
G01X526143Y450850D03*
G01X526143Y387350D03*
G01X787400Y450850D03*
G01X787400Y387350D03*
G01X460829Y450850D03*
G01X460829Y387350D03*
G01X395514Y450850D03*
G01X395514Y387350D03*
G01X330200Y450850D03*
G01X330200Y387350D03*
G01X330200Y196850D03*
G01X330200Y133350D03*
G01X395514Y196850D03*
G01X460829Y196850D03*
G01X395514Y133350D03*
G01X460829Y133350D03*
G01X526143Y133350D03*
G01X526143Y196850D03*
G01X591457Y196850D03*
G01X591457Y133350D03*
G01X656771Y133350D03*
G01X656771Y196850D03*
G01X722086Y196850D03*
G01X722086Y133350D03*
G01X787400Y133350D03*
G01X787400Y196850D03*
G01X2507509Y927316D03*
G01X2582557Y927316D03*
G01X2507205Y677149D03*
G01X2582253Y677141D03*
G01X1951276Y368225D03*
G01X1955573Y1105685D03*
G01X1955573Y1397472D03*
G01X1955575Y543372D03*
G01X1308785Y276675D03*
G01X1308566Y346649D03*
G01X1383615Y346641D03*
G01X1383834Y276667D03*
G01X990210Y274378D03*
G01X1065258Y274378D03*
G01X1065174Y348938D03*
G01X990125Y348938D03*
G01X2803243Y995025D03*
G01X2284244Y614025D03*
G01X2356000Y614000D03*
G01X2734531Y995025D03*
G01X2215189Y868236D03*
G01X2286400Y742700D03*
G01X2844800Y615200D03*
G01X2730500Y868236D03*
G01X2870200Y995200D03*
G01X2211178Y614025D03*
G01X2507424Y607174D03*
G01X2582473Y607167D03*
G01X2507424Y1001875D03*
G01X2582473Y1001875D03*
G01X722086Y450850D03*
G01X1955077Y292100D03*
G01X1955077Y622300D03*
G01X1955077Y863600D03*
G01X1955077Y952667D03*
G01X1955077Y1185664D03*
G01X1955077Y1473200D03*
G01X3673800Y1005182D03*
G01X3736797Y1003300D03*
G01X3797300Y1003300D03*
G01X3149600Y622300D03*
G01X3221551Y622300D03*
G01X3285800Y622300D03*
G01X3524389Y672425D03*
G01X3449340Y672425D03*
G01X3447534Y1003300D03*
G01X3521020Y1003300D03*
G01X3673800Y876300D03*
G01X3673800Y622300D03*
G01X3448726Y606668D03*
G01X3523775Y606668D03*
G01X3449507Y939524D03*
G01X3522993Y939524D03*
G01X3208851Y749300D03*
G04 Via End*

G04 Track Start*
G54D14*
G01X2476500Y1295400D02*
G01X2667000Y1104900D01*
G01X482600Y1435100D02*
G01X1035727Y1435100D01*
G01X482600Y1185664D02*
G01X1035727Y1185664D01*
G01X482600Y927100D02*
G01X1035727Y927100D01*
G01X482600Y673100D02*
G01X1035727Y673100D01*
G01X1331485Y1435100D02*
G01X1652198Y1435100D01*
G01X1331485Y1185664D02*
G01X1652198Y1185664D01*
G01X1652198Y1147564D01*
G01X1331486Y672965D02*
G01X1356751Y647700D01*
G01X1652198Y647700D01*
G01X1652198Y584200D01*
G01X1652199Y1435100D02*
G01X1791899Y1295400D01*
G01X2476500Y1295400D01*
G01X1652199Y1147564D02*
G01X1788696Y1011067D01*
G01X1652198Y584200D02*
G01X1766498Y469900D01*
G01X1788696Y1011067D02*
G01X2176633Y1011067D01*
G01X2286400Y901300D01*
G01X3673800Y600400D02*
G01X3673800Y622300D01*
G01X3606800Y533400D02*
G01X3673800Y600400D01*
G01X1766498Y469900D02*
G01X2692400Y469900D01*
G01X2215189Y868236D02*
G01X2083553Y736600D01*
G01X1779198Y736600D01*
G01X1652199Y863600D01*
G01X2287413Y738013D02*
G01X2286400Y737000D01*
G01X2286400Y901300D02*
G01X2286400Y799087D01*
G01X2287413Y799087D01*
G01X2287413Y774700D01*
G01X2287413Y738013D01*
G01X2837700Y615200D02*
G01X2844800Y615200D01*
G01X2692400Y469900D02*
G01X2837700Y615200D01*
G01X2730500Y868236D02*
G01X2747836Y850900D01*
G01X3648400Y850900D01*
G01X3673800Y876300D01*
G01X1331485Y927100D02*
G01X1331485Y863600D01*
G01X1652198Y863600D01*
G01X2667000Y1104900D02*
G01X2667000Y939800D01*
G01X2730500Y876300D01*
G01X2730500Y868236D01*
G01X2844800Y615200D02*
G01X2926600Y533400D01*
G01X3606800Y533400D01*
G01X2287413Y774700D02*
G01X2312813Y749300D01*
G01X3208851Y749300D01*
G04 Track End*

M02*

