G04 Layer: TopSilkscreenLayer*
G04 EasyEDA Pro v3.2.148, 2026-08-25 14:35:54*
G04 Gerber Generator version 0.3*
G04 Scale: 100 percent, Rotated: No, Reflected: No*
G04 Dimensions in millimeters*
G04 Leading zeros omitted, absolute positions, 4 integers and 5 decimals*
G04 Generated by one-click*
G04 Object Configs: Pad,Via,Track,Text,Image,Dimension,BoardOutline,BoardCutout,CopperFilled,SolidRegion,FPCStiffener,Line,PlaneZone,ComponentProperty,ComponentSilkscreen,TearDrop*
G04 Layer Configs: 1,15,16,2,3,4,5,6,7,8,9,10,11,13,14,56*
G04 Copper Areas: 0*
%FSLAX45Y45*%
%MOMM*%
%ADD10C,0.203*%
%ADD11C,0.1524*%
%ADD12C,0.3*%
%ADD13C,0.2190*%
G75*


G04 Text Start*
G54D10*
G01X1486662Y612648D02*
G01X1480566Y606298D01*
G01X1477518Y596900D01*
G01X1477518Y584454D01*
G01X1480566Y575056D01*
G01X1486662Y568960D01*
G01X1493012Y568960D01*
G01X1499108Y572008D01*
G01X1502410Y575056D01*
G01X1505458Y581406D01*
G01X1511808Y600202D01*
G01X1514856Y606298D01*
G01X1517904Y609346D01*
G01X1524254Y612648D01*
G01X1533398Y612648D01*
G01X1539748Y606298D01*
G01X1542796Y596900D01*
G01X1542796Y584454D01*
G01X1539748Y575056D01*
G01X1533398Y568960D01*
G01X1493012Y694690D02*
G01X1486662Y691642D01*
G01X1480566Y685292D01*
G01X1477518Y678942D01*
G01X1477518Y666496D01*
G01X1480566Y660400D01*
G01X1486662Y654050D01*
G01X1493012Y651002D01*
G01X1502410Y647954D01*
G01X1517904Y647954D01*
G01X1527302Y651002D01*
G01X1533398Y654050D01*
G01X1539748Y660400D01*
G01X1542796Y666496D01*
G01X1542796Y678942D01*
G01X1539748Y685292D01*
G01X1533398Y691642D01*
G01X1527302Y694690D01*
G01X1477518Y729996D02*
G01X1542796Y729996D01*
G01X1477518Y773684D02*
G01X1520952Y729996D01*
G01X1505458Y745490D02*
G01X1542796Y773684D01*
G01X1480312Y1034796D02*
G01X1473962Y1031748D01*
G01X1467866Y1025398D01*
G01X1464818Y1019302D01*
G01X1464818Y1006856D01*
G01X1467866Y1000506D01*
G01X1473962Y994156D01*
G01X1480312Y991108D01*
G01X1489710Y988060D01*
G01X1505204Y988060D01*
G01X1514602Y991108D01*
G01X1520698Y994156D01*
G01X1527048Y1000506D01*
G01X1530096Y1006856D01*
G01X1530096Y1019302D01*
G01X1527048Y1025398D01*
G01X1520698Y1031748D01*
G01X1514602Y1034796D01*
G01X1473962Y1113790D02*
G01X1467866Y1107440D01*
G01X1464818Y1098042D01*
G01X1464818Y1085596D01*
G01X1467866Y1076198D01*
G01X1473962Y1070102D01*
G01X1480312Y1070102D01*
G01X1486408Y1073150D01*
G01X1489710Y1076198D01*
G01X1492758Y1082548D01*
G01X1499108Y1101090D01*
G01X1502156Y1107440D01*
G01X1505204Y1110488D01*
G01X1511554Y1113790D01*
G01X1520698Y1113790D01*
G01X1527048Y1107440D01*
G01X1530096Y1098042D01*
G01X1530096Y1085596D01*
G01X1527048Y1076198D01*
G01X1520698Y1070102D01*
G01X3318256Y237998D02*
G01X3318256Y152908D01*
G01X3318256Y237998D02*
G01X3354832Y237998D01*
G01X3366770Y233934D01*
G01X3370834Y229870D01*
G01X3374898Y221742D01*
G01X3374898Y213614D01*
G01X3370834Y205486D01*
G01X3366770Y201422D01*
G01X3354832Y197358D01*
G01X3318256Y197358D01*
G01X3346704Y197358D02*
G01X3374898Y152908D01*
G01X3414776Y185166D02*
G01X3463290Y185166D01*
G01X3463290Y193294D01*
G01X3459226Y201422D01*
G01X3455162Y205486D01*
G01X3447034Y209550D01*
G01X3434842Y209550D01*
G01X3426714Y205486D01*
G01X3418586Y197358D01*
G01X3414776Y185166D01*
G01X3414776Y177038D01*
G01X3418586Y165100D01*
G01X3426714Y156972D01*
G01X3434842Y152908D01*
G01X3447034Y152908D01*
G01X3455162Y156972D01*
G01X3463290Y165100D01*
G01X3503168Y209550D02*
G01X3527298Y152908D01*
G01X3551682Y209550D02*
G01X3527298Y152908D01*
G01X3615690Y237998D02*
G01X3603498Y233934D01*
G01X3595370Y221742D01*
G01X3591560Y201422D01*
G01X3591560Y189230D01*
G01X3595370Y168910D01*
G01X3603498Y156972D01*
G01X3615690Y152908D01*
G01X3623818Y152908D01*
G01X3636010Y156972D01*
G01X3644138Y168910D01*
G01X3648202Y189230D01*
G01X3648202Y201422D01*
G01X3644138Y221742D01*
G01X3636010Y233934D01*
G01X3623818Y237998D01*
G01X3615690Y237998D01*
G01X3712210Y237998D02*
G01X3700018Y233934D01*
G01X3691890Y221742D01*
G01X3688080Y201422D01*
G01X3688080Y189230D01*
G01X3691890Y168910D01*
G01X3700018Y156972D01*
G01X3712210Y152908D01*
G01X3720338Y152908D01*
G01X3732530Y156972D01*
G01X3740658Y168910D01*
G01X3744722Y189230D01*
G01X3744722Y201422D01*
G01X3740658Y221742D01*
G01X3732530Y233934D01*
G01X3720338Y237998D01*
G01X3712210Y237998D01*
G01X3784600Y221742D02*
G01X3792474Y225806D01*
G01X3804666Y237998D01*
G01X3804666Y152908D01*
G01X1105408Y1415288D02*
G01X1105408Y1418336D01*
G01X1108456Y1424686D01*
G01X1111758Y1427734D01*
G01X1117854Y1430782D01*
G01X1130300Y1430782D01*
G01X1136650Y1427734D01*
G01X1139698Y1424686D01*
G01X1142746Y1418336D01*
G01X1142746Y1412240D01*
G01X1139698Y1405890D01*
G01X1133602Y1396492D01*
G01X1102360Y1365504D01*
G01X1146048Y1365504D01*
G01X1184402Y1415288D02*
G01X1184402Y1418336D01*
G01X1187450Y1424686D01*
G01X1190752Y1427734D01*
G01X1196848Y1430782D01*
G01X1209294Y1430782D01*
G01X1215644Y1427734D01*
G01X1218692Y1424686D01*
G01X1221740Y1418336D01*
G01X1221740Y1412240D01*
G01X1218692Y1405890D01*
G01X1212342Y1396492D01*
G01X1181354Y1365504D01*
G01X1225042Y1365504D01*
G01X1260348Y1430782D02*
G01X1260348Y1365504D01*
G01X1260348Y1430782D02*
G01X1288288Y1430782D01*
G01X1297686Y1427734D01*
G01X1300734Y1424686D01*
G01X1304036Y1418336D01*
G01X1304036Y1412240D01*
G01X1300734Y1405890D01*
G01X1297686Y1402842D01*
G01X1288288Y1399794D01*
G01X1260348Y1399794D01*
G01X1282192Y1399794D02*
G01X1304036Y1365504D01*
G01X1699260Y1418336D02*
G01X1705356Y1421638D01*
G01X1714754Y1430782D01*
G01X1714754Y1365504D01*
G01X1768602Y1430782D02*
G01X1759458Y1427734D01*
G01X1753108Y1418336D01*
G01X1750060Y1402842D01*
G01X1750060Y1393444D01*
G01X1753108Y1377950D01*
G01X1759458Y1368552D01*
G01X1768602Y1365504D01*
G01X1774952Y1365504D01*
G01X1784350Y1368552D01*
G01X1790446Y1377950D01*
G01X1793748Y1393444D01*
G01X1793748Y1402842D01*
G01X1790446Y1418336D01*
G01X1784350Y1427734D01*
G01X1774952Y1430782D01*
G01X1768602Y1430782D01*
G01X1829054Y1430782D02*
G01X1829054Y1365504D01*
G01X1872742Y1430782D02*
G01X1829054Y1387348D01*
G01X1844548Y1402842D02*
G01X1872742Y1365504D01*
G01X2871216Y1451610D02*
G01X2871216Y1455166D01*
G01X2874772Y1462278D01*
G01X2878328Y1465834D01*
G01X2885694Y1469390D01*
G01X2899918Y1469390D01*
G01X2907030Y1465834D01*
G01X2910586Y1462278D01*
G01X2914142Y1455166D01*
G01X2914142Y1447800D01*
G01X2910586Y1440688D01*
G01X2903474Y1430020D01*
G01X2867660Y1394206D01*
G01X2917952Y1394206D01*
G01X2955544Y1444244D02*
G01X2994914Y1394206D01*
G01X2994914Y1444244D02*
G01X2955544Y1394206D01*
G01X3082544Y1458722D02*
G01X3075432Y1465834D01*
G01X3064764Y1469390D01*
G01X3050286Y1469390D01*
G01X3039618Y1465834D01*
G01X3032506Y1458722D01*
G01X3032506Y1451610D01*
G01X3036062Y1444244D01*
G01X3039618Y1440688D01*
G01X3046730Y1437132D01*
G01X3068320Y1430020D01*
G01X3075432Y1426464D01*
G01X3078988Y1422908D01*
G01X3082544Y1415542D01*
G01X3082544Y1404874D01*
G01X3075432Y1397762D01*
G01X3064764Y1394206D01*
G01X3050286Y1394206D01*
G01X3039618Y1397762D01*
G01X3032506Y1404874D01*
G01X3120136Y1469390D02*
G01X3120136Y1394206D01*
G01X3120136Y1469390D02*
G01X3152394Y1469390D01*
G01X3163062Y1465834D01*
G01X3166618Y1462278D01*
G01X3170174Y1455166D01*
G01X3170174Y1447800D01*
G01X3166618Y1440688D01*
G01X3163062Y1437132D01*
G01X3152394Y1433576D01*
G01X3120136Y1433576D01*
G01X3145028Y1433576D02*
G01X3170174Y1394206D01*
G01X3236468Y1469390D02*
G01X3207766Y1394206D01*
G01X3236468Y1469390D02*
G01X3264916Y1394206D01*
G01X3218434Y1419352D02*
G01X3254248Y1419352D01*
G01X3302508Y1469390D02*
G01X3302508Y1394206D01*
G01X3302508Y1469390D02*
G01X3331210Y1394206D01*
G01X3359658Y1469390D02*
G01X3331210Y1394206D01*
G01X3359658Y1469390D02*
G01X3359658Y1394206D01*
G01X3477514Y1469390D02*
G01X3477514Y1394206D01*
G01X3477514Y1469390D02*
G01X3509772Y1469390D01*
G01X3520440Y1465834D01*
G01X3523996Y1462278D01*
G01X3527552Y1455166D01*
G01X3527552Y1444244D01*
G01X3523996Y1437132D01*
G01X3520440Y1433576D01*
G01X3509772Y1430020D01*
G01X3477514Y1430020D01*
G01X3565144Y1469390D02*
G01X3565144Y1394206D01*
G01X3565144Y1469390D02*
G01X3593846Y1394206D01*
G01X3622294Y1469390D02*
G01X3593846Y1394206D01*
G01X3622294Y1469390D02*
G01X3622294Y1394206D01*
G01X3681222Y1469390D02*
G01X3674110Y1465834D01*
G01X3666998Y1458722D01*
G01X3663442Y1451610D01*
G01X3659886Y1440688D01*
G01X3659886Y1422908D01*
G01X3663442Y1411986D01*
G01X3666998Y1404874D01*
G01X3674110Y1397762D01*
G01X3681222Y1394206D01*
G01X3695700Y1394206D01*
G01X3702812Y1397762D01*
G01X3709924Y1404874D01*
G01X3713480Y1411986D01*
G01X3717036Y1422908D01*
G01X3717036Y1440688D01*
G01X3713480Y1451610D01*
G01X3709924Y1458722D01*
G01X3702812Y1465834D01*
G01X3695700Y1469390D01*
G01X3681222Y1469390D01*
G01X3754628Y1469390D02*
G01X3754628Y1394206D01*
G01X3754628Y1469390D02*
G01X3779520Y1469390D01*
G01X3790442Y1465834D01*
G01X3797554Y1458722D01*
G01X3801110Y1451610D01*
G01X3804666Y1440688D01*
G01X3804666Y1422908D01*
G01X3801110Y1411986D01*
G01X3797554Y1404874D01*
G01X3790442Y1397762D01*
G01X3779520Y1394206D01*
G01X3754628Y1394206D01*
G54D11*
G01X1171702Y320040D02*
G01X1168654Y326390D01*
G01X1162304Y332486D01*
G01X1156208Y335534D01*
G01X1143762Y335534D01*
G01X1137666Y332486D01*
G01X1131316Y326390D01*
G01X1128268Y320040D01*
G01X1125220Y310896D01*
G01X1125220Y295402D01*
G01X1128268Y286004D01*
G01X1131316Y279908D01*
G01X1137666Y273558D01*
G01X1143762Y270510D01*
G01X1156208Y270510D01*
G01X1162304Y273558D01*
G01X1168654Y279908D01*
G01X1171702Y286004D01*
G01X1217168Y335534D02*
G01X1208024Y332486D01*
G01X1204976Y326390D01*
G01X1204976Y320040D01*
G01X1208024Y313944D01*
G01X1214120Y310896D01*
G01X1226566Y307848D01*
G01X1235964Y304546D01*
G01X1242060Y298450D01*
G01X1245108Y292354D01*
G01X1245108Y282956D01*
G01X1242060Y276860D01*
G01X1239012Y273558D01*
G01X1229614Y270510D01*
G01X1217168Y270510D01*
G01X1208024Y273558D01*
G01X1204976Y276860D01*
G01X1201928Y282956D01*
G01X1201928Y292354D01*
G01X1204976Y298450D01*
G01X1211072Y304546D01*
G01X1220470Y307848D01*
G01X1232662Y310896D01*
G01X1239012Y313944D01*
G01X1242060Y320040D01*
G01X1242060Y326390D01*
G01X1239012Y332486D01*
G01X1229614Y335534D01*
G01X1217168Y335534D01*
G01X1125220Y709304D02*
G01X1125220Y644280D01*
G01X1125220Y709304D02*
G01X1153160Y709304D01*
G01X1162304Y706256D01*
G01X1165352Y703208D01*
G01X1168654Y696858D01*
G01X1168654Y690762D01*
G01X1165352Y684666D01*
G01X1162304Y681618D01*
G01X1153160Y678316D01*
G01X1125220Y678316D01*
G01X1146810Y678316D02*
G01X1168654Y644280D01*
G01X1235964Y709304D02*
G01X1204976Y709304D01*
G01X1201928Y681618D01*
G01X1204976Y684666D01*
G01X1214120Y687714D01*
G01X1223518Y687714D01*
G01X1232916Y684666D01*
G01X1239012Y678316D01*
G01X1242060Y669172D01*
G01X1242060Y662822D01*
G01X1239012Y653678D01*
G01X1232916Y647328D01*
G01X1223518Y644280D01*
G01X1214120Y644280D01*
G01X1204976Y647328D01*
G01X1201928Y650630D01*
G01X1198880Y656726D01*
G01X1137920Y962631D02*
G01X1137920Y897607D01*
G01X1137920Y962631D02*
G01X1165860Y962631D01*
G01X1175004Y959583D01*
G01X1178052Y956535D01*
G01X1181354Y950185D01*
G01X1181354Y944089D01*
G01X1178052Y937993D01*
G01X1175004Y934945D01*
G01X1165860Y931643D01*
G01X1137920Y931643D01*
G01X1159510Y931643D02*
G01X1181354Y897607D01*
G01X1248664Y953487D02*
G01X1245616Y959583D01*
G01X1236218Y962631D01*
G01X1230122Y962631D01*
G01X1220724Y959583D01*
G01X1214628Y950185D01*
G01X1211580Y934945D01*
G01X1211580Y919451D01*
G01X1214628Y907005D01*
G01X1220724Y900655D01*
G01X1230122Y897607D01*
G01X1233170Y897607D01*
G01X1242314Y900655D01*
G01X1248664Y907005D01*
G01X1251712Y916149D01*
G01X1251712Y919451D01*
G01X1248664Y928595D01*
G01X1242314Y934945D01*
G01X1233170Y937993D01*
G01X1230122Y937993D01*
G01X1220724Y934945D01*
G01X1214628Y928595D01*
G01X1211580Y919451D01*
G01X1763290Y845820D02*
G01X1828314Y845820D01*
G01X1763290Y845820D02*
G01X1763290Y873760D01*
G01X1766338Y882904D01*
G01X1769386Y885952D01*
G01X1775736Y889254D01*
G01X1781832Y889254D01*
G01X1787928Y885952D01*
G01X1790976Y882904D01*
G01X1794278Y873760D01*
G01X1794278Y845820D01*
G01X1794278Y867410D02*
G01X1828314Y889254D01*
G01X1775736Y919480D02*
G01X1772434Y925576D01*
G01X1763290Y934720D01*
G01X1828314Y934720D01*
G01X1763290Y983488D02*
G01X1766338Y974090D01*
G01X1775736Y967994D01*
G01X1790976Y964946D01*
G01X1800374Y964946D01*
G01X1815868Y967994D01*
G01X1825266Y974090D01*
G01X1828314Y983488D01*
G01X1828314Y989584D01*
G01X1825266Y998982D01*
G01X1815868Y1005078D01*
G01X1800374Y1008126D01*
G01X1790976Y1008126D01*
G01X1775736Y1005078D01*
G01X1766338Y998982D01*
G01X1763290Y989584D01*
G01X1763290Y983488D01*
G01X1759966Y242697D02*
G01X1824990Y242697D01*
G01X1759966Y242697D02*
G01X1759966Y270637D01*
G01X1763014Y279781D01*
G01X1766062Y282829D01*
G01X1772412Y286131D01*
G01X1778508Y286131D01*
G01X1784604Y282829D01*
G01X1787652Y279781D01*
G01X1790954Y270637D01*
G01X1790954Y242697D01*
G01X1790954Y264287D02*
G01X1824990Y286131D01*
G01X1772412Y316357D02*
G01X1769110Y322453D01*
G01X1759966Y331597D01*
G01X1824990Y331597D01*
G01X1759966Y405003D02*
G01X1824990Y374015D01*
G01X1759966Y361823D02*
G01X1759966Y405003D01*
G01X2413254Y478790D02*
G01X2406904Y484886D01*
G01X2397760Y487934D01*
G01X2385314Y487934D01*
G01X2375916Y484886D01*
G01X2369820Y478790D01*
G01X2369820Y472440D01*
G01X2372868Y466344D01*
G01X2375916Y463296D01*
G01X2382266Y460248D01*
G01X2400808Y453898D01*
G01X2406904Y450850D01*
G01X2409952Y447802D01*
G01X2413254Y441452D01*
G01X2413254Y432308D01*
G01X2406904Y425958D01*
G01X2397760Y422910D01*
G01X2385314Y422910D01*
G01X2375916Y425958D01*
G01X2369820Y432308D01*
G01X2443480Y487934D02*
G01X2443480Y422910D01*
G01X2443480Y487934D02*
G01X2471166Y487934D01*
G01X2480564Y484886D01*
G01X2483612Y481838D01*
G01X2486660Y475488D01*
G01X2486660Y469392D01*
G01X2483612Y463296D01*
G01X2480564Y460248D01*
G01X2471166Y456946D01*
G01X2443480Y456946D01*
G01X2465070Y456946D02*
G01X2486660Y422910D01*
G01X2541524Y487934D02*
G01X2516886Y422910D01*
G01X2541524Y487934D02*
G01X2566416Y422910D01*
G01X2526030Y444754D02*
G01X2557018Y444754D01*
G01X2596642Y487934D02*
G01X2596642Y422910D01*
G01X2596642Y487934D02*
G01X2621280Y422910D01*
G01X2646172Y487934D02*
G01X2621280Y422910D01*
G01X2646172Y487934D02*
G01X2646172Y422910D01*
G01X2676398Y475488D02*
G01X2682494Y478790D01*
G01X2691638Y487934D01*
G01X2691638Y422910D01*
G01X1137920Y1199134D02*
G01X1137920Y1134110D01*
G01X1137920Y1199134D02*
G01X1165860Y1199134D01*
G01X1175004Y1196086D01*
G01X1178052Y1193038D01*
G01X1181354Y1186688D01*
G01X1181354Y1180592D01*
G01X1178052Y1174496D01*
G01X1175004Y1171448D01*
G01X1165860Y1168146D01*
G01X1137920Y1168146D01*
G01X1159510Y1168146D02*
G01X1181354Y1134110D01*
G01X1254760Y1199134D02*
G01X1223772Y1134110D01*
G01X1211580Y1199134D02*
G01X1254760Y1199134D01*
G01X3353054Y478790D02*
G01X3346704Y484886D01*
G01X3337560Y487934D01*
G01X3325114Y487934D01*
G01X3315716Y484886D01*
G01X3309620Y478790D01*
G01X3309620Y472440D01*
G01X3312668Y466344D01*
G01X3315716Y463296D01*
G01X3322066Y460248D01*
G01X3340608Y453898D01*
G01X3346704Y450850D01*
G01X3349752Y447802D01*
G01X3353054Y441452D01*
G01X3353054Y432308D01*
G01X3346704Y425958D01*
G01X3337560Y422910D01*
G01X3325114Y422910D01*
G01X3315716Y425958D01*
G01X3309620Y432308D01*
G01X3383280Y487934D02*
G01X3383280Y422910D01*
G01X3383280Y487934D02*
G01X3410966Y487934D01*
G01X3420364Y484886D01*
G01X3423412Y481838D01*
G01X3426460Y475488D01*
G01X3426460Y469392D01*
G01X3423412Y463296D01*
G01X3420364Y460248D01*
G01X3410966Y456946D01*
G01X3383280Y456946D01*
G01X3404870Y456946D02*
G01X3426460Y422910D01*
G01X3481324Y487934D02*
G01X3456686Y422910D01*
G01X3481324Y487934D02*
G01X3506216Y422910D01*
G01X3465830Y444754D02*
G01X3496818Y444754D01*
G01X3536442Y487934D02*
G01X3536442Y422910D01*
G01X3536442Y487934D02*
G01X3561080Y422910D01*
G01X3585972Y487934D02*
G01X3561080Y422910D01*
G01X3585972Y487934D02*
G01X3585972Y422910D01*
G01X3619246Y472440D02*
G01X3619246Y475488D01*
G01X3622294Y481838D01*
G01X3625342Y484886D01*
G01X3631438Y487934D01*
G01X3643884Y487934D01*
G01X3650234Y484886D01*
G01X3653282Y481838D01*
G01X3656330Y475488D01*
G01X3656330Y469392D01*
G01X3653282Y463296D01*
G01X3646932Y453898D01*
G01X3616198Y422910D01*
G01X3659378Y422910D01*
G01X1772666Y1137920D02*
G01X1837690Y1137920D01*
G01X1772666Y1137920D02*
G01X1772666Y1165860D01*
G01X1775714Y1175004D01*
G01X1778762Y1178052D01*
G01X1785112Y1181354D01*
G01X1791208Y1181354D01*
G01X1797304Y1178052D01*
G01X1800352Y1175004D01*
G01X1803654Y1165860D01*
G01X1803654Y1137920D01*
G01X1803654Y1159510D02*
G01X1837690Y1181354D01*
G01X1772666Y1226820D02*
G01X1775714Y1217676D01*
G01X1781810Y1214628D01*
G01X1788160Y1214628D01*
G01X1794256Y1217676D01*
G01X1797304Y1223772D01*
G01X1800352Y1236218D01*
G01X1803654Y1245616D01*
G01X1809750Y1251712D01*
G01X1815846Y1254760D01*
G01X1825244Y1254760D01*
G01X1831340Y1251712D01*
G01X1834642Y1248664D01*
G01X1837690Y1239266D01*
G01X1837690Y1226820D01*
G01X1834642Y1217676D01*
G01X1831340Y1214628D01*
G01X1825244Y1211580D01*
G01X1815846Y1211580D01*
G01X1809750Y1214628D01*
G01X1803654Y1220724D01*
G01X1800352Y1230122D01*
G01X1797304Y1242314D01*
G01X1794256Y1248664D01*
G01X1788160Y1251712D01*
G01X1781810Y1251712D01*
G01X1775714Y1248664D01*
G01X1772666Y1239266D01*
G01X1772666Y1226820D01*
G04 Text End*

G04 PolygonModel Start*
G01X1428062Y420919D02*
G01X1279563Y420919D01*
G01X1279563Y202397D02*
G01X1428062Y202397D01*
G01X1443302Y217637D02*
G01X1443302Y405679D01*
G01X945822Y420919D02*
G01X1094321Y420919D01*
G01X1094321Y202397D02*
G01X945822Y202397D01*
G01X930582Y217637D02*
G01X930582Y405679D01*
G01X1428062Y202397D02*
G03X1443302Y217637I0J15240D01*
G01X1443302Y405679D02*
G03X1428062Y420919I-15240J0D01*
G01X945822Y202397D02*
G02X930582Y217637I0J15240D01*
G01X930582Y405679D02*
G02X945822Y420919I15240J0D01*
G01X1095226Y781009D02*
G01X959235Y781009D01*
G01X959235Y781009D02*
G01X959235Y565191D01*
G01X959235Y565191D02*
G01X1095226Y565191D01*
G01X1285467Y781009D02*
G01X1421459Y781009D01*
G01X1421459Y781009D02*
G01X1421459Y565191D01*
G01X1421459Y565191D02*
G01X1285467Y565191D01*
G01X1095226Y1035009D02*
G01X959235Y1035009D01*
G01X959235Y1035009D02*
G01X959235Y819191D01*
G01X959235Y819191D02*
G01X1095226Y819191D01*
G01X1285467Y1035009D02*
G01X1421459Y1035009D01*
G01X1421459Y1035009D02*
G01X1421459Y819191D01*
G01X1421459Y819191D02*
G01X1285467Y819191D01*
G01X1898520Y819191D02*
G01X2034512Y819191D01*
G01X2034512Y819191D02*
G01X2034512Y1035009D01*
G01X2034512Y1035009D02*
G01X1898520Y1035009D01*
G01X1708280Y819191D02*
G01X1572288Y819191D01*
G01X1572288Y819191D02*
G01X1572288Y1035009D01*
G01X1572288Y1035009D02*
G01X1708280Y1035009D01*
G01X1898520Y222291D02*
G01X2034512Y222291D01*
G01X2034512Y222291D02*
G01X2034512Y438109D01*
G01X2034512Y438109D02*
G01X1898520Y438109D01*
G01X1708280Y222291D02*
G01X1572288Y222291D01*
G01X1572288Y222291D02*
G01X1572288Y438109D01*
G01X1572288Y438109D02*
G01X1708280Y438109D01*
G01X2390352Y1057145D02*
G01X2694634Y1057145D01*
G01X2694634Y1057145D02*
G01X2694634Y551904D01*
G01X2694634Y551904D02*
G01X2390352Y551904D01*
G01X2390352Y551904D02*
G01X2390352Y1057145D01*
G01X1098680Y1289009D02*
G01X962688Y1289009D01*
G01X962688Y1289009D02*
G01X962688Y1073191D01*
G01X962688Y1073191D02*
G01X1098680Y1073191D01*
G01X1288920Y1289009D02*
G01X1424912Y1289009D01*
G01X1424912Y1289009D02*
G01X1424912Y1073191D01*
G01X1424912Y1073191D02*
G01X1288920Y1073191D01*
G01X3327659Y1065421D02*
G01X3631941Y1065421D01*
G01X3631941Y1065421D02*
G01X3631941Y560179D01*
G01X3631941Y560179D02*
G01X3327659Y560179D01*
G01X3327659Y560179D02*
G01X3327659Y1065421D01*
G01X1898520Y1085891D02*
G01X2034512Y1085891D01*
G01X2034512Y1085891D02*
G01X2034512Y1301709D01*
G01X2034512Y1301709D02*
G01X1898520Y1301709D01*
G01X1708280Y1085891D02*
G01X1572288Y1085891D01*
G01X1572288Y1085891D02*
G01X1572288Y1301709D01*
G01X1572288Y1301709D02*
G01X1708280Y1301709D01*

G04 Circle Start*
G54D12*
G01X2450570Y995025D02*
G03X2480593Y995025I15011J0D01*
G03X2450570Y995025I-15011J0D01*
G01X2250241Y1069675D02*
G03X2280263Y1069675I15011J0D01*
G03X2250241Y1069675I-15011J0D01*
G01X3387877Y1003300D02*
G03X3417900Y1003300I15011J0D01*
G03X3387877Y1003300I-15011J0D01*
G01X3187548Y1077951D02*
G03X3217570Y1077951I15011J0D01*
G03X3187548Y1077951I-15011J0D01*
G04 Circle End*

M02*

