G04 Layer: DrillDrawingLayer*
G04 EasyEDA Pro v3.2.148, 2026-08-25 14:35:54*
G04 Gerber Generator version 0.3*
G04 Scale: 100 percent, Rotated: No, Reflected: No*
G04 Dimensions in millimeters*
G04 Leading zeros omitted, absolute positions, 4 integers and 5 decimals*
G04 Generated by one-click*
G04 Object Configs: Pad,Via,Track,Text,Image,Dimension,BoardOutline,BoardCutout,CopperFilled,SolidRegion,FPCStiffener,Line,PlaneZone,ComponentProperty,ComponentSilkscreen,TearDrop*
G04 Layer Configs: 1,15,16,2,3,4,5,6,7,8,9,10,11,13,14,56*
G04 Copper Areas: 0*
%FSLAX45Y45*%
%MOMM*%
%AMIconRect*4,1,4,0.28,-0.28,-0.28,-0.28,-0.28,0.28,0.28,0.28,0.28,-0.28,0*4,0,4,0.233333,-0.233333,0.233333,0.233333,-0.233333,0.233333,-0.233333,-0.233333,0.233333,-0.233333,0*%
%ADD10IconRect*%
%ADD11C,0.2032*%
%ADD12C,0.254*%
G75*


G04 Drill Drawing Start*
G54D10*
G01X330200Y133350D03*
G01X330200Y196850D03*
G01X330200Y387350D03*
G01X330200Y450850D03*
G01X395514Y133350D03*
G01X395514Y196850D03*
G01X395514Y387350D03*
G01X395514Y450850D03*
G01X460829Y133350D03*
G01X460829Y196850D03*
G01X460829Y387350D03*
G01X460829Y450850D03*
G01X526143Y133350D03*
G01X526143Y196850D03*
G01X526143Y387350D03*
G01X526143Y450850D03*
G01X591457Y133350D03*
G01X591457Y196850D03*
G01X591457Y387350D03*
G01X591457Y450850D03*
G01X656771Y133350D03*
G01X656771Y196850D03*
G01X656771Y387350D03*
G01X656771Y450850D03*
G01X722086Y133350D03*
G01X722086Y196850D03*
G01X722086Y387350D03*
G01X722086Y450850D03*
G01X787400Y133350D03*
G01X787400Y196850D03*
G01X787400Y387350D03*
G01X787400Y450850D03*
G01X990125Y348938D03*
G01X990210Y274378D03*
G01X1065174Y348938D03*
G01X1065258Y274378D03*
G01X1308566Y346649D03*
G01X1308785Y276675D03*
G01X1383615Y346641D03*
G01X1383834Y276667D03*
G01X1951276Y368225D03*
G01X1955077Y292100D03*
G01X1955077Y622300D03*
G01X1955077Y863600D03*
G01X1955077Y952667D03*
G01X1955077Y1185664D03*
G01X1955077Y1473200D03*
G01X1955573Y1105685D03*
G01X1955573Y1397472D03*
G01X1955575Y543372D03*
G01X2211178Y614025D03*
G01X2215189Y868236D03*
G01X2284244Y614025D03*
G01X2286400Y742700D03*
G01X2356000Y614000D03*
G01X2507205Y677149D03*
G01X2507424Y607174D03*
G01X2507424Y1001875D03*
G01X2507509Y927316D03*
G01X2582253Y677141D03*
G01X2582473Y607167D03*
G01X2582473Y1001875D03*
G01X2582557Y927316D03*
G01X2730500Y868236D03*
G01X2734531Y995025D03*
G01X2803243Y995025D03*
G01X2844800Y615200D03*
G01X2870200Y995200D03*
G01X3149600Y622300D03*
G01X3208851Y749300D03*
G01X3221551Y622300D03*
G01X3285800Y622300D03*
G01X3447534Y1003300D03*
G01X3448726Y606668D03*
G01X3449340Y672425D03*
G01X3449507Y939524D03*
G01X3521020Y1003300D03*
G01X3522993Y939524D03*
G01X3523775Y606668D03*
G01X3524389Y672425D03*
G01X3673800Y622300D03*
G01X3673800Y876300D03*
G01X3673800Y1005182D03*
G01X3736797Y1003300D03*
G01X3797300Y1003300D03*
G04 Drill Drawing End*

G04 Text Start*
G54D11*
G01X6212046Y1365794D02*
G01X6212046Y1245652D01*
G01X6212046Y1365794D02*
G01X6257766Y1245652D01*
G01X6303486Y1365794D02*
G01X6257766Y1245652D01*
G01X6303486Y1365794D02*
G01X6303486Y1245652D01*
G01X6419818Y1325662D02*
G01X6419818Y1245652D01*
G01X6419818Y1308644D02*
G01X6408388Y1320074D01*
G01X6396958Y1325662D01*
G01X6379940Y1325662D01*
G01X6368510Y1320074D01*
G01X6357080Y1308644D01*
G01X6351238Y1291372D01*
G01X6351238Y1279942D01*
G01X6357080Y1262924D01*
G01X6368510Y1251494D01*
G01X6379940Y1245652D01*
G01X6396958Y1245652D01*
G01X6408388Y1251494D01*
G01X6419818Y1262924D01*
G01X6467570Y1325662D02*
G01X6467570Y1245652D01*
G01X6467570Y1291372D02*
G01X6473412Y1308644D01*
G01X6484842Y1320074D01*
G01X6496272Y1325662D01*
G01X6513290Y1325662D01*
G01X6561042Y1365794D02*
G01X6561042Y1245652D01*
G01X6618192Y1325662D02*
G01X6561042Y1268512D01*
G01X6583902Y1291372D02*
G01X6624034Y1245652D01*
G01X7749326Y1337092D02*
G01X7743484Y1348522D01*
G01X7732054Y1359952D01*
G01X7720624Y1365794D01*
G01X7697764Y1365794D01*
G01X7686334Y1359952D01*
G01X7674904Y1348522D01*
G01X7669316Y1337092D01*
G01X7663474Y1320074D01*
G01X7663474Y1291372D01*
G01X7669316Y1274354D01*
G01X7674904Y1262924D01*
G01X7686334Y1251494D01*
G01X7697764Y1245652D01*
G01X7720624Y1245652D01*
G01X7732054Y1251494D01*
G01X7743484Y1262924D01*
G01X7749326Y1274354D01*
G01X7825780Y1325662D02*
G01X7814350Y1320074D01*
G01X7802920Y1308644D01*
G01X7797078Y1291372D01*
G01X7797078Y1279942D01*
G01X7802920Y1262924D01*
G01X7814350Y1251494D01*
G01X7825780Y1245652D01*
G01X7842798Y1245652D01*
G01X7854228Y1251494D01*
G01X7865658Y1262924D01*
G01X7871500Y1279942D01*
G01X7871500Y1291372D01*
G01X7865658Y1308644D01*
G01X7854228Y1320074D01*
G01X7842798Y1325662D01*
G01X7825780Y1325662D01*
G01X7919252Y1325662D02*
G01X7919252Y1268512D01*
G01X7925094Y1251494D01*
G01X7936524Y1245652D01*
G01X7953542Y1245652D01*
G01X7964972Y1251494D01*
G01X7982244Y1268512D01*
G01X7982244Y1325662D02*
G01X7982244Y1245652D01*
G01X8029996Y1325662D02*
G01X8029996Y1245652D01*
G01X8029996Y1302802D02*
G01X8047268Y1320074D01*
G01X8058698Y1325662D01*
G01X8075716Y1325662D01*
G01X8087146Y1320074D01*
G01X8092988Y1302802D01*
G01X8092988Y1245652D01*
G01X8158012Y1365794D02*
G01X8158012Y1268512D01*
G01X8163600Y1251494D01*
G01X8175030Y1245652D01*
G01X8186460Y1245652D01*
G01X8140740Y1325662D02*
G01X8180872Y1325662D01*
G01X9157647Y1348522D02*
G01X9146217Y1359952D01*
G01X9129199Y1365794D01*
G01X9106339Y1365794D01*
G01X9089067Y1359952D01*
G01X9077637Y1348522D01*
G01X9077637Y1337092D01*
G01X9083479Y1325662D01*
G01X9089067Y1320074D01*
G01X9100497Y1314232D01*
G01X9134787Y1302802D01*
G01X9146217Y1297214D01*
G01X9152059Y1291372D01*
G01X9157647Y1279942D01*
G01X9157647Y1262924D01*
G01X9146217Y1251494D01*
G01X9129199Y1245652D01*
G01X9106339Y1245652D01*
G01X9089067Y1251494D01*
G01X9077637Y1262924D01*
G01X9205399Y1365794D02*
G01X9211241Y1359952D01*
G01X9216829Y1365794D01*
G01X9211241Y1371382D01*
G01X9205399Y1365794D01*
G01X9211241Y1325662D02*
G01X9211241Y1245652D01*
G01X9327573Y1325662D02*
G01X9264581Y1245652D01*
G01X9264581Y1325662D02*
G01X9327573Y1325662D01*
G01X9264581Y1245652D02*
G01X9327573Y1245652D01*
G01X9375325Y1291372D02*
G01X9443905Y1291372D01*
G01X9443905Y1302802D01*
G01X9438317Y1314232D01*
G01X9432475Y1320074D01*
G01X9421045Y1325662D01*
G01X9404027Y1325662D01*
G01X9392597Y1320074D01*
G01X9381167Y1308644D01*
G01X9375325Y1291372D01*
G01X9375325Y1279942D01*
G01X9381167Y1262924D01*
G01X9392597Y1251494D01*
G01X9404027Y1245652D01*
G01X9421045Y1245652D01*
G01X9432475Y1251494D01*
G01X9443905Y1262924D01*
G01X11685601Y1365794D02*
G01X11685601Y1245652D01*
G01X11685601Y1365794D02*
G01X11737163Y1365794D01*
G01X11754181Y1359952D01*
G01X11760023Y1354364D01*
G01X11765611Y1342934D01*
G01X11765611Y1325662D01*
G01X11760023Y1314232D01*
G01X11754181Y1308644D01*
G01X11737163Y1302802D01*
G01X11685601Y1302802D01*
G01X11813363Y1365794D02*
G01X11813363Y1245652D01*
G01X11929695Y1325662D02*
G01X11929695Y1245652D01*
G01X11929695Y1308644D02*
G01X11918265Y1320074D01*
G01X11906835Y1325662D01*
G01X11889817Y1325662D01*
G01X11878387Y1320074D01*
G01X11866957Y1308644D01*
G01X11861115Y1291372D01*
G01X11861115Y1279942D01*
G01X11866957Y1262924D01*
G01X11878387Y1251494D01*
G01X11889817Y1245652D01*
G01X11906835Y1245652D01*
G01X11918265Y1251494D01*
G01X11929695Y1262924D01*
G01X11994719Y1365794D02*
G01X11994719Y1268512D01*
G01X12000307Y1251494D01*
G01X12011737Y1245652D01*
G01X12023167Y1245652D01*
G01X11977447Y1325662D02*
G01X12017579Y1325662D01*
G01X12070919Y1291372D02*
G01X12139499Y1291372D01*
G01X12139499Y1302802D01*
G01X12133911Y1314232D01*
G01X12128069Y1320074D01*
G01X12116639Y1325662D01*
G01X12099621Y1325662D01*
G01X12088191Y1320074D01*
G01X12076761Y1308644D01*
G01X12070919Y1291372D01*
G01X12070919Y1279942D01*
G01X12076761Y1262924D01*
G01X12088191Y1251494D01*
G01X12099621Y1245652D01*
G01X12116639Y1245652D01*
G01X12128069Y1251494D01*
G01X12139499Y1262924D01*
G01X12255831Y1365794D02*
G01X12255831Y1245652D01*
G01X12255831Y1308644D02*
G01X12244401Y1320074D01*
G01X12232971Y1325662D01*
G01X12215953Y1325662D01*
G01X12204523Y1320074D01*
G01X12193093Y1308644D01*
G01X12187251Y1291372D01*
G01X12187251Y1279942D01*
G01X12193093Y1262924D01*
G01X12204523Y1251494D01*
G01X12215953Y1245652D01*
G01X12232971Y1245652D01*
G01X12244401Y1251494D01*
G01X12255831Y1262924D01*
G01X13227018Y1348522D02*
G01X13215588Y1359952D01*
G01X13198570Y1365794D01*
G01X13175710Y1365794D01*
G01X13158438Y1359952D01*
G01X13147008Y1348522D01*
G01X13147008Y1337092D01*
G01X13152850Y1325662D01*
G01X13158438Y1320074D01*
G01X13169868Y1314232D01*
G01X13204158Y1302802D01*
G01X13215588Y1297214D01*
G01X13221430Y1291372D01*
G01X13227018Y1279942D01*
G01X13227018Y1262924D01*
G01X13215588Y1251494D01*
G01X13198570Y1245652D01*
G01X13175710Y1245652D01*
G01X13158438Y1251494D01*
G01X13147008Y1262924D01*
G01X13274770Y1365794D02*
G01X13274770Y1245652D01*
G01X13274770Y1302802D02*
G01X13292042Y1320074D01*
G01X13303472Y1325662D01*
G01X13320490Y1325662D01*
G01X13331920Y1320074D01*
G01X13337762Y1302802D01*
G01X13337762Y1245652D01*
G01X13454094Y1325662D02*
G01X13454094Y1245652D01*
G01X13454094Y1308644D02*
G01X13442664Y1320074D01*
G01X13431234Y1325662D01*
G01X13414216Y1325662D01*
G01X13402786Y1320074D01*
G01X13391356Y1308644D01*
G01X13385514Y1291372D01*
G01X13385514Y1279942D01*
G01X13391356Y1262924D01*
G01X13402786Y1251494D01*
G01X13414216Y1245652D01*
G01X13431234Y1245652D01*
G01X13442664Y1251494D01*
G01X13454094Y1262924D01*
G01X13501846Y1325662D02*
G01X13501846Y1205774D01*
G01X13501846Y1308644D02*
G01X13513276Y1320074D01*
G01X13524706Y1325662D01*
G01X13541978Y1325662D01*
G01X13553408Y1320074D01*
G01X13564838Y1308644D01*
G01X13570426Y1291372D01*
G01X13570426Y1279942D01*
G01X13564838Y1262924D01*
G01X13553408Y1251494D01*
G01X13541978Y1245652D01*
G01X13524706Y1245652D01*
G01X13513276Y1251494D01*
G01X13501846Y1262924D01*
G01X13618178Y1291372D02*
G01X13686758Y1291372D01*
G01X13686758Y1302802D01*
G01X13681170Y1314232D01*
G01X13675328Y1320074D01*
G01X13663898Y1325662D01*
G01X13646880Y1325662D01*
G01X13635450Y1320074D01*
G01X13624020Y1308644D01*
G01X13618178Y1291372D01*
G01X13618178Y1279942D01*
G01X13624020Y1262924D01*
G01X13635450Y1251494D01*
G01X13646880Y1245652D01*
G01X13663898Y1245652D01*
G01X13675328Y1251494D01*
G01X13686758Y1262924D01*
G01X14578189Y1365794D02*
G01X14623909Y1245652D01*
G01X14669629Y1365794D02*
G01X14623909Y1245652D01*
G01X14717381Y1365794D02*
G01X14723223Y1359952D01*
G01X14728811Y1365794D01*
G01X14723223Y1371382D01*
G01X14717381Y1365794D01*
G01X14723223Y1325662D02*
G01X14723223Y1245652D01*
G01X14845143Y1325662D02*
G01X14845143Y1245652D01*
G01X14845143Y1308644D02*
G01X14833713Y1320074D01*
G01X14822283Y1325662D01*
G01X14805265Y1325662D01*
G01X14793835Y1320074D01*
G01X14782405Y1308644D01*
G01X14776563Y1291372D01*
G01X14776563Y1279942D01*
G01X14782405Y1262924D01*
G01X14793835Y1251494D01*
G01X14805265Y1245652D01*
G01X14822283Y1245652D01*
G01X14833713Y1251494D01*
G01X14845143Y1262924D01*
G01X14995765Y1388654D02*
G01X14892895Y1205774D01*
G01X15043517Y1365794D02*
G01X15043517Y1245652D01*
G01X15043517Y1365794D02*
G01X15095079Y1365794D01*
G01X15112097Y1359952D01*
G01X15117939Y1354364D01*
G01X15123527Y1342934D01*
G01X15123527Y1325662D01*
G01X15117939Y1314232D01*
G01X15112097Y1308644D01*
G01X15095079Y1302802D01*
G01X15043517Y1302802D01*
G01X15239859Y1325662D02*
G01X15239859Y1245652D01*
G01X15239859Y1308644D02*
G01X15228429Y1320074D01*
G01X15216999Y1325662D01*
G01X15199981Y1325662D01*
G01X15188551Y1320074D01*
G01X15177121Y1308644D01*
G01X15171279Y1291372D01*
G01X15171279Y1279942D01*
G01X15177121Y1262924D01*
G01X15188551Y1251494D01*
G01X15199981Y1245652D01*
G01X15216999Y1245652D01*
G01X15228429Y1251494D01*
G01X15239859Y1262924D01*
G01X15356191Y1365794D02*
G01X15356191Y1245652D01*
G01X15356191Y1308644D02*
G01X15344761Y1320074D01*
G01X15333331Y1325662D01*
G01X15316313Y1325662D01*
G01X15304883Y1320074D01*
G01X15293453Y1308644D01*
G01X15287611Y1291372D01*
G01X15287611Y1279942D01*
G01X15293453Y1262924D01*
G01X15304883Y1251494D01*
G01X15316313Y1245652D01*
G01X15333331Y1245652D01*
G01X15344761Y1251494D01*
G01X15356191Y1262924D01*
G01X16247368Y1365794D02*
G01X16247368Y1245652D01*
G01X16247368Y1365794D02*
G01X16298930Y1365794D01*
G01X16315948Y1359952D01*
G01X16321790Y1354364D01*
G01X16327378Y1342934D01*
G01X16327378Y1325662D01*
G01X16321790Y1314232D01*
G01X16315948Y1308644D01*
G01X16298930Y1302802D01*
G01X16247368Y1302802D01*
G01X16443710Y1325662D02*
G01X16443710Y1245652D01*
G01X16443710Y1308644D02*
G01X16432280Y1320074D01*
G01X16420850Y1325662D01*
G01X16403832Y1325662D01*
G01X16392402Y1320074D01*
G01X16380972Y1308644D01*
G01X16375130Y1291372D01*
G01X16375130Y1279942D01*
G01X16380972Y1262924D01*
G01X16392402Y1251494D01*
G01X16403832Y1245652D01*
G01X16420850Y1245652D01*
G01X16432280Y1251494D01*
G01X16443710Y1262924D01*
G01X16560042Y1365794D02*
G01X16560042Y1245652D01*
G01X16560042Y1308644D02*
G01X16548612Y1320074D01*
G01X16537182Y1325662D01*
G01X16520164Y1325662D01*
G01X16508734Y1320074D01*
G01X16497304Y1308644D01*
G01X16491462Y1291372D01*
G01X16491462Y1279942D01*
G01X16497304Y1262924D01*
G01X16508734Y1251494D01*
G01X16520164Y1245652D01*
G01X16537182Y1245652D01*
G01X16548612Y1251494D01*
G01X16560042Y1262924D01*
G01X16815820Y1348522D02*
G01X16804390Y1359952D01*
G01X16787372Y1365794D01*
G01X16764512Y1365794D01*
G01X16747240Y1359952D01*
G01X16735810Y1348522D01*
G01X16735810Y1337092D01*
G01X16741652Y1325662D01*
G01X16747240Y1320074D01*
G01X16758670Y1314232D01*
G01X16792960Y1302802D01*
G01X16804390Y1297214D01*
G01X16810232Y1291372D01*
G01X16815820Y1279942D01*
G01X16815820Y1262924D01*
G01X16804390Y1251494D01*
G01X16787372Y1245652D01*
G01X16764512Y1245652D01*
G01X16747240Y1251494D01*
G01X16735810Y1262924D01*
G01X16863572Y1365794D02*
G01X16863572Y1245652D01*
G01X16863572Y1302802D02*
G01X16880844Y1320074D01*
G01X16892274Y1325662D01*
G01X16909292Y1325662D01*
G01X16920722Y1320074D01*
G01X16926564Y1302802D01*
G01X16926564Y1245652D01*
G01X17042896Y1325662D02*
G01X17042896Y1245652D01*
G01X17042896Y1308644D02*
G01X17031466Y1320074D01*
G01X17020036Y1325662D01*
G01X17003018Y1325662D01*
G01X16991588Y1320074D01*
G01X16980158Y1308644D01*
G01X16974316Y1291372D01*
G01X16974316Y1279942D01*
G01X16980158Y1262924D01*
G01X16991588Y1251494D01*
G01X17003018Y1245652D01*
G01X17020036Y1245652D01*
G01X17031466Y1251494D01*
G01X17042896Y1262924D01*
G01X17090648Y1325662D02*
G01X17090648Y1205774D01*
G01X17090648Y1308644D02*
G01X17102078Y1320074D01*
G01X17113508Y1325662D01*
G01X17130780Y1325662D01*
G01X17142210Y1320074D01*
G01X17153640Y1308644D01*
G01X17159228Y1291372D01*
G01X17159228Y1279942D01*
G01X17153640Y1262924D01*
G01X17142210Y1251494D01*
G01X17130780Y1245652D01*
G01X17113508Y1245652D01*
G01X17102078Y1251494D01*
G01X17090648Y1262924D01*
G01X17206980Y1291372D02*
G01X17275560Y1291372D01*
G01X17275560Y1302802D01*
G01X17269972Y1314232D01*
G01X17264130Y1320074D01*
G01X17252700Y1325662D01*
G01X17235682Y1325662D01*
G01X17224252Y1320074D01*
G01X17212822Y1308644D01*
G01X17206980Y1291372D01*
G01X17206980Y1279942D01*
G01X17212822Y1262924D01*
G01X17224252Y1251494D01*
G01X17235682Y1245652D01*
G01X17252700Y1245652D01*
G01X17264130Y1251494D01*
G01X17275560Y1262924D01*
G01X18166737Y1365794D02*
G01X18166737Y1245652D01*
G01X18166737Y1245652D02*
G01X18235317Y1245652D01*
G01X18351649Y1325662D02*
G01X18351649Y1245652D01*
G01X18351649Y1308644D02*
G01X18340219Y1320074D01*
G01X18328789Y1325662D01*
G01X18311771Y1325662D01*
G01X18300341Y1320074D01*
G01X18288911Y1308644D01*
G01X18283069Y1291372D01*
G01X18283069Y1279942D01*
G01X18288911Y1262924D01*
G01X18300341Y1251494D01*
G01X18311771Y1245652D01*
G01X18328789Y1245652D01*
G01X18340219Y1251494D01*
G01X18351649Y1262924D01*
G01X18405243Y1325662D02*
G01X18439533Y1245652D01*
G01X18473823Y1325662D02*
G01X18439533Y1245652D01*
G01X18428103Y1222792D01*
G01X18416673Y1211362D01*
G01X18405243Y1205774D01*
G01X18399401Y1205774D01*
G01X18521575Y1291372D02*
G01X18590155Y1291372D01*
G01X18590155Y1302802D01*
G01X18584567Y1314232D01*
G01X18578725Y1320074D01*
G01X18567295Y1325662D01*
G01X18550277Y1325662D01*
G01X18538847Y1320074D01*
G01X18527417Y1308644D01*
G01X18521575Y1291372D01*
G01X18521575Y1279942D01*
G01X18527417Y1262924D01*
G01X18538847Y1251494D01*
G01X18550277Y1245652D01*
G01X18567295Y1245652D01*
G01X18578725Y1251494D01*
G01X18590155Y1262924D01*
G01X18637907Y1325662D02*
G01X18637907Y1245652D01*
G01X18637907Y1291372D02*
G01X18643749Y1308644D01*
G01X18655179Y1320074D01*
G01X18666609Y1325662D01*
G01X18683627Y1325662D01*
G01X18859395Y1365794D02*
G01X18859395Y1245652D01*
G01X18859395Y1365794D02*
G01X18910957Y1365794D01*
G01X18927975Y1359952D01*
G01X18933817Y1354364D01*
G01X18939405Y1342934D01*
G01X18939405Y1325662D01*
G01X18933817Y1314232D01*
G01X18927975Y1308644D01*
G01X18910957Y1302802D01*
G01X18859395Y1302802D01*
G01X19055737Y1325662D02*
G01X19055737Y1245652D01*
G01X19055737Y1308644D02*
G01X19044307Y1320074D01*
G01X19032877Y1325662D01*
G01X19015859Y1325662D01*
G01X19004429Y1320074D01*
G01X18992999Y1308644D01*
G01X18987157Y1291372D01*
G01X18987157Y1279942D01*
G01X18992999Y1262924D01*
G01X19004429Y1251494D01*
G01X19015859Y1245652D01*
G01X19032877Y1245652D01*
G01X19044307Y1251494D01*
G01X19055737Y1262924D01*
G01X19103489Y1365794D02*
G01X19109331Y1359952D01*
G01X19114919Y1365794D01*
G01X19109331Y1371382D01*
G01X19103489Y1365794D01*
G01X19109331Y1325662D02*
G01X19109331Y1245652D01*
G01X19162671Y1325662D02*
G01X19162671Y1245652D01*
G01X19162671Y1291372D02*
G01X19168513Y1308644D01*
G01X19179943Y1320074D01*
G01X19191373Y1325662D01*
G01X19208391Y1325662D01*
G01X7692176Y785223D02*
G01X7674904Y779381D01*
G01X7669316Y767951D01*
G01X7669316Y756521D01*
G01X7674904Y745091D01*
G01X7686334Y739503D01*
G01X7709194Y733661D01*
G01X7726466Y728073D01*
G01X7737896Y716643D01*
G01X7743484Y705213D01*
G01X7743484Y687941D01*
G01X7737896Y676511D01*
G01X7732054Y670923D01*
G01X7715036Y665081D01*
G01X7692176Y665081D01*
G01X7674904Y670923D01*
G01X7669316Y676511D01*
G01X7663474Y687941D01*
G01X7663474Y705213D01*
G01X7669316Y716643D01*
G01X7680746Y728073D01*
G01X7697764Y733661D01*
G01X7720624Y739503D01*
G01X7732054Y745091D01*
G01X7737896Y756521D01*
G01X7737896Y767951D01*
G01X7732054Y779381D01*
G01X7715036Y785223D01*
G01X7692176Y785223D01*
G01X7859816Y785223D02*
G01X7802666Y785223D01*
G01X7797078Y733661D01*
G01X7802666Y739503D01*
G01X7819938Y745091D01*
G01X7836956Y745091D01*
G01X7854228Y739503D01*
G01X7865658Y728073D01*
G01X7871246Y710801D01*
G01X7871246Y699371D01*
G01X7865658Y682353D01*
G01X7854228Y670923D01*
G01X7836956Y665081D01*
G01X7819938Y665081D01*
G01X7802666Y670923D01*
G01X7797078Y676511D01*
G01X7791236Y687941D01*
G01X9077637Y762363D02*
G01X9089067Y767951D01*
G01X9106339Y785223D01*
G01X9106339Y665081D01*
G01X9159933Y756521D02*
G01X9159933Y762363D01*
G01X9165521Y773793D01*
G01X9171363Y779381D01*
G01X9182793Y785223D01*
G01X9205653Y785223D01*
G01X9217083Y779381D01*
G01X9222671Y773793D01*
G01X9228513Y762363D01*
G01X9228513Y750933D01*
G01X9222671Y739503D01*
G01X9211241Y722231D01*
G01X9154091Y665081D01*
G01X9234101Y665081D01*
G01X9287695Y693783D02*
G01X9281853Y687941D01*
G01X9287695Y682353D01*
G01X9293283Y687941D01*
G01X9287695Y693783D01*
G01X9375325Y785223D02*
G01X9358307Y779381D01*
G01X9346877Y762363D01*
G01X9341035Y733661D01*
G01X9341035Y716643D01*
G01X9346877Y687941D01*
G01X9358307Y670923D01*
G01X9375325Y665081D01*
G01X9386755Y665081D01*
G01X9404027Y670923D01*
G01X9415457Y687941D01*
G01X9421045Y716643D01*
G01X9421045Y733661D01*
G01X9415457Y762363D01*
G01X9404027Y779381D01*
G01X9386755Y785223D01*
G01X9375325Y785223D01*
G01X9468797Y745091D02*
G01X9468797Y665081D01*
G01X9468797Y722231D02*
G01X9486069Y739503D01*
G01X9497499Y745091D01*
G01X9514517Y745091D01*
G01X9525947Y739503D01*
G01X9531789Y722231D01*
G01X9531789Y665081D01*
G01X9531789Y722231D02*
G01X9548807Y739503D01*
G01X9560237Y745091D01*
G01X9577509Y745091D01*
G01X9588939Y739503D01*
G01X9594527Y722231D01*
G01X9594527Y665081D01*
G01X9642279Y785223D02*
G01X9648121Y779381D01*
G01X9653709Y785223D01*
G01X9648121Y790811D01*
G01X9642279Y785223D01*
G01X9648121Y745091D02*
G01X9648121Y665081D01*
G01X9701461Y785223D02*
G01X9701461Y665081D01*
G01X9789345Y808083D02*
G01X9777915Y796653D01*
G01X9766485Y779381D01*
G01X9755055Y756521D01*
G01X9749213Y728073D01*
G01X9749213Y705213D01*
G01X9755055Y676511D01*
G01X9766485Y653651D01*
G01X9777915Y636633D01*
G01X9789345Y625203D01*
G01X9871387Y785223D02*
G01X9854369Y779381D01*
G01X9842939Y762363D01*
G01X9837097Y733661D01*
G01X9837097Y716643D01*
G01X9842939Y687941D01*
G01X9854369Y670923D01*
G01X9871387Y665081D01*
G01X9882817Y665081D01*
G01X9900089Y670923D01*
G01X9911519Y687941D01*
G01X9917107Y716643D01*
G01X9917107Y733661D01*
G01X9911519Y762363D01*
G01X9900089Y779381D01*
G01X9882817Y785223D01*
G01X9871387Y785223D01*
G01X9970701Y693783D02*
G01X9964859Y687941D01*
G01X9970701Y682353D01*
G01X9976289Y687941D01*
G01X9970701Y693783D01*
G01X10035471Y785223D02*
G01X10098463Y785223D01*
G01X10064173Y739503D01*
G01X10081191Y739503D01*
G01X10092621Y733661D01*
G01X10098463Y728073D01*
G01X10104051Y710801D01*
G01X10104051Y699371D01*
G01X10098463Y682353D01*
G01X10087033Y670923D01*
G01X10069761Y665081D01*
G01X10052743Y665081D01*
G01X10035471Y670923D01*
G01X10029883Y676511D01*
G01X10024041Y687941D01*
G01X10186093Y785223D02*
G01X10169075Y779381D01*
G01X10157645Y762363D01*
G01X10151803Y733661D01*
G01X10151803Y716643D01*
G01X10157645Y687941D01*
G01X10169075Y670923D01*
G01X10186093Y665081D01*
G01X10197523Y665081D01*
G01X10214795Y670923D01*
G01X10226225Y687941D01*
G01X10231813Y716643D01*
G01X10231813Y733661D01*
G01X10226225Y762363D01*
G01X10214795Y779381D01*
G01X10197523Y785223D01*
G01X10186093Y785223D01*
G01X10348145Y785223D02*
G01X10290995Y785223D01*
G01X10285407Y733661D01*
G01X10290995Y739503D01*
G01X10308267Y745091D01*
G01X10325285Y745091D01*
G01X10342557Y739503D01*
G01X10353987Y728073D01*
G01X10359575Y710801D01*
G01X10359575Y699371D01*
G01X10353987Y682353D01*
G01X10342557Y670923D01*
G01X10325285Y665081D01*
G01X10308267Y665081D01*
G01X10290995Y670923D01*
G01X10285407Y676511D01*
G01X10279565Y687941D01*
G01X10407327Y745091D02*
G01X10407327Y665081D01*
G01X10407327Y722231D02*
G01X10424599Y739503D01*
G01X10436029Y745091D01*
G01X10453047Y745091D01*
G01X10464477Y739503D01*
G01X10470319Y722231D01*
G01X10470319Y665081D01*
G01X10470319Y722231D02*
G01X10487337Y739503D01*
G01X10498767Y745091D01*
G01X10516039Y745091D01*
G01X10527469Y739503D01*
G01X10533057Y722231D01*
G01X10533057Y665081D01*
G01X10580809Y745091D02*
G01X10580809Y665081D01*
G01X10580809Y722231D02*
G01X10598081Y739503D01*
G01X10609511Y745091D01*
G01X10626529Y745091D01*
G01X10637959Y739503D01*
G01X10643801Y722231D01*
G01X10643801Y665081D01*
G01X10643801Y722231D02*
G01X10660819Y739503D01*
G01X10672249Y745091D01*
G01X10689521Y745091D01*
G01X10700951Y739503D01*
G01X10706539Y722231D01*
G01X10706539Y665081D01*
G01X10754291Y808083D02*
G01X10765721Y796653D01*
G01X10777151Y779381D01*
G01X10788581Y756521D01*
G01X10794423Y728073D01*
G01X10794423Y705213D01*
G01X10788581Y676511D01*
G01X10777151Y653651D01*
G01X10765721Y636633D01*
G01X10754291Y625203D01*
G01X11685601Y785223D02*
G01X11685601Y665081D01*
G01X11685601Y785223D02*
G01X11737163Y785223D01*
G01X11754181Y779381D01*
G01X11760023Y773793D01*
G01X11765611Y762363D01*
G01X11765611Y745091D01*
G01X11760023Y733661D01*
G01X11754181Y728073D01*
G01X11737163Y722231D01*
G01X11685601Y722231D01*
G01X11853495Y785223D02*
G01X11853495Y665081D01*
G01X11813363Y785223D02*
G01X11893373Y785223D01*
G01X11941125Y785223D02*
G01X11941125Y665081D01*
G01X12021135Y785223D02*
G01X12021135Y665081D01*
G01X11941125Y728073D02*
G01X12021135Y728073D01*
G01X13147008Y785223D02*
G01X13147008Y665081D01*
G01X13147008Y785223D02*
G01X13198570Y785223D01*
G01X13215588Y779381D01*
G01X13221430Y773793D01*
G01X13227018Y762363D01*
G01X13227018Y750933D01*
G01X13221430Y739503D01*
G01X13215588Y733661D01*
G01X13198570Y728073D01*
G01X13147008Y728073D01*
G01X13187140Y728073D02*
G01X13227018Y665081D01*
G01X13303472Y745091D02*
G01X13292042Y739503D01*
G01X13280612Y728073D01*
G01X13274770Y710801D01*
G01X13274770Y699371D01*
G01X13280612Y682353D01*
G01X13292042Y670923D01*
G01X13303472Y665081D01*
G01X13320490Y665081D01*
G01X13331920Y670923D01*
G01X13343350Y682353D01*
G01X13349192Y699371D01*
G01X13349192Y710801D01*
G01X13343350Y728073D01*
G01X13331920Y739503D01*
G01X13320490Y745091D01*
G01X13303472Y745091D01*
G01X13396944Y745091D02*
G01X13396944Y687941D01*
G01X13402786Y670923D01*
G01X13414216Y665081D01*
G01X13431234Y665081D01*
G01X13442664Y670923D01*
G01X13459936Y687941D01*
G01X13459936Y745091D02*
G01X13459936Y665081D01*
G01X13507688Y745091D02*
G01X13507688Y665081D01*
G01X13507688Y722231D02*
G01X13524960Y739503D01*
G01X13536390Y745091D01*
G01X13553408Y745091D01*
G01X13564838Y739503D01*
G01X13570680Y722231D01*
G01X13570680Y665081D01*
G01X13687012Y785223D02*
G01X13687012Y665081D01*
G01X13687012Y728073D02*
G01X13675582Y739503D01*
G01X13664152Y745091D01*
G01X13647134Y745091D01*
G01X13635704Y739503D01*
G01X13624274Y728073D01*
G01X13618432Y710801D01*
G01X13618432Y699371D01*
G01X13624274Y682353D01*
G01X13635704Y670923D01*
G01X13647134Y665081D01*
G01X13664152Y665081D01*
G01X13675582Y670923D01*
G01X13687012Y682353D01*
G01X14578189Y785223D02*
G01X14623909Y665081D01*
G01X14669629Y785223D02*
G01X14623909Y665081D01*
G01X14717381Y785223D02*
G01X14723223Y779381D01*
G01X14728811Y785223D01*
G01X14723223Y790811D01*
G01X14717381Y785223D01*
G01X14723223Y745091D02*
G01X14723223Y665081D01*
G01X14845143Y745091D02*
G01X14845143Y665081D01*
G01X14845143Y728073D02*
G01X14833713Y739503D01*
G01X14822283Y745091D01*
G01X14805265Y745091D01*
G01X14793835Y739503D01*
G01X14782405Y728073D01*
G01X14776563Y710801D01*
G01X14776563Y699371D01*
G01X14782405Y682353D01*
G01X14793835Y670923D01*
G01X14805265Y665081D01*
G01X14822283Y665081D01*
G01X14833713Y670923D01*
G01X14845143Y682353D01*
G01X18206869Y785223D02*
G01X18206869Y665081D01*
G01X18166737Y785223D02*
G01X18246747Y785223D01*
G01X18323201Y745091D02*
G01X18311771Y739503D01*
G01X18300341Y728073D01*
G01X18294499Y710801D01*
G01X18294499Y699371D01*
G01X18300341Y682353D01*
G01X18311771Y670923D01*
G01X18323201Y665081D01*
G01X18340219Y665081D01*
G01X18351649Y670923D01*
G01X18363079Y682353D01*
G01X18368921Y699371D01*
G01X18368921Y710801D01*
G01X18363079Y728073D01*
G01X18351649Y739503D01*
G01X18340219Y745091D01*
G01X18323201Y745091D01*
G01X18416673Y745091D02*
G01X18416673Y625203D01*
G01X18416673Y728073D02*
G01X18428103Y739503D01*
G01X18439533Y745091D01*
G01X18456805Y745091D01*
G01X18468235Y739503D01*
G01X18479665Y728073D01*
G01X18485253Y710801D01*
G01X18485253Y699371D01*
G01X18479665Y682353D01*
G01X18468235Y670923D01*
G01X18456805Y665081D01*
G01X18439533Y665081D01*
G01X18428103Y670923D01*
G01X18416673Y682353D01*
G01X18661021Y785223D02*
G01X18661021Y665081D01*
G01X18661021Y665081D02*
G01X18729601Y665081D01*
G01X18845933Y745091D02*
G01X18845933Y665081D01*
G01X18845933Y728073D02*
G01X18834503Y739503D01*
G01X18823073Y745091D01*
G01X18806055Y745091D01*
G01X18794625Y739503D01*
G01X18783195Y728073D01*
G01X18777353Y710801D01*
G01X18777353Y699371D01*
G01X18783195Y682353D01*
G01X18794625Y670923D01*
G01X18806055Y665081D01*
G01X18823073Y665081D01*
G01X18834503Y670923D01*
G01X18845933Y682353D01*
G01X18899527Y745091D02*
G01X18933817Y665081D01*
G01X18968107Y745091D02*
G01X18933817Y665081D01*
G01X18922387Y642221D01*
G01X18910957Y630791D01*
G01X18899527Y625203D01*
G01X18893685Y625203D01*
G01X19015859Y710801D02*
G01X19084439Y710801D01*
G01X19084439Y722231D01*
G01X19078851Y733661D01*
G01X19073009Y739503D01*
G01X19061579Y745091D01*
G01X19044561Y745091D01*
G01X19033131Y739503D01*
G01X19021701Y728073D01*
G01X19015859Y710801D01*
G01X19015859Y699371D01*
G01X19021701Y682353D01*
G01X19033131Y670923D01*
G01X19044561Y665081D01*
G01X19061579Y665081D01*
G01X19073009Y670923D01*
G01X19084439Y682353D01*
G01X19132191Y745091D02*
G01X19132191Y665081D01*
G01X19132191Y710801D02*
G01X19138033Y728073D01*
G01X19149463Y739503D01*
G01X19160893Y745091D01*
G01X19177911Y745091D01*
G01X19225663Y716643D02*
G01X19328533Y716643D01*
G01X19376285Y785223D02*
G01X19376285Y665081D01*
G01X19376285Y785223D02*
G01X19427847Y785223D01*
G01X19444865Y779381D01*
G01X19450707Y773793D01*
G01X19456295Y762363D01*
G01X19456295Y750933D01*
G01X19450707Y739503D01*
G01X19444865Y733661D01*
G01X19427847Y728073D01*
G01X19376285Y728073D02*
G01X19427847Y728073D01*
G01X19444865Y722231D01*
G01X19450707Y716643D01*
G01X19456295Y705213D01*
G01X19456295Y687941D01*
G01X19450707Y676511D01*
G01X19444865Y670923D01*
G01X19427847Y665081D01*
G01X19376285Y665081D01*
G01X19532749Y745091D02*
G01X19521319Y739503D01*
G01X19509889Y728073D01*
G01X19504047Y710801D01*
G01X19504047Y699371D01*
G01X19509889Y682353D01*
G01X19521319Y670923D01*
G01X19532749Y665081D01*
G01X19549767Y665081D01*
G01X19561197Y670923D01*
G01X19572627Y682353D01*
G01X19578469Y699371D01*
G01X19578469Y710801D01*
G01X19572627Y728073D01*
G01X19561197Y739503D01*
G01X19549767Y745091D01*
G01X19532749Y745091D01*
G01X19643493Y785223D02*
G01X19643493Y687941D01*
G01X19649081Y670923D01*
G01X19660511Y665081D01*
G01X19671941Y665081D01*
G01X19626221Y745091D02*
G01X19666353Y745091D01*
G01X19736965Y785223D02*
G01X19736965Y687941D01*
G01X19742553Y670923D01*
G01X19753983Y665081D01*
G01X19765413Y665081D01*
G01X19719693Y745091D02*
G01X19759825Y745091D01*
G01X19841867Y745091D02*
G01X19830437Y739503D01*
G01X19819007Y728073D01*
G01X19813165Y710801D01*
G01X19813165Y699371D01*
G01X19819007Y682353D01*
G01X19830437Y670923D01*
G01X19841867Y665081D01*
G01X19858885Y665081D01*
G01X19870315Y670923D01*
G01X19881745Y682353D01*
G01X19887587Y699371D01*
G01X19887587Y710801D01*
G01X19881745Y728073D01*
G01X19870315Y739503D01*
G01X19858885Y745091D01*
G01X19841867Y745091D01*
G01X19935339Y745091D02*
G01X19935339Y665081D01*
G01X19935339Y722231D02*
G01X19952611Y739503D01*
G01X19964041Y745091D01*
G01X19981059Y745091D01*
G01X19992489Y739503D01*
G01X19998331Y722231D01*
G01X19998331Y665081D01*
G01X19998331Y722231D02*
G01X20015349Y739503D01*
G01X20026779Y745091D01*
G01X20044051Y745091D01*
G01X20055481Y739503D01*
G01X20061069Y722231D01*
G01X20061069Y665081D01*
G01X20236837Y785223D02*
G01X20236837Y665081D01*
G01X20236837Y665081D02*
G01X20305417Y665081D01*
G01X20421749Y745091D02*
G01X20421749Y665081D01*
G01X20421749Y728073D02*
G01X20410319Y739503D01*
G01X20398889Y745091D01*
G01X20381871Y745091D01*
G01X20370441Y739503D01*
G01X20359011Y728073D01*
G01X20353169Y710801D01*
G01X20353169Y699371D01*
G01X20359011Y682353D01*
G01X20370441Y670923D01*
G01X20381871Y665081D01*
G01X20398889Y665081D01*
G01X20410319Y670923D01*
G01X20421749Y682353D01*
G01X20475343Y745091D02*
G01X20509633Y665081D01*
G01X20543923Y745091D02*
G01X20509633Y665081D01*
G01X20498203Y642221D01*
G01X20486773Y630791D01*
G01X20475343Y625203D01*
G01X20469501Y625203D01*
G01X20591675Y710801D02*
G01X20660255Y710801D01*
G01X20660255Y722231D01*
G01X20654667Y733661D01*
G01X20648825Y739503D01*
G01X20637395Y745091D01*
G01X20620377Y745091D01*
G01X20608947Y739503D01*
G01X20597517Y728073D01*
G01X20591675Y710801D01*
G01X20591675Y699371D01*
G01X20597517Y682353D01*
G01X20608947Y670923D01*
G01X20620377Y665081D01*
G01X20637395Y665081D01*
G01X20648825Y670923D01*
G01X20660255Y682353D01*
G01X20708007Y745091D02*
G01X20708007Y665081D01*
G01X20708007Y710801D02*
G01X20713849Y728073D01*
G01X20725279Y739503D01*
G01X20736709Y745091D01*
G01X20753727Y745091D01*

G04 Image Start*
G36*
G01X6201886Y861786D02*
G01X6481286Y861786D01*
G01X6481286Y582386D01*
G01X6201886Y582386D01*
G01X6201886Y836386D01*
G01X6227286Y836386D01*
G01X6227286Y607786D01*
G01X6455886Y607786D01*
G01X6455886Y836386D01*
G01X6455886Y836386D01*
G01X6227286Y836386D01*
G01X6201886Y836386D01*
G01X6201886Y861786D01*
G37*

G04 PolygonModel Start*
G54D12*
G01X5911600Y426357D02*
G01X21344459Y426357D01*
G01X5911600Y1006929D02*
G01X21344459Y1006929D01*
G01X5911600Y1587500D02*
G01X21344459Y1587500D01*
G01X5911600Y1587500D02*
G01X5911600Y451757D01*
G01X7363029Y1587500D02*
G01X7363029Y451757D01*
G01X8777192Y1587500D02*
G01X8777192Y451757D01*
G01X11385155Y1587500D02*
G01X11385155Y451757D01*
G01X12846562Y1587500D02*
G01X12846562Y451757D01*
G01X14277743Y1587500D02*
G01X14277743Y451757D01*
G01X15946922Y1587500D02*
G01X15946922Y451757D01*
G01X17866291Y1587500D02*
G01X17866291Y451757D01*
G01X21344459Y1587500D02*
G01X21344459Y451757D01*

M02*

