;TYPE=PLATED
;Layer: PTH_Through_Via
;EasyEDA Pro v3.2.148, 2026-07-10 19:43:19
;Gerber Generator version 0.3
M48
METRIC,LZ,0000.00000
;Hole size 1 = 0.30500 METRIC
T01C0.30500
%
G05
G90
T01
X0.889Y-32.893
X0.889Y-33.528
X0.254Y-32.893
X0.254Y-33.528
X-0.381Y-32.893
X-0.381Y-33.528
X-1.016Y-32.893
X-1.016Y-33.528
X-1.0795Y-35.4965
X-1.0795Y-36.1315
X-0.4445Y-36.1315
X-0.4445Y-35.4965
X0.1905Y-35.4965
X0.8255Y-35.4965
X0.8255Y-36.1315
X0.1905Y-36.1315
X6.7945Y-34.66592
X6.1595Y-34.66592
X6.1595Y-34.03092
X6.7945Y-34.03092
X2.97434Y-34.03092
X3.60934Y-34.03092
X3.60934Y-34.66592
X2.97434Y-34.66592
X31.6865Y-35.56508
X32.3215Y-35.56508
X32.3215Y-36.20008
X31.6865Y-36.20008
X31.6865Y-32.37992
X32.3215Y-32.37992
X32.3215Y-33.01492
X31.6865Y-33.01492
X27.85962Y-23.32138
X28.49462Y-23.32138
X27.85962Y-23.95638
X28.49462Y-23.95638
X25.60738Y-25.57362
X25.60738Y-26.20862
X26.24238Y-26.20862
X26.24238Y-25.57362
M30