G04 Layer: BottomPasteMaskLayer*
G04 EasyEDA Pro v3.2.148, 2026-07-10 19:43:19*
G04 Gerber Generator version 0.3*
G04 Scale: 100 percent, Rotated: No, Reflected: No*
G04 Dimensions in millimeters*
G04 Leading zeros omitted, absolute positions, 4 integers and 5 decimals*
G04 Generated by one-click*
G04 Object Configs: Pad,Via,Track,Text,Image,Dimension,BoardOutline,BoardCutout,CopperFilled,SolidRegion,FPCStiffener,Line,PlaneZone,ComponentProperty,ComponentSilkscreen,TearDrop*
G04 Layer Configs: 1,15,16,2,3,4,5,6,7,8,9,10,11,13,14,56*
G04 Copper Areas: 0*
%FSLAX45Y45*%
%MOMM*%
%ADD10R,7.2X1.8*%
%ADD11C,0.1549*%
G75*


G04 PolygonModel Start*
G36*
G01X3123999Y-3343999D02*
G01X3113999Y-3333999D01*
G01X3113999Y-3205500D01*
G01X3123999Y-3195500D01*
G01X3276801Y-3195500D01*
G01X3286801Y-3205500D01*
G01X3286801Y-3333999D01*
G01X3276801Y-3343999D01*
G01X3239775Y-3343999D01*
G01X3229775Y-3333999D01*
G01X3229775Y-3303509D01*
G01X3219775Y-3293509D01*
G01X3181025Y-3293509D01*
G01X3171025Y-3303509D01*
G01X3171025Y-3333999D01*
G01X3161025Y-3343999D01*
G01X3123999Y-3343999D01*
G37*
G36*
G01X3123999Y-3514001D02*
G01X3161025Y-3514001D01*
G01X3171025Y-3524001D01*
G01X3171025Y-3554491D01*
G01X3181025Y-3564491D01*
G01X3219775Y-3564491D01*
G01X3229775Y-3554491D01*
G01X3229775Y-3524001D01*
G01X3239775Y-3514001D01*
G01X3276801Y-3514001D01*
G01X3286801Y-3524001D01*
G01X3286801Y-3652500D01*
G01X3276801Y-3662500D01*
G01X3123999Y-3662500D01*
G01X3113999Y-3652500D01*
G01X3113999Y-3524001D01*
G01X3123999Y-3514001D01*
G37*
G36*
G01X382400Y-3160137D02*
G01X372400Y-3170137D01*
G01X271648Y-3170137D01*
G01X261648Y-3160137D01*
G01X261648Y-3010038D01*
G01X271648Y-3000038D01*
G01X372400Y-3000038D01*
G01X382400Y-3010038D01*
G01X382400Y-3046170D01*
G01X372400Y-3056170D01*
G01X351343Y-3056170D01*
G01X341343Y-3066170D01*
G01X341343Y-3104005D01*
G01X351343Y-3114005D01*
G01X372400Y-3114005D01*
G01X382400Y-3124005D01*
G01X382400Y-3160137D01*
G37*
G36*
G01X557400Y-3160137D02*
G01X557400Y-3124005D01*
G01X567400Y-3114005D01*
G01X588457Y-3114005D01*
G01X598457Y-3104005D01*
G01X598457Y-3066170D01*
G01X588457Y-3056170D01*
G01X567400Y-3056170D01*
G01X557400Y-3046170D01*
G01X557400Y-3010038D01*
G01X567400Y-3000038D01*
G01X668152Y-3000038D01*
G01X678152Y-3010038D01*
G01X678152Y-3160137D01*
G01X668152Y-3170137D01*
G01X567400Y-3170137D01*
G01X557400Y-3160137D01*
G37*
G36*
G01X382400Y-2894449D02*
G01X372400Y-2904449D01*
G01X271648Y-2904449D01*
G01X261648Y-2894449D01*
G01X261648Y-2744351D01*
G01X271648Y-2734351D01*
G01X372400Y-2734351D01*
G01X382400Y-2744351D01*
G01X382400Y-2780482D01*
G01X372400Y-2790482D01*
G01X351343Y-2790482D01*
G01X341343Y-2800482D01*
G01X341343Y-2838318D01*
G01X351343Y-2848318D01*
G01X372400Y-2848318D01*
G01X382400Y-2858318D01*
G01X382400Y-2894449D01*
G37*
G36*
G01X557400Y-2894449D02*
G01X557400Y-2858318D01*
G01X567400Y-2848318D01*
G01X588457Y-2848318D01*
G01X598457Y-2838318D01*
G01X598457Y-2800482D01*
G01X588457Y-2790482D01*
G01X567400Y-2790482D01*
G01X557400Y-2780482D01*
G01X557400Y-2744351D01*
G01X567400Y-2734351D01*
G01X668152Y-2734351D01*
G01X678152Y-2744351D01*
G01X678152Y-2894449D01*
G01X668152Y-2904449D01*
G01X567400Y-2904449D01*
G01X557400Y-2894449D01*
G37*
G36*
G01X382400Y-2627749D02*
G01X372400Y-2637749D01*
G01X271648Y-2637749D01*
G01X261648Y-2627749D01*
G01X261648Y-2477651D01*
G01X271648Y-2467651D01*
G01X372400Y-2467651D01*
G01X382400Y-2477651D01*
G01X382400Y-2513782D01*
G01X372400Y-2523782D01*
G01X351343Y-2523782D01*
G01X341343Y-2533782D01*
G01X341343Y-2571618D01*
G01X351343Y-2581618D01*
G01X372400Y-2581618D01*
G01X382400Y-2591618D01*
G01X382400Y-2627749D01*
G37*
G36*
G01X557400Y-2627749D02*
G01X557400Y-2591618D01*
G01X567400Y-2581618D01*
G01X588457Y-2581618D01*
G01X598457Y-2571618D01*
G01X598457Y-2533782D01*
G01X588457Y-2523782D01*
G01X567400Y-2523782D01*
G01X557400Y-2513782D01*
G01X557400Y-2477651D01*
G01X567400Y-2467651D01*
G01X668152Y-2467651D01*
G01X678152Y-2477651D01*
G01X678152Y-2627749D01*
G01X668152Y-2637749D01*
G01X567400Y-2637749D01*
G01X557400Y-2627749D01*
G37*
G36*
G01X382400Y-2373749D02*
G01X372400Y-2383749D01*
G01X271648Y-2383749D01*
G01X261648Y-2373749D01*
G01X261648Y-2223651D01*
G01X271648Y-2213651D01*
G01X372400Y-2213651D01*
G01X382400Y-2223651D01*
G01X382400Y-2259782D01*
G01X372400Y-2269782D01*
G01X351343Y-2269782D01*
G01X341343Y-2279782D01*
G01X341343Y-2317618D01*
G01X351343Y-2327618D01*
G01X372400Y-2327618D01*
G01X382400Y-2337618D01*
G01X382400Y-2373749D01*
G37*
G36*
G01X557400Y-2373749D02*
G01X557400Y-2337618D01*
G01X567400Y-2327618D01*
G01X588457Y-2327618D01*
G01X598457Y-2317618D01*
G01X598457Y-2279782D01*
G01X588457Y-2269782D01*
G01X567400Y-2269782D01*
G01X557400Y-2259782D01*
G01X557400Y-2223651D01*
G01X567400Y-2213651D01*
G01X668152Y-2213651D01*
G01X678152Y-2223651D01*
G01X678152Y-2373749D01*
G01X668152Y-2383749D01*
G01X567400Y-2383749D01*
G01X557400Y-2373749D01*
G37*
G36*
G01X2699019Y-2590628D02*
G01X2699019Y-2604770D01*
G01X2608156Y-2695633D01*
G01X2594014Y-2695633D01*
G01X2485967Y-2587586D01*
G01X2485967Y-2573444D01*
G01X2576830Y-2482581D01*
G01X2590972Y-2482581D01*
G01X2617153Y-2508762D01*
G01X2617153Y-2522905D01*
G01X2595593Y-2544464D01*
G01X2595593Y-2558606D01*
G01X2622994Y-2586007D01*
G01X2637136Y-2586007D01*
G01X2658695Y-2564447D01*
G01X2672838Y-2564447D01*
G01X2699019Y-2590628D01*
G37*
G36*
G01X2819228Y-2470419D02*
G01X2793047Y-2444238D01*
G01X2793047Y-2430095D01*
G01X2814607Y-2408536D01*
G01X2814607Y-2394394D01*
G01X2787206Y-2366993D01*
G01X2773064Y-2366993D01*
G01X2751505Y-2388553D01*
G01X2737362Y-2388553D01*
G01X2711181Y-2362372D01*
G01X2711181Y-2348230D01*
G01X2802044Y-2257367D01*
G01X2816186Y-2257367D01*
G01X2924233Y-2365414D01*
G01X2924233Y-2379556D01*
G01X2833370Y-2470419D01*
G01X2819228Y-2470419D01*
G37*

G04 Pad Start*
G54D10*
G01X-215900Y-3581400D03*
G01X-215900Y-3073400D03*
G01X-215900Y-2819400D03*
G01X-215900Y-2560836D03*
G01X-215900Y-2311400D03*
G01X-215900Y-3327400D03*
G04 Pad End*

M02*

