G04 Layer: DrillDrawingLayer*
G04 EasyEDA Pro v3.2.148, 2026-07-10 19:43:19*
G04 Gerber Generator version 0.3*
G04 Scale: 100 percent, Rotated: No, Reflected: No*
G04 Dimensions in millimeters*
G04 Leading zeros omitted, absolute positions, 4 integers and 5 decimals*
G04 Generated by one-click*
G04 Object Configs: Pad,Via,Track,Text,Image,Dimension,BoardOutline,BoardCutout,CopperFilled,SolidRegion,FPCStiffener,Line,PlaneZone,ComponentProperty,ComponentSilkscreen,TearDrop*
G04 Layer Configs: 1,15,16,2,3,4,5,6,7,8,9,10,11,13,14,56*
G04 Copper Areas: 0*
%FSLAX45Y45*%
%MOMM*%
%AMIconRect*4,1,4,0.28,-0.28,-0.28,-0.28,-0.28,0.28,0.28,0.28,0.28,-0.28,0*4,0,4,0.233333,-0.233333,0.233333,0.233333,-0.233333,0.233333,-0.233333,-0.233333,0.233333,-0.233333,0*%
%AMIconTriangle*4,1,3,-0.339593,0.240473,0.339593,0.240473,0,-0.37884,-0.339593,0.240473,0*4,0,3,-0.265673,0.19404,0,-0.27342,0.266233,0.19404,-0.265673,0.19404,0*%
%AMIconStar6*4,1,12,0.12068,0.20888,0.298527,0.172713,0.241313,0,0.298527,-0.17206,0.12068,-0.208227,0,-0.344073,-0.120073,-0.208227,-0.298573,-0.17206,-0.240707,0,-0.298573,0.17206,-0.120073,0.20888,0,0.344073,0.12068,0.20888,0*4,0,12,-0.000467,0.273467,-0.090067,0.171733,-0.237533,0.136733,-0.193667,-0.007467,-0.237533,-0.1372,-0.090067,-0.171733,-0.000467,-0.273933,0.090067,-0.171733,0.237533,-0.1372,0.194133,0.007,0.237533,0.1372,0.090067,0.171267,-0.000467,0.273467,0*%
%ADD10IconRect*%
%ADD11C,0.616X0.522667*%
%ADD12IconTriangle*%
%ADD13IconStar6*%
%ADD14C,0.2032*%
%ADD15C,0.254*%
G75*


G04 Drill Drawing Start*
G54D10*
G01X2437575Y-2908300D03*
G54D11*
G01X3505200Y-3556000D03*
G01X3505200Y-3302000D03*
G01X3505200Y-3048000D03*
G01X3505200Y-2794000D03*
G01X3505200Y-2540000D03*
G01X3505200Y-2286000D03*
G54D12*
G01X1143000Y-3670300D03*
G01X1143003Y-2146300D03*
G01X1397000Y-3670300D03*
G01X1397003Y-2146300D03*
G01X1650997Y-3670300D03*
G01X1651003Y-2146300D03*
G01X1904997Y-3670300D03*
G01X1905003Y-2146300D03*
G01X2158997Y-3670300D03*
G01X2159003Y-2146300D03*
G01X2412997Y-3670300D03*
G01X2413000Y-2146300D03*
G01X2666997Y-3670300D03*
G01X2667000Y-2146300D03*
G01X2920997Y-3670300D03*
G01X2921000Y-2146300D03*
G54D13*
G01X-107950Y-3613150D03*
G01X-107950Y-3549650D03*
G01X-101600Y-3352800D03*
G01X-101600Y-3289300D03*
G01X-44450Y-3613150D03*
G01X-44450Y-3549650D03*
G01X-38100Y-3352800D03*
G01X-38100Y-3289300D03*
G01X19050Y-3613150D03*
G01X19050Y-3549650D03*
G01X25400Y-3352800D03*
G01X25400Y-3289300D03*
G01X82550Y-3613150D03*
G01X82550Y-3549650D03*
G01X88900Y-3352800D03*
G01X88900Y-3289300D03*
G01X297434Y-3466592D03*
G01X297434Y-3403092D03*
G01X360934Y-3466592D03*
G01X360934Y-3403092D03*
G01X615950Y-3466592D03*
G01X615950Y-3403092D03*
G01X679450Y-3466592D03*
G01X679450Y-3403092D03*
G01X2560738Y-2620862D03*
G01X2560738Y-2557362D03*
G01X2624238Y-2620862D03*
G01X2624238Y-2557362D03*
G01X2785962Y-2395638D03*
G01X2785962Y-2332138D03*
G01X2849462Y-2395638D03*
G01X2849462Y-2332138D03*
G01X3168650Y-3620008D03*
G01X3168650Y-3556508D03*
G01X3168650Y-3301492D03*
G01X3168650Y-3237992D03*
G01X3232150Y-3620008D03*
G01X3232150Y-3556508D03*
G01X3232150Y-3301492D03*
G01X3232150Y-3237992D03*
G04 Drill Drawing End*

G04 Text Start*
G54D14*
G01X5970746Y-2202906D02*
G01X5970746Y-2323048D01*
G01X5970746Y-2202906D02*
G01X6016466Y-2323048D01*
G01X6062186Y-2202906D02*
G01X6016466Y-2323048D01*
G01X6062186Y-2202906D02*
G01X6062186Y-2323048D01*
G01X6178518Y-2243038D02*
G01X6178518Y-2323048D01*
G01X6178518Y-2260056D02*
G01X6167088Y-2248626D01*
G01X6155658Y-2243038D01*
G01X6138640Y-2243038D01*
G01X6127210Y-2248626D01*
G01X6115780Y-2260056D01*
G01X6109938Y-2277328D01*
G01X6109938Y-2288758D01*
G01X6115780Y-2305776D01*
G01X6127210Y-2317206D01*
G01X6138640Y-2323048D01*
G01X6155658Y-2323048D01*
G01X6167088Y-2317206D01*
G01X6178518Y-2305776D01*
G01X6226270Y-2243038D02*
G01X6226270Y-2323048D01*
G01X6226270Y-2277328D02*
G01X6232112Y-2260056D01*
G01X6243542Y-2248626D01*
G01X6254972Y-2243038D01*
G01X6271990Y-2243038D01*
G01X6319742Y-2202906D02*
G01X6319742Y-2323048D01*
G01X6376892Y-2243038D02*
G01X6319742Y-2300188D01*
G01X6342602Y-2277328D02*
G01X6382734Y-2323048D01*
G01X7508026Y-2231608D02*
G01X7502184Y-2220178D01*
G01X7490754Y-2208748D01*
G01X7479324Y-2202906D01*
G01X7456464Y-2202906D01*
G01X7445034Y-2208748D01*
G01X7433604Y-2220178D01*
G01X7428016Y-2231608D01*
G01X7422174Y-2248626D01*
G01X7422174Y-2277328D01*
G01X7428016Y-2294346D01*
G01X7433604Y-2305776D01*
G01X7445034Y-2317206D01*
G01X7456464Y-2323048D01*
G01X7479324Y-2323048D01*
G01X7490754Y-2317206D01*
G01X7502184Y-2305776D01*
G01X7508026Y-2294346D01*
G01X7584480Y-2243038D02*
G01X7573050Y-2248626D01*
G01X7561620Y-2260056D01*
G01X7555778Y-2277328D01*
G01X7555778Y-2288758D01*
G01X7561620Y-2305776D01*
G01X7573050Y-2317206D01*
G01X7584480Y-2323048D01*
G01X7601498Y-2323048D01*
G01X7612928Y-2317206D01*
G01X7624358Y-2305776D01*
G01X7630200Y-2288758D01*
G01X7630200Y-2277328D01*
G01X7624358Y-2260056D01*
G01X7612928Y-2248626D01*
G01X7601498Y-2243038D01*
G01X7584480Y-2243038D01*
G01X7677952Y-2243038D02*
G01X7677952Y-2300188D01*
G01X7683794Y-2317206D01*
G01X7695224Y-2323048D01*
G01X7712242Y-2323048D01*
G01X7723672Y-2317206D01*
G01X7740944Y-2300188D01*
G01X7740944Y-2243038D02*
G01X7740944Y-2323048D01*
G01X7788696Y-2243038D02*
G01X7788696Y-2323048D01*
G01X7788696Y-2265898D02*
G01X7805968Y-2248626D01*
G01X7817398Y-2243038D01*
G01X7834416Y-2243038D01*
G01X7845846Y-2248626D01*
G01X7851688Y-2265898D01*
G01X7851688Y-2323048D01*
G01X7916712Y-2202906D02*
G01X7916712Y-2300188D01*
G01X7922300Y-2317206D01*
G01X7933730Y-2323048D01*
G01X7945160Y-2323048D01*
G01X7899440Y-2243038D02*
G01X7939572Y-2243038D01*
G01X8916347Y-2220178D02*
G01X8904917Y-2208748D01*
G01X8887899Y-2202906D01*
G01X8865039Y-2202906D01*
G01X8847767Y-2208748D01*
G01X8836337Y-2220178D01*
G01X8836337Y-2231608D01*
G01X8842179Y-2243038D01*
G01X8847767Y-2248626D01*
G01X8859197Y-2254468D01*
G01X8893487Y-2265898D01*
G01X8904917Y-2271486D01*
G01X8910759Y-2277328D01*
G01X8916347Y-2288758D01*
G01X8916347Y-2305776D01*
G01X8904917Y-2317206D01*
G01X8887899Y-2323048D01*
G01X8865039Y-2323048D01*
G01X8847767Y-2317206D01*
G01X8836337Y-2305776D01*
G01X8964099Y-2202906D02*
G01X8969941Y-2208748D01*
G01X8975529Y-2202906D01*
G01X8969941Y-2197318D01*
G01X8964099Y-2202906D01*
G01X8969941Y-2243038D02*
G01X8969941Y-2323048D01*
G01X9086273Y-2243038D02*
G01X9023281Y-2323048D01*
G01X9023281Y-2243038D02*
G01X9086273Y-2243038D01*
G01X9023281Y-2323048D02*
G01X9086273Y-2323048D01*
G01X9134025Y-2277328D02*
G01X9202605Y-2277328D01*
G01X9202605Y-2265898D01*
G01X9197017Y-2254468D01*
G01X9191175Y-2248626D01*
G01X9179745Y-2243038D01*
G01X9162727Y-2243038D01*
G01X9151297Y-2248626D01*
G01X9139867Y-2260056D01*
G01X9134025Y-2277328D01*
G01X9134025Y-2288758D01*
G01X9139867Y-2305776D01*
G01X9151297Y-2317206D01*
G01X9162727Y-2323048D01*
G01X9179745Y-2323048D01*
G01X9191175Y-2317206D01*
G01X9202605Y-2305776D01*
G01X12638863Y-2202906D02*
G01X12638863Y-2323048D01*
G01X12638863Y-2202906D02*
G01X12690425Y-2202906D01*
G01X12707443Y-2208748D01*
G01X12713285Y-2214336D01*
G01X12718873Y-2225766D01*
G01X12718873Y-2243038D01*
G01X12713285Y-2254468D01*
G01X12707443Y-2260056D01*
G01X12690425Y-2265898D01*
G01X12638863Y-2265898D01*
G01X12766625Y-2202906D02*
G01X12766625Y-2323048D01*
G01X12882957Y-2243038D02*
G01X12882957Y-2323048D01*
G01X12882957Y-2260056D02*
G01X12871527Y-2248626D01*
G01X12860097Y-2243038D01*
G01X12843079Y-2243038D01*
G01X12831649Y-2248626D01*
G01X12820219Y-2260056D01*
G01X12814377Y-2277328D01*
G01X12814377Y-2288758D01*
G01X12820219Y-2305776D01*
G01X12831649Y-2317206D01*
G01X12843079Y-2323048D01*
G01X12860097Y-2323048D01*
G01X12871527Y-2317206D01*
G01X12882957Y-2305776D01*
G01X12947981Y-2202906D02*
G01X12947981Y-2300188D01*
G01X12953569Y-2317206D01*
G01X12964999Y-2323048D01*
G01X12976429Y-2323048D01*
G01X12930709Y-2243038D02*
G01X12970841Y-2243038D01*
G01X13024181Y-2277328D02*
G01X13092761Y-2277328D01*
G01X13092761Y-2265898D01*
G01X13087173Y-2254468D01*
G01X13081331Y-2248626D01*
G01X13069901Y-2243038D01*
G01X13052883Y-2243038D01*
G01X13041453Y-2248626D01*
G01X13030023Y-2260056D01*
G01X13024181Y-2277328D01*
G01X13024181Y-2288758D01*
G01X13030023Y-2305776D01*
G01X13041453Y-2317206D01*
G01X13052883Y-2323048D01*
G01X13069901Y-2323048D01*
G01X13081331Y-2317206D01*
G01X13092761Y-2305776D01*
G01X13209093Y-2202906D02*
G01X13209093Y-2323048D01*
G01X13209093Y-2260056D02*
G01X13197663Y-2248626D01*
G01X13186233Y-2243038D01*
G01X13169215Y-2243038D01*
G01X13157785Y-2248626D01*
G01X13146355Y-2260056D01*
G01X13140513Y-2277328D01*
G01X13140513Y-2288758D01*
G01X13146355Y-2305776D01*
G01X13157785Y-2317206D01*
G01X13169215Y-2323048D01*
G01X13186233Y-2323048D01*
G01X13197663Y-2317206D01*
G01X13209093Y-2305776D01*
G01X14180280Y-2220178D02*
G01X14168850Y-2208748D01*
G01X14151832Y-2202906D01*
G01X14128972Y-2202906D01*
G01X14111700Y-2208748D01*
G01X14100270Y-2220178D01*
G01X14100270Y-2231608D01*
G01X14106112Y-2243038D01*
G01X14111700Y-2248626D01*
G01X14123130Y-2254468D01*
G01X14157420Y-2265898D01*
G01X14168850Y-2271486D01*
G01X14174692Y-2277328D01*
G01X14180280Y-2288758D01*
G01X14180280Y-2305776D01*
G01X14168850Y-2317206D01*
G01X14151832Y-2323048D01*
G01X14128972Y-2323048D01*
G01X14111700Y-2317206D01*
G01X14100270Y-2305776D01*
G01X14228032Y-2202906D02*
G01X14228032Y-2323048D01*
G01X14228032Y-2265898D02*
G01X14245304Y-2248626D01*
G01X14256734Y-2243038D01*
G01X14273752Y-2243038D01*
G01X14285182Y-2248626D01*
G01X14291024Y-2265898D01*
G01X14291024Y-2323048D01*
G01X14407356Y-2243038D02*
G01X14407356Y-2323048D01*
G01X14407356Y-2260056D02*
G01X14395926Y-2248626D01*
G01X14384496Y-2243038D01*
G01X14367478Y-2243038D01*
G01X14356048Y-2248626D01*
G01X14344618Y-2260056D01*
G01X14338776Y-2277328D01*
G01X14338776Y-2288758D01*
G01X14344618Y-2305776D01*
G01X14356048Y-2317206D01*
G01X14367478Y-2323048D01*
G01X14384496Y-2323048D01*
G01X14395926Y-2317206D01*
G01X14407356Y-2305776D01*
G01X14455108Y-2243038D02*
G01X14455108Y-2362926D01*
G01X14455108Y-2260056D02*
G01X14466538Y-2248626D01*
G01X14477968Y-2243038D01*
G01X14495240Y-2243038D01*
G01X14506670Y-2248626D01*
G01X14518100Y-2260056D01*
G01X14523688Y-2277328D01*
G01X14523688Y-2288758D01*
G01X14518100Y-2305776D01*
G01X14506670Y-2317206D01*
G01X14495240Y-2323048D01*
G01X14477968Y-2323048D01*
G01X14466538Y-2317206D01*
G01X14455108Y-2305776D01*
G01X14571440Y-2277328D02*
G01X14640020Y-2277328D01*
G01X14640020Y-2265898D01*
G01X14634432Y-2254468D01*
G01X14628590Y-2248626D01*
G01X14617160Y-2243038D01*
G01X14600142Y-2243038D01*
G01X14588712Y-2248626D01*
G01X14577282Y-2260056D01*
G01X14571440Y-2277328D01*
G01X14571440Y-2288758D01*
G01X14577282Y-2305776D01*
G01X14588712Y-2317206D01*
G01X14600142Y-2323048D01*
G01X14617160Y-2323048D01*
G01X14628590Y-2317206D01*
G01X14640020Y-2305776D01*
G01X15531451Y-2202906D02*
G01X15577171Y-2323048D01*
G01X15622891Y-2202906D02*
G01X15577171Y-2323048D01*
G01X15670643Y-2202906D02*
G01X15676485Y-2208748D01*
G01X15682073Y-2202906D01*
G01X15676485Y-2197318D01*
G01X15670643Y-2202906D01*
G01X15676485Y-2243038D02*
G01X15676485Y-2323048D01*
G01X15798405Y-2243038D02*
G01X15798405Y-2323048D01*
G01X15798405Y-2260056D02*
G01X15786975Y-2248626D01*
G01X15775545Y-2243038D01*
G01X15758527Y-2243038D01*
G01X15747097Y-2248626D01*
G01X15735667Y-2260056D01*
G01X15729825Y-2277328D01*
G01X15729825Y-2288758D01*
G01X15735667Y-2305776D01*
G01X15747097Y-2317206D01*
G01X15758527Y-2323048D01*
G01X15775545Y-2323048D01*
G01X15786975Y-2317206D01*
G01X15798405Y-2305776D01*
G01X15949027Y-2180046D02*
G01X15846157Y-2362926D01*
G01X15996779Y-2202906D02*
G01X15996779Y-2323048D01*
G01X15996779Y-2202906D02*
G01X16048341Y-2202906D01*
G01X16065359Y-2208748D01*
G01X16071201Y-2214336D01*
G01X16076789Y-2225766D01*
G01X16076789Y-2243038D01*
G01X16071201Y-2254468D01*
G01X16065359Y-2260056D01*
G01X16048341Y-2265898D01*
G01X15996779Y-2265898D01*
G01X16193121Y-2243038D02*
G01X16193121Y-2323048D01*
G01X16193121Y-2260056D02*
G01X16181691Y-2248626D01*
G01X16170261Y-2243038D01*
G01X16153243Y-2243038D01*
G01X16141813Y-2248626D01*
G01X16130383Y-2260056D01*
G01X16124541Y-2277328D01*
G01X16124541Y-2288758D01*
G01X16130383Y-2305776D01*
G01X16141813Y-2317206D01*
G01X16153243Y-2323048D01*
G01X16170261Y-2323048D01*
G01X16181691Y-2317206D01*
G01X16193121Y-2305776D01*
G01X16309453Y-2202906D02*
G01X16309453Y-2323048D01*
G01X16309453Y-2260056D02*
G01X16298023Y-2248626D01*
G01X16286593Y-2243038D01*
G01X16269575Y-2243038D01*
G01X16258145Y-2248626D01*
G01X16246715Y-2260056D01*
G01X16240873Y-2277328D01*
G01X16240873Y-2288758D01*
G01X16246715Y-2305776D01*
G01X16258145Y-2317206D01*
G01X16269575Y-2323048D01*
G01X16286593Y-2323048D01*
G01X16298023Y-2317206D01*
G01X16309453Y-2305776D01*
G01X17200630Y-2202906D02*
G01X17200630Y-2323048D01*
G01X17200630Y-2202906D02*
G01X17252192Y-2202906D01*
G01X17269210Y-2208748D01*
G01X17275052Y-2214336D01*
G01X17280640Y-2225766D01*
G01X17280640Y-2243038D01*
G01X17275052Y-2254468D01*
G01X17269210Y-2260056D01*
G01X17252192Y-2265898D01*
G01X17200630Y-2265898D01*
G01X17396972Y-2243038D02*
G01X17396972Y-2323048D01*
G01X17396972Y-2260056D02*
G01X17385542Y-2248626D01*
G01X17374112Y-2243038D01*
G01X17357094Y-2243038D01*
G01X17345664Y-2248626D01*
G01X17334234Y-2260056D01*
G01X17328392Y-2277328D01*
G01X17328392Y-2288758D01*
G01X17334234Y-2305776D01*
G01X17345664Y-2317206D01*
G01X17357094Y-2323048D01*
G01X17374112Y-2323048D01*
G01X17385542Y-2317206D01*
G01X17396972Y-2305776D01*
G01X17513304Y-2202906D02*
G01X17513304Y-2323048D01*
G01X17513304Y-2260056D02*
G01X17501874Y-2248626D01*
G01X17490444Y-2243038D01*
G01X17473426Y-2243038D01*
G01X17461996Y-2248626D01*
G01X17450566Y-2260056D01*
G01X17444724Y-2277328D01*
G01X17444724Y-2288758D01*
G01X17450566Y-2305776D01*
G01X17461996Y-2317206D01*
G01X17473426Y-2323048D01*
G01X17490444Y-2323048D01*
G01X17501874Y-2317206D01*
G01X17513304Y-2305776D01*
G01X17769082Y-2220178D02*
G01X17757652Y-2208748D01*
G01X17740634Y-2202906D01*
G01X17717774Y-2202906D01*
G01X17700502Y-2208748D01*
G01X17689072Y-2220178D01*
G01X17689072Y-2231608D01*
G01X17694914Y-2243038D01*
G01X17700502Y-2248626D01*
G01X17711932Y-2254468D01*
G01X17746222Y-2265898D01*
G01X17757652Y-2271486D01*
G01X17763494Y-2277328D01*
G01X17769082Y-2288758D01*
G01X17769082Y-2305776D01*
G01X17757652Y-2317206D01*
G01X17740634Y-2323048D01*
G01X17717774Y-2323048D01*
G01X17700502Y-2317206D01*
G01X17689072Y-2305776D01*
G01X17816834Y-2202906D02*
G01X17816834Y-2323048D01*
G01X17816834Y-2265898D02*
G01X17834106Y-2248626D01*
G01X17845536Y-2243038D01*
G01X17862554Y-2243038D01*
G01X17873984Y-2248626D01*
G01X17879826Y-2265898D01*
G01X17879826Y-2323048D01*
G01X17996158Y-2243038D02*
G01X17996158Y-2323048D01*
G01X17996158Y-2260056D02*
G01X17984728Y-2248626D01*
G01X17973298Y-2243038D01*
G01X17956280Y-2243038D01*
G01X17944850Y-2248626D01*
G01X17933420Y-2260056D01*
G01X17927578Y-2277328D01*
G01X17927578Y-2288758D01*
G01X17933420Y-2305776D01*
G01X17944850Y-2317206D01*
G01X17956280Y-2323048D01*
G01X17973298Y-2323048D01*
G01X17984728Y-2317206D01*
G01X17996158Y-2305776D01*
G01X18043910Y-2243038D02*
G01X18043910Y-2362926D01*
G01X18043910Y-2260056D02*
G01X18055340Y-2248626D01*
G01X18066770Y-2243038D01*
G01X18084042Y-2243038D01*
G01X18095472Y-2248626D01*
G01X18106902Y-2260056D01*
G01X18112490Y-2277328D01*
G01X18112490Y-2288758D01*
G01X18106902Y-2305776D01*
G01X18095472Y-2317206D01*
G01X18084042Y-2323048D01*
G01X18066770Y-2323048D01*
G01X18055340Y-2317206D01*
G01X18043910Y-2305776D01*
G01X18160242Y-2277328D02*
G01X18228822Y-2277328D01*
G01X18228822Y-2265898D01*
G01X18223234Y-2254468D01*
G01X18217392Y-2248626D01*
G01X18205962Y-2243038D01*
G01X18188944Y-2243038D01*
G01X18177514Y-2248626D01*
G01X18166084Y-2260056D01*
G01X18160242Y-2277328D01*
G01X18160242Y-2288758D01*
G01X18166084Y-2305776D01*
G01X18177514Y-2317206D01*
G01X18188944Y-2323048D01*
G01X18205962Y-2323048D01*
G01X18217392Y-2317206D01*
G01X18228822Y-2305776D01*
G01X19119999Y-2202906D02*
G01X19119999Y-2323048D01*
G01X19119999Y-2323048D02*
G01X19188579Y-2323048D01*
G01X19304911Y-2243038D02*
G01X19304911Y-2323048D01*
G01X19304911Y-2260056D02*
G01X19293481Y-2248626D01*
G01X19282051Y-2243038D01*
G01X19265033Y-2243038D01*
G01X19253603Y-2248626D01*
G01X19242173Y-2260056D01*
G01X19236331Y-2277328D01*
G01X19236331Y-2288758D01*
G01X19242173Y-2305776D01*
G01X19253603Y-2317206D01*
G01X19265033Y-2323048D01*
G01X19282051Y-2323048D01*
G01X19293481Y-2317206D01*
G01X19304911Y-2305776D01*
G01X19358505Y-2243038D02*
G01X19392795Y-2323048D01*
G01X19427085Y-2243038D02*
G01X19392795Y-2323048D01*
G01X19381365Y-2345908D01*
G01X19369935Y-2357338D01*
G01X19358505Y-2362926D01*
G01X19352663Y-2362926D01*
G01X19474837Y-2277328D02*
G01X19543417Y-2277328D01*
G01X19543417Y-2265898D01*
G01X19537829Y-2254468D01*
G01X19531987Y-2248626D01*
G01X19520557Y-2243038D01*
G01X19503539Y-2243038D01*
G01X19492109Y-2248626D01*
G01X19480679Y-2260056D01*
G01X19474837Y-2277328D01*
G01X19474837Y-2288758D01*
G01X19480679Y-2305776D01*
G01X19492109Y-2317206D01*
G01X19503539Y-2323048D01*
G01X19520557Y-2323048D01*
G01X19531987Y-2317206D01*
G01X19543417Y-2305776D01*
G01X19591169Y-2243038D02*
G01X19591169Y-2323048D01*
G01X19591169Y-2277328D02*
G01X19597011Y-2260056D01*
G01X19608441Y-2248626D01*
G01X19619871Y-2243038D01*
G01X19636889Y-2243038D01*
G01X19812657Y-2202906D02*
G01X19812657Y-2323048D01*
G01X19812657Y-2202906D02*
G01X19864219Y-2202906D01*
G01X19881237Y-2208748D01*
G01X19887079Y-2214336D01*
G01X19892667Y-2225766D01*
G01X19892667Y-2243038D01*
G01X19887079Y-2254468D01*
G01X19881237Y-2260056D01*
G01X19864219Y-2265898D01*
G01X19812657Y-2265898D01*
G01X20008999Y-2243038D02*
G01X20008999Y-2323048D01*
G01X20008999Y-2260056D02*
G01X19997569Y-2248626D01*
G01X19986139Y-2243038D01*
G01X19969121Y-2243038D01*
G01X19957691Y-2248626D01*
G01X19946261Y-2260056D01*
G01X19940419Y-2277328D01*
G01X19940419Y-2288758D01*
G01X19946261Y-2305776D01*
G01X19957691Y-2317206D01*
G01X19969121Y-2323048D01*
G01X19986139Y-2323048D01*
G01X19997569Y-2317206D01*
G01X20008999Y-2305776D01*
G01X20056751Y-2202906D02*
G01X20062593Y-2208748D01*
G01X20068181Y-2202906D01*
G01X20062593Y-2197318D01*
G01X20056751Y-2202906D01*
G01X20062593Y-2243038D02*
G01X20062593Y-2323048D01*
G01X20115933Y-2243038D02*
G01X20115933Y-2323048D01*
G01X20115933Y-2277328D02*
G01X20121775Y-2260056D01*
G01X20133205Y-2248626D01*
G01X20144635Y-2243038D01*
G01X20161653Y-2243038D01*
G01X7422174Y-2806337D02*
G01X7433604Y-2800749D01*
G01X7450876Y-2783477D01*
G01X7450876Y-2903619D01*
G01X8916347Y-2783477D02*
G01X8859197Y-2903619D01*
G01X8836337Y-2783477D02*
G01X8916347Y-2783477D01*
G01X8992801Y-2783477D02*
G01X8975529Y-2789319D01*
G01X8969941Y-2800749D01*
G01X8969941Y-2812179D01*
G01X8975529Y-2823609D01*
G01X8986959Y-2829197D01*
G01X9009819Y-2835039D01*
G01X9027091Y-2840627D01*
G01X9038521Y-2852057D01*
G01X9044109Y-2863487D01*
G01X9044109Y-2880759D01*
G01X9038521Y-2892189D01*
G01X9032679Y-2897777D01*
G01X9015661Y-2903619D01*
G01X8992801Y-2903619D01*
G01X8975529Y-2897777D01*
G01X8969941Y-2892189D01*
G01X8964099Y-2880759D01*
G01X8964099Y-2863487D01*
G01X8969941Y-2852057D01*
G01X8981371Y-2840627D01*
G01X8998389Y-2835039D01*
G01X9021249Y-2829197D01*
G01X9032679Y-2823609D01*
G01X9038521Y-2812179D01*
G01X9038521Y-2800749D01*
G01X9032679Y-2789319D01*
G01X9015661Y-2783477D01*
G01X8992801Y-2783477D01*
G01X9097703Y-2874917D02*
G01X9091861Y-2880759D01*
G01X9097703Y-2886347D01*
G01X9103291Y-2880759D01*
G01X9097703Y-2874917D01*
G01X9231053Y-2783477D02*
G01X9173903Y-2903619D01*
G01X9151043Y-2783477D02*
G01X9231053Y-2783477D01*
G01X9278805Y-2823609D02*
G01X9278805Y-2903619D01*
G01X9278805Y-2846469D02*
G01X9296077Y-2829197D01*
G01X9307507Y-2823609D01*
G01X9324525Y-2823609D01*
G01X9335955Y-2829197D01*
G01X9341797Y-2846469D01*
G01X9341797Y-2903619D01*
G01X9341797Y-2846469D02*
G01X9358815Y-2829197D01*
G01X9370245Y-2823609D01*
G01X9387517Y-2823609D01*
G01X9398947Y-2829197D01*
G01X9404535Y-2846469D01*
G01X9404535Y-2903619D01*
G01X9452287Y-2783477D02*
G01X9458129Y-2789319D01*
G01X9463717Y-2783477D01*
G01X9458129Y-2777889D01*
G01X9452287Y-2783477D01*
G01X9458129Y-2823609D02*
G01X9458129Y-2903619D01*
G01X9511469Y-2783477D02*
G01X9511469Y-2903619D01*
G01X9599353Y-2760617D02*
G01X9587923Y-2772047D01*
G01X9576493Y-2789319D01*
G01X9565063Y-2812179D01*
G01X9559221Y-2840627D01*
G01X9559221Y-2863487D01*
G01X9565063Y-2892189D01*
G01X9576493Y-2915049D01*
G01X9587923Y-2932067D01*
G01X9599353Y-2943497D01*
G01X9652947Y-2812179D02*
G01X9652947Y-2806337D01*
G01X9658535Y-2794907D01*
G01X9664377Y-2789319D01*
G01X9675807Y-2783477D01*
G01X9698667Y-2783477D01*
G01X9710097Y-2789319D01*
G01X9715685Y-2794907D01*
G01X9721527Y-2806337D01*
G01X9721527Y-2817767D01*
G01X9715685Y-2829197D01*
G01X9704255Y-2846469D01*
G01X9647105Y-2903619D01*
G01X9727115Y-2903619D01*
G01X9780709Y-2874917D02*
G01X9774867Y-2880759D01*
G01X9780709Y-2886347D01*
G01X9786297Y-2880759D01*
G01X9780709Y-2874917D01*
G01X9868339Y-2783477D02*
G01X9851321Y-2789319D01*
G01X9839891Y-2806337D01*
G01X9834049Y-2835039D01*
G01X9834049Y-2852057D01*
G01X9839891Y-2880759D01*
G01X9851321Y-2897777D01*
G01X9868339Y-2903619D01*
G01X9879769Y-2903619D01*
G01X9897041Y-2897777D01*
G01X9908471Y-2880759D01*
G01X9914059Y-2852057D01*
G01X9914059Y-2835039D01*
G01X9908471Y-2806337D01*
G01X9897041Y-2789319D01*
G01X9879769Y-2783477D01*
G01X9868339Y-2783477D01*
G01X9996101Y-2783477D02*
G01X9979083Y-2789319D01*
G01X9967653Y-2806337D01*
G01X9961811Y-2835039D01*
G01X9961811Y-2852057D01*
G01X9967653Y-2880759D01*
G01X9979083Y-2897777D01*
G01X9996101Y-2903619D01*
G01X10007531Y-2903619D01*
G01X10024803Y-2897777D01*
G01X10036233Y-2880759D01*
G01X10041821Y-2852057D01*
G01X10041821Y-2835039D01*
G01X10036233Y-2806337D01*
G01X10024803Y-2789319D01*
G01X10007531Y-2783477D01*
G01X9996101Y-2783477D01*
G01X10123863Y-2783477D02*
G01X10106845Y-2789319D01*
G01X10095415Y-2806337D01*
G01X10089573Y-2835039D01*
G01X10089573Y-2852057D01*
G01X10095415Y-2880759D01*
G01X10106845Y-2897777D01*
G01X10123863Y-2903619D01*
G01X10135293Y-2903619D01*
G01X10152565Y-2897777D01*
G01X10163995Y-2880759D01*
G01X10169583Y-2852057D01*
G01X10169583Y-2835039D01*
G01X10163995Y-2806337D01*
G01X10152565Y-2789319D01*
G01X10135293Y-2783477D01*
G01X10123863Y-2783477D01*
G01X10217335Y-2823609D02*
G01X10217335Y-2903619D01*
G01X10217335Y-2846469D02*
G01X10234607Y-2829197D01*
G01X10246037Y-2823609D01*
G01X10263055Y-2823609D01*
G01X10274485Y-2829197D01*
G01X10280327Y-2846469D01*
G01X10280327Y-2903619D01*
G01X10280327Y-2846469D02*
G01X10297345Y-2829197D01*
G01X10308775Y-2823609D01*
G01X10326047Y-2823609D01*
G01X10337477Y-2829197D01*
G01X10343065Y-2846469D01*
G01X10343065Y-2903619D01*
G01X10390817Y-2823609D02*
G01X10390817Y-2903619D01*
G01X10390817Y-2846469D02*
G01X10408089Y-2829197D01*
G01X10419519Y-2823609D01*
G01X10436537Y-2823609D01*
G01X10447967Y-2829197D01*
G01X10453809Y-2846469D01*
G01X10453809Y-2903619D01*
G01X10453809Y-2846469D02*
G01X10470827Y-2829197D01*
G01X10482257Y-2823609D01*
G01X10499529Y-2823609D01*
G01X10510959Y-2829197D01*
G01X10516547Y-2846469D01*
G01X10516547Y-2903619D01*
G01X10564299Y-2760617D02*
G01X10575729Y-2772047D01*
G01X10587159Y-2789319D01*
G01X10598589Y-2812179D01*
G01X10604431Y-2840627D01*
G01X10604431Y-2863487D01*
G01X10598589Y-2892189D01*
G01X10587159Y-2915049D01*
G01X10575729Y-2932067D01*
G01X10564299Y-2943497D01*
G01X12638863Y-2783477D02*
G01X12638863Y-2903619D01*
G01X12638863Y-2783477D02*
G01X12718873Y-2903619D01*
G01X12718873Y-2783477D02*
G01X12718873Y-2903619D01*
G01X12766625Y-2783477D02*
G01X12766625Y-2903619D01*
G01X12766625Y-2783477D02*
G01X12818187Y-2783477D01*
G01X12835205Y-2789319D01*
G01X12841047Y-2794907D01*
G01X12846635Y-2806337D01*
G01X12846635Y-2823609D01*
G01X12841047Y-2835039D01*
G01X12835205Y-2840627D01*
G01X12818187Y-2846469D01*
G01X12766625Y-2846469D01*
G01X12934519Y-2783477D02*
G01X12934519Y-2903619D01*
G01X12894387Y-2783477D02*
G01X12974397Y-2783477D01*
G01X13022149Y-2783477D02*
G01X13022149Y-2903619D01*
G01X13102159Y-2783477D02*
G01X13102159Y-2903619D01*
G01X13022149Y-2840627D02*
G01X13102159Y-2840627D01*
G01X14100270Y-2783477D02*
G01X14100270Y-2903619D01*
G01X14100270Y-2783477D02*
G01X14151832Y-2783477D01*
G01X14168850Y-2789319D01*
G01X14174692Y-2794907D01*
G01X14180280Y-2806337D01*
G01X14180280Y-2817767D01*
G01X14174692Y-2829197D01*
G01X14168850Y-2835039D01*
G01X14151832Y-2840627D01*
G01X14100270Y-2840627D01*
G01X14140402Y-2840627D02*
G01X14180280Y-2903619D01*
G01X14256734Y-2823609D02*
G01X14245304Y-2829197D01*
G01X14233874Y-2840627D01*
G01X14228032Y-2857899D01*
G01X14228032Y-2869329D01*
G01X14233874Y-2886347D01*
G01X14245304Y-2897777D01*
G01X14256734Y-2903619D01*
G01X14273752Y-2903619D01*
G01X14285182Y-2897777D01*
G01X14296612Y-2886347D01*
G01X14302454Y-2869329D01*
G01X14302454Y-2857899D01*
G01X14296612Y-2840627D01*
G01X14285182Y-2829197D01*
G01X14273752Y-2823609D01*
G01X14256734Y-2823609D01*
G01X14350206Y-2823609D02*
G01X14350206Y-2880759D01*
G01X14356048Y-2897777D01*
G01X14367478Y-2903619D01*
G01X14384496Y-2903619D01*
G01X14395926Y-2897777D01*
G01X14413198Y-2880759D01*
G01X14413198Y-2823609D02*
G01X14413198Y-2903619D01*
G01X14460950Y-2823609D02*
G01X14460950Y-2903619D01*
G01X14460950Y-2846469D02*
G01X14478222Y-2829197D01*
G01X14489652Y-2823609D01*
G01X14506670Y-2823609D01*
G01X14518100Y-2829197D01*
G01X14523942Y-2846469D01*
G01X14523942Y-2903619D01*
G01X14640274Y-2783477D02*
G01X14640274Y-2903619D01*
G01X14640274Y-2840627D02*
G01X14628844Y-2829197D01*
G01X14617414Y-2823609D01*
G01X14600396Y-2823609D01*
G01X14588966Y-2829197D01*
G01X14577536Y-2840627D01*
G01X14571694Y-2857899D01*
G01X14571694Y-2869329D01*
G01X14577536Y-2886347D01*
G01X14588966Y-2897777D01*
G01X14600396Y-2903619D01*
G01X14617414Y-2903619D01*
G01X14628844Y-2897777D01*
G01X14640274Y-2886347D01*
G01X15531451Y-2783477D02*
G01X15577171Y-2903619D01*
G01X15622891Y-2783477D02*
G01X15577171Y-2903619D01*
G01X15670643Y-2783477D02*
G01X15676485Y-2789319D01*
G01X15682073Y-2783477D01*
G01X15676485Y-2777889D01*
G01X15670643Y-2783477D01*
G01X15676485Y-2823609D02*
G01X15676485Y-2903619D01*
G01X15798405Y-2823609D02*
G01X15798405Y-2903619D01*
G01X15798405Y-2840627D02*
G01X15786975Y-2829197D01*
G01X15775545Y-2823609D01*
G01X15758527Y-2823609D01*
G01X15747097Y-2829197D01*
G01X15735667Y-2840627D01*
G01X15729825Y-2857899D01*
G01X15729825Y-2869329D01*
G01X15735667Y-2886347D01*
G01X15747097Y-2897777D01*
G01X15758527Y-2903619D01*
G01X15775545Y-2903619D01*
G01X15786975Y-2897777D01*
G01X15798405Y-2886347D01*
G01X19160131Y-2783477D02*
G01X19160131Y-2903619D01*
G01X19119999Y-2783477D02*
G01X19200009Y-2783477D01*
G01X19276463Y-2823609D02*
G01X19265033Y-2829197D01*
G01X19253603Y-2840627D01*
G01X19247761Y-2857899D01*
G01X19247761Y-2869329D01*
G01X19253603Y-2886347D01*
G01X19265033Y-2897777D01*
G01X19276463Y-2903619D01*
G01X19293481Y-2903619D01*
G01X19304911Y-2897777D01*
G01X19316341Y-2886347D01*
G01X19322183Y-2869329D01*
G01X19322183Y-2857899D01*
G01X19316341Y-2840627D01*
G01X19304911Y-2829197D01*
G01X19293481Y-2823609D01*
G01X19276463Y-2823609D01*
G01X19369935Y-2823609D02*
G01X19369935Y-2943497D01*
G01X19369935Y-2840627D02*
G01X19381365Y-2829197D01*
G01X19392795Y-2823609D01*
G01X19410067Y-2823609D01*
G01X19421497Y-2829197D01*
G01X19432927Y-2840627D01*
G01X19438515Y-2857899D01*
G01X19438515Y-2869329D01*
G01X19432927Y-2886347D01*
G01X19421497Y-2897777D01*
G01X19410067Y-2903619D01*
G01X19392795Y-2903619D01*
G01X19381365Y-2897777D01*
G01X19369935Y-2886347D01*
G01X19614283Y-2783477D02*
G01X19614283Y-2903619D01*
G01X19614283Y-2903619D02*
G01X19682863Y-2903619D01*
G01X19799195Y-2823609D02*
G01X19799195Y-2903619D01*
G01X19799195Y-2840627D02*
G01X19787765Y-2829197D01*
G01X19776335Y-2823609D01*
G01X19759317Y-2823609D01*
G01X19747887Y-2829197D01*
G01X19736457Y-2840627D01*
G01X19730615Y-2857899D01*
G01X19730615Y-2869329D01*
G01X19736457Y-2886347D01*
G01X19747887Y-2897777D01*
G01X19759317Y-2903619D01*
G01X19776335Y-2903619D01*
G01X19787765Y-2897777D01*
G01X19799195Y-2886347D01*
G01X19852789Y-2823609D02*
G01X19887079Y-2903619D01*
G01X19921369Y-2823609D02*
G01X19887079Y-2903619D01*
G01X19875649Y-2926479D01*
G01X19864219Y-2937909D01*
G01X19852789Y-2943497D01*
G01X19846947Y-2943497D01*
G01X19969121Y-2857899D02*
G01X20037701Y-2857899D01*
G01X20037701Y-2846469D01*
G01X20032113Y-2835039D01*
G01X20026271Y-2829197D01*
G01X20014841Y-2823609D01*
G01X19997823Y-2823609D01*
G01X19986393Y-2829197D01*
G01X19974963Y-2840627D01*
G01X19969121Y-2857899D01*
G01X19969121Y-2869329D01*
G01X19974963Y-2886347D01*
G01X19986393Y-2897777D01*
G01X19997823Y-2903619D01*
G01X20014841Y-2903619D01*
G01X20026271Y-2897777D01*
G01X20037701Y-2886347D01*
G01X20085453Y-2823609D02*
G01X20085453Y-2903619D01*
G01X20085453Y-2857899D02*
G01X20091295Y-2840627D01*
G01X20102725Y-2829197D01*
G01X20114155Y-2823609D01*
G01X20131173Y-2823609D01*
G01X20178925Y-2852057D02*
G01X20281795Y-2852057D01*
G01X20329547Y-2783477D02*
G01X20329547Y-2903619D01*
G01X20329547Y-2783477D02*
G01X20381109Y-2783477D01*
G01X20398127Y-2789319D01*
G01X20403969Y-2794907D01*
G01X20409557Y-2806337D01*
G01X20409557Y-2817767D01*
G01X20403969Y-2829197D01*
G01X20398127Y-2835039D01*
G01X20381109Y-2840627D01*
G01X20329547Y-2840627D02*
G01X20381109Y-2840627D01*
G01X20398127Y-2846469D01*
G01X20403969Y-2852057D01*
G01X20409557Y-2863487D01*
G01X20409557Y-2880759D01*
G01X20403969Y-2892189D01*
G01X20398127Y-2897777D01*
G01X20381109Y-2903619D01*
G01X20329547Y-2903619D01*
G01X20486011Y-2823609D02*
G01X20474581Y-2829197D01*
G01X20463151Y-2840627D01*
G01X20457309Y-2857899D01*
G01X20457309Y-2869329D01*
G01X20463151Y-2886347D01*
G01X20474581Y-2897777D01*
G01X20486011Y-2903619D01*
G01X20503029Y-2903619D01*
G01X20514459Y-2897777D01*
G01X20525889Y-2886347D01*
G01X20531731Y-2869329D01*
G01X20531731Y-2857899D01*
G01X20525889Y-2840627D01*
G01X20514459Y-2829197D01*
G01X20503029Y-2823609D01*
G01X20486011Y-2823609D01*
G01X20596755Y-2783477D02*
G01X20596755Y-2880759D01*
G01X20602343Y-2897777D01*
G01X20613773Y-2903619D01*
G01X20625203Y-2903619D01*
G01X20579483Y-2823609D02*
G01X20619615Y-2823609D01*
G01X20690227Y-2783477D02*
G01X20690227Y-2880759D01*
G01X20695815Y-2897777D01*
G01X20707245Y-2903619D01*
G01X20718675Y-2903619D01*
G01X20672955Y-2823609D02*
G01X20713087Y-2823609D01*
G01X20795129Y-2823609D02*
G01X20783699Y-2829197D01*
G01X20772269Y-2840627D01*
G01X20766427Y-2857899D01*
G01X20766427Y-2869329D01*
G01X20772269Y-2886347D01*
G01X20783699Y-2897777D01*
G01X20795129Y-2903619D01*
G01X20812147Y-2903619D01*
G01X20823577Y-2897777D01*
G01X20835007Y-2886347D01*
G01X20840849Y-2869329D01*
G01X20840849Y-2857899D01*
G01X20835007Y-2840627D01*
G01X20823577Y-2829197D01*
G01X20812147Y-2823609D01*
G01X20795129Y-2823609D01*
G01X20888601Y-2823609D02*
G01X20888601Y-2903619D01*
G01X20888601Y-2846469D02*
G01X20905873Y-2829197D01*
G01X20917303Y-2823609D01*
G01X20934321Y-2823609D01*
G01X20945751Y-2829197D01*
G01X20951593Y-2846469D01*
G01X20951593Y-2903619D01*
G01X20951593Y-2846469D02*
G01X20968611Y-2829197D01*
G01X20980041Y-2823609D01*
G01X20997313Y-2823609D01*
G01X21008743Y-2829197D01*
G01X21014331Y-2846469D01*
G01X21014331Y-2903619D01*
G01X21190099Y-2783477D02*
G01X21190099Y-2903619D01*
G01X21190099Y-2903619D02*
G01X21258679Y-2903619D01*
G01X21375011Y-2823609D02*
G01X21375011Y-2903619D01*
G01X21375011Y-2840627D02*
G01X21363581Y-2829197D01*
G01X21352151Y-2823609D01*
G01X21335133Y-2823609D01*
G01X21323703Y-2829197D01*
G01X21312273Y-2840627D01*
G01X21306431Y-2857899D01*
G01X21306431Y-2869329D01*
G01X21312273Y-2886347D01*
G01X21323703Y-2897777D01*
G01X21335133Y-2903619D01*
G01X21352151Y-2903619D01*
G01X21363581Y-2897777D01*
G01X21375011Y-2886347D01*
G01X21428605Y-2823609D02*
G01X21462895Y-2903619D01*
G01X21497185Y-2823609D02*
G01X21462895Y-2903619D01*
G01X21451465Y-2926479D01*
G01X21440035Y-2937909D01*
G01X21428605Y-2943497D01*
G01X21422763Y-2943497D01*
G01X21544937Y-2857899D02*
G01X21613517Y-2857899D01*
G01X21613517Y-2846469D01*
G01X21607929Y-2835039D01*
G01X21602087Y-2829197D01*
G01X21590657Y-2823609D01*
G01X21573639Y-2823609D01*
G01X21562209Y-2829197D01*
G01X21550779Y-2840627D01*
G01X21544937Y-2857899D01*
G01X21544937Y-2869329D01*
G01X21550779Y-2886347D01*
G01X21562209Y-2897777D01*
G01X21573639Y-2903619D01*
G01X21590657Y-2903619D01*
G01X21602087Y-2897777D01*
G01X21613517Y-2886347D01*
G01X21661269Y-2823609D02*
G01X21661269Y-2903619D01*
G01X21661269Y-2857899D02*
G01X21667111Y-2840627D01*
G01X21678541Y-2829197D01*
G01X21689971Y-2823609D01*
G01X21706989Y-2823609D01*
G01X7490754Y-3381321D02*
G01X7485166Y-3369891D01*
G01X7467894Y-3364049D01*
G01X7456464Y-3364049D01*
G01X7439446Y-3369891D01*
G01X7428016Y-3386909D01*
G01X7422174Y-3415611D01*
G01X7422174Y-3444059D01*
G01X7428016Y-3466919D01*
G01X7439446Y-3478349D01*
G01X7456464Y-3484191D01*
G01X7462306Y-3484191D01*
G01X7479324Y-3478349D01*
G01X7490754Y-3466919D01*
G01X7496596Y-3449901D01*
G01X7496596Y-3444059D01*
G01X7490754Y-3427041D01*
G01X7479324Y-3415611D01*
G01X7462306Y-3409769D01*
G01X7456464Y-3409769D01*
G01X7439446Y-3415611D01*
G01X7428016Y-3427041D01*
G01X7422174Y-3444059D01*
G01X8893487Y-3364049D02*
G01X8836337Y-3444059D01*
G01X8922189Y-3444059D01*
G01X8893487Y-3364049D02*
G01X8893487Y-3484191D01*
G01X9049951Y-3364049D02*
G01X8992801Y-3484191D01*
G01X8969941Y-3364049D02*
G01X9049951Y-3364049D01*
G01X9103545Y-3455489D02*
G01X9097703Y-3461331D01*
G01X9103545Y-3466919D01*
G01X9109133Y-3461331D01*
G01X9103545Y-3455489D01*
G01X9162727Y-3392751D02*
G01X9162727Y-3386909D01*
G01X9168315Y-3375479D01*
G01X9174157Y-3369891D01*
G01X9185587Y-3364049D01*
G01X9208447Y-3364049D01*
G01X9219877Y-3369891D01*
G01X9225465Y-3375479D01*
G01X9231307Y-3386909D01*
G01X9231307Y-3398339D01*
G01X9225465Y-3409769D01*
G01X9214035Y-3427041D01*
G01X9156885Y-3484191D01*
G01X9236895Y-3484191D01*
G01X9284647Y-3404181D02*
G01X9347639Y-3484191D01*
G01X9347639Y-3404181D02*
G01X9284647Y-3484191D01*
G01X9452541Y-3364049D02*
G01X9395391Y-3444059D01*
G01X9481243Y-3444059D01*
G01X9452541Y-3364049D02*
G01X9452541Y-3484191D01*
G01X9609005Y-3364049D02*
G01X9551855Y-3484191D01*
G01X9528995Y-3364049D02*
G01X9609005Y-3364049D01*
G01X9662599Y-3455489D02*
G01X9656757Y-3461331D01*
G01X9662599Y-3466919D01*
G01X9668187Y-3461331D01*
G01X9662599Y-3455489D01*
G01X9721781Y-3392751D02*
G01X9721781Y-3386909D01*
G01X9727369Y-3375479D01*
G01X9733211Y-3369891D01*
G01X9744641Y-3364049D01*
G01X9767501Y-3364049D01*
G01X9778931Y-3369891D01*
G01X9784519Y-3375479D01*
G01X9790361Y-3386909D01*
G01X9790361Y-3398339D01*
G01X9784519Y-3409769D01*
G01X9773089Y-3427041D01*
G01X9715939Y-3484191D01*
G01X9795949Y-3484191D01*
G01X9843701Y-3404181D02*
G01X9843701Y-3484191D01*
G01X9843701Y-3427041D02*
G01X9860973Y-3409769D01*
G01X9872403Y-3404181D01*
G01X9889421Y-3404181D01*
G01X9900851Y-3409769D01*
G01X9906693Y-3427041D01*
G01X9906693Y-3484191D01*
G01X9906693Y-3427041D02*
G01X9923711Y-3409769D01*
G01X9935141Y-3404181D01*
G01X9952413Y-3404181D01*
G01X9963843Y-3409769D01*
G01X9969431Y-3427041D01*
G01X9969431Y-3484191D01*
G01X10017183Y-3364049D02*
G01X10023025Y-3369891D01*
G01X10028613Y-3364049D01*
G01X10023025Y-3358461D01*
G01X10017183Y-3364049D01*
G01X10023025Y-3404181D02*
G01X10023025Y-3484191D01*
G01X10076365Y-3364049D02*
G01X10076365Y-3484191D01*
G01X10164249Y-3341189D02*
G01X10152819Y-3352619D01*
G01X10141389Y-3369891D01*
G01X10129959Y-3392751D01*
G01X10124117Y-3421199D01*
G01X10124117Y-3444059D01*
G01X10129959Y-3472761D01*
G01X10141389Y-3495621D01*
G01X10152819Y-3512639D01*
G01X10164249Y-3524069D01*
G01X10212001Y-3386909D02*
G01X10223431Y-3381321D01*
G01X10240703Y-3364049D01*
G01X10240703Y-3484191D01*
G01X10294297Y-3455489D02*
G01X10288455Y-3461331D01*
G01X10294297Y-3466919D01*
G01X10299885Y-3461331D01*
G01X10294297Y-3455489D01*
G01X10353479Y-3392751D02*
G01X10353479Y-3386909D01*
G01X10359067Y-3375479D01*
G01X10364909Y-3369891D01*
G01X10376339Y-3364049D01*
G01X10399199Y-3364049D01*
G01X10410629Y-3369891D01*
G01X10416217Y-3375479D01*
G01X10422059Y-3386909D01*
G01X10422059Y-3398339D01*
G01X10416217Y-3409769D01*
G01X10404787Y-3427041D01*
G01X10347637Y-3484191D01*
G01X10427647Y-3484191D01*
G01X10509689Y-3364049D02*
G01X10492671Y-3369891D01*
G01X10481241Y-3386909D01*
G01X10475399Y-3415611D01*
G01X10475399Y-3432629D01*
G01X10481241Y-3461331D01*
G01X10492671Y-3478349D01*
G01X10509689Y-3484191D01*
G01X10521119Y-3484191D01*
G01X10538391Y-3478349D01*
G01X10549821Y-3461331D01*
G01X10555409Y-3432629D01*
G01X10555409Y-3415611D01*
G01X10549821Y-3386909D01*
G01X10538391Y-3369891D01*
G01X10521119Y-3364049D01*
G01X10509689Y-3364049D01*
G01X10637451Y-3364049D02*
G01X10620433Y-3369891D01*
G01X10609003Y-3386909D01*
G01X10603161Y-3415611D01*
G01X10603161Y-3432629D01*
G01X10609003Y-3461331D01*
G01X10620433Y-3478349D01*
G01X10637451Y-3484191D01*
G01X10648881Y-3484191D01*
G01X10666153Y-3478349D01*
G01X10677583Y-3461331D01*
G01X10683171Y-3432629D01*
G01X10683171Y-3415611D01*
G01X10677583Y-3386909D01*
G01X10666153Y-3369891D01*
G01X10648881Y-3364049D01*
G01X10637451Y-3364049D01*
G01X10730923Y-3404181D02*
G01X10793915Y-3484191D01*
G01X10793915Y-3404181D02*
G01X10730923Y-3484191D01*
G01X10841667Y-3386909D02*
G01X10853097Y-3381321D01*
G01X10870369Y-3364049D01*
G01X10870369Y-3484191D01*
G01X10923963Y-3455489D02*
G01X10918121Y-3461331D01*
G01X10923963Y-3466919D01*
G01X10929551Y-3461331D01*
G01X10923963Y-3455489D01*
G01X10983145Y-3392751D02*
G01X10983145Y-3386909D01*
G01X10988733Y-3375479D01*
G01X10994575Y-3369891D01*
G01X11006005Y-3364049D01*
G01X11028865Y-3364049D01*
G01X11040295Y-3369891D01*
G01X11045883Y-3375479D01*
G01X11051725Y-3386909D01*
G01X11051725Y-3398339D01*
G01X11045883Y-3409769D01*
G01X11034453Y-3427041D01*
G01X10977303Y-3484191D01*
G01X11057313Y-3484191D01*
G01X11139355Y-3364049D02*
G01X11122337Y-3369891D01*
G01X11110907Y-3386909D01*
G01X11105065Y-3415611D01*
G01X11105065Y-3432629D01*
G01X11110907Y-3461331D01*
G01X11122337Y-3478349D01*
G01X11139355Y-3484191D01*
G01X11150785Y-3484191D01*
G01X11168057Y-3478349D01*
G01X11179487Y-3461331D01*
G01X11185075Y-3432629D01*
G01X11185075Y-3415611D01*
G01X11179487Y-3386909D01*
G01X11168057Y-3369891D01*
G01X11150785Y-3364049D01*
G01X11139355Y-3364049D01*
G01X11267117Y-3364049D02*
G01X11250099Y-3369891D01*
G01X11238669Y-3386909D01*
G01X11232827Y-3415611D01*
G01X11232827Y-3432629D01*
G01X11238669Y-3461331D01*
G01X11250099Y-3478349D01*
G01X11267117Y-3484191D01*
G01X11278547Y-3484191D01*
G01X11295819Y-3478349D01*
G01X11307249Y-3461331D01*
G01X11312837Y-3432629D01*
G01X11312837Y-3415611D01*
G01X11307249Y-3386909D01*
G01X11295819Y-3369891D01*
G01X11278547Y-3364049D01*
G01X11267117Y-3364049D01*
G01X11360589Y-3404181D02*
G01X11360589Y-3484191D01*
G01X11360589Y-3427041D02*
G01X11377861Y-3409769D01*
G01X11389291Y-3404181D01*
G01X11406309Y-3404181D01*
G01X11417739Y-3409769D01*
G01X11423581Y-3427041D01*
G01X11423581Y-3484191D01*
G01X11423581Y-3427041D02*
G01X11440599Y-3409769D01*
G01X11452029Y-3404181D01*
G01X11469301Y-3404181D01*
G01X11480731Y-3409769D01*
G01X11486319Y-3427041D01*
G01X11486319Y-3484191D01*
G01X11534071Y-3404181D02*
G01X11534071Y-3484191D01*
G01X11534071Y-3427041D02*
G01X11551343Y-3409769D01*
G01X11562773Y-3404181D01*
G01X11579791Y-3404181D01*
G01X11591221Y-3409769D01*
G01X11597063Y-3427041D01*
G01X11597063Y-3484191D01*
G01X11597063Y-3427041D02*
G01X11614081Y-3409769D01*
G01X11625511Y-3404181D01*
G01X11642783Y-3404181D01*
G01X11654213Y-3409769D01*
G01X11659801Y-3427041D01*
G01X11659801Y-3484191D01*
G01X11707553Y-3341189D02*
G01X11718983Y-3352619D01*
G01X11730413Y-3369891D01*
G01X11741843Y-3392751D01*
G01X11747685Y-3421199D01*
G01X11747685Y-3444059D01*
G01X11741843Y-3472761D01*
G01X11730413Y-3495621D01*
G01X11718983Y-3512639D01*
G01X11707553Y-3524069D01*
G01X12638863Y-3364049D02*
G01X12638863Y-3484191D01*
G01X12638863Y-3364049D02*
G01X12690425Y-3364049D01*
G01X12707443Y-3369891D01*
G01X12713285Y-3375479D01*
G01X12718873Y-3386909D01*
G01X12718873Y-3404181D01*
G01X12713285Y-3415611D01*
G01X12707443Y-3421199D01*
G01X12690425Y-3427041D01*
G01X12638863Y-3427041D01*
G01X12806757Y-3364049D02*
G01X12806757Y-3484191D01*
G01X12766625Y-3364049D02*
G01X12846635Y-3364049D01*
G01X12894387Y-3364049D02*
G01X12894387Y-3484191D01*
G01X12974397Y-3364049D02*
G01X12974397Y-3484191D01*
G01X12894387Y-3421199D02*
G01X12974397Y-3421199D01*
G01X14100270Y-3364049D02*
G01X14100270Y-3484191D01*
G01X14100270Y-3364049D02*
G01X14151832Y-3364049D01*
G01X14168850Y-3369891D01*
G01X14174692Y-3375479D01*
G01X14180280Y-3386909D01*
G01X14180280Y-3398339D01*
G01X14174692Y-3409769D01*
G01X14168850Y-3415611D01*
G01X14151832Y-3421199D01*
G01X14100270Y-3421199D01*
G01X14140402Y-3421199D02*
G01X14180280Y-3484191D01*
G01X14256734Y-3404181D02*
G01X14245304Y-3409769D01*
G01X14233874Y-3421199D01*
G01X14228032Y-3438471D01*
G01X14228032Y-3449901D01*
G01X14233874Y-3466919D01*
G01X14245304Y-3478349D01*
G01X14256734Y-3484191D01*
G01X14273752Y-3484191D01*
G01X14285182Y-3478349D01*
G01X14296612Y-3466919D01*
G01X14302454Y-3449901D01*
G01X14302454Y-3438471D01*
G01X14296612Y-3421199D01*
G01X14285182Y-3409769D01*
G01X14273752Y-3404181D01*
G01X14256734Y-3404181D01*
G01X14350206Y-3404181D02*
G01X14350206Y-3461331D01*
G01X14356048Y-3478349D01*
G01X14367478Y-3484191D01*
G01X14384496Y-3484191D01*
G01X14395926Y-3478349D01*
G01X14413198Y-3461331D01*
G01X14413198Y-3404181D02*
G01X14413198Y-3484191D01*
G01X14460950Y-3404181D02*
G01X14460950Y-3484191D01*
G01X14460950Y-3427041D02*
G01X14478222Y-3409769D01*
G01X14489652Y-3404181D01*
G01X14506670Y-3404181D01*
G01X14518100Y-3409769D01*
G01X14523942Y-3427041D01*
G01X14523942Y-3484191D01*
G01X14640274Y-3364049D02*
G01X14640274Y-3484191D01*
G01X14640274Y-3421199D02*
G01X14628844Y-3409769D01*
G01X14617414Y-3404181D01*
G01X14600396Y-3404181D01*
G01X14588966Y-3409769D01*
G01X14577536Y-3421199D01*
G01X14571694Y-3438471D01*
G01X14571694Y-3449901D01*
G01X14577536Y-3466919D01*
G01X14588966Y-3478349D01*
G01X14600396Y-3484191D01*
G01X14617414Y-3484191D01*
G01X14628844Y-3478349D01*
G01X14640274Y-3466919D01*
G01X15531451Y-3364049D02*
G01X15531451Y-3484191D01*
G01X15531451Y-3364049D02*
G01X15583013Y-3364049D01*
G01X15600031Y-3369891D01*
G01X15605873Y-3375479D01*
G01X15611461Y-3386909D01*
G01X15611461Y-3404181D01*
G01X15605873Y-3415611D01*
G01X15600031Y-3421199D01*
G01X15583013Y-3427041D01*
G01X15531451Y-3427041D01*
G01X15727793Y-3404181D02*
G01X15727793Y-3484191D01*
G01X15727793Y-3421199D02*
G01X15716363Y-3409769D01*
G01X15704933Y-3404181D01*
G01X15687915Y-3404181D01*
G01X15676485Y-3409769D01*
G01X15665055Y-3421199D01*
G01X15659213Y-3438471D01*
G01X15659213Y-3449901D01*
G01X15665055Y-3466919D01*
G01X15676485Y-3478349D01*
G01X15687915Y-3484191D01*
G01X15704933Y-3484191D01*
G01X15716363Y-3478349D01*
G01X15727793Y-3466919D01*
G01X15844125Y-3364049D02*
G01X15844125Y-3484191D01*
G01X15844125Y-3421199D02*
G01X15832695Y-3409769D01*
G01X15821265Y-3404181D01*
G01X15804247Y-3404181D01*
G01X15792817Y-3409769D01*
G01X15781387Y-3421199D01*
G01X15775545Y-3438471D01*
G01X15775545Y-3449901D01*
G01X15781387Y-3466919D01*
G01X15792817Y-3478349D01*
G01X15804247Y-3484191D01*
G01X15821265Y-3484191D01*
G01X15832695Y-3478349D01*
G01X15844125Y-3466919D01*
G01X17240762Y-3341189D02*
G01X17229332Y-3352619D01*
G01X17217902Y-3369891D01*
G01X17206472Y-3392751D01*
G01X17200630Y-3421199D01*
G01X17200630Y-3444059D01*
G01X17206472Y-3472761D01*
G01X17217902Y-3495621D01*
G01X17229332Y-3512639D01*
G01X17240762Y-3524069D01*
G01X17288514Y-3364049D02*
G01X17288514Y-3484191D01*
G01X17288514Y-3364049D02*
G01X17334234Y-3484191D01*
G01X17379954Y-3364049D02*
G01X17334234Y-3484191D01*
G01X17379954Y-3364049D02*
G01X17379954Y-3484191D01*
G01X17427706Y-3364049D02*
G01X17433548Y-3369891D01*
G01X17439136Y-3364049D01*
G01X17433548Y-3358461D01*
G01X17427706Y-3364049D01*
G01X17433548Y-3404181D02*
G01X17433548Y-3484191D01*
G01X17486888Y-3404181D02*
G01X17549880Y-3484191D01*
G01X17549880Y-3404181D02*
G01X17486888Y-3484191D01*
G01X17597632Y-3438471D02*
G01X17666212Y-3438471D01*
G01X17666212Y-3427041D01*
G01X17660624Y-3415611D01*
G01X17654782Y-3409769D01*
G01X17643352Y-3404181D01*
G01X17626334Y-3404181D01*
G01X17614904Y-3409769D01*
G01X17603474Y-3421199D01*
G01X17597632Y-3438471D01*
G01X17597632Y-3449901D01*
G01X17603474Y-3466919D01*
G01X17614904Y-3478349D01*
G01X17626334Y-3484191D01*
G01X17643352Y-3484191D01*
G01X17654782Y-3478349D01*
G01X17666212Y-3466919D01*
G01X17782544Y-3364049D02*
G01X17782544Y-3484191D01*
G01X17782544Y-3421199D02*
G01X17771114Y-3409769D01*
G01X17759684Y-3404181D01*
G01X17742666Y-3404181D01*
G01X17731236Y-3409769D01*
G01X17719806Y-3421199D01*
G01X17713964Y-3438471D01*
G01X17713964Y-3449901D01*
G01X17719806Y-3466919D01*
G01X17731236Y-3478349D01*
G01X17742666Y-3484191D01*
G01X17759684Y-3484191D01*
G01X17771114Y-3478349D01*
G01X17782544Y-3466919D01*
G01X17830296Y-3341189D02*
G01X17841726Y-3352619D01*
G01X17853156Y-3369891D01*
G01X17864586Y-3392751D01*
G01X17870428Y-3421199D01*
G01X17870428Y-3444059D01*
G01X17864586Y-3472761D01*
G01X17853156Y-3495621D01*
G01X17841726Y-3512639D01*
G01X17830296Y-3524069D01*
G01X19160131Y-3364049D02*
G01X19160131Y-3484191D01*
G01X19119999Y-3364049D02*
G01X19200009Y-3364049D01*
G01X19276463Y-3404181D02*
G01X19265033Y-3409769D01*
G01X19253603Y-3421199D01*
G01X19247761Y-3438471D01*
G01X19247761Y-3449901D01*
G01X19253603Y-3466919D01*
G01X19265033Y-3478349D01*
G01X19276463Y-3484191D01*
G01X19293481Y-3484191D01*
G01X19304911Y-3478349D01*
G01X19316341Y-3466919D01*
G01X19322183Y-3449901D01*
G01X19322183Y-3438471D01*
G01X19316341Y-3421199D01*
G01X19304911Y-3409769D01*
G01X19293481Y-3404181D01*
G01X19276463Y-3404181D01*
G01X19369935Y-3404181D02*
G01X19369935Y-3524069D01*
G01X19369935Y-3421199D02*
G01X19381365Y-3409769D01*
G01X19392795Y-3404181D01*
G01X19410067Y-3404181D01*
G01X19421497Y-3409769D01*
G01X19432927Y-3421199D01*
G01X19438515Y-3438471D01*
G01X19438515Y-3449901D01*
G01X19432927Y-3466919D01*
G01X19421497Y-3478349D01*
G01X19410067Y-3484191D01*
G01X19392795Y-3484191D01*
G01X19381365Y-3478349D01*
G01X19369935Y-3466919D01*
G01X19614283Y-3364049D02*
G01X19614283Y-3484191D01*
G01X19614283Y-3484191D02*
G01X19682863Y-3484191D01*
G01X19799195Y-3404181D02*
G01X19799195Y-3484191D01*
G01X19799195Y-3421199D02*
G01X19787765Y-3409769D01*
G01X19776335Y-3404181D01*
G01X19759317Y-3404181D01*
G01X19747887Y-3409769D01*
G01X19736457Y-3421199D01*
G01X19730615Y-3438471D01*
G01X19730615Y-3449901D01*
G01X19736457Y-3466919D01*
G01X19747887Y-3478349D01*
G01X19759317Y-3484191D01*
G01X19776335Y-3484191D01*
G01X19787765Y-3478349D01*
G01X19799195Y-3466919D01*
G01X19852789Y-3404181D02*
G01X19887079Y-3484191D01*
G01X19921369Y-3404181D02*
G01X19887079Y-3484191D01*
G01X19875649Y-3507051D01*
G01X19864219Y-3518481D01*
G01X19852789Y-3524069D01*
G01X19846947Y-3524069D01*
G01X19969121Y-3438471D02*
G01X20037701Y-3438471D01*
G01X20037701Y-3427041D01*
G01X20032113Y-3415611D01*
G01X20026271Y-3409769D01*
G01X20014841Y-3404181D01*
G01X19997823Y-3404181D01*
G01X19986393Y-3409769D01*
G01X19974963Y-3421199D01*
G01X19969121Y-3438471D01*
G01X19969121Y-3449901D01*
G01X19974963Y-3466919D01*
G01X19986393Y-3478349D01*
G01X19997823Y-3484191D01*
G01X20014841Y-3484191D01*
G01X20026271Y-3478349D01*
G01X20037701Y-3466919D01*
G01X20085453Y-3404181D02*
G01X20085453Y-3484191D01*
G01X20085453Y-3438471D02*
G01X20091295Y-3421199D01*
G01X20102725Y-3409769D01*
G01X20114155Y-3404181D01*
G01X20131173Y-3404181D01*
G01X20178925Y-3432629D02*
G01X20281795Y-3432629D01*
G01X20329547Y-3364049D02*
G01X20329547Y-3484191D01*
G01X20329547Y-3364049D02*
G01X20381109Y-3364049D01*
G01X20398127Y-3369891D01*
G01X20403969Y-3375479D01*
G01X20409557Y-3386909D01*
G01X20409557Y-3398339D01*
G01X20403969Y-3409769D01*
G01X20398127Y-3415611D01*
G01X20381109Y-3421199D01*
G01X20329547Y-3421199D02*
G01X20381109Y-3421199D01*
G01X20398127Y-3427041D01*
G01X20403969Y-3432629D01*
G01X20409557Y-3444059D01*
G01X20409557Y-3461331D01*
G01X20403969Y-3472761D01*
G01X20398127Y-3478349D01*
G01X20381109Y-3484191D01*
G01X20329547Y-3484191D01*
G01X20486011Y-3404181D02*
G01X20474581Y-3409769D01*
G01X20463151Y-3421199D01*
G01X20457309Y-3438471D01*
G01X20457309Y-3449901D01*
G01X20463151Y-3466919D01*
G01X20474581Y-3478349D01*
G01X20486011Y-3484191D01*
G01X20503029Y-3484191D01*
G01X20514459Y-3478349D01*
G01X20525889Y-3466919D01*
G01X20531731Y-3449901D01*
G01X20531731Y-3438471D01*
G01X20525889Y-3421199D01*
G01X20514459Y-3409769D01*
G01X20503029Y-3404181D01*
G01X20486011Y-3404181D01*
G01X20596755Y-3364049D02*
G01X20596755Y-3461331D01*
G01X20602343Y-3478349D01*
G01X20613773Y-3484191D01*
G01X20625203Y-3484191D01*
G01X20579483Y-3404181D02*
G01X20619615Y-3404181D01*
G01X20690227Y-3364049D02*
G01X20690227Y-3461331D01*
G01X20695815Y-3478349D01*
G01X20707245Y-3484191D01*
G01X20718675Y-3484191D01*
G01X20672955Y-3404181D02*
G01X20713087Y-3404181D01*
G01X20795129Y-3404181D02*
G01X20783699Y-3409769D01*
G01X20772269Y-3421199D01*
G01X20766427Y-3438471D01*
G01X20766427Y-3449901D01*
G01X20772269Y-3466919D01*
G01X20783699Y-3478349D01*
G01X20795129Y-3484191D01*
G01X20812147Y-3484191D01*
G01X20823577Y-3478349D01*
G01X20835007Y-3466919D01*
G01X20840849Y-3449901D01*
G01X20840849Y-3438471D01*
G01X20835007Y-3421199D01*
G01X20823577Y-3409769D01*
G01X20812147Y-3404181D01*
G01X20795129Y-3404181D01*
G01X20888601Y-3404181D02*
G01X20888601Y-3484191D01*
G01X20888601Y-3427041D02*
G01X20905873Y-3409769D01*
G01X20917303Y-3404181D01*
G01X20934321Y-3404181D01*
G01X20945751Y-3409769D01*
G01X20951593Y-3427041D01*
G01X20951593Y-3484191D01*
G01X20951593Y-3427041D02*
G01X20968611Y-3409769D01*
G01X20980041Y-3404181D01*
G01X20997313Y-3404181D01*
G01X21008743Y-3409769D01*
G01X21014331Y-3427041D01*
G01X21014331Y-3484191D01*
G01X21190099Y-3364049D02*
G01X21190099Y-3484191D01*
G01X21190099Y-3484191D02*
G01X21258679Y-3484191D01*
G01X21375011Y-3404181D02*
G01X21375011Y-3484191D01*
G01X21375011Y-3421199D02*
G01X21363581Y-3409769D01*
G01X21352151Y-3404181D01*
G01X21335133Y-3404181D01*
G01X21323703Y-3409769D01*
G01X21312273Y-3421199D01*
G01X21306431Y-3438471D01*
G01X21306431Y-3449901D01*
G01X21312273Y-3466919D01*
G01X21323703Y-3478349D01*
G01X21335133Y-3484191D01*
G01X21352151Y-3484191D01*
G01X21363581Y-3478349D01*
G01X21375011Y-3466919D01*
G01X21428605Y-3404181D02*
G01X21462895Y-3484191D01*
G01X21497185Y-3404181D02*
G01X21462895Y-3484191D01*
G01X21451465Y-3507051D01*
G01X21440035Y-3518481D01*
G01X21428605Y-3524069D01*
G01X21422763Y-3524069D01*
G01X21544937Y-3438471D02*
G01X21613517Y-3438471D01*
G01X21613517Y-3427041D01*
G01X21607929Y-3415611D01*
G01X21602087Y-3409769D01*
G01X21590657Y-3404181D01*
G01X21573639Y-3404181D01*
G01X21562209Y-3409769D01*
G01X21550779Y-3421199D01*
G01X21544937Y-3438471D01*
G01X21544937Y-3449901D01*
G01X21550779Y-3466919D01*
G01X21562209Y-3478349D01*
G01X21573639Y-3484191D01*
G01X21590657Y-3484191D01*
G01X21602087Y-3478349D01*
G01X21613517Y-3466919D01*
G01X21661269Y-3404181D02*
G01X21661269Y-3484191D01*
G01X21661269Y-3438471D02*
G01X21667111Y-3421199D01*
G01X21678541Y-3409769D01*
G01X21689971Y-3404181D01*
G01X21706989Y-3404181D01*
G01X7422174Y-3967480D02*
G01X7433604Y-3961892D01*
G01X7450876Y-3944620D01*
G01X7450876Y-4064762D01*
G01X7567208Y-3961892D02*
G01X7561620Y-3950462D01*
G01X7544348Y-3944620D01*
G01X7532918Y-3944620D01*
G01X7515900Y-3950462D01*
G01X7504470Y-3967480D01*
G01X7498628Y-3996182D01*
G01X7498628Y-4024630D01*
G01X7504470Y-4047490D01*
G01X7515900Y-4058920D01*
G01X7532918Y-4064762D01*
G01X7538760Y-4064762D01*
G01X7555778Y-4058920D01*
G01X7567208Y-4047490D01*
G01X7573050Y-4030472D01*
G01X7573050Y-4024630D01*
G01X7567208Y-4007612D01*
G01X7555778Y-3996182D01*
G01X7538760Y-3990340D01*
G01X7532918Y-3990340D01*
G01X7515900Y-3996182D01*
G01X7504470Y-4007612D01*
G01X7498628Y-4024630D01*
G01X8847767Y-3944620D02*
G01X8910759Y-3944620D01*
G01X8876469Y-3990340D01*
G01X8893487Y-3990340D01*
G01X8904917Y-3996182D01*
G01X8910759Y-4001770D01*
G01X8916347Y-4019042D01*
G01X8916347Y-4030472D01*
G01X8910759Y-4047490D01*
G01X8899329Y-4058920D01*
G01X8882057Y-4064762D01*
G01X8865039Y-4064762D01*
G01X8847767Y-4058920D01*
G01X8842179Y-4053332D01*
G01X8836337Y-4041902D01*
G01X8975529Y-3944620D02*
G01X9038521Y-3944620D01*
G01X9004231Y-3990340D01*
G01X9021249Y-3990340D01*
G01X9032679Y-3996182D01*
G01X9038521Y-4001770D01*
G01X9044109Y-4019042D01*
G01X9044109Y-4030472D01*
G01X9038521Y-4047490D01*
G01X9027091Y-4058920D01*
G01X9009819Y-4064762D01*
G01X8992801Y-4064762D01*
G01X8975529Y-4058920D01*
G01X8969941Y-4053332D01*
G01X8964099Y-4041902D01*
G01X9097703Y-4036060D02*
G01X9091861Y-4041902D01*
G01X9097703Y-4047490D01*
G01X9103291Y-4041902D01*
G01X9097703Y-4036060D01*
G01X9151043Y-3967480D02*
G01X9162473Y-3961892D01*
G01X9179745Y-3944620D01*
G01X9179745Y-4064762D01*
G01X9227497Y-3984752D02*
G01X9290489Y-4064762D01*
G01X9290489Y-3984752D02*
G01X9227497Y-4064762D01*
G01X9349671Y-3944620D02*
G01X9412663Y-3944620D01*
G01X9378373Y-3990340D01*
G01X9395391Y-3990340D01*
G01X9406821Y-3996182D01*
G01X9412663Y-4001770D01*
G01X9418251Y-4019042D01*
G01X9418251Y-4030472D01*
G01X9412663Y-4047490D01*
G01X9401233Y-4058920D01*
G01X9383961Y-4064762D01*
G01X9366943Y-4064762D01*
G01X9349671Y-4058920D01*
G01X9344083Y-4053332D01*
G01X9338241Y-4041902D01*
G01X9477433Y-3944620D02*
G01X9540425Y-3944620D01*
G01X9506135Y-3990340D01*
G01X9523153Y-3990340D01*
G01X9534583Y-3996182D01*
G01X9540425Y-4001770D01*
G01X9546013Y-4019042D01*
G01X9546013Y-4030472D01*
G01X9540425Y-4047490D01*
G01X9528995Y-4058920D01*
G01X9511723Y-4064762D01*
G01X9494705Y-4064762D01*
G01X9477433Y-4058920D01*
G01X9471845Y-4053332D01*
G01X9466003Y-4041902D01*
G01X9599607Y-4036060D02*
G01X9593765Y-4041902D01*
G01X9599607Y-4047490D01*
G01X9605195Y-4041902D01*
G01X9599607Y-4036060D01*
G01X9652947Y-3967480D02*
G01X9664377Y-3961892D01*
G01X9681649Y-3944620D01*
G01X9681649Y-4064762D01*
G01X9729401Y-3984752D02*
G01X9729401Y-4064762D01*
G01X9729401Y-4007612D02*
G01X9746673Y-3990340D01*
G01X9758103Y-3984752D01*
G01X9775121Y-3984752D01*
G01X9786551Y-3990340D01*
G01X9792393Y-4007612D01*
G01X9792393Y-4064762D01*
G01X9792393Y-4007612D02*
G01X9809411Y-3990340D01*
G01X9820841Y-3984752D01*
G01X9838113Y-3984752D01*
G01X9849543Y-3990340D01*
G01X9855131Y-4007612D01*
G01X9855131Y-4064762D01*
G01X9902883Y-3944620D02*
G01X9908725Y-3950462D01*
G01X9914313Y-3944620D01*
G01X9908725Y-3939032D01*
G01X9902883Y-3944620D01*
G01X9908725Y-3984752D02*
G01X9908725Y-4064762D01*
G01X9962065Y-3944620D02*
G01X9962065Y-4064762D01*
G01X10049949Y-3921760D02*
G01X10038519Y-3933190D01*
G01X10027089Y-3950462D01*
G01X10015659Y-3973322D01*
G01X10009817Y-4001770D01*
G01X10009817Y-4024630D01*
G01X10015659Y-4053332D01*
G01X10027089Y-4076192D01*
G01X10038519Y-4093210D01*
G01X10049949Y-4104640D01*
G01X10131991Y-3944620D02*
G01X10114973Y-3950462D01*
G01X10103543Y-3967480D01*
G01X10097701Y-3996182D01*
G01X10097701Y-4013200D01*
G01X10103543Y-4041902D01*
G01X10114973Y-4058920D01*
G01X10131991Y-4064762D01*
G01X10143421Y-4064762D01*
G01X10160693Y-4058920D01*
G01X10172123Y-4041902D01*
G01X10177711Y-4013200D01*
G01X10177711Y-3996182D01*
G01X10172123Y-3967480D01*
G01X10160693Y-3950462D01*
G01X10143421Y-3944620D01*
G01X10131991Y-3944620D01*
G01X10231305Y-4036060D02*
G01X10225463Y-4041902D01*
G01X10231305Y-4047490D01*
G01X10236893Y-4041902D01*
G01X10231305Y-4036060D01*
G01X10313347Y-3944620D02*
G01X10296075Y-3950462D01*
G01X10290487Y-3961892D01*
G01X10290487Y-3973322D01*
G01X10296075Y-3984752D01*
G01X10307505Y-3990340D01*
G01X10330365Y-3996182D01*
G01X10347637Y-4001770D01*
G01X10359067Y-4013200D01*
G01X10364655Y-4024630D01*
G01X10364655Y-4041902D01*
G01X10359067Y-4053332D01*
G01X10353225Y-4058920D01*
G01X10336207Y-4064762D01*
G01X10313347Y-4064762D01*
G01X10296075Y-4058920D01*
G01X10290487Y-4053332D01*
G01X10284645Y-4041902D01*
G01X10284645Y-4024630D01*
G01X10290487Y-4013200D01*
G01X10301917Y-4001770D01*
G01X10318935Y-3996182D01*
G01X10341795Y-3990340D01*
G01X10353225Y-3984752D01*
G01X10359067Y-3973322D01*
G01X10359067Y-3961892D01*
G01X10353225Y-3950462D01*
G01X10336207Y-3944620D01*
G01X10313347Y-3944620D01*
G01X10469557Y-3944620D02*
G01X10412407Y-4024630D01*
G01X10498259Y-4024630D01*
G01X10469557Y-3944620D02*
G01X10469557Y-4064762D01*
G01X10580301Y-3944620D02*
G01X10563283Y-3950462D01*
G01X10551853Y-3967480D01*
G01X10546011Y-3996182D01*
G01X10546011Y-4013200D01*
G01X10551853Y-4041902D01*
G01X10563283Y-4058920D01*
G01X10580301Y-4064762D01*
G01X10591731Y-4064762D01*
G01X10609003Y-4058920D01*
G01X10620433Y-4041902D01*
G01X10626021Y-4013200D01*
G01X10626021Y-3996182D01*
G01X10620433Y-3967480D01*
G01X10609003Y-3950462D01*
G01X10591731Y-3944620D01*
G01X10580301Y-3944620D01*
G01X10673773Y-3984752D02*
G01X10736765Y-4064762D01*
G01X10736765Y-3984752D02*
G01X10673773Y-4064762D01*
G01X10818807Y-3944620D02*
G01X10801789Y-3950462D01*
G01X10790359Y-3967480D01*
G01X10784517Y-3996182D01*
G01X10784517Y-4013200D01*
G01X10790359Y-4041902D01*
G01X10801789Y-4058920D01*
G01X10818807Y-4064762D01*
G01X10830237Y-4064762D01*
G01X10847509Y-4058920D01*
G01X10858939Y-4041902D01*
G01X10864527Y-4013200D01*
G01X10864527Y-3996182D01*
G01X10858939Y-3967480D01*
G01X10847509Y-3950462D01*
G01X10830237Y-3944620D01*
G01X10818807Y-3944620D01*
G01X10918121Y-4036060D02*
G01X10912279Y-4041902D01*
G01X10918121Y-4047490D01*
G01X10923709Y-4041902D01*
G01X10918121Y-4036060D01*
G01X11000163Y-3944620D02*
G01X10982891Y-3950462D01*
G01X10977303Y-3961892D01*
G01X10977303Y-3973322D01*
G01X10982891Y-3984752D01*
G01X10994321Y-3990340D01*
G01X11017181Y-3996182D01*
G01X11034453Y-4001770D01*
G01X11045883Y-4013200D01*
G01X11051471Y-4024630D01*
G01X11051471Y-4041902D01*
G01X11045883Y-4053332D01*
G01X11040041Y-4058920D01*
G01X11023023Y-4064762D01*
G01X11000163Y-4064762D01*
G01X10982891Y-4058920D01*
G01X10977303Y-4053332D01*
G01X10971461Y-4041902D01*
G01X10971461Y-4024630D01*
G01X10977303Y-4013200D01*
G01X10988733Y-4001770D01*
G01X11005751Y-3996182D01*
G01X11028611Y-3990340D01*
G01X11040041Y-3984752D01*
G01X11045883Y-3973322D01*
G01X11045883Y-3961892D01*
G01X11040041Y-3950462D01*
G01X11023023Y-3944620D01*
G01X11000163Y-3944620D01*
G01X11156373Y-3944620D02*
G01X11099223Y-4024630D01*
G01X11185075Y-4024630D01*
G01X11156373Y-3944620D02*
G01X11156373Y-4064762D01*
G01X11267117Y-3944620D02*
G01X11250099Y-3950462D01*
G01X11238669Y-3967480D01*
G01X11232827Y-3996182D01*
G01X11232827Y-4013200D01*
G01X11238669Y-4041902D01*
G01X11250099Y-4058920D01*
G01X11267117Y-4064762D01*
G01X11278547Y-4064762D01*
G01X11295819Y-4058920D01*
G01X11307249Y-4041902D01*
G01X11312837Y-4013200D01*
G01X11312837Y-3996182D01*
G01X11307249Y-3967480D01*
G01X11295819Y-3950462D01*
G01X11278547Y-3944620D01*
G01X11267117Y-3944620D01*
G01X11360589Y-3984752D02*
G01X11360589Y-4064762D01*
G01X11360589Y-4007612D02*
G01X11377861Y-3990340D01*
G01X11389291Y-3984752D01*
G01X11406309Y-3984752D01*
G01X11417739Y-3990340D01*
G01X11423581Y-4007612D01*
G01X11423581Y-4064762D01*
G01X11423581Y-4007612D02*
G01X11440599Y-3990340D01*
G01X11452029Y-3984752D01*
G01X11469301Y-3984752D01*
G01X11480731Y-3990340D01*
G01X11486319Y-4007612D01*
G01X11486319Y-4064762D01*
G01X11534071Y-3984752D02*
G01X11534071Y-4064762D01*
G01X11534071Y-4007612D02*
G01X11551343Y-3990340D01*
G01X11562773Y-3984752D01*
G01X11579791Y-3984752D01*
G01X11591221Y-3990340D01*
G01X11597063Y-4007612D01*
G01X11597063Y-4064762D01*
G01X11597063Y-4007612D02*
G01X11614081Y-3990340D01*
G01X11625511Y-3984752D01*
G01X11642783Y-3984752D01*
G01X11654213Y-3990340D01*
G01X11659801Y-4007612D01*
G01X11659801Y-4064762D01*
G01X11707553Y-3921760D02*
G01X11718983Y-3933190D01*
G01X11730413Y-3950462D01*
G01X11741843Y-3973322D01*
G01X11747685Y-4001770D01*
G01X11747685Y-4024630D01*
G01X11741843Y-4053332D01*
G01X11730413Y-4076192D01*
G01X11718983Y-4093210D01*
G01X11707553Y-4104640D01*
G01X12638863Y-3944620D02*
G01X12638863Y-4064762D01*
G01X12638863Y-3944620D02*
G01X12690425Y-3944620D01*
G01X12707443Y-3950462D01*
G01X12713285Y-3956050D01*
G01X12718873Y-3967480D01*
G01X12718873Y-3984752D01*
G01X12713285Y-3996182D01*
G01X12707443Y-4001770D01*
G01X12690425Y-4007612D01*
G01X12638863Y-4007612D01*
G01X12806757Y-3944620D02*
G01X12806757Y-4064762D01*
G01X12766625Y-3944620D02*
G01X12846635Y-3944620D01*
G01X12894387Y-3944620D02*
G01X12894387Y-4064762D01*
G01X12974397Y-3944620D02*
G01X12974397Y-4064762D01*
G01X12894387Y-4001770D02*
G01X12974397Y-4001770D01*
G01X14180280Y-3961892D02*
G01X14168850Y-3950462D01*
G01X14151832Y-3944620D01*
G01X14128972Y-3944620D01*
G01X14111700Y-3950462D01*
G01X14100270Y-3961892D01*
G01X14100270Y-3973322D01*
G01X14106112Y-3984752D01*
G01X14111700Y-3990340D01*
G01X14123130Y-3996182D01*
G01X14157420Y-4007612D01*
G01X14168850Y-4013200D01*
G01X14174692Y-4019042D01*
G01X14180280Y-4030472D01*
G01X14180280Y-4047490D01*
G01X14168850Y-4058920D01*
G01X14151832Y-4064762D01*
G01X14128972Y-4064762D01*
G01X14111700Y-4058920D01*
G01X14100270Y-4047490D01*
G01X14228032Y-3944620D02*
G01X14228032Y-4064762D01*
G01X14304486Y-3984752D02*
G01X14293056Y-3990340D01*
G01X14281626Y-4001770D01*
G01X14275784Y-4019042D01*
G01X14275784Y-4030472D01*
G01X14281626Y-4047490D01*
G01X14293056Y-4058920D01*
G01X14304486Y-4064762D01*
G01X14321504Y-4064762D01*
G01X14332934Y-4058920D01*
G01X14344364Y-4047490D01*
G01X14350206Y-4030472D01*
G01X14350206Y-4019042D01*
G01X14344364Y-4001770D01*
G01X14332934Y-3990340D01*
G01X14321504Y-3984752D01*
G01X14304486Y-3984752D01*
G01X14415230Y-3944620D02*
G01X14415230Y-4041902D01*
G01X14420818Y-4058920D01*
G01X14432248Y-4064762D01*
G01X14443678Y-4064762D01*
G01X14397958Y-3984752D02*
G01X14438090Y-3984752D01*
G01X15531451Y-3944620D02*
G01X15531451Y-4064762D01*
G01X15531451Y-3944620D02*
G01X15583013Y-3944620D01*
G01X15600031Y-3950462D01*
G01X15605873Y-3956050D01*
G01X15611461Y-3967480D01*
G01X15611461Y-3984752D01*
G01X15605873Y-3996182D01*
G01X15600031Y-4001770D01*
G01X15583013Y-4007612D01*
G01X15531451Y-4007612D01*
G01X15727793Y-3984752D02*
G01X15727793Y-4064762D01*
G01X15727793Y-4001770D02*
G01X15716363Y-3990340D01*
G01X15704933Y-3984752D01*
G01X15687915Y-3984752D01*
G01X15676485Y-3990340D01*
G01X15665055Y-4001770D01*
G01X15659213Y-4019042D01*
G01X15659213Y-4030472D01*
G01X15665055Y-4047490D01*
G01X15676485Y-4058920D01*
G01X15687915Y-4064762D01*
G01X15704933Y-4064762D01*
G01X15716363Y-4058920D01*
G01X15727793Y-4047490D01*
G01X15844125Y-3944620D02*
G01X15844125Y-4064762D01*
G01X15844125Y-4001770D02*
G01X15832695Y-3990340D01*
G01X15821265Y-3984752D01*
G01X15804247Y-3984752D01*
G01X15792817Y-3990340D01*
G01X15781387Y-4001770D01*
G01X15775545Y-4019042D01*
G01X15775545Y-4030472D01*
G01X15781387Y-4047490D01*
G01X15792817Y-4058920D01*
G01X15804247Y-4064762D01*
G01X15821265Y-4064762D01*
G01X15832695Y-4058920D01*
G01X15844125Y-4047490D01*
G01X17240762Y-3921760D02*
G01X17229332Y-3933190D01*
G01X17217902Y-3950462D01*
G01X17206472Y-3973322D01*
G01X17200630Y-4001770D01*
G01X17200630Y-4024630D01*
G01X17206472Y-4053332D01*
G01X17217902Y-4076192D01*
G01X17229332Y-4093210D01*
G01X17240762Y-4104640D01*
G01X17288514Y-3944620D02*
G01X17288514Y-4064762D01*
G01X17288514Y-3944620D02*
G01X17334234Y-4064762D01*
G01X17379954Y-3944620D02*
G01X17334234Y-4064762D01*
G01X17379954Y-3944620D02*
G01X17379954Y-4064762D01*
G01X17427706Y-3944620D02*
G01X17433548Y-3950462D01*
G01X17439136Y-3944620D01*
G01X17433548Y-3939032D01*
G01X17427706Y-3944620D01*
G01X17433548Y-3984752D02*
G01X17433548Y-4064762D01*
G01X17486888Y-3984752D02*
G01X17549880Y-4064762D01*
G01X17549880Y-3984752D02*
G01X17486888Y-4064762D01*
G01X17597632Y-4019042D02*
G01X17666212Y-4019042D01*
G01X17666212Y-4007612D01*
G01X17660624Y-3996182D01*
G01X17654782Y-3990340D01*
G01X17643352Y-3984752D01*
G01X17626334Y-3984752D01*
G01X17614904Y-3990340D01*
G01X17603474Y-4001770D01*
G01X17597632Y-4019042D01*
G01X17597632Y-4030472D01*
G01X17603474Y-4047490D01*
G01X17614904Y-4058920D01*
G01X17626334Y-4064762D01*
G01X17643352Y-4064762D01*
G01X17654782Y-4058920D01*
G01X17666212Y-4047490D01*
G01X17782544Y-3944620D02*
G01X17782544Y-4064762D01*
G01X17782544Y-4001770D02*
G01X17771114Y-3990340D01*
G01X17759684Y-3984752D01*
G01X17742666Y-3984752D01*
G01X17731236Y-3990340D01*
G01X17719806Y-4001770D01*
G01X17713964Y-4019042D01*
G01X17713964Y-4030472D01*
G01X17719806Y-4047490D01*
G01X17731236Y-4058920D01*
G01X17742666Y-4064762D01*
G01X17759684Y-4064762D01*
G01X17771114Y-4058920D01*
G01X17782544Y-4047490D01*
G01X17830296Y-3921760D02*
G01X17841726Y-3933190D01*
G01X17853156Y-3950462D01*
G01X17864586Y-3973322D01*
G01X17870428Y-4001770D01*
G01X17870428Y-4024630D01*
G01X17864586Y-4053332D01*
G01X17853156Y-4076192D01*
G01X17841726Y-4093210D01*
G01X17830296Y-4104640D01*
G01X19160131Y-3944620D02*
G01X19160131Y-4064762D01*
G01X19119999Y-3944620D02*
G01X19200009Y-3944620D01*
G01X19276463Y-3984752D02*
G01X19265033Y-3990340D01*
G01X19253603Y-4001770D01*
G01X19247761Y-4019042D01*
G01X19247761Y-4030472D01*
G01X19253603Y-4047490D01*
G01X19265033Y-4058920D01*
G01X19276463Y-4064762D01*
G01X19293481Y-4064762D01*
G01X19304911Y-4058920D01*
G01X19316341Y-4047490D01*
G01X19322183Y-4030472D01*
G01X19322183Y-4019042D01*
G01X19316341Y-4001770D01*
G01X19304911Y-3990340D01*
G01X19293481Y-3984752D01*
G01X19276463Y-3984752D01*
G01X19369935Y-3984752D02*
G01X19369935Y-4104640D01*
G01X19369935Y-4001770D02*
G01X19381365Y-3990340D01*
G01X19392795Y-3984752D01*
G01X19410067Y-3984752D01*
G01X19421497Y-3990340D01*
G01X19432927Y-4001770D01*
G01X19438515Y-4019042D01*
G01X19438515Y-4030472D01*
G01X19432927Y-4047490D01*
G01X19421497Y-4058920D01*
G01X19410067Y-4064762D01*
G01X19392795Y-4064762D01*
G01X19381365Y-4058920D01*
G01X19369935Y-4047490D01*
G01X19614283Y-3944620D02*
G01X19614283Y-4064762D01*
G01X19614283Y-4064762D02*
G01X19682863Y-4064762D01*
G01X19799195Y-3984752D02*
G01X19799195Y-4064762D01*
G01X19799195Y-4001770D02*
G01X19787765Y-3990340D01*
G01X19776335Y-3984752D01*
G01X19759317Y-3984752D01*
G01X19747887Y-3990340D01*
G01X19736457Y-4001770D01*
G01X19730615Y-4019042D01*
G01X19730615Y-4030472D01*
G01X19736457Y-4047490D01*
G01X19747887Y-4058920D01*
G01X19759317Y-4064762D01*
G01X19776335Y-4064762D01*
G01X19787765Y-4058920D01*
G01X19799195Y-4047490D01*
G01X19852789Y-3984752D02*
G01X19887079Y-4064762D01*
G01X19921369Y-3984752D02*
G01X19887079Y-4064762D01*
G01X19875649Y-4087622D01*
G01X19864219Y-4099052D01*
G01X19852789Y-4104640D01*
G01X19846947Y-4104640D01*
G01X19969121Y-4019042D02*
G01X20037701Y-4019042D01*
G01X20037701Y-4007612D01*
G01X20032113Y-3996182D01*
G01X20026271Y-3990340D01*
G01X20014841Y-3984752D01*
G01X19997823Y-3984752D01*
G01X19986393Y-3990340D01*
G01X19974963Y-4001770D01*
G01X19969121Y-4019042D01*
G01X19969121Y-4030472D01*
G01X19974963Y-4047490D01*
G01X19986393Y-4058920D01*
G01X19997823Y-4064762D01*
G01X20014841Y-4064762D01*
G01X20026271Y-4058920D01*
G01X20037701Y-4047490D01*
G01X20085453Y-3984752D02*
G01X20085453Y-4064762D01*
G01X20085453Y-4019042D02*
G01X20091295Y-4001770D01*
G01X20102725Y-3990340D01*
G01X20114155Y-3984752D01*
G01X20131173Y-3984752D01*
G01X20178925Y-4013200D02*
G01X20281795Y-4013200D01*
G01X20329547Y-3944620D02*
G01X20329547Y-4064762D01*
G01X20329547Y-3944620D02*
G01X20381109Y-3944620D01*
G01X20398127Y-3950462D01*
G01X20403969Y-3956050D01*
G01X20409557Y-3967480D01*
G01X20409557Y-3978910D01*
G01X20403969Y-3990340D01*
G01X20398127Y-3996182D01*
G01X20381109Y-4001770D01*
G01X20329547Y-4001770D02*
G01X20381109Y-4001770D01*
G01X20398127Y-4007612D01*
G01X20403969Y-4013200D01*
G01X20409557Y-4024630D01*
G01X20409557Y-4041902D01*
G01X20403969Y-4053332D01*
G01X20398127Y-4058920D01*
G01X20381109Y-4064762D01*
G01X20329547Y-4064762D01*
G01X20486011Y-3984752D02*
G01X20474581Y-3990340D01*
G01X20463151Y-4001770D01*
G01X20457309Y-4019042D01*
G01X20457309Y-4030472D01*
G01X20463151Y-4047490D01*
G01X20474581Y-4058920D01*
G01X20486011Y-4064762D01*
G01X20503029Y-4064762D01*
G01X20514459Y-4058920D01*
G01X20525889Y-4047490D01*
G01X20531731Y-4030472D01*
G01X20531731Y-4019042D01*
G01X20525889Y-4001770D01*
G01X20514459Y-3990340D01*
G01X20503029Y-3984752D01*
G01X20486011Y-3984752D01*
G01X20596755Y-3944620D02*
G01X20596755Y-4041902D01*
G01X20602343Y-4058920D01*
G01X20613773Y-4064762D01*
G01X20625203Y-4064762D01*
G01X20579483Y-3984752D02*
G01X20619615Y-3984752D01*
G01X20690227Y-3944620D02*
G01X20690227Y-4041902D01*
G01X20695815Y-4058920D01*
G01X20707245Y-4064762D01*
G01X20718675Y-4064762D01*
G01X20672955Y-3984752D02*
G01X20713087Y-3984752D01*
G01X20795129Y-3984752D02*
G01X20783699Y-3990340D01*
G01X20772269Y-4001770D01*
G01X20766427Y-4019042D01*
G01X20766427Y-4030472D01*
G01X20772269Y-4047490D01*
G01X20783699Y-4058920D01*
G01X20795129Y-4064762D01*
G01X20812147Y-4064762D01*
G01X20823577Y-4058920D01*
G01X20835007Y-4047490D01*
G01X20840849Y-4030472D01*
G01X20840849Y-4019042D01*
G01X20835007Y-4001770D01*
G01X20823577Y-3990340D01*
G01X20812147Y-3984752D01*
G01X20795129Y-3984752D01*
G01X20888601Y-3984752D02*
G01X20888601Y-4064762D01*
G01X20888601Y-4007612D02*
G01X20905873Y-3990340D01*
G01X20917303Y-3984752D01*
G01X20934321Y-3984752D01*
G01X20945751Y-3990340D01*
G01X20951593Y-4007612D01*
G01X20951593Y-4064762D01*
G01X20951593Y-4007612D02*
G01X20968611Y-3990340D01*
G01X20980041Y-3984752D01*
G01X20997313Y-3984752D01*
G01X21008743Y-3990340D01*
G01X21014331Y-4007612D01*
G01X21014331Y-4064762D01*
G01X21190099Y-3944620D02*
G01X21190099Y-4064762D01*
G01X21190099Y-4064762D02*
G01X21258679Y-4064762D01*
G01X21375011Y-3984752D02*
G01X21375011Y-4064762D01*
G01X21375011Y-4001770D02*
G01X21363581Y-3990340D01*
G01X21352151Y-3984752D01*
G01X21335133Y-3984752D01*
G01X21323703Y-3990340D01*
G01X21312273Y-4001770D01*
G01X21306431Y-4019042D01*
G01X21306431Y-4030472D01*
G01X21312273Y-4047490D01*
G01X21323703Y-4058920D01*
G01X21335133Y-4064762D01*
G01X21352151Y-4064762D01*
G01X21363581Y-4058920D01*
G01X21375011Y-4047490D01*
G01X21428605Y-3984752D02*
G01X21462895Y-4064762D01*
G01X21497185Y-3984752D02*
G01X21462895Y-4064762D01*
G01X21451465Y-4087622D01*
G01X21440035Y-4099052D01*
G01X21428605Y-4104640D01*
G01X21422763Y-4104640D01*
G01X21544937Y-4019042D02*
G01X21613517Y-4019042D01*
G01X21613517Y-4007612D01*
G01X21607929Y-3996182D01*
G01X21602087Y-3990340D01*
G01X21590657Y-3984752D01*
G01X21573639Y-3984752D01*
G01X21562209Y-3990340D01*
G01X21550779Y-4001770D01*
G01X21544937Y-4019042D01*
G01X21544937Y-4030472D01*
G01X21550779Y-4047490D01*
G01X21562209Y-4058920D01*
G01X21573639Y-4064762D01*
G01X21590657Y-4064762D01*
G01X21602087Y-4058920D01*
G01X21613517Y-4047490D01*
G01X21661269Y-3984752D02*
G01X21661269Y-4064762D01*
G01X21661269Y-4019042D02*
G01X21667111Y-4001770D01*
G01X21678541Y-3990340D01*
G01X21689971Y-3984752D01*
G01X21706989Y-3984752D01*
G01X7479324Y-4525191D02*
G01X7422174Y-4605201D01*
G01X7508026Y-4605201D01*
G01X7479324Y-4525191D02*
G01X7479324Y-4645333D01*
G01X7590068Y-4525191D02*
G01X7573050Y-4531033D01*
G01X7561620Y-4548051D01*
G01X7555778Y-4576753D01*
G01X7555778Y-4593771D01*
G01X7561620Y-4622473D01*
G01X7573050Y-4639491D01*
G01X7590068Y-4645333D01*
G01X7601498Y-4645333D01*
G01X7618770Y-4639491D01*
G01X7630200Y-4622473D01*
G01X7635788Y-4593771D01*
G01X7635788Y-4576753D01*
G01X7630200Y-4548051D01*
G01X7618770Y-4531033D01*
G01X7601498Y-4525191D01*
G01X7590068Y-4525191D01*
G01X8836337Y-4548051D02*
G01X8847767Y-4542463D01*
G01X8865039Y-4525191D01*
G01X8865039Y-4645333D01*
G01X8918633Y-4553893D02*
G01X8918633Y-4548051D01*
G01X8924221Y-4536621D01*
G01X8930063Y-4531033D01*
G01X8941493Y-4525191D01*
G01X8964353Y-4525191D01*
G01X8975783Y-4531033D01*
G01X8981371Y-4536621D01*
G01X8987213Y-4548051D01*
G01X8987213Y-4559481D01*
G01X8981371Y-4570911D01*
G01X8969941Y-4588183D01*
G01X8912791Y-4645333D01*
G01X8992801Y-4645333D01*
G01X9046395Y-4616631D02*
G01X9040553Y-4622473D01*
G01X9046395Y-4628061D01*
G01X9051983Y-4622473D01*
G01X9046395Y-4616631D01*
G01X9134025Y-4525191D02*
G01X9117007Y-4531033D01*
G01X9105577Y-4548051D01*
G01X9099735Y-4576753D01*
G01X9099735Y-4593771D01*
G01X9105577Y-4622473D01*
G01X9117007Y-4639491D01*
G01X9134025Y-4645333D01*
G01X9145455Y-4645333D01*
G01X9162727Y-4639491D01*
G01X9174157Y-4622473D01*
G01X9179745Y-4593771D01*
G01X9179745Y-4576753D01*
G01X9174157Y-4548051D01*
G01X9162727Y-4531033D01*
G01X9145455Y-4525191D01*
G01X9134025Y-4525191D01*
G01X9227497Y-4565323D02*
G01X9227497Y-4645333D01*
G01X9227497Y-4588183D02*
G01X9244769Y-4570911D01*
G01X9256199Y-4565323D01*
G01X9273217Y-4565323D01*
G01X9284647Y-4570911D01*
G01X9290489Y-4588183D01*
G01X9290489Y-4645333D01*
G01X9290489Y-4588183D02*
G01X9307507Y-4570911D01*
G01X9318937Y-4565323D01*
G01X9336209Y-4565323D01*
G01X9347639Y-4570911D01*
G01X9353227Y-4588183D01*
G01X9353227Y-4645333D01*
G01X9400979Y-4525191D02*
G01X9406821Y-4531033D01*
G01X9412409Y-4525191D01*
G01X9406821Y-4519603D01*
G01X9400979Y-4525191D01*
G01X9406821Y-4565323D02*
G01X9406821Y-4645333D01*
G01X9460161Y-4525191D02*
G01X9460161Y-4645333D01*
G01X9548045Y-4502331D02*
G01X9536615Y-4513761D01*
G01X9525185Y-4531033D01*
G01X9513755Y-4553893D01*
G01X9507913Y-4582341D01*
G01X9507913Y-4605201D01*
G01X9513755Y-4633903D01*
G01X9525185Y-4656763D01*
G01X9536615Y-4673781D01*
G01X9548045Y-4685211D01*
G01X9630087Y-4525191D02*
G01X9613069Y-4531033D01*
G01X9601639Y-4548051D01*
G01X9595797Y-4576753D01*
G01X9595797Y-4593771D01*
G01X9601639Y-4622473D01*
G01X9613069Y-4639491D01*
G01X9630087Y-4645333D01*
G01X9641517Y-4645333D01*
G01X9658789Y-4639491D01*
G01X9670219Y-4622473D01*
G01X9675807Y-4593771D01*
G01X9675807Y-4576753D01*
G01X9670219Y-4548051D01*
G01X9658789Y-4531033D01*
G01X9641517Y-4525191D01*
G01X9630087Y-4525191D01*
G01X9729401Y-4616631D02*
G01X9723559Y-4622473D01*
G01X9729401Y-4628061D01*
G01X9734989Y-4622473D01*
G01X9729401Y-4616631D01*
G01X9794171Y-4525191D02*
G01X9857163Y-4525191D01*
G01X9822873Y-4570911D01*
G01X9839891Y-4570911D01*
G01X9851321Y-4576753D01*
G01X9857163Y-4582341D01*
G01X9862751Y-4599613D01*
G01X9862751Y-4611043D01*
G01X9857163Y-4628061D01*
G01X9845733Y-4639491D01*
G01X9828461Y-4645333D01*
G01X9811443Y-4645333D01*
G01X9794171Y-4639491D01*
G01X9788583Y-4633903D01*
G01X9782741Y-4622473D01*
G01X9944793Y-4525191D02*
G01X9927775Y-4531033D01*
G01X9916345Y-4548051D01*
G01X9910503Y-4576753D01*
G01X9910503Y-4593771D01*
G01X9916345Y-4622473D01*
G01X9927775Y-4639491D01*
G01X9944793Y-4645333D01*
G01X9956223Y-4645333D01*
G01X9973495Y-4639491D01*
G01X9984925Y-4622473D01*
G01X9990513Y-4593771D01*
G01X9990513Y-4576753D01*
G01X9984925Y-4548051D01*
G01X9973495Y-4531033D01*
G01X9956223Y-4525191D01*
G01X9944793Y-4525191D01*
G01X10106845Y-4525191D02*
G01X10049695Y-4525191D01*
G01X10044107Y-4576753D01*
G01X10049695Y-4570911D01*
G01X10066967Y-4565323D01*
G01X10083985Y-4565323D01*
G01X10101257Y-4570911D01*
G01X10112687Y-4582341D01*
G01X10118275Y-4599613D01*
G01X10118275Y-4611043D01*
G01X10112687Y-4628061D01*
G01X10101257Y-4639491D01*
G01X10083985Y-4645333D01*
G01X10066967Y-4645333D01*
G01X10049695Y-4639491D01*
G01X10044107Y-4633903D01*
G01X10038265Y-4622473D01*
G01X10166027Y-4565323D02*
G01X10166027Y-4645333D01*
G01X10166027Y-4588183D02*
G01X10183299Y-4570911D01*
G01X10194729Y-4565323D01*
G01X10211747Y-4565323D01*
G01X10223177Y-4570911D01*
G01X10229019Y-4588183D01*
G01X10229019Y-4645333D01*
G01X10229019Y-4588183D02*
G01X10246037Y-4570911D01*
G01X10257467Y-4565323D01*
G01X10274739Y-4565323D01*
G01X10286169Y-4570911D01*
G01X10291757Y-4588183D01*
G01X10291757Y-4645333D01*
G01X10339509Y-4565323D02*
G01X10339509Y-4645333D01*
G01X10339509Y-4588183D02*
G01X10356781Y-4570911D01*
G01X10368211Y-4565323D01*
G01X10385229Y-4565323D01*
G01X10396659Y-4570911D01*
G01X10402501Y-4588183D01*
G01X10402501Y-4645333D01*
G01X10402501Y-4588183D02*
G01X10419519Y-4570911D01*
G01X10430949Y-4565323D01*
G01X10448221Y-4565323D01*
G01X10459651Y-4570911D01*
G01X10465239Y-4588183D01*
G01X10465239Y-4645333D01*
G01X10512991Y-4502331D02*
G01X10524421Y-4513761D01*
G01X10535851Y-4531033D01*
G01X10547281Y-4553893D01*
G01X10553123Y-4582341D01*
G01X10553123Y-4605201D01*
G01X10547281Y-4633903D01*
G01X10535851Y-4656763D01*
G01X10524421Y-4673781D01*
G01X10512991Y-4685211D01*
G01X12638863Y-4525191D02*
G01X12638863Y-4645333D01*
G01X12638863Y-4525191D02*
G01X12690425Y-4525191D01*
G01X12707443Y-4531033D01*
G01X12713285Y-4536621D01*
G01X12718873Y-4548051D01*
G01X12718873Y-4565323D01*
G01X12713285Y-4576753D01*
G01X12707443Y-4582341D01*
G01X12690425Y-4588183D01*
G01X12638863Y-4588183D01*
G01X12806757Y-4525191D02*
G01X12806757Y-4645333D01*
G01X12766625Y-4525191D02*
G01X12846635Y-4525191D01*
G01X12894387Y-4525191D02*
G01X12894387Y-4645333D01*
G01X12974397Y-4525191D02*
G01X12974397Y-4645333D01*
G01X12894387Y-4582341D02*
G01X12974397Y-4582341D01*
G01X14100270Y-4525191D02*
G01X14100270Y-4645333D01*
G01X14100270Y-4525191D02*
G01X14151832Y-4525191D01*
G01X14168850Y-4531033D01*
G01X14174692Y-4536621D01*
G01X14180280Y-4548051D01*
G01X14180280Y-4559481D01*
G01X14174692Y-4570911D01*
G01X14168850Y-4576753D01*
G01X14151832Y-4582341D01*
G01X14100270Y-4582341D01*
G01X14140402Y-4582341D02*
G01X14180280Y-4645333D01*
G01X14256734Y-4565323D02*
G01X14245304Y-4570911D01*
G01X14233874Y-4582341D01*
G01X14228032Y-4599613D01*
G01X14228032Y-4611043D01*
G01X14233874Y-4628061D01*
G01X14245304Y-4639491D01*
G01X14256734Y-4645333D01*
G01X14273752Y-4645333D01*
G01X14285182Y-4639491D01*
G01X14296612Y-4628061D01*
G01X14302454Y-4611043D01*
G01X14302454Y-4599613D01*
G01X14296612Y-4582341D01*
G01X14285182Y-4570911D01*
G01X14273752Y-4565323D01*
G01X14256734Y-4565323D01*
G01X14350206Y-4565323D02*
G01X14350206Y-4622473D01*
G01X14356048Y-4639491D01*
G01X14367478Y-4645333D01*
G01X14384496Y-4645333D01*
G01X14395926Y-4639491D01*
G01X14413198Y-4622473D01*
G01X14413198Y-4565323D02*
G01X14413198Y-4645333D01*
G01X14460950Y-4565323D02*
G01X14460950Y-4645333D01*
G01X14460950Y-4588183D02*
G01X14478222Y-4570911D01*
G01X14489652Y-4565323D01*
G01X14506670Y-4565323D01*
G01X14518100Y-4570911D01*
G01X14523942Y-4588183D01*
G01X14523942Y-4645333D01*
G01X14640274Y-4525191D02*
G01X14640274Y-4645333D01*
G01X14640274Y-4582341D02*
G01X14628844Y-4570911D01*
G01X14617414Y-4565323D01*
G01X14600396Y-4565323D01*
G01X14588966Y-4570911D01*
G01X14577536Y-4582341D01*
G01X14571694Y-4599613D01*
G01X14571694Y-4611043D01*
G01X14577536Y-4628061D01*
G01X14588966Y-4639491D01*
G01X14600396Y-4645333D01*
G01X14617414Y-4645333D01*
G01X14628844Y-4639491D01*
G01X14640274Y-4628061D01*
G01X15531451Y-4525191D02*
G01X15577171Y-4645333D01*
G01X15622891Y-4525191D02*
G01X15577171Y-4645333D01*
G01X15670643Y-4525191D02*
G01X15676485Y-4531033D01*
G01X15682073Y-4525191D01*
G01X15676485Y-4519603D01*
G01X15670643Y-4525191D01*
G01X15676485Y-4565323D02*
G01X15676485Y-4645333D01*
G01X15798405Y-4565323D02*
G01X15798405Y-4645333D01*
G01X15798405Y-4582341D02*
G01X15786975Y-4570911D01*
G01X15775545Y-4565323D01*
G01X15758527Y-4565323D01*
G01X15747097Y-4570911D01*
G01X15735667Y-4582341D01*
G01X15729825Y-4599613D01*
G01X15729825Y-4611043D01*
G01X15735667Y-4628061D01*
G01X15747097Y-4639491D01*
G01X15758527Y-4645333D01*
G01X15775545Y-4645333D01*
G01X15786975Y-4639491D01*
G01X15798405Y-4628061D01*
G01X19160131Y-4525191D02*
G01X19160131Y-4645333D01*
G01X19119999Y-4525191D02*
G01X19200009Y-4525191D01*
G01X19276463Y-4565323D02*
G01X19265033Y-4570911D01*
G01X19253603Y-4582341D01*
G01X19247761Y-4599613D01*
G01X19247761Y-4611043D01*
G01X19253603Y-4628061D01*
G01X19265033Y-4639491D01*
G01X19276463Y-4645333D01*
G01X19293481Y-4645333D01*
G01X19304911Y-4639491D01*
G01X19316341Y-4628061D01*
G01X19322183Y-4611043D01*
G01X19322183Y-4599613D01*
G01X19316341Y-4582341D01*
G01X19304911Y-4570911D01*
G01X19293481Y-4565323D01*
G01X19276463Y-4565323D01*
G01X19369935Y-4565323D02*
G01X19369935Y-4685211D01*
G01X19369935Y-4582341D02*
G01X19381365Y-4570911D01*
G01X19392795Y-4565323D01*
G01X19410067Y-4565323D01*
G01X19421497Y-4570911D01*
G01X19432927Y-4582341D01*
G01X19438515Y-4599613D01*
G01X19438515Y-4611043D01*
G01X19432927Y-4628061D01*
G01X19421497Y-4639491D01*
G01X19410067Y-4645333D01*
G01X19392795Y-4645333D01*
G01X19381365Y-4639491D01*
G01X19369935Y-4628061D01*
G01X19614283Y-4525191D02*
G01X19614283Y-4645333D01*
G01X19614283Y-4645333D02*
G01X19682863Y-4645333D01*
G01X19799195Y-4565323D02*
G01X19799195Y-4645333D01*
G01X19799195Y-4582341D02*
G01X19787765Y-4570911D01*
G01X19776335Y-4565323D01*
G01X19759317Y-4565323D01*
G01X19747887Y-4570911D01*
G01X19736457Y-4582341D01*
G01X19730615Y-4599613D01*
G01X19730615Y-4611043D01*
G01X19736457Y-4628061D01*
G01X19747887Y-4639491D01*
G01X19759317Y-4645333D01*
G01X19776335Y-4645333D01*
G01X19787765Y-4639491D01*
G01X19799195Y-4628061D01*
G01X19852789Y-4565323D02*
G01X19887079Y-4645333D01*
G01X19921369Y-4565323D02*
G01X19887079Y-4645333D01*
G01X19875649Y-4668193D01*
G01X19864219Y-4679623D01*
G01X19852789Y-4685211D01*
G01X19846947Y-4685211D01*
G01X19969121Y-4599613D02*
G01X20037701Y-4599613D01*
G01X20037701Y-4588183D01*
G01X20032113Y-4576753D01*
G01X20026271Y-4570911D01*
G01X20014841Y-4565323D01*
G01X19997823Y-4565323D01*
G01X19986393Y-4570911D01*
G01X19974963Y-4582341D01*
G01X19969121Y-4599613D01*
G01X19969121Y-4611043D01*
G01X19974963Y-4628061D01*
G01X19986393Y-4639491D01*
G01X19997823Y-4645333D01*
G01X20014841Y-4645333D01*
G01X20026271Y-4639491D01*
G01X20037701Y-4628061D01*
G01X20085453Y-4565323D02*
G01X20085453Y-4645333D01*
G01X20085453Y-4599613D02*
G01X20091295Y-4582341D01*
G01X20102725Y-4570911D01*
G01X20114155Y-4565323D01*
G01X20131173Y-4565323D01*
G01X20178925Y-4593771D02*
G01X20281795Y-4593771D01*
G01X20329547Y-4525191D02*
G01X20329547Y-4645333D01*
G01X20329547Y-4525191D02*
G01X20381109Y-4525191D01*
G01X20398127Y-4531033D01*
G01X20403969Y-4536621D01*
G01X20409557Y-4548051D01*
G01X20409557Y-4559481D01*
G01X20403969Y-4570911D01*
G01X20398127Y-4576753D01*
G01X20381109Y-4582341D01*
G01X20329547Y-4582341D02*
G01X20381109Y-4582341D01*
G01X20398127Y-4588183D01*
G01X20403969Y-4593771D01*
G01X20409557Y-4605201D01*
G01X20409557Y-4622473D01*
G01X20403969Y-4633903D01*
G01X20398127Y-4639491D01*
G01X20381109Y-4645333D01*
G01X20329547Y-4645333D01*
G01X20486011Y-4565323D02*
G01X20474581Y-4570911D01*
G01X20463151Y-4582341D01*
G01X20457309Y-4599613D01*
G01X20457309Y-4611043D01*
G01X20463151Y-4628061D01*
G01X20474581Y-4639491D01*
G01X20486011Y-4645333D01*
G01X20503029Y-4645333D01*
G01X20514459Y-4639491D01*
G01X20525889Y-4628061D01*
G01X20531731Y-4611043D01*
G01X20531731Y-4599613D01*
G01X20525889Y-4582341D01*
G01X20514459Y-4570911D01*
G01X20503029Y-4565323D01*
G01X20486011Y-4565323D01*
G01X20596755Y-4525191D02*
G01X20596755Y-4622473D01*
G01X20602343Y-4639491D01*
G01X20613773Y-4645333D01*
G01X20625203Y-4645333D01*
G01X20579483Y-4565323D02*
G01X20619615Y-4565323D01*
G01X20690227Y-4525191D02*
G01X20690227Y-4622473D01*
G01X20695815Y-4639491D01*
G01X20707245Y-4645333D01*
G01X20718675Y-4645333D01*
G01X20672955Y-4565323D02*
G01X20713087Y-4565323D01*
G01X20795129Y-4565323D02*
G01X20783699Y-4570911D01*
G01X20772269Y-4582341D01*
G01X20766427Y-4599613D01*
G01X20766427Y-4611043D01*
G01X20772269Y-4628061D01*
G01X20783699Y-4639491D01*
G01X20795129Y-4645333D01*
G01X20812147Y-4645333D01*
G01X20823577Y-4639491D01*
G01X20835007Y-4628061D01*
G01X20840849Y-4611043D01*
G01X20840849Y-4599613D01*
G01X20835007Y-4582341D01*
G01X20823577Y-4570911D01*
G01X20812147Y-4565323D01*
G01X20795129Y-4565323D01*
G01X20888601Y-4565323D02*
G01X20888601Y-4645333D01*
G01X20888601Y-4588183D02*
G01X20905873Y-4570911D01*
G01X20917303Y-4565323D01*
G01X20934321Y-4565323D01*
G01X20945751Y-4570911D01*
G01X20951593Y-4588183D01*
G01X20951593Y-4645333D01*
G01X20951593Y-4588183D02*
G01X20968611Y-4570911D01*
G01X20980041Y-4565323D01*
G01X20997313Y-4565323D01*
G01X21008743Y-4570911D01*
G01X21014331Y-4588183D01*
G01X21014331Y-4645333D01*
G01X21190099Y-4525191D02*
G01X21190099Y-4645333D01*
G01X21190099Y-4645333D02*
G01X21258679Y-4645333D01*
G01X21375011Y-4565323D02*
G01X21375011Y-4645333D01*
G01X21375011Y-4582341D02*
G01X21363581Y-4570911D01*
G01X21352151Y-4565323D01*
G01X21335133Y-4565323D01*
G01X21323703Y-4570911D01*
G01X21312273Y-4582341D01*
G01X21306431Y-4599613D01*
G01X21306431Y-4611043D01*
G01X21312273Y-4628061D01*
G01X21323703Y-4639491D01*
G01X21335133Y-4645333D01*
G01X21352151Y-4645333D01*
G01X21363581Y-4639491D01*
G01X21375011Y-4628061D01*
G01X21428605Y-4565323D02*
G01X21462895Y-4645333D01*
G01X21497185Y-4565323D02*
G01X21462895Y-4645333D01*
G01X21451465Y-4668193D01*
G01X21440035Y-4679623D01*
G01X21428605Y-4685211D01*
G01X21422763Y-4685211D01*
G01X21544937Y-4599613D02*
G01X21613517Y-4599613D01*
G01X21613517Y-4588183D01*
G01X21607929Y-4576753D01*
G01X21602087Y-4570911D01*
G01X21590657Y-4565323D01*
G01X21573639Y-4565323D01*
G01X21562209Y-4570911D01*
G01X21550779Y-4582341D01*
G01X21544937Y-4599613D01*
G01X21544937Y-4611043D01*
G01X21550779Y-4628061D01*
G01X21562209Y-4639491D01*
G01X21573639Y-4645333D01*
G01X21590657Y-4645333D01*
G01X21602087Y-4639491D01*
G01X21613517Y-4628061D01*
G01X21661269Y-4565323D02*
G01X21661269Y-4645333D01*
G01X21661269Y-4599613D02*
G01X21667111Y-4582341D01*
G01X21678541Y-4570911D01*
G01X21689971Y-4565323D01*
G01X21706989Y-4565323D01*

G04 Image Start*
G36*
G01X6257563Y-4705804D02*
G01X6151949Y-4694323D01*
G01X6109074Y-4791529D01*
G01X6066199Y-4694323D01*
G01X5960586Y-4705804D01*
G01X6023349Y-4620079D01*
G01X5983627Y-4565824D01*
G01X6015120Y-4565824D01*
G01X6054820Y-4620079D01*
G01X6015120Y-4674333D01*
G01X6081947Y-4667069D01*
G01X6081947Y-4667069D01*
G01X6109074Y-4728562D01*
G01X6136201Y-4667069D01*
G01X6203029Y-4674333D01*
G01X6163329Y-4620079D01*
G01X6203003Y-4565850D01*
G01X6136176Y-4573114D01*
G01X6109074Y-4511595D01*
G01X6081947Y-4573089D01*
G01X6015120Y-4565824D01*
G01X5983627Y-4565824D01*
G01X5960586Y-4534354D01*
G01X6066224Y-4545834D01*
G01X6109074Y-4448629D01*
G01X6151949Y-4545834D01*
G01X6257563Y-4534354D01*
G01X6194799Y-4620079D01*
G01X6257563Y-4705804D01*
G37*
G36*
G01X6128569Y-3591499D02*
G01X6120829Y-3592087D01*
G01X6112986Y-3592286D01*
G01X6105143Y-3592087D01*
G01X6097402Y-3591499D01*
G01X6089775Y-3590530D01*
G01X6082270Y-3589190D01*
G01X6067664Y-3585435D01*
G01X6053662Y-3580310D01*
G01X6040340Y-3573893D01*
G01X6027774Y-3566260D01*
G01X6016042Y-3557487D01*
G01X6005220Y-3547652D01*
G01X5995384Y-3536829D01*
G01X5986611Y-3525097D01*
G01X5978978Y-3512532D01*
G01X5972561Y-3499210D01*
G01X5967437Y-3485208D01*
G01X5963682Y-3470602D01*
G01X5962342Y-3463096D01*
G01X5961372Y-3455469D01*
G01X5960784Y-3447729D01*
G01X5960586Y-3439886D01*
G01X5985986Y-3439886D01*
G01X5986643Y-3452852D01*
G01X5988570Y-3465448D01*
G01X5991705Y-3477610D01*
G01X5995982Y-3489272D01*
G01X6001337Y-3500372D01*
G01X6007705Y-3510843D01*
G01X6015023Y-3520623D01*
G01X6023225Y-3529646D01*
G01X6032249Y-3537849D01*
G01X6042028Y-3545166D01*
G01X6052500Y-3551535D01*
G01X6063599Y-3556890D01*
G01X6075262Y-3561166D01*
G01X6087423Y-3564301D01*
G01X6087423Y-3564301D01*
G01X6100019Y-3566229D01*
G01X6112986Y-3566886D01*
G01X6125952Y-3566229D01*
G01X6138548Y-3564301D01*
G01X6150710Y-3561166D01*
G01X6162372Y-3556890D01*
G01X6173472Y-3551535D01*
G01X6183943Y-3545166D01*
G01X6193723Y-3537849D01*
G01X6202746Y-3529646D01*
G01X6210949Y-3520623D01*
G01X6218266Y-3510843D01*
G01X6224635Y-3500372D01*
G01X6229990Y-3489272D01*
G01X6234266Y-3477610D01*
G01X6237401Y-3465448D01*
G01X6239329Y-3452852D01*
G01X6239986Y-3439886D01*
G01X6239329Y-3426919D01*
G01X6237401Y-3414323D01*
G01X6234266Y-3402162D01*
G01X6229990Y-3390499D01*
G01X6224635Y-3379400D01*
G01X6218266Y-3368928D01*
G01X6210949Y-3359149D01*
G01X6202746Y-3350125D01*
G01X6193723Y-3341923D01*
G01X6183943Y-3334605D01*
G01X6173472Y-3328237D01*
G01X6162372Y-3322882D01*
G01X6150710Y-3318605D01*
G01X6138548Y-3315471D01*
G01X6125952Y-3313543D01*
G01X6112986Y-3312886D01*
G01X6100019Y-3313543D01*
G01X6087423Y-3315471D01*
G01X6075262Y-3318605D01*
G01X6063599Y-3322882D01*
G01X6052500Y-3328237D01*
G01X6042028Y-3334605D01*
G01X6032249Y-3341923D01*
G01X6023225Y-3350125D01*
G01X6015023Y-3359149D01*
G01X6007705Y-3368928D01*
G01X6001337Y-3379400D01*
G01X5995982Y-3390499D01*
G01X5991705Y-3402162D01*
G01X5988570Y-3414323D01*
G01X5986643Y-3426919D01*
G01X5985986Y-3439886D01*
G01X5960586Y-3439886D01*
G01X5960784Y-3432043D01*
G01X5961372Y-3424302D01*
G01X5962342Y-3416675D01*
G01X5963682Y-3409170D01*
G01X5967437Y-3394564D01*
G01X5972561Y-3380562D01*
G01X5978978Y-3367240D01*
G01X5986611Y-3354674D01*
G01X5995384Y-3342942D01*
G01X6005220Y-3332120D01*
G01X6016042Y-3322284D01*
G01X6027774Y-3313511D01*
G01X6040340Y-3305878D01*
G01X6053662Y-3299461D01*
G01X6067664Y-3294337D01*
G01X6082270Y-3290582D01*
G01X6089775Y-3289242D01*
G01X6097402Y-3288272D01*
G01X6105143Y-3287684D01*
G01X6112986Y-3287486D01*
G01X6120829Y-3287684D01*
G01X6128569Y-3288272D01*
G01X6136196Y-3289242D01*
G01X6143702Y-3290582D01*
G01X6158308Y-3294337D01*
G01X6172310Y-3299461D01*
G01X6185632Y-3305878D01*
G01X6198197Y-3313511D01*
G01X6209929Y-3322284D01*
G01X6220752Y-3332120D01*
G01X6230587Y-3342942D01*
G01X6239360Y-3354674D01*
G01X6246993Y-3367240D01*
G01X6253410Y-3380562D01*
G01X6258535Y-3394564D01*
G01X6262290Y-3409170D01*
G01X6263630Y-3416675D01*
G01X6264599Y-3424302D01*
G01X6265187Y-3432043D01*
G01X6265386Y-3439886D01*
G01X6265187Y-3447729D01*
G01X6264599Y-3455469D01*
G01X6263630Y-3463096D01*
G01X6262290Y-3470602D01*
G01X6258535Y-3485208D01*
G01X6253410Y-3499210D01*
G01X6246993Y-3512532D01*
G01X6239360Y-3525097D01*
G01X6230587Y-3536829D01*
G01X6220752Y-3547652D01*
G01X6209929Y-3557487D01*
G01X6198197Y-3566260D01*
G01X6185632Y-3573893D01*
G01X6172310Y-3580310D01*
G01X6158308Y-3585435D01*
G01X6143702Y-3589190D01*
G01X6136196Y-3590530D01*
G01X6128569Y-3591499D01*
G37*
G36*
G01X5960586Y-3868057D02*
G01X6265386Y-3868057D01*
G01X6112986Y-4132014D01*
G01X5975251Y-3893457D01*
G01X6004579Y-3893457D01*
G01X6112986Y-4081214D01*
G01X6221393Y-3893457D01*
G01X6221393Y-3893457D01*
G01X6004579Y-3893457D01*
G01X5975251Y-3893457D01*
G01X5960586Y-3868057D01*
G37*
G36*
G01X5960586Y-2706914D02*
G01X6239986Y-2706914D01*
G01X6239986Y-2986314D01*
G01X5960586Y-2986314D01*
G01X5960586Y-2732314D01*
G01X5985986Y-2732314D01*
G01X5985986Y-2960914D01*
G01X6214586Y-2960914D01*
G01X6214586Y-2732314D01*
G01X6214586Y-2732314D01*
G01X5985986Y-2732314D01*
G01X5960586Y-2732314D01*
G01X5960586Y-2706914D01*
G37*

G04 PolygonModel Start*
G54D15*
G01X5670300Y-4884057D02*
G01X22297721Y-4884057D01*
G01X5670300Y-4303486D02*
G01X22297721Y-4303486D01*
G01X5670300Y-3722914D02*
G01X22297721Y-3722914D01*
G01X5670300Y-3142343D02*
G01X22297721Y-3142343D01*
G01X5670300Y-2561771D02*
G01X22297721Y-2561771D01*
G01X5670300Y-1981200D02*
G01X22297721Y-1981200D01*
G01X5670300Y-1981200D02*
G01X5670300Y-4858657D01*
G01X7121729Y-1981200D02*
G01X7121729Y-4858657D01*
G01X8535892Y-1981200D02*
G01X8535892Y-4858657D01*
G01X12338417Y-1981200D02*
G01X12338417Y-4858657D01*
G01X13799824Y-1981200D02*
G01X13799824Y-4858657D01*
G01X15231005Y-1981200D02*
G01X15231005Y-4858657D01*
G01X16900184Y-1981200D02*
G01X16900184Y-4858657D01*
G01X18819553Y-1981200D02*
G01X18819553Y-4858657D01*
G01X22297721Y-1981200D02*
G01X22297721Y-4858657D01*

M02*

