G04 Layer: TopSilkscreenLayer*
G04 EasyEDA Pro v3.2.148, 2026-07-10 19:43:19*
G04 Gerber Generator version 0.3*
G04 Scale: 100 percent, Rotated: No, Reflected: No*
G04 Dimensions in millimeters*
G04 Leading zeros omitted, absolute positions, 4 integers and 5 decimals*
G04 Generated by one-click*
G04 Object Configs: Pad,Via,Track,Text,Image,Dimension,BoardOutline,BoardCutout,CopperFilled,SolidRegion,FPCStiffener,Line,PlaneZone,ComponentProperty,ComponentSilkscreen,TearDrop*
G04 Layer Configs: 1,15,16,2,3,4,5,6,7,8,9,10,11,13,14,56*
G04 Copper Areas: 0*
%FSLAX45Y45*%
%MOMM*%
%ADD10C,0.203*%
%ADD11C,0.1524*%
%ADD12C,0.254*%
%ADD13C,0.9270*%
G75*


G04 Text Start*
G54D10*
G01X962660Y-2663522D02*
G01X962660Y-2771472D01*
G01X962660Y-2663522D02*
G01X1029462Y-2663522D01*
G01X962660Y-2714830D02*
G01X1003808Y-2714830D01*
G01X962660Y-2771472D02*
G01X1029462Y-2771472D01*
G01X1146556Y-2678762D02*
G01X1136142Y-2668602D01*
G01X1120902Y-2663522D01*
G01X1100328Y-2663522D01*
G01X1084834Y-2668602D01*
G01X1074420Y-2678762D01*
G01X1074420Y-2689176D01*
G01X1079500Y-2699590D01*
G01X1084834Y-2704670D01*
G01X1094994Y-2709750D01*
G01X1125982Y-2720164D01*
G01X1136142Y-2725244D01*
G01X1141476Y-2730324D01*
G01X1146556Y-2740738D01*
G01X1146556Y-2755978D01*
G01X1136142Y-2766392D01*
G01X1120902Y-2771472D01*
G01X1100328Y-2771472D01*
G01X1084834Y-2766392D01*
G01X1074420Y-2755978D01*
G01X1191514Y-2663522D02*
G01X1191514Y-2771472D01*
G01X1191514Y-2663522D02*
G01X1237996Y-2663522D01*
G01X1253236Y-2668602D01*
G01X1258570Y-2673682D01*
G01X1263650Y-2684096D01*
G01X1263650Y-2699590D01*
G01X1258570Y-2709750D01*
G01X1253236Y-2714830D01*
G01X1237996Y-2720164D01*
G01X1191514Y-2720164D01*
G01X1319022Y-2663522D02*
G01X1375664Y-2663522D01*
G01X1344676Y-2704670D01*
G01X1360170Y-2704670D01*
G01X1370330Y-2709750D01*
G01X1375664Y-2714830D01*
G01X1380744Y-2730324D01*
G01X1380744Y-2740738D01*
G01X1375664Y-2755978D01*
G01X1365250Y-2766392D01*
G01X1349756Y-2771472D01*
G01X1334516Y-2771472D01*
G01X1319022Y-2766392D01*
G01X1313688Y-2761312D01*
G01X1308608Y-2750898D01*
G01X1430782Y-2689176D02*
G01X1430782Y-2684096D01*
G01X1436116Y-2673682D01*
G01X1441196Y-2668602D01*
G01X1451610Y-2663522D01*
G01X1472184Y-2663522D01*
G01X1482344Y-2668602D01*
G01X1487424Y-2673682D01*
G01X1492758Y-2684096D01*
G01X1492758Y-2694256D01*
G01X1487424Y-2704670D01*
G01X1477264Y-2720164D01*
G01X1425702Y-2771472D01*
G01X1497838Y-2771472D01*
G01X1542796Y-2725244D02*
G01X1635506Y-2725244D01*
G01X1757680Y-2689176D02*
G01X1752600Y-2678762D01*
G01X1742186Y-2668602D01*
G01X1732026Y-2663522D01*
G01X1711452Y-2663522D01*
G01X1701038Y-2668602D01*
G01X1690878Y-2678762D01*
G01X1685544Y-2689176D01*
G01X1680464Y-2704670D01*
G01X1680464Y-2730324D01*
G01X1685544Y-2745818D01*
G01X1690878Y-2755978D01*
G01X1701038Y-2766392D01*
G01X1711452Y-2771472D01*
G01X1732026Y-2771472D01*
G01X1742186Y-2766392D01*
G01X1752600Y-2755978D01*
G01X1757680Y-2745818D01*
G01X1813052Y-2663522D02*
G01X1869694Y-2663522D01*
G01X1838706Y-2704670D01*
G01X1854200Y-2704670D01*
G01X1864360Y-2709750D01*
G01X1869694Y-2714830D01*
G01X1874774Y-2730324D01*
G01X1874774Y-2740738D01*
G01X1869694Y-2755978D01*
G01X1859280Y-2766392D01*
G01X1843786Y-2771472D01*
G01X1828546Y-2771472D01*
G01X1813052Y-2766392D01*
G01X1807718Y-2761312D01*
G01X1802638Y-2750898D01*
G01X2107184Y-2678762D02*
G01X2096770Y-2668602D01*
G01X2081276Y-2663522D01*
G01X2060702Y-2663522D01*
G01X2045462Y-2668602D01*
G01X2035048Y-2678762D01*
G01X2035048Y-2689176D01*
G01X2040128Y-2699590D01*
G01X2045462Y-2704670D01*
G01X2055622Y-2709750D01*
G01X2086610Y-2720164D01*
G01X2096770Y-2725244D01*
G01X2102104Y-2730324D01*
G01X2107184Y-2740738D01*
G01X2107184Y-2755978D01*
G01X2096770Y-2766392D01*
G01X2081276Y-2771472D01*
G01X2060702Y-2771472D01*
G01X2045462Y-2766392D01*
G01X2035048Y-2755978D01*
G01X2152142Y-2699590D02*
G01X2152142Y-2750898D01*
G01X2157222Y-2766392D01*
G01X2167636Y-2771472D01*
G01X2183130Y-2771472D01*
G01X2193290Y-2766392D01*
G01X2208784Y-2750898D01*
G01X2208784Y-2699590D02*
G01X2208784Y-2771472D01*
G01X2253742Y-2699590D02*
G01X2253742Y-2807540D01*
G01X2253742Y-2714830D02*
G01X2264156Y-2704670D01*
G01X2274316Y-2699590D01*
G01X2289810Y-2699590D01*
G01X2300224Y-2704670D01*
G01X2310384Y-2714830D01*
G01X2315464Y-2730324D01*
G01X2315464Y-2740738D01*
G01X2310384Y-2755978D01*
G01X2300224Y-2766392D01*
G01X2289810Y-2771472D01*
G01X2274316Y-2771472D01*
G01X2264156Y-2766392D01*
G01X2253742Y-2755978D01*
G01X2360422Y-2730324D02*
G01X2422144Y-2730324D01*
G01X2422144Y-2720164D01*
G01X2417064Y-2709750D01*
G01X2411984Y-2704670D01*
G01X2401570Y-2699590D01*
G01X2386330Y-2699590D01*
G01X2375916Y-2704670D01*
G01X2365502Y-2714830D01*
G01X2360422Y-2730324D01*
G01X2360422Y-2740738D01*
G01X2365502Y-2755978D01*
G01X2375916Y-2766392D01*
G01X2386330Y-2771472D01*
G01X2401570Y-2771472D01*
G01X2411984Y-2766392D01*
G01X2422144Y-2755978D01*
G01X2467102Y-2699590D02*
G01X2467102Y-2771472D01*
G01X2467102Y-2730324D02*
G01X2472182Y-2714830D01*
G01X2482596Y-2704670D01*
G01X2493010Y-2699590D01*
G01X2508250Y-2699590D01*
G01X2668524Y-2663522D02*
G01X2668524Y-2771472D01*
G01X2668524Y-2663522D02*
G01X2709672Y-2771472D01*
G01X2750820Y-2663522D02*
G01X2709672Y-2771472D01*
G01X2750820Y-2663522D02*
G01X2750820Y-2771472D01*
G01X2795778Y-2663522D02*
G01X2800858Y-2668602D01*
G01X2806192Y-2663522D01*
G01X2800858Y-2658188D01*
G01X2795778Y-2663522D01*
G01X2800858Y-2699590D02*
G01X2800858Y-2771472D01*
G01X2851150Y-2699590D02*
G01X2851150Y-2771472D01*
G01X2851150Y-2720164D02*
G01X2866644Y-2704670D01*
G01X2877058Y-2699590D01*
G01X2892298Y-2699590D01*
G01X2902712Y-2704670D01*
G01X2907792Y-2720164D01*
G01X2907792Y-2771472D01*
G01X2952750Y-2663522D02*
G01X2957830Y-2668602D01*
G01X2963164Y-2663522D01*
G01X2957830Y-2658188D01*
G01X2952750Y-2663522D01*
G01X2957830Y-2699590D02*
G01X2957830Y-2771472D01*
G01X962660Y-2848434D02*
G01X962660Y-2956638D01*
G01X962660Y-2848434D02*
G01X1008888Y-2848434D01*
G01X1024382Y-2853514D01*
G01X1029462Y-2858848D01*
G01X1034796Y-2869008D01*
G01X1034796Y-2884502D01*
G01X1029462Y-2894662D01*
G01X1024382Y-2899996D01*
G01X1008888Y-2905076D01*
G01X962660Y-2905076D01*
G01X1079754Y-2848434D02*
G01X1079754Y-2956638D01*
G01X1079754Y-2848434D02*
G01X1120902Y-2956638D01*
G01X1162050Y-2848434D02*
G01X1120902Y-2956638D01*
G01X1162050Y-2848434D02*
G01X1162050Y-2956638D01*
G01X1237996Y-2848434D02*
G01X1227582Y-2853514D01*
G01X1217422Y-2863928D01*
G01X1212088Y-2874088D01*
G01X1207008Y-2889582D01*
G01X1207008Y-2915236D01*
G01X1212088Y-2930730D01*
G01X1217422Y-2941144D01*
G01X1227582Y-2951304D01*
G01X1237996Y-2956638D01*
G01X1258570Y-2956638D01*
G01X1268730Y-2951304D01*
G01X1279144Y-2941144D01*
G01X1284224Y-2930730D01*
G01X1289304Y-2915236D01*
G01X1289304Y-2889582D01*
G01X1284224Y-2874088D01*
G01X1279144Y-2863928D01*
G01X1268730Y-2853514D01*
G01X1258570Y-2848434D01*
G01X1237996Y-2848434D01*
G01X1334262Y-2848434D02*
G01X1334262Y-2956638D01*
G01X1334262Y-2848434D02*
G01X1370330Y-2848434D01*
G01X1385824Y-2853514D01*
G01X1395984Y-2863928D01*
G01X1401318Y-2874088D01*
G01X1406398Y-2889582D01*
G01X1406398Y-2915236D01*
G01X1401318Y-2930730D01*
G01X1395984Y-2941144D01*
G01X1385824Y-2951304D01*
G01X1370330Y-2956638D01*
G01X1334262Y-2956638D01*
G01X1607820Y-2848434D02*
G01X1566672Y-2956638D01*
G01X1607820Y-2848434D02*
G01X1648968Y-2956638D01*
G01X1582166Y-2920570D02*
G01X1633728Y-2920570D01*
G01X1755648Y-2848434D02*
G01X1755648Y-2956638D01*
G01X1755648Y-2899996D02*
G01X1745488Y-2889582D01*
G01X1735074Y-2884502D01*
G01X1719834Y-2884502D01*
G01X1709420Y-2889582D01*
G01X1699006Y-2899996D01*
G01X1693926Y-2915236D01*
G01X1693926Y-2925650D01*
G01X1699006Y-2941144D01*
G01X1709420Y-2951304D01*
G01X1719834Y-2956638D01*
G01X1735074Y-2956638D01*
G01X1745488Y-2951304D01*
G01X1755648Y-2941144D01*
G01X1862328Y-2884502D02*
G01X1862328Y-2956638D01*
G01X1862328Y-2899996D02*
G01X1852168Y-2889582D01*
G01X1841754Y-2884502D01*
G01X1826514Y-2884502D01*
G01X1816100Y-2889582D01*
G01X1805686Y-2899996D01*
G01X1800606Y-2915236D01*
G01X1800606Y-2925650D01*
G01X1805686Y-2941144D01*
G01X1816100Y-2951304D01*
G01X1826514Y-2956638D01*
G01X1841754Y-2956638D01*
G01X1852168Y-2951304D01*
G01X1862328Y-2941144D01*
G01X1907286Y-2884502D02*
G01X1907286Y-2992452D01*
G01X1907286Y-2899996D02*
G01X1917700Y-2889582D01*
G01X1927860Y-2884502D01*
G01X1943354Y-2884502D01*
G01X1953768Y-2889582D01*
G01X1963928Y-2899996D01*
G01X1969008Y-2915236D01*
G01X1969008Y-2925650D01*
G01X1963928Y-2941144D01*
G01X1953768Y-2951304D01*
G01X1943354Y-2956638D01*
G01X1927860Y-2956638D01*
G01X1917700Y-2951304D01*
G01X1907286Y-2941144D01*
G01X2029460Y-2848434D02*
G01X2029460Y-2935810D01*
G01X2034540Y-2951304D01*
G01X2044954Y-2956638D01*
G01X2055114Y-2956638D01*
G01X2013966Y-2884502D02*
G01X2050034Y-2884502D01*
G01X2100072Y-2915236D02*
G01X2161794Y-2915236D01*
G01X2161794Y-2905076D01*
G01X2156714Y-2894662D01*
G01X2151634Y-2889582D01*
G01X2141220Y-2884502D01*
G01X2125980Y-2884502D01*
G01X2115566Y-2889582D01*
G01X2105152Y-2899996D01*
G01X2100072Y-2915236D01*
G01X2100072Y-2925650D01*
G01X2105152Y-2941144D01*
G01X2115566Y-2951304D01*
G01X2125980Y-2956638D01*
G01X2141220Y-2956638D01*
G01X2151634Y-2951304D01*
G01X2161794Y-2941144D01*
G01X2206752Y-2884502D02*
G01X2206752Y-2956638D01*
G01X2206752Y-2915236D02*
G01X2211832Y-2899996D01*
G01X2222246Y-2889582D01*
G01X2232660Y-2884502D01*
G01X2247900Y-2884502D01*
G01X962660Y-3033346D02*
G01X962660Y-3141550D01*
G01X962660Y-3033346D02*
G01X1008888Y-3033346D01*
G01X1024382Y-3038680D01*
G01X1029462Y-3043760D01*
G01X1034796Y-3053920D01*
G01X1034796Y-3064334D01*
G01X1029462Y-3074494D01*
G01X1024382Y-3079828D01*
G01X1008888Y-3084908D01*
G01X962660Y-3084908D01*
G01X998728Y-3084908D02*
G01X1034796Y-3141550D01*
G01X1079754Y-3100402D02*
G01X1141476Y-3100402D01*
G01X1141476Y-3089988D01*
G01X1136396Y-3079828D01*
G01X1131316Y-3074494D01*
G01X1120902Y-3069414D01*
G01X1105662Y-3069414D01*
G01X1095248Y-3074494D01*
G01X1084834Y-3084908D01*
G01X1079754Y-3100402D01*
G01X1079754Y-3110562D01*
G01X1084834Y-3126056D01*
G01X1095248Y-3136470D01*
G01X1105662Y-3141550D01*
G01X1120902Y-3141550D01*
G01X1131316Y-3136470D01*
G01X1141476Y-3126056D01*
G01X1186434Y-3069414D02*
G01X1217422Y-3141550D01*
G01X1248156Y-3069414D02*
G01X1217422Y-3141550D01*
G01X1439418Y-3033346D02*
G01X1423924Y-3038680D01*
G01X1413510Y-3053920D01*
G01X1408430Y-3079828D01*
G01X1408430Y-3095322D01*
G01X1413510Y-3120976D01*
G01X1423924Y-3136470D01*
G01X1439418Y-3141550D01*
G01X1449578Y-3141550D01*
G01X1465072Y-3136470D01*
G01X1475486Y-3120976D01*
G01X1480566Y-3095322D01*
G01X1480566Y-3079828D01*
G01X1475486Y-3053920D01*
G01X1465072Y-3038680D01*
G01X1449578Y-3033346D01*
G01X1439418Y-3033346D01*
G01X1556512Y-3033346D02*
G01X1541018Y-3038680D01*
G01X1530604Y-3053920D01*
G01X1525524Y-3079828D01*
G01X1525524Y-3095322D01*
G01X1530604Y-3120976D01*
G01X1541018Y-3136470D01*
G01X1556512Y-3141550D01*
G01X1566672Y-3141550D01*
G01X1582166Y-3136470D01*
G01X1592580Y-3120976D01*
G01X1597660Y-3095322D01*
G01X1597660Y-3079828D01*
G01X1592580Y-3053920D01*
G01X1582166Y-3038680D01*
G01X1566672Y-3033346D01*
G01X1556512Y-3033346D01*
G01X1642618Y-3053920D02*
G01X1653032Y-3048840D01*
G01X1668526Y-3033346D01*
G01X1668526Y-3141550D01*
G01X3218947Y-2260346D02*
G01X3192785Y-2329180D01*
G01X3218947Y-2260346D02*
G01X3245109Y-2329180D01*
G01X3202691Y-2306320D02*
G01X3235203Y-2306320D01*
G01X3287781Y-2260346D02*
G01X3323595Y-2260346D01*
G01X3304037Y-2286508D01*
G01X3313943Y-2286508D01*
G01X3320293Y-2289810D01*
G01X3323595Y-2293112D01*
G01X3326897Y-2303018D01*
G01X3326897Y-2309622D01*
G01X3323595Y-2319274D01*
G01X3316991Y-2325878D01*
G01X3307339Y-2329180D01*
G01X3297433Y-2329180D01*
G01X3287781Y-2325878D01*
G01X3284479Y-2322576D01*
G01X3281177Y-2315972D01*
G01X3287781Y-2518156D02*
G01X3287781Y-2514854D01*
G01X3291083Y-2508250D01*
G01X3294385Y-2504948D01*
G01X3300735Y-2501646D01*
G01X3313943Y-2501646D01*
G01X3320547Y-2504948D01*
G01X3323849Y-2508250D01*
G01X3326897Y-2514854D01*
G01X3326897Y-2521458D01*
G01X3323849Y-2527808D01*
G01X3317245Y-2537714D01*
G01X3284479Y-2570480D01*
G01X3330199Y-2570480D01*
G01X3297179Y-2767854D02*
G01X3303783Y-2764552D01*
G01X3313435Y-2754646D01*
G01X3313435Y-2823480D01*
G01X3308101Y-3021346D02*
G01X3298449Y-3024648D01*
G01X3291845Y-3034554D01*
G01X3288543Y-3050810D01*
G01X3288543Y-3060716D01*
G01X3291845Y-3076972D01*
G01X3298449Y-3086878D01*
G01X3308101Y-3090180D01*
G01X3314705Y-3090180D01*
G01X3324611Y-3086878D01*
G01X3330961Y-3076972D01*
G01X3334263Y-3060716D01*
G01X3334263Y-3050810D01*
G01X3330961Y-3034554D01*
G01X3324611Y-3024648D01*
G01X3314705Y-3021346D01*
G01X3308101Y-3021346D01*
G01X3330199Y-3279156D02*
G01X3326897Y-3272552D01*
G01X3320547Y-3265948D01*
G01X3313943Y-3262646D01*
G01X3300735Y-3262646D01*
G01X3294131Y-3265948D01*
G01X3287781Y-3272552D01*
G01X3284479Y-3279156D01*
G01X3281177Y-3288808D01*
G01X3281177Y-3305318D01*
G01X3284479Y-3314970D01*
G01X3287781Y-3321574D01*
G01X3294131Y-3328178D01*
G01X3300735Y-3331480D01*
G01X3313943Y-3331480D01*
G01X3320547Y-3328178D01*
G01X3326897Y-3321574D01*
G01X3330199Y-3314970D01*
G01X3330199Y-3305318D01*
G01X3313943Y-3305318D02*
G01X3330199Y-3305318D01*
G01X3277875Y-3529346D02*
G01X3304037Y-3598180D01*
G01X3330199Y-3529346D02*
G01X3304037Y-3598180D01*
G01X3374649Y-2030746D02*
G01X3374649Y-2099580D01*
G01X3374649Y-2030746D02*
G01X3404113Y-2030746D01*
G01X3414019Y-2034048D01*
G01X3417067Y-2037350D01*
G01X3420369Y-2043954D01*
G01X3420369Y-2053860D01*
G01X3417067Y-2060210D01*
G01X3414019Y-2063512D01*
G01X3404113Y-2066814D01*
G01X3374649Y-2066814D01*
G01X3456437Y-2043954D02*
G01X3463041Y-2040652D01*
G01X3472693Y-2030746D01*
G01X3472693Y-2099580D01*
G01X3528319Y-2030746D02*
G01X3518413Y-2034048D01*
G01X3512063Y-2043954D01*
G01X3508761Y-2060210D01*
G01X3508761Y-2070116D01*
G01X3512063Y-2086372D01*
G01X3518413Y-2096278D01*
G01X3528319Y-2099580D01*
G01X3534923Y-2099580D01*
G01X3544575Y-2096278D01*
G01X3551179Y-2086372D01*
G01X3554481Y-2070116D01*
G01X3554481Y-2060210D01*
G01X3551179Y-2043954D01*
G01X3544575Y-2034048D01*
G01X3534923Y-2030746D01*
G01X3528319Y-2030746D01*
G01X3042158Y-3050540D02*
G01X3114802Y-3050540D01*
G01X3129280Y-3045714D01*
G01X3138932Y-3036062D01*
G01X3143758Y-3021584D01*
G01X3143758Y-3011932D01*
G01X3138932Y-2997454D01*
G01X3129280Y-2987802D01*
G01X3114802Y-2982976D01*
G01X3042158Y-2982976D01*
G01X3056636Y-2871724D02*
G01X3046984Y-2881376D01*
G01X3042158Y-2895854D01*
G01X3042158Y-2915412D01*
G01X3046984Y-2929890D01*
G01X3056636Y-2939542D01*
G01X3066288Y-2939542D01*
G01X3075940Y-2934716D01*
G01X3080766Y-2929890D01*
G01X3085592Y-2920238D01*
G01X3095244Y-2891028D01*
G01X3100324Y-2881376D01*
G01X3105150Y-2876550D01*
G01X3114802Y-2871724D01*
G01X3129280Y-2871724D01*
G01X3138932Y-2881376D01*
G01X3143758Y-2895854D01*
G01X3143758Y-2915412D01*
G01X3138932Y-2929890D01*
G01X3129280Y-2939542D01*
G01X3042158Y-2828290D02*
G01X3143758Y-2828290D01*
G01X3042158Y-2828290D02*
G01X3042158Y-2784602D01*
G01X3046984Y-2770124D01*
G01X3051810Y-2765298D01*
G01X3061462Y-2760472D01*
G01X3071114Y-2760472D01*
G01X3080766Y-2765298D01*
G01X3085592Y-2770124D01*
G01X3090418Y-2784602D01*
G01X3090418Y-2828290D02*
G01X3090418Y-2784602D01*
G01X3095244Y-2770124D01*
G01X3100324Y-2765298D01*
G01X3109976Y-2760472D01*
G01X3124454Y-2760472D01*
G01X3134106Y-2765298D01*
G01X3138932Y-2770124D01*
G01X3143758Y-2784602D01*
G01X3143758Y-2828290D01*
G54D11*
G01X3436112Y-3728466D02*
G01X3411220Y-3793490D01*
G01X3436112Y-3728466D02*
G01X3460750Y-3793490D01*
G01X3420618Y-3771646D02*
G01X3451352Y-3771646D01*
G01X3490976Y-3728466D02*
G01X3490976Y-3774948D01*
G01X3494024Y-3784092D01*
G01X3500120Y-3790442D01*
G01X3509518Y-3793490D01*
G01X3515614Y-3793490D01*
G01X3525012Y-3790442D01*
G01X3531108Y-3784092D01*
G01X3534156Y-3774948D01*
G01X3534156Y-3728466D01*
G01X3564382Y-3728466D02*
G01X3607562Y-3793490D01*
G01X3607562Y-3728466D02*
G01X3564382Y-3793490D01*
G04 Text End*

G04 PolygonModel Start*
G01X729562Y-3325581D02*
G01X581063Y-3325581D01*
G01X581063Y-3544103D02*
G01X729562Y-3544103D01*
G01X744802Y-3528863D02*
G01X744802Y-3340821D01*
G01X247322Y-3325581D02*
G01X395821Y-3325581D01*
G01X395821Y-3544103D02*
G01X247322Y-3544103D01*
G01X232082Y-3528863D02*
G01X232082Y-3340821D01*
G01X729562Y-3544103D02*
G03X744802Y-3528863I0J15240D01*
G01X744802Y-3340821D02*
G03X729562Y-3325581I-15240J0D01*
G01X247322Y-3544103D02*
G02X232082Y-3528863I0J15240D01*
G01X232082Y-3340821D02*
G02X247322Y-3325581I15240J0D01*
G01X371958Y-2965491D02*
G01X235966Y-2965491D01*
G01X235966Y-2965491D02*
G01X235966Y-3181309D01*
G01X235966Y-3181309D02*
G01X371958Y-3181309D01*
G01X562199Y-2965491D02*
G01X698190Y-2965491D01*
G01X698190Y-2965491D02*
G01X698190Y-3181309D01*
G01X698190Y-3181309D02*
G01X562199Y-3181309D01*
G01X371958Y-2711491D02*
G01X235966Y-2711491D01*
G01X235966Y-2711491D02*
G01X235966Y-2927309D01*
G01X235966Y-2927309D02*
G01X371958Y-2927309D01*
G01X562199Y-2711491D02*
G01X698190Y-2711491D01*
G01X698190Y-2711491D02*
G01X698190Y-2927309D01*
G01X698190Y-2927309D02*
G01X562199Y-2927309D01*
G54D12*
G01X3380202Y-2159003D02*
G01X3380202Y-3682997D01*
G01X3630198Y-3682997D02*
G01X3630198Y-2159003D01*
G01X3380202Y-2159003D02*
G01X3630198Y-2159003D01*
G01X3380202Y-3682997D02*
G01X3630198Y-3682997D01*
G01X3380100Y-3428997D02*
G01X3630198Y-3428997D01*
G54D11*
G01X371958Y-2448398D02*
G01X235966Y-2448398D01*
G01X235966Y-2448398D02*
G01X235966Y-2664217D01*
G01X235966Y-2664217D02*
G01X371958Y-2664217D01*
G01X562199Y-2448398D02*
G01X698190Y-2448398D01*
G01X698190Y-2448398D02*
G01X698190Y-2664217D01*
G01X698190Y-2664217D02*
G01X562199Y-2664217D01*
G01X371958Y-2183357D02*
G01X235966Y-2183357D01*
G01X235966Y-2183357D02*
G01X235966Y-2399176D01*
G01X235966Y-2399176D02*
G01X371958Y-2399176D01*
G01X562199Y-2183357D02*
G01X698190Y-2183357D01*
G01X698190Y-2183357D02*
G01X698190Y-2399176D01*
G01X698190Y-2399176D02*
G01X562199Y-2399176D01*
G54D12*
G01X3066009Y-2458314D02*
G01X3196006Y-2458314D01*
G01X3196006Y-2458314D02*
G01X3196006Y-3358286D01*
G01X3196006Y-3358286D02*
G01X3066009Y-3358286D01*
G01X3066009Y-3358286D02*
G01X3066009Y-3808298D01*
G01X3066009Y-3808298D02*
G01X796011Y-3808298D01*
G01X796011Y-3808298D02*
G01X796011Y-2008302D01*
G01X796011Y-2008302D02*
G01X3066009Y-2008302D01*
G01X3066009Y-2008302D02*
G01X3066009Y-2458314D01*

M02*

