G04 Layer: TopLayer*
G04 EasyEDA Pro v3.2.148, 2026-07-10 19:43:19*
G04 Gerber Generator version 0.3*
G04 Scale: 100 percent, Rotated: No, Reflected: No*
G04 Dimensions in millimeters*
G04 Leading zeros omitted, absolute positions, 4 integers and 5 decimals*
G04 Generated by one-click*
G04 Object Configs: Pad,Via,Track,Text,Image,Dimension,BoardOutline,BoardCutout,CopperFilled,SolidRegion,FPCStiffener,Line,PlaneZone,ComponentProperty,ComponentSilkscreen,TearDrop*
G04 Layer Configs: 1,15,16,2,3,4,5,6,7,8,9,10,11,13,14,56*
G04 Copper Areas: 0*
%FSLAX45Y45*%
%MOMM*%
%ADD10R,7.2X1.8*%
%ADD11R,2.0X1.85*%
%ADD12R,1.48501X1.72799*%
%ADD13R,1.20752X1.70101*%
%ADD14C,1.8*%
%ADD15R,1.8X1.8*%
%ADD16C,1.34798*%
%ADD17R,1.3564X1.34798*%
%ADD18R,1.34798X1.34798*%
%ADD19C,0.61*%
%ADD20C,0.254*%
G75*


G04 Pad Start*
G54D10*
G01X-215900Y-3581400D03*
G01X-215900Y-3327400D03*
G01X-215900Y-3073400D03*
G01X-215900Y-2819400D03*
G01X-215900Y-2560836D03*
G01X-215900Y-2311400D03*
G54D11*
G01X3238500Y-2120900D03*
G54D12*
G01X647700Y-3434842D03*
G01X329184Y-3434842D03*
G54D13*
G01X319199Y-3073400D03*
G01X614957Y-3073400D03*
G01X319199Y-2819400D03*
G01X614957Y-2819400D03*
G54D14*
G01X3505200Y-2286000D03*
G01X3505200Y-2540000D03*
G01X3505200Y-2794000D03*
G01X3505200Y-3048000D03*
G54D15*
G01X3505200Y-3302000D03*
G54D14*
G01X3505200Y-3556000D03*
G54D13*
G01X319199Y-2556308D03*
G01X614957Y-2556308D03*
G01X319199Y-2291266D03*
G01X614957Y-2291266D03*
G54D16*
G01X2921000Y-2146300D03*
G01X2667000Y-2146300D03*
G01X2413000Y-2146300D03*
G01X2159003Y-2146300D03*
G01X1905003Y-2146300D03*
G01X1651003Y-2146300D03*
G01X1397003Y-2146300D03*
G01X1143003Y-2146300D03*
G01X1143000Y-3670300D03*
G01X1397000Y-3670300D03*
G01X1650997Y-3670300D03*
G01X1904997Y-3670300D03*
G01X2158997Y-3670300D03*
G01X2412997Y-3670300D03*
G54D18*
G01X2666997Y-3670300D03*
G54D16*
G01X2920997Y-3670300D03*
G04 Pad End*

G04 Via Start*
G54D19*
G01X88900Y-3289300D03*
G01X88900Y-3352800D03*
G01X25400Y-3289300D03*
G01X25400Y-3352800D03*
G01X-38100Y-3289300D03*
G01X-38100Y-3352800D03*
G01X-101600Y-3289300D03*
G01X-101600Y-3352800D03*
G01X-107950Y-3549650D03*
G01X-107950Y-3613150D03*
G01X-44450Y-3613150D03*
G01X-44450Y-3549650D03*
G01X19050Y-3549650D03*
G01X82550Y-3549650D03*
G01X82550Y-3613150D03*
G01X19050Y-3613150D03*
G01X679450Y-3466592D03*
G01X615950Y-3466592D03*
G01X615950Y-3403092D03*
G01X679450Y-3403092D03*
G01X297434Y-3403092D03*
G01X360934Y-3403092D03*
G01X360934Y-3466592D03*
G01X297434Y-3466592D03*
G01X3168650Y-3556508D03*
G01X3232150Y-3556508D03*
G01X3232150Y-3620008D03*
G01X3168650Y-3620008D03*
G01X3168650Y-3237992D03*
G01X3232150Y-3237992D03*
G01X3232150Y-3301492D03*
G01X3168650Y-3301492D03*
G01X2785962Y-2332138D03*
G01X2849462Y-2332138D03*
G01X2785962Y-2395638D03*
G01X2849462Y-2395638D03*
G01X2560738Y-2557362D03*
G01X2560738Y-2620862D03*
G01X2624238Y-2620862D03*
G01X2624238Y-2557362D03*
G04 Via End*

G04 Track Start*
G54D20*
G01X-215900Y-3073400D02*
G01X319199Y-3073400D01*
G01X-215900Y-2819400D02*
G01X319199Y-2819400D01*
G01X-215900Y-2560836D02*
G01X314671Y-2560836D01*
G01X319199Y-2556308D01*
G01X-215900Y-2311400D02*
G01X299066Y-2311400D01*
G01X319199Y-2291266D01*
G01X614957Y-2291266D02*
G01X2280734Y-2291266D01*
G01X2413000Y-2159000D01*
G01X614957Y-2556308D02*
G01X2269692Y-2556308D01*
G01X2667000Y-2159000D01*
G01X2158997Y-3632197D02*
G01X2158997Y-3683000D01*
G01X1651003Y-2146300D02*
G01X1714500Y-2146300D01*
G01X1824200Y-2036600D01*
G01X3001800Y-2036600D01*
G01X3060700Y-2095500D01*
G01X3149600Y-2095500D01*
G01X3187700Y-2133600D01*
G01X614957Y-3073400D02*
G01X1600200Y-3073400D01*
G01X2158997Y-3632197D01*
G01X614957Y-2819400D02*
G01X2171700Y-2819400D01*
G01X2832100Y-2159000D01*
G01X2921000Y-2159000D01*
G04 Track End*

M02*

