G04 Layer: InnerLayer2*
G04 EasyEDA Pro v3.2.148, 2026-07-10 19:43:19*
G04 Gerber Generator version 0.3*
G04 Scale: 100 percent, Rotated: No, Reflected: No*
G04 Dimensions in millimeters*
G04 Leading zeros omitted, absolute positions, 4 integers and 5 decimals*
G04 Generated by one-click*
G04 Object Configs: Pad,Via,Track,Text,Image,Dimension,BoardOutline,BoardCutout,CopperFilled,SolidRegion,FPCStiffener,Line,PlaneZone,ComponentProperty,ComponentSilkscreen,TearDrop*
G04 Layer Configs: 1,15,16,2,3,4,5,6,7,8,9,10,11,13,14,56*
G04 Copper Areas: 9*
%FSLAX45Y45*%
%MOMM*%
%ADD10C,0.2032*%
%ADD11C,0.254*%
%ADD12C,1.8*%
%ADD13R,1.8X1.8*%
%ADD14C,1.34798*%
%ADD15R,1.3549X1.34798*%
%ADD16R,1.34798X1.34798*%
%ADD17C,0.61*%
G75*


G04 Copper Start*
G36*
G01X3634486Y-2017014D02*
G01X3634486Y-3812286D01*
G01X-573786Y-3812286D01*
G01X-573786Y-3670300D01*
G01X1039787Y-3670300D01*
G01X1041770Y-3690436D01*
G01X1047644Y-3709798D01*
G01X1057182Y-3727642D01*
G01X1070017Y-3743283D01*
G01X1085658Y-3756118D01*
G01X1103502Y-3765656D01*
G01X1122864Y-3771530D01*
G01X1143000Y-3773513D01*
G01X1163136Y-3771530D01*
G01X1182498Y-3765656D01*
G01X1200342Y-3756118D01*
G01X1215983Y-3743283D01*
G01X1228818Y-3727642D01*
G01X1238356Y-3709798D01*
G01X1244230Y-3690436D01*
G01X1246213Y-3670300D01*
G01X1293787Y-3670300D01*
G01X1295770Y-3690436D01*
G01X1301644Y-3709798D01*
G01X1311182Y-3727642D01*
G01X1324017Y-3743283D01*
G01X1339658Y-3756118D01*
G01X1357502Y-3765656D01*
G01X1376864Y-3771530D01*
G01X1397000Y-3773513D01*
G01X1417136Y-3771530D01*
G01X1436498Y-3765656D01*
G01X1454342Y-3756118D01*
G01X1469983Y-3743283D01*
G01X1482818Y-3727642D01*
G01X1492356Y-3709798D01*
G01X1498230Y-3690436D01*
G01X1500213Y-3670300D01*
G01X1547785Y-3670300D01*
G01X1549768Y-3690436D01*
G01X1555641Y-3709798D01*
G01X1565179Y-3727642D01*
G01X1578015Y-3743283D01*
G01X1593655Y-3756118D01*
G01X1611500Y-3765656D01*
G01X1630862Y-3771530D01*
G01X1650997Y-3773513D01*
G01X1671133Y-3771530D01*
G01X1690495Y-3765656D01*
G01X1708339Y-3756118D01*
G01X1723980Y-3743283D01*
G01X1736816Y-3727642D01*
G01X1746354Y-3709798D01*
G01X1752227Y-3690436D01*
G01X1754210Y-3670300D01*
G01X1801785Y-3670300D01*
G01X1803768Y-3690436D01*
G01X1809641Y-3709798D01*
G01X1819179Y-3727642D01*
G01X1832015Y-3743283D01*
G01X1847655Y-3756118D01*
G01X1865500Y-3765656D01*
G01X1884862Y-3771530D01*
G01X1904997Y-3773513D01*
G01X1925133Y-3771530D01*
G01X1944495Y-3765656D01*
G01X1962339Y-3756118D01*
G01X1977980Y-3743283D01*
G01X1990816Y-3727642D01*
G01X2000354Y-3709798D01*
G01X2006227Y-3690436D01*
G01X2008210Y-3670300D01*
G01X2055785Y-3670300D01*
G01X2057768Y-3690436D01*
G01X2063641Y-3709798D01*
G01X2073179Y-3727642D01*
G01X2086015Y-3743283D01*
G01X2101655Y-3756118D01*
G01X2119500Y-3765656D01*
G01X2138862Y-3771530D01*
G01X2158997Y-3773513D01*
G01X2179133Y-3771530D01*
G01X2198495Y-3765656D01*
G01X2216339Y-3756118D01*
G01X2231980Y-3743283D01*
G01X2244816Y-3727642D01*
G01X2254354Y-3709798D01*
G01X2260227Y-3690436D01*
G01X2262210Y-3670300D01*
G01X2309785Y-3670300D01*
G01X2311768Y-3690436D01*
G01X2317641Y-3709798D01*
G01X2327179Y-3727642D01*
G01X2340015Y-3743283D01*
G01X2355655Y-3756118D01*
G01X2373500Y-3765656D01*
G01X2392862Y-3771530D01*
G01X2412997Y-3773513D01*
G01X2433133Y-3771530D01*
G01X2452495Y-3765656D01*
G01X2470339Y-3756118D01*
G01X2485980Y-3743283D01*
G01X2490562Y-3737699D01*
G01X2563785Y-3737699D01*
G01X2565537Y-3748766D01*
G01X2570624Y-3758750D01*
G01X2578548Y-3766673D01*
G01X2588531Y-3771760D01*
G01X2599599Y-3773513D01*
G01X2734396Y-3773513D01*
G01X2745463Y-3771760D01*
G01X2755447Y-3766673D01*
G01X2763370Y-3758750D01*
G01X2768457Y-3748766D01*
G01X2770210Y-3737699D01*
G01X2770210Y-3670300D01*
G01X2817785Y-3670300D01*
G01X2819768Y-3690436D01*
G01X2825641Y-3709798D01*
G01X2835179Y-3727642D01*
G01X2848015Y-3743283D01*
G01X2863655Y-3756118D01*
G01X2881500Y-3765656D01*
G01X2900862Y-3771530D01*
G01X2920997Y-3773513D01*
G01X2920997Y-3773513D01*
G01X2941133Y-3771530D01*
G01X2960495Y-3765656D01*
G01X2978339Y-3756118D01*
G01X2993980Y-3743283D01*
G01X3006816Y-3727642D01*
G01X3016354Y-3709798D01*
G01X3022227Y-3690436D01*
G01X3024210Y-3670300D01*
G01X3022227Y-3650164D01*
G01X3016354Y-3630802D01*
G01X3006816Y-3612958D01*
G01X2993980Y-3597317D01*
G01X2978339Y-3584482D01*
G01X2960495Y-3574944D01*
G01X2941133Y-3569070D01*
G01X2920997Y-3567087D01*
G01X2900862Y-3569070D01*
G01X2881500Y-3574944D01*
G01X2863655Y-3584482D01*
G01X2848015Y-3597317D01*
G01X2835179Y-3612958D01*
G01X2825641Y-3630802D01*
G01X2819768Y-3650164D01*
G01X2817785Y-3670300D01*
G01X2770210Y-3670300D01*
G01X2770210Y-3602901D01*
G01X2768457Y-3591834D01*
G01X2763370Y-3581850D01*
G01X2755447Y-3573927D01*
G01X2745463Y-3568840D01*
G01X2734396Y-3567087D01*
G01X2599599Y-3567087D01*
G01X2588531Y-3568840D01*
G01X2578548Y-3573927D01*
G01X2570624Y-3581850D01*
G01X2565537Y-3591834D01*
G01X2563785Y-3602901D01*
G01X2563785Y-3737699D01*
G01X2563785Y-3737699D01*
G01X2490562Y-3737699D01*
G01X2498816Y-3727642D01*
G01X2508354Y-3709798D01*
G01X2514227Y-3690436D01*
G01X2516210Y-3670300D01*
G01X2514227Y-3650164D01*
G01X2508354Y-3630802D01*
G01X2498816Y-3612958D01*
G01X2485980Y-3597317D01*
G01X2470339Y-3584482D01*
G01X2452495Y-3574944D01*
G01X2433133Y-3569070D01*
G01X2412997Y-3567087D01*
G01X2412997Y-3567087D01*
G01X2392862Y-3569070D01*
G01X2373500Y-3574944D01*
G01X2355655Y-3584482D01*
G01X2340015Y-3597317D01*
G01X2327179Y-3612958D01*
G01X2317641Y-3630802D01*
G01X2311768Y-3650164D01*
G01X2309785Y-3670300D01*
G01X2262210Y-3670300D01*
G01X2260227Y-3650164D01*
G01X2254354Y-3630802D01*
G01X2244816Y-3612958D01*
G01X2231980Y-3597317D01*
G01X2216339Y-3584482D01*
G01X2198495Y-3574944D01*
G01X2179133Y-3569070D01*
G01X2158997Y-3567087D01*
G01X2158997Y-3567087D01*
G01X2138862Y-3569070D01*
G01X2119500Y-3574944D01*
G01X2101655Y-3584482D01*
G01X2086015Y-3597317D01*
G01X2073179Y-3612958D01*
G01X2063641Y-3630802D01*
G01X2057768Y-3650164D01*
G01X2055785Y-3670300D01*
G01X2008210Y-3670300D01*
G01X2006227Y-3650164D01*
G01X2000354Y-3630802D01*
G01X1990816Y-3612958D01*
G01X1977980Y-3597317D01*
G01X1962339Y-3584482D01*
G01X1944495Y-3574944D01*
G01X1925133Y-3569070D01*
G01X1904997Y-3567087D01*
G01X1904997Y-3567087D01*
G01X1884862Y-3569070D01*
G01X1865500Y-3574944D01*
G01X1847655Y-3584482D01*
G01X1832015Y-3597317D01*
G01X1819179Y-3612958D01*
G01X1809641Y-3630802D01*
G01X1803768Y-3650164D01*
G01X1801785Y-3670300D01*
G01X1754210Y-3670300D01*
G01X1752227Y-3650164D01*
G01X1746354Y-3630802D01*
G01X1736816Y-3612958D01*
G01X1723980Y-3597317D01*
G01X1708339Y-3584482D01*
G01X1690495Y-3574944D01*
G01X1671133Y-3569070D01*
G01X1650997Y-3567087D01*
G01X1650997Y-3567087D01*
G01X1630862Y-3569070D01*
G01X1611500Y-3574944D01*
G01X1593655Y-3584482D01*
G01X1578015Y-3597317D01*
G01X1565179Y-3612958D01*
G01X1555641Y-3630802D01*
G01X1549768Y-3650164D01*
G01X1547785Y-3670300D01*
G01X1500213Y-3670300D01*
G01X1498230Y-3650164D01*
G01X1492356Y-3630802D01*
G01X1482818Y-3612958D01*
G01X1469983Y-3597317D01*
G01X1454342Y-3584482D01*
G01X1436498Y-3574944D01*
G01X1417136Y-3569070D01*
G01X1397000Y-3567087D01*
G01X1397000Y-3567087D01*
G01X1376864Y-3569070D01*
G01X1357502Y-3574944D01*
G01X1339658Y-3584482D01*
G01X1324017Y-3597317D01*
G01X1311182Y-3612958D01*
G01X1301644Y-3630802D01*
G01X1295770Y-3650164D01*
G01X1293787Y-3670300D01*
G01X1246213Y-3670300D01*
G01X1246213Y-3670300D01*
G01X1244230Y-3650164D01*
G01X1238356Y-3630802D01*
G01X1228818Y-3612958D01*
G01X1215983Y-3597317D01*
G01X1200342Y-3584482D01*
G01X1182498Y-3574944D01*
G01X1163136Y-3569070D01*
G01X1143000Y-3567087D01*
G01X1143000Y-3567087D01*
G01X1122864Y-3569070D01*
G01X1103502Y-3574944D01*
G01X1085658Y-3584482D01*
G01X1070017Y-3597317D01*
G01X1057182Y-3612958D01*
G01X1047644Y-3630802D01*
G01X1041770Y-3650164D01*
G01X1039787Y-3670300D01*
G01X-573786Y-3670300D01*
G01X-573786Y-3556000D01*
G01X3379386Y-3556000D01*
G01X3381298Y-3577847D01*
G01X3386974Y-3599031D01*
G01X3396242Y-3618907D01*
G01X3408821Y-3636872D01*
G01X3424328Y-3652379D01*
G01X3442293Y-3664958D01*
G01X3462169Y-3674226D01*
G01X3483353Y-3679902D01*
G01X3505200Y-3681814D01*
G01X3505200Y-3681814D01*
G01X3527047Y-3679902D01*
G01X3548231Y-3674226D01*
G01X3568107Y-3664958D01*
G01X3586072Y-3652379D01*
G01X3601579Y-3636872D01*
G01X3614158Y-3618907D01*
G01X3623426Y-3599031D01*
G01X3629102Y-3577847D01*
G01X3631014Y-3556000D01*
G01X3629102Y-3534153D01*
G01X3623426Y-3512969D01*
G01X3614158Y-3493093D01*
G01X3601579Y-3475128D01*
G01X3586072Y-3459621D01*
G01X3568107Y-3447042D01*
G01X3548231Y-3437774D01*
G01X3527047Y-3432098D01*
G01X3505200Y-3430186D01*
G01X3483353Y-3432098D01*
G01X3462169Y-3437774D01*
G01X3442293Y-3447042D01*
G01X3424328Y-3459621D01*
G01X3408821Y-3475128D01*
G01X3396242Y-3493093D01*
G01X3386974Y-3512969D01*
G01X3381298Y-3534153D01*
G01X3379386Y-3556000D01*
G01X-573786Y-3556000D01*
G01X-573786Y-3294007D01*
G01X-167747Y-3294007D01*
G01X-165236Y-3307955D01*
G01X-159819Y-3321050D01*
G01X-165236Y-3334145D01*
G01X-167747Y-3348093D01*
G01X-167237Y-3362255D01*
G01X-163729Y-3375985D01*
G01X-157384Y-3388657D01*
G01X-148491Y-3399691D01*
G01X-148491Y-3399691D01*
G01X-137457Y-3408584D01*
G01X-124785Y-3414929D01*
G01X-111055Y-3418437D01*
G01X-96893Y-3418947D01*
G01X-82945Y-3416436D01*
G01X-69850Y-3411019D01*
G01X-57669Y-3416161D01*
G01X-44711Y-3418784D01*
G01X-31489Y-3418784D01*
G01X-18531Y-3416161D01*
G01X-6350Y-3411019D01*
G01X5831Y-3416161D01*
G01X18789Y-3418784D01*
G01X32011Y-3418784D01*
G01X44969Y-3416161D01*
G01X57150Y-3411019D01*
G01X70245Y-3416436D01*
G01X84193Y-3418947D01*
G01X98355Y-3418437D01*
G01X112085Y-3414929D01*
G01X124757Y-3408584D01*
G01X125730Y-3407799D01*
G01X549803Y-3407799D01*
G01X552314Y-3421747D01*
G01X557731Y-3434842D01*
G01X552314Y-3447937D01*
G01X549803Y-3461885D01*
G01X550313Y-3476047D01*
G01X553821Y-3489777D01*
G01X560166Y-3502449D01*
G01X569059Y-3513483D01*
G01X580093Y-3522376D01*
G01X592765Y-3528721D01*
G01X606495Y-3532229D01*
G01X620657Y-3532739D01*
G01X634605Y-3530228D01*
G01X647700Y-3524811D01*
G01X660795Y-3530228D01*
G01X674743Y-3532739D01*
G01X688905Y-3532229D01*
G01X702635Y-3528721D01*
G01X715307Y-3522376D01*
G01X726341Y-3513483D01*
G01X735234Y-3502449D01*
G01X741579Y-3489777D01*
G01X745087Y-3476047D01*
G01X745597Y-3461885D01*
G01X743086Y-3447937D01*
G01X737669Y-3434842D01*
G01X743086Y-3421747D01*
G01X745597Y-3407799D01*
G01X745087Y-3393637D01*
G01X741579Y-3379907D01*
G01X735234Y-3367235D01*
G01X726341Y-3356201D01*
G01X726341Y-3356201D01*
G01X715307Y-3347308D01*
G01X702635Y-3340963D01*
G01X688905Y-3337455D01*
G01X674743Y-3336945D01*
G01X660795Y-3339456D01*
G01X647700Y-3344873D01*
G01X634605Y-3339456D01*
G01X620657Y-3336945D01*
G01X606495Y-3337455D01*
G01X592765Y-3340963D01*
G01X580093Y-3347308D01*
G01X569059Y-3356201D01*
G01X560166Y-3367235D01*
G01X553821Y-3379907D01*
G01X550313Y-3393637D01*
G01X549803Y-3407799D01*
G01X125730Y-3407799D01*
G01X135791Y-3399691D01*
G01X144684Y-3388657D01*
G01X151029Y-3375985D01*
G01X154537Y-3362255D01*
G01X155047Y-3348093D01*
G01X152536Y-3334145D01*
G01X147119Y-3321050D01*
G01X152536Y-3307955D01*
G01X155047Y-3294007D01*
G01X154537Y-3279845D01*
G01X151029Y-3266115D01*
G01X144684Y-3253443D01*
G01X136025Y-3242699D01*
G01X3102503Y-3242699D01*
G01X3105014Y-3256647D01*
G01X3110431Y-3269742D01*
G01X3105014Y-3282837D01*
G01X3102503Y-3296785D01*
G01X3103013Y-3310947D01*
G01X3106521Y-3324677D01*
G01X3112866Y-3337349D01*
G01X3121759Y-3348383D01*
G01X3132793Y-3357276D01*
G01X3145465Y-3363621D01*
G01X3159195Y-3367129D01*
G01X3173357Y-3367639D01*
G01X3187305Y-3365128D01*
G01X3200400Y-3359711D01*
G01X3213495Y-3365128D01*
G01X3227443Y-3367639D01*
G01X3241605Y-3367129D01*
G01X3255335Y-3363621D01*
G01X3268007Y-3357276D01*
G01X3279041Y-3348383D01*
G01X3287934Y-3337349D01*
G01X3294279Y-3324677D01*
G01X3297787Y-3310947D01*
G01X3298297Y-3296785D01*
G01X3295786Y-3282837D01*
G01X3290369Y-3269742D01*
G01X3295786Y-3256647D01*
G01X3298297Y-3242699D01*
G01X3297787Y-3228537D01*
G01X3294279Y-3214807D01*
G01X3292874Y-3212000D01*
G01X3379386Y-3212000D01*
G01X3379386Y-3392000D01*
G01X3381139Y-3403067D01*
G01X3386226Y-3413051D01*
G01X3394149Y-3420974D01*
G01X3404133Y-3426061D01*
G01X3415200Y-3427814D01*
G01X3595200Y-3427814D01*
G01X3606267Y-3426061D01*
G01X3616251Y-3420974D01*
G01X3624174Y-3413051D01*
G01X3629261Y-3403067D01*
G01X3631014Y-3392000D01*
G01X3631014Y-3212000D01*
G01X3631014Y-3212000D01*
G01X3629261Y-3200933D01*
G01X3624174Y-3190949D01*
G01X3616251Y-3183026D01*
G01X3606267Y-3177939D01*
G01X3595200Y-3176186D01*
G01X3415200Y-3176186D01*
G01X3404133Y-3177939D01*
G01X3394149Y-3183026D01*
G01X3386226Y-3190949D01*
G01X3381139Y-3200933D01*
G01X3379386Y-3212000D01*
G01X3292874Y-3212000D01*
G01X3287934Y-3202135D01*
G01X3279041Y-3191101D01*
G01X3268007Y-3182208D01*
G01X3255335Y-3175863D01*
G01X3241605Y-3172355D01*
G01X3227443Y-3171845D01*
G01X3213495Y-3174356D01*
G01X3200400Y-3179773D01*
G01X3187305Y-3174356D01*
G01X3173357Y-3171845D01*
G01X3159195Y-3172355D01*
G01X3145465Y-3175863D01*
G01X3132793Y-3182208D01*
G01X3121759Y-3191101D01*
G01X3121759Y-3191101D01*
G01X3112866Y-3202135D01*
G01X3106521Y-3214807D01*
G01X3103013Y-3228537D01*
G01X3102503Y-3242699D01*
G01X136025Y-3242699D01*
G01X135791Y-3242409D01*
G01X124757Y-3233516D01*
G01X112085Y-3227171D01*
G01X98355Y-3223663D01*
G01X84193Y-3223153D01*
G01X70245Y-3225664D01*
G01X57150Y-3231081D01*
G01X44969Y-3225939D01*
G01X32011Y-3223316D01*
G01X18789Y-3223316D01*
G01X5831Y-3225939D01*
G01X-6350Y-3231081D01*
G01X-18531Y-3225939D01*
G01X-31489Y-3223316D01*
G01X-44711Y-3223316D01*
G01X-57669Y-3225939D01*
G01X-69850Y-3231081D01*
G01X-82945Y-3225664D01*
G01X-96893Y-3223153D01*
G01X-111055Y-3223663D01*
G01X-124785Y-3227171D01*
G01X-137457Y-3233516D01*
G01X-148491Y-3242409D01*
G01X-157384Y-3253443D01*
G01X-163729Y-3266115D01*
G01X-167237Y-3279845D01*
G01X-167747Y-3294007D01*
G01X-573786Y-3294007D01*
G01X-573786Y-3048000D01*
G01X3379386Y-3048000D01*
G01X3381298Y-3069847D01*
G01X3386974Y-3091031D01*
G01X3396242Y-3110907D01*
G01X3408821Y-3128872D01*
G01X3424328Y-3144379D01*
G01X3442293Y-3156958D01*
G01X3462169Y-3166226D01*
G01X3483353Y-3171902D01*
G01X3505200Y-3173814D01*
G01X3505200Y-3173814D01*
G01X3527047Y-3171902D01*
G01X3548231Y-3166226D01*
G01X3568107Y-3156958D01*
G01X3586072Y-3144379D01*
G01X3601579Y-3128872D01*
G01X3614158Y-3110907D01*
G01X3623426Y-3091031D01*
G01X3629102Y-3069847D01*
G01X3631014Y-3048000D01*
G01X3629102Y-3026153D01*
G01X3623426Y-3004969D01*
G01X3614158Y-2985093D01*
G01X3601579Y-2967128D01*
G01X3586072Y-2951621D01*
G01X3568107Y-2939042D01*
G01X3548231Y-2929774D01*
G01X3527047Y-2924098D01*
G01X3505200Y-2922186D01*
G01X3483353Y-2924098D01*
G01X3462169Y-2929774D01*
G01X3442293Y-2939042D01*
G01X3424328Y-2951621D01*
G01X3408821Y-2967128D01*
G01X3396242Y-2985093D01*
G01X3386974Y-3004969D01*
G01X3381298Y-3026153D01*
G01X3379386Y-3048000D01*
G01X-573786Y-3048000D01*
G01X-573786Y-2908300D01*
G01X2301761Y-2908300D01*
G01X2303613Y-2930654D01*
G01X2309120Y-2952399D01*
G01X2318130Y-2972940D01*
G01X2330399Y-2991719D01*
G01X2345591Y-3008222D01*
G01X2363292Y-3021999D01*
G01X2383019Y-3032675D01*
G01X2404235Y-3039958D01*
G01X2426360Y-3043650D01*
G01X2448791Y-3043650D01*
G01X2470916Y-3039958D01*
G01X2492131Y-3032675D01*
G01X2511858Y-3021999D01*
G01X2529560Y-3008222D01*
G01X2544752Y-2991719D01*
G01X2557020Y-2972940D01*
G01X2566030Y-2952399D01*
G01X2571537Y-2930654D01*
G01X2573389Y-2908300D01*
G01X2571537Y-2885946D01*
G01X2566030Y-2864201D01*
G01X2557020Y-2843660D01*
G01X2544752Y-2824881D01*
G01X2529560Y-2808378D01*
G01X2511858Y-2794601D01*
G01X2510748Y-2794000D01*
G01X3379386Y-2794000D01*
G01X3381298Y-2815847D01*
G01X3386974Y-2837031D01*
G01X3396242Y-2856907D01*
G01X3408821Y-2874872D01*
G01X3424328Y-2890379D01*
G01X3442293Y-2902958D01*
G01X3462169Y-2912226D01*
G01X3483353Y-2917902D01*
G01X3505200Y-2919814D01*
G01X3505200Y-2919814D01*
G01X3527047Y-2917902D01*
G01X3548231Y-2912226D01*
G01X3568107Y-2902958D01*
G01X3586072Y-2890379D01*
G01X3601579Y-2874872D01*
G01X3614158Y-2856907D01*
G01X3623426Y-2837031D01*
G01X3629102Y-2815847D01*
G01X3631014Y-2794000D01*
G01X3629102Y-2772153D01*
G01X3623426Y-2750969D01*
G01X3614158Y-2731093D01*
G01X3601579Y-2713128D01*
G01X3586072Y-2697621D01*
G01X3568107Y-2685042D01*
G01X3548231Y-2675774D01*
G01X3527047Y-2670098D01*
G01X3505200Y-2668186D01*
G01X3483353Y-2670098D01*
G01X3462169Y-2675774D01*
G01X3442293Y-2685042D01*
G01X3424328Y-2697621D01*
G01X3408821Y-2713128D01*
G01X3396242Y-2731093D01*
G01X3386974Y-2750969D01*
G01X3381298Y-2772153D01*
G01X3379386Y-2794000D01*
G01X2510748Y-2794000D01*
G01X2492131Y-2783925D01*
G01X2470916Y-2776642D01*
G01X2448791Y-2772950D01*
G01X2426360Y-2772950D01*
G01X2404235Y-2776642D01*
G01X2383019Y-2783925D01*
G01X2363292Y-2794601D01*
G01X2345591Y-2808378D01*
G01X2330399Y-2824881D01*
G01X2318130Y-2843660D01*
G01X2309120Y-2864201D01*
G01X2303613Y-2885946D01*
G01X2301761Y-2908300D01*
G01X2301761Y-2908300D01*
G01X-573786Y-2908300D01*
G01X-573786Y-2562070D01*
G01X2494591Y-2562070D01*
G01X2497101Y-2576017D01*
G01X2502518Y-2589112D01*
G01X2497101Y-2602208D01*
G01X2494591Y-2616155D01*
G01X2495101Y-2630317D01*
G01X2498609Y-2644048D01*
G01X2504954Y-2656719D01*
G01X2513846Y-2667754D01*
G01X2524881Y-2676646D01*
G01X2537552Y-2682991D01*
G01X2551283Y-2686499D01*
G01X2565445Y-2687009D01*
G01X2579392Y-2684499D01*
G01X2592488Y-2679082D01*
G01X2605583Y-2684499D01*
G01X2619530Y-2687009D01*
G01X2633693Y-2686499D01*
G01X2647423Y-2682991D01*
G01X2660095Y-2676646D01*
G01X2671129Y-2667754D01*
G01X2680021Y-2656719D01*
G01X2686366Y-2644048D01*
G01X2689874Y-2630317D01*
G01X2690384Y-2616155D01*
G01X2687874Y-2602208D01*
G01X2682457Y-2589112D01*
G01X2687874Y-2576017D01*
G01X2690384Y-2562070D01*
G01X2689874Y-2547907D01*
G01X2687854Y-2540000D01*
G01X3379386Y-2540000D01*
G01X3381298Y-2561847D01*
G01X3386974Y-2583031D01*
G01X3396242Y-2602907D01*
G01X3408821Y-2620872D01*
G01X3424328Y-2636379D01*
G01X3442293Y-2648958D01*
G01X3462169Y-2658226D01*
G01X3483353Y-2663902D01*
G01X3505200Y-2665814D01*
G01X3505200Y-2665814D01*
G01X3527047Y-2663902D01*
G01X3548231Y-2658226D01*
G01X3568107Y-2648958D01*
G01X3586072Y-2636379D01*
G01X3601579Y-2620872D01*
G01X3614158Y-2602907D01*
G01X3623426Y-2583031D01*
G01X3629102Y-2561847D01*
G01X3631014Y-2540000D01*
G01X3629102Y-2518153D01*
G01X3623426Y-2496969D01*
G01X3614158Y-2477093D01*
G01X3601579Y-2459128D01*
G01X3586072Y-2443621D01*
G01X3568107Y-2431042D01*
G01X3548231Y-2421774D01*
G01X3527047Y-2416098D01*
G01X3505200Y-2414186D01*
G01X3483353Y-2416098D01*
G01X3462169Y-2421774D01*
G01X3442293Y-2431042D01*
G01X3424328Y-2443621D01*
G01X3408821Y-2459128D01*
G01X3396242Y-2477093D01*
G01X3386974Y-2496969D01*
G01X3381298Y-2518153D01*
G01X3379386Y-2540000D01*
G01X2687854Y-2540000D01*
G01X2686366Y-2534177D01*
G01X2680021Y-2521505D01*
G01X2671129Y-2510471D01*
G01X2660095Y-2501579D01*
G01X2647423Y-2495234D01*
G01X2633693Y-2491726D01*
G01X2619530Y-2491216D01*
G01X2605583Y-2493726D01*
G01X2592488Y-2499143D01*
G01X2579392Y-2493726D01*
G01X2565445Y-2491216D01*
G01X2551283Y-2491726D01*
G01X2537552Y-2495234D01*
G01X2524881Y-2501579D01*
G01X2513846Y-2510471D01*
G01X2513846Y-2510471D01*
G01X2504954Y-2521505D01*
G01X2498609Y-2534177D01*
G01X2495101Y-2547907D01*
G01X2494591Y-2562070D01*
G01X-573786Y-2562070D01*
G01X-573786Y-2286000D01*
G01X3379386Y-2286000D01*
G01X3381298Y-2307847D01*
G01X3386974Y-2329031D01*
G01X3396242Y-2348907D01*
G01X3408821Y-2366872D01*
G01X3424328Y-2382379D01*
G01X3442293Y-2394958D01*
G01X3462169Y-2404226D01*
G01X3483353Y-2409902D01*
G01X3505200Y-2411814D01*
G01X3505200Y-2411814D01*
G01X3527047Y-2409902D01*
G01X3548231Y-2404226D01*
G01X3568107Y-2394958D01*
G01X3586072Y-2382379D01*
G01X3601579Y-2366872D01*
G01X3614158Y-2348907D01*
G01X3623426Y-2329031D01*
G01X3629102Y-2307847D01*
G01X3631014Y-2286000D01*
G01X3629102Y-2264153D01*
G01X3623426Y-2242969D01*
G01X3614158Y-2223093D01*
G01X3601579Y-2205128D01*
G01X3586072Y-2189621D01*
G01X3568107Y-2177042D01*
G01X3548231Y-2167774D01*
G01X3527047Y-2162098D01*
G01X3505200Y-2160186D01*
G01X3483353Y-2162098D01*
G01X3462169Y-2167774D01*
G01X3442293Y-2177042D01*
G01X3424328Y-2189621D01*
G01X3408821Y-2205128D01*
G01X3396242Y-2223093D01*
G01X3386974Y-2242969D01*
G01X3381298Y-2264153D01*
G01X3379386Y-2286000D01*
G01X-573786Y-2286000D01*
G01X-573786Y-2146300D01*
G01X1039790Y-2146300D01*
G01X1041773Y-2166436D01*
G01X1047646Y-2185798D01*
G01X1057184Y-2203642D01*
G01X1070020Y-2219283D01*
G01X1085661Y-2232118D01*
G01X1103505Y-2241656D01*
G01X1122867Y-2247530D01*
G01X1143003Y-2249513D01*
G01X1163138Y-2247530D01*
G01X1182500Y-2241656D01*
G01X1200345Y-2232118D01*
G01X1215985Y-2219283D01*
G01X1228821Y-2203642D01*
G01X1238359Y-2185798D01*
G01X1244232Y-2166436D01*
G01X1246215Y-2146300D01*
G01X1293790Y-2146300D01*
G01X1295773Y-2166436D01*
G01X1301646Y-2185798D01*
G01X1311184Y-2203642D01*
G01X1324020Y-2219283D01*
G01X1339661Y-2232118D01*
G01X1357505Y-2241656D01*
G01X1376867Y-2247530D01*
G01X1397003Y-2249513D01*
G01X1417138Y-2247530D01*
G01X1436500Y-2241656D01*
G01X1454345Y-2232118D01*
G01X1469985Y-2219283D01*
G01X1482821Y-2203642D01*
G01X1492359Y-2185798D01*
G01X1498232Y-2166436D01*
G01X1500215Y-2146300D01*
G01X1547790Y-2146300D01*
G01X1549773Y-2166436D01*
G01X1555646Y-2185798D01*
G01X1565184Y-2203642D01*
G01X1578020Y-2219283D01*
G01X1593661Y-2232118D01*
G01X1611505Y-2241656D01*
G01X1630867Y-2247530D01*
G01X1651003Y-2249513D01*
G01X1671138Y-2247530D01*
G01X1690500Y-2241656D01*
G01X1708345Y-2232118D01*
G01X1723985Y-2219283D01*
G01X1736821Y-2203642D01*
G01X1746359Y-2185798D01*
G01X1752232Y-2166436D01*
G01X1754215Y-2146300D01*
G01X1801790Y-2146300D01*
G01X1803773Y-2166436D01*
G01X1809646Y-2185798D01*
G01X1819184Y-2203642D01*
G01X1832020Y-2219283D01*
G01X1847661Y-2232118D01*
G01X1865505Y-2241656D01*
G01X1884867Y-2247530D01*
G01X1905003Y-2249513D01*
G01X1925138Y-2247530D01*
G01X1944500Y-2241656D01*
G01X1962345Y-2232118D01*
G01X1977985Y-2219283D01*
G01X1990821Y-2203642D01*
G01X2000359Y-2185798D01*
G01X2006232Y-2166436D01*
G01X2008215Y-2146300D01*
G01X2055790Y-2146300D01*
G01X2057773Y-2166436D01*
G01X2063646Y-2185798D01*
G01X2073184Y-2203642D01*
G01X2086020Y-2219283D01*
G01X2101661Y-2232118D01*
G01X2119505Y-2241656D01*
G01X2138867Y-2247530D01*
G01X2159003Y-2249513D01*
G01X2179138Y-2247530D01*
G01X2198500Y-2241656D01*
G01X2216345Y-2232118D01*
G01X2231985Y-2219283D01*
G01X2244821Y-2203642D01*
G01X2254359Y-2185798D01*
G01X2260232Y-2166436D01*
G01X2262215Y-2146300D01*
G01X2262215Y-2146300D01*
G01X2309787Y-2146300D01*
G01X2311770Y-2166436D01*
G01X2317644Y-2185798D01*
G01X2327182Y-2203642D01*
G01X2340017Y-2219283D01*
G01X2355658Y-2232118D01*
G01X2373502Y-2241656D01*
G01X2392864Y-2247530D01*
G01X2413000Y-2249513D01*
G01X2433136Y-2247530D01*
G01X2452498Y-2241656D01*
G01X2470342Y-2232118D01*
G01X2485983Y-2219283D01*
G01X2498818Y-2203642D01*
G01X2508356Y-2185798D01*
G01X2514230Y-2166436D01*
G01X2516213Y-2146300D01*
G01X2563787Y-2146300D01*
G01X2565770Y-2166436D01*
G01X2571644Y-2185798D01*
G01X2581182Y-2203642D01*
G01X2594017Y-2219283D01*
G01X2609658Y-2232118D01*
G01X2627502Y-2241656D01*
G01X2646864Y-2247530D01*
G01X2667000Y-2249513D01*
G01X2687136Y-2247530D01*
G01X2706498Y-2241656D01*
G01X2724342Y-2232118D01*
G01X2739983Y-2219283D01*
G01X2752818Y-2203642D01*
G01X2762356Y-2185798D01*
G01X2768230Y-2166436D01*
G01X2770213Y-2146300D01*
G01X2817787Y-2146300D01*
G01X2819770Y-2166436D01*
G01X2825644Y-2185798D01*
G01X2835182Y-2203642D01*
G01X2848017Y-2219283D01*
G01X2863658Y-2232118D01*
G01X2881502Y-2241656D01*
G01X2900864Y-2247530D01*
G01X2921000Y-2249513D01*
G01X2941136Y-2247530D01*
G01X2960498Y-2241656D01*
G01X2978342Y-2232118D01*
G01X2993983Y-2219283D01*
G01X3006818Y-2203642D01*
G01X3016356Y-2185798D01*
G01X3022230Y-2166436D01*
G01X3024213Y-2146300D01*
G01X3022230Y-2126164D01*
G01X3016356Y-2106802D01*
G01X3006818Y-2088958D01*
G01X2993983Y-2073317D01*
G01X2978342Y-2060482D01*
G01X2960498Y-2050944D01*
G01X2941136Y-2045070D01*
G01X2921000Y-2043087D01*
G01X2921000Y-2043087D01*
G01X2900864Y-2045070D01*
G01X2881502Y-2050944D01*
G01X2863658Y-2060482D01*
G01X2848017Y-2073317D01*
G01X2835182Y-2088958D01*
G01X2825644Y-2106802D01*
G01X2819770Y-2126164D01*
G01X2817787Y-2146300D01*
G01X2770213Y-2146300D01*
G01X2770213Y-2146300D01*
G01X2768230Y-2126164D01*
G01X2762356Y-2106802D01*
G01X2752818Y-2088958D01*
G01X2739983Y-2073317D01*
G01X2724342Y-2060482D01*
G01X2706498Y-2050944D01*
G01X2687136Y-2045070D01*
G01X2667000Y-2043087D01*
G01X2667000Y-2043087D01*
G01X2646864Y-2045070D01*
G01X2627502Y-2050944D01*
G01X2609658Y-2060482D01*
G01X2594017Y-2073317D01*
G01X2581182Y-2088958D01*
G01X2571644Y-2106802D01*
G01X2565770Y-2126164D01*
G01X2563787Y-2146300D01*
G01X2516213Y-2146300D01*
G01X2516213Y-2146300D01*
G01X2514230Y-2126164D01*
G01X2508356Y-2106802D01*
G01X2498818Y-2088958D01*
G01X2485983Y-2073317D01*
G01X2470342Y-2060482D01*
G01X2452498Y-2050944D01*
G01X2433136Y-2045070D01*
G01X2413000Y-2043087D01*
G01X2413000Y-2043087D01*
G01X2392864Y-2045070D01*
G01X2373502Y-2050944D01*
G01X2355658Y-2060482D01*
G01X2340017Y-2073317D01*
G01X2327182Y-2088958D01*
G01X2317644Y-2106802D01*
G01X2311770Y-2126164D01*
G01X2309787Y-2146300D01*
G01X2262215Y-2146300D01*
G01X2260232Y-2126164D01*
G01X2254359Y-2106802D01*
G01X2244821Y-2088958D01*
G01X2231985Y-2073317D01*
G01X2216345Y-2060482D01*
G01X2198500Y-2050944D01*
G01X2179138Y-2045070D01*
G01X2159003Y-2043087D01*
G01X2159003Y-2043087D01*
G01X2138867Y-2045070D01*
G01X2119505Y-2050944D01*
G01X2101661Y-2060482D01*
G01X2086020Y-2073317D01*
G01X2073184Y-2088958D01*
G01X2063646Y-2106802D01*
G01X2057773Y-2126164D01*
G01X2055790Y-2146300D01*
G01X2008215Y-2146300D01*
G01X2006232Y-2126164D01*
G01X2000359Y-2106802D01*
G01X1990821Y-2088958D01*
G01X1977985Y-2073317D01*
G01X1962345Y-2060482D01*
G01X1944500Y-2050944D01*
G01X1925138Y-2045070D01*
G01X1905003Y-2043087D01*
G01X1905003Y-2043087D01*
G01X1884867Y-2045070D01*
G01X1865505Y-2050944D01*
G01X1847661Y-2060482D01*
G01X1832020Y-2073317D01*
G01X1819184Y-2088958D01*
G01X1809646Y-2106802D01*
G01X1803773Y-2126164D01*
G01X1801790Y-2146300D01*
G01X1754215Y-2146300D01*
G01X1754215Y-2146300D01*
G01X1752232Y-2126164D01*
G01X1746359Y-2106802D01*
G01X1736821Y-2088958D01*
G01X1723985Y-2073317D01*
G01X1708345Y-2060482D01*
G01X1690500Y-2050944D01*
G01X1671138Y-2045070D01*
G01X1651003Y-2043087D01*
G01X1651003Y-2043087D01*
G01X1630867Y-2045070D01*
G01X1611505Y-2050944D01*
G01X1593661Y-2060482D01*
G01X1578020Y-2073317D01*
G01X1565184Y-2088958D01*
G01X1555646Y-2106802D01*
G01X1549773Y-2126164D01*
G01X1547790Y-2146300D01*
G01X1500215Y-2146300D01*
G01X1498232Y-2126164D01*
G01X1492359Y-2106802D01*
G01X1482821Y-2088958D01*
G01X1469985Y-2073317D01*
G01X1454345Y-2060482D01*
G01X1436500Y-2050944D01*
G01X1417138Y-2045070D01*
G01X1397003Y-2043087D01*
G01X1397003Y-2043087D01*
G01X1376867Y-2045070D01*
G01X1357505Y-2050944D01*
G01X1339661Y-2060482D01*
G01X1324020Y-2073317D01*
G01X1311184Y-2088958D01*
G01X1301646Y-2106802D01*
G01X1295773Y-2126164D01*
G01X1293790Y-2146300D01*
G01X1246215Y-2146300D01*
G01X1244232Y-2126164D01*
G01X1238359Y-2106802D01*
G01X1228821Y-2088958D01*
G01X1215985Y-2073317D01*
G01X1200345Y-2060482D01*
G01X1182500Y-2050944D01*
G01X1163138Y-2045070D01*
G01X1143003Y-2043087D01*
G01X1143003Y-2043087D01*
G01X1122867Y-2045070D01*
G01X1103505Y-2050944D01*
G01X1085661Y-2060482D01*
G01X1070020Y-2073317D01*
G01X1057184Y-2088958D01*
G01X1047646Y-2106802D01*
G01X1041773Y-2126164D01*
G01X1039790Y-2146300D01*
G01X-573786Y-2146300D01*
G01X-573786Y-2017014D01*
G01X3634486Y-2017014D01*
G37*
G54D10*
G01X3634486Y-2017014D02*
G01X3634486Y-3812286D01*
G01X-573786Y-3812286D01*
G01X-573786Y-2017014D01*
G01X3634486Y-2017014D01*
G01X-148491Y-3399691D02*
G03X-69850Y-3411019I46891J46891D01*
G03X-6350Y-3411019I31750J58219D01*
G03X57150Y-3411019I31750J58219D01*
G03X135791Y-3399691I31750J58219D01*
G03X147119Y-3321050I-46891J46891D01*
G03X135791Y-3242409I-58219J31750D01*
G03X57150Y-3231081I-46891J-46891D01*
G03X-6350Y-3231081I-31750J-58219D01*
G03X-69850Y-3231081I-31750J-58219D01*
G03X-148491Y-3242409I-31750J-58219D01*
G03X-159819Y-3321050I46891J-46891D01*
G03X-148491Y-3399691I58219J-31750D01*
G01X726341Y-3356201D02*
G03X647700Y-3344873I-46891J-46891D01*
G03X569059Y-3356201I-31750J-58219D01*
G03X557731Y-3434842I46891J-46891D01*
G03X569059Y-3513483I58219J-31750D01*
G03X647700Y-3524811I46891J46891D01*
G03X726341Y-3513483I31750J58219D01*
G03X737669Y-3434842I-46891J46891D01*
G03X726341Y-3356201I-58219J31750D01*
G01X1143000Y-3567087D02*
G03X1143000Y-3773513I0J-103213D01*
G03X1143000Y-3567087I0J103213D01*
G01X1143003Y-2043087D02*
G03X1143003Y-2249513I0J-103213D01*
G03X1143003Y-2043087I0J103213D01*
G01X1397000Y-3567087D02*
G03X1397000Y-3773513I0J-103213D01*
G03X1397000Y-3567087I0J103213D01*
G01X1397003Y-2043087D02*
G03X1397003Y-2249513I0J-103213D01*
G03X1397003Y-2043087I0J103213D01*
G01X1650997Y-3567087D02*
G03X1650997Y-3773513I0J-103213D01*
G03X1650997Y-3567087I0J103213D01*
G01X1651003Y-2043087D02*
G03X1651003Y-2249513I0J-103213D01*
G03X1651003Y-2043087I0J103213D01*
G01X1904997Y-3567087D02*
G03X1904997Y-3773513I0J-103213D01*
G03X1904997Y-3567087I0J103213D01*
G01X1905003Y-2043087D02*
G03X1905003Y-2249513I0J-103213D01*
G03X1905003Y-2043087I0J103213D01*
G01X2158997Y-3567087D02*
G03X2158997Y-3773513I0J-103213D01*
G03X2158997Y-3567087I0J103213D01*
G01X2159003Y-2043087D02*
G03X2159003Y-2249513I0J-103213D01*
G03X2159003Y-2043087I0J103213D01*
G01X2301761Y-2908300D02*
G03X2573389Y-2908300I135814J0D01*
G03X2301761Y-2908300I-135814J0D01*
G01X2412997Y-3567087D02*
G03X2412997Y-3773513I0J-103213D01*
G03X2412997Y-3567087I0J103213D01*
G01X2413000Y-2043087D02*
G03X2413000Y-2249513I0J-103213D01*
G03X2413000Y-2043087I0J103213D01*
G01X2513846Y-2510471D02*
G03X2502518Y-2589112I46891J-46891D01*
G03X2513846Y-2667754I58219J-31750D01*
G03X2592488Y-2679082I46891J46891D01*
G03X2671129Y-2667754I31750J58219D01*
G03X2682457Y-2589112I-46891J46891D01*
G03X2671129Y-2510471I-58219J31750D01*
G03X2592488Y-2499143I-46891J-46891D01*
G03X2513846Y-2510471I-31750J-58219D01*
G01X2563785Y-3737699D02*
G03X2599599Y-3773513I35814J0D01*
G01X2734396Y-3773513D01*
G03X2770210Y-3737699I0J35814D01*
G01X2770210Y-3602901D01*
G03X2734396Y-3567087I-35814J0D01*
G01X2599599Y-3567087D01*
G03X2563785Y-3602901I0J-35814D01*
G01X2563785Y-3737699D01*
G01X2667000Y-2043087D02*
G03X2667000Y-2249513I0J-103213D01*
G03X2667000Y-2043087I0J103213D01*
G01X2920997Y-3773513D02*
G03X2920997Y-3567087I0J103213D01*
G03X2920997Y-3773513I0J-103213D01*
G01X2921000Y-2043087D02*
G03X2921000Y-2249513I0J-103213D01*
G03X2921000Y-2043087I0J103213D01*
G01X3121759Y-3191101D02*
G03X3110431Y-3269742I46891J-46891D01*
G03X3121759Y-3348383I58219J-31750D01*
G03X3200400Y-3359711I46891J46891D01*
G03X3279041Y-3348383I31750J58219D01*
G03X3290369Y-3269742I-46891J46891D01*
G03X3279041Y-3191101I-58219J31750D01*
G03X3200400Y-3179773I-46891J-46891D01*
G03X3121759Y-3191101I-31750J-58219D01*
G01X3505200Y-2411814D02*
G03X3505200Y-2160186I0J125814D01*
G03X3505200Y-2411814I0J-125814D01*
G01X3505200Y-3173814D02*
G03X3505200Y-2922186I0J125814D01*
G03X3505200Y-3173814I0J-125814D01*
G01X3505200Y-3681814D02*
G03X3505200Y-3430186I0J125814D01*
G03X3505200Y-3681814I0J-125814D01*
G01X3631014Y-3212000D02*
G03X3595200Y-3176186I-35814J0D01*
G01X3415200Y-3176186D01*
G03X3379386Y-3212000I0J-35814D01*
G01X3379386Y-3392000D01*
G03X3415200Y-3427814I35814J0D01*
G01X3595200Y-3427814D01*
G03X3631014Y-3392000I0J35814D01*
G01X3631014Y-3212000D01*
G01X3505200Y-2665814D02*
G03X3505200Y-2414186I0J125814D01*
G03X3505200Y-2665814I0J-125814D01*
G01X3505200Y-2919814D02*
G03X3505200Y-2668186I0J125814D01*
G03X3505200Y-2919814I0J-125814D01*
G54D11*
G01X2412997Y-3670300D02*
G01X2412997Y-3577247D01*
G01X2412997Y-3670300D02*
G01X2412997Y-3763353D01*
G01X2412997Y-3670300D02*
G01X2506050Y-3670300D01*
G01X2412997Y-3670300D02*
G01X2319945Y-3670300D01*
G01X3505200Y-3556000D02*
G01X3505200Y-3671654D01*
G01X3505200Y-3556000D02*
G01X3505200Y-3440346D01*
G01X3505200Y-3556000D02*
G01X3389546Y-3556000D01*
G01X3505200Y-3556000D02*
G01X3620854Y-3556000D01*
G04 Copper End*

G04 Pad Start*
G54D12*
G01X3505200Y-2286000D03*
G01X3505200Y-2540000D03*
G01X3505200Y-2794000D03*
G01X3505200Y-3048000D03*
G54D13*
G01X3505200Y-3302000D03*
G54D12*
G01X3505200Y-3556000D03*
G54D14*
G01X2921000Y-2146300D03*
G01X2667000Y-2146300D03*
G01X2413000Y-2146300D03*
G01X2159003Y-2146300D03*
G01X1905003Y-2146300D03*
G01X1651003Y-2146300D03*
G01X1397003Y-2146300D03*
G01X1143003Y-2146300D03*
G01X1143000Y-3670300D03*
G01X1397000Y-3670300D03*
G01X1650997Y-3670300D03*
G01X1904997Y-3670300D03*
G01X2158997Y-3670300D03*
G01X2412997Y-3670300D03*
G54D16*
G01X2666997Y-3670300D03*
G54D14*
G01X2920997Y-3670300D03*
G04 Pad End*

G04 Via Start*
G54D17*
G01X88900Y-3289300D03*
G01X88900Y-3352800D03*
G01X25400Y-3289300D03*
G01X25400Y-3352800D03*
G01X-38100Y-3289300D03*
G01X-38100Y-3352800D03*
G01X-101600Y-3289300D03*
G01X-101600Y-3352800D03*
G01X-107950Y-3549650D03*
G01X-107950Y-3613150D03*
G01X-44450Y-3613150D03*
G01X-44450Y-3549650D03*
G01X19050Y-3549650D03*
G01X82550Y-3549650D03*
G01X82550Y-3613150D03*
G01X19050Y-3613150D03*
G01X679450Y-3466592D03*
G01X615950Y-3466592D03*
G01X615950Y-3403092D03*
G01X679450Y-3403092D03*
G01X297434Y-3403092D03*
G01X360934Y-3403092D03*
G01X360934Y-3466592D03*
G01X297434Y-3466592D03*
G01X3168650Y-3556508D03*
G01X3232150Y-3556508D03*
G01X3232150Y-3620008D03*
G01X3168650Y-3620008D03*
G01X3168650Y-3237992D03*
G01X3232150Y-3237992D03*
G01X3232150Y-3301492D03*
G01X3168650Y-3301492D03*
G01X2785962Y-2332138D03*
G01X2849462Y-2332138D03*
G01X2785962Y-2395638D03*
G01X2849462Y-2395638D03*
G01X2560738Y-2557362D03*
G01X2560738Y-2620862D03*
G01X2624238Y-2620862D03*
G01X2624238Y-2557362D03*
G04 Via End*

M02*

