G04 Layer: InnerLayer1*
G04 EasyEDA Pro v3.2.148, 2026-07-10 19:43:19*
G04 Gerber Generator version 0.3*
G04 Scale: 100 percent, Rotated: No, Reflected: No*
G04 Dimensions in millimeters*
G04 Leading zeros omitted, absolute positions, 4 integers and 5 decimals*
G04 Generated by one-click*
G04 Object Configs: Pad,Via,Track,Text,Image,Dimension,BoardOutline,BoardCutout,CopperFilled,SolidRegion,FPCStiffener,Line,PlaneZone,ComponentProperty,ComponentSilkscreen,TearDrop*
G04 Layer Configs: 1,15,16,2,3,4,5,6,7,8,9,10,11,13,14,56*
G04 Copper Areas: 9*
%FSLAX45Y45*%
%MOMM*%
%ADD10C,0.2032*%
%ADD11C,0.254*%
%ADD12C,1.8*%
%ADD13R,1.8X1.8*%
%ADD14C,1.34798*%
%ADD15R,1.34798X1.34798*%
%ADD16C,0.6104*%
%ADD17C,0.61*%
G75*


G04 Copper Start*
G36*
G01X3634486Y-2017014D02*
G01X3634486Y-3812286D01*
G01X-573786Y-3812286D01*
G01X-573786Y-3554357D01*
G01X-174097Y-3554357D01*
G01X-171586Y-3568305D01*
G01X-166169Y-3581400D01*
G01X-171586Y-3594495D01*
G01X-174097Y-3608443D01*
G01X-173587Y-3622605D01*
G01X-170079Y-3636335D01*
G01X-163734Y-3649007D01*
G01X-154841Y-3660041D01*
G01X-154841Y-3660041D01*
G01X-143807Y-3668934D01*
G01X-131135Y-3675279D01*
G01X-117405Y-3678787D01*
G01X-103243Y-3679297D01*
G01X-89295Y-3676786D01*
G01X-76200Y-3671369D01*
G01X-64019Y-3676511D01*
G01X-51061Y-3679134D01*
G01X-37839Y-3679134D01*
G01X-24881Y-3676511D01*
G01X-12700Y-3671369D01*
G01X-519Y-3676511D01*
G01X12439Y-3679134D01*
G01X25661Y-3679134D01*
G01X38619Y-3676511D01*
G01X50800Y-3671369D01*
G01X63895Y-3676786D01*
G01X77843Y-3679297D01*
G01X92005Y-3678787D01*
G01X105735Y-3675279D01*
G01X115679Y-3670300D01*
G01X1039787Y-3670300D01*
G01X1041770Y-3690436D01*
G01X1047644Y-3709798D01*
G01X1057182Y-3727642D01*
G01X1070017Y-3743283D01*
G01X1085658Y-3756118D01*
G01X1103502Y-3765656D01*
G01X1122864Y-3771530D01*
G01X1143000Y-3773513D01*
G01X1163136Y-3771530D01*
G01X1182498Y-3765656D01*
G01X1200342Y-3756118D01*
G01X1215983Y-3743283D01*
G01X1228818Y-3727642D01*
G01X1238356Y-3709798D01*
G01X1244230Y-3690436D01*
G01X1246213Y-3670300D01*
G01X1293787Y-3670300D01*
G01X1295770Y-3690436D01*
G01X1301644Y-3709798D01*
G01X1311182Y-3727642D01*
G01X1324017Y-3743283D01*
G01X1339658Y-3756118D01*
G01X1357502Y-3765656D01*
G01X1376864Y-3771530D01*
G01X1397000Y-3773513D01*
G01X1417136Y-3771530D01*
G01X1436498Y-3765656D01*
G01X1454342Y-3756118D01*
G01X1469983Y-3743283D01*
G01X1482818Y-3727642D01*
G01X1492356Y-3709798D01*
G01X1498230Y-3690436D01*
G01X1500213Y-3670300D01*
G01X1547785Y-3670300D01*
G01X1549768Y-3690436D01*
G01X1555641Y-3709798D01*
G01X1565179Y-3727642D01*
G01X1578015Y-3743283D01*
G01X1593655Y-3756118D01*
G01X1611500Y-3765656D01*
G01X1630862Y-3771530D01*
G01X1650997Y-3773513D01*
G01X1671133Y-3771530D01*
G01X1690495Y-3765656D01*
G01X1708339Y-3756118D01*
G01X1723980Y-3743283D01*
G01X1736816Y-3727642D01*
G01X1746354Y-3709798D01*
G01X1752227Y-3690436D01*
G01X1754210Y-3670300D01*
G01X1801785Y-3670300D01*
G01X1803768Y-3690436D01*
G01X1809641Y-3709798D01*
G01X1819179Y-3727642D01*
G01X1832015Y-3743283D01*
G01X1847655Y-3756118D01*
G01X1865500Y-3765656D01*
G01X1884862Y-3771530D01*
G01X1904997Y-3773513D01*
G01X1925133Y-3771530D01*
G01X1944495Y-3765656D01*
G01X1962339Y-3756118D01*
G01X1977980Y-3743283D01*
G01X1990816Y-3727642D01*
G01X2000354Y-3709798D01*
G01X2006227Y-3690436D01*
G01X2008210Y-3670300D01*
G01X2055785Y-3670300D01*
G01X2057768Y-3690436D01*
G01X2063641Y-3709798D01*
G01X2073179Y-3727642D01*
G01X2086015Y-3743283D01*
G01X2101655Y-3756118D01*
G01X2119500Y-3765656D01*
G01X2138862Y-3771530D01*
G01X2158997Y-3773513D01*
G01X2179133Y-3771530D01*
G01X2198495Y-3765656D01*
G01X2216339Y-3756118D01*
G01X2231980Y-3743283D01*
G01X2244816Y-3727642D01*
G01X2254354Y-3709798D01*
G01X2260227Y-3690436D01*
G01X2262210Y-3670300D01*
G01X2309785Y-3670300D01*
G01X2311768Y-3690436D01*
G01X2317641Y-3709798D01*
G01X2327179Y-3727642D01*
G01X2340015Y-3743283D01*
G01X2355655Y-3756118D01*
G01X2373500Y-3765656D01*
G01X2392862Y-3771530D01*
G01X2412997Y-3773513D01*
G01X2433133Y-3771530D01*
G01X2452495Y-3765656D01*
G01X2470339Y-3756118D01*
G01X2485980Y-3743283D01*
G01X2490562Y-3737699D01*
G01X2563785Y-3737699D01*
G01X2565537Y-3748766D01*
G01X2570624Y-3758750D01*
G01X2578548Y-3766673D01*
G01X2588531Y-3771760D01*
G01X2599599Y-3773513D01*
G01X2734396Y-3773513D01*
G01X2745463Y-3771760D01*
G01X2755447Y-3766673D01*
G01X2763370Y-3758750D01*
G01X2768457Y-3748766D01*
G01X2770210Y-3737699D01*
G01X2770210Y-3670300D01*
G01X2817785Y-3670300D01*
G01X2819768Y-3690436D01*
G01X2825641Y-3709798D01*
G01X2835179Y-3727642D01*
G01X2848015Y-3743283D01*
G01X2863655Y-3756118D01*
G01X2881500Y-3765656D01*
G01X2900862Y-3771530D01*
G01X2920997Y-3773513D01*
G01X2920997Y-3773513D01*
G01X2941133Y-3771530D01*
G01X2960495Y-3765656D01*
G01X2978339Y-3756118D01*
G01X2993980Y-3743283D01*
G01X3006816Y-3727642D01*
G01X3016354Y-3709798D01*
G01X3022227Y-3690436D01*
G01X3024210Y-3670300D01*
G01X3022227Y-3650164D01*
G01X3016354Y-3630802D01*
G01X3006816Y-3612958D01*
G01X2993980Y-3597317D01*
G01X2978339Y-3584482D01*
G01X2960495Y-3574944D01*
G01X2941133Y-3569070D01*
G01X2920997Y-3567087D01*
G01X2900862Y-3569070D01*
G01X2881500Y-3574944D01*
G01X2863655Y-3584482D01*
G01X2848015Y-3597317D01*
G01X2835179Y-3612958D01*
G01X2825641Y-3630802D01*
G01X2819768Y-3650164D01*
G01X2817785Y-3670300D01*
G01X2770210Y-3670300D01*
G01X2770210Y-3602901D01*
G01X2768457Y-3591834D01*
G01X2763370Y-3581850D01*
G01X2755447Y-3573927D01*
G01X2745463Y-3568840D01*
G01X2734396Y-3567087D01*
G01X2599599Y-3567087D01*
G01X2588531Y-3568840D01*
G01X2578548Y-3573927D01*
G01X2570624Y-3581850D01*
G01X2565537Y-3591834D01*
G01X2563785Y-3602901D01*
G01X2563785Y-3737699D01*
G01X2563785Y-3737699D01*
G01X2490562Y-3737699D01*
G01X2498816Y-3727642D01*
G01X2508354Y-3709798D01*
G01X2514227Y-3690436D01*
G01X2516210Y-3670300D01*
G01X2514227Y-3650164D01*
G01X2508354Y-3630802D01*
G01X2498816Y-3612958D01*
G01X2485980Y-3597317D01*
G01X2470339Y-3584482D01*
G01X2452495Y-3574944D01*
G01X2433133Y-3569070D01*
G01X2412997Y-3567087D01*
G01X2412997Y-3567087D01*
G01X2392862Y-3569070D01*
G01X2373500Y-3574944D01*
G01X2355655Y-3584482D01*
G01X2340015Y-3597317D01*
G01X2327179Y-3612958D01*
G01X2317641Y-3630802D01*
G01X2311768Y-3650164D01*
G01X2309785Y-3670300D01*
G01X2262210Y-3670300D01*
G01X2260227Y-3650164D01*
G01X2254354Y-3630802D01*
G01X2244816Y-3612958D01*
G01X2231980Y-3597317D01*
G01X2216339Y-3584482D01*
G01X2198495Y-3574944D01*
G01X2179133Y-3569070D01*
G01X2158997Y-3567087D01*
G01X2158997Y-3567087D01*
G01X2138862Y-3569070D01*
G01X2119500Y-3574944D01*
G01X2101655Y-3584482D01*
G01X2086015Y-3597317D01*
G01X2073179Y-3612958D01*
G01X2063641Y-3630802D01*
G01X2057768Y-3650164D01*
G01X2055785Y-3670300D01*
G01X2008210Y-3670300D01*
G01X2006227Y-3650164D01*
G01X2000354Y-3630802D01*
G01X1990816Y-3612958D01*
G01X1977980Y-3597317D01*
G01X1962339Y-3584482D01*
G01X1944495Y-3574944D01*
G01X1925133Y-3569070D01*
G01X1904997Y-3567087D01*
G01X1904997Y-3567087D01*
G01X1884862Y-3569070D01*
G01X1865500Y-3574944D01*
G01X1847655Y-3584482D01*
G01X1832015Y-3597317D01*
G01X1819179Y-3612958D01*
G01X1809641Y-3630802D01*
G01X1803768Y-3650164D01*
G01X1801785Y-3670300D01*
G01X1754210Y-3670300D01*
G01X1752227Y-3650164D01*
G01X1746354Y-3630802D01*
G01X1736816Y-3612958D01*
G01X1723980Y-3597317D01*
G01X1708339Y-3584482D01*
G01X1690495Y-3574944D01*
G01X1671133Y-3569070D01*
G01X1650997Y-3567087D01*
G01X1650997Y-3567087D01*
G01X1630862Y-3569070D01*
G01X1611500Y-3574944D01*
G01X1593655Y-3584482D01*
G01X1578015Y-3597317D01*
G01X1565179Y-3612958D01*
G01X1555641Y-3630802D01*
G01X1549768Y-3650164D01*
G01X1547785Y-3670300D01*
G01X1500213Y-3670300D01*
G01X1498230Y-3650164D01*
G01X1492356Y-3630802D01*
G01X1482818Y-3612958D01*
G01X1469983Y-3597317D01*
G01X1454342Y-3584482D01*
G01X1436498Y-3574944D01*
G01X1417136Y-3569070D01*
G01X1397000Y-3567087D01*
G01X1397000Y-3567087D01*
G01X1376864Y-3569070D01*
G01X1357502Y-3574944D01*
G01X1339658Y-3584482D01*
G01X1324017Y-3597317D01*
G01X1311182Y-3612958D01*
G01X1301644Y-3630802D01*
G01X1295770Y-3650164D01*
G01X1293787Y-3670300D01*
G01X1246213Y-3670300D01*
G01X1246213Y-3670300D01*
G01X1244230Y-3650164D01*
G01X1238356Y-3630802D01*
G01X1228818Y-3612958D01*
G01X1215983Y-3597317D01*
G01X1200342Y-3584482D01*
G01X1182498Y-3574944D01*
G01X1163136Y-3569070D01*
G01X1143000Y-3567087D01*
G01X1143000Y-3567087D01*
G01X1122864Y-3569070D01*
G01X1103502Y-3574944D01*
G01X1085658Y-3584482D01*
G01X1070017Y-3597317D01*
G01X1057182Y-3612958D01*
G01X1047644Y-3630802D01*
G01X1041770Y-3650164D01*
G01X1039787Y-3670300D01*
G01X115679Y-3670300D01*
G01X118407Y-3668934D01*
G01X129441Y-3660041D01*
G01X138334Y-3649007D01*
G01X144679Y-3636335D01*
G01X148187Y-3622605D01*
G01X148697Y-3608443D01*
G01X146186Y-3594495D01*
G01X140769Y-3581400D01*
G01X146186Y-3568305D01*
G01X147462Y-3561215D01*
G01X3102503Y-3561215D01*
G01X3105014Y-3575163D01*
G01X3110431Y-3588258D01*
G01X3105014Y-3601353D01*
G01X3102503Y-3615301D01*
G01X3103013Y-3629463D01*
G01X3106521Y-3643193D01*
G01X3112866Y-3655865D01*
G01X3121759Y-3666899D01*
G01X3132793Y-3675792D01*
G01X3145465Y-3682137D01*
G01X3159195Y-3685645D01*
G01X3173357Y-3686155D01*
G01X3187305Y-3683644D01*
G01X3200400Y-3678227D01*
G01X3213495Y-3683644D01*
G01X3227443Y-3686155D01*
G01X3241605Y-3685645D01*
G01X3255335Y-3682137D01*
G01X3268007Y-3675792D01*
G01X3279041Y-3666899D01*
G01X3287934Y-3655865D01*
G01X3294279Y-3643193D01*
G01X3297787Y-3629463D01*
G01X3298297Y-3615301D01*
G01X3295786Y-3601353D01*
G01X3290369Y-3588258D01*
G01X3295786Y-3575163D01*
G01X3298297Y-3561215D01*
G01X3298109Y-3556000D01*
G01X3379386Y-3556000D01*
G01X3381298Y-3577847D01*
G01X3386974Y-3599031D01*
G01X3396242Y-3618907D01*
G01X3408821Y-3636872D01*
G01X3424328Y-3652379D01*
G01X3442293Y-3664958D01*
G01X3462169Y-3674226D01*
G01X3483353Y-3679902D01*
G01X3505200Y-3681814D01*
G01X3505200Y-3681814D01*
G01X3527047Y-3679902D01*
G01X3548231Y-3674226D01*
G01X3568107Y-3664958D01*
G01X3586072Y-3652379D01*
G01X3601579Y-3636872D01*
G01X3614158Y-3618907D01*
G01X3623426Y-3599031D01*
G01X3629102Y-3577847D01*
G01X3631014Y-3556000D01*
G01X3629102Y-3534153D01*
G01X3623426Y-3512969D01*
G01X3614158Y-3493093D01*
G01X3601579Y-3475128D01*
G01X3586072Y-3459621D01*
G01X3568107Y-3447042D01*
G01X3548231Y-3437774D01*
G01X3527047Y-3432098D01*
G01X3505200Y-3430186D01*
G01X3483353Y-3432098D01*
G01X3462169Y-3437774D01*
G01X3442293Y-3447042D01*
G01X3424328Y-3459621D01*
G01X3408821Y-3475128D01*
G01X3396242Y-3493093D01*
G01X3386974Y-3512969D01*
G01X3381298Y-3534153D01*
G01X3379386Y-3556000D01*
G01X3298109Y-3556000D01*
G01X3297787Y-3547053D01*
G01X3294279Y-3533323D01*
G01X3287934Y-3520651D01*
G01X3279041Y-3509617D01*
G01X3279041Y-3509617D01*
G01X3268007Y-3500724D01*
G01X3255335Y-3494379D01*
G01X3241605Y-3490871D01*
G01X3227443Y-3490361D01*
G01X3213495Y-3492872D01*
G01X3200400Y-3498289D01*
G01X3187305Y-3492872D01*
G01X3173357Y-3490361D01*
G01X3159195Y-3490871D01*
G01X3145465Y-3494379D01*
G01X3132793Y-3500724D01*
G01X3121759Y-3509617D01*
G01X3112866Y-3520651D01*
G01X3106521Y-3533323D01*
G01X3103013Y-3547053D01*
G01X3102503Y-3561215D01*
G01X147462Y-3561215D01*
G01X148697Y-3554357D01*
G01X148187Y-3540195D01*
G01X144679Y-3526465D01*
G01X138334Y-3513793D01*
G01X129441Y-3502759D01*
G01X118407Y-3493866D01*
G01X105735Y-3487521D01*
G01X92005Y-3484013D01*
G01X77843Y-3483503D01*
G01X63895Y-3486014D01*
G01X50800Y-3491431D01*
G01X38619Y-3486289D01*
G01X25661Y-3483666D01*
G01X12439Y-3483666D01*
G01X-519Y-3486289D01*
G01X-12700Y-3491431D01*
G01X-24881Y-3486289D01*
G01X-37839Y-3483666D01*
G01X-51061Y-3483666D01*
G01X-64019Y-3486289D01*
G01X-76200Y-3491431D01*
G01X-89295Y-3486014D01*
G01X-103243Y-3483503D01*
G01X-117405Y-3484013D01*
G01X-131135Y-3487521D01*
G01X-143807Y-3493866D01*
G01X-154841Y-3502759D01*
G01X-163734Y-3513793D01*
G01X-170079Y-3526465D01*
G01X-173587Y-3540195D01*
G01X-174097Y-3554357D01*
G01X-573786Y-3554357D01*
G01X-573786Y-3407799D01*
G01X231287Y-3407799D01*
G01X233798Y-3421747D01*
G01X239215Y-3434842D01*
G01X233798Y-3447937D01*
G01X231287Y-3461885D01*
G01X231797Y-3476047D01*
G01X235305Y-3489777D01*
G01X241650Y-3502449D01*
G01X250543Y-3513483D01*
G01X250543Y-3513483D01*
G01X261577Y-3522376D01*
G01X274249Y-3528721D01*
G01X287979Y-3532229D01*
G01X302141Y-3532739D01*
G01X316089Y-3530228D01*
G01X329184Y-3524811D01*
G01X342279Y-3530228D01*
G01X356227Y-3532739D01*
G01X370389Y-3532229D01*
G01X384119Y-3528721D01*
G01X396791Y-3522376D01*
G01X407825Y-3513483D01*
G01X416718Y-3502449D01*
G01X423063Y-3489777D01*
G01X426571Y-3476047D01*
G01X427081Y-3461885D01*
G01X424570Y-3447937D01*
G01X419153Y-3434842D01*
G01X424570Y-3421747D01*
G01X427081Y-3407799D01*
G01X426571Y-3393637D01*
G01X423063Y-3379907D01*
G01X416718Y-3367235D01*
G01X407825Y-3356201D01*
G01X396791Y-3347308D01*
G01X384119Y-3340963D01*
G01X370389Y-3337455D01*
G01X356227Y-3336945D01*
G01X342279Y-3339456D01*
G01X329184Y-3344873D01*
G01X316089Y-3339456D01*
G01X302141Y-3336945D01*
G01X287979Y-3337455D01*
G01X274249Y-3340963D01*
G01X261577Y-3347308D01*
G01X250543Y-3356201D01*
G01X241650Y-3367235D01*
G01X235305Y-3379907D01*
G01X231797Y-3393637D01*
G01X231287Y-3407799D01*
G01X-573786Y-3407799D01*
G01X-573786Y-3212000D01*
G01X3379386Y-3212000D01*
G01X3379386Y-3392000D01*
G01X3381139Y-3403067D01*
G01X3386226Y-3413051D01*
G01X3394149Y-3420974D01*
G01X3404133Y-3426061D01*
G01X3415200Y-3427814D01*
G01X3595200Y-3427814D01*
G01X3606267Y-3426061D01*
G01X3616251Y-3420974D01*
G01X3624174Y-3413051D01*
G01X3629261Y-3403067D01*
G01X3631014Y-3392000D01*
G01X3631014Y-3212000D01*
G01X3631014Y-3212000D01*
G01X3629261Y-3200933D01*
G01X3624174Y-3190949D01*
G01X3616251Y-3183026D01*
G01X3606267Y-3177939D01*
G01X3595200Y-3176186D01*
G01X3415200Y-3176186D01*
G01X3404133Y-3177939D01*
G01X3394149Y-3183026D01*
G01X3386226Y-3190949D01*
G01X3381139Y-3200933D01*
G01X3379386Y-3212000D01*
G01X-573786Y-3212000D01*
G01X-573786Y-3048000D01*
G01X3379386Y-3048000D01*
G01X3381298Y-3069847D01*
G01X3386974Y-3091031D01*
G01X3396242Y-3110907D01*
G01X3408821Y-3128872D01*
G01X3424328Y-3144379D01*
G01X3442293Y-3156958D01*
G01X3462169Y-3166226D01*
G01X3483353Y-3171902D01*
G01X3505200Y-3173814D01*
G01X3505200Y-3173814D01*
G01X3527047Y-3171902D01*
G01X3548231Y-3166226D01*
G01X3568107Y-3156958D01*
G01X3586072Y-3144379D01*
G01X3601579Y-3128872D01*
G01X3614158Y-3110907D01*
G01X3623426Y-3091031D01*
G01X3629102Y-3069847D01*
G01X3631014Y-3048000D01*
G01X3629102Y-3026153D01*
G01X3623426Y-3004969D01*
G01X3614158Y-2985093D01*
G01X3601579Y-2967128D01*
G01X3586072Y-2951621D01*
G01X3568107Y-2939042D01*
G01X3548231Y-2929774D01*
G01X3527047Y-2924098D01*
G01X3505200Y-2922186D01*
G01X3483353Y-2924098D01*
G01X3462169Y-2929774D01*
G01X3442293Y-2939042D01*
G01X3424328Y-2951621D01*
G01X3408821Y-2967128D01*
G01X3396242Y-2985093D01*
G01X3386974Y-3004969D01*
G01X3381298Y-3026153D01*
G01X3379386Y-3048000D01*
G01X-573786Y-3048000D01*
G01X-573786Y-2908300D01*
G01X2301761Y-2908300D01*
G01X2303613Y-2930654D01*
G01X2309120Y-2952399D01*
G01X2318130Y-2972940D01*
G01X2330399Y-2991719D01*
G01X2345591Y-3008222D01*
G01X2363292Y-3021999D01*
G01X2383019Y-3032675D01*
G01X2404235Y-3039958D01*
G01X2426360Y-3043650D01*
G01X2448791Y-3043650D01*
G01X2470916Y-3039958D01*
G01X2492131Y-3032675D01*
G01X2511858Y-3021999D01*
G01X2529560Y-3008222D01*
G01X2544752Y-2991719D01*
G01X2557020Y-2972940D01*
G01X2566030Y-2952399D01*
G01X2571537Y-2930654D01*
G01X2573389Y-2908300D01*
G01X2571537Y-2885946D01*
G01X2566030Y-2864201D01*
G01X2557020Y-2843660D01*
G01X2544752Y-2824881D01*
G01X2529560Y-2808378D01*
G01X2511858Y-2794601D01*
G01X2510748Y-2794000D01*
G01X3379386Y-2794000D01*
G01X3381298Y-2815847D01*
G01X3386974Y-2837031D01*
G01X3396242Y-2856907D01*
G01X3408821Y-2874872D01*
G01X3424328Y-2890379D01*
G01X3442293Y-2902958D01*
G01X3462169Y-2912226D01*
G01X3483353Y-2917902D01*
G01X3505200Y-2919814D01*
G01X3505200Y-2919814D01*
G01X3527047Y-2917902D01*
G01X3548231Y-2912226D01*
G01X3568107Y-2902958D01*
G01X3586072Y-2890379D01*
G01X3601579Y-2874872D01*
G01X3614158Y-2856907D01*
G01X3623426Y-2837031D01*
G01X3629102Y-2815847D01*
G01X3631014Y-2794000D01*
G01X3629102Y-2772153D01*
G01X3623426Y-2750969D01*
G01X3614158Y-2731093D01*
G01X3601579Y-2713128D01*
G01X3586072Y-2697621D01*
G01X3568107Y-2685042D01*
G01X3548231Y-2675774D01*
G01X3527047Y-2670098D01*
G01X3505200Y-2668186D01*
G01X3483353Y-2670098D01*
G01X3462169Y-2675774D01*
G01X3442293Y-2685042D01*
G01X3424328Y-2697621D01*
G01X3408821Y-2713128D01*
G01X3396242Y-2731093D01*
G01X3386974Y-2750969D01*
G01X3381298Y-2772153D01*
G01X3379386Y-2794000D01*
G01X2510748Y-2794000D01*
G01X2492131Y-2783925D01*
G01X2470916Y-2776642D01*
G01X2448791Y-2772950D01*
G01X2426360Y-2772950D01*
G01X2404235Y-2776642D01*
G01X2383019Y-2783925D01*
G01X2363292Y-2794601D01*
G01X2345591Y-2808378D01*
G01X2330399Y-2824881D01*
G01X2318130Y-2843660D01*
G01X2309120Y-2864201D01*
G01X2303613Y-2885946D01*
G01X2301761Y-2908300D01*
G01X2301761Y-2908300D01*
G01X-573786Y-2908300D01*
G01X-573786Y-2540000D01*
G01X3379386Y-2540000D01*
G01X3381298Y-2561847D01*
G01X3386974Y-2583031D01*
G01X3396242Y-2602907D01*
G01X3408821Y-2620872D01*
G01X3424328Y-2636379D01*
G01X3442293Y-2648958D01*
G01X3462169Y-2658226D01*
G01X3483353Y-2663902D01*
G01X3505200Y-2665814D01*
G01X3505200Y-2665814D01*
G01X3527047Y-2663902D01*
G01X3548231Y-2658226D01*
G01X3568107Y-2648958D01*
G01X3586072Y-2636379D01*
G01X3601579Y-2620872D01*
G01X3614158Y-2602907D01*
G01X3623426Y-2583031D01*
G01X3629102Y-2561847D01*
G01X3631014Y-2540000D01*
G01X3629102Y-2518153D01*
G01X3623426Y-2496969D01*
G01X3614158Y-2477093D01*
G01X3601579Y-2459128D01*
G01X3586072Y-2443621D01*
G01X3568107Y-2431042D01*
G01X3548231Y-2421774D01*
G01X3527047Y-2416098D01*
G01X3505200Y-2414186D01*
G01X3483353Y-2416098D01*
G01X3462169Y-2421774D01*
G01X3442293Y-2431042D01*
G01X3424328Y-2443621D01*
G01X3408821Y-2459128D01*
G01X3396242Y-2477093D01*
G01X3386974Y-2496969D01*
G01X3381298Y-2518153D01*
G01X3379386Y-2540000D01*
G01X-573786Y-2540000D01*
G01X-573786Y-2336845D01*
G01X2719816Y-2336845D01*
G01X2722326Y-2350792D01*
G01X2727743Y-2363888D01*
G01X2722326Y-2376983D01*
G01X2719816Y-2390930D01*
G01X2720326Y-2405093D01*
G01X2723834Y-2418823D01*
G01X2730179Y-2431495D01*
G01X2739071Y-2442529D01*
G01X2750105Y-2451421D01*
G01X2762777Y-2457766D01*
G01X2776507Y-2461274D01*
G01X2790670Y-2461784D01*
G01X2804617Y-2459274D01*
G01X2817712Y-2453857D01*
G01X2830808Y-2459274D01*
G01X2844755Y-2461784D01*
G01X2858917Y-2461274D01*
G01X2872648Y-2457766D01*
G01X2885319Y-2451421D01*
G01X2896354Y-2442529D01*
G01X2905246Y-2431495D01*
G01X2911591Y-2418823D01*
G01X2915099Y-2405093D01*
G01X2915609Y-2390930D01*
G01X2913099Y-2376983D01*
G01X2907682Y-2363888D01*
G01X2913099Y-2350792D01*
G01X2915609Y-2336845D01*
G01X2915099Y-2322683D01*
G01X2911591Y-2308952D01*
G01X2905246Y-2296281D01*
G01X2896961Y-2286000D01*
G01X3379386Y-2286000D01*
G01X3381298Y-2307847D01*
G01X3386974Y-2329031D01*
G01X3396242Y-2348907D01*
G01X3408821Y-2366872D01*
G01X3424328Y-2382379D01*
G01X3442293Y-2394958D01*
G01X3462169Y-2404226D01*
G01X3483353Y-2409902D01*
G01X3505200Y-2411814D01*
G01X3505200Y-2411814D01*
G01X3527047Y-2409902D01*
G01X3548231Y-2404226D01*
G01X3568107Y-2394958D01*
G01X3586072Y-2382379D01*
G01X3601579Y-2366872D01*
G01X3614158Y-2348907D01*
G01X3623426Y-2329031D01*
G01X3629102Y-2307847D01*
G01X3631014Y-2286000D01*
G01X3629102Y-2264153D01*
G01X3623426Y-2242969D01*
G01X3614158Y-2223093D01*
G01X3601579Y-2205128D01*
G01X3586072Y-2189621D01*
G01X3568107Y-2177042D01*
G01X3548231Y-2167774D01*
G01X3527047Y-2162098D01*
G01X3505200Y-2160186D01*
G01X3483353Y-2162098D01*
G01X3462169Y-2167774D01*
G01X3442293Y-2177042D01*
G01X3424328Y-2189621D01*
G01X3408821Y-2205128D01*
G01X3396242Y-2223093D01*
G01X3386974Y-2242969D01*
G01X3381298Y-2264153D01*
G01X3379386Y-2286000D01*
G01X2896961Y-2286000D01*
G01X2896354Y-2285246D01*
G01X2896354Y-2285246D01*
G01X2885319Y-2276354D01*
G01X2872648Y-2270009D01*
G01X2858917Y-2266501D01*
G01X2844755Y-2265991D01*
G01X2830808Y-2268501D01*
G01X2817712Y-2273918D01*
G01X2804617Y-2268501D01*
G01X2790670Y-2265991D01*
G01X2776507Y-2266501D01*
G01X2762777Y-2270009D01*
G01X2750105Y-2276354D01*
G01X2739071Y-2285246D01*
G01X2730179Y-2296281D01*
G01X2723834Y-2308952D01*
G01X2720326Y-2322683D01*
G01X2719816Y-2336845D01*
G01X-573786Y-2336845D01*
G01X-573786Y-2146300D01*
G01X1039790Y-2146300D01*
G01X1041773Y-2166436D01*
G01X1047646Y-2185798D01*
G01X1057184Y-2203642D01*
G01X1070020Y-2219283D01*
G01X1085661Y-2232118D01*
G01X1103505Y-2241656D01*
G01X1122867Y-2247530D01*
G01X1143003Y-2249513D01*
G01X1163138Y-2247530D01*
G01X1182500Y-2241656D01*
G01X1200345Y-2232118D01*
G01X1215985Y-2219283D01*
G01X1228821Y-2203642D01*
G01X1238359Y-2185798D01*
G01X1244232Y-2166436D01*
G01X1246215Y-2146300D01*
G01X1293790Y-2146300D01*
G01X1295773Y-2166436D01*
G01X1301646Y-2185798D01*
G01X1311184Y-2203642D01*
G01X1324020Y-2219283D01*
G01X1339661Y-2232118D01*
G01X1357505Y-2241656D01*
G01X1376867Y-2247530D01*
G01X1397003Y-2249513D01*
G01X1417138Y-2247530D01*
G01X1436500Y-2241656D01*
G01X1454345Y-2232118D01*
G01X1469985Y-2219283D01*
G01X1482821Y-2203642D01*
G01X1492359Y-2185798D01*
G01X1498232Y-2166436D01*
G01X1500215Y-2146300D01*
G01X1547790Y-2146300D01*
G01X1549773Y-2166436D01*
G01X1555646Y-2185798D01*
G01X1565184Y-2203642D01*
G01X1578020Y-2219283D01*
G01X1593661Y-2232118D01*
G01X1611505Y-2241656D01*
G01X1630867Y-2247530D01*
G01X1651003Y-2249513D01*
G01X1671138Y-2247530D01*
G01X1690500Y-2241656D01*
G01X1708345Y-2232118D01*
G01X1723985Y-2219283D01*
G01X1736821Y-2203642D01*
G01X1746359Y-2185798D01*
G01X1752232Y-2166436D01*
G01X1754215Y-2146300D01*
G01X1801790Y-2146300D01*
G01X1803773Y-2166436D01*
G01X1809646Y-2185798D01*
G01X1819184Y-2203642D01*
G01X1832020Y-2219283D01*
G01X1847661Y-2232118D01*
G01X1865505Y-2241656D01*
G01X1884867Y-2247530D01*
G01X1905003Y-2249513D01*
G01X1925138Y-2247530D01*
G01X1944500Y-2241656D01*
G01X1962345Y-2232118D01*
G01X1977985Y-2219283D01*
G01X1990821Y-2203642D01*
G01X2000359Y-2185798D01*
G01X2006232Y-2166436D01*
G01X2008215Y-2146300D01*
G01X2055790Y-2146300D01*
G01X2057773Y-2166436D01*
G01X2063646Y-2185798D01*
G01X2073184Y-2203642D01*
G01X2086020Y-2219283D01*
G01X2101661Y-2232118D01*
G01X2119505Y-2241656D01*
G01X2138867Y-2247530D01*
G01X2159003Y-2249513D01*
G01X2179138Y-2247530D01*
G01X2198500Y-2241656D01*
G01X2216345Y-2232118D01*
G01X2231985Y-2219283D01*
G01X2244821Y-2203642D01*
G01X2254359Y-2185798D01*
G01X2260232Y-2166436D01*
G01X2262215Y-2146300D01*
G01X2262215Y-2146300D01*
G01X2309787Y-2146300D01*
G01X2311770Y-2166436D01*
G01X2317644Y-2185798D01*
G01X2327182Y-2203642D01*
G01X2340017Y-2219283D01*
G01X2355658Y-2232118D01*
G01X2373502Y-2241656D01*
G01X2392864Y-2247530D01*
G01X2413000Y-2249513D01*
G01X2433136Y-2247530D01*
G01X2452498Y-2241656D01*
G01X2470342Y-2232118D01*
G01X2485983Y-2219283D01*
G01X2498818Y-2203642D01*
G01X2508356Y-2185798D01*
G01X2514230Y-2166436D01*
G01X2516213Y-2146300D01*
G01X2563787Y-2146300D01*
G01X2565770Y-2166436D01*
G01X2571644Y-2185798D01*
G01X2581182Y-2203642D01*
G01X2594017Y-2219283D01*
G01X2609658Y-2232118D01*
G01X2627502Y-2241656D01*
G01X2646864Y-2247530D01*
G01X2667000Y-2249513D01*
G01X2687136Y-2247530D01*
G01X2706498Y-2241656D01*
G01X2724342Y-2232118D01*
G01X2739983Y-2219283D01*
G01X2752818Y-2203642D01*
G01X2762356Y-2185798D01*
G01X2768230Y-2166436D01*
G01X2770213Y-2146300D01*
G01X2817787Y-2146300D01*
G01X2819770Y-2166436D01*
G01X2825644Y-2185798D01*
G01X2835182Y-2203642D01*
G01X2848017Y-2219283D01*
G01X2863658Y-2232118D01*
G01X2881502Y-2241656D01*
G01X2900864Y-2247530D01*
G01X2921000Y-2249513D01*
G01X2941136Y-2247530D01*
G01X2960498Y-2241656D01*
G01X2978342Y-2232118D01*
G01X2993983Y-2219283D01*
G01X3006818Y-2203642D01*
G01X3016356Y-2185798D01*
G01X3022230Y-2166436D01*
G01X3024213Y-2146300D01*
G01X3022230Y-2126164D01*
G01X3016356Y-2106802D01*
G01X3006818Y-2088958D01*
G01X2993983Y-2073317D01*
G01X2978342Y-2060482D01*
G01X2960498Y-2050944D01*
G01X2941136Y-2045070D01*
G01X2921000Y-2043087D01*
G01X2921000Y-2043087D01*
G01X2900864Y-2045070D01*
G01X2881502Y-2050944D01*
G01X2863658Y-2060482D01*
G01X2848017Y-2073317D01*
G01X2835182Y-2088958D01*
G01X2825644Y-2106802D01*
G01X2819770Y-2126164D01*
G01X2817787Y-2146300D01*
G01X2770213Y-2146300D01*
G01X2770213Y-2146300D01*
G01X2768230Y-2126164D01*
G01X2762356Y-2106802D01*
G01X2752818Y-2088958D01*
G01X2739983Y-2073317D01*
G01X2724342Y-2060482D01*
G01X2706498Y-2050944D01*
G01X2687136Y-2045070D01*
G01X2667000Y-2043087D01*
G01X2667000Y-2043087D01*
G01X2646864Y-2045070D01*
G01X2627502Y-2050944D01*
G01X2609658Y-2060482D01*
G01X2594017Y-2073317D01*
G01X2581182Y-2088958D01*
G01X2571644Y-2106802D01*
G01X2565770Y-2126164D01*
G01X2563787Y-2146300D01*
G01X2516213Y-2146300D01*
G01X2516213Y-2146300D01*
G01X2514230Y-2126164D01*
G01X2508356Y-2106802D01*
G01X2498818Y-2088958D01*
G01X2485983Y-2073317D01*
G01X2470342Y-2060482D01*
G01X2452498Y-2050944D01*
G01X2433136Y-2045070D01*
G01X2413000Y-2043087D01*
G01X2413000Y-2043087D01*
G01X2392864Y-2045070D01*
G01X2373502Y-2050944D01*
G01X2355658Y-2060482D01*
G01X2340017Y-2073317D01*
G01X2327182Y-2088958D01*
G01X2317644Y-2106802D01*
G01X2311770Y-2126164D01*
G01X2309787Y-2146300D01*
G01X2262215Y-2146300D01*
G01X2260232Y-2126164D01*
G01X2254359Y-2106802D01*
G01X2244821Y-2088958D01*
G01X2231985Y-2073317D01*
G01X2216345Y-2060482D01*
G01X2198500Y-2050944D01*
G01X2179138Y-2045070D01*
G01X2159003Y-2043087D01*
G01X2159003Y-2043087D01*
G01X2138867Y-2045070D01*
G01X2119505Y-2050944D01*
G01X2101661Y-2060482D01*
G01X2086020Y-2073317D01*
G01X2073184Y-2088958D01*
G01X2063646Y-2106802D01*
G01X2057773Y-2126164D01*
G01X2055790Y-2146300D01*
G01X2008215Y-2146300D01*
G01X2006232Y-2126164D01*
G01X2000359Y-2106802D01*
G01X1990821Y-2088958D01*
G01X1977985Y-2073317D01*
G01X1962345Y-2060482D01*
G01X1944500Y-2050944D01*
G01X1925138Y-2045070D01*
G01X1905003Y-2043087D01*
G01X1905003Y-2043087D01*
G01X1884867Y-2045070D01*
G01X1865505Y-2050944D01*
G01X1847661Y-2060482D01*
G01X1832020Y-2073317D01*
G01X1819184Y-2088958D01*
G01X1809646Y-2106802D01*
G01X1803773Y-2126164D01*
G01X1801790Y-2146300D01*
G01X1754215Y-2146300D01*
G01X1754215Y-2146300D01*
G01X1752232Y-2126164D01*
G01X1746359Y-2106802D01*
G01X1736821Y-2088958D01*
G01X1723985Y-2073317D01*
G01X1708345Y-2060482D01*
G01X1690500Y-2050944D01*
G01X1671138Y-2045070D01*
G01X1651003Y-2043087D01*
G01X1651003Y-2043087D01*
G01X1630867Y-2045070D01*
G01X1611505Y-2050944D01*
G01X1593661Y-2060482D01*
G01X1578020Y-2073317D01*
G01X1565184Y-2088958D01*
G01X1555646Y-2106802D01*
G01X1549773Y-2126164D01*
G01X1547790Y-2146300D01*
G01X1500215Y-2146300D01*
G01X1498232Y-2126164D01*
G01X1492359Y-2106802D01*
G01X1482821Y-2088958D01*
G01X1469985Y-2073317D01*
G01X1454345Y-2060482D01*
G01X1436500Y-2050944D01*
G01X1417138Y-2045070D01*
G01X1397003Y-2043087D01*
G01X1397003Y-2043087D01*
G01X1376867Y-2045070D01*
G01X1357505Y-2050944D01*
G01X1339661Y-2060482D01*
G01X1324020Y-2073317D01*
G01X1311184Y-2088958D01*
G01X1301646Y-2106802D01*
G01X1295773Y-2126164D01*
G01X1293790Y-2146300D01*
G01X1246215Y-2146300D01*
G01X1244232Y-2126164D01*
G01X1238359Y-2106802D01*
G01X1228821Y-2088958D01*
G01X1215985Y-2073317D01*
G01X1200345Y-2060482D01*
G01X1182500Y-2050944D01*
G01X1163138Y-2045070D01*
G01X1143003Y-2043087D01*
G01X1143003Y-2043087D01*
G01X1122867Y-2045070D01*
G01X1103505Y-2050944D01*
G01X1085661Y-2060482D01*
G01X1070020Y-2073317D01*
G01X1057184Y-2088958D01*
G01X1047646Y-2106802D01*
G01X1041773Y-2126164D01*
G01X1039790Y-2146300D01*
G01X-573786Y-2146300D01*
G01X-573786Y-2017014D01*
G01X3634486Y-2017014D01*
G37*
G54D10*
G01X3634486Y-2017014D02*
G01X3634486Y-3812286D01*
G01X-573786Y-3812286D01*
G01X-573786Y-2017014D01*
G01X3634486Y-2017014D01*
G01X-154841Y-3660041D02*
G03X-76200Y-3671369I46891J46891D01*
G03X-12700Y-3671369I31750J58219D01*
G03X50800Y-3671369I31750J58219D01*
G03X129441Y-3660041I31750J58219D01*
G03X140769Y-3581400I-46891J46891D01*
G03X129441Y-3502759I-58219J31750D01*
G03X50800Y-3491431I-46891J-46891D01*
G03X-12700Y-3491431I-31750J-58219D01*
G03X-76200Y-3491431I-31750J-58219D01*
G03X-154841Y-3502759I-31750J-58219D01*
G03X-166169Y-3581400I46891J-46891D01*
G03X-154841Y-3660041I58219J-31750D01*
G01X250543Y-3513483D02*
G03X329184Y-3524811I46891J46891D01*
G03X407825Y-3513483I31750J58219D01*
G03X419153Y-3434842I-46891J46891D01*
G03X407825Y-3356201I-58219J31750D01*
G03X329184Y-3344873I-46891J-46891D01*
G03X250543Y-3356201I-31750J-58219D01*
G03X239215Y-3434842I46891J-46891D01*
G03X250543Y-3513483I58219J-31750D01*
G01X1143000Y-3567087D02*
G03X1143000Y-3773513I0J-103213D01*
G03X1143000Y-3567087I0J103213D01*
G01X1143003Y-2043087D02*
G03X1143003Y-2249513I0J-103213D01*
G03X1143003Y-2043087I0J103213D01*
G01X1397000Y-3567087D02*
G03X1397000Y-3773513I0J-103213D01*
G03X1397000Y-3567087I0J103213D01*
G01X1397003Y-2043087D02*
G03X1397003Y-2249513I0J-103213D01*
G03X1397003Y-2043087I0J103213D01*
G01X1650997Y-3567087D02*
G03X1650997Y-3773513I0J-103213D01*
G03X1650997Y-3567087I0J103213D01*
G01X1651003Y-2043087D02*
G03X1651003Y-2249513I0J-103213D01*
G03X1651003Y-2043087I0J103213D01*
G01X1904997Y-3567087D02*
G03X1904997Y-3773513I0J-103213D01*
G03X1904997Y-3567087I0J103213D01*
G01X1905003Y-2043087D02*
G03X1905003Y-2249513I0J-103213D01*
G03X1905003Y-2043087I0J103213D01*
G01X2158997Y-3567087D02*
G03X2158997Y-3773513I0J-103213D01*
G03X2158997Y-3567087I0J103213D01*
G01X2159003Y-2043087D02*
G03X2159003Y-2249513I0J-103213D01*
G03X2159003Y-2043087I0J103213D01*
G01X2301761Y-2908300D02*
G03X2573389Y-2908300I135814J0D01*
G03X2301761Y-2908300I-135814J0D01*
G01X2412997Y-3567087D02*
G03X2412997Y-3773513I0J-103213D01*
G03X2412997Y-3567087I0J103213D01*
G01X2413000Y-2043087D02*
G03X2413000Y-2249513I0J-103213D01*
G03X2413000Y-2043087I0J103213D01*
G01X2563785Y-3737699D02*
G03X2599599Y-3773513I35814J0D01*
G01X2734396Y-3773513D01*
G03X2770210Y-3737699I0J35814D01*
G01X2770210Y-3602901D01*
G03X2734396Y-3567087I-35814J0D01*
G01X2599599Y-3567087D01*
G03X2563785Y-3602901I0J-35814D01*
G01X2563785Y-3737699D01*
G01X2667000Y-2043087D02*
G03X2667000Y-2249513I0J-103213D01*
G03X2667000Y-2043087I0J103213D01*
G01X2896354Y-2285246D02*
G03X2817712Y-2273918I-46891J-46891D01*
G03X2739071Y-2285246I-31750J-58219D01*
G03X2727743Y-2363888I46891J-46891D01*
G03X2739071Y-2442529I58219J-31750D01*
G03X2817712Y-2453857I46891J46891D01*
G03X2896354Y-2442529I31750J58219D01*
G03X2907682Y-2363888I-46891J46891D01*
G03X2896354Y-2285246I-58219J31750D01*
G01X2920997Y-3773513D02*
G03X2920997Y-3567087I0J103213D01*
G03X2920997Y-3773513I0J-103213D01*
G01X2921000Y-2043087D02*
G03X2921000Y-2249513I0J-103213D01*
G03X2921000Y-2043087I0J103213D01*
G01X3279041Y-3509617D02*
G03X3200400Y-3498289I-46891J-46891D01*
G03X3121759Y-3509617I-31750J-58219D01*
G03X3110431Y-3588258I46891J-46891D01*
G03X3121759Y-3666899I58219J-31750D01*
G03X3200400Y-3678227I46891J46891D01*
G03X3279041Y-3666899I31750J58219D01*
G03X3290369Y-3588258I-46891J46891D01*
G03X3279041Y-3509617I-58219J31750D01*
G01X3505200Y-2411814D02*
G03X3505200Y-2160186I0J125814D01*
G03X3505200Y-2411814I0J-125814D01*
G01X3505200Y-2665814D02*
G03X3505200Y-2414186I0J125814D01*
G03X3505200Y-2665814I0J-125814D01*
G01X3505200Y-3173814D02*
G03X3505200Y-2922186I0J125814D01*
G03X3505200Y-3173814I0J-125814D01*
G01X3505200Y-2919814D02*
G03X3505200Y-2668186I0J125814D01*
G03X3505200Y-2919814I0J-125814D01*
G01X3505200Y-3681814D02*
G03X3505200Y-3430186I0J125814D01*
G03X3505200Y-3681814I0J-125814D01*
G01X3631014Y-3212000D02*
G03X3595200Y-3176186I-35814J0D01*
G01X3415200Y-3176186D01*
G03X3379386Y-3212000I0J-35814D01*
G01X3379386Y-3392000D01*
G03X3415200Y-3427814I35814J0D01*
G01X3595200Y-3427814D01*
G03X3631014Y-3392000I0J35814D01*
G01X3631014Y-3212000D01*
G54D11*
G01X2666997Y-3670300D02*
G01X2666997Y-3577247D01*
G01X2666997Y-3670300D02*
G01X2666997Y-3763353D01*
G01X2666997Y-3670300D02*
G01X2760050Y-3670300D01*
G01X2666997Y-3670300D02*
G01X2573945Y-3670300D01*
G01X3505200Y-3302000D02*
G01X3505200Y-3417654D01*
G01X3505200Y-3302000D02*
G01X3505200Y-3186346D01*
G01X3505200Y-3302000D02*
G01X3389546Y-3302000D01*
G01X3505200Y-3302000D02*
G01X3620854Y-3302000D01*
G04 Copper End*

G04 Pad Start*
G54D12*
G01X3505200Y-2286000D03*
G01X3505200Y-2540000D03*
G01X3505200Y-2794000D03*
G01X3505200Y-3048000D03*
G54D13*
G01X3505200Y-3302000D03*
G54D12*
G01X3505200Y-3556000D03*
G54D14*
G01X2921000Y-2146300D03*
G01X2667000Y-2146300D03*
G01X2413000Y-2146300D03*
G01X2159003Y-2146300D03*
G01X1905003Y-2146300D03*
G01X1651003Y-2146300D03*
G01X1397003Y-2146300D03*
G01X1143003Y-2146300D03*
G01X1143000Y-3670300D03*
G01X1397000Y-3670300D03*
G01X1650997Y-3670300D03*
G01X1904997Y-3670300D03*
G01X2158997Y-3670300D03*
G01X2412997Y-3670300D03*
G54D15*
G01X2666997Y-3670300D03*
G54D14*
G01X2920997Y-3670300D03*
G04 Pad End*

G04 Via Start*
G54D17*
G01X88900Y-3289300D03*
G01X88900Y-3352800D03*
G01X25400Y-3289300D03*
G01X25400Y-3352800D03*
G01X-38100Y-3289300D03*
G01X-38100Y-3352800D03*
G01X-101600Y-3289300D03*
G01X-101600Y-3352800D03*
G01X-107950Y-3549650D03*
G01X-107950Y-3613150D03*
G01X-44450Y-3613150D03*
G01X-44450Y-3549650D03*
G01X19050Y-3549650D03*
G01X82550Y-3549650D03*
G01X82550Y-3613150D03*
G01X19050Y-3613150D03*
G01X679450Y-3466592D03*
G01X615950Y-3466592D03*
G01X615950Y-3403092D03*
G01X679450Y-3403092D03*
G01X297434Y-3403092D03*
G01X360934Y-3403092D03*
G01X360934Y-3466592D03*
G01X297434Y-3466592D03*
G01X3168650Y-3556508D03*
G01X3232150Y-3556508D03*
G01X3232150Y-3620008D03*
G01X3168650Y-3620008D03*
G01X3168650Y-3237992D03*
G01X3232150Y-3237992D03*
G01X3232150Y-3301492D03*
G01X3168650Y-3301492D03*
G01X2785962Y-2332138D03*
G01X2849462Y-2332138D03*
G01X2785962Y-2395638D03*
G01X2849462Y-2395638D03*
G01X2560738Y-2557362D03*
G01X2560738Y-2620862D03*
G01X2624238Y-2620862D03*
G01X2624238Y-2557362D03*
G04 Via End*

M02*

