G04 Layer: BottomLayer*
G04 EasyEDA Pro v3.2.148, 2026-07-10 19:43:19*
G04 Gerber Generator version 0.3*
G04 Scale: 100 percent, Rotated: No, Reflected: No*
G04 Dimensions in millimeters*
G04 Leading zeros omitted, absolute positions, 4 integers and 5 decimals*
G04 Generated by one-click*
G04 Object Configs: Pad,Via,Track,Text,Image,Dimension,BoardOutline,BoardCutout,CopperFilled,SolidRegion,FPCStiffener,Line,PlaneZone,ComponentProperty,ComponentSilkscreen,TearDrop*
G04 Layer Configs: 1,15,16,2,3,4,5,6,7,8,9,10,11,13,14,56*
G04 Copper Areas: 0*
%FSLAX45Y45*%
%MOMM*%
%AMRect*21,1,$1,$2,0,0,$3*%
%ADD10R,7.2X1.8*%
%ADD11R,1.72799X1.48501*%
%ADD12C,1.8*%
%ADD13R,1.8X1.8*%
%ADD14R,1.20752X1.70101*%
%ADD15C,1.34798*%
%ADD16R,1.34798X1.34798*%
%ADD17Rect,1.4908X1.72799X45.0*%
%ADD18Rect,1.48501X1.72799X45.0*%
%ADD19C,0.61*%
%ADD20C,0.254*%
G75*


G04 Pad Start*
G54D10*
G01X-215900Y-3581400D03*
G01X-215900Y-3073400D03*
G01X-215900Y-2819400D03*
G01X-215900Y-2560836D03*
G01X-215900Y-2311400D03*
G01X-215900Y-3327400D03*
G54D11*
G01X3200400Y-3269742D03*
G01X3200400Y-3588258D03*
G54D12*
G01X3505200Y-2286000D03*
G01X3505200Y-2540000D03*
G01X3505200Y-2794000D03*
G01X3505200Y-3048000D03*
G54D13*
G01X3505200Y-3302000D03*
G54D12*
G01X3505200Y-3556000D03*
G54D14*
G01X322021Y-3085088D03*
G01X617779Y-3085088D03*
G01X322021Y-2819400D03*
G01X617779Y-2819400D03*
G01X322021Y-2552700D03*
G01X617779Y-2552700D03*
G01X322021Y-2298700D03*
G01X617779Y-2298700D03*
G54D15*
G01X2921000Y-2146300D03*
G01X2667000Y-2146300D03*
G01X2413000Y-2146300D03*
G01X2159003Y-2146300D03*
G01X1905003Y-2146300D03*
G01X1651003Y-2146300D03*
G01X1397003Y-2146300D03*
G01X1143003Y-2146300D03*
G01X1143000Y-3670300D03*
G01X1397000Y-3670300D03*
G01X1650997Y-3670300D03*
G01X1904997Y-3670300D03*
G01X2158997Y-3670300D03*
G01X2412997Y-3670300D03*
G54D16*
G01X2666997Y-3670300D03*
G54D15*
G01X2920997Y-3670300D03*
G54D18*
G01X2592488Y-2589112D03*
G01X2817712Y-2363888D03*
G04 Pad End*

G04 Via Start*
G54D19*
G01X88900Y-3289300D03*
G01X88900Y-3352800D03*
G01X25400Y-3289300D03*
G01X25400Y-3352800D03*
G01X-38100Y-3289300D03*
G01X-38100Y-3352800D03*
G01X-101600Y-3289300D03*
G01X-101600Y-3352800D03*
G01X-107950Y-3549650D03*
G01X-107950Y-3613150D03*
G01X-44450Y-3613150D03*
G01X-44450Y-3549650D03*
G01X19050Y-3549650D03*
G01X82550Y-3549650D03*
G01X82550Y-3613150D03*
G01X19050Y-3613150D03*
G01X679450Y-3466592D03*
G01X615950Y-3466592D03*
G01X615950Y-3403092D03*
G01X679450Y-3403092D03*
G01X297434Y-3403092D03*
G01X360934Y-3403092D03*
G01X360934Y-3466592D03*
G01X297434Y-3466592D03*
G01X3168650Y-3556508D03*
G01X3232150Y-3556508D03*
G01X3232150Y-3620008D03*
G01X3168650Y-3620008D03*
G01X3168650Y-3237992D03*
G01X3232150Y-3237992D03*
G01X3232150Y-3301492D03*
G01X3168650Y-3301492D03*
G01X2785962Y-2332138D03*
G01X2849462Y-2332138D03*
G01X2785962Y-2395638D03*
G01X2849462Y-2395638D03*
G01X2560738Y-2557362D03*
G01X2560738Y-2620862D03*
G01X2624238Y-2620862D03*
G01X2624238Y-2557362D03*
G04 Via End*

G04 Track Start*
G54D20*
G01X-215900Y-3073400D02*
G01X310334Y-3073400D01*
G01X322021Y-3085088D01*
G01X-215900Y-2819400D02*
G01X322021Y-2819400D01*
G01X-215900Y-2560836D02*
G01X313885Y-2560836D01*
G01X322021Y-2552700D01*
G01X-215900Y-2311400D02*
G01X309321Y-2311400D01*
G01X322021Y-2298700D01*
G01X3492500Y-2540000D02*
G01X3505200Y-2527300D01*
G01X3492500Y-2286000D02*
G01X3505200Y-2273300D01*
G01X3492500Y-2794000D02*
G01X3505200Y-2781300D01*
G01X3492500Y-3048000D02*
G01X3505200Y-3035300D01*
G01X617779Y-3085088D02*
G01X1296412Y-3085088D01*
G01X2159003Y-2222497D01*
G01X2159003Y-2159000D01*
G01X617779Y-2819400D02*
G01X1308100Y-2819400D01*
G01X1905003Y-2222497D01*
G01X1905003Y-2159000D01*
G01X617779Y-2552700D02*
G01X1066800Y-2552700D01*
G01X1397003Y-2222497D01*
G01X1397003Y-2159000D01*
G01X617779Y-2298700D02*
G01X1066800Y-2298700D01*
G01X1143003Y-2222497D01*
G01X1143003Y-2159000D01*
G01X1397000Y-3683000D02*
G01X1397000Y-3632200D01*
G01X1650997Y-3683000D02*
G01X1650997Y-3644903D01*
G01X1904997Y-3683000D02*
G01X1904997Y-3632203D01*
G01X1143000Y-3683000D02*
G01X1143000Y-3619500D01*
G01X1904997Y-3632203D02*
G01X2057400Y-3479800D01*
G01X2743200Y-3479800D01*
G01X3175000Y-3048000D01*
G01X3492500Y-3048000D01*
G01X1650997Y-3644903D02*
G01X1943100Y-3352800D01*
G01X2679700Y-3352800D01*
G01X3238500Y-2794000D01*
G01X3492500Y-2794000D01*
G01X1397000Y-3632200D02*
G01X1803400Y-3225800D01*
G01X2628900Y-3225800D01*
G01X3314700Y-2540000D01*
G01X3492500Y-2540000D01*
G01X3416300Y-2286000D02*
G01X3492500Y-2286000D01*
G01X1143000Y-3619500D02*
G01X1638300Y-3124200D01*
G01X2578100Y-3124200D01*
G01X3416300Y-2286000D01*
G04 Track End*

M02*

